G04 #@! TF.GenerationSoftware,KiCad,Pcbnew,(5.0.2)-1*
G04 #@! TF.CreationDate,2019-01-19T12:13:54+11:00*
G04 #@! TF.ProjectId,WarGames_SAO,57617247-616d-4657-935f-53414f2e6b69,rev?*
G04 #@! TF.SameCoordinates,Original*
G04 #@! TF.FileFunction,Copper,L1,Top*
G04 #@! TF.FilePolarity,Positive*
%FSLAX46Y46*%
G04 Gerber Fmt 4.6, Leading zero omitted, Abs format (unit mm)*
G04 Created by KiCad (PCBNEW (5.0.2)-1) date 19/01/2019 12:13:54*
%MOMM*%
%LPD*%
G01*
G04 APERTURE LIST*
G04 #@! TA.AperFunction,EtchedComponent*
%ADD10C,0.010000*%
G04 #@! TD*
G04 #@! TA.AperFunction,ComponentPad*
%ADD11O,1.700000X1.700000*%
G04 #@! TD*
G04 #@! TA.AperFunction,ComponentPad*
%ADD12R,1.700000X1.700000*%
G04 #@! TD*
G04 #@! TA.AperFunction,Conductor*
%ADD13C,0.100000*%
G04 #@! TD*
G04 #@! TA.AperFunction,SMDPad,CuDef*
%ADD14C,0.875000*%
G04 #@! TD*
G04 #@! TA.AperFunction,ViaPad*
%ADD15C,0.600000*%
G04 #@! TD*
G04 #@! TA.AperFunction,Conductor*
%ADD16C,0.250000*%
G04 #@! TD*
G04 APERTURE END LIST*
D10*
G04 #@! TO.C,G\002A\002A\002A*
G36*
X119312895Y-45991230D02*
X119431274Y-46035597D01*
X119543689Y-46114180D01*
X119703472Y-46259401D01*
X119888124Y-46446506D01*
X120075147Y-46650742D01*
X120242043Y-46847354D01*
X120366313Y-47011588D01*
X120425458Y-47118689D01*
X120427500Y-47131711D01*
X120425823Y-47173898D01*
X120411821Y-47215696D01*
X120372035Y-47271216D01*
X120293007Y-47354571D01*
X120161278Y-47479872D01*
X119963391Y-47661230D01*
X119685886Y-47912757D01*
X119661868Y-47934500D01*
X119395503Y-48177494D01*
X119127642Y-48425022D01*
X118891808Y-48645938D01*
X118739282Y-48791750D01*
X118533839Y-48991326D01*
X118284465Y-49233172D01*
X118038567Y-49471318D01*
X117991457Y-49516894D01*
X117570000Y-49924539D01*
X117570000Y-49268000D01*
X115506250Y-49267180D01*
X115823144Y-48997715D01*
X116034717Y-48810979D01*
X116245353Y-48614276D01*
X116362894Y-48497710D01*
X116534150Y-48326894D01*
X116764378Y-48106459D01*
X117039394Y-47849116D01*
X117345014Y-47567578D01*
X117667056Y-47274556D01*
X117991337Y-46982762D01*
X118303674Y-46704908D01*
X118589882Y-46453706D01*
X118835780Y-46241868D01*
X119027184Y-46082106D01*
X119149912Y-45987131D01*
X119187608Y-45966000D01*
X119312895Y-45991230D01*
X119312895Y-45991230D01*
G37*
X119312895Y-45991230D02*
X119431274Y-46035597D01*
X119543689Y-46114180D01*
X119703472Y-46259401D01*
X119888124Y-46446506D01*
X120075147Y-46650742D01*
X120242043Y-46847354D01*
X120366313Y-47011588D01*
X120425458Y-47118689D01*
X120427500Y-47131711D01*
X120425823Y-47173898D01*
X120411821Y-47215696D01*
X120372035Y-47271216D01*
X120293007Y-47354571D01*
X120161278Y-47479872D01*
X119963391Y-47661230D01*
X119685886Y-47912757D01*
X119661868Y-47934500D01*
X119395503Y-48177494D01*
X119127642Y-48425022D01*
X118891808Y-48645938D01*
X118739282Y-48791750D01*
X118533839Y-48991326D01*
X118284465Y-49233172D01*
X118038567Y-49471318D01*
X117991457Y-49516894D01*
X117570000Y-49924539D01*
X117570000Y-49268000D01*
X115506250Y-49267180D01*
X115823144Y-48997715D01*
X116034717Y-48810979D01*
X116245353Y-48614276D01*
X116362894Y-48497710D01*
X116534150Y-48326894D01*
X116764378Y-48106459D01*
X117039394Y-47849116D01*
X117345014Y-47567578D01*
X117667056Y-47274556D01*
X117991337Y-46982762D01*
X118303674Y-46704908D01*
X118589882Y-46453706D01*
X118835780Y-46241868D01*
X119027184Y-46082106D01*
X119149912Y-45987131D01*
X119187608Y-45966000D01*
X119312895Y-45991230D01*
G36*
X111484089Y-45923913D02*
X111598373Y-45991715D01*
X111757739Y-46111247D01*
X111968113Y-46287851D01*
X112235420Y-46526868D01*
X112565588Y-46833639D01*
X112964541Y-47213506D01*
X113438207Y-47671810D01*
X113992511Y-48213894D01*
X114204500Y-48422274D01*
X115061750Y-49265858D01*
X114128293Y-49266929D01*
X113194837Y-49268000D01*
X113175793Y-49611276D01*
X113156750Y-49954552D01*
X111712125Y-48532428D01*
X111359777Y-48183007D01*
X111038501Y-47859471D01*
X110759124Y-47573114D01*
X110532473Y-47335229D01*
X110369378Y-47157110D01*
X110280665Y-47050050D01*
X110267500Y-47025684D01*
X110308709Y-46947511D01*
X110420434Y-46800366D01*
X110584815Y-46606491D01*
X110752401Y-46421782D01*
X110987079Y-46178489D01*
X111160351Y-46020332D01*
X111290057Y-45933203D01*
X111394034Y-45902994D01*
X111408961Y-45902500D01*
X111484089Y-45923913D01*
X111484089Y-45923913D01*
G37*
X111484089Y-45923913D02*
X111598373Y-45991715D01*
X111757739Y-46111247D01*
X111968113Y-46287851D01*
X112235420Y-46526868D01*
X112565588Y-46833639D01*
X112964541Y-47213506D01*
X113438207Y-47671810D01*
X113992511Y-48213894D01*
X114204500Y-48422274D01*
X115061750Y-49265858D01*
X114128293Y-49266929D01*
X113194837Y-49268000D01*
X113175793Y-49611276D01*
X113156750Y-49954552D01*
X111712125Y-48532428D01*
X111359777Y-48183007D01*
X111038501Y-47859471D01*
X110759124Y-47573114D01*
X110532473Y-47335229D01*
X110369378Y-47157110D01*
X110280665Y-47050050D01*
X110267500Y-47025684D01*
X110308709Y-46947511D01*
X110420434Y-46800366D01*
X110584815Y-46606491D01*
X110752401Y-46421782D01*
X110987079Y-46178489D01*
X111160351Y-46020332D01*
X111290057Y-45933203D01*
X111394034Y-45902994D01*
X111408961Y-45902500D01*
X111484089Y-45923913D01*
G36*
X145789956Y-46307612D02*
X146006571Y-46466983D01*
X146267109Y-46722888D01*
X146395843Y-46864514D01*
X146579563Y-47075645D01*
X146726750Y-47252389D01*
X146819806Y-47373132D01*
X146843500Y-47414272D01*
X146800210Y-47468517D01*
X146677489Y-47601165D01*
X146486055Y-47801169D01*
X146236627Y-48057478D01*
X145939923Y-48359045D01*
X145606663Y-48694821D01*
X145414750Y-48887000D01*
X143986000Y-50314691D01*
X143986000Y-49398224D01*
X143012521Y-49380737D01*
X142039043Y-49363250D01*
X143113631Y-48347250D01*
X143460856Y-48018644D01*
X143815018Y-47682921D01*
X144152901Y-47362129D01*
X144451287Y-47078315D01*
X144686960Y-46853526D01*
X144737984Y-46804706D01*
X144965768Y-46594782D01*
X145173654Y-46418075D01*
X145337942Y-46293810D01*
X145431857Y-46241888D01*
X145603105Y-46235629D01*
X145789956Y-46307612D01*
X145789956Y-46307612D01*
G37*
X145789956Y-46307612D02*
X146006571Y-46466983D01*
X146267109Y-46722888D01*
X146395843Y-46864514D01*
X146579563Y-47075645D01*
X146726750Y-47252389D01*
X146819806Y-47373132D01*
X146843500Y-47414272D01*
X146800210Y-47468517D01*
X146677489Y-47601165D01*
X146486055Y-47801169D01*
X146236627Y-48057478D01*
X145939923Y-48359045D01*
X145606663Y-48694821D01*
X145414750Y-48887000D01*
X143986000Y-50314691D01*
X143986000Y-49398224D01*
X143012521Y-49380737D01*
X142039043Y-49363250D01*
X143113631Y-48347250D01*
X143460856Y-48018644D01*
X143815018Y-47682921D01*
X144152901Y-47362129D01*
X144451287Y-47078315D01*
X144686960Y-46853526D01*
X144737984Y-46804706D01*
X144965768Y-46594782D01*
X145173654Y-46418075D01*
X145337942Y-46293810D01*
X145431857Y-46241888D01*
X145603105Y-46235629D01*
X145789956Y-46307612D01*
G36*
X137706727Y-46117301D02*
X137786474Y-46146083D01*
X137889891Y-46206729D01*
X138026059Y-46306202D01*
X138204059Y-46451466D01*
X138432974Y-46649486D01*
X138721885Y-46907224D01*
X139079875Y-47231646D01*
X139516025Y-47629716D01*
X139883997Y-47966250D01*
X140179394Y-48237246D01*
X140476401Y-48511118D01*
X140747064Y-48762000D01*
X140963434Y-48964025D01*
X141030951Y-49027663D01*
X141414250Y-49390577D01*
X140543796Y-49392788D01*
X139673342Y-49395000D01*
X139654796Y-49866703D01*
X139636250Y-50338407D01*
X139382250Y-50108606D01*
X139254394Y-49991280D01*
X139054129Y-49805502D01*
X138801463Y-49569927D01*
X138516407Y-49303209D01*
X138239250Y-49043068D01*
X137923986Y-48747803D01*
X137605073Y-48451072D01*
X137307694Y-48176173D01*
X137057036Y-47946403D01*
X136905750Y-47809551D01*
X136708831Y-47625534D01*
X136551433Y-47463780D01*
X136456269Y-47348350D01*
X136439043Y-47315187D01*
X136469674Y-47220308D01*
X136572252Y-47081897D01*
X136662330Y-46989176D01*
X136857811Y-46792947D01*
X137058867Y-46571001D01*
X137124243Y-46492988D01*
X137282739Y-46324739D01*
X137445275Y-46193480D01*
X137518680Y-46152490D01*
X137581911Y-46127468D01*
X137641566Y-46113417D01*
X137706727Y-46117301D01*
X137706727Y-46117301D01*
G37*
X137706727Y-46117301D02*
X137786474Y-46146083D01*
X137889891Y-46206729D01*
X138026059Y-46306202D01*
X138204059Y-46451466D01*
X138432974Y-46649486D01*
X138721885Y-46907224D01*
X139079875Y-47231646D01*
X139516025Y-47629716D01*
X139883997Y-47966250D01*
X140179394Y-48237246D01*
X140476401Y-48511118D01*
X140747064Y-48762000D01*
X140963434Y-48964025D01*
X141030951Y-49027663D01*
X141414250Y-49390577D01*
X140543796Y-49392788D01*
X139673342Y-49395000D01*
X139654796Y-49866703D01*
X139636250Y-50338407D01*
X139382250Y-50108606D01*
X139254394Y-49991280D01*
X139054129Y-49805502D01*
X138801463Y-49569927D01*
X138516407Y-49303209D01*
X138239250Y-49043068D01*
X137923986Y-48747803D01*
X137605073Y-48451072D01*
X137307694Y-48176173D01*
X137057036Y-47946403D01*
X136905750Y-47809551D01*
X136708831Y-47625534D01*
X136551433Y-47463780D01*
X136456269Y-47348350D01*
X136439043Y-47315187D01*
X136469674Y-47220308D01*
X136572252Y-47081897D01*
X136662330Y-46989176D01*
X136857811Y-46792947D01*
X137058867Y-46571001D01*
X137124243Y-46492988D01*
X137282739Y-46324739D01*
X137445275Y-46193480D01*
X137518680Y-46152490D01*
X137581911Y-46127468D01*
X137641566Y-46113417D01*
X137706727Y-46117301D01*
G36*
X113173196Y-51611146D02*
X113186100Y-51757251D01*
X113188500Y-51871500D01*
X113188500Y-52189000D01*
X115125250Y-52192436D01*
X114871250Y-52422466D01*
X114715925Y-52564805D01*
X114501274Y-52763705D01*
X114260295Y-52988516D01*
X114103998Y-53135123D01*
X113843148Y-53378891D01*
X113530631Y-53668649D01*
X113208909Y-53965129D01*
X112964135Y-54189250D01*
X112675444Y-54453294D01*
X112368263Y-54735479D01*
X112081647Y-54999864D01*
X111877325Y-55189375D01*
X111668721Y-55372718D01*
X111482294Y-55516909D01*
X111344241Y-55602645D01*
X111295560Y-55618000D01*
X111200543Y-55571828D01*
X111042062Y-55443680D01*
X110838000Y-55249105D01*
X110673122Y-55076854D01*
X110473213Y-54857463D01*
X110307141Y-54668779D01*
X110193129Y-54531938D01*
X110149869Y-54469963D01*
X110185120Y-54393974D01*
X110315921Y-54238454D01*
X110542702Y-54002964D01*
X110865891Y-53687065D01*
X111285919Y-53290317D01*
X111475214Y-53114369D01*
X111722326Y-52883772D01*
X112018891Y-52604361D01*
X112323098Y-52315641D01*
X112533734Y-52114244D01*
X112756209Y-51903165D01*
X112945393Y-51728444D01*
X113082861Y-51606754D01*
X113150186Y-51554769D01*
X113152859Y-51554000D01*
X113173196Y-51611146D01*
X113173196Y-51611146D01*
G37*
X113173196Y-51611146D02*
X113186100Y-51757251D01*
X113188500Y-51871500D01*
X113188500Y-52189000D01*
X115125250Y-52192436D01*
X114871250Y-52422466D01*
X114715925Y-52564805D01*
X114501274Y-52763705D01*
X114260295Y-52988516D01*
X114103998Y-53135123D01*
X113843148Y-53378891D01*
X113530631Y-53668649D01*
X113208909Y-53965129D01*
X112964135Y-54189250D01*
X112675444Y-54453294D01*
X112368263Y-54735479D01*
X112081647Y-54999864D01*
X111877325Y-55189375D01*
X111668721Y-55372718D01*
X111482294Y-55516909D01*
X111344241Y-55602645D01*
X111295560Y-55618000D01*
X111200543Y-55571828D01*
X111042062Y-55443680D01*
X110838000Y-55249105D01*
X110673122Y-55076854D01*
X110473213Y-54857463D01*
X110307141Y-54668779D01*
X110193129Y-54531938D01*
X110149869Y-54469963D01*
X110185120Y-54393974D01*
X110315921Y-54238454D01*
X110542702Y-54002964D01*
X110865891Y-53687065D01*
X111285919Y-53290317D01*
X111475214Y-53114369D01*
X111722326Y-52883772D01*
X112018891Y-52604361D01*
X112323098Y-52315641D01*
X112533734Y-52114244D01*
X112756209Y-51903165D01*
X112945393Y-51728444D01*
X113082861Y-51606754D01*
X113150186Y-51554769D01*
X113152859Y-51554000D01*
X113173196Y-51611146D01*
G36*
X128268137Y-46164875D02*
X128535250Y-46172300D01*
X128948068Y-46189144D01*
X129267760Y-46212768D01*
X129528182Y-46247613D01*
X129763186Y-46298120D01*
X129988020Y-46362855D01*
X130439547Y-46512917D01*
X130794488Y-46652819D01*
X131080893Y-46796780D01*
X131326813Y-46959024D01*
X131560300Y-47153771D01*
X131575463Y-47167661D01*
X131792262Y-47362333D01*
X132007388Y-47547491D01*
X132178131Y-47686471D01*
X132193717Y-47698387D01*
X132337541Y-47838152D01*
X132521738Y-48061723D01*
X132726500Y-48341068D01*
X132932021Y-48648155D01*
X133118495Y-48954954D01*
X133238405Y-49176871D01*
X133381838Y-49552649D01*
X133488479Y-50023378D01*
X133553368Y-50561061D01*
X133572000Y-51059738D01*
X133566388Y-51412946D01*
X133544219Y-51693811D01*
X133497494Y-51956704D01*
X133418213Y-52255994D01*
X133374600Y-52401324D01*
X133238137Y-52815636D01*
X133100622Y-53147131D01*
X132939297Y-53435340D01*
X132731409Y-53719795D01*
X132454200Y-54040028D01*
X132392523Y-54107411D01*
X132119618Y-54390566D01*
X131865071Y-54619355D01*
X131597528Y-54815830D01*
X131285635Y-55002044D01*
X130898040Y-55200048D01*
X130714500Y-55287623D01*
X130398040Y-55426413D01*
X130100755Y-55530394D01*
X129792525Y-55605636D01*
X129443231Y-55658207D01*
X129022751Y-55694176D01*
X128587250Y-55716213D01*
X128261881Y-55723555D01*
X127995420Y-55711157D01*
X127734882Y-55672903D01*
X127427281Y-55602677D01*
X127285500Y-55565931D01*
X126713146Y-55389790D01*
X126206331Y-55183845D01*
X125784160Y-54957265D01*
X125465739Y-54719219D01*
X125412250Y-54666989D01*
X125229508Y-54490149D01*
X125043991Y-54329234D01*
X124957721Y-54263171D01*
X124698305Y-54030246D01*
X124428729Y-53700896D01*
X124164645Y-53303045D01*
X123921706Y-52864617D01*
X123715565Y-52413537D01*
X123561875Y-51977728D01*
X123482930Y-51632196D01*
X123436217Y-51160253D01*
X125317000Y-51160253D01*
X125317000Y-51712755D01*
X125674473Y-52316002D01*
X125956500Y-52743057D01*
X126247083Y-53071986D01*
X126575500Y-53329959D01*
X126971027Y-53544150D01*
X127022993Y-53567582D01*
X127594589Y-53784794D01*
X128135485Y-53908976D01*
X128690409Y-53949272D01*
X128874626Y-53946076D01*
X129157155Y-53932750D01*
X129367034Y-53908948D01*
X129548157Y-53862747D01*
X129744417Y-53782222D01*
X129999706Y-53655451D01*
X130061276Y-53623723D01*
X130520702Y-53348506D01*
X130884515Y-53036562D01*
X131183992Y-52656363D01*
X131404190Y-52270180D01*
X131576378Y-51833716D01*
X131683487Y-51355974D01*
X131722282Y-50873460D01*
X131689522Y-50422679D01*
X131598441Y-50079975D01*
X131456888Y-49776134D01*
X131270743Y-49454347D01*
X131063592Y-49149635D01*
X130859021Y-48897014D01*
X130699545Y-48745365D01*
X130362924Y-48520068D01*
X129972595Y-48307742D01*
X129579766Y-48133974D01*
X129276584Y-48034271D01*
X128969076Y-47978075D01*
X128604148Y-47945457D01*
X128221212Y-47936573D01*
X127859680Y-47951578D01*
X127558966Y-47990626D01*
X127420405Y-48026960D01*
X127118737Y-48157789D01*
X126791458Y-48338984D01*
X126476533Y-48545966D01*
X126211926Y-48754152D01*
X126059454Y-48908121D01*
X125822306Y-49248822D01*
X125610093Y-49646941D01*
X125449580Y-50048109D01*
X125388454Y-50271250D01*
X125354350Y-50499283D01*
X125329098Y-50796615D01*
X125317329Y-51105614D01*
X125317000Y-51160253D01*
X123436217Y-51160253D01*
X123419063Y-50986956D01*
X123431871Y-50398450D01*
X123520732Y-49888269D01*
X123534694Y-49839297D01*
X123685016Y-49355220D01*
X123824466Y-48967808D01*
X123968972Y-48649586D01*
X124134459Y-48373077D01*
X124336853Y-48110807D01*
X124592082Y-47835300D01*
X124834439Y-47597038D01*
X125132435Y-47321290D01*
X125395080Y-47107701D01*
X125660338Y-46931314D01*
X125966176Y-46767173D01*
X126350556Y-46590323D01*
X126396500Y-46570227D01*
X126770596Y-46411140D01*
X127072408Y-46297487D01*
X127337501Y-46222652D01*
X127601443Y-46180016D01*
X127899799Y-46162963D01*
X128268137Y-46164875D01*
X128268137Y-46164875D01*
G37*
X128268137Y-46164875D02*
X128535250Y-46172300D01*
X128948068Y-46189144D01*
X129267760Y-46212768D01*
X129528182Y-46247613D01*
X129763186Y-46298120D01*
X129988020Y-46362855D01*
X130439547Y-46512917D01*
X130794488Y-46652819D01*
X131080893Y-46796780D01*
X131326813Y-46959024D01*
X131560300Y-47153771D01*
X131575463Y-47167661D01*
X131792262Y-47362333D01*
X132007388Y-47547491D01*
X132178131Y-47686471D01*
X132193717Y-47698387D01*
X132337541Y-47838152D01*
X132521738Y-48061723D01*
X132726500Y-48341068D01*
X132932021Y-48648155D01*
X133118495Y-48954954D01*
X133238405Y-49176871D01*
X133381838Y-49552649D01*
X133488479Y-50023378D01*
X133553368Y-50561061D01*
X133572000Y-51059738D01*
X133566388Y-51412946D01*
X133544219Y-51693811D01*
X133497494Y-51956704D01*
X133418213Y-52255994D01*
X133374600Y-52401324D01*
X133238137Y-52815636D01*
X133100622Y-53147131D01*
X132939297Y-53435340D01*
X132731409Y-53719795D01*
X132454200Y-54040028D01*
X132392523Y-54107411D01*
X132119618Y-54390566D01*
X131865071Y-54619355D01*
X131597528Y-54815830D01*
X131285635Y-55002044D01*
X130898040Y-55200048D01*
X130714500Y-55287623D01*
X130398040Y-55426413D01*
X130100755Y-55530394D01*
X129792525Y-55605636D01*
X129443231Y-55658207D01*
X129022751Y-55694176D01*
X128587250Y-55716213D01*
X128261881Y-55723555D01*
X127995420Y-55711157D01*
X127734882Y-55672903D01*
X127427281Y-55602677D01*
X127285500Y-55565931D01*
X126713146Y-55389790D01*
X126206331Y-55183845D01*
X125784160Y-54957265D01*
X125465739Y-54719219D01*
X125412250Y-54666989D01*
X125229508Y-54490149D01*
X125043991Y-54329234D01*
X124957721Y-54263171D01*
X124698305Y-54030246D01*
X124428729Y-53700896D01*
X124164645Y-53303045D01*
X123921706Y-52864617D01*
X123715565Y-52413537D01*
X123561875Y-51977728D01*
X123482930Y-51632196D01*
X123436217Y-51160253D01*
X125317000Y-51160253D01*
X125317000Y-51712755D01*
X125674473Y-52316002D01*
X125956500Y-52743057D01*
X126247083Y-53071986D01*
X126575500Y-53329959D01*
X126971027Y-53544150D01*
X127022993Y-53567582D01*
X127594589Y-53784794D01*
X128135485Y-53908976D01*
X128690409Y-53949272D01*
X128874626Y-53946076D01*
X129157155Y-53932750D01*
X129367034Y-53908948D01*
X129548157Y-53862747D01*
X129744417Y-53782222D01*
X129999706Y-53655451D01*
X130061276Y-53623723D01*
X130520702Y-53348506D01*
X130884515Y-53036562D01*
X131183992Y-52656363D01*
X131404190Y-52270180D01*
X131576378Y-51833716D01*
X131683487Y-51355974D01*
X131722282Y-50873460D01*
X131689522Y-50422679D01*
X131598441Y-50079975D01*
X131456888Y-49776134D01*
X131270743Y-49454347D01*
X131063592Y-49149635D01*
X130859021Y-48897014D01*
X130699545Y-48745365D01*
X130362924Y-48520068D01*
X129972595Y-48307742D01*
X129579766Y-48133974D01*
X129276584Y-48034271D01*
X128969076Y-47978075D01*
X128604148Y-47945457D01*
X128221212Y-47936573D01*
X127859680Y-47951578D01*
X127558966Y-47990626D01*
X127420405Y-48026960D01*
X127118737Y-48157789D01*
X126791458Y-48338984D01*
X126476533Y-48545966D01*
X126211926Y-48754152D01*
X126059454Y-48908121D01*
X125822306Y-49248822D01*
X125610093Y-49646941D01*
X125449580Y-50048109D01*
X125388454Y-50271250D01*
X125354350Y-50499283D01*
X125329098Y-50796615D01*
X125317329Y-51105614D01*
X125317000Y-51160253D01*
X123436217Y-51160253D01*
X123419063Y-50986956D01*
X123431871Y-50398450D01*
X123520732Y-49888269D01*
X123534694Y-49839297D01*
X123685016Y-49355220D01*
X123824466Y-48967808D01*
X123968972Y-48649586D01*
X124134459Y-48373077D01*
X124336853Y-48110807D01*
X124592082Y-47835300D01*
X124834439Y-47597038D01*
X125132435Y-47321290D01*
X125395080Y-47107701D01*
X125660338Y-46931314D01*
X125966176Y-46767173D01*
X126350556Y-46590323D01*
X126396500Y-46570227D01*
X126770596Y-46411140D01*
X127072408Y-46297487D01*
X127337501Y-46222652D01*
X127601443Y-46180016D01*
X127899799Y-46162963D01*
X128268137Y-46164875D01*
G36*
X118998750Y-53081993D02*
X119348532Y-53420480D01*
X119667564Y-53735235D01*
X119944385Y-54014472D01*
X120167534Y-54246405D01*
X120325552Y-54419248D01*
X120406978Y-54521217D01*
X120415450Y-54538906D01*
X120380737Y-54643843D01*
X120268036Y-54805288D01*
X120099414Y-55001535D01*
X119896939Y-55210875D01*
X119682679Y-55411599D01*
X119478700Y-55582000D01*
X119307069Y-55700369D01*
X119189855Y-55744998D01*
X119189403Y-55745000D01*
X119129955Y-55703970D01*
X118998997Y-55592631D01*
X118816651Y-55428609D01*
X118629604Y-55254636D01*
X118432022Y-55067088D01*
X118164092Y-54811061D01*
X117846608Y-54506521D01*
X117500365Y-54173430D01*
X117146159Y-53831751D01*
X116966750Y-53658300D01*
X116638207Y-53342708D01*
X116326047Y-53047140D01*
X116046121Y-52786275D01*
X115814282Y-52574791D01*
X115646382Y-52427365D01*
X115576097Y-52370664D01*
X115328445Y-52189000D01*
X117562333Y-52189000D01*
X117582041Y-51965824D01*
X117601750Y-51742649D01*
X118998750Y-53081993D01*
X118998750Y-53081993D01*
G37*
X118998750Y-53081993D02*
X119348532Y-53420480D01*
X119667564Y-53735235D01*
X119944385Y-54014472D01*
X120167534Y-54246405D01*
X120325552Y-54419248D01*
X120406978Y-54521217D01*
X120415450Y-54538906D01*
X120380737Y-54643843D01*
X120268036Y-54805288D01*
X120099414Y-55001535D01*
X119896939Y-55210875D01*
X119682679Y-55411599D01*
X119478700Y-55582000D01*
X119307069Y-55700369D01*
X119189855Y-55744998D01*
X119189403Y-55745000D01*
X119129955Y-55703970D01*
X118998997Y-55592631D01*
X118816651Y-55428609D01*
X118629604Y-55254636D01*
X118432022Y-55067088D01*
X118164092Y-54811061D01*
X117846608Y-54506521D01*
X117500365Y-54173430D01*
X117146159Y-53831751D01*
X116966750Y-53658300D01*
X116638207Y-53342708D01*
X116326047Y-53047140D01*
X116046121Y-52786275D01*
X115814282Y-52574791D01*
X115646382Y-52427365D01*
X115576097Y-52370664D01*
X115328445Y-52189000D01*
X117562333Y-52189000D01*
X117582041Y-51965824D01*
X117601750Y-51742649D01*
X118998750Y-53081993D01*
G36*
X139652591Y-51738146D02*
X139665583Y-51884251D01*
X139668000Y-51998500D01*
X139668000Y-52316000D01*
X143986000Y-52316000D01*
X143986000Y-52062000D01*
X143995855Y-51902893D01*
X144020472Y-51814446D01*
X144030402Y-51808000D01*
X144088769Y-51849974D01*
X144221563Y-51966001D01*
X144412512Y-52141237D01*
X144645344Y-52360840D01*
X144813539Y-52522375D01*
X145143666Y-52839634D01*
X145524161Y-53202162D01*
X145912015Y-53569147D01*
X146264215Y-53899780D01*
X146324886Y-53956365D01*
X146582995Y-54203123D01*
X146804501Y-54427015D01*
X146973785Y-54611266D01*
X147075225Y-54739100D01*
X147097500Y-54786056D01*
X147053232Y-54894410D01*
X146942207Y-55034529D01*
X146891125Y-55084620D01*
X146715626Y-55259699D01*
X146535419Y-55461054D01*
X146494250Y-55511165D01*
X146236365Y-55784054D01*
X145999062Y-55932076D01*
X145781601Y-55955561D01*
X145635052Y-55894318D01*
X145498612Y-55793170D01*
X145414750Y-55716099D01*
X145339158Y-55640716D01*
X145196039Y-55507444D01*
X145013310Y-55342177D01*
X144970250Y-55303815D01*
X144759852Y-55113810D01*
X144497005Y-54871958D01*
X144220823Y-54614419D01*
X144046959Y-54450300D01*
X143724427Y-54146723D01*
X143382547Y-53829700D01*
X143040736Y-53516805D01*
X142718410Y-53225610D01*
X142434985Y-52973687D01*
X142209878Y-52778610D01*
X142092187Y-52681125D01*
X142003033Y-52607149D01*
X141928921Y-52549642D01*
X141859130Y-52515596D01*
X141782939Y-52511999D01*
X141689627Y-52545842D01*
X141568474Y-52624114D01*
X141408759Y-52753806D01*
X141199760Y-52941907D01*
X140930758Y-53195408D01*
X140591031Y-53521298D01*
X140169858Y-53926567D01*
X140144250Y-53951172D01*
X139821612Y-54261233D01*
X139496572Y-54573803D01*
X139192568Y-54866327D01*
X138933037Y-55116254D01*
X138741417Y-55301029D01*
X138739747Y-55302642D01*
X138517995Y-55505369D01*
X138301476Y-55683925D01*
X138123566Y-55811550D01*
X138059793Y-55847772D01*
X137917700Y-55909475D01*
X137816805Y-55917872D01*
X137704443Y-55865754D01*
X137580272Y-55782136D01*
X137384169Y-55618854D01*
X137205375Y-55426744D01*
X137166349Y-55374773D01*
X137004153Y-55177633D01*
X136813492Y-54991811D01*
X136780248Y-54964417D01*
X136644685Y-54841152D01*
X136565316Y-54738371D01*
X136556713Y-54710417D01*
X136600301Y-54635541D01*
X136716979Y-54498676D01*
X136885917Y-54323324D01*
X136985338Y-54226788D01*
X137157065Y-54062239D01*
X137399641Y-53827829D01*
X137693343Y-53542723D01*
X138018444Y-53226082D01*
X138355221Y-52897071D01*
X138504989Y-52750413D01*
X138810738Y-52452181D01*
X139086391Y-52185974D01*
X139319092Y-51963992D01*
X139495984Y-51798434D01*
X139604209Y-51701498D01*
X139632114Y-51681000D01*
X139652591Y-51738146D01*
X139652591Y-51738146D01*
G37*
X139652591Y-51738146D02*
X139665583Y-51884251D01*
X139668000Y-51998500D01*
X139668000Y-52316000D01*
X143986000Y-52316000D01*
X143986000Y-52062000D01*
X143995855Y-51902893D01*
X144020472Y-51814446D01*
X144030402Y-51808000D01*
X144088769Y-51849974D01*
X144221563Y-51966001D01*
X144412512Y-52141237D01*
X144645344Y-52360840D01*
X144813539Y-52522375D01*
X145143666Y-52839634D01*
X145524161Y-53202162D01*
X145912015Y-53569147D01*
X146264215Y-53899780D01*
X146324886Y-53956365D01*
X146582995Y-54203123D01*
X146804501Y-54427015D01*
X146973785Y-54611266D01*
X147075225Y-54739100D01*
X147097500Y-54786056D01*
X147053232Y-54894410D01*
X146942207Y-55034529D01*
X146891125Y-55084620D01*
X146715626Y-55259699D01*
X146535419Y-55461054D01*
X146494250Y-55511165D01*
X146236365Y-55784054D01*
X145999062Y-55932076D01*
X145781601Y-55955561D01*
X145635052Y-55894318D01*
X145498612Y-55793170D01*
X145414750Y-55716099D01*
X145339158Y-55640716D01*
X145196039Y-55507444D01*
X145013310Y-55342177D01*
X144970250Y-55303815D01*
X144759852Y-55113810D01*
X144497005Y-54871958D01*
X144220823Y-54614419D01*
X144046959Y-54450300D01*
X143724427Y-54146723D01*
X143382547Y-53829700D01*
X143040736Y-53516805D01*
X142718410Y-53225610D01*
X142434985Y-52973687D01*
X142209878Y-52778610D01*
X142092187Y-52681125D01*
X142003033Y-52607149D01*
X141928921Y-52549642D01*
X141859130Y-52515596D01*
X141782939Y-52511999D01*
X141689627Y-52545842D01*
X141568474Y-52624114D01*
X141408759Y-52753806D01*
X141199760Y-52941907D01*
X140930758Y-53195408D01*
X140591031Y-53521298D01*
X140169858Y-53926567D01*
X140144250Y-53951172D01*
X139821612Y-54261233D01*
X139496572Y-54573803D01*
X139192568Y-54866327D01*
X138933037Y-55116254D01*
X138741417Y-55301029D01*
X138739747Y-55302642D01*
X138517995Y-55505369D01*
X138301476Y-55683925D01*
X138123566Y-55811550D01*
X138059793Y-55847772D01*
X137917700Y-55909475D01*
X137816805Y-55917872D01*
X137704443Y-55865754D01*
X137580272Y-55782136D01*
X137384169Y-55618854D01*
X137205375Y-55426744D01*
X137166349Y-55374773D01*
X137004153Y-55177633D01*
X136813492Y-54991811D01*
X136780248Y-54964417D01*
X136644685Y-54841152D01*
X136565316Y-54738371D01*
X136556713Y-54710417D01*
X136600301Y-54635541D01*
X136716979Y-54498676D01*
X136885917Y-54323324D01*
X136985338Y-54226788D01*
X137157065Y-54062239D01*
X137399641Y-53827829D01*
X137693343Y-53542723D01*
X138018444Y-53226082D01*
X138355221Y-52897071D01*
X138504989Y-52750413D01*
X138810738Y-52452181D01*
X139086391Y-52185974D01*
X139319092Y-51963992D01*
X139495984Y-51798434D01*
X139604209Y-51701498D01*
X139632114Y-51681000D01*
X139652591Y-51738146D01*
G36*
X146090904Y-58843961D02*
X146331388Y-58995623D01*
X146641589Y-59246153D01*
X146893064Y-59473973D01*
X147074974Y-59655760D01*
X147169511Y-59783313D01*
X147191114Y-59878312D01*
X147183394Y-59909878D01*
X147125128Y-59990402D01*
X146989651Y-60142417D01*
X146792008Y-60350137D01*
X146547246Y-60597773D01*
X146270408Y-60869537D01*
X146250794Y-60888500D01*
X145932509Y-61197104D01*
X145606382Y-61515423D01*
X145298647Y-61817705D01*
X145035535Y-62078201D01*
X144876123Y-62237875D01*
X144675039Y-62437320D01*
X144506066Y-62597946D01*
X144389191Y-62701186D01*
X144346284Y-62730000D01*
X144321872Y-62672860D01*
X144306382Y-62526772D01*
X144303500Y-62412500D01*
X144303500Y-62095000D01*
X142176250Y-62092056D01*
X142462500Y-61823653D01*
X142604047Y-61691087D01*
X142816584Y-61492231D01*
X143078295Y-61247489D01*
X143367363Y-60977264D01*
X143598246Y-60761500D01*
X143904211Y-60474238D01*
X144209545Y-60185137D01*
X144489282Y-59918008D01*
X144718453Y-59696660D01*
X144835995Y-59581131D01*
X145164401Y-59272178D01*
X145457567Y-59032081D01*
X145702343Y-58870378D01*
X145885578Y-58796605D01*
X145922750Y-58793000D01*
X146090904Y-58843961D01*
X146090904Y-58843961D01*
G37*
X146090904Y-58843961D02*
X146331388Y-58995623D01*
X146641589Y-59246153D01*
X146893064Y-59473973D01*
X147074974Y-59655760D01*
X147169511Y-59783313D01*
X147191114Y-59878312D01*
X147183394Y-59909878D01*
X147125128Y-59990402D01*
X146989651Y-60142417D01*
X146792008Y-60350137D01*
X146547246Y-60597773D01*
X146270408Y-60869537D01*
X146250794Y-60888500D01*
X145932509Y-61197104D01*
X145606382Y-61515423D01*
X145298647Y-61817705D01*
X145035535Y-62078201D01*
X144876123Y-62237875D01*
X144675039Y-62437320D01*
X144506066Y-62597946D01*
X144389191Y-62701186D01*
X144346284Y-62730000D01*
X144321872Y-62672860D01*
X144306382Y-62526772D01*
X144303500Y-62412500D01*
X144303500Y-62095000D01*
X142176250Y-62092056D01*
X142462500Y-61823653D01*
X142604047Y-61691087D01*
X142816584Y-61492231D01*
X143078295Y-61247489D01*
X143367363Y-60977264D01*
X143598246Y-60761500D01*
X143904211Y-60474238D01*
X144209545Y-60185137D01*
X144489282Y-59918008D01*
X144718453Y-59696660D01*
X144835995Y-59581131D01*
X145164401Y-59272178D01*
X145457567Y-59032081D01*
X145702343Y-58870378D01*
X145885578Y-58796605D01*
X145922750Y-58793000D01*
X146090904Y-58843961D01*
G36*
X132593681Y-58739481D02*
X132689239Y-58776156D01*
X132819967Y-58849622D01*
X133002132Y-58969973D01*
X133252000Y-59147307D01*
X133585836Y-59391719D01*
X133595817Y-59399085D01*
X133740888Y-59513184D01*
X133832689Y-59614974D01*
X133865107Y-59719395D01*
X133832026Y-59841383D01*
X133727332Y-59995879D01*
X133544911Y-60197821D01*
X133278649Y-60462149D01*
X133084145Y-60649208D01*
X132529071Y-61179994D01*
X132061533Y-61625910D01*
X131677842Y-61990443D01*
X131374309Y-62277078D01*
X131147244Y-62489303D01*
X130992958Y-62630604D01*
X130920875Y-62693736D01*
X130778000Y-62813183D01*
X130778000Y-62095000D01*
X129793750Y-62095000D01*
X129446605Y-62091442D01*
X129156146Y-62081560D01*
X128942411Y-62066539D01*
X128825440Y-62047564D01*
X128809500Y-62036791D01*
X128857955Y-61962310D01*
X128868892Y-61957416D01*
X128940618Y-61905562D01*
X129091483Y-61777609D01*
X129308746Y-61585136D01*
X129579664Y-61339718D01*
X129891497Y-61052933D01*
X130231503Y-60736358D01*
X130586940Y-60401570D01*
X130713295Y-60281601D01*
X131145958Y-59870437D01*
X131496828Y-59538742D01*
X131775745Y-59278050D01*
X131992548Y-59079893D01*
X132157075Y-58935805D01*
X132279166Y-58837320D01*
X132368660Y-58775972D01*
X132435397Y-58743293D01*
X132489214Y-58730817D01*
X132517027Y-58729500D01*
X132593681Y-58739481D01*
X132593681Y-58739481D01*
G37*
X132593681Y-58739481D02*
X132689239Y-58776156D01*
X132819967Y-58849622D01*
X133002132Y-58969973D01*
X133252000Y-59147307D01*
X133585836Y-59391719D01*
X133595817Y-59399085D01*
X133740888Y-59513184D01*
X133832689Y-59614974D01*
X133865107Y-59719395D01*
X133832026Y-59841383D01*
X133727332Y-59995879D01*
X133544911Y-60197821D01*
X133278649Y-60462149D01*
X133084145Y-60649208D01*
X132529071Y-61179994D01*
X132061533Y-61625910D01*
X131677842Y-61990443D01*
X131374309Y-62277078D01*
X131147244Y-62489303D01*
X130992958Y-62630604D01*
X130920875Y-62693736D01*
X130778000Y-62813183D01*
X130778000Y-62095000D01*
X129793750Y-62095000D01*
X129446605Y-62091442D01*
X129156146Y-62081560D01*
X128942411Y-62066539D01*
X128825440Y-62047564D01*
X128809500Y-62036791D01*
X128857955Y-61962310D01*
X128868892Y-61957416D01*
X128940618Y-61905562D01*
X129091483Y-61777609D01*
X129308746Y-61585136D01*
X129579664Y-61339718D01*
X129891497Y-61052933D01*
X130231503Y-60736358D01*
X130586940Y-60401570D01*
X130713295Y-60281601D01*
X131145958Y-59870437D01*
X131496828Y-59538742D01*
X131775745Y-59278050D01*
X131992548Y-59079893D01*
X132157075Y-58935805D01*
X132279166Y-58837320D01*
X132368660Y-58775972D01*
X132435397Y-58743293D01*
X132489214Y-58730817D01*
X132517027Y-58729500D01*
X132593681Y-58739481D01*
G36*
X124741588Y-58680885D02*
X124907875Y-58800794D01*
X124953294Y-58839887D01*
X125287599Y-59137874D01*
X125701059Y-59516607D01*
X126183435Y-59966621D01*
X126684963Y-60440848D01*
X126989408Y-60727465D01*
X127329736Y-61043269D01*
X127661651Y-61347380D01*
X127909655Y-61571125D01*
X128496634Y-62095000D01*
X126466337Y-62095000D01*
X126447293Y-62428916D01*
X126432570Y-62618294D01*
X126409859Y-62701861D01*
X126368685Y-62700782D01*
X126329450Y-62667041D01*
X126258669Y-62599147D01*
X126108928Y-62456030D01*
X125893209Y-62250079D01*
X125624492Y-61993682D01*
X125315757Y-61699229D01*
X124979987Y-61379109D01*
X124964923Y-61364750D01*
X124528056Y-60948313D01*
X124174310Y-60610880D01*
X123894921Y-60343784D01*
X123681125Y-60138360D01*
X123524156Y-59985941D01*
X123415250Y-59877863D01*
X123345643Y-59805458D01*
X123306569Y-59760062D01*
X123289264Y-59733008D01*
X123284964Y-59715630D01*
X123285000Y-59703776D01*
X123335751Y-59633972D01*
X123486338Y-59491161D01*
X123734256Y-59277543D01*
X124077001Y-58995316D01*
X124255497Y-58851338D01*
X124454769Y-58705511D01*
X124603676Y-58648909D01*
X124741588Y-58680885D01*
X124741588Y-58680885D01*
G37*
X124741588Y-58680885D02*
X124907875Y-58800794D01*
X124953294Y-58839887D01*
X125287599Y-59137874D01*
X125701059Y-59516607D01*
X126183435Y-59966621D01*
X126684963Y-60440848D01*
X126989408Y-60727465D01*
X127329736Y-61043269D01*
X127661651Y-61347380D01*
X127909655Y-61571125D01*
X128496634Y-62095000D01*
X126466337Y-62095000D01*
X126447293Y-62428916D01*
X126432570Y-62618294D01*
X126409859Y-62701861D01*
X126368685Y-62700782D01*
X126329450Y-62667041D01*
X126258669Y-62599147D01*
X126108928Y-62456030D01*
X125893209Y-62250079D01*
X125624492Y-61993682D01*
X125315757Y-61699229D01*
X124979987Y-61379109D01*
X124964923Y-61364750D01*
X124528056Y-60948313D01*
X124174310Y-60610880D01*
X123894921Y-60343784D01*
X123681125Y-60138360D01*
X123524156Y-59985941D01*
X123415250Y-59877863D01*
X123345643Y-59805458D01*
X123306569Y-59760062D01*
X123289264Y-59733008D01*
X123284964Y-59715630D01*
X123285000Y-59703776D01*
X123335751Y-59633972D01*
X123486338Y-59491161D01*
X123734256Y-59277543D01*
X124077001Y-58995316D01*
X124255497Y-58851338D01*
X124454769Y-58705511D01*
X124603676Y-58648909D01*
X124741588Y-58680885D01*
G36*
X138128676Y-58790284D02*
X138214721Y-58841043D01*
X138306407Y-58914110D01*
X138475956Y-59060673D01*
X138708511Y-59267437D01*
X138989220Y-59521107D01*
X139303228Y-59808388D01*
X139544474Y-60031250D01*
X139902211Y-60361904D01*
X140263829Y-60694042D01*
X140607872Y-61008109D01*
X140912885Y-61284551D01*
X141157410Y-61503814D01*
X141251548Y-61587000D01*
X141794840Y-62063250D01*
X139985500Y-62098486D01*
X139985500Y-62509493D01*
X139978792Y-62719049D01*
X139961247Y-62866845D01*
X139937875Y-62919704D01*
X139877525Y-62877410D01*
X139744678Y-62761871D01*
X139557088Y-62589193D01*
X139332512Y-62375478D01*
X139255250Y-62300579D01*
X138996968Y-62051476D01*
X138674588Y-61744212D01*
X138317498Y-61406587D01*
X137955084Y-61066404D01*
X137667750Y-60798742D01*
X137378055Y-60525187D01*
X137121762Y-60273942D01*
X136913314Y-60059925D01*
X136767158Y-59898058D01*
X136697737Y-59803259D01*
X136694251Y-59793219D01*
X136734426Y-59662570D01*
X136890718Y-59488055D01*
X136947022Y-59438477D01*
X137160497Y-59251362D01*
X137383439Y-59047581D01*
X137467802Y-58967625D01*
X137698583Y-58791128D01*
X137912451Y-58733103D01*
X138128676Y-58790284D01*
X138128676Y-58790284D01*
G37*
X138128676Y-58790284D02*
X138214721Y-58841043D01*
X138306407Y-58914110D01*
X138475956Y-59060673D01*
X138708511Y-59267437D01*
X138989220Y-59521107D01*
X139303228Y-59808388D01*
X139544474Y-60031250D01*
X139902211Y-60361904D01*
X140263829Y-60694042D01*
X140607872Y-61008109D01*
X140912885Y-61284551D01*
X141157410Y-61503814D01*
X141251548Y-61587000D01*
X141794840Y-62063250D01*
X139985500Y-62098486D01*
X139985500Y-62509493D01*
X139978792Y-62719049D01*
X139961247Y-62866845D01*
X139937875Y-62919704D01*
X139877525Y-62877410D01*
X139744678Y-62761871D01*
X139557088Y-62589193D01*
X139332512Y-62375478D01*
X139255250Y-62300579D01*
X138996968Y-62051476D01*
X138674588Y-61744212D01*
X138317498Y-61406587D01*
X137955084Y-61066404D01*
X137667750Y-60798742D01*
X137378055Y-60525187D01*
X137121762Y-60273942D01*
X136913314Y-60059925D01*
X136767158Y-59898058D01*
X136697737Y-59803259D01*
X136694251Y-59793219D01*
X136734426Y-59662570D01*
X136890718Y-59488055D01*
X136947022Y-59438477D01*
X137160497Y-59251362D01*
X137383439Y-59047581D01*
X137467802Y-58967625D01*
X137698583Y-58791128D01*
X137912451Y-58733103D01*
X138128676Y-58790284D01*
G36*
X115933093Y-58635019D02*
X116410203Y-58741006D01*
X116963311Y-58905953D01*
X117005227Y-58919652D01*
X117493068Y-59097009D01*
X117896066Y-59288303D01*
X118255906Y-59518426D01*
X118614272Y-59812269D01*
X118817036Y-60001557D01*
X119162769Y-60354710D01*
X119434976Y-60686011D01*
X119654853Y-61029946D01*
X119843595Y-61420999D01*
X120022400Y-61893656D01*
X120073994Y-62046601D01*
X120247883Y-62620393D01*
X120357457Y-63100117D01*
X120405206Y-63499715D01*
X120393617Y-63833128D01*
X120393328Y-63835299D01*
X120353703Y-64030098D01*
X120279631Y-64310580D01*
X120181640Y-64643657D01*
X120070256Y-64996241D01*
X119956008Y-65335243D01*
X119849423Y-65627578D01*
X119761029Y-65840156D01*
X119744909Y-65873250D01*
X119600237Y-66101954D01*
X119380024Y-66382531D01*
X119108665Y-66688481D01*
X118810555Y-66993306D01*
X118510087Y-67270507D01*
X118300250Y-67442515D01*
X118119895Y-67558703D01*
X117866702Y-67693572D01*
X117571012Y-67834054D01*
X117263172Y-67967086D01*
X116973524Y-68079601D01*
X116732414Y-68158535D01*
X116570185Y-68190823D01*
X116561883Y-68191000D01*
X116431482Y-68206626D01*
X116229951Y-68246943D01*
X116067506Y-68286250D01*
X115640842Y-68356458D01*
X115156192Y-68370093D01*
X114668845Y-68328004D01*
X114331500Y-68259495D01*
X113744798Y-68086629D01*
X113253680Y-67905334D01*
X112826788Y-67703382D01*
X112648750Y-67603370D01*
X112318743Y-67377312D01*
X111960362Y-67080034D01*
X111606918Y-66743599D01*
X111291725Y-66400070D01*
X111048096Y-66081510D01*
X111016103Y-66032000D01*
X110817364Y-65688927D01*
X110634060Y-65326058D01*
X110479117Y-64973303D01*
X110365460Y-64660572D01*
X110306015Y-64417775D01*
X110301650Y-64378749D01*
X110273407Y-64142941D01*
X110227202Y-63870487D01*
X110202703Y-63752290D01*
X110164588Y-63528235D01*
X110160602Y-63415166D01*
X111943054Y-63415166D01*
X111949086Y-63705272D01*
X112006169Y-63988909D01*
X112121901Y-64295349D01*
X112303882Y-64653862D01*
X112455522Y-64918879D01*
X112697852Y-65297335D01*
X112937881Y-65587038D01*
X113210877Y-65820547D01*
X113552109Y-66030424D01*
X113791750Y-66152487D01*
X114051046Y-66274284D01*
X114260687Y-66358569D01*
X114468794Y-66420579D01*
X114723490Y-66475547D01*
X114934750Y-66514349D01*
X115439852Y-66566861D01*
X115892025Y-66528163D01*
X116330280Y-66394656D01*
X116358006Y-66383121D01*
X116950052Y-66095167D01*
X117430426Y-65771900D01*
X117812889Y-65397928D01*
X118111196Y-64957861D01*
X118339106Y-64436306D01*
X118459748Y-64031750D01*
X118522755Y-63772442D01*
X118553469Y-63583603D01*
X118553148Y-63413212D01*
X118523052Y-63209251D01*
X118484343Y-63015750D01*
X118389448Y-62658799D01*
X118246227Y-62301605D01*
X118040038Y-61904500D01*
X117874958Y-61620612D01*
X117738985Y-61418683D01*
X117604939Y-61266828D01*
X117445639Y-61133161D01*
X117287647Y-61021880D01*
X116709465Y-60682943D01*
X116138289Y-60459302D01*
X115548773Y-60343438D01*
X114943267Y-60326577D01*
X114713878Y-60339938D01*
X114529677Y-60364729D01*
X114356119Y-60411676D01*
X114158658Y-60491505D01*
X113902749Y-60614942D01*
X113726204Y-60704471D01*
X113408158Y-60872212D01*
X113176096Y-61011049D01*
X112999702Y-61143103D01*
X112848661Y-61290493D01*
X112725376Y-61434721D01*
X112358041Y-61974942D01*
X112107702Y-62553292D01*
X111980470Y-63089323D01*
X111943054Y-63415166D01*
X110160602Y-63415166D01*
X110156654Y-63303217D01*
X110182256Y-63050513D01*
X110244751Y-62743400D01*
X110347496Y-62355157D01*
X110401815Y-62167069D01*
X110552471Y-61685488D01*
X110699892Y-61298068D01*
X110861946Y-60973738D01*
X111056506Y-60681424D01*
X111301440Y-60390055D01*
X111601000Y-60081950D01*
X112149823Y-59606005D01*
X112736248Y-59228592D01*
X113379881Y-58940349D01*
X114100329Y-58731916D01*
X114637824Y-58631942D01*
X115078897Y-58584375D01*
X115499989Y-58584105D01*
X115933093Y-58635019D01*
X115933093Y-58635019D01*
G37*
X115933093Y-58635019D02*
X116410203Y-58741006D01*
X116963311Y-58905953D01*
X117005227Y-58919652D01*
X117493068Y-59097009D01*
X117896066Y-59288303D01*
X118255906Y-59518426D01*
X118614272Y-59812269D01*
X118817036Y-60001557D01*
X119162769Y-60354710D01*
X119434976Y-60686011D01*
X119654853Y-61029946D01*
X119843595Y-61420999D01*
X120022400Y-61893656D01*
X120073994Y-62046601D01*
X120247883Y-62620393D01*
X120357457Y-63100117D01*
X120405206Y-63499715D01*
X120393617Y-63833128D01*
X120393328Y-63835299D01*
X120353703Y-64030098D01*
X120279631Y-64310580D01*
X120181640Y-64643657D01*
X120070256Y-64996241D01*
X119956008Y-65335243D01*
X119849423Y-65627578D01*
X119761029Y-65840156D01*
X119744909Y-65873250D01*
X119600237Y-66101954D01*
X119380024Y-66382531D01*
X119108665Y-66688481D01*
X118810555Y-66993306D01*
X118510087Y-67270507D01*
X118300250Y-67442515D01*
X118119895Y-67558703D01*
X117866702Y-67693572D01*
X117571012Y-67834054D01*
X117263172Y-67967086D01*
X116973524Y-68079601D01*
X116732414Y-68158535D01*
X116570185Y-68190823D01*
X116561883Y-68191000D01*
X116431482Y-68206626D01*
X116229951Y-68246943D01*
X116067506Y-68286250D01*
X115640842Y-68356458D01*
X115156192Y-68370093D01*
X114668845Y-68328004D01*
X114331500Y-68259495D01*
X113744798Y-68086629D01*
X113253680Y-67905334D01*
X112826788Y-67703382D01*
X112648750Y-67603370D01*
X112318743Y-67377312D01*
X111960362Y-67080034D01*
X111606918Y-66743599D01*
X111291725Y-66400070D01*
X111048096Y-66081510D01*
X111016103Y-66032000D01*
X110817364Y-65688927D01*
X110634060Y-65326058D01*
X110479117Y-64973303D01*
X110365460Y-64660572D01*
X110306015Y-64417775D01*
X110301650Y-64378749D01*
X110273407Y-64142941D01*
X110227202Y-63870487D01*
X110202703Y-63752290D01*
X110164588Y-63528235D01*
X110160602Y-63415166D01*
X111943054Y-63415166D01*
X111949086Y-63705272D01*
X112006169Y-63988909D01*
X112121901Y-64295349D01*
X112303882Y-64653862D01*
X112455522Y-64918879D01*
X112697852Y-65297335D01*
X112937881Y-65587038D01*
X113210877Y-65820547D01*
X113552109Y-66030424D01*
X113791750Y-66152487D01*
X114051046Y-66274284D01*
X114260687Y-66358569D01*
X114468794Y-66420579D01*
X114723490Y-66475547D01*
X114934750Y-66514349D01*
X115439852Y-66566861D01*
X115892025Y-66528163D01*
X116330280Y-66394656D01*
X116358006Y-66383121D01*
X116950052Y-66095167D01*
X117430426Y-65771900D01*
X117812889Y-65397928D01*
X118111196Y-64957861D01*
X118339106Y-64436306D01*
X118459748Y-64031750D01*
X118522755Y-63772442D01*
X118553469Y-63583603D01*
X118553148Y-63413212D01*
X118523052Y-63209251D01*
X118484343Y-63015750D01*
X118389448Y-62658799D01*
X118246227Y-62301605D01*
X118040038Y-61904500D01*
X117874958Y-61620612D01*
X117738985Y-61418683D01*
X117604939Y-61266828D01*
X117445639Y-61133161D01*
X117287647Y-61021880D01*
X116709465Y-60682943D01*
X116138289Y-60459302D01*
X115548773Y-60343438D01*
X114943267Y-60326577D01*
X114713878Y-60339938D01*
X114529677Y-60364729D01*
X114356119Y-60411676D01*
X114158658Y-60491505D01*
X113902749Y-60614942D01*
X113726204Y-60704471D01*
X113408158Y-60872212D01*
X113176096Y-61011049D01*
X112999702Y-61143103D01*
X112848661Y-61290493D01*
X112725376Y-61434721D01*
X112358041Y-61974942D01*
X112107702Y-62553292D01*
X111980470Y-63089323D01*
X111943054Y-63415166D01*
X110160602Y-63415166D01*
X110156654Y-63303217D01*
X110182256Y-63050513D01*
X110244751Y-62743400D01*
X110347496Y-62355157D01*
X110401815Y-62167069D01*
X110552471Y-61685488D01*
X110699892Y-61298068D01*
X110861946Y-60973738D01*
X111056506Y-60681424D01*
X111301440Y-60390055D01*
X111601000Y-60081950D01*
X112149823Y-59606005D01*
X112736248Y-59228592D01*
X113379881Y-58940349D01*
X114100329Y-58731916D01*
X114637824Y-58631942D01*
X115078897Y-58584375D01*
X115499989Y-58584105D01*
X115933093Y-58635019D01*
G36*
X126466636Y-65016000D02*
X128499238Y-65016000D01*
X128101972Y-65381125D01*
X127932985Y-65538710D01*
X127694042Y-65764651D01*
X127406277Y-66038806D01*
X127090821Y-66341030D01*
X126768808Y-66651181D01*
X126717228Y-66701029D01*
X126249008Y-67153345D01*
X125862717Y-67524719D01*
X125549146Y-67822658D01*
X125299087Y-68054667D01*
X125103332Y-68228254D01*
X124952674Y-68350926D01*
X124837904Y-68430189D01*
X124749816Y-68473550D01*
X124679200Y-68488516D01*
X124616850Y-68482594D01*
X124555000Y-68463797D01*
X124427987Y-68384564D01*
X124395788Y-68351388D01*
X124320559Y-68279523D01*
X124170498Y-68150784D01*
X123970841Y-67986504D01*
X123840163Y-67881678D01*
X123564545Y-67647756D01*
X123400594Y-67472823D01*
X123348500Y-67360282D01*
X123395453Y-67244889D01*
X123520139Y-67086349D01*
X123643949Y-66964171D01*
X123770395Y-66848452D01*
X123973122Y-66660350D01*
X124236175Y-66414784D01*
X124543602Y-66126676D01*
X124879450Y-65810944D01*
X125183824Y-65524000D01*
X126428250Y-64349250D01*
X126466636Y-65016000D01*
X126466636Y-65016000D01*
G37*
X126466636Y-65016000D02*
X128499238Y-65016000D01*
X128101972Y-65381125D01*
X127932985Y-65538710D01*
X127694042Y-65764651D01*
X127406277Y-66038806D01*
X127090821Y-66341030D01*
X126768808Y-66651181D01*
X126717228Y-66701029D01*
X126249008Y-67153345D01*
X125862717Y-67524719D01*
X125549146Y-67822658D01*
X125299087Y-68054667D01*
X125103332Y-68228254D01*
X124952674Y-68350926D01*
X124837904Y-68430189D01*
X124749816Y-68473550D01*
X124679200Y-68488516D01*
X124616850Y-68482594D01*
X124555000Y-68463797D01*
X124427987Y-68384564D01*
X124395788Y-68351388D01*
X124320559Y-68279523D01*
X124170498Y-68150784D01*
X123970841Y-67986504D01*
X123840163Y-67881678D01*
X123564545Y-67647756D01*
X123400594Y-67472823D01*
X123348500Y-67360282D01*
X123395453Y-67244889D01*
X123520139Y-67086349D01*
X123643949Y-66964171D01*
X123770395Y-66848452D01*
X123973122Y-66660350D01*
X124236175Y-66414784D01*
X124543602Y-66126676D01*
X124879450Y-65810944D01*
X125183824Y-65524000D01*
X126428250Y-64349250D01*
X126466636Y-65016000D01*
G36*
X139985500Y-65016000D02*
X144303500Y-65016000D01*
X144303500Y-64422877D01*
X144827375Y-64930837D01*
X145097142Y-65190237D01*
X145415497Y-65493054D01*
X145737554Y-65796728D01*
X145954500Y-65999427D01*
X146367529Y-66384066D01*
X146696002Y-66692781D01*
X146948906Y-66935540D01*
X147135232Y-67122315D01*
X147263969Y-67263074D01*
X147344107Y-67367787D01*
X147384635Y-67446426D01*
X147394543Y-67508959D01*
X147382820Y-67565356D01*
X147378096Y-67578282D01*
X147312848Y-67665720D01*
X147174661Y-67808305D01*
X146990080Y-67982247D01*
X146785651Y-68163753D01*
X146587922Y-68329032D01*
X146423437Y-68454292D01*
X146345460Y-68503764D01*
X146205589Y-68552621D01*
X146062496Y-68538390D01*
X145895011Y-68451446D01*
X145681959Y-68282159D01*
X145509013Y-68123408D01*
X145335893Y-67960750D01*
X145087397Y-67729128D01*
X144781775Y-67445388D01*
X144437273Y-67126379D01*
X144072139Y-66788947D01*
X143704620Y-66449941D01*
X143352965Y-66126207D01*
X143035421Y-65834595D01*
X142770235Y-65591950D01*
X142575656Y-65415120D01*
X142575552Y-65415026D01*
X142409415Y-65267622D01*
X142273171Y-65166355D01*
X142149760Y-65116790D01*
X142022119Y-65124492D01*
X141873188Y-65195024D01*
X141685906Y-65333953D01*
X141443210Y-65546842D01*
X141128040Y-65839256D01*
X141049465Y-65912771D01*
X140727279Y-66216429D01*
X140399057Y-66529701D01*
X140090858Y-66827443D01*
X139828741Y-67084511D01*
X139668000Y-67245757D01*
X139290688Y-67623654D01*
X138950180Y-67950453D01*
X138656444Y-68217374D01*
X138419449Y-68415638D01*
X138249165Y-68536464D01*
X138162388Y-68571762D01*
X138032561Y-68539100D01*
X137870580Y-68460031D01*
X137858250Y-68452467D01*
X137722990Y-68351580D01*
X137540584Y-68194283D01*
X137335974Y-68004805D01*
X137134106Y-67807378D01*
X136959926Y-67626232D01*
X136838377Y-67485599D01*
X136796803Y-67421399D01*
X136829466Y-67339888D01*
X136957890Y-67178262D01*
X137180623Y-66938130D01*
X137496214Y-66621100D01*
X137680158Y-66442178D01*
X138023661Y-66109651D01*
X138394107Y-65749037D01*
X138759829Y-65391293D01*
X139089162Y-65067375D01*
X139292310Y-64866175D01*
X139985500Y-64176601D01*
X139985500Y-65016000D01*
X139985500Y-65016000D01*
G37*
X139985500Y-65016000D02*
X144303500Y-65016000D01*
X144303500Y-64422877D01*
X144827375Y-64930837D01*
X145097142Y-65190237D01*
X145415497Y-65493054D01*
X145737554Y-65796728D01*
X145954500Y-65999427D01*
X146367529Y-66384066D01*
X146696002Y-66692781D01*
X146948906Y-66935540D01*
X147135232Y-67122315D01*
X147263969Y-67263074D01*
X147344107Y-67367787D01*
X147384635Y-67446426D01*
X147394543Y-67508959D01*
X147382820Y-67565356D01*
X147378096Y-67578282D01*
X147312848Y-67665720D01*
X147174661Y-67808305D01*
X146990080Y-67982247D01*
X146785651Y-68163753D01*
X146587922Y-68329032D01*
X146423437Y-68454292D01*
X146345460Y-68503764D01*
X146205589Y-68552621D01*
X146062496Y-68538390D01*
X145895011Y-68451446D01*
X145681959Y-68282159D01*
X145509013Y-68123408D01*
X145335893Y-67960750D01*
X145087397Y-67729128D01*
X144781775Y-67445388D01*
X144437273Y-67126379D01*
X144072139Y-66788947D01*
X143704620Y-66449941D01*
X143352965Y-66126207D01*
X143035421Y-65834595D01*
X142770235Y-65591950D01*
X142575656Y-65415120D01*
X142575552Y-65415026D01*
X142409415Y-65267622D01*
X142273171Y-65166355D01*
X142149760Y-65116790D01*
X142022119Y-65124492D01*
X141873188Y-65195024D01*
X141685906Y-65333953D01*
X141443210Y-65546842D01*
X141128040Y-65839256D01*
X141049465Y-65912771D01*
X140727279Y-66216429D01*
X140399057Y-66529701D01*
X140090858Y-66827443D01*
X139828741Y-67084511D01*
X139668000Y-67245757D01*
X139290688Y-67623654D01*
X138950180Y-67950453D01*
X138656444Y-68217374D01*
X138419449Y-68415638D01*
X138249165Y-68536464D01*
X138162388Y-68571762D01*
X138032561Y-68539100D01*
X137870580Y-68460031D01*
X137858250Y-68452467D01*
X137722990Y-68351580D01*
X137540584Y-68194283D01*
X137335974Y-68004805D01*
X137134106Y-67807378D01*
X136959926Y-67626232D01*
X136838377Y-67485599D01*
X136796803Y-67421399D01*
X136829466Y-67339888D01*
X136957890Y-67178262D01*
X137180623Y-66938130D01*
X137496214Y-66621100D01*
X137680158Y-66442178D01*
X138023661Y-66109651D01*
X138394107Y-65749037D01*
X138759829Y-65391293D01*
X139089162Y-65067375D01*
X139292310Y-64866175D01*
X139985500Y-64176601D01*
X139985500Y-65016000D01*
G36*
X131065659Y-64541574D02*
X131249042Y-64719133D01*
X131503874Y-64961530D01*
X131810054Y-65250051D01*
X132147481Y-65565984D01*
X132496054Y-65890615D01*
X132835674Y-66205230D01*
X133146239Y-66491117D01*
X133407649Y-66729562D01*
X133599803Y-66901852D01*
X133619625Y-66919270D01*
X133850108Y-67138691D01*
X133978591Y-67312545D01*
X134012366Y-67459955D01*
X133958722Y-67600043D01*
X133905375Y-67668805D01*
X133784972Y-67785714D01*
X133604506Y-67937039D01*
X133389204Y-68104406D01*
X133164296Y-68269443D01*
X132955010Y-68413776D01*
X132786576Y-68519032D01*
X132684221Y-68566837D01*
X132671299Y-68567536D01*
X132603463Y-68542711D01*
X132547143Y-68519911D01*
X132480752Y-68468594D01*
X132333588Y-68340041D01*
X132116815Y-68144638D01*
X131841595Y-67892768D01*
X131519088Y-67594815D01*
X131160459Y-67261164D01*
X130776869Y-66902198D01*
X130379480Y-66528302D01*
X129979455Y-66149859D01*
X129587955Y-65777254D01*
X129224330Y-65428750D01*
X129058354Y-65279226D01*
X128898688Y-65150791D01*
X128870308Y-65130455D01*
X128818206Y-65090458D01*
X128806056Y-65061720D01*
X128849115Y-65042297D01*
X128962640Y-65030247D01*
X129161888Y-65023628D01*
X129462115Y-65020496D01*
X129742956Y-65019330D01*
X130771662Y-65016000D01*
X130790706Y-64652699D01*
X130809750Y-64289399D01*
X131065659Y-64541574D01*
X131065659Y-64541574D01*
G37*
X131065659Y-64541574D02*
X131249042Y-64719133D01*
X131503874Y-64961530D01*
X131810054Y-65250051D01*
X132147481Y-65565984D01*
X132496054Y-65890615D01*
X132835674Y-66205230D01*
X133146239Y-66491117D01*
X133407649Y-66729562D01*
X133599803Y-66901852D01*
X133619625Y-66919270D01*
X133850108Y-67138691D01*
X133978591Y-67312545D01*
X134012366Y-67459955D01*
X133958722Y-67600043D01*
X133905375Y-67668805D01*
X133784972Y-67785714D01*
X133604506Y-67937039D01*
X133389204Y-68104406D01*
X133164296Y-68269443D01*
X132955010Y-68413776D01*
X132786576Y-68519032D01*
X132684221Y-68566837D01*
X132671299Y-68567536D01*
X132603463Y-68542711D01*
X132547143Y-68519911D01*
X132480752Y-68468594D01*
X132333588Y-68340041D01*
X132116815Y-68144638D01*
X131841595Y-67892768D01*
X131519088Y-67594815D01*
X131160459Y-67261164D01*
X130776869Y-66902198D01*
X130379480Y-66528302D01*
X129979455Y-66149859D01*
X129587955Y-65777254D01*
X129224330Y-65428750D01*
X129058354Y-65279226D01*
X128898688Y-65150791D01*
X128870308Y-65130455D01*
X128818206Y-65090458D01*
X128806056Y-65061720D01*
X128849115Y-65042297D01*
X128962640Y-65030247D01*
X129161888Y-65023628D01*
X129462115Y-65020496D01*
X129742956Y-65019330D01*
X130771662Y-65016000D01*
X130790706Y-64652699D01*
X130809750Y-64289399D01*
X131065659Y-64541574D01*
G36*
X124834893Y-71390605D02*
X124922986Y-71444058D01*
X125088274Y-71573832D01*
X125316800Y-71767816D01*
X125594607Y-72013900D01*
X125907737Y-72299973D01*
X126216136Y-72589129D01*
X126746325Y-73092213D01*
X127192308Y-73514849D01*
X127561968Y-73864046D01*
X127863189Y-74146813D01*
X128103856Y-74370156D01*
X128291853Y-74541085D01*
X128435063Y-74666606D01*
X128541370Y-74753729D01*
X128618658Y-74809460D01*
X128674812Y-74840809D01*
X128717715Y-74854783D01*
X128755251Y-74858389D01*
X128769163Y-74858500D01*
X128849140Y-74831053D01*
X128979122Y-74744272D01*
X129166932Y-74591497D01*
X129420394Y-74366067D01*
X129747330Y-74061323D01*
X130088327Y-73735447D01*
X130628814Y-73215177D01*
X131085779Y-72776528D01*
X131466943Y-72412785D01*
X131780028Y-72117232D01*
X132032756Y-71883152D01*
X132232849Y-71703831D01*
X132388030Y-71572553D01*
X132506019Y-71482601D01*
X132594540Y-71427261D01*
X132661313Y-71399816D01*
X132714062Y-71393550D01*
X132760507Y-71401749D01*
X132768818Y-71404251D01*
X132860445Y-71440582D01*
X132963828Y-71501403D01*
X133096971Y-71600641D01*
X133277879Y-71752220D01*
X133524555Y-71970068D01*
X133673933Y-72104361D01*
X133907083Y-72321497D01*
X134047305Y-72482673D01*
X134099139Y-72613350D01*
X134067127Y-72738985D01*
X133955807Y-72885039D01*
X133835550Y-73010606D01*
X133681825Y-73163253D01*
X133468102Y-73371238D01*
X133207918Y-73621778D01*
X132914806Y-73902088D01*
X132602304Y-74199384D01*
X132283945Y-74500882D01*
X131973265Y-74793796D01*
X131683799Y-75065344D01*
X131429083Y-75302740D01*
X131222652Y-75493201D01*
X131078041Y-75623941D01*
X131008785Y-75682177D01*
X131005127Y-75684000D01*
X130985064Y-75626556D01*
X130971760Y-75478382D01*
X130968500Y-75334750D01*
X130968500Y-74985500D01*
X126593337Y-74985500D01*
X126574293Y-75333077D01*
X126555250Y-75680655D01*
X125856750Y-74998896D01*
X125617168Y-74766600D01*
X125333043Y-74493574D01*
X125021230Y-74195765D01*
X124698586Y-73889117D01*
X124381970Y-73589575D01*
X124088237Y-73313085D01*
X123834246Y-73075591D01*
X123636852Y-72893040D01*
X123512913Y-72781376D01*
X123507127Y-72776371D01*
X123431575Y-72679342D01*
X123426565Y-72564894D01*
X123499591Y-72418272D01*
X123658152Y-72224722D01*
X123909744Y-71969491D01*
X123924263Y-71955460D01*
X124188718Y-71704826D01*
X124384758Y-71533683D01*
X124531923Y-71429912D01*
X124649752Y-71381392D01*
X124757786Y-71376003D01*
X124834893Y-71390605D01*
X124834893Y-71390605D01*
G37*
X124834893Y-71390605D02*
X124922986Y-71444058D01*
X125088274Y-71573832D01*
X125316800Y-71767816D01*
X125594607Y-72013900D01*
X125907737Y-72299973D01*
X126216136Y-72589129D01*
X126746325Y-73092213D01*
X127192308Y-73514849D01*
X127561968Y-73864046D01*
X127863189Y-74146813D01*
X128103856Y-74370156D01*
X128291853Y-74541085D01*
X128435063Y-74666606D01*
X128541370Y-74753729D01*
X128618658Y-74809460D01*
X128674812Y-74840809D01*
X128717715Y-74854783D01*
X128755251Y-74858389D01*
X128769163Y-74858500D01*
X128849140Y-74831053D01*
X128979122Y-74744272D01*
X129166932Y-74591497D01*
X129420394Y-74366067D01*
X129747330Y-74061323D01*
X130088327Y-73735447D01*
X130628814Y-73215177D01*
X131085779Y-72776528D01*
X131466943Y-72412785D01*
X131780028Y-72117232D01*
X132032756Y-71883152D01*
X132232849Y-71703831D01*
X132388030Y-71572553D01*
X132506019Y-71482601D01*
X132594540Y-71427261D01*
X132661313Y-71399816D01*
X132714062Y-71393550D01*
X132760507Y-71401749D01*
X132768818Y-71404251D01*
X132860445Y-71440582D01*
X132963828Y-71501403D01*
X133096971Y-71600641D01*
X133277879Y-71752220D01*
X133524555Y-71970068D01*
X133673933Y-72104361D01*
X133907083Y-72321497D01*
X134047305Y-72482673D01*
X134099139Y-72613350D01*
X134067127Y-72738985D01*
X133955807Y-72885039D01*
X133835550Y-73010606D01*
X133681825Y-73163253D01*
X133468102Y-73371238D01*
X133207918Y-73621778D01*
X132914806Y-73902088D01*
X132602304Y-74199384D01*
X132283945Y-74500882D01*
X131973265Y-74793796D01*
X131683799Y-75065344D01*
X131429083Y-75302740D01*
X131222652Y-75493201D01*
X131078041Y-75623941D01*
X131008785Y-75682177D01*
X131005127Y-75684000D01*
X130985064Y-75626556D01*
X130971760Y-75478382D01*
X130968500Y-75334750D01*
X130968500Y-74985500D01*
X126593337Y-74985500D01*
X126574293Y-75333077D01*
X126555250Y-75680655D01*
X125856750Y-74998896D01*
X125617168Y-74766600D01*
X125333043Y-74493574D01*
X125021230Y-74195765D01*
X124698586Y-73889117D01*
X124381970Y-73589575D01*
X124088237Y-73313085D01*
X123834246Y-73075591D01*
X123636852Y-72893040D01*
X123512913Y-72781376D01*
X123507127Y-72776371D01*
X123431575Y-72679342D01*
X123426565Y-72564894D01*
X123499591Y-72418272D01*
X123658152Y-72224722D01*
X123909744Y-71969491D01*
X123924263Y-71955460D01*
X124188718Y-71704826D01*
X124384758Y-71533683D01*
X124531923Y-71429912D01*
X124649752Y-71381392D01*
X124757786Y-71376003D01*
X124834893Y-71390605D01*
G36*
X115193597Y-71379404D02*
X115315011Y-71385936D01*
X115845006Y-71425753D01*
X116281388Y-71480396D01*
X116657290Y-71556693D01*
X117005848Y-71661474D01*
X117360195Y-71801570D01*
X117385853Y-71812779D01*
X118008231Y-72142000D01*
X118592322Y-72558856D01*
X119109788Y-73039946D01*
X119532294Y-73561868D01*
X119567837Y-73614807D01*
X119732760Y-73887617D01*
X119901044Y-74204401D01*
X120060262Y-74537108D01*
X120197986Y-74857685D01*
X120301787Y-75138081D01*
X120359239Y-75350244D01*
X120366690Y-75417942D01*
X120383441Y-75618050D01*
X120423148Y-75867555D01*
X120451430Y-76001500D01*
X120496771Y-76248951D01*
X120494513Y-76452772D01*
X120449493Y-76668250D01*
X120400110Y-76881559D01*
X120369523Y-77064830D01*
X120364753Y-77127865D01*
X120336909Y-77320789D01*
X120263302Y-77592525D01*
X120156557Y-77909106D01*
X120029300Y-78236561D01*
X119894157Y-78540921D01*
X119763753Y-78788219D01*
X119724361Y-78850842D01*
X119464256Y-79203432D01*
X119157593Y-79560654D01*
X118832018Y-79894231D01*
X118515179Y-80175885D01*
X118234722Y-80377338D01*
X118227923Y-80381395D01*
X118035300Y-80499261D01*
X117889244Y-80595463D01*
X117821778Y-80648801D01*
X117717679Y-80723537D01*
X117512006Y-80816300D01*
X117227434Y-80918847D01*
X116886643Y-81022937D01*
X116548074Y-81111738D01*
X115727995Y-81245352D01*
X114885141Y-81255434D01*
X114375780Y-81202622D01*
X114117512Y-81141504D01*
X113781526Y-81027803D01*
X113399001Y-80874290D01*
X113001114Y-80693738D01*
X112619041Y-80498916D01*
X112509862Y-80438289D01*
X112178807Y-80205390D01*
X111823809Y-79877729D01*
X111464945Y-79479670D01*
X111122293Y-79035575D01*
X110815929Y-78569809D01*
X110565932Y-78106737D01*
X110536748Y-78043892D01*
X110440709Y-77803962D01*
X110366842Y-77545075D01*
X110310169Y-77240350D01*
X110265709Y-76862902D01*
X110228484Y-76385850D01*
X110227837Y-76375993D01*
X110223935Y-76297490D01*
X111926606Y-76297490D01*
X111959298Y-76741536D01*
X112037586Y-77026249D01*
X112268300Y-77563647D01*
X112568162Y-78054629D01*
X112919968Y-78477654D01*
X113306517Y-78811179D01*
X113603375Y-78987014D01*
X114183969Y-79223084D01*
X114751139Y-79361972D01*
X115354559Y-79414285D01*
X115601500Y-79413721D01*
X115905508Y-79404478D01*
X116127530Y-79385924D01*
X116311806Y-79347314D01*
X116502578Y-79277903D01*
X116744084Y-79166947D01*
X116871500Y-79105268D01*
X117310208Y-78865053D01*
X117653820Y-78607980D01*
X117933639Y-78304904D01*
X118180974Y-77926680D01*
X118227376Y-77843000D01*
X118402501Y-77441518D01*
X118530003Y-76989641D01*
X118602176Y-76529777D01*
X118611313Y-76104338D01*
X118583422Y-75883687D01*
X118433571Y-75384116D01*
X118196716Y-74894853D01*
X117891766Y-74442181D01*
X117537628Y-74052380D01*
X117153208Y-73751733D01*
X116979903Y-73654738D01*
X116348431Y-73405991D01*
X115688055Y-73257371D01*
X115035713Y-73216836D01*
X114959748Y-73219612D01*
X114676787Y-73238633D01*
X114457775Y-73272909D01*
X114253152Y-73335792D01*
X114013357Y-73440639D01*
X113857247Y-73516705D01*
X113364039Y-73804705D01*
X112927646Y-74145509D01*
X112570337Y-74518703D01*
X112314380Y-74903872D01*
X112289715Y-74953750D01*
X112195893Y-75171403D01*
X112130573Y-75360656D01*
X112109050Y-75469641D01*
X112088185Y-75612643D01*
X112036037Y-75807581D01*
X112013750Y-75874500D01*
X111926606Y-76297490D01*
X110223935Y-76297490D01*
X110212685Y-76071166D01*
X110217324Y-75830832D01*
X110247337Y-75603652D01*
X110308311Y-75338285D01*
X110362532Y-75137743D01*
X110563751Y-74507972D01*
X110793540Y-73979694D01*
X111065112Y-73528333D01*
X111391683Y-73129315D01*
X111504453Y-73014076D01*
X111801386Y-72742628D01*
X112146622Y-72459355D01*
X112502724Y-72192766D01*
X112832251Y-71971368D01*
X113010527Y-71867295D01*
X113116747Y-71825690D01*
X113318013Y-71759624D01*
X113586760Y-71677733D01*
X113895420Y-71588652D01*
X113938688Y-71576533D01*
X114285427Y-71482464D01*
X114547558Y-71420804D01*
X114761809Y-71386464D01*
X114964912Y-71374360D01*
X115193597Y-71379404D01*
X115193597Y-71379404D01*
G37*
X115193597Y-71379404D02*
X115315011Y-71385936D01*
X115845006Y-71425753D01*
X116281388Y-71480396D01*
X116657290Y-71556693D01*
X117005848Y-71661474D01*
X117360195Y-71801570D01*
X117385853Y-71812779D01*
X118008231Y-72142000D01*
X118592322Y-72558856D01*
X119109788Y-73039946D01*
X119532294Y-73561868D01*
X119567837Y-73614807D01*
X119732760Y-73887617D01*
X119901044Y-74204401D01*
X120060262Y-74537108D01*
X120197986Y-74857685D01*
X120301787Y-75138081D01*
X120359239Y-75350244D01*
X120366690Y-75417942D01*
X120383441Y-75618050D01*
X120423148Y-75867555D01*
X120451430Y-76001500D01*
X120496771Y-76248951D01*
X120494513Y-76452772D01*
X120449493Y-76668250D01*
X120400110Y-76881559D01*
X120369523Y-77064830D01*
X120364753Y-77127865D01*
X120336909Y-77320789D01*
X120263302Y-77592525D01*
X120156557Y-77909106D01*
X120029300Y-78236561D01*
X119894157Y-78540921D01*
X119763753Y-78788219D01*
X119724361Y-78850842D01*
X119464256Y-79203432D01*
X119157593Y-79560654D01*
X118832018Y-79894231D01*
X118515179Y-80175885D01*
X118234722Y-80377338D01*
X118227923Y-80381395D01*
X118035300Y-80499261D01*
X117889244Y-80595463D01*
X117821778Y-80648801D01*
X117717679Y-80723537D01*
X117512006Y-80816300D01*
X117227434Y-80918847D01*
X116886643Y-81022937D01*
X116548074Y-81111738D01*
X115727995Y-81245352D01*
X114885141Y-81255434D01*
X114375780Y-81202622D01*
X114117512Y-81141504D01*
X113781526Y-81027803D01*
X113399001Y-80874290D01*
X113001114Y-80693738D01*
X112619041Y-80498916D01*
X112509862Y-80438289D01*
X112178807Y-80205390D01*
X111823809Y-79877729D01*
X111464945Y-79479670D01*
X111122293Y-79035575D01*
X110815929Y-78569809D01*
X110565932Y-78106737D01*
X110536748Y-78043892D01*
X110440709Y-77803962D01*
X110366842Y-77545075D01*
X110310169Y-77240350D01*
X110265709Y-76862902D01*
X110228484Y-76385850D01*
X110227837Y-76375993D01*
X110223935Y-76297490D01*
X111926606Y-76297490D01*
X111959298Y-76741536D01*
X112037586Y-77026249D01*
X112268300Y-77563647D01*
X112568162Y-78054629D01*
X112919968Y-78477654D01*
X113306517Y-78811179D01*
X113603375Y-78987014D01*
X114183969Y-79223084D01*
X114751139Y-79361972D01*
X115354559Y-79414285D01*
X115601500Y-79413721D01*
X115905508Y-79404478D01*
X116127530Y-79385924D01*
X116311806Y-79347314D01*
X116502578Y-79277903D01*
X116744084Y-79166947D01*
X116871500Y-79105268D01*
X117310208Y-78865053D01*
X117653820Y-78607980D01*
X117933639Y-78304904D01*
X118180974Y-77926680D01*
X118227376Y-77843000D01*
X118402501Y-77441518D01*
X118530003Y-76989641D01*
X118602176Y-76529777D01*
X118611313Y-76104338D01*
X118583422Y-75883687D01*
X118433571Y-75384116D01*
X118196716Y-74894853D01*
X117891766Y-74442181D01*
X117537628Y-74052380D01*
X117153208Y-73751733D01*
X116979903Y-73654738D01*
X116348431Y-73405991D01*
X115688055Y-73257371D01*
X115035713Y-73216836D01*
X114959748Y-73219612D01*
X114676787Y-73238633D01*
X114457775Y-73272909D01*
X114253152Y-73335792D01*
X114013357Y-73440639D01*
X113857247Y-73516705D01*
X113364039Y-73804705D01*
X112927646Y-74145509D01*
X112570337Y-74518703D01*
X112314380Y-74903872D01*
X112289715Y-74953750D01*
X112195893Y-75171403D01*
X112130573Y-75360656D01*
X112109050Y-75469641D01*
X112088185Y-75612643D01*
X112036037Y-75807581D01*
X112013750Y-75874500D01*
X111926606Y-76297490D01*
X110223935Y-76297490D01*
X110212685Y-76071166D01*
X110217324Y-75830832D01*
X110247337Y-75603652D01*
X110308311Y-75338285D01*
X110362532Y-75137743D01*
X110563751Y-74507972D01*
X110793540Y-73979694D01*
X111065112Y-73528333D01*
X111391683Y-73129315D01*
X111504453Y-73014076D01*
X111801386Y-72742628D01*
X112146622Y-72459355D01*
X112502724Y-72192766D01*
X112832251Y-71971368D01*
X113010527Y-71867295D01*
X113116747Y-71825690D01*
X113318013Y-71759624D01*
X113586760Y-71677733D01*
X113895420Y-71588652D01*
X113938688Y-71576533D01*
X114285427Y-71482464D01*
X114547558Y-71420804D01*
X114761809Y-71386464D01*
X114964912Y-71374360D01*
X115193597Y-71379404D01*
G36*
X142624476Y-71526864D02*
X142973270Y-71533145D01*
X143250199Y-71550725D01*
X143482830Y-71585034D01*
X143698730Y-71641500D01*
X143925467Y-71725551D01*
X144190607Y-71842616D01*
X144486212Y-71981330D01*
X144907755Y-72195378D01*
X145274942Y-72418880D01*
X145623059Y-72677198D01*
X145987387Y-72995696D01*
X146256905Y-73254186D01*
X146465469Y-73465246D01*
X146630757Y-73652413D01*
X146765964Y-73839505D01*
X146884288Y-74050343D01*
X146998924Y-74308746D01*
X147123071Y-74638533D01*
X147269925Y-75063522D01*
X147286477Y-75112500D01*
X147554404Y-75906250D01*
X147516384Y-76700000D01*
X147492074Y-77118097D01*
X147458544Y-77444361D01*
X147406528Y-77713956D01*
X147326763Y-77962050D01*
X147209983Y-78223807D01*
X147046925Y-78534393D01*
X147020303Y-78582997D01*
X146632135Y-79213308D01*
X146220248Y-79730019D01*
X145774115Y-80145841D01*
X145645125Y-80243401D01*
X145143022Y-80589828D01*
X144700839Y-80854489D01*
X144290962Y-81047636D01*
X143885778Y-81179519D01*
X143457672Y-81260389D01*
X142979032Y-81300495D01*
X142779500Y-81307149D01*
X142431032Y-81310131D01*
X142088044Y-81304551D01*
X141792630Y-81291568D01*
X141604750Y-81274846D01*
X141022346Y-81147994D01*
X140407962Y-80924180D01*
X139790408Y-80617944D01*
X139198497Y-80243828D01*
X138661039Y-79816374D01*
X138594292Y-79755437D01*
X138340674Y-79514583D01*
X138155059Y-79318673D01*
X138009755Y-79130418D01*
X137877070Y-78912527D01*
X137729312Y-78627712D01*
X137674736Y-78517187D01*
X137523481Y-78195099D01*
X137404088Y-77901415D01*
X137307222Y-77604209D01*
X137223547Y-77271557D01*
X137143729Y-76871534D01*
X137072325Y-76457010D01*
X137057204Y-76290887D01*
X139041686Y-76290887D01*
X139058524Y-76785815D01*
X139182315Y-77215973D01*
X139272568Y-77435051D01*
X139344645Y-77632668D01*
X139372262Y-77724849D01*
X139431737Y-77840731D01*
X139559536Y-78018946D01*
X139734575Y-78231631D01*
X139867028Y-78378732D01*
X140199314Y-78699221D01*
X140544168Y-78952845D01*
X140923449Y-79148484D01*
X141359016Y-79295019D01*
X141872726Y-79401331D01*
X142486438Y-79476301D01*
X142591533Y-79485654D01*
X142704492Y-79474937D01*
X142891538Y-79438498D01*
X143039586Y-79402766D01*
X143437765Y-79262047D01*
X143868455Y-79048417D01*
X144285110Y-78788358D01*
X144641183Y-78508352D01*
X144687695Y-78465119D01*
X145056490Y-78038203D01*
X145319843Y-77556501D01*
X145485335Y-77004480D01*
X145528033Y-76743685D01*
X145559682Y-76482000D01*
X145570836Y-76291016D01*
X145556322Y-76126866D01*
X145510964Y-75945680D01*
X145429587Y-75703591D01*
X145393226Y-75600827D01*
X145147837Y-75019348D01*
X144856779Y-74544609D01*
X144506306Y-74160427D01*
X144082671Y-73850618D01*
X143763750Y-73682476D01*
X143176398Y-73473167D01*
X142541655Y-73361950D01*
X141900821Y-73356014D01*
X141892234Y-73356694D01*
X141641226Y-73385176D01*
X141423263Y-73434428D01*
X141195203Y-73518172D01*
X140913902Y-73650131D01*
X140818536Y-73698191D01*
X140514937Y-73860822D01*
X140297407Y-74001096D01*
X140133766Y-74142989D01*
X139991837Y-74310475D01*
X139985631Y-74318750D01*
X139833540Y-74512064D01*
X139687862Y-74680536D01*
X139606212Y-74763250D01*
X139412380Y-75007308D01*
X139246571Y-75369628D01*
X139135562Y-75736753D01*
X139041686Y-76290887D01*
X137057204Y-76290887D01*
X137049369Y-76204819D01*
X137057518Y-75965745D01*
X137070769Y-75885510D01*
X137109335Y-75654758D01*
X137126470Y-75425047D01*
X137126485Y-75423073D01*
X137156496Y-75243677D01*
X137232845Y-75011088D01*
X137317695Y-74819823D01*
X137415534Y-74614642D01*
X137484320Y-74447024D01*
X137508195Y-74359039D01*
X137548275Y-74241948D01*
X137655899Y-74053410D01*
X137814187Y-73816858D01*
X138006262Y-73555723D01*
X138215246Y-73293439D01*
X138424261Y-73053436D01*
X138524451Y-72948156D01*
X138864048Y-72647379D01*
X139282698Y-72341603D01*
X139739134Y-72056752D01*
X140192093Y-71818747D01*
X140568794Y-71663940D01*
X140726124Y-71615197D01*
X140883426Y-71579495D01*
X141064166Y-71554826D01*
X141291809Y-71539184D01*
X141589818Y-71530562D01*
X141981659Y-71526953D01*
X142176250Y-71526454D01*
X142624476Y-71526864D01*
X142624476Y-71526864D01*
G37*
X142624476Y-71526864D02*
X142973270Y-71533145D01*
X143250199Y-71550725D01*
X143482830Y-71585034D01*
X143698730Y-71641500D01*
X143925467Y-71725551D01*
X144190607Y-71842616D01*
X144486212Y-71981330D01*
X144907755Y-72195378D01*
X145274942Y-72418880D01*
X145623059Y-72677198D01*
X145987387Y-72995696D01*
X146256905Y-73254186D01*
X146465469Y-73465246D01*
X146630757Y-73652413D01*
X146765964Y-73839505D01*
X146884288Y-74050343D01*
X146998924Y-74308746D01*
X147123071Y-74638533D01*
X147269925Y-75063522D01*
X147286477Y-75112500D01*
X147554404Y-75906250D01*
X147516384Y-76700000D01*
X147492074Y-77118097D01*
X147458544Y-77444361D01*
X147406528Y-77713956D01*
X147326763Y-77962050D01*
X147209983Y-78223807D01*
X147046925Y-78534393D01*
X147020303Y-78582997D01*
X146632135Y-79213308D01*
X146220248Y-79730019D01*
X145774115Y-80145841D01*
X145645125Y-80243401D01*
X145143022Y-80589828D01*
X144700839Y-80854489D01*
X144290962Y-81047636D01*
X143885778Y-81179519D01*
X143457672Y-81260389D01*
X142979032Y-81300495D01*
X142779500Y-81307149D01*
X142431032Y-81310131D01*
X142088044Y-81304551D01*
X141792630Y-81291568D01*
X141604750Y-81274846D01*
X141022346Y-81147994D01*
X140407962Y-80924180D01*
X139790408Y-80617944D01*
X139198497Y-80243828D01*
X138661039Y-79816374D01*
X138594292Y-79755437D01*
X138340674Y-79514583D01*
X138155059Y-79318673D01*
X138009755Y-79130418D01*
X137877070Y-78912527D01*
X137729312Y-78627712D01*
X137674736Y-78517187D01*
X137523481Y-78195099D01*
X137404088Y-77901415D01*
X137307222Y-77604209D01*
X137223547Y-77271557D01*
X137143729Y-76871534D01*
X137072325Y-76457010D01*
X137057204Y-76290887D01*
X139041686Y-76290887D01*
X139058524Y-76785815D01*
X139182315Y-77215973D01*
X139272568Y-77435051D01*
X139344645Y-77632668D01*
X139372262Y-77724849D01*
X139431737Y-77840731D01*
X139559536Y-78018946D01*
X139734575Y-78231631D01*
X139867028Y-78378732D01*
X140199314Y-78699221D01*
X140544168Y-78952845D01*
X140923449Y-79148484D01*
X141359016Y-79295019D01*
X141872726Y-79401331D01*
X142486438Y-79476301D01*
X142591533Y-79485654D01*
X142704492Y-79474937D01*
X142891538Y-79438498D01*
X143039586Y-79402766D01*
X143437765Y-79262047D01*
X143868455Y-79048417D01*
X144285110Y-78788358D01*
X144641183Y-78508352D01*
X144687695Y-78465119D01*
X145056490Y-78038203D01*
X145319843Y-77556501D01*
X145485335Y-77004480D01*
X145528033Y-76743685D01*
X145559682Y-76482000D01*
X145570836Y-76291016D01*
X145556322Y-76126866D01*
X145510964Y-75945680D01*
X145429587Y-75703591D01*
X145393226Y-75600827D01*
X145147837Y-75019348D01*
X144856779Y-74544609D01*
X144506306Y-74160427D01*
X144082671Y-73850618D01*
X143763750Y-73682476D01*
X143176398Y-73473167D01*
X142541655Y-73361950D01*
X141900821Y-73356014D01*
X141892234Y-73356694D01*
X141641226Y-73385176D01*
X141423263Y-73434428D01*
X141195203Y-73518172D01*
X140913902Y-73650131D01*
X140818536Y-73698191D01*
X140514937Y-73860822D01*
X140297407Y-74001096D01*
X140133766Y-74142989D01*
X139991837Y-74310475D01*
X139985631Y-74318750D01*
X139833540Y-74512064D01*
X139687862Y-74680536D01*
X139606212Y-74763250D01*
X139412380Y-75007308D01*
X139246571Y-75369628D01*
X139135562Y-75736753D01*
X139041686Y-76290887D01*
X137057204Y-76290887D01*
X137049369Y-76204819D01*
X137057518Y-75965745D01*
X137070769Y-75885510D01*
X137109335Y-75654758D01*
X137126470Y-75425047D01*
X137126485Y-75423073D01*
X137156496Y-75243677D01*
X137232845Y-75011088D01*
X137317695Y-74819823D01*
X137415534Y-74614642D01*
X137484320Y-74447024D01*
X137508195Y-74359039D01*
X137548275Y-74241948D01*
X137655899Y-74053410D01*
X137814187Y-73816858D01*
X138006262Y-73555723D01*
X138215246Y-73293439D01*
X138424261Y-73053436D01*
X138524451Y-72948156D01*
X138864048Y-72647379D01*
X139282698Y-72341603D01*
X139739134Y-72056752D01*
X140192093Y-71818747D01*
X140568794Y-71663940D01*
X140726124Y-71615197D01*
X140883426Y-71579495D01*
X141064166Y-71554826D01*
X141291809Y-71539184D01*
X141589818Y-71530562D01*
X141981659Y-71526953D01*
X142176250Y-71526454D01*
X142624476Y-71526864D01*
G36*
X131634756Y-77716000D02*
X131901930Y-77970756D01*
X132168231Y-78225965D01*
X132403837Y-78452972D01*
X132578928Y-78623121D01*
X132587256Y-78631286D01*
X132757655Y-78795416D01*
X132992081Y-79017054D01*
X133260689Y-79268165D01*
X133533637Y-79520717D01*
X133556125Y-79541391D01*
X133792340Y-79764566D01*
X133990291Y-79963259D01*
X134132813Y-80119342D01*
X134202742Y-80214686D01*
X134207000Y-80228811D01*
X134162730Y-80307711D01*
X134044473Y-80448568D01*
X133874058Y-80629985D01*
X133673314Y-80830563D01*
X133464068Y-81028903D01*
X133268150Y-81203605D01*
X133107388Y-81333272D01*
X133026002Y-81386554D01*
X132963864Y-81421072D01*
X132910080Y-81447154D01*
X132855506Y-81457754D01*
X132790998Y-81445824D01*
X132707411Y-81404319D01*
X132595601Y-81326190D01*
X132446424Y-81204391D01*
X132250734Y-81031875D01*
X131999389Y-80801595D01*
X131683242Y-80506504D01*
X131293150Y-80139554D01*
X130819969Y-79693700D01*
X130778000Y-79654175D01*
X130238049Y-79149197D01*
X129784815Y-78732958D01*
X129416076Y-78403537D01*
X129129612Y-78159011D01*
X128923202Y-77997461D01*
X128794626Y-77916964D01*
X128757973Y-77906500D01*
X128684478Y-77946910D01*
X128554367Y-78050833D01*
X128450558Y-78144625D01*
X127903268Y-78661230D01*
X127437473Y-79100315D01*
X127042554Y-79471787D01*
X126707891Y-79785555D01*
X126422863Y-80051528D01*
X126176850Y-80279612D01*
X125959233Y-80479716D01*
X125759392Y-80661748D01*
X125566705Y-80835616D01*
X125553176Y-80847768D01*
X125307223Y-81065616D01*
X125093998Y-81248804D01*
X124931422Y-81382369D01*
X124837422Y-81451344D01*
X124822926Y-81457486D01*
X124727987Y-81431856D01*
X124688168Y-81417209D01*
X124605219Y-81359889D01*
X124456797Y-81235473D01*
X124268218Y-81065667D01*
X124162964Y-80966895D01*
X123957419Y-80774546D01*
X123773536Y-80608289D01*
X123639404Y-80493278D01*
X123601171Y-80463822D01*
X123522488Y-80394073D01*
X123488691Y-80314991D01*
X123507499Y-80214736D01*
X123586628Y-80081467D01*
X123733797Y-79903343D01*
X123956724Y-79668524D01*
X124263126Y-79365168D01*
X124410332Y-79222425D01*
X124745415Y-78898716D01*
X125097738Y-78558399D01*
X125439206Y-78228608D01*
X125741724Y-77936478D01*
X125950207Y-77735196D01*
X126555250Y-77151142D01*
X126574293Y-77497071D01*
X126593337Y-77843000D01*
X130962162Y-77843000D01*
X131000250Y-77112750D01*
X131634756Y-77716000D01*
X131634756Y-77716000D01*
G37*
X131634756Y-77716000D02*
X131901930Y-77970756D01*
X132168231Y-78225965D01*
X132403837Y-78452972D01*
X132578928Y-78623121D01*
X132587256Y-78631286D01*
X132757655Y-78795416D01*
X132992081Y-79017054D01*
X133260689Y-79268165D01*
X133533637Y-79520717D01*
X133556125Y-79541391D01*
X133792340Y-79764566D01*
X133990291Y-79963259D01*
X134132813Y-80119342D01*
X134202742Y-80214686D01*
X134207000Y-80228811D01*
X134162730Y-80307711D01*
X134044473Y-80448568D01*
X133874058Y-80629985D01*
X133673314Y-80830563D01*
X133464068Y-81028903D01*
X133268150Y-81203605D01*
X133107388Y-81333272D01*
X133026002Y-81386554D01*
X132963864Y-81421072D01*
X132910080Y-81447154D01*
X132855506Y-81457754D01*
X132790998Y-81445824D01*
X132707411Y-81404319D01*
X132595601Y-81326190D01*
X132446424Y-81204391D01*
X132250734Y-81031875D01*
X131999389Y-80801595D01*
X131683242Y-80506504D01*
X131293150Y-80139554D01*
X130819969Y-79693700D01*
X130778000Y-79654175D01*
X130238049Y-79149197D01*
X129784815Y-78732958D01*
X129416076Y-78403537D01*
X129129612Y-78159011D01*
X128923202Y-77997461D01*
X128794626Y-77916964D01*
X128757973Y-77906500D01*
X128684478Y-77946910D01*
X128554367Y-78050833D01*
X128450558Y-78144625D01*
X127903268Y-78661230D01*
X127437473Y-79100315D01*
X127042554Y-79471787D01*
X126707891Y-79785555D01*
X126422863Y-80051528D01*
X126176850Y-80279612D01*
X125959233Y-80479716D01*
X125759392Y-80661748D01*
X125566705Y-80835616D01*
X125553176Y-80847768D01*
X125307223Y-81065616D01*
X125093998Y-81248804D01*
X124931422Y-81382369D01*
X124837422Y-81451344D01*
X124822926Y-81457486D01*
X124727987Y-81431856D01*
X124688168Y-81417209D01*
X124605219Y-81359889D01*
X124456797Y-81235473D01*
X124268218Y-81065667D01*
X124162964Y-80966895D01*
X123957419Y-80774546D01*
X123773536Y-80608289D01*
X123639404Y-80493278D01*
X123601171Y-80463822D01*
X123522488Y-80394073D01*
X123488691Y-80314991D01*
X123507499Y-80214736D01*
X123586628Y-80081467D01*
X123733797Y-79903343D01*
X123956724Y-79668524D01*
X124263126Y-79365168D01*
X124410332Y-79222425D01*
X124745415Y-78898716D01*
X125097738Y-78558399D01*
X125439206Y-78228608D01*
X125741724Y-77936478D01*
X125950207Y-77735196D01*
X126555250Y-77151142D01*
X126574293Y-77497071D01*
X126593337Y-77843000D01*
X130962162Y-77843000D01*
X131000250Y-77112750D01*
X131634756Y-77716000D01*
G04 #@! TD*
D11*
G04 #@! TO.P,J2,4*
G04 #@! TO.N,Net-(J2-Pad4)*
X148540000Y-84540000D03*
G04 #@! TO.P,J2,3*
G04 #@! TO.N,GND*
X146000000Y-84540000D03*
G04 #@! TO.P,J2,2*
G04 #@! TO.N,Net-(J2-Pad2)*
X148540000Y-82000000D03*
D12*
G04 #@! TO.P,J2,1*
G04 #@! TO.N,+3V3*
X146000000Y-82000000D03*
G04 #@! TD*
D13*
G04 #@! TO.N,Net-(D1-Pad1)*
G04 #@! TO.C,D1*
G36*
X114752691Y-49526053D02*
X114773926Y-49529203D01*
X114794750Y-49534419D01*
X114814962Y-49541651D01*
X114834368Y-49550830D01*
X114852781Y-49561866D01*
X114870024Y-49574654D01*
X114885930Y-49589070D01*
X114900346Y-49604976D01*
X114913134Y-49622219D01*
X114924170Y-49640632D01*
X114933349Y-49660038D01*
X114940581Y-49680250D01*
X114945797Y-49701074D01*
X114948947Y-49722309D01*
X114950000Y-49743750D01*
X114950000Y-50256250D01*
X114948947Y-50277691D01*
X114945797Y-50298926D01*
X114940581Y-50319750D01*
X114933349Y-50339962D01*
X114924170Y-50359368D01*
X114913134Y-50377781D01*
X114900346Y-50395024D01*
X114885930Y-50410930D01*
X114870024Y-50425346D01*
X114852781Y-50438134D01*
X114834368Y-50449170D01*
X114814962Y-50458349D01*
X114794750Y-50465581D01*
X114773926Y-50470797D01*
X114752691Y-50473947D01*
X114731250Y-50475000D01*
X114293750Y-50475000D01*
X114272309Y-50473947D01*
X114251074Y-50470797D01*
X114230250Y-50465581D01*
X114210038Y-50458349D01*
X114190632Y-50449170D01*
X114172219Y-50438134D01*
X114154976Y-50425346D01*
X114139070Y-50410930D01*
X114124654Y-50395024D01*
X114111866Y-50377781D01*
X114100830Y-50359368D01*
X114091651Y-50339962D01*
X114084419Y-50319750D01*
X114079203Y-50298926D01*
X114076053Y-50277691D01*
X114075000Y-50256250D01*
X114075000Y-49743750D01*
X114076053Y-49722309D01*
X114079203Y-49701074D01*
X114084419Y-49680250D01*
X114091651Y-49660038D01*
X114100830Y-49640632D01*
X114111866Y-49622219D01*
X114124654Y-49604976D01*
X114139070Y-49589070D01*
X114154976Y-49574654D01*
X114172219Y-49561866D01*
X114190632Y-49550830D01*
X114210038Y-49541651D01*
X114230250Y-49534419D01*
X114251074Y-49529203D01*
X114272309Y-49526053D01*
X114293750Y-49525000D01*
X114731250Y-49525000D01*
X114752691Y-49526053D01*
X114752691Y-49526053D01*
G37*
D14*
G04 #@! TD*
G04 #@! TO.P,D1,1*
G04 #@! TO.N,Net-(D1-Pad1)*
X114512500Y-50000000D03*
D13*
G04 #@! TO.N,Net-(D1-Pad2)*
G04 #@! TO.C,D1*
G36*
X116327691Y-49526053D02*
X116348926Y-49529203D01*
X116369750Y-49534419D01*
X116389962Y-49541651D01*
X116409368Y-49550830D01*
X116427781Y-49561866D01*
X116445024Y-49574654D01*
X116460930Y-49589070D01*
X116475346Y-49604976D01*
X116488134Y-49622219D01*
X116499170Y-49640632D01*
X116508349Y-49660038D01*
X116515581Y-49680250D01*
X116520797Y-49701074D01*
X116523947Y-49722309D01*
X116525000Y-49743750D01*
X116525000Y-50256250D01*
X116523947Y-50277691D01*
X116520797Y-50298926D01*
X116515581Y-50319750D01*
X116508349Y-50339962D01*
X116499170Y-50359368D01*
X116488134Y-50377781D01*
X116475346Y-50395024D01*
X116460930Y-50410930D01*
X116445024Y-50425346D01*
X116427781Y-50438134D01*
X116409368Y-50449170D01*
X116389962Y-50458349D01*
X116369750Y-50465581D01*
X116348926Y-50470797D01*
X116327691Y-50473947D01*
X116306250Y-50475000D01*
X115868750Y-50475000D01*
X115847309Y-50473947D01*
X115826074Y-50470797D01*
X115805250Y-50465581D01*
X115785038Y-50458349D01*
X115765632Y-50449170D01*
X115747219Y-50438134D01*
X115729976Y-50425346D01*
X115714070Y-50410930D01*
X115699654Y-50395024D01*
X115686866Y-50377781D01*
X115675830Y-50359368D01*
X115666651Y-50339962D01*
X115659419Y-50319750D01*
X115654203Y-50298926D01*
X115651053Y-50277691D01*
X115650000Y-50256250D01*
X115650000Y-49743750D01*
X115651053Y-49722309D01*
X115654203Y-49701074D01*
X115659419Y-49680250D01*
X115666651Y-49660038D01*
X115675830Y-49640632D01*
X115686866Y-49622219D01*
X115699654Y-49604976D01*
X115714070Y-49589070D01*
X115729976Y-49574654D01*
X115747219Y-49561866D01*
X115765632Y-49550830D01*
X115785038Y-49541651D01*
X115805250Y-49534419D01*
X115826074Y-49529203D01*
X115847309Y-49526053D01*
X115868750Y-49525000D01*
X116306250Y-49525000D01*
X116327691Y-49526053D01*
X116327691Y-49526053D01*
G37*
D14*
G04 #@! TD*
G04 #@! TO.P,D1,2*
G04 #@! TO.N,Net-(D1-Pad2)*
X116087500Y-50000000D03*
D13*
G04 #@! TO.N,Net-(D10-Pad1)*
G04 #@! TO.C,D2*
G36*
X127952691Y-49626053D02*
X127973926Y-49629203D01*
X127994750Y-49634419D01*
X128014962Y-49641651D01*
X128034368Y-49650830D01*
X128052781Y-49661866D01*
X128070024Y-49674654D01*
X128085930Y-49689070D01*
X128100346Y-49704976D01*
X128113134Y-49722219D01*
X128124170Y-49740632D01*
X128133349Y-49760038D01*
X128140581Y-49780250D01*
X128145797Y-49801074D01*
X128148947Y-49822309D01*
X128150000Y-49843750D01*
X128150000Y-50356250D01*
X128148947Y-50377691D01*
X128145797Y-50398926D01*
X128140581Y-50419750D01*
X128133349Y-50439962D01*
X128124170Y-50459368D01*
X128113134Y-50477781D01*
X128100346Y-50495024D01*
X128085930Y-50510930D01*
X128070024Y-50525346D01*
X128052781Y-50538134D01*
X128034368Y-50549170D01*
X128014962Y-50558349D01*
X127994750Y-50565581D01*
X127973926Y-50570797D01*
X127952691Y-50573947D01*
X127931250Y-50575000D01*
X127493750Y-50575000D01*
X127472309Y-50573947D01*
X127451074Y-50570797D01*
X127430250Y-50565581D01*
X127410038Y-50558349D01*
X127390632Y-50549170D01*
X127372219Y-50538134D01*
X127354976Y-50525346D01*
X127339070Y-50510930D01*
X127324654Y-50495024D01*
X127311866Y-50477781D01*
X127300830Y-50459368D01*
X127291651Y-50439962D01*
X127284419Y-50419750D01*
X127279203Y-50398926D01*
X127276053Y-50377691D01*
X127275000Y-50356250D01*
X127275000Y-49843750D01*
X127276053Y-49822309D01*
X127279203Y-49801074D01*
X127284419Y-49780250D01*
X127291651Y-49760038D01*
X127300830Y-49740632D01*
X127311866Y-49722219D01*
X127324654Y-49704976D01*
X127339070Y-49689070D01*
X127354976Y-49674654D01*
X127372219Y-49661866D01*
X127390632Y-49650830D01*
X127410038Y-49641651D01*
X127430250Y-49634419D01*
X127451074Y-49629203D01*
X127472309Y-49626053D01*
X127493750Y-49625000D01*
X127931250Y-49625000D01*
X127952691Y-49626053D01*
X127952691Y-49626053D01*
G37*
D14*
G04 #@! TD*
G04 #@! TO.P,D2,1*
G04 #@! TO.N,Net-(D10-Pad1)*
X127712500Y-50100000D03*
D13*
G04 #@! TO.N,Net-(D13-Pad2)*
G04 #@! TO.C,D2*
G36*
X129527691Y-49626053D02*
X129548926Y-49629203D01*
X129569750Y-49634419D01*
X129589962Y-49641651D01*
X129609368Y-49650830D01*
X129627781Y-49661866D01*
X129645024Y-49674654D01*
X129660930Y-49689070D01*
X129675346Y-49704976D01*
X129688134Y-49722219D01*
X129699170Y-49740632D01*
X129708349Y-49760038D01*
X129715581Y-49780250D01*
X129720797Y-49801074D01*
X129723947Y-49822309D01*
X129725000Y-49843750D01*
X129725000Y-50356250D01*
X129723947Y-50377691D01*
X129720797Y-50398926D01*
X129715581Y-50419750D01*
X129708349Y-50439962D01*
X129699170Y-50459368D01*
X129688134Y-50477781D01*
X129675346Y-50495024D01*
X129660930Y-50510930D01*
X129645024Y-50525346D01*
X129627781Y-50538134D01*
X129609368Y-50549170D01*
X129589962Y-50558349D01*
X129569750Y-50565581D01*
X129548926Y-50570797D01*
X129527691Y-50573947D01*
X129506250Y-50575000D01*
X129068750Y-50575000D01*
X129047309Y-50573947D01*
X129026074Y-50570797D01*
X129005250Y-50565581D01*
X128985038Y-50558349D01*
X128965632Y-50549170D01*
X128947219Y-50538134D01*
X128929976Y-50525346D01*
X128914070Y-50510930D01*
X128899654Y-50495024D01*
X128886866Y-50477781D01*
X128875830Y-50459368D01*
X128866651Y-50439962D01*
X128859419Y-50419750D01*
X128854203Y-50398926D01*
X128851053Y-50377691D01*
X128850000Y-50356250D01*
X128850000Y-49843750D01*
X128851053Y-49822309D01*
X128854203Y-49801074D01*
X128859419Y-49780250D01*
X128866651Y-49760038D01*
X128875830Y-49740632D01*
X128886866Y-49722219D01*
X128899654Y-49704976D01*
X128914070Y-49689070D01*
X128929976Y-49674654D01*
X128947219Y-49661866D01*
X128965632Y-49650830D01*
X128985038Y-49641651D01*
X129005250Y-49634419D01*
X129026074Y-49629203D01*
X129047309Y-49626053D01*
X129068750Y-49625000D01*
X129506250Y-49625000D01*
X129527691Y-49626053D01*
X129527691Y-49626053D01*
G37*
D14*
G04 #@! TD*
G04 #@! TO.P,D2,2*
G04 #@! TO.N,Net-(D13-Pad2)*
X129287500Y-50100000D03*
D13*
G04 #@! TO.N,Net-(D1-Pad1)*
G04 #@! TO.C,D3*
G36*
X114752691Y-50926053D02*
X114773926Y-50929203D01*
X114794750Y-50934419D01*
X114814962Y-50941651D01*
X114834368Y-50950830D01*
X114852781Y-50961866D01*
X114870024Y-50974654D01*
X114885930Y-50989070D01*
X114900346Y-51004976D01*
X114913134Y-51022219D01*
X114924170Y-51040632D01*
X114933349Y-51060038D01*
X114940581Y-51080250D01*
X114945797Y-51101074D01*
X114948947Y-51122309D01*
X114950000Y-51143750D01*
X114950000Y-51656250D01*
X114948947Y-51677691D01*
X114945797Y-51698926D01*
X114940581Y-51719750D01*
X114933349Y-51739962D01*
X114924170Y-51759368D01*
X114913134Y-51777781D01*
X114900346Y-51795024D01*
X114885930Y-51810930D01*
X114870024Y-51825346D01*
X114852781Y-51838134D01*
X114834368Y-51849170D01*
X114814962Y-51858349D01*
X114794750Y-51865581D01*
X114773926Y-51870797D01*
X114752691Y-51873947D01*
X114731250Y-51875000D01*
X114293750Y-51875000D01*
X114272309Y-51873947D01*
X114251074Y-51870797D01*
X114230250Y-51865581D01*
X114210038Y-51858349D01*
X114190632Y-51849170D01*
X114172219Y-51838134D01*
X114154976Y-51825346D01*
X114139070Y-51810930D01*
X114124654Y-51795024D01*
X114111866Y-51777781D01*
X114100830Y-51759368D01*
X114091651Y-51739962D01*
X114084419Y-51719750D01*
X114079203Y-51698926D01*
X114076053Y-51677691D01*
X114075000Y-51656250D01*
X114075000Y-51143750D01*
X114076053Y-51122309D01*
X114079203Y-51101074D01*
X114084419Y-51080250D01*
X114091651Y-51060038D01*
X114100830Y-51040632D01*
X114111866Y-51022219D01*
X114124654Y-51004976D01*
X114139070Y-50989070D01*
X114154976Y-50974654D01*
X114172219Y-50961866D01*
X114190632Y-50950830D01*
X114210038Y-50941651D01*
X114230250Y-50934419D01*
X114251074Y-50929203D01*
X114272309Y-50926053D01*
X114293750Y-50925000D01*
X114731250Y-50925000D01*
X114752691Y-50926053D01*
X114752691Y-50926053D01*
G37*
D14*
G04 #@! TD*
G04 #@! TO.P,D3,2*
G04 #@! TO.N,Net-(D1-Pad1)*
X114512500Y-51400000D03*
D13*
G04 #@! TO.N,Net-(D1-Pad2)*
G04 #@! TO.C,D3*
G36*
X116327691Y-50926053D02*
X116348926Y-50929203D01*
X116369750Y-50934419D01*
X116389962Y-50941651D01*
X116409368Y-50950830D01*
X116427781Y-50961866D01*
X116445024Y-50974654D01*
X116460930Y-50989070D01*
X116475346Y-51004976D01*
X116488134Y-51022219D01*
X116499170Y-51040632D01*
X116508349Y-51060038D01*
X116515581Y-51080250D01*
X116520797Y-51101074D01*
X116523947Y-51122309D01*
X116525000Y-51143750D01*
X116525000Y-51656250D01*
X116523947Y-51677691D01*
X116520797Y-51698926D01*
X116515581Y-51719750D01*
X116508349Y-51739962D01*
X116499170Y-51759368D01*
X116488134Y-51777781D01*
X116475346Y-51795024D01*
X116460930Y-51810930D01*
X116445024Y-51825346D01*
X116427781Y-51838134D01*
X116409368Y-51849170D01*
X116389962Y-51858349D01*
X116369750Y-51865581D01*
X116348926Y-51870797D01*
X116327691Y-51873947D01*
X116306250Y-51875000D01*
X115868750Y-51875000D01*
X115847309Y-51873947D01*
X115826074Y-51870797D01*
X115805250Y-51865581D01*
X115785038Y-51858349D01*
X115765632Y-51849170D01*
X115747219Y-51838134D01*
X115729976Y-51825346D01*
X115714070Y-51810930D01*
X115699654Y-51795024D01*
X115686866Y-51777781D01*
X115675830Y-51759368D01*
X115666651Y-51739962D01*
X115659419Y-51719750D01*
X115654203Y-51698926D01*
X115651053Y-51677691D01*
X115650000Y-51656250D01*
X115650000Y-51143750D01*
X115651053Y-51122309D01*
X115654203Y-51101074D01*
X115659419Y-51080250D01*
X115666651Y-51060038D01*
X115675830Y-51040632D01*
X115686866Y-51022219D01*
X115699654Y-51004976D01*
X115714070Y-50989070D01*
X115729976Y-50974654D01*
X115747219Y-50961866D01*
X115765632Y-50950830D01*
X115785038Y-50941651D01*
X115805250Y-50934419D01*
X115826074Y-50929203D01*
X115847309Y-50926053D01*
X115868750Y-50925000D01*
X116306250Y-50925000D01*
X116327691Y-50926053D01*
X116327691Y-50926053D01*
G37*
D14*
G04 #@! TD*
G04 #@! TO.P,D3,1*
G04 #@! TO.N,Net-(D1-Pad2)*
X116087500Y-51400000D03*
D13*
G04 #@! TO.N,Net-(D10-Pad1)*
G04 #@! TO.C,D4*
G36*
X127952691Y-51126053D02*
X127973926Y-51129203D01*
X127994750Y-51134419D01*
X128014962Y-51141651D01*
X128034368Y-51150830D01*
X128052781Y-51161866D01*
X128070024Y-51174654D01*
X128085930Y-51189070D01*
X128100346Y-51204976D01*
X128113134Y-51222219D01*
X128124170Y-51240632D01*
X128133349Y-51260038D01*
X128140581Y-51280250D01*
X128145797Y-51301074D01*
X128148947Y-51322309D01*
X128150000Y-51343750D01*
X128150000Y-51856250D01*
X128148947Y-51877691D01*
X128145797Y-51898926D01*
X128140581Y-51919750D01*
X128133349Y-51939962D01*
X128124170Y-51959368D01*
X128113134Y-51977781D01*
X128100346Y-51995024D01*
X128085930Y-52010930D01*
X128070024Y-52025346D01*
X128052781Y-52038134D01*
X128034368Y-52049170D01*
X128014962Y-52058349D01*
X127994750Y-52065581D01*
X127973926Y-52070797D01*
X127952691Y-52073947D01*
X127931250Y-52075000D01*
X127493750Y-52075000D01*
X127472309Y-52073947D01*
X127451074Y-52070797D01*
X127430250Y-52065581D01*
X127410038Y-52058349D01*
X127390632Y-52049170D01*
X127372219Y-52038134D01*
X127354976Y-52025346D01*
X127339070Y-52010930D01*
X127324654Y-51995024D01*
X127311866Y-51977781D01*
X127300830Y-51959368D01*
X127291651Y-51939962D01*
X127284419Y-51919750D01*
X127279203Y-51898926D01*
X127276053Y-51877691D01*
X127275000Y-51856250D01*
X127275000Y-51343750D01*
X127276053Y-51322309D01*
X127279203Y-51301074D01*
X127284419Y-51280250D01*
X127291651Y-51260038D01*
X127300830Y-51240632D01*
X127311866Y-51222219D01*
X127324654Y-51204976D01*
X127339070Y-51189070D01*
X127354976Y-51174654D01*
X127372219Y-51161866D01*
X127390632Y-51150830D01*
X127410038Y-51141651D01*
X127430250Y-51134419D01*
X127451074Y-51129203D01*
X127472309Y-51126053D01*
X127493750Y-51125000D01*
X127931250Y-51125000D01*
X127952691Y-51126053D01*
X127952691Y-51126053D01*
G37*
D14*
G04 #@! TD*
G04 #@! TO.P,D4,2*
G04 #@! TO.N,Net-(D10-Pad1)*
X127712500Y-51600000D03*
D13*
G04 #@! TO.N,Net-(D13-Pad2)*
G04 #@! TO.C,D4*
G36*
X129527691Y-51126053D02*
X129548926Y-51129203D01*
X129569750Y-51134419D01*
X129589962Y-51141651D01*
X129609368Y-51150830D01*
X129627781Y-51161866D01*
X129645024Y-51174654D01*
X129660930Y-51189070D01*
X129675346Y-51204976D01*
X129688134Y-51222219D01*
X129699170Y-51240632D01*
X129708349Y-51260038D01*
X129715581Y-51280250D01*
X129720797Y-51301074D01*
X129723947Y-51322309D01*
X129725000Y-51343750D01*
X129725000Y-51856250D01*
X129723947Y-51877691D01*
X129720797Y-51898926D01*
X129715581Y-51919750D01*
X129708349Y-51939962D01*
X129699170Y-51959368D01*
X129688134Y-51977781D01*
X129675346Y-51995024D01*
X129660930Y-52010930D01*
X129645024Y-52025346D01*
X129627781Y-52038134D01*
X129609368Y-52049170D01*
X129589962Y-52058349D01*
X129569750Y-52065581D01*
X129548926Y-52070797D01*
X129527691Y-52073947D01*
X129506250Y-52075000D01*
X129068750Y-52075000D01*
X129047309Y-52073947D01*
X129026074Y-52070797D01*
X129005250Y-52065581D01*
X128985038Y-52058349D01*
X128965632Y-52049170D01*
X128947219Y-52038134D01*
X128929976Y-52025346D01*
X128914070Y-52010930D01*
X128899654Y-51995024D01*
X128886866Y-51977781D01*
X128875830Y-51959368D01*
X128866651Y-51939962D01*
X128859419Y-51919750D01*
X128854203Y-51898926D01*
X128851053Y-51877691D01*
X128850000Y-51856250D01*
X128850000Y-51343750D01*
X128851053Y-51322309D01*
X128854203Y-51301074D01*
X128859419Y-51280250D01*
X128866651Y-51260038D01*
X128875830Y-51240632D01*
X128886866Y-51222219D01*
X128899654Y-51204976D01*
X128914070Y-51189070D01*
X128929976Y-51174654D01*
X128947219Y-51161866D01*
X128965632Y-51150830D01*
X128985038Y-51141651D01*
X129005250Y-51134419D01*
X129026074Y-51129203D01*
X129047309Y-51126053D01*
X129068750Y-51125000D01*
X129506250Y-51125000D01*
X129527691Y-51126053D01*
X129527691Y-51126053D01*
G37*
D14*
G04 #@! TD*
G04 #@! TO.P,D4,1*
G04 #@! TO.N,Net-(D13-Pad2)*
X129287500Y-51600000D03*
D13*
G04 #@! TO.N,Net-(D1-Pad2)*
G04 #@! TO.C,D5*
G36*
X141252691Y-49626053D02*
X141273926Y-49629203D01*
X141294750Y-49634419D01*
X141314962Y-49641651D01*
X141334368Y-49650830D01*
X141352781Y-49661866D01*
X141370024Y-49674654D01*
X141385930Y-49689070D01*
X141400346Y-49704976D01*
X141413134Y-49722219D01*
X141424170Y-49740632D01*
X141433349Y-49760038D01*
X141440581Y-49780250D01*
X141445797Y-49801074D01*
X141448947Y-49822309D01*
X141450000Y-49843750D01*
X141450000Y-50356250D01*
X141448947Y-50377691D01*
X141445797Y-50398926D01*
X141440581Y-50419750D01*
X141433349Y-50439962D01*
X141424170Y-50459368D01*
X141413134Y-50477781D01*
X141400346Y-50495024D01*
X141385930Y-50510930D01*
X141370024Y-50525346D01*
X141352781Y-50538134D01*
X141334368Y-50549170D01*
X141314962Y-50558349D01*
X141294750Y-50565581D01*
X141273926Y-50570797D01*
X141252691Y-50573947D01*
X141231250Y-50575000D01*
X140793750Y-50575000D01*
X140772309Y-50573947D01*
X140751074Y-50570797D01*
X140730250Y-50565581D01*
X140710038Y-50558349D01*
X140690632Y-50549170D01*
X140672219Y-50538134D01*
X140654976Y-50525346D01*
X140639070Y-50510930D01*
X140624654Y-50495024D01*
X140611866Y-50477781D01*
X140600830Y-50459368D01*
X140591651Y-50439962D01*
X140584419Y-50419750D01*
X140579203Y-50398926D01*
X140576053Y-50377691D01*
X140575000Y-50356250D01*
X140575000Y-49843750D01*
X140576053Y-49822309D01*
X140579203Y-49801074D01*
X140584419Y-49780250D01*
X140591651Y-49760038D01*
X140600830Y-49740632D01*
X140611866Y-49722219D01*
X140624654Y-49704976D01*
X140639070Y-49689070D01*
X140654976Y-49674654D01*
X140672219Y-49661866D01*
X140690632Y-49650830D01*
X140710038Y-49641651D01*
X140730250Y-49634419D01*
X140751074Y-49629203D01*
X140772309Y-49626053D01*
X140793750Y-49625000D01*
X141231250Y-49625000D01*
X141252691Y-49626053D01*
X141252691Y-49626053D01*
G37*
D14*
G04 #@! TD*
G04 #@! TO.P,D5,1*
G04 #@! TO.N,Net-(D1-Pad2)*
X141012500Y-50100000D03*
D13*
G04 #@! TO.N,Net-(D10-Pad1)*
G04 #@! TO.C,D5*
G36*
X142827691Y-49626053D02*
X142848926Y-49629203D01*
X142869750Y-49634419D01*
X142889962Y-49641651D01*
X142909368Y-49650830D01*
X142927781Y-49661866D01*
X142945024Y-49674654D01*
X142960930Y-49689070D01*
X142975346Y-49704976D01*
X142988134Y-49722219D01*
X142999170Y-49740632D01*
X143008349Y-49760038D01*
X143015581Y-49780250D01*
X143020797Y-49801074D01*
X143023947Y-49822309D01*
X143025000Y-49843750D01*
X143025000Y-50356250D01*
X143023947Y-50377691D01*
X143020797Y-50398926D01*
X143015581Y-50419750D01*
X143008349Y-50439962D01*
X142999170Y-50459368D01*
X142988134Y-50477781D01*
X142975346Y-50495024D01*
X142960930Y-50510930D01*
X142945024Y-50525346D01*
X142927781Y-50538134D01*
X142909368Y-50549170D01*
X142889962Y-50558349D01*
X142869750Y-50565581D01*
X142848926Y-50570797D01*
X142827691Y-50573947D01*
X142806250Y-50575000D01*
X142368750Y-50575000D01*
X142347309Y-50573947D01*
X142326074Y-50570797D01*
X142305250Y-50565581D01*
X142285038Y-50558349D01*
X142265632Y-50549170D01*
X142247219Y-50538134D01*
X142229976Y-50525346D01*
X142214070Y-50510930D01*
X142199654Y-50495024D01*
X142186866Y-50477781D01*
X142175830Y-50459368D01*
X142166651Y-50439962D01*
X142159419Y-50419750D01*
X142154203Y-50398926D01*
X142151053Y-50377691D01*
X142150000Y-50356250D01*
X142150000Y-49843750D01*
X142151053Y-49822309D01*
X142154203Y-49801074D01*
X142159419Y-49780250D01*
X142166651Y-49760038D01*
X142175830Y-49740632D01*
X142186866Y-49722219D01*
X142199654Y-49704976D01*
X142214070Y-49689070D01*
X142229976Y-49674654D01*
X142247219Y-49661866D01*
X142265632Y-49650830D01*
X142285038Y-49641651D01*
X142305250Y-49634419D01*
X142326074Y-49629203D01*
X142347309Y-49626053D01*
X142368750Y-49625000D01*
X142806250Y-49625000D01*
X142827691Y-49626053D01*
X142827691Y-49626053D01*
G37*
D14*
G04 #@! TD*
G04 #@! TO.P,D5,2*
G04 #@! TO.N,Net-(D10-Pad1)*
X142587500Y-50100000D03*
D13*
G04 #@! TO.N,Net-(D13-Pad2)*
G04 #@! TO.C,D6*
G36*
X141552691Y-62326053D02*
X141573926Y-62329203D01*
X141594750Y-62334419D01*
X141614962Y-62341651D01*
X141634368Y-62350830D01*
X141652781Y-62361866D01*
X141670024Y-62374654D01*
X141685930Y-62389070D01*
X141700346Y-62404976D01*
X141713134Y-62422219D01*
X141724170Y-62440632D01*
X141733349Y-62460038D01*
X141740581Y-62480250D01*
X141745797Y-62501074D01*
X141748947Y-62522309D01*
X141750000Y-62543750D01*
X141750000Y-63056250D01*
X141748947Y-63077691D01*
X141745797Y-63098926D01*
X141740581Y-63119750D01*
X141733349Y-63139962D01*
X141724170Y-63159368D01*
X141713134Y-63177781D01*
X141700346Y-63195024D01*
X141685930Y-63210930D01*
X141670024Y-63225346D01*
X141652781Y-63238134D01*
X141634368Y-63249170D01*
X141614962Y-63258349D01*
X141594750Y-63265581D01*
X141573926Y-63270797D01*
X141552691Y-63273947D01*
X141531250Y-63275000D01*
X141093750Y-63275000D01*
X141072309Y-63273947D01*
X141051074Y-63270797D01*
X141030250Y-63265581D01*
X141010038Y-63258349D01*
X140990632Y-63249170D01*
X140972219Y-63238134D01*
X140954976Y-63225346D01*
X140939070Y-63210930D01*
X140924654Y-63195024D01*
X140911866Y-63177781D01*
X140900830Y-63159368D01*
X140891651Y-63139962D01*
X140884419Y-63119750D01*
X140879203Y-63098926D01*
X140876053Y-63077691D01*
X140875000Y-63056250D01*
X140875000Y-62543750D01*
X140876053Y-62522309D01*
X140879203Y-62501074D01*
X140884419Y-62480250D01*
X140891651Y-62460038D01*
X140900830Y-62440632D01*
X140911866Y-62422219D01*
X140924654Y-62404976D01*
X140939070Y-62389070D01*
X140954976Y-62374654D01*
X140972219Y-62361866D01*
X140990632Y-62350830D01*
X141010038Y-62341651D01*
X141030250Y-62334419D01*
X141051074Y-62329203D01*
X141072309Y-62326053D01*
X141093750Y-62325000D01*
X141531250Y-62325000D01*
X141552691Y-62326053D01*
X141552691Y-62326053D01*
G37*
D14*
G04 #@! TD*
G04 #@! TO.P,D6,1*
G04 #@! TO.N,Net-(D13-Pad2)*
X141312500Y-62800000D03*
D13*
G04 #@! TO.N,Net-(D11-Pad2)*
G04 #@! TO.C,D6*
G36*
X143127691Y-62326053D02*
X143148926Y-62329203D01*
X143169750Y-62334419D01*
X143189962Y-62341651D01*
X143209368Y-62350830D01*
X143227781Y-62361866D01*
X143245024Y-62374654D01*
X143260930Y-62389070D01*
X143275346Y-62404976D01*
X143288134Y-62422219D01*
X143299170Y-62440632D01*
X143308349Y-62460038D01*
X143315581Y-62480250D01*
X143320797Y-62501074D01*
X143323947Y-62522309D01*
X143325000Y-62543750D01*
X143325000Y-63056250D01*
X143323947Y-63077691D01*
X143320797Y-63098926D01*
X143315581Y-63119750D01*
X143308349Y-63139962D01*
X143299170Y-63159368D01*
X143288134Y-63177781D01*
X143275346Y-63195024D01*
X143260930Y-63210930D01*
X143245024Y-63225346D01*
X143227781Y-63238134D01*
X143209368Y-63249170D01*
X143189962Y-63258349D01*
X143169750Y-63265581D01*
X143148926Y-63270797D01*
X143127691Y-63273947D01*
X143106250Y-63275000D01*
X142668750Y-63275000D01*
X142647309Y-63273947D01*
X142626074Y-63270797D01*
X142605250Y-63265581D01*
X142585038Y-63258349D01*
X142565632Y-63249170D01*
X142547219Y-63238134D01*
X142529976Y-63225346D01*
X142514070Y-63210930D01*
X142499654Y-63195024D01*
X142486866Y-63177781D01*
X142475830Y-63159368D01*
X142466651Y-63139962D01*
X142459419Y-63119750D01*
X142454203Y-63098926D01*
X142451053Y-63077691D01*
X142450000Y-63056250D01*
X142450000Y-62543750D01*
X142451053Y-62522309D01*
X142454203Y-62501074D01*
X142459419Y-62480250D01*
X142466651Y-62460038D01*
X142475830Y-62440632D01*
X142486866Y-62422219D01*
X142499654Y-62404976D01*
X142514070Y-62389070D01*
X142529976Y-62374654D01*
X142547219Y-62361866D01*
X142565632Y-62350830D01*
X142585038Y-62341651D01*
X142605250Y-62334419D01*
X142626074Y-62329203D01*
X142647309Y-62326053D01*
X142668750Y-62325000D01*
X143106250Y-62325000D01*
X143127691Y-62326053D01*
X143127691Y-62326053D01*
G37*
D14*
G04 #@! TD*
G04 #@! TO.P,D6,2*
G04 #@! TO.N,Net-(D11-Pad2)*
X142887500Y-62800000D03*
D13*
G04 #@! TO.N,Net-(D1-Pad2)*
G04 #@! TO.C,D7*
G36*
X141265191Y-51126053D02*
X141286426Y-51129203D01*
X141307250Y-51134419D01*
X141327462Y-51141651D01*
X141346868Y-51150830D01*
X141365281Y-51161866D01*
X141382524Y-51174654D01*
X141398430Y-51189070D01*
X141412846Y-51204976D01*
X141425634Y-51222219D01*
X141436670Y-51240632D01*
X141445849Y-51260038D01*
X141453081Y-51280250D01*
X141458297Y-51301074D01*
X141461447Y-51322309D01*
X141462500Y-51343750D01*
X141462500Y-51856250D01*
X141461447Y-51877691D01*
X141458297Y-51898926D01*
X141453081Y-51919750D01*
X141445849Y-51939962D01*
X141436670Y-51959368D01*
X141425634Y-51977781D01*
X141412846Y-51995024D01*
X141398430Y-52010930D01*
X141382524Y-52025346D01*
X141365281Y-52038134D01*
X141346868Y-52049170D01*
X141327462Y-52058349D01*
X141307250Y-52065581D01*
X141286426Y-52070797D01*
X141265191Y-52073947D01*
X141243750Y-52075000D01*
X140806250Y-52075000D01*
X140784809Y-52073947D01*
X140763574Y-52070797D01*
X140742750Y-52065581D01*
X140722538Y-52058349D01*
X140703132Y-52049170D01*
X140684719Y-52038134D01*
X140667476Y-52025346D01*
X140651570Y-52010930D01*
X140637154Y-51995024D01*
X140624366Y-51977781D01*
X140613330Y-51959368D01*
X140604151Y-51939962D01*
X140596919Y-51919750D01*
X140591703Y-51898926D01*
X140588553Y-51877691D01*
X140587500Y-51856250D01*
X140587500Y-51343750D01*
X140588553Y-51322309D01*
X140591703Y-51301074D01*
X140596919Y-51280250D01*
X140604151Y-51260038D01*
X140613330Y-51240632D01*
X140624366Y-51222219D01*
X140637154Y-51204976D01*
X140651570Y-51189070D01*
X140667476Y-51174654D01*
X140684719Y-51161866D01*
X140703132Y-51150830D01*
X140722538Y-51141651D01*
X140742750Y-51134419D01*
X140763574Y-51129203D01*
X140784809Y-51126053D01*
X140806250Y-51125000D01*
X141243750Y-51125000D01*
X141265191Y-51126053D01*
X141265191Y-51126053D01*
G37*
D14*
G04 #@! TD*
G04 #@! TO.P,D7,2*
G04 #@! TO.N,Net-(D1-Pad2)*
X141025000Y-51600000D03*
D13*
G04 #@! TO.N,Net-(D10-Pad1)*
G04 #@! TO.C,D7*
G36*
X142840191Y-51126053D02*
X142861426Y-51129203D01*
X142882250Y-51134419D01*
X142902462Y-51141651D01*
X142921868Y-51150830D01*
X142940281Y-51161866D01*
X142957524Y-51174654D01*
X142973430Y-51189070D01*
X142987846Y-51204976D01*
X143000634Y-51222219D01*
X143011670Y-51240632D01*
X143020849Y-51260038D01*
X143028081Y-51280250D01*
X143033297Y-51301074D01*
X143036447Y-51322309D01*
X143037500Y-51343750D01*
X143037500Y-51856250D01*
X143036447Y-51877691D01*
X143033297Y-51898926D01*
X143028081Y-51919750D01*
X143020849Y-51939962D01*
X143011670Y-51959368D01*
X143000634Y-51977781D01*
X142987846Y-51995024D01*
X142973430Y-52010930D01*
X142957524Y-52025346D01*
X142940281Y-52038134D01*
X142921868Y-52049170D01*
X142902462Y-52058349D01*
X142882250Y-52065581D01*
X142861426Y-52070797D01*
X142840191Y-52073947D01*
X142818750Y-52075000D01*
X142381250Y-52075000D01*
X142359809Y-52073947D01*
X142338574Y-52070797D01*
X142317750Y-52065581D01*
X142297538Y-52058349D01*
X142278132Y-52049170D01*
X142259719Y-52038134D01*
X142242476Y-52025346D01*
X142226570Y-52010930D01*
X142212154Y-51995024D01*
X142199366Y-51977781D01*
X142188330Y-51959368D01*
X142179151Y-51939962D01*
X142171919Y-51919750D01*
X142166703Y-51898926D01*
X142163553Y-51877691D01*
X142162500Y-51856250D01*
X142162500Y-51343750D01*
X142163553Y-51322309D01*
X142166703Y-51301074D01*
X142171919Y-51280250D01*
X142179151Y-51260038D01*
X142188330Y-51240632D01*
X142199366Y-51222219D01*
X142212154Y-51204976D01*
X142226570Y-51189070D01*
X142242476Y-51174654D01*
X142259719Y-51161866D01*
X142278132Y-51150830D01*
X142297538Y-51141651D01*
X142317750Y-51134419D01*
X142338574Y-51129203D01*
X142359809Y-51126053D01*
X142381250Y-51125000D01*
X142818750Y-51125000D01*
X142840191Y-51126053D01*
X142840191Y-51126053D01*
G37*
D14*
G04 #@! TD*
G04 #@! TO.P,D7,1*
G04 #@! TO.N,Net-(D10-Pad1)*
X142600000Y-51600000D03*
D13*
G04 #@! TO.N,Net-(D13-Pad2)*
G04 #@! TO.C,D8*
G36*
X141552691Y-63826053D02*
X141573926Y-63829203D01*
X141594750Y-63834419D01*
X141614962Y-63841651D01*
X141634368Y-63850830D01*
X141652781Y-63861866D01*
X141670024Y-63874654D01*
X141685930Y-63889070D01*
X141700346Y-63904976D01*
X141713134Y-63922219D01*
X141724170Y-63940632D01*
X141733349Y-63960038D01*
X141740581Y-63980250D01*
X141745797Y-64001074D01*
X141748947Y-64022309D01*
X141750000Y-64043750D01*
X141750000Y-64556250D01*
X141748947Y-64577691D01*
X141745797Y-64598926D01*
X141740581Y-64619750D01*
X141733349Y-64639962D01*
X141724170Y-64659368D01*
X141713134Y-64677781D01*
X141700346Y-64695024D01*
X141685930Y-64710930D01*
X141670024Y-64725346D01*
X141652781Y-64738134D01*
X141634368Y-64749170D01*
X141614962Y-64758349D01*
X141594750Y-64765581D01*
X141573926Y-64770797D01*
X141552691Y-64773947D01*
X141531250Y-64775000D01*
X141093750Y-64775000D01*
X141072309Y-64773947D01*
X141051074Y-64770797D01*
X141030250Y-64765581D01*
X141010038Y-64758349D01*
X140990632Y-64749170D01*
X140972219Y-64738134D01*
X140954976Y-64725346D01*
X140939070Y-64710930D01*
X140924654Y-64695024D01*
X140911866Y-64677781D01*
X140900830Y-64659368D01*
X140891651Y-64639962D01*
X140884419Y-64619750D01*
X140879203Y-64598926D01*
X140876053Y-64577691D01*
X140875000Y-64556250D01*
X140875000Y-64043750D01*
X140876053Y-64022309D01*
X140879203Y-64001074D01*
X140884419Y-63980250D01*
X140891651Y-63960038D01*
X140900830Y-63940632D01*
X140911866Y-63922219D01*
X140924654Y-63904976D01*
X140939070Y-63889070D01*
X140954976Y-63874654D01*
X140972219Y-63861866D01*
X140990632Y-63850830D01*
X141010038Y-63841651D01*
X141030250Y-63834419D01*
X141051074Y-63829203D01*
X141072309Y-63826053D01*
X141093750Y-63825000D01*
X141531250Y-63825000D01*
X141552691Y-63826053D01*
X141552691Y-63826053D01*
G37*
D14*
G04 #@! TD*
G04 #@! TO.P,D8,2*
G04 #@! TO.N,Net-(D13-Pad2)*
X141312500Y-64300000D03*
D13*
G04 #@! TO.N,Net-(D11-Pad2)*
G04 #@! TO.C,D8*
G36*
X143127691Y-63826053D02*
X143148926Y-63829203D01*
X143169750Y-63834419D01*
X143189962Y-63841651D01*
X143209368Y-63850830D01*
X143227781Y-63861866D01*
X143245024Y-63874654D01*
X143260930Y-63889070D01*
X143275346Y-63904976D01*
X143288134Y-63922219D01*
X143299170Y-63940632D01*
X143308349Y-63960038D01*
X143315581Y-63980250D01*
X143320797Y-64001074D01*
X143323947Y-64022309D01*
X143325000Y-64043750D01*
X143325000Y-64556250D01*
X143323947Y-64577691D01*
X143320797Y-64598926D01*
X143315581Y-64619750D01*
X143308349Y-64639962D01*
X143299170Y-64659368D01*
X143288134Y-64677781D01*
X143275346Y-64695024D01*
X143260930Y-64710930D01*
X143245024Y-64725346D01*
X143227781Y-64738134D01*
X143209368Y-64749170D01*
X143189962Y-64758349D01*
X143169750Y-64765581D01*
X143148926Y-64770797D01*
X143127691Y-64773947D01*
X143106250Y-64775000D01*
X142668750Y-64775000D01*
X142647309Y-64773947D01*
X142626074Y-64770797D01*
X142605250Y-64765581D01*
X142585038Y-64758349D01*
X142565632Y-64749170D01*
X142547219Y-64738134D01*
X142529976Y-64725346D01*
X142514070Y-64710930D01*
X142499654Y-64695024D01*
X142486866Y-64677781D01*
X142475830Y-64659368D01*
X142466651Y-64639962D01*
X142459419Y-64619750D01*
X142454203Y-64598926D01*
X142451053Y-64577691D01*
X142450000Y-64556250D01*
X142450000Y-64043750D01*
X142451053Y-64022309D01*
X142454203Y-64001074D01*
X142459419Y-63980250D01*
X142466651Y-63960038D01*
X142475830Y-63940632D01*
X142486866Y-63922219D01*
X142499654Y-63904976D01*
X142514070Y-63889070D01*
X142529976Y-63874654D01*
X142547219Y-63861866D01*
X142565632Y-63850830D01*
X142585038Y-63841651D01*
X142605250Y-63834419D01*
X142626074Y-63829203D01*
X142647309Y-63826053D01*
X142668750Y-63825000D01*
X143106250Y-63825000D01*
X143127691Y-63826053D01*
X143127691Y-63826053D01*
G37*
D14*
G04 #@! TD*
G04 #@! TO.P,D8,1*
G04 #@! TO.N,Net-(D11-Pad2)*
X142887500Y-64300000D03*
D13*
G04 #@! TO.N,Net-(D1-Pad1)*
G04 #@! TO.C,D9*
G36*
X127952691Y-62326053D02*
X127973926Y-62329203D01*
X127994750Y-62334419D01*
X128014962Y-62341651D01*
X128034368Y-62350830D01*
X128052781Y-62361866D01*
X128070024Y-62374654D01*
X128085930Y-62389070D01*
X128100346Y-62404976D01*
X128113134Y-62422219D01*
X128124170Y-62440632D01*
X128133349Y-62460038D01*
X128140581Y-62480250D01*
X128145797Y-62501074D01*
X128148947Y-62522309D01*
X128150000Y-62543750D01*
X128150000Y-63056250D01*
X128148947Y-63077691D01*
X128145797Y-63098926D01*
X128140581Y-63119750D01*
X128133349Y-63139962D01*
X128124170Y-63159368D01*
X128113134Y-63177781D01*
X128100346Y-63195024D01*
X128085930Y-63210930D01*
X128070024Y-63225346D01*
X128052781Y-63238134D01*
X128034368Y-63249170D01*
X128014962Y-63258349D01*
X127994750Y-63265581D01*
X127973926Y-63270797D01*
X127952691Y-63273947D01*
X127931250Y-63275000D01*
X127493750Y-63275000D01*
X127472309Y-63273947D01*
X127451074Y-63270797D01*
X127430250Y-63265581D01*
X127410038Y-63258349D01*
X127390632Y-63249170D01*
X127372219Y-63238134D01*
X127354976Y-63225346D01*
X127339070Y-63210930D01*
X127324654Y-63195024D01*
X127311866Y-63177781D01*
X127300830Y-63159368D01*
X127291651Y-63139962D01*
X127284419Y-63119750D01*
X127279203Y-63098926D01*
X127276053Y-63077691D01*
X127275000Y-63056250D01*
X127275000Y-62543750D01*
X127276053Y-62522309D01*
X127279203Y-62501074D01*
X127284419Y-62480250D01*
X127291651Y-62460038D01*
X127300830Y-62440632D01*
X127311866Y-62422219D01*
X127324654Y-62404976D01*
X127339070Y-62389070D01*
X127354976Y-62374654D01*
X127372219Y-62361866D01*
X127390632Y-62350830D01*
X127410038Y-62341651D01*
X127430250Y-62334419D01*
X127451074Y-62329203D01*
X127472309Y-62326053D01*
X127493750Y-62325000D01*
X127931250Y-62325000D01*
X127952691Y-62326053D01*
X127952691Y-62326053D01*
G37*
D14*
G04 #@! TD*
G04 #@! TO.P,D9,1*
G04 #@! TO.N,Net-(D1-Pad1)*
X127712500Y-62800000D03*
D13*
G04 #@! TO.N,Net-(D10-Pad1)*
G04 #@! TO.C,D9*
G36*
X129527691Y-62326053D02*
X129548926Y-62329203D01*
X129569750Y-62334419D01*
X129589962Y-62341651D01*
X129609368Y-62350830D01*
X129627781Y-62361866D01*
X129645024Y-62374654D01*
X129660930Y-62389070D01*
X129675346Y-62404976D01*
X129688134Y-62422219D01*
X129699170Y-62440632D01*
X129708349Y-62460038D01*
X129715581Y-62480250D01*
X129720797Y-62501074D01*
X129723947Y-62522309D01*
X129725000Y-62543750D01*
X129725000Y-63056250D01*
X129723947Y-63077691D01*
X129720797Y-63098926D01*
X129715581Y-63119750D01*
X129708349Y-63139962D01*
X129699170Y-63159368D01*
X129688134Y-63177781D01*
X129675346Y-63195024D01*
X129660930Y-63210930D01*
X129645024Y-63225346D01*
X129627781Y-63238134D01*
X129609368Y-63249170D01*
X129589962Y-63258349D01*
X129569750Y-63265581D01*
X129548926Y-63270797D01*
X129527691Y-63273947D01*
X129506250Y-63275000D01*
X129068750Y-63275000D01*
X129047309Y-63273947D01*
X129026074Y-63270797D01*
X129005250Y-63265581D01*
X128985038Y-63258349D01*
X128965632Y-63249170D01*
X128947219Y-63238134D01*
X128929976Y-63225346D01*
X128914070Y-63210930D01*
X128899654Y-63195024D01*
X128886866Y-63177781D01*
X128875830Y-63159368D01*
X128866651Y-63139962D01*
X128859419Y-63119750D01*
X128854203Y-63098926D01*
X128851053Y-63077691D01*
X128850000Y-63056250D01*
X128850000Y-62543750D01*
X128851053Y-62522309D01*
X128854203Y-62501074D01*
X128859419Y-62480250D01*
X128866651Y-62460038D01*
X128875830Y-62440632D01*
X128886866Y-62422219D01*
X128899654Y-62404976D01*
X128914070Y-62389070D01*
X128929976Y-62374654D01*
X128947219Y-62361866D01*
X128965632Y-62350830D01*
X128985038Y-62341651D01*
X129005250Y-62334419D01*
X129026074Y-62329203D01*
X129047309Y-62326053D01*
X129068750Y-62325000D01*
X129506250Y-62325000D01*
X129527691Y-62326053D01*
X129527691Y-62326053D01*
G37*
D14*
G04 #@! TD*
G04 #@! TO.P,D9,2*
G04 #@! TO.N,Net-(D10-Pad1)*
X129287500Y-62800000D03*
D13*
G04 #@! TO.N,Net-(D1-Pad1)*
G04 #@! TO.C,D10*
G36*
X127952691Y-63826053D02*
X127973926Y-63829203D01*
X127994750Y-63834419D01*
X128014962Y-63841651D01*
X128034368Y-63850830D01*
X128052781Y-63861866D01*
X128070024Y-63874654D01*
X128085930Y-63889070D01*
X128100346Y-63904976D01*
X128113134Y-63922219D01*
X128124170Y-63940632D01*
X128133349Y-63960038D01*
X128140581Y-63980250D01*
X128145797Y-64001074D01*
X128148947Y-64022309D01*
X128150000Y-64043750D01*
X128150000Y-64556250D01*
X128148947Y-64577691D01*
X128145797Y-64598926D01*
X128140581Y-64619750D01*
X128133349Y-64639962D01*
X128124170Y-64659368D01*
X128113134Y-64677781D01*
X128100346Y-64695024D01*
X128085930Y-64710930D01*
X128070024Y-64725346D01*
X128052781Y-64738134D01*
X128034368Y-64749170D01*
X128014962Y-64758349D01*
X127994750Y-64765581D01*
X127973926Y-64770797D01*
X127952691Y-64773947D01*
X127931250Y-64775000D01*
X127493750Y-64775000D01*
X127472309Y-64773947D01*
X127451074Y-64770797D01*
X127430250Y-64765581D01*
X127410038Y-64758349D01*
X127390632Y-64749170D01*
X127372219Y-64738134D01*
X127354976Y-64725346D01*
X127339070Y-64710930D01*
X127324654Y-64695024D01*
X127311866Y-64677781D01*
X127300830Y-64659368D01*
X127291651Y-64639962D01*
X127284419Y-64619750D01*
X127279203Y-64598926D01*
X127276053Y-64577691D01*
X127275000Y-64556250D01*
X127275000Y-64043750D01*
X127276053Y-64022309D01*
X127279203Y-64001074D01*
X127284419Y-63980250D01*
X127291651Y-63960038D01*
X127300830Y-63940632D01*
X127311866Y-63922219D01*
X127324654Y-63904976D01*
X127339070Y-63889070D01*
X127354976Y-63874654D01*
X127372219Y-63861866D01*
X127390632Y-63850830D01*
X127410038Y-63841651D01*
X127430250Y-63834419D01*
X127451074Y-63829203D01*
X127472309Y-63826053D01*
X127493750Y-63825000D01*
X127931250Y-63825000D01*
X127952691Y-63826053D01*
X127952691Y-63826053D01*
G37*
D14*
G04 #@! TD*
G04 #@! TO.P,D10,2*
G04 #@! TO.N,Net-(D1-Pad1)*
X127712500Y-64300000D03*
D13*
G04 #@! TO.N,Net-(D10-Pad1)*
G04 #@! TO.C,D10*
G36*
X129527691Y-63826053D02*
X129548926Y-63829203D01*
X129569750Y-63834419D01*
X129589962Y-63841651D01*
X129609368Y-63850830D01*
X129627781Y-63861866D01*
X129645024Y-63874654D01*
X129660930Y-63889070D01*
X129675346Y-63904976D01*
X129688134Y-63922219D01*
X129699170Y-63940632D01*
X129708349Y-63960038D01*
X129715581Y-63980250D01*
X129720797Y-64001074D01*
X129723947Y-64022309D01*
X129725000Y-64043750D01*
X129725000Y-64556250D01*
X129723947Y-64577691D01*
X129720797Y-64598926D01*
X129715581Y-64619750D01*
X129708349Y-64639962D01*
X129699170Y-64659368D01*
X129688134Y-64677781D01*
X129675346Y-64695024D01*
X129660930Y-64710930D01*
X129645024Y-64725346D01*
X129627781Y-64738134D01*
X129609368Y-64749170D01*
X129589962Y-64758349D01*
X129569750Y-64765581D01*
X129548926Y-64770797D01*
X129527691Y-64773947D01*
X129506250Y-64775000D01*
X129068750Y-64775000D01*
X129047309Y-64773947D01*
X129026074Y-64770797D01*
X129005250Y-64765581D01*
X128985038Y-64758349D01*
X128965632Y-64749170D01*
X128947219Y-64738134D01*
X128929976Y-64725346D01*
X128914070Y-64710930D01*
X128899654Y-64695024D01*
X128886866Y-64677781D01*
X128875830Y-64659368D01*
X128866651Y-64639962D01*
X128859419Y-64619750D01*
X128854203Y-64598926D01*
X128851053Y-64577691D01*
X128850000Y-64556250D01*
X128850000Y-64043750D01*
X128851053Y-64022309D01*
X128854203Y-64001074D01*
X128859419Y-63980250D01*
X128866651Y-63960038D01*
X128875830Y-63940632D01*
X128886866Y-63922219D01*
X128899654Y-63904976D01*
X128914070Y-63889070D01*
X128929976Y-63874654D01*
X128947219Y-63861866D01*
X128965632Y-63850830D01*
X128985038Y-63841651D01*
X129005250Y-63834419D01*
X129026074Y-63829203D01*
X129047309Y-63826053D01*
X129068750Y-63825000D01*
X129506250Y-63825000D01*
X129527691Y-63826053D01*
X129527691Y-63826053D01*
G37*
D14*
G04 #@! TD*
G04 #@! TO.P,D10,1*
G04 #@! TO.N,Net-(D10-Pad1)*
X129287500Y-64300000D03*
D13*
G04 #@! TO.N,Net-(D11-Pad2)*
G04 #@! TO.C,D11*
G36*
X116327691Y-62126053D02*
X116348926Y-62129203D01*
X116369750Y-62134419D01*
X116389962Y-62141651D01*
X116409368Y-62150830D01*
X116427781Y-62161866D01*
X116445024Y-62174654D01*
X116460930Y-62189070D01*
X116475346Y-62204976D01*
X116488134Y-62222219D01*
X116499170Y-62240632D01*
X116508349Y-62260038D01*
X116515581Y-62280250D01*
X116520797Y-62301074D01*
X116523947Y-62322309D01*
X116525000Y-62343750D01*
X116525000Y-62856250D01*
X116523947Y-62877691D01*
X116520797Y-62898926D01*
X116515581Y-62919750D01*
X116508349Y-62939962D01*
X116499170Y-62959368D01*
X116488134Y-62977781D01*
X116475346Y-62995024D01*
X116460930Y-63010930D01*
X116445024Y-63025346D01*
X116427781Y-63038134D01*
X116409368Y-63049170D01*
X116389962Y-63058349D01*
X116369750Y-63065581D01*
X116348926Y-63070797D01*
X116327691Y-63073947D01*
X116306250Y-63075000D01*
X115868750Y-63075000D01*
X115847309Y-63073947D01*
X115826074Y-63070797D01*
X115805250Y-63065581D01*
X115785038Y-63058349D01*
X115765632Y-63049170D01*
X115747219Y-63038134D01*
X115729976Y-63025346D01*
X115714070Y-63010930D01*
X115699654Y-62995024D01*
X115686866Y-62977781D01*
X115675830Y-62959368D01*
X115666651Y-62939962D01*
X115659419Y-62919750D01*
X115654203Y-62898926D01*
X115651053Y-62877691D01*
X115650000Y-62856250D01*
X115650000Y-62343750D01*
X115651053Y-62322309D01*
X115654203Y-62301074D01*
X115659419Y-62280250D01*
X115666651Y-62260038D01*
X115675830Y-62240632D01*
X115686866Y-62222219D01*
X115699654Y-62204976D01*
X115714070Y-62189070D01*
X115729976Y-62174654D01*
X115747219Y-62161866D01*
X115765632Y-62150830D01*
X115785038Y-62141651D01*
X115805250Y-62134419D01*
X115826074Y-62129203D01*
X115847309Y-62126053D01*
X115868750Y-62125000D01*
X116306250Y-62125000D01*
X116327691Y-62126053D01*
X116327691Y-62126053D01*
G37*
D14*
G04 #@! TD*
G04 #@! TO.P,D11,2*
G04 #@! TO.N,Net-(D11-Pad2)*
X116087500Y-62600000D03*
D13*
G04 #@! TO.N,Net-(D10-Pad1)*
G04 #@! TO.C,D11*
G36*
X114752691Y-62126053D02*
X114773926Y-62129203D01*
X114794750Y-62134419D01*
X114814962Y-62141651D01*
X114834368Y-62150830D01*
X114852781Y-62161866D01*
X114870024Y-62174654D01*
X114885930Y-62189070D01*
X114900346Y-62204976D01*
X114913134Y-62222219D01*
X114924170Y-62240632D01*
X114933349Y-62260038D01*
X114940581Y-62280250D01*
X114945797Y-62301074D01*
X114948947Y-62322309D01*
X114950000Y-62343750D01*
X114950000Y-62856250D01*
X114948947Y-62877691D01*
X114945797Y-62898926D01*
X114940581Y-62919750D01*
X114933349Y-62939962D01*
X114924170Y-62959368D01*
X114913134Y-62977781D01*
X114900346Y-62995024D01*
X114885930Y-63010930D01*
X114870024Y-63025346D01*
X114852781Y-63038134D01*
X114834368Y-63049170D01*
X114814962Y-63058349D01*
X114794750Y-63065581D01*
X114773926Y-63070797D01*
X114752691Y-63073947D01*
X114731250Y-63075000D01*
X114293750Y-63075000D01*
X114272309Y-63073947D01*
X114251074Y-63070797D01*
X114230250Y-63065581D01*
X114210038Y-63058349D01*
X114190632Y-63049170D01*
X114172219Y-63038134D01*
X114154976Y-63025346D01*
X114139070Y-63010930D01*
X114124654Y-62995024D01*
X114111866Y-62977781D01*
X114100830Y-62959368D01*
X114091651Y-62939962D01*
X114084419Y-62919750D01*
X114079203Y-62898926D01*
X114076053Y-62877691D01*
X114075000Y-62856250D01*
X114075000Y-62343750D01*
X114076053Y-62322309D01*
X114079203Y-62301074D01*
X114084419Y-62280250D01*
X114091651Y-62260038D01*
X114100830Y-62240632D01*
X114111866Y-62222219D01*
X114124654Y-62204976D01*
X114139070Y-62189070D01*
X114154976Y-62174654D01*
X114172219Y-62161866D01*
X114190632Y-62150830D01*
X114210038Y-62141651D01*
X114230250Y-62134419D01*
X114251074Y-62129203D01*
X114272309Y-62126053D01*
X114293750Y-62125000D01*
X114731250Y-62125000D01*
X114752691Y-62126053D01*
X114752691Y-62126053D01*
G37*
D14*
G04 #@! TD*
G04 #@! TO.P,D11,1*
G04 #@! TO.N,Net-(D10-Pad1)*
X114512500Y-62600000D03*
D13*
G04 #@! TO.N,Net-(D11-Pad2)*
G04 #@! TO.C,D12*
G36*
X116327691Y-63626053D02*
X116348926Y-63629203D01*
X116369750Y-63634419D01*
X116389962Y-63641651D01*
X116409368Y-63650830D01*
X116427781Y-63661866D01*
X116445024Y-63674654D01*
X116460930Y-63689070D01*
X116475346Y-63704976D01*
X116488134Y-63722219D01*
X116499170Y-63740632D01*
X116508349Y-63760038D01*
X116515581Y-63780250D01*
X116520797Y-63801074D01*
X116523947Y-63822309D01*
X116525000Y-63843750D01*
X116525000Y-64356250D01*
X116523947Y-64377691D01*
X116520797Y-64398926D01*
X116515581Y-64419750D01*
X116508349Y-64439962D01*
X116499170Y-64459368D01*
X116488134Y-64477781D01*
X116475346Y-64495024D01*
X116460930Y-64510930D01*
X116445024Y-64525346D01*
X116427781Y-64538134D01*
X116409368Y-64549170D01*
X116389962Y-64558349D01*
X116369750Y-64565581D01*
X116348926Y-64570797D01*
X116327691Y-64573947D01*
X116306250Y-64575000D01*
X115868750Y-64575000D01*
X115847309Y-64573947D01*
X115826074Y-64570797D01*
X115805250Y-64565581D01*
X115785038Y-64558349D01*
X115765632Y-64549170D01*
X115747219Y-64538134D01*
X115729976Y-64525346D01*
X115714070Y-64510930D01*
X115699654Y-64495024D01*
X115686866Y-64477781D01*
X115675830Y-64459368D01*
X115666651Y-64439962D01*
X115659419Y-64419750D01*
X115654203Y-64398926D01*
X115651053Y-64377691D01*
X115650000Y-64356250D01*
X115650000Y-63843750D01*
X115651053Y-63822309D01*
X115654203Y-63801074D01*
X115659419Y-63780250D01*
X115666651Y-63760038D01*
X115675830Y-63740632D01*
X115686866Y-63722219D01*
X115699654Y-63704976D01*
X115714070Y-63689070D01*
X115729976Y-63674654D01*
X115747219Y-63661866D01*
X115765632Y-63650830D01*
X115785038Y-63641651D01*
X115805250Y-63634419D01*
X115826074Y-63629203D01*
X115847309Y-63626053D01*
X115868750Y-63625000D01*
X116306250Y-63625000D01*
X116327691Y-63626053D01*
X116327691Y-63626053D01*
G37*
D14*
G04 #@! TD*
G04 #@! TO.P,D12,1*
G04 #@! TO.N,Net-(D11-Pad2)*
X116087500Y-64100000D03*
D13*
G04 #@! TO.N,Net-(D10-Pad1)*
G04 #@! TO.C,D12*
G36*
X114752691Y-63626053D02*
X114773926Y-63629203D01*
X114794750Y-63634419D01*
X114814962Y-63641651D01*
X114834368Y-63650830D01*
X114852781Y-63661866D01*
X114870024Y-63674654D01*
X114885930Y-63689070D01*
X114900346Y-63704976D01*
X114913134Y-63722219D01*
X114924170Y-63740632D01*
X114933349Y-63760038D01*
X114940581Y-63780250D01*
X114945797Y-63801074D01*
X114948947Y-63822309D01*
X114950000Y-63843750D01*
X114950000Y-64356250D01*
X114948947Y-64377691D01*
X114945797Y-64398926D01*
X114940581Y-64419750D01*
X114933349Y-64439962D01*
X114924170Y-64459368D01*
X114913134Y-64477781D01*
X114900346Y-64495024D01*
X114885930Y-64510930D01*
X114870024Y-64525346D01*
X114852781Y-64538134D01*
X114834368Y-64549170D01*
X114814962Y-64558349D01*
X114794750Y-64565581D01*
X114773926Y-64570797D01*
X114752691Y-64573947D01*
X114731250Y-64575000D01*
X114293750Y-64575000D01*
X114272309Y-64573947D01*
X114251074Y-64570797D01*
X114230250Y-64565581D01*
X114210038Y-64558349D01*
X114190632Y-64549170D01*
X114172219Y-64538134D01*
X114154976Y-64525346D01*
X114139070Y-64510930D01*
X114124654Y-64495024D01*
X114111866Y-64477781D01*
X114100830Y-64459368D01*
X114091651Y-64439962D01*
X114084419Y-64419750D01*
X114079203Y-64398926D01*
X114076053Y-64377691D01*
X114075000Y-64356250D01*
X114075000Y-63843750D01*
X114076053Y-63822309D01*
X114079203Y-63801074D01*
X114084419Y-63780250D01*
X114091651Y-63760038D01*
X114100830Y-63740632D01*
X114111866Y-63722219D01*
X114124654Y-63704976D01*
X114139070Y-63689070D01*
X114154976Y-63674654D01*
X114172219Y-63661866D01*
X114190632Y-63650830D01*
X114210038Y-63641651D01*
X114230250Y-63634419D01*
X114251074Y-63629203D01*
X114272309Y-63626053D01*
X114293750Y-63625000D01*
X114731250Y-63625000D01*
X114752691Y-63626053D01*
X114752691Y-63626053D01*
G37*
D14*
G04 #@! TD*
G04 #@! TO.P,D12,2*
G04 #@! TO.N,Net-(D10-Pad1)*
X114512500Y-64100000D03*
D13*
G04 #@! TO.N,Net-(D13-Pad2)*
G04 #@! TO.C,D13*
G36*
X116327691Y-75126053D02*
X116348926Y-75129203D01*
X116369750Y-75134419D01*
X116389962Y-75141651D01*
X116409368Y-75150830D01*
X116427781Y-75161866D01*
X116445024Y-75174654D01*
X116460930Y-75189070D01*
X116475346Y-75204976D01*
X116488134Y-75222219D01*
X116499170Y-75240632D01*
X116508349Y-75260038D01*
X116515581Y-75280250D01*
X116520797Y-75301074D01*
X116523947Y-75322309D01*
X116525000Y-75343750D01*
X116525000Y-75856250D01*
X116523947Y-75877691D01*
X116520797Y-75898926D01*
X116515581Y-75919750D01*
X116508349Y-75939962D01*
X116499170Y-75959368D01*
X116488134Y-75977781D01*
X116475346Y-75995024D01*
X116460930Y-76010930D01*
X116445024Y-76025346D01*
X116427781Y-76038134D01*
X116409368Y-76049170D01*
X116389962Y-76058349D01*
X116369750Y-76065581D01*
X116348926Y-76070797D01*
X116327691Y-76073947D01*
X116306250Y-76075000D01*
X115868750Y-76075000D01*
X115847309Y-76073947D01*
X115826074Y-76070797D01*
X115805250Y-76065581D01*
X115785038Y-76058349D01*
X115765632Y-76049170D01*
X115747219Y-76038134D01*
X115729976Y-76025346D01*
X115714070Y-76010930D01*
X115699654Y-75995024D01*
X115686866Y-75977781D01*
X115675830Y-75959368D01*
X115666651Y-75939962D01*
X115659419Y-75919750D01*
X115654203Y-75898926D01*
X115651053Y-75877691D01*
X115650000Y-75856250D01*
X115650000Y-75343750D01*
X115651053Y-75322309D01*
X115654203Y-75301074D01*
X115659419Y-75280250D01*
X115666651Y-75260038D01*
X115675830Y-75240632D01*
X115686866Y-75222219D01*
X115699654Y-75204976D01*
X115714070Y-75189070D01*
X115729976Y-75174654D01*
X115747219Y-75161866D01*
X115765632Y-75150830D01*
X115785038Y-75141651D01*
X115805250Y-75134419D01*
X115826074Y-75129203D01*
X115847309Y-75126053D01*
X115868750Y-75125000D01*
X116306250Y-75125000D01*
X116327691Y-75126053D01*
X116327691Y-75126053D01*
G37*
D14*
G04 #@! TD*
G04 #@! TO.P,D13,2*
G04 #@! TO.N,Net-(D13-Pad2)*
X116087500Y-75600000D03*
D13*
G04 #@! TO.N,Net-(D1-Pad2)*
G04 #@! TO.C,D13*
G36*
X114752691Y-75126053D02*
X114773926Y-75129203D01*
X114794750Y-75134419D01*
X114814962Y-75141651D01*
X114834368Y-75150830D01*
X114852781Y-75161866D01*
X114870024Y-75174654D01*
X114885930Y-75189070D01*
X114900346Y-75204976D01*
X114913134Y-75222219D01*
X114924170Y-75240632D01*
X114933349Y-75260038D01*
X114940581Y-75280250D01*
X114945797Y-75301074D01*
X114948947Y-75322309D01*
X114950000Y-75343750D01*
X114950000Y-75856250D01*
X114948947Y-75877691D01*
X114945797Y-75898926D01*
X114940581Y-75919750D01*
X114933349Y-75939962D01*
X114924170Y-75959368D01*
X114913134Y-75977781D01*
X114900346Y-75995024D01*
X114885930Y-76010930D01*
X114870024Y-76025346D01*
X114852781Y-76038134D01*
X114834368Y-76049170D01*
X114814962Y-76058349D01*
X114794750Y-76065581D01*
X114773926Y-76070797D01*
X114752691Y-76073947D01*
X114731250Y-76075000D01*
X114293750Y-76075000D01*
X114272309Y-76073947D01*
X114251074Y-76070797D01*
X114230250Y-76065581D01*
X114210038Y-76058349D01*
X114190632Y-76049170D01*
X114172219Y-76038134D01*
X114154976Y-76025346D01*
X114139070Y-76010930D01*
X114124654Y-75995024D01*
X114111866Y-75977781D01*
X114100830Y-75959368D01*
X114091651Y-75939962D01*
X114084419Y-75919750D01*
X114079203Y-75898926D01*
X114076053Y-75877691D01*
X114075000Y-75856250D01*
X114075000Y-75343750D01*
X114076053Y-75322309D01*
X114079203Y-75301074D01*
X114084419Y-75280250D01*
X114091651Y-75260038D01*
X114100830Y-75240632D01*
X114111866Y-75222219D01*
X114124654Y-75204976D01*
X114139070Y-75189070D01*
X114154976Y-75174654D01*
X114172219Y-75161866D01*
X114190632Y-75150830D01*
X114210038Y-75141651D01*
X114230250Y-75134419D01*
X114251074Y-75129203D01*
X114272309Y-75126053D01*
X114293750Y-75125000D01*
X114731250Y-75125000D01*
X114752691Y-75126053D01*
X114752691Y-75126053D01*
G37*
D14*
G04 #@! TD*
G04 #@! TO.P,D13,1*
G04 #@! TO.N,Net-(D1-Pad2)*
X114512500Y-75600000D03*
D13*
G04 #@! TO.N,Net-(D13-Pad2)*
G04 #@! TO.C,D14*
G36*
X116327691Y-76626053D02*
X116348926Y-76629203D01*
X116369750Y-76634419D01*
X116389962Y-76641651D01*
X116409368Y-76650830D01*
X116427781Y-76661866D01*
X116445024Y-76674654D01*
X116460930Y-76689070D01*
X116475346Y-76704976D01*
X116488134Y-76722219D01*
X116499170Y-76740632D01*
X116508349Y-76760038D01*
X116515581Y-76780250D01*
X116520797Y-76801074D01*
X116523947Y-76822309D01*
X116525000Y-76843750D01*
X116525000Y-77356250D01*
X116523947Y-77377691D01*
X116520797Y-77398926D01*
X116515581Y-77419750D01*
X116508349Y-77439962D01*
X116499170Y-77459368D01*
X116488134Y-77477781D01*
X116475346Y-77495024D01*
X116460930Y-77510930D01*
X116445024Y-77525346D01*
X116427781Y-77538134D01*
X116409368Y-77549170D01*
X116389962Y-77558349D01*
X116369750Y-77565581D01*
X116348926Y-77570797D01*
X116327691Y-77573947D01*
X116306250Y-77575000D01*
X115868750Y-77575000D01*
X115847309Y-77573947D01*
X115826074Y-77570797D01*
X115805250Y-77565581D01*
X115785038Y-77558349D01*
X115765632Y-77549170D01*
X115747219Y-77538134D01*
X115729976Y-77525346D01*
X115714070Y-77510930D01*
X115699654Y-77495024D01*
X115686866Y-77477781D01*
X115675830Y-77459368D01*
X115666651Y-77439962D01*
X115659419Y-77419750D01*
X115654203Y-77398926D01*
X115651053Y-77377691D01*
X115650000Y-77356250D01*
X115650000Y-76843750D01*
X115651053Y-76822309D01*
X115654203Y-76801074D01*
X115659419Y-76780250D01*
X115666651Y-76760038D01*
X115675830Y-76740632D01*
X115686866Y-76722219D01*
X115699654Y-76704976D01*
X115714070Y-76689070D01*
X115729976Y-76674654D01*
X115747219Y-76661866D01*
X115765632Y-76650830D01*
X115785038Y-76641651D01*
X115805250Y-76634419D01*
X115826074Y-76629203D01*
X115847309Y-76626053D01*
X115868750Y-76625000D01*
X116306250Y-76625000D01*
X116327691Y-76626053D01*
X116327691Y-76626053D01*
G37*
D14*
G04 #@! TD*
G04 #@! TO.P,D14,1*
G04 #@! TO.N,Net-(D13-Pad2)*
X116087500Y-77100000D03*
D13*
G04 #@! TO.N,Net-(D1-Pad2)*
G04 #@! TO.C,D14*
G36*
X114752691Y-76626053D02*
X114773926Y-76629203D01*
X114794750Y-76634419D01*
X114814962Y-76641651D01*
X114834368Y-76650830D01*
X114852781Y-76661866D01*
X114870024Y-76674654D01*
X114885930Y-76689070D01*
X114900346Y-76704976D01*
X114913134Y-76722219D01*
X114924170Y-76740632D01*
X114933349Y-76760038D01*
X114940581Y-76780250D01*
X114945797Y-76801074D01*
X114948947Y-76822309D01*
X114950000Y-76843750D01*
X114950000Y-77356250D01*
X114948947Y-77377691D01*
X114945797Y-77398926D01*
X114940581Y-77419750D01*
X114933349Y-77439962D01*
X114924170Y-77459368D01*
X114913134Y-77477781D01*
X114900346Y-77495024D01*
X114885930Y-77510930D01*
X114870024Y-77525346D01*
X114852781Y-77538134D01*
X114834368Y-77549170D01*
X114814962Y-77558349D01*
X114794750Y-77565581D01*
X114773926Y-77570797D01*
X114752691Y-77573947D01*
X114731250Y-77575000D01*
X114293750Y-77575000D01*
X114272309Y-77573947D01*
X114251074Y-77570797D01*
X114230250Y-77565581D01*
X114210038Y-77558349D01*
X114190632Y-77549170D01*
X114172219Y-77538134D01*
X114154976Y-77525346D01*
X114139070Y-77510930D01*
X114124654Y-77495024D01*
X114111866Y-77477781D01*
X114100830Y-77459368D01*
X114091651Y-77439962D01*
X114084419Y-77419750D01*
X114079203Y-77398926D01*
X114076053Y-77377691D01*
X114075000Y-77356250D01*
X114075000Y-76843750D01*
X114076053Y-76822309D01*
X114079203Y-76801074D01*
X114084419Y-76780250D01*
X114091651Y-76760038D01*
X114100830Y-76740632D01*
X114111866Y-76722219D01*
X114124654Y-76704976D01*
X114139070Y-76689070D01*
X114154976Y-76674654D01*
X114172219Y-76661866D01*
X114190632Y-76650830D01*
X114210038Y-76641651D01*
X114230250Y-76634419D01*
X114251074Y-76629203D01*
X114272309Y-76626053D01*
X114293750Y-76625000D01*
X114731250Y-76625000D01*
X114752691Y-76626053D01*
X114752691Y-76626053D01*
G37*
D14*
G04 #@! TD*
G04 #@! TO.P,D14,2*
G04 #@! TO.N,Net-(D1-Pad2)*
X114512500Y-77100000D03*
D13*
G04 #@! TO.N,Net-(D11-Pad2)*
G04 #@! TO.C,D15*
G36*
X129827691Y-75226053D02*
X129848926Y-75229203D01*
X129869750Y-75234419D01*
X129889962Y-75241651D01*
X129909368Y-75250830D01*
X129927781Y-75261866D01*
X129945024Y-75274654D01*
X129960930Y-75289070D01*
X129975346Y-75304976D01*
X129988134Y-75322219D01*
X129999170Y-75340632D01*
X130008349Y-75360038D01*
X130015581Y-75380250D01*
X130020797Y-75401074D01*
X130023947Y-75422309D01*
X130025000Y-75443750D01*
X130025000Y-75956250D01*
X130023947Y-75977691D01*
X130020797Y-75998926D01*
X130015581Y-76019750D01*
X130008349Y-76039962D01*
X129999170Y-76059368D01*
X129988134Y-76077781D01*
X129975346Y-76095024D01*
X129960930Y-76110930D01*
X129945024Y-76125346D01*
X129927781Y-76138134D01*
X129909368Y-76149170D01*
X129889962Y-76158349D01*
X129869750Y-76165581D01*
X129848926Y-76170797D01*
X129827691Y-76173947D01*
X129806250Y-76175000D01*
X129368750Y-76175000D01*
X129347309Y-76173947D01*
X129326074Y-76170797D01*
X129305250Y-76165581D01*
X129285038Y-76158349D01*
X129265632Y-76149170D01*
X129247219Y-76138134D01*
X129229976Y-76125346D01*
X129214070Y-76110930D01*
X129199654Y-76095024D01*
X129186866Y-76077781D01*
X129175830Y-76059368D01*
X129166651Y-76039962D01*
X129159419Y-76019750D01*
X129154203Y-75998926D01*
X129151053Y-75977691D01*
X129150000Y-75956250D01*
X129150000Y-75443750D01*
X129151053Y-75422309D01*
X129154203Y-75401074D01*
X129159419Y-75380250D01*
X129166651Y-75360038D01*
X129175830Y-75340632D01*
X129186866Y-75322219D01*
X129199654Y-75304976D01*
X129214070Y-75289070D01*
X129229976Y-75274654D01*
X129247219Y-75261866D01*
X129265632Y-75250830D01*
X129285038Y-75241651D01*
X129305250Y-75234419D01*
X129326074Y-75229203D01*
X129347309Y-75226053D01*
X129368750Y-75225000D01*
X129806250Y-75225000D01*
X129827691Y-75226053D01*
X129827691Y-75226053D01*
G37*
D14*
G04 #@! TD*
G04 #@! TO.P,D15,2*
G04 #@! TO.N,Net-(D11-Pad2)*
X129587500Y-75700000D03*
D13*
G04 #@! TO.N,Net-(D1-Pad2)*
G04 #@! TO.C,D15*
G36*
X128252691Y-75226053D02*
X128273926Y-75229203D01*
X128294750Y-75234419D01*
X128314962Y-75241651D01*
X128334368Y-75250830D01*
X128352781Y-75261866D01*
X128370024Y-75274654D01*
X128385930Y-75289070D01*
X128400346Y-75304976D01*
X128413134Y-75322219D01*
X128424170Y-75340632D01*
X128433349Y-75360038D01*
X128440581Y-75380250D01*
X128445797Y-75401074D01*
X128448947Y-75422309D01*
X128450000Y-75443750D01*
X128450000Y-75956250D01*
X128448947Y-75977691D01*
X128445797Y-75998926D01*
X128440581Y-76019750D01*
X128433349Y-76039962D01*
X128424170Y-76059368D01*
X128413134Y-76077781D01*
X128400346Y-76095024D01*
X128385930Y-76110930D01*
X128370024Y-76125346D01*
X128352781Y-76138134D01*
X128334368Y-76149170D01*
X128314962Y-76158349D01*
X128294750Y-76165581D01*
X128273926Y-76170797D01*
X128252691Y-76173947D01*
X128231250Y-76175000D01*
X127793750Y-76175000D01*
X127772309Y-76173947D01*
X127751074Y-76170797D01*
X127730250Y-76165581D01*
X127710038Y-76158349D01*
X127690632Y-76149170D01*
X127672219Y-76138134D01*
X127654976Y-76125346D01*
X127639070Y-76110930D01*
X127624654Y-76095024D01*
X127611866Y-76077781D01*
X127600830Y-76059368D01*
X127591651Y-76039962D01*
X127584419Y-76019750D01*
X127579203Y-75998926D01*
X127576053Y-75977691D01*
X127575000Y-75956250D01*
X127575000Y-75443750D01*
X127576053Y-75422309D01*
X127579203Y-75401074D01*
X127584419Y-75380250D01*
X127591651Y-75360038D01*
X127600830Y-75340632D01*
X127611866Y-75322219D01*
X127624654Y-75304976D01*
X127639070Y-75289070D01*
X127654976Y-75274654D01*
X127672219Y-75261866D01*
X127690632Y-75250830D01*
X127710038Y-75241651D01*
X127730250Y-75234419D01*
X127751074Y-75229203D01*
X127772309Y-75226053D01*
X127793750Y-75225000D01*
X128231250Y-75225000D01*
X128252691Y-75226053D01*
X128252691Y-75226053D01*
G37*
D14*
G04 #@! TD*
G04 #@! TO.P,D15,1*
G04 #@! TO.N,Net-(D1-Pad2)*
X128012500Y-75700000D03*
D13*
G04 #@! TO.N,Net-(D11-Pad2)*
G04 #@! TO.C,D16*
G36*
X129827691Y-76726053D02*
X129848926Y-76729203D01*
X129869750Y-76734419D01*
X129889962Y-76741651D01*
X129909368Y-76750830D01*
X129927781Y-76761866D01*
X129945024Y-76774654D01*
X129960930Y-76789070D01*
X129975346Y-76804976D01*
X129988134Y-76822219D01*
X129999170Y-76840632D01*
X130008349Y-76860038D01*
X130015581Y-76880250D01*
X130020797Y-76901074D01*
X130023947Y-76922309D01*
X130025000Y-76943750D01*
X130025000Y-77456250D01*
X130023947Y-77477691D01*
X130020797Y-77498926D01*
X130015581Y-77519750D01*
X130008349Y-77539962D01*
X129999170Y-77559368D01*
X129988134Y-77577781D01*
X129975346Y-77595024D01*
X129960930Y-77610930D01*
X129945024Y-77625346D01*
X129927781Y-77638134D01*
X129909368Y-77649170D01*
X129889962Y-77658349D01*
X129869750Y-77665581D01*
X129848926Y-77670797D01*
X129827691Y-77673947D01*
X129806250Y-77675000D01*
X129368750Y-77675000D01*
X129347309Y-77673947D01*
X129326074Y-77670797D01*
X129305250Y-77665581D01*
X129285038Y-77658349D01*
X129265632Y-77649170D01*
X129247219Y-77638134D01*
X129229976Y-77625346D01*
X129214070Y-77610930D01*
X129199654Y-77595024D01*
X129186866Y-77577781D01*
X129175830Y-77559368D01*
X129166651Y-77539962D01*
X129159419Y-77519750D01*
X129154203Y-77498926D01*
X129151053Y-77477691D01*
X129150000Y-77456250D01*
X129150000Y-76943750D01*
X129151053Y-76922309D01*
X129154203Y-76901074D01*
X129159419Y-76880250D01*
X129166651Y-76860038D01*
X129175830Y-76840632D01*
X129186866Y-76822219D01*
X129199654Y-76804976D01*
X129214070Y-76789070D01*
X129229976Y-76774654D01*
X129247219Y-76761866D01*
X129265632Y-76750830D01*
X129285038Y-76741651D01*
X129305250Y-76734419D01*
X129326074Y-76729203D01*
X129347309Y-76726053D01*
X129368750Y-76725000D01*
X129806250Y-76725000D01*
X129827691Y-76726053D01*
X129827691Y-76726053D01*
G37*
D14*
G04 #@! TD*
G04 #@! TO.P,D16,1*
G04 #@! TO.N,Net-(D11-Pad2)*
X129587500Y-77200000D03*
D13*
G04 #@! TO.N,Net-(D1-Pad2)*
G04 #@! TO.C,D16*
G36*
X128252691Y-76726053D02*
X128273926Y-76729203D01*
X128294750Y-76734419D01*
X128314962Y-76741651D01*
X128334368Y-76750830D01*
X128352781Y-76761866D01*
X128370024Y-76774654D01*
X128385930Y-76789070D01*
X128400346Y-76804976D01*
X128413134Y-76822219D01*
X128424170Y-76840632D01*
X128433349Y-76860038D01*
X128440581Y-76880250D01*
X128445797Y-76901074D01*
X128448947Y-76922309D01*
X128450000Y-76943750D01*
X128450000Y-77456250D01*
X128448947Y-77477691D01*
X128445797Y-77498926D01*
X128440581Y-77519750D01*
X128433349Y-77539962D01*
X128424170Y-77559368D01*
X128413134Y-77577781D01*
X128400346Y-77595024D01*
X128385930Y-77610930D01*
X128370024Y-77625346D01*
X128352781Y-77638134D01*
X128334368Y-77649170D01*
X128314962Y-77658349D01*
X128294750Y-77665581D01*
X128273926Y-77670797D01*
X128252691Y-77673947D01*
X128231250Y-77675000D01*
X127793750Y-77675000D01*
X127772309Y-77673947D01*
X127751074Y-77670797D01*
X127730250Y-77665581D01*
X127710038Y-77658349D01*
X127690632Y-77649170D01*
X127672219Y-77638134D01*
X127654976Y-77625346D01*
X127639070Y-77610930D01*
X127624654Y-77595024D01*
X127611866Y-77577781D01*
X127600830Y-77559368D01*
X127591651Y-77539962D01*
X127584419Y-77519750D01*
X127579203Y-77498926D01*
X127576053Y-77477691D01*
X127575000Y-77456250D01*
X127575000Y-76943750D01*
X127576053Y-76922309D01*
X127579203Y-76901074D01*
X127584419Y-76880250D01*
X127591651Y-76860038D01*
X127600830Y-76840632D01*
X127611866Y-76822219D01*
X127624654Y-76804976D01*
X127639070Y-76789070D01*
X127654976Y-76774654D01*
X127672219Y-76761866D01*
X127690632Y-76750830D01*
X127710038Y-76741651D01*
X127730250Y-76734419D01*
X127751074Y-76729203D01*
X127772309Y-76726053D01*
X127793750Y-76725000D01*
X128231250Y-76725000D01*
X128252691Y-76726053D01*
X128252691Y-76726053D01*
G37*
D14*
G04 #@! TD*
G04 #@! TO.P,D16,2*
G04 #@! TO.N,Net-(D1-Pad2)*
X128012500Y-77200000D03*
D13*
G04 #@! TO.N,Net-(D13-Pad2)*
G04 #@! TO.C,D17*
G36*
X143327691Y-75126053D02*
X143348926Y-75129203D01*
X143369750Y-75134419D01*
X143389962Y-75141651D01*
X143409368Y-75150830D01*
X143427781Y-75161866D01*
X143445024Y-75174654D01*
X143460930Y-75189070D01*
X143475346Y-75204976D01*
X143488134Y-75222219D01*
X143499170Y-75240632D01*
X143508349Y-75260038D01*
X143515581Y-75280250D01*
X143520797Y-75301074D01*
X143523947Y-75322309D01*
X143525000Y-75343750D01*
X143525000Y-75856250D01*
X143523947Y-75877691D01*
X143520797Y-75898926D01*
X143515581Y-75919750D01*
X143508349Y-75939962D01*
X143499170Y-75959368D01*
X143488134Y-75977781D01*
X143475346Y-75995024D01*
X143460930Y-76010930D01*
X143445024Y-76025346D01*
X143427781Y-76038134D01*
X143409368Y-76049170D01*
X143389962Y-76058349D01*
X143369750Y-76065581D01*
X143348926Y-76070797D01*
X143327691Y-76073947D01*
X143306250Y-76075000D01*
X142868750Y-76075000D01*
X142847309Y-76073947D01*
X142826074Y-76070797D01*
X142805250Y-76065581D01*
X142785038Y-76058349D01*
X142765632Y-76049170D01*
X142747219Y-76038134D01*
X142729976Y-76025346D01*
X142714070Y-76010930D01*
X142699654Y-75995024D01*
X142686866Y-75977781D01*
X142675830Y-75959368D01*
X142666651Y-75939962D01*
X142659419Y-75919750D01*
X142654203Y-75898926D01*
X142651053Y-75877691D01*
X142650000Y-75856250D01*
X142650000Y-75343750D01*
X142651053Y-75322309D01*
X142654203Y-75301074D01*
X142659419Y-75280250D01*
X142666651Y-75260038D01*
X142675830Y-75240632D01*
X142686866Y-75222219D01*
X142699654Y-75204976D01*
X142714070Y-75189070D01*
X142729976Y-75174654D01*
X142747219Y-75161866D01*
X142765632Y-75150830D01*
X142785038Y-75141651D01*
X142805250Y-75134419D01*
X142826074Y-75129203D01*
X142847309Y-75126053D01*
X142868750Y-75125000D01*
X143306250Y-75125000D01*
X143327691Y-75126053D01*
X143327691Y-75126053D01*
G37*
D14*
G04 #@! TD*
G04 #@! TO.P,D17,2*
G04 #@! TO.N,Net-(D13-Pad2)*
X143087500Y-75600000D03*
D13*
G04 #@! TO.N,Net-(D1-Pad1)*
G04 #@! TO.C,D17*
G36*
X141752691Y-75126053D02*
X141773926Y-75129203D01*
X141794750Y-75134419D01*
X141814962Y-75141651D01*
X141834368Y-75150830D01*
X141852781Y-75161866D01*
X141870024Y-75174654D01*
X141885930Y-75189070D01*
X141900346Y-75204976D01*
X141913134Y-75222219D01*
X141924170Y-75240632D01*
X141933349Y-75260038D01*
X141940581Y-75280250D01*
X141945797Y-75301074D01*
X141948947Y-75322309D01*
X141950000Y-75343750D01*
X141950000Y-75856250D01*
X141948947Y-75877691D01*
X141945797Y-75898926D01*
X141940581Y-75919750D01*
X141933349Y-75939962D01*
X141924170Y-75959368D01*
X141913134Y-75977781D01*
X141900346Y-75995024D01*
X141885930Y-76010930D01*
X141870024Y-76025346D01*
X141852781Y-76038134D01*
X141834368Y-76049170D01*
X141814962Y-76058349D01*
X141794750Y-76065581D01*
X141773926Y-76070797D01*
X141752691Y-76073947D01*
X141731250Y-76075000D01*
X141293750Y-76075000D01*
X141272309Y-76073947D01*
X141251074Y-76070797D01*
X141230250Y-76065581D01*
X141210038Y-76058349D01*
X141190632Y-76049170D01*
X141172219Y-76038134D01*
X141154976Y-76025346D01*
X141139070Y-76010930D01*
X141124654Y-75995024D01*
X141111866Y-75977781D01*
X141100830Y-75959368D01*
X141091651Y-75939962D01*
X141084419Y-75919750D01*
X141079203Y-75898926D01*
X141076053Y-75877691D01*
X141075000Y-75856250D01*
X141075000Y-75343750D01*
X141076053Y-75322309D01*
X141079203Y-75301074D01*
X141084419Y-75280250D01*
X141091651Y-75260038D01*
X141100830Y-75240632D01*
X141111866Y-75222219D01*
X141124654Y-75204976D01*
X141139070Y-75189070D01*
X141154976Y-75174654D01*
X141172219Y-75161866D01*
X141190632Y-75150830D01*
X141210038Y-75141651D01*
X141230250Y-75134419D01*
X141251074Y-75129203D01*
X141272309Y-75126053D01*
X141293750Y-75125000D01*
X141731250Y-75125000D01*
X141752691Y-75126053D01*
X141752691Y-75126053D01*
G37*
D14*
G04 #@! TD*
G04 #@! TO.P,D17,1*
G04 #@! TO.N,Net-(D1-Pad1)*
X141512500Y-75600000D03*
D13*
G04 #@! TO.N,Net-(D13-Pad2)*
G04 #@! TO.C,D18*
G36*
X143327691Y-76626053D02*
X143348926Y-76629203D01*
X143369750Y-76634419D01*
X143389962Y-76641651D01*
X143409368Y-76650830D01*
X143427781Y-76661866D01*
X143445024Y-76674654D01*
X143460930Y-76689070D01*
X143475346Y-76704976D01*
X143488134Y-76722219D01*
X143499170Y-76740632D01*
X143508349Y-76760038D01*
X143515581Y-76780250D01*
X143520797Y-76801074D01*
X143523947Y-76822309D01*
X143525000Y-76843750D01*
X143525000Y-77356250D01*
X143523947Y-77377691D01*
X143520797Y-77398926D01*
X143515581Y-77419750D01*
X143508349Y-77439962D01*
X143499170Y-77459368D01*
X143488134Y-77477781D01*
X143475346Y-77495024D01*
X143460930Y-77510930D01*
X143445024Y-77525346D01*
X143427781Y-77538134D01*
X143409368Y-77549170D01*
X143389962Y-77558349D01*
X143369750Y-77565581D01*
X143348926Y-77570797D01*
X143327691Y-77573947D01*
X143306250Y-77575000D01*
X142868750Y-77575000D01*
X142847309Y-77573947D01*
X142826074Y-77570797D01*
X142805250Y-77565581D01*
X142785038Y-77558349D01*
X142765632Y-77549170D01*
X142747219Y-77538134D01*
X142729976Y-77525346D01*
X142714070Y-77510930D01*
X142699654Y-77495024D01*
X142686866Y-77477781D01*
X142675830Y-77459368D01*
X142666651Y-77439962D01*
X142659419Y-77419750D01*
X142654203Y-77398926D01*
X142651053Y-77377691D01*
X142650000Y-77356250D01*
X142650000Y-76843750D01*
X142651053Y-76822309D01*
X142654203Y-76801074D01*
X142659419Y-76780250D01*
X142666651Y-76760038D01*
X142675830Y-76740632D01*
X142686866Y-76722219D01*
X142699654Y-76704976D01*
X142714070Y-76689070D01*
X142729976Y-76674654D01*
X142747219Y-76661866D01*
X142765632Y-76650830D01*
X142785038Y-76641651D01*
X142805250Y-76634419D01*
X142826074Y-76629203D01*
X142847309Y-76626053D01*
X142868750Y-76625000D01*
X143306250Y-76625000D01*
X143327691Y-76626053D01*
X143327691Y-76626053D01*
G37*
D14*
G04 #@! TD*
G04 #@! TO.P,D18,1*
G04 #@! TO.N,Net-(D13-Pad2)*
X143087500Y-77100000D03*
D13*
G04 #@! TO.N,Net-(D1-Pad1)*
G04 #@! TO.C,D18*
G36*
X141752691Y-76626053D02*
X141773926Y-76629203D01*
X141794750Y-76634419D01*
X141814962Y-76641651D01*
X141834368Y-76650830D01*
X141852781Y-76661866D01*
X141870024Y-76674654D01*
X141885930Y-76689070D01*
X141900346Y-76704976D01*
X141913134Y-76722219D01*
X141924170Y-76740632D01*
X141933349Y-76760038D01*
X141940581Y-76780250D01*
X141945797Y-76801074D01*
X141948947Y-76822309D01*
X141950000Y-76843750D01*
X141950000Y-77356250D01*
X141948947Y-77377691D01*
X141945797Y-77398926D01*
X141940581Y-77419750D01*
X141933349Y-77439962D01*
X141924170Y-77459368D01*
X141913134Y-77477781D01*
X141900346Y-77495024D01*
X141885930Y-77510930D01*
X141870024Y-77525346D01*
X141852781Y-77538134D01*
X141834368Y-77549170D01*
X141814962Y-77558349D01*
X141794750Y-77565581D01*
X141773926Y-77570797D01*
X141752691Y-77573947D01*
X141731250Y-77575000D01*
X141293750Y-77575000D01*
X141272309Y-77573947D01*
X141251074Y-77570797D01*
X141230250Y-77565581D01*
X141210038Y-77558349D01*
X141190632Y-77549170D01*
X141172219Y-77538134D01*
X141154976Y-77525346D01*
X141139070Y-77510930D01*
X141124654Y-77495024D01*
X141111866Y-77477781D01*
X141100830Y-77459368D01*
X141091651Y-77439962D01*
X141084419Y-77419750D01*
X141079203Y-77398926D01*
X141076053Y-77377691D01*
X141075000Y-77356250D01*
X141075000Y-76843750D01*
X141076053Y-76822309D01*
X141079203Y-76801074D01*
X141084419Y-76780250D01*
X141091651Y-76760038D01*
X141100830Y-76740632D01*
X141111866Y-76722219D01*
X141124654Y-76704976D01*
X141139070Y-76689070D01*
X141154976Y-76674654D01*
X141172219Y-76661866D01*
X141190632Y-76650830D01*
X141210038Y-76641651D01*
X141230250Y-76634419D01*
X141251074Y-76629203D01*
X141272309Y-76626053D01*
X141293750Y-76625000D01*
X141731250Y-76625000D01*
X141752691Y-76626053D01*
X141752691Y-76626053D01*
G37*
D14*
G04 #@! TD*
G04 #@! TO.P,D18,2*
G04 #@! TO.N,Net-(D1-Pad1)*
X141512500Y-77100000D03*
D15*
G04 #@! TO.N,Net-(D1-Pad1)*
X126600000Y-62800000D03*
X113500000Y-50000000D03*
X140564415Y-75449980D03*
X142200000Y-70200000D03*
X147800000Y-70199990D03*
G04 #@! TO.N,Net-(D1-Pad2)*
X117100000Y-50000000D03*
X140041942Y-50100001D03*
X113500000Y-75600000D03*
X127000000Y-75700000D03*
X115300000Y-56800000D03*
X110100000Y-56875000D03*
G04 #@! TO.N,Net-(D10-Pad1)*
X143600000Y-50100000D03*
X126700000Y-50100000D03*
X130300000Y-62800000D03*
X113500000Y-62600000D03*
X126700000Y-57500000D03*
X108900000Y-57325010D03*
G04 #@! TO.N,Net-(D11-Pad2)*
X117100000Y-62600000D03*
X130600000Y-75700000D03*
X143900000Y-62800000D03*
X135274990Y-76900000D03*
X135200000Y-79900006D03*
G04 #@! TO.N,/nMCLR*
X109900007Y-69800007D03*
X122100000Y-81500000D03*
G04 #@! TO.N,Net-(D13-Pad2)*
X140300000Y-62800000D03*
X144100000Y-75600000D03*
X130300000Y-50100000D03*
X135900000Y-76074990D03*
X125100004Y-69499985D03*
X117200000Y-75574990D03*
X135999503Y-80028538D03*
X144100000Y-69774990D03*
G04 #@! TD*
D16*
G04 #@! TO.N,Net-(D1-Pad1)*
X141512500Y-75600000D02*
X141512500Y-77100000D01*
X114512500Y-50000000D02*
X114512500Y-51400000D01*
X127712500Y-62800000D02*
X127712500Y-64300000D01*
X126600000Y-62800000D02*
X127712500Y-62800000D01*
X114512500Y-50000000D02*
X113500000Y-50000000D01*
X140714435Y-75600000D02*
X140564415Y-75449980D01*
X141512500Y-75600000D02*
X140714435Y-75600000D01*
X142200000Y-70200000D02*
X142499999Y-70499999D01*
X147499991Y-70499999D02*
X147500001Y-70499989D01*
X147500001Y-70499989D02*
X147800000Y-70199990D01*
X142500009Y-70499989D02*
X147500001Y-70499989D01*
G04 #@! TO.N,Net-(D1-Pad2)*
X141025000Y-50112500D02*
X141012500Y-50100000D01*
X141025000Y-51600000D02*
X141025000Y-50112500D01*
X116087500Y-51400000D02*
X116087500Y-50000000D01*
X128012500Y-75700000D02*
X128012500Y-77200000D01*
X114512500Y-75600000D02*
X114512500Y-77100000D01*
X117100000Y-50000000D02*
X116087500Y-50000000D01*
X141012500Y-50100000D02*
X140041943Y-50100000D01*
X140041943Y-50100000D02*
X140041942Y-50100001D01*
X114512500Y-75600000D02*
X113500000Y-75600000D01*
X128012500Y-75700000D02*
X127000000Y-75700000D01*
X110175000Y-56800000D02*
X110100000Y-56875000D01*
X115300000Y-56800000D02*
X110175000Y-56800000D01*
G04 #@! TO.N,Net-(D10-Pad1)*
X142600000Y-50112500D02*
X142587500Y-50100000D01*
X142600000Y-51600000D02*
X142600000Y-50112500D01*
X127712500Y-50100000D02*
X127712500Y-51600000D01*
X114512500Y-62600000D02*
X114512500Y-64100000D01*
X129287500Y-62800000D02*
X129287500Y-64300000D01*
X142587500Y-50100000D02*
X143600000Y-50100000D01*
X127712500Y-50100000D02*
X126700000Y-50100000D01*
X130300000Y-62800000D02*
X129287500Y-62800000D01*
X114512500Y-62600000D02*
X113500000Y-62600000D01*
X109074990Y-57500000D02*
X108900000Y-57325010D01*
X126700000Y-57500000D02*
X109074990Y-57500000D01*
G04 #@! TO.N,Net-(D11-Pad2)*
X142887500Y-64300000D02*
X142887500Y-62800000D01*
X116087500Y-62600000D02*
X116087500Y-64100000D01*
X129587500Y-75700000D02*
X129587500Y-77200000D01*
X116087500Y-62600000D02*
X117100000Y-62600000D01*
X130600000Y-75700000D02*
X129587500Y-75700000D01*
X142887500Y-62800000D02*
X143900000Y-62800000D01*
X135274990Y-76900000D02*
X135274990Y-79825016D01*
X135274990Y-79825016D02*
X135200000Y-79900006D01*
G04 #@! TO.N,/nMCLR*
X122100000Y-81075736D02*
X122100000Y-81500000D01*
X109900007Y-69800007D02*
X110200006Y-69500008D01*
X122100000Y-69600000D02*
X122100000Y-81075736D01*
X122000008Y-69500008D02*
X122100000Y-69600000D01*
X110200006Y-69500008D02*
X122000008Y-69500008D01*
G04 #@! TO.N,Net-(D13-Pad2)*
X143087500Y-75600000D02*
X143087500Y-77100000D01*
X141312500Y-64300000D02*
X141312500Y-62800000D01*
X129287500Y-51600000D02*
X129287500Y-50100000D01*
X116087500Y-75600000D02*
X116087500Y-77100000D01*
X140300000Y-62800000D02*
X141312500Y-62800000D01*
X143087500Y-75600000D02*
X144100000Y-75600000D01*
X129287500Y-50100000D02*
X130300000Y-50100000D01*
X116087500Y-75600000D02*
X117174990Y-75600000D01*
X117174990Y-75600000D02*
X117200000Y-75574990D01*
X135900000Y-79929035D02*
X135999503Y-80028538D01*
X135900000Y-76074990D02*
X135900000Y-79929035D01*
X143825010Y-69500000D02*
X144100000Y-69774990D01*
X125100004Y-69499985D02*
X125100019Y-69500000D01*
X125100019Y-69500000D02*
X143825010Y-69500000D01*
G04 #@! TD*
M02*
