G04 #@! TF.GenerationSoftware,KiCad,Pcbnew,(5.0.2)-1*
G04 #@! TF.CreationDate,2019-01-19T12:13:54+11:00*
G04 #@! TF.ProjectId,WarGames_SAO,57617247-616d-4657-935f-53414f2e6b69,rev?*
G04 #@! TF.SameCoordinates,Original*
G04 #@! TF.FileFunction,Soldermask,Bot*
G04 #@! TF.FilePolarity,Negative*
%FSLAX46Y46*%
G04 Gerber Fmt 4.6, Leading zero omitted, Abs format (unit mm)*
G04 Created by KiCad (PCBNEW (5.0.2)-1) date 19/01/2019 12:13:54*
%MOMM*%
%LPD*%
G01*
G04 APERTURE LIST*
%ADD10C,0.100000*%
G04 APERTURE END LIST*
D10*
G36*
X120346000Y-85626000D02*
X119644000Y-85626000D01*
X119644000Y-83974000D01*
X120346000Y-83974000D01*
X120346000Y-85626000D01*
X120346000Y-85626000D01*
G37*
G36*
X121616000Y-85626000D02*
X120914000Y-85626000D01*
X120914000Y-83974000D01*
X121616000Y-83974000D01*
X121616000Y-85626000D01*
X121616000Y-85626000D01*
G37*
G36*
X124156000Y-85626000D02*
X123454000Y-85626000D01*
X123454000Y-83974000D01*
X124156000Y-83974000D01*
X124156000Y-85626000D01*
X124156000Y-85626000D01*
G37*
G36*
X122886000Y-85626000D02*
X122184000Y-85626000D01*
X122184000Y-83974000D01*
X122886000Y-83974000D01*
X122886000Y-85626000D01*
X122886000Y-85626000D01*
G37*
G36*
X146110443Y-83645519D02*
X146176627Y-83652037D01*
X146289853Y-83686384D01*
X146346467Y-83703557D01*
X146365132Y-83713534D01*
X146502991Y-83787222D01*
X146538729Y-83816552D01*
X146640186Y-83899814D01*
X146723448Y-84001271D01*
X146752778Y-84037009D01*
X146752779Y-84037011D01*
X146836443Y-84193533D01*
X146849515Y-84236627D01*
X146887963Y-84363373D01*
X146905359Y-84540000D01*
X146887963Y-84716627D01*
X146858796Y-84812778D01*
X146836443Y-84886467D01*
X146789003Y-84975220D01*
X146752778Y-85042991D01*
X146723448Y-85078729D01*
X146640186Y-85180186D01*
X146538729Y-85263448D01*
X146502991Y-85292778D01*
X146502989Y-85292779D01*
X146346467Y-85376443D01*
X146289853Y-85393616D01*
X146176627Y-85427963D01*
X146110442Y-85434482D01*
X146044260Y-85441000D01*
X145955740Y-85441000D01*
X145889558Y-85434482D01*
X145823373Y-85427963D01*
X145710147Y-85393616D01*
X145653533Y-85376443D01*
X145497011Y-85292779D01*
X145497009Y-85292778D01*
X145461271Y-85263448D01*
X145359814Y-85180186D01*
X145276552Y-85078729D01*
X145247222Y-85042991D01*
X145210997Y-84975220D01*
X145163557Y-84886467D01*
X145141204Y-84812778D01*
X145112037Y-84716627D01*
X145094641Y-84540000D01*
X145112037Y-84363373D01*
X145150485Y-84236627D01*
X145163557Y-84193533D01*
X145247221Y-84037011D01*
X145247222Y-84037009D01*
X145276552Y-84001271D01*
X145359814Y-83899814D01*
X145461271Y-83816552D01*
X145497009Y-83787222D01*
X145634868Y-83713534D01*
X145653533Y-83703557D01*
X145710147Y-83686384D01*
X145823373Y-83652037D01*
X145889557Y-83645519D01*
X145955740Y-83639000D01*
X146044260Y-83639000D01*
X146110443Y-83645519D01*
X146110443Y-83645519D01*
G37*
G36*
X148650443Y-83645519D02*
X148716627Y-83652037D01*
X148829853Y-83686384D01*
X148886467Y-83703557D01*
X148905132Y-83713534D01*
X149042991Y-83787222D01*
X149078729Y-83816552D01*
X149180186Y-83899814D01*
X149263448Y-84001271D01*
X149292778Y-84037009D01*
X149292779Y-84037011D01*
X149376443Y-84193533D01*
X149389515Y-84236627D01*
X149427963Y-84363373D01*
X149445359Y-84540000D01*
X149427963Y-84716627D01*
X149398796Y-84812778D01*
X149376443Y-84886467D01*
X149329003Y-84975220D01*
X149292778Y-85042991D01*
X149263448Y-85078729D01*
X149180186Y-85180186D01*
X149078729Y-85263448D01*
X149042991Y-85292778D01*
X149042989Y-85292779D01*
X148886467Y-85376443D01*
X148829853Y-85393616D01*
X148716627Y-85427963D01*
X148650442Y-85434482D01*
X148584260Y-85441000D01*
X148495740Y-85441000D01*
X148429558Y-85434482D01*
X148363373Y-85427963D01*
X148250147Y-85393616D01*
X148193533Y-85376443D01*
X148037011Y-85292779D01*
X148037009Y-85292778D01*
X148001271Y-85263448D01*
X147899814Y-85180186D01*
X147816552Y-85078729D01*
X147787222Y-85042991D01*
X147750997Y-84975220D01*
X147703557Y-84886467D01*
X147681204Y-84812778D01*
X147652037Y-84716627D01*
X147634641Y-84540000D01*
X147652037Y-84363373D01*
X147690485Y-84236627D01*
X147703557Y-84193533D01*
X147787221Y-84037011D01*
X147787222Y-84037009D01*
X147816552Y-84001271D01*
X147899814Y-83899814D01*
X148001271Y-83816552D01*
X148037009Y-83787222D01*
X148174868Y-83713534D01*
X148193533Y-83703557D01*
X148250147Y-83686384D01*
X148363373Y-83652037D01*
X148429557Y-83645519D01*
X148495740Y-83639000D01*
X148584260Y-83639000D01*
X148650443Y-83645519D01*
X148650443Y-83645519D01*
G37*
G36*
X129929591Y-84078085D02*
X129963569Y-84088393D01*
X129994887Y-84105133D01*
X130022339Y-84127661D01*
X130044867Y-84155113D01*
X130061607Y-84186431D01*
X130071915Y-84220409D01*
X130076000Y-84261890D01*
X130076000Y-84938110D01*
X130071915Y-84979591D01*
X130061607Y-85013569D01*
X130044867Y-85044887D01*
X130022339Y-85072339D01*
X129994887Y-85094867D01*
X129963569Y-85111607D01*
X129929591Y-85121915D01*
X129888110Y-85126000D01*
X129286890Y-85126000D01*
X129245409Y-85121915D01*
X129211431Y-85111607D01*
X129180113Y-85094867D01*
X129152661Y-85072339D01*
X129130133Y-85044887D01*
X129113393Y-85013569D01*
X129103085Y-84979591D01*
X129099000Y-84938110D01*
X129099000Y-84261890D01*
X129103085Y-84220409D01*
X129113393Y-84186431D01*
X129130133Y-84155113D01*
X129152661Y-84127661D01*
X129180113Y-84105133D01*
X129211431Y-84088393D01*
X129245409Y-84078085D01*
X129286890Y-84074000D01*
X129888110Y-84074000D01*
X129929591Y-84078085D01*
X129929591Y-84078085D01*
G37*
G36*
X128354591Y-84078085D02*
X128388569Y-84088393D01*
X128419887Y-84105133D01*
X128447339Y-84127661D01*
X128469867Y-84155113D01*
X128486607Y-84186431D01*
X128496915Y-84220409D01*
X128501000Y-84261890D01*
X128501000Y-84938110D01*
X128496915Y-84979591D01*
X128486607Y-85013569D01*
X128469867Y-85044887D01*
X128447339Y-85072339D01*
X128419887Y-85094867D01*
X128388569Y-85111607D01*
X128354591Y-85121915D01*
X128313110Y-85126000D01*
X127711890Y-85126000D01*
X127670409Y-85121915D01*
X127636431Y-85111607D01*
X127605113Y-85094867D01*
X127577661Y-85072339D01*
X127555133Y-85044887D01*
X127538393Y-85013569D01*
X127528085Y-84979591D01*
X127524000Y-84938110D01*
X127524000Y-84261890D01*
X127528085Y-84220409D01*
X127538393Y-84186431D01*
X127555133Y-84155113D01*
X127577661Y-84127661D01*
X127605113Y-84105133D01*
X127636431Y-84088393D01*
X127670409Y-84078085D01*
X127711890Y-84074000D01*
X128313110Y-84074000D01*
X128354591Y-84078085D01*
X128354591Y-84078085D01*
G37*
G36*
X110010443Y-83165519D02*
X110076627Y-83172037D01*
X110189853Y-83206384D01*
X110246467Y-83223557D01*
X110385087Y-83297652D01*
X110402991Y-83307222D01*
X110438729Y-83336552D01*
X110540186Y-83419814D01*
X110620311Y-83517448D01*
X110652778Y-83557009D01*
X110652779Y-83557011D01*
X110736443Y-83713533D01*
X110736443Y-83713534D01*
X110787963Y-83883373D01*
X110805359Y-84060000D01*
X110787963Y-84236627D01*
X110763203Y-84318250D01*
X110736443Y-84406467D01*
X110665067Y-84540000D01*
X110652778Y-84562991D01*
X110623448Y-84598729D01*
X110540186Y-84700186D01*
X110438729Y-84783448D01*
X110402991Y-84812778D01*
X110402989Y-84812779D01*
X110246467Y-84896443D01*
X110189853Y-84913616D01*
X110076627Y-84947963D01*
X110010442Y-84954482D01*
X109944260Y-84961000D01*
X109855740Y-84961000D01*
X109789558Y-84954482D01*
X109723373Y-84947963D01*
X109610147Y-84913616D01*
X109553533Y-84896443D01*
X109397011Y-84812779D01*
X109397009Y-84812778D01*
X109361271Y-84783448D01*
X109259814Y-84700186D01*
X109176552Y-84598729D01*
X109147222Y-84562991D01*
X109134933Y-84540000D01*
X109063557Y-84406467D01*
X109036797Y-84318250D01*
X109012037Y-84236627D01*
X108994641Y-84060000D01*
X109012037Y-83883373D01*
X109063557Y-83713534D01*
X109063557Y-83713533D01*
X109147221Y-83557011D01*
X109147222Y-83557009D01*
X109179689Y-83517448D01*
X109259814Y-83419814D01*
X109361271Y-83336552D01*
X109397009Y-83307222D01*
X109414913Y-83297652D01*
X109553533Y-83223557D01*
X109610147Y-83206384D01*
X109723373Y-83172037D01*
X109789557Y-83165519D01*
X109855740Y-83159000D01*
X109944260Y-83159000D01*
X110010443Y-83165519D01*
X110010443Y-83165519D01*
G37*
G36*
X129929591Y-82578085D02*
X129963569Y-82588393D01*
X129994887Y-82605133D01*
X130022339Y-82627661D01*
X130044867Y-82655113D01*
X130061607Y-82686431D01*
X130071915Y-82720409D01*
X130076000Y-82761890D01*
X130076000Y-83438110D01*
X130071915Y-83479591D01*
X130061607Y-83513569D01*
X130044867Y-83544887D01*
X130022339Y-83572339D01*
X129994887Y-83594867D01*
X129963569Y-83611607D01*
X129929591Y-83621915D01*
X129888110Y-83626000D01*
X129286890Y-83626000D01*
X129245409Y-83621915D01*
X129211431Y-83611607D01*
X129180113Y-83594867D01*
X129152661Y-83572339D01*
X129130133Y-83544887D01*
X129113393Y-83513569D01*
X129103085Y-83479591D01*
X129099000Y-83438110D01*
X129099000Y-82761890D01*
X129103085Y-82720409D01*
X129113393Y-82686431D01*
X129130133Y-82655113D01*
X129152661Y-82627661D01*
X129180113Y-82605133D01*
X129211431Y-82588393D01*
X129245409Y-82578085D01*
X129286890Y-82574000D01*
X129888110Y-82574000D01*
X129929591Y-82578085D01*
X129929591Y-82578085D01*
G37*
G36*
X128354591Y-82578085D02*
X128388569Y-82588393D01*
X128419887Y-82605133D01*
X128447339Y-82627661D01*
X128469867Y-82655113D01*
X128486607Y-82686431D01*
X128496915Y-82720409D01*
X128501000Y-82761890D01*
X128501000Y-83438110D01*
X128496915Y-83479591D01*
X128486607Y-83513569D01*
X128469867Y-83544887D01*
X128447339Y-83572339D01*
X128419887Y-83594867D01*
X128388569Y-83611607D01*
X128354591Y-83621915D01*
X128313110Y-83626000D01*
X127711890Y-83626000D01*
X127670409Y-83621915D01*
X127636431Y-83611607D01*
X127605113Y-83594867D01*
X127577661Y-83572339D01*
X127555133Y-83544887D01*
X127538393Y-83513569D01*
X127528085Y-83479591D01*
X127524000Y-83438110D01*
X127524000Y-82761890D01*
X127528085Y-82720409D01*
X127538393Y-82686431D01*
X127555133Y-82655113D01*
X127577661Y-82627661D01*
X127605113Y-82605133D01*
X127636431Y-82588393D01*
X127670409Y-82578085D01*
X127711890Y-82574000D01*
X128313110Y-82574000D01*
X128354591Y-82578085D01*
X128354591Y-82578085D01*
G37*
G36*
X148650443Y-81105519D02*
X148716627Y-81112037D01*
X148829853Y-81146384D01*
X148886467Y-81163557D01*
X148980031Y-81213569D01*
X149042991Y-81247222D01*
X149071476Y-81270599D01*
X149180186Y-81359814D01*
X149263448Y-81461271D01*
X149292778Y-81497009D01*
X149292779Y-81497011D01*
X149376443Y-81653533D01*
X149389515Y-81696627D01*
X149427963Y-81823373D01*
X149445359Y-82000000D01*
X149427963Y-82176627D01*
X149398796Y-82272778D01*
X149376443Y-82346467D01*
X149302348Y-82485087D01*
X149292778Y-82502991D01*
X149263448Y-82538729D01*
X149180186Y-82640186D01*
X149078729Y-82723448D01*
X149042991Y-82752778D01*
X149042989Y-82752779D01*
X148886467Y-82836443D01*
X148829853Y-82853616D01*
X148716627Y-82887963D01*
X148650443Y-82894481D01*
X148584260Y-82901000D01*
X148495740Y-82901000D01*
X148429557Y-82894481D01*
X148363373Y-82887963D01*
X148250147Y-82853616D01*
X148193533Y-82836443D01*
X148037011Y-82752779D01*
X148037009Y-82752778D01*
X148001271Y-82723448D01*
X147899814Y-82640186D01*
X147816552Y-82538729D01*
X147787222Y-82502991D01*
X147777652Y-82485087D01*
X147703557Y-82346467D01*
X147681204Y-82272778D01*
X147652037Y-82176627D01*
X147634641Y-82000000D01*
X147652037Y-81823373D01*
X147690485Y-81696627D01*
X147703557Y-81653533D01*
X147787221Y-81497011D01*
X147787222Y-81497009D01*
X147816552Y-81461271D01*
X147899814Y-81359814D01*
X148008524Y-81270599D01*
X148037009Y-81247222D01*
X148099969Y-81213569D01*
X148193533Y-81163557D01*
X148250147Y-81146384D01*
X148363373Y-81112037D01*
X148429557Y-81105519D01*
X148495740Y-81099000D01*
X148584260Y-81099000D01*
X148650443Y-81105519D01*
X148650443Y-81105519D01*
G37*
G36*
X146901000Y-82901000D02*
X145099000Y-82901000D01*
X145099000Y-81099000D01*
X146901000Y-81099000D01*
X146901000Y-82901000D01*
X146901000Y-82901000D01*
G37*
G36*
X110010442Y-80625518D02*
X110076627Y-80632037D01*
X110189853Y-80666384D01*
X110246467Y-80683557D01*
X110385087Y-80757652D01*
X110402991Y-80767222D01*
X110438729Y-80796552D01*
X110540186Y-80879814D01*
X110623448Y-80981271D01*
X110652778Y-81017009D01*
X110652779Y-81017011D01*
X110736443Y-81173533D01*
X110749764Y-81217448D01*
X110787963Y-81343373D01*
X110805359Y-81520000D01*
X110787963Y-81696627D01*
X110753616Y-81809853D01*
X110736443Y-81866467D01*
X110698148Y-81938110D01*
X110652778Y-82022991D01*
X110634808Y-82044887D01*
X110540186Y-82160186D01*
X110438729Y-82243448D01*
X110402991Y-82272778D01*
X110402989Y-82272779D01*
X110246467Y-82356443D01*
X110189853Y-82373616D01*
X110076627Y-82407963D01*
X110010443Y-82414481D01*
X109944260Y-82421000D01*
X109855740Y-82421000D01*
X109789557Y-82414481D01*
X109723373Y-82407963D01*
X109610147Y-82373616D01*
X109553533Y-82356443D01*
X109397011Y-82272779D01*
X109397009Y-82272778D01*
X109361271Y-82243448D01*
X109259814Y-82160186D01*
X109165192Y-82044887D01*
X109147222Y-82022991D01*
X109101852Y-81938110D01*
X109063557Y-81866467D01*
X109046384Y-81809853D01*
X109012037Y-81696627D01*
X108994641Y-81520000D01*
X109012037Y-81343373D01*
X109050236Y-81217448D01*
X109063557Y-81173533D01*
X109147221Y-81017011D01*
X109147222Y-81017009D01*
X109176552Y-80981271D01*
X109259814Y-80879814D01*
X109361271Y-80796552D01*
X109397009Y-80767222D01*
X109414913Y-80757652D01*
X109553533Y-80683557D01*
X109610147Y-80666384D01*
X109723373Y-80632037D01*
X109789558Y-80625518D01*
X109855740Y-80619000D01*
X109944260Y-80619000D01*
X110010442Y-80625518D01*
X110010442Y-80625518D01*
G37*
G36*
X128367091Y-81078085D02*
X128401069Y-81088393D01*
X128432387Y-81105133D01*
X128459839Y-81127661D01*
X128482367Y-81155113D01*
X128499107Y-81186431D01*
X128509415Y-81220409D01*
X128513500Y-81261890D01*
X128513500Y-81938110D01*
X128509415Y-81979591D01*
X128499107Y-82013569D01*
X128482367Y-82044887D01*
X128459839Y-82072339D01*
X128432387Y-82094867D01*
X128401069Y-82111607D01*
X128367091Y-82121915D01*
X128325610Y-82126000D01*
X127724390Y-82126000D01*
X127682909Y-82121915D01*
X127648931Y-82111607D01*
X127617613Y-82094867D01*
X127590161Y-82072339D01*
X127567633Y-82044887D01*
X127550893Y-82013569D01*
X127540585Y-81979591D01*
X127536500Y-81938110D01*
X127536500Y-81261890D01*
X127540585Y-81220409D01*
X127550893Y-81186431D01*
X127567633Y-81155113D01*
X127590161Y-81127661D01*
X127617613Y-81105133D01*
X127648931Y-81088393D01*
X127682909Y-81078085D01*
X127724390Y-81074000D01*
X128325610Y-81074000D01*
X128367091Y-81078085D01*
X128367091Y-81078085D01*
G37*
G36*
X129942091Y-81078085D02*
X129976069Y-81088393D01*
X130007387Y-81105133D01*
X130034839Y-81127661D01*
X130057367Y-81155113D01*
X130074107Y-81186431D01*
X130084415Y-81220409D01*
X130088500Y-81261890D01*
X130088500Y-81938110D01*
X130084415Y-81979591D01*
X130074107Y-82013569D01*
X130057367Y-82044887D01*
X130034839Y-82072339D01*
X130007387Y-82094867D01*
X129976069Y-82111607D01*
X129942091Y-82121915D01*
X129900610Y-82126000D01*
X129299390Y-82126000D01*
X129257909Y-82121915D01*
X129223931Y-82111607D01*
X129192613Y-82094867D01*
X129165161Y-82072339D01*
X129142633Y-82044887D01*
X129125893Y-82013569D01*
X129115585Y-81979591D01*
X129111500Y-81938110D01*
X129111500Y-81261890D01*
X129115585Y-81220409D01*
X129125893Y-81186431D01*
X129142633Y-81155113D01*
X129165161Y-81127661D01*
X129192613Y-81105133D01*
X129223931Y-81088393D01*
X129257909Y-81078085D01*
X129299390Y-81074000D01*
X129900610Y-81074000D01*
X129942091Y-81078085D01*
X129942091Y-81078085D01*
G37*
G36*
X118629591Y-80278085D02*
X118663569Y-80288393D01*
X118694887Y-80305133D01*
X118722339Y-80327661D01*
X118744867Y-80355113D01*
X118761607Y-80386431D01*
X118771915Y-80420409D01*
X118776000Y-80461890D01*
X118776000Y-81138110D01*
X118771915Y-81179591D01*
X118761607Y-81213569D01*
X118744867Y-81244887D01*
X118722339Y-81272339D01*
X118694887Y-81294867D01*
X118663569Y-81311607D01*
X118629591Y-81321915D01*
X118588110Y-81326000D01*
X117986890Y-81326000D01*
X117945409Y-81321915D01*
X117911431Y-81311607D01*
X117880113Y-81294867D01*
X117852661Y-81272339D01*
X117830133Y-81244887D01*
X117813393Y-81213569D01*
X117803085Y-81179591D01*
X117799000Y-81138110D01*
X117799000Y-80461890D01*
X117803085Y-80420409D01*
X117813393Y-80386431D01*
X117830133Y-80355113D01*
X117852661Y-80327661D01*
X117880113Y-80305133D01*
X117911431Y-80288393D01*
X117945409Y-80278085D01*
X117986890Y-80274000D01*
X118588110Y-80274000D01*
X118629591Y-80278085D01*
X118629591Y-80278085D01*
G37*
G36*
X117054591Y-80278085D02*
X117088569Y-80288393D01*
X117119887Y-80305133D01*
X117147339Y-80327661D01*
X117169867Y-80355113D01*
X117186607Y-80386431D01*
X117196915Y-80420409D01*
X117201000Y-80461890D01*
X117201000Y-81138110D01*
X117196915Y-81179591D01*
X117186607Y-81213569D01*
X117169867Y-81244887D01*
X117147339Y-81272339D01*
X117119887Y-81294867D01*
X117088569Y-81311607D01*
X117054591Y-81321915D01*
X117013110Y-81326000D01*
X116411890Y-81326000D01*
X116370409Y-81321915D01*
X116336431Y-81311607D01*
X116305113Y-81294867D01*
X116277661Y-81272339D01*
X116255133Y-81244887D01*
X116238393Y-81213569D01*
X116228085Y-81179591D01*
X116224000Y-81138110D01*
X116224000Y-80461890D01*
X116228085Y-80420409D01*
X116238393Y-80386431D01*
X116255133Y-80355113D01*
X116277661Y-80327661D01*
X116305113Y-80305133D01*
X116336431Y-80288393D01*
X116370409Y-80278085D01*
X116411890Y-80274000D01*
X117013110Y-80274000D01*
X117054591Y-80278085D01*
X117054591Y-80278085D01*
G37*
G36*
X128354591Y-79578085D02*
X128388569Y-79588393D01*
X128419887Y-79605133D01*
X128447339Y-79627661D01*
X128469867Y-79655113D01*
X128486607Y-79686431D01*
X128496915Y-79720409D01*
X128501000Y-79761890D01*
X128501000Y-80438110D01*
X128496915Y-80479591D01*
X128486607Y-80513569D01*
X128469867Y-80544887D01*
X128447339Y-80572339D01*
X128419887Y-80594867D01*
X128388569Y-80611607D01*
X128354591Y-80621915D01*
X128313110Y-80626000D01*
X127711890Y-80626000D01*
X127670409Y-80621915D01*
X127636431Y-80611607D01*
X127605113Y-80594867D01*
X127577661Y-80572339D01*
X127555133Y-80544887D01*
X127538393Y-80513569D01*
X127528085Y-80479591D01*
X127524000Y-80438110D01*
X127524000Y-79761890D01*
X127528085Y-79720409D01*
X127538393Y-79686431D01*
X127555133Y-79655113D01*
X127577661Y-79627661D01*
X127605113Y-79605133D01*
X127636431Y-79588393D01*
X127670409Y-79578085D01*
X127711890Y-79574000D01*
X128313110Y-79574000D01*
X128354591Y-79578085D01*
X128354591Y-79578085D01*
G37*
G36*
X129929591Y-79578085D02*
X129963569Y-79588393D01*
X129994887Y-79605133D01*
X130022339Y-79627661D01*
X130044867Y-79655113D01*
X130061607Y-79686431D01*
X130071915Y-79720409D01*
X130076000Y-79761890D01*
X130076000Y-80438110D01*
X130071915Y-80479591D01*
X130061607Y-80513569D01*
X130044867Y-80544887D01*
X130022339Y-80572339D01*
X129994887Y-80594867D01*
X129963569Y-80611607D01*
X129929591Y-80621915D01*
X129888110Y-80626000D01*
X129286890Y-80626000D01*
X129245409Y-80621915D01*
X129211431Y-80611607D01*
X129180113Y-80594867D01*
X129152661Y-80572339D01*
X129130133Y-80544887D01*
X129113393Y-80513569D01*
X129103085Y-80479591D01*
X129099000Y-80438110D01*
X129099000Y-79761890D01*
X129103085Y-79720409D01*
X129113393Y-79686431D01*
X129130133Y-79655113D01*
X129152661Y-79627661D01*
X129180113Y-79605133D01*
X129211431Y-79588393D01*
X129245409Y-79578085D01*
X129286890Y-79574000D01*
X129888110Y-79574000D01*
X129929591Y-79578085D01*
X129929591Y-79578085D01*
G37*
G36*
X122886000Y-80226000D02*
X122184000Y-80226000D01*
X122184000Y-78574000D01*
X122886000Y-78574000D01*
X122886000Y-80226000D01*
X122886000Y-80226000D01*
G37*
G36*
X124156000Y-80226000D02*
X123454000Y-80226000D01*
X123454000Y-78574000D01*
X124156000Y-78574000D01*
X124156000Y-80226000D01*
X124156000Y-80226000D01*
G37*
G36*
X121616000Y-80226000D02*
X120914000Y-80226000D01*
X120914000Y-78574000D01*
X121616000Y-78574000D01*
X121616000Y-80226000D01*
X121616000Y-80226000D01*
G37*
G36*
X120346000Y-80226000D02*
X119644000Y-80226000D01*
X119644000Y-78574000D01*
X120346000Y-78574000D01*
X120346000Y-80226000D01*
X120346000Y-80226000D01*
G37*
G36*
X110010442Y-78085518D02*
X110076627Y-78092037D01*
X110189853Y-78126384D01*
X110246467Y-78143557D01*
X110268086Y-78155113D01*
X110402991Y-78227222D01*
X110438729Y-78256552D01*
X110540186Y-78339814D01*
X110623448Y-78441271D01*
X110652778Y-78477009D01*
X110652779Y-78477011D01*
X110736443Y-78633533D01*
X110736443Y-78633534D01*
X110787963Y-78803373D01*
X110805359Y-78980000D01*
X110787963Y-79156627D01*
X110753616Y-79269853D01*
X110736443Y-79326467D01*
X110662348Y-79465087D01*
X110652778Y-79482991D01*
X110623448Y-79518729D01*
X110540186Y-79620186D01*
X110459465Y-79686431D01*
X110402991Y-79732778D01*
X110402989Y-79732779D01*
X110246467Y-79816443D01*
X110189853Y-79833616D01*
X110076627Y-79867963D01*
X110010442Y-79874482D01*
X109944260Y-79881000D01*
X109855740Y-79881000D01*
X109789558Y-79874482D01*
X109723373Y-79867963D01*
X109610147Y-79833616D01*
X109553533Y-79816443D01*
X109397011Y-79732779D01*
X109397009Y-79732778D01*
X109340535Y-79686431D01*
X109259814Y-79620186D01*
X109176552Y-79518729D01*
X109147222Y-79482991D01*
X109137652Y-79465087D01*
X109063557Y-79326467D01*
X109046384Y-79269853D01*
X109012037Y-79156627D01*
X108994641Y-78980000D01*
X109012037Y-78803373D01*
X109063557Y-78633534D01*
X109063557Y-78633533D01*
X109147221Y-78477011D01*
X109147222Y-78477009D01*
X109176552Y-78441271D01*
X109259814Y-78339814D01*
X109361271Y-78256552D01*
X109397009Y-78227222D01*
X109531914Y-78155113D01*
X109553533Y-78143557D01*
X109610147Y-78126384D01*
X109723373Y-78092037D01*
X109789558Y-78085518D01*
X109855740Y-78079000D01*
X109944260Y-78079000D01*
X110010442Y-78085518D01*
X110010442Y-78085518D01*
G37*
G36*
X128354591Y-78078085D02*
X128388569Y-78088393D01*
X128419887Y-78105133D01*
X128447339Y-78127661D01*
X128469867Y-78155113D01*
X128486607Y-78186431D01*
X128496915Y-78220409D01*
X128501000Y-78261890D01*
X128501000Y-78938110D01*
X128496915Y-78979591D01*
X128486607Y-79013569D01*
X128469867Y-79044887D01*
X128447339Y-79072339D01*
X128419887Y-79094867D01*
X128388569Y-79111607D01*
X128354591Y-79121915D01*
X128313110Y-79126000D01*
X127711890Y-79126000D01*
X127670409Y-79121915D01*
X127636431Y-79111607D01*
X127605113Y-79094867D01*
X127577661Y-79072339D01*
X127555133Y-79044887D01*
X127538393Y-79013569D01*
X127528085Y-78979591D01*
X127524000Y-78938110D01*
X127524000Y-78261890D01*
X127528085Y-78220409D01*
X127538393Y-78186431D01*
X127555133Y-78155113D01*
X127577661Y-78127661D01*
X127605113Y-78105133D01*
X127636431Y-78088393D01*
X127670409Y-78078085D01*
X127711890Y-78074000D01*
X128313110Y-78074000D01*
X128354591Y-78078085D01*
X128354591Y-78078085D01*
G37*
G36*
X129929591Y-78078085D02*
X129963569Y-78088393D01*
X129994887Y-78105133D01*
X130022339Y-78127661D01*
X130044867Y-78155113D01*
X130061607Y-78186431D01*
X130071915Y-78220409D01*
X130076000Y-78261890D01*
X130076000Y-78938110D01*
X130071915Y-78979591D01*
X130061607Y-79013569D01*
X130044867Y-79044887D01*
X130022339Y-79072339D01*
X129994887Y-79094867D01*
X129963569Y-79111607D01*
X129929591Y-79121915D01*
X129888110Y-79126000D01*
X129286890Y-79126000D01*
X129245409Y-79121915D01*
X129211431Y-79111607D01*
X129180113Y-79094867D01*
X129152661Y-79072339D01*
X129130133Y-79044887D01*
X129113393Y-79013569D01*
X129103085Y-78979591D01*
X129099000Y-78938110D01*
X129099000Y-78261890D01*
X129103085Y-78220409D01*
X129113393Y-78186431D01*
X129130133Y-78155113D01*
X129152661Y-78127661D01*
X129180113Y-78105133D01*
X129211431Y-78088393D01*
X129245409Y-78078085D01*
X129286890Y-78074000D01*
X129888110Y-78074000D01*
X129929591Y-78078085D01*
X129929591Y-78078085D01*
G37*
G36*
X110010442Y-75545518D02*
X110076627Y-75552037D01*
X110189853Y-75586384D01*
X110246467Y-75603557D01*
X110385087Y-75677652D01*
X110402991Y-75687222D01*
X110438729Y-75716552D01*
X110540186Y-75799814D01*
X110623448Y-75901271D01*
X110652778Y-75937009D01*
X110652779Y-75937011D01*
X110736443Y-76093533D01*
X110736443Y-76093534D01*
X110787963Y-76263373D01*
X110805359Y-76440000D01*
X110787963Y-76616627D01*
X110753616Y-76729853D01*
X110736443Y-76786467D01*
X110662348Y-76925087D01*
X110652778Y-76942991D01*
X110623448Y-76978729D01*
X110540186Y-77080186D01*
X110438729Y-77163448D01*
X110402991Y-77192778D01*
X110402989Y-77192779D01*
X110246467Y-77276443D01*
X110189853Y-77293616D01*
X110076627Y-77327963D01*
X110010442Y-77334482D01*
X109944260Y-77341000D01*
X109855740Y-77341000D01*
X109789558Y-77334482D01*
X109723373Y-77327963D01*
X109610147Y-77293616D01*
X109553533Y-77276443D01*
X109397011Y-77192779D01*
X109397009Y-77192778D01*
X109361271Y-77163448D01*
X109259814Y-77080186D01*
X109176552Y-76978729D01*
X109147222Y-76942991D01*
X109137652Y-76925087D01*
X109063557Y-76786467D01*
X109046384Y-76729853D01*
X109012037Y-76616627D01*
X108994641Y-76440000D01*
X109012037Y-76263373D01*
X109063557Y-76093534D01*
X109063557Y-76093533D01*
X109147221Y-75937011D01*
X109147222Y-75937009D01*
X109176552Y-75901271D01*
X109259814Y-75799814D01*
X109361271Y-75716552D01*
X109397009Y-75687222D01*
X109414913Y-75677652D01*
X109553533Y-75603557D01*
X109610147Y-75586384D01*
X109723373Y-75552037D01*
X109789558Y-75545518D01*
X109855740Y-75539000D01*
X109944260Y-75539000D01*
X110010442Y-75545518D01*
X110010442Y-75545518D01*
G37*
G36*
X110801000Y-74801000D02*
X108999000Y-74801000D01*
X108999000Y-72999000D01*
X110801000Y-72999000D01*
X110801000Y-74801000D01*
X110801000Y-74801000D01*
G37*
M02*
