G04 #@! TF.GenerationSoftware,KiCad,Pcbnew,(5.0.2)-1*
G04 #@! TF.CreationDate,2019-01-19T12:13:54+11:00*
G04 #@! TF.ProjectId,WarGames_SAO,57617247-616d-4657-935f-53414f2e6b69,rev?*
G04 #@! TF.SameCoordinates,Original*
G04 #@! TF.FileFunction,Paste,Bot*
G04 #@! TF.FilePolarity,Positive*
%FSLAX46Y46*%
G04 Gerber Fmt 4.6, Leading zero omitted, Abs format (unit mm)*
G04 Created by KiCad (PCBNEW (5.0.2)-1) date 19/01/2019 12:13:54*
%MOMM*%
%LPD*%
G01*
G04 APERTURE LIST*
%ADD10C,0.100000*%
%ADD11C,0.875000*%
%ADD12R,0.600000X1.550000*%
G04 APERTURE END LIST*
D10*
G04 #@! TO.C,C1*
G36*
X118527691Y-80326053D02*
X118548926Y-80329203D01*
X118569750Y-80334419D01*
X118589962Y-80341651D01*
X118609368Y-80350830D01*
X118627781Y-80361866D01*
X118645024Y-80374654D01*
X118660930Y-80389070D01*
X118675346Y-80404976D01*
X118688134Y-80422219D01*
X118699170Y-80440632D01*
X118708349Y-80460038D01*
X118715581Y-80480250D01*
X118720797Y-80501074D01*
X118723947Y-80522309D01*
X118725000Y-80543750D01*
X118725000Y-81056250D01*
X118723947Y-81077691D01*
X118720797Y-81098926D01*
X118715581Y-81119750D01*
X118708349Y-81139962D01*
X118699170Y-81159368D01*
X118688134Y-81177781D01*
X118675346Y-81195024D01*
X118660930Y-81210930D01*
X118645024Y-81225346D01*
X118627781Y-81238134D01*
X118609368Y-81249170D01*
X118589962Y-81258349D01*
X118569750Y-81265581D01*
X118548926Y-81270797D01*
X118527691Y-81273947D01*
X118506250Y-81275000D01*
X118068750Y-81275000D01*
X118047309Y-81273947D01*
X118026074Y-81270797D01*
X118005250Y-81265581D01*
X117985038Y-81258349D01*
X117965632Y-81249170D01*
X117947219Y-81238134D01*
X117929976Y-81225346D01*
X117914070Y-81210930D01*
X117899654Y-81195024D01*
X117886866Y-81177781D01*
X117875830Y-81159368D01*
X117866651Y-81139962D01*
X117859419Y-81119750D01*
X117854203Y-81098926D01*
X117851053Y-81077691D01*
X117850000Y-81056250D01*
X117850000Y-80543750D01*
X117851053Y-80522309D01*
X117854203Y-80501074D01*
X117859419Y-80480250D01*
X117866651Y-80460038D01*
X117875830Y-80440632D01*
X117886866Y-80422219D01*
X117899654Y-80404976D01*
X117914070Y-80389070D01*
X117929976Y-80374654D01*
X117947219Y-80361866D01*
X117965632Y-80350830D01*
X117985038Y-80341651D01*
X118005250Y-80334419D01*
X118026074Y-80329203D01*
X118047309Y-80326053D01*
X118068750Y-80325000D01*
X118506250Y-80325000D01*
X118527691Y-80326053D01*
X118527691Y-80326053D01*
G37*
D11*
X118287500Y-80800000D03*
D10*
G36*
X116952691Y-80326053D02*
X116973926Y-80329203D01*
X116994750Y-80334419D01*
X117014962Y-80341651D01*
X117034368Y-80350830D01*
X117052781Y-80361866D01*
X117070024Y-80374654D01*
X117085930Y-80389070D01*
X117100346Y-80404976D01*
X117113134Y-80422219D01*
X117124170Y-80440632D01*
X117133349Y-80460038D01*
X117140581Y-80480250D01*
X117145797Y-80501074D01*
X117148947Y-80522309D01*
X117150000Y-80543750D01*
X117150000Y-81056250D01*
X117148947Y-81077691D01*
X117145797Y-81098926D01*
X117140581Y-81119750D01*
X117133349Y-81139962D01*
X117124170Y-81159368D01*
X117113134Y-81177781D01*
X117100346Y-81195024D01*
X117085930Y-81210930D01*
X117070024Y-81225346D01*
X117052781Y-81238134D01*
X117034368Y-81249170D01*
X117014962Y-81258349D01*
X116994750Y-81265581D01*
X116973926Y-81270797D01*
X116952691Y-81273947D01*
X116931250Y-81275000D01*
X116493750Y-81275000D01*
X116472309Y-81273947D01*
X116451074Y-81270797D01*
X116430250Y-81265581D01*
X116410038Y-81258349D01*
X116390632Y-81249170D01*
X116372219Y-81238134D01*
X116354976Y-81225346D01*
X116339070Y-81210930D01*
X116324654Y-81195024D01*
X116311866Y-81177781D01*
X116300830Y-81159368D01*
X116291651Y-81139962D01*
X116284419Y-81119750D01*
X116279203Y-81098926D01*
X116276053Y-81077691D01*
X116275000Y-81056250D01*
X116275000Y-80543750D01*
X116276053Y-80522309D01*
X116279203Y-80501074D01*
X116284419Y-80480250D01*
X116291651Y-80460038D01*
X116300830Y-80440632D01*
X116311866Y-80422219D01*
X116324654Y-80404976D01*
X116339070Y-80389070D01*
X116354976Y-80374654D01*
X116372219Y-80361866D01*
X116390632Y-80350830D01*
X116410038Y-80341651D01*
X116430250Y-80334419D01*
X116451074Y-80329203D01*
X116472309Y-80326053D01*
X116493750Y-80325000D01*
X116931250Y-80325000D01*
X116952691Y-80326053D01*
X116952691Y-80326053D01*
G37*
D11*
X116712500Y-80800000D03*
G04 #@! TD*
D10*
G04 #@! TO.C,R1*
G36*
X129840191Y-81126053D02*
X129861426Y-81129203D01*
X129882250Y-81134419D01*
X129902462Y-81141651D01*
X129921868Y-81150830D01*
X129940281Y-81161866D01*
X129957524Y-81174654D01*
X129973430Y-81189070D01*
X129987846Y-81204976D01*
X130000634Y-81222219D01*
X130011670Y-81240632D01*
X130020849Y-81260038D01*
X130028081Y-81280250D01*
X130033297Y-81301074D01*
X130036447Y-81322309D01*
X130037500Y-81343750D01*
X130037500Y-81856250D01*
X130036447Y-81877691D01*
X130033297Y-81898926D01*
X130028081Y-81919750D01*
X130020849Y-81939962D01*
X130011670Y-81959368D01*
X130000634Y-81977781D01*
X129987846Y-81995024D01*
X129973430Y-82010930D01*
X129957524Y-82025346D01*
X129940281Y-82038134D01*
X129921868Y-82049170D01*
X129902462Y-82058349D01*
X129882250Y-82065581D01*
X129861426Y-82070797D01*
X129840191Y-82073947D01*
X129818750Y-82075000D01*
X129381250Y-82075000D01*
X129359809Y-82073947D01*
X129338574Y-82070797D01*
X129317750Y-82065581D01*
X129297538Y-82058349D01*
X129278132Y-82049170D01*
X129259719Y-82038134D01*
X129242476Y-82025346D01*
X129226570Y-82010930D01*
X129212154Y-81995024D01*
X129199366Y-81977781D01*
X129188330Y-81959368D01*
X129179151Y-81939962D01*
X129171919Y-81919750D01*
X129166703Y-81898926D01*
X129163553Y-81877691D01*
X129162500Y-81856250D01*
X129162500Y-81343750D01*
X129163553Y-81322309D01*
X129166703Y-81301074D01*
X129171919Y-81280250D01*
X129179151Y-81260038D01*
X129188330Y-81240632D01*
X129199366Y-81222219D01*
X129212154Y-81204976D01*
X129226570Y-81189070D01*
X129242476Y-81174654D01*
X129259719Y-81161866D01*
X129278132Y-81150830D01*
X129297538Y-81141651D01*
X129317750Y-81134419D01*
X129338574Y-81129203D01*
X129359809Y-81126053D01*
X129381250Y-81125000D01*
X129818750Y-81125000D01*
X129840191Y-81126053D01*
X129840191Y-81126053D01*
G37*
D11*
X129600000Y-81600000D03*
D10*
G36*
X128265191Y-81126053D02*
X128286426Y-81129203D01*
X128307250Y-81134419D01*
X128327462Y-81141651D01*
X128346868Y-81150830D01*
X128365281Y-81161866D01*
X128382524Y-81174654D01*
X128398430Y-81189070D01*
X128412846Y-81204976D01*
X128425634Y-81222219D01*
X128436670Y-81240632D01*
X128445849Y-81260038D01*
X128453081Y-81280250D01*
X128458297Y-81301074D01*
X128461447Y-81322309D01*
X128462500Y-81343750D01*
X128462500Y-81856250D01*
X128461447Y-81877691D01*
X128458297Y-81898926D01*
X128453081Y-81919750D01*
X128445849Y-81939962D01*
X128436670Y-81959368D01*
X128425634Y-81977781D01*
X128412846Y-81995024D01*
X128398430Y-82010930D01*
X128382524Y-82025346D01*
X128365281Y-82038134D01*
X128346868Y-82049170D01*
X128327462Y-82058349D01*
X128307250Y-82065581D01*
X128286426Y-82070797D01*
X128265191Y-82073947D01*
X128243750Y-82075000D01*
X127806250Y-82075000D01*
X127784809Y-82073947D01*
X127763574Y-82070797D01*
X127742750Y-82065581D01*
X127722538Y-82058349D01*
X127703132Y-82049170D01*
X127684719Y-82038134D01*
X127667476Y-82025346D01*
X127651570Y-82010930D01*
X127637154Y-81995024D01*
X127624366Y-81977781D01*
X127613330Y-81959368D01*
X127604151Y-81939962D01*
X127596919Y-81919750D01*
X127591703Y-81898926D01*
X127588553Y-81877691D01*
X127587500Y-81856250D01*
X127587500Y-81343750D01*
X127588553Y-81322309D01*
X127591703Y-81301074D01*
X127596919Y-81280250D01*
X127604151Y-81260038D01*
X127613330Y-81240632D01*
X127624366Y-81222219D01*
X127637154Y-81204976D01*
X127651570Y-81189070D01*
X127667476Y-81174654D01*
X127684719Y-81161866D01*
X127703132Y-81150830D01*
X127722538Y-81141651D01*
X127742750Y-81134419D01*
X127763574Y-81129203D01*
X127784809Y-81126053D01*
X127806250Y-81125000D01*
X128243750Y-81125000D01*
X128265191Y-81126053D01*
X128265191Y-81126053D01*
G37*
D11*
X128025000Y-81600000D03*
G04 #@! TD*
D10*
G04 #@! TO.C,R2*
G36*
X129827691Y-82626053D02*
X129848926Y-82629203D01*
X129869750Y-82634419D01*
X129889962Y-82641651D01*
X129909368Y-82650830D01*
X129927781Y-82661866D01*
X129945024Y-82674654D01*
X129960930Y-82689070D01*
X129975346Y-82704976D01*
X129988134Y-82722219D01*
X129999170Y-82740632D01*
X130008349Y-82760038D01*
X130015581Y-82780250D01*
X130020797Y-82801074D01*
X130023947Y-82822309D01*
X130025000Y-82843750D01*
X130025000Y-83356250D01*
X130023947Y-83377691D01*
X130020797Y-83398926D01*
X130015581Y-83419750D01*
X130008349Y-83439962D01*
X129999170Y-83459368D01*
X129988134Y-83477781D01*
X129975346Y-83495024D01*
X129960930Y-83510930D01*
X129945024Y-83525346D01*
X129927781Y-83538134D01*
X129909368Y-83549170D01*
X129889962Y-83558349D01*
X129869750Y-83565581D01*
X129848926Y-83570797D01*
X129827691Y-83573947D01*
X129806250Y-83575000D01*
X129368750Y-83575000D01*
X129347309Y-83573947D01*
X129326074Y-83570797D01*
X129305250Y-83565581D01*
X129285038Y-83558349D01*
X129265632Y-83549170D01*
X129247219Y-83538134D01*
X129229976Y-83525346D01*
X129214070Y-83510930D01*
X129199654Y-83495024D01*
X129186866Y-83477781D01*
X129175830Y-83459368D01*
X129166651Y-83439962D01*
X129159419Y-83419750D01*
X129154203Y-83398926D01*
X129151053Y-83377691D01*
X129150000Y-83356250D01*
X129150000Y-82843750D01*
X129151053Y-82822309D01*
X129154203Y-82801074D01*
X129159419Y-82780250D01*
X129166651Y-82760038D01*
X129175830Y-82740632D01*
X129186866Y-82722219D01*
X129199654Y-82704976D01*
X129214070Y-82689070D01*
X129229976Y-82674654D01*
X129247219Y-82661866D01*
X129265632Y-82650830D01*
X129285038Y-82641651D01*
X129305250Y-82634419D01*
X129326074Y-82629203D01*
X129347309Y-82626053D01*
X129368750Y-82625000D01*
X129806250Y-82625000D01*
X129827691Y-82626053D01*
X129827691Y-82626053D01*
G37*
D11*
X129587500Y-83100000D03*
D10*
G36*
X128252691Y-82626053D02*
X128273926Y-82629203D01*
X128294750Y-82634419D01*
X128314962Y-82641651D01*
X128334368Y-82650830D01*
X128352781Y-82661866D01*
X128370024Y-82674654D01*
X128385930Y-82689070D01*
X128400346Y-82704976D01*
X128413134Y-82722219D01*
X128424170Y-82740632D01*
X128433349Y-82760038D01*
X128440581Y-82780250D01*
X128445797Y-82801074D01*
X128448947Y-82822309D01*
X128450000Y-82843750D01*
X128450000Y-83356250D01*
X128448947Y-83377691D01*
X128445797Y-83398926D01*
X128440581Y-83419750D01*
X128433349Y-83439962D01*
X128424170Y-83459368D01*
X128413134Y-83477781D01*
X128400346Y-83495024D01*
X128385930Y-83510930D01*
X128370024Y-83525346D01*
X128352781Y-83538134D01*
X128334368Y-83549170D01*
X128314962Y-83558349D01*
X128294750Y-83565581D01*
X128273926Y-83570797D01*
X128252691Y-83573947D01*
X128231250Y-83575000D01*
X127793750Y-83575000D01*
X127772309Y-83573947D01*
X127751074Y-83570797D01*
X127730250Y-83565581D01*
X127710038Y-83558349D01*
X127690632Y-83549170D01*
X127672219Y-83538134D01*
X127654976Y-83525346D01*
X127639070Y-83510930D01*
X127624654Y-83495024D01*
X127611866Y-83477781D01*
X127600830Y-83459368D01*
X127591651Y-83439962D01*
X127584419Y-83419750D01*
X127579203Y-83398926D01*
X127576053Y-83377691D01*
X127575000Y-83356250D01*
X127575000Y-82843750D01*
X127576053Y-82822309D01*
X127579203Y-82801074D01*
X127584419Y-82780250D01*
X127591651Y-82760038D01*
X127600830Y-82740632D01*
X127611866Y-82722219D01*
X127624654Y-82704976D01*
X127639070Y-82689070D01*
X127654976Y-82674654D01*
X127672219Y-82661866D01*
X127690632Y-82650830D01*
X127710038Y-82641651D01*
X127730250Y-82634419D01*
X127751074Y-82629203D01*
X127772309Y-82626053D01*
X127793750Y-82625000D01*
X128231250Y-82625000D01*
X128252691Y-82626053D01*
X128252691Y-82626053D01*
G37*
D11*
X128012500Y-83100000D03*
G04 #@! TD*
D10*
G04 #@! TO.C,R3*
G36*
X129827691Y-84126053D02*
X129848926Y-84129203D01*
X129869750Y-84134419D01*
X129889962Y-84141651D01*
X129909368Y-84150830D01*
X129927781Y-84161866D01*
X129945024Y-84174654D01*
X129960930Y-84189070D01*
X129975346Y-84204976D01*
X129988134Y-84222219D01*
X129999170Y-84240632D01*
X130008349Y-84260038D01*
X130015581Y-84280250D01*
X130020797Y-84301074D01*
X130023947Y-84322309D01*
X130025000Y-84343750D01*
X130025000Y-84856250D01*
X130023947Y-84877691D01*
X130020797Y-84898926D01*
X130015581Y-84919750D01*
X130008349Y-84939962D01*
X129999170Y-84959368D01*
X129988134Y-84977781D01*
X129975346Y-84995024D01*
X129960930Y-85010930D01*
X129945024Y-85025346D01*
X129927781Y-85038134D01*
X129909368Y-85049170D01*
X129889962Y-85058349D01*
X129869750Y-85065581D01*
X129848926Y-85070797D01*
X129827691Y-85073947D01*
X129806250Y-85075000D01*
X129368750Y-85075000D01*
X129347309Y-85073947D01*
X129326074Y-85070797D01*
X129305250Y-85065581D01*
X129285038Y-85058349D01*
X129265632Y-85049170D01*
X129247219Y-85038134D01*
X129229976Y-85025346D01*
X129214070Y-85010930D01*
X129199654Y-84995024D01*
X129186866Y-84977781D01*
X129175830Y-84959368D01*
X129166651Y-84939962D01*
X129159419Y-84919750D01*
X129154203Y-84898926D01*
X129151053Y-84877691D01*
X129150000Y-84856250D01*
X129150000Y-84343750D01*
X129151053Y-84322309D01*
X129154203Y-84301074D01*
X129159419Y-84280250D01*
X129166651Y-84260038D01*
X129175830Y-84240632D01*
X129186866Y-84222219D01*
X129199654Y-84204976D01*
X129214070Y-84189070D01*
X129229976Y-84174654D01*
X129247219Y-84161866D01*
X129265632Y-84150830D01*
X129285038Y-84141651D01*
X129305250Y-84134419D01*
X129326074Y-84129203D01*
X129347309Y-84126053D01*
X129368750Y-84125000D01*
X129806250Y-84125000D01*
X129827691Y-84126053D01*
X129827691Y-84126053D01*
G37*
D11*
X129587500Y-84600000D03*
D10*
G36*
X128252691Y-84126053D02*
X128273926Y-84129203D01*
X128294750Y-84134419D01*
X128314962Y-84141651D01*
X128334368Y-84150830D01*
X128352781Y-84161866D01*
X128370024Y-84174654D01*
X128385930Y-84189070D01*
X128400346Y-84204976D01*
X128413134Y-84222219D01*
X128424170Y-84240632D01*
X128433349Y-84260038D01*
X128440581Y-84280250D01*
X128445797Y-84301074D01*
X128448947Y-84322309D01*
X128450000Y-84343750D01*
X128450000Y-84856250D01*
X128448947Y-84877691D01*
X128445797Y-84898926D01*
X128440581Y-84919750D01*
X128433349Y-84939962D01*
X128424170Y-84959368D01*
X128413134Y-84977781D01*
X128400346Y-84995024D01*
X128385930Y-85010930D01*
X128370024Y-85025346D01*
X128352781Y-85038134D01*
X128334368Y-85049170D01*
X128314962Y-85058349D01*
X128294750Y-85065581D01*
X128273926Y-85070797D01*
X128252691Y-85073947D01*
X128231250Y-85075000D01*
X127793750Y-85075000D01*
X127772309Y-85073947D01*
X127751074Y-85070797D01*
X127730250Y-85065581D01*
X127710038Y-85058349D01*
X127690632Y-85049170D01*
X127672219Y-85038134D01*
X127654976Y-85025346D01*
X127639070Y-85010930D01*
X127624654Y-84995024D01*
X127611866Y-84977781D01*
X127600830Y-84959368D01*
X127591651Y-84939962D01*
X127584419Y-84919750D01*
X127579203Y-84898926D01*
X127576053Y-84877691D01*
X127575000Y-84856250D01*
X127575000Y-84343750D01*
X127576053Y-84322309D01*
X127579203Y-84301074D01*
X127584419Y-84280250D01*
X127591651Y-84260038D01*
X127600830Y-84240632D01*
X127611866Y-84222219D01*
X127624654Y-84204976D01*
X127639070Y-84189070D01*
X127654976Y-84174654D01*
X127672219Y-84161866D01*
X127690632Y-84150830D01*
X127710038Y-84141651D01*
X127730250Y-84134419D01*
X127751074Y-84129203D01*
X127772309Y-84126053D01*
X127793750Y-84125000D01*
X128231250Y-84125000D01*
X128252691Y-84126053D01*
X128252691Y-84126053D01*
G37*
D11*
X128012500Y-84600000D03*
G04 #@! TD*
D10*
G04 #@! TO.C,R4*
G36*
X128252691Y-79626053D02*
X128273926Y-79629203D01*
X128294750Y-79634419D01*
X128314962Y-79641651D01*
X128334368Y-79650830D01*
X128352781Y-79661866D01*
X128370024Y-79674654D01*
X128385930Y-79689070D01*
X128400346Y-79704976D01*
X128413134Y-79722219D01*
X128424170Y-79740632D01*
X128433349Y-79760038D01*
X128440581Y-79780250D01*
X128445797Y-79801074D01*
X128448947Y-79822309D01*
X128450000Y-79843750D01*
X128450000Y-80356250D01*
X128448947Y-80377691D01*
X128445797Y-80398926D01*
X128440581Y-80419750D01*
X128433349Y-80439962D01*
X128424170Y-80459368D01*
X128413134Y-80477781D01*
X128400346Y-80495024D01*
X128385930Y-80510930D01*
X128370024Y-80525346D01*
X128352781Y-80538134D01*
X128334368Y-80549170D01*
X128314962Y-80558349D01*
X128294750Y-80565581D01*
X128273926Y-80570797D01*
X128252691Y-80573947D01*
X128231250Y-80575000D01*
X127793750Y-80575000D01*
X127772309Y-80573947D01*
X127751074Y-80570797D01*
X127730250Y-80565581D01*
X127710038Y-80558349D01*
X127690632Y-80549170D01*
X127672219Y-80538134D01*
X127654976Y-80525346D01*
X127639070Y-80510930D01*
X127624654Y-80495024D01*
X127611866Y-80477781D01*
X127600830Y-80459368D01*
X127591651Y-80439962D01*
X127584419Y-80419750D01*
X127579203Y-80398926D01*
X127576053Y-80377691D01*
X127575000Y-80356250D01*
X127575000Y-79843750D01*
X127576053Y-79822309D01*
X127579203Y-79801074D01*
X127584419Y-79780250D01*
X127591651Y-79760038D01*
X127600830Y-79740632D01*
X127611866Y-79722219D01*
X127624654Y-79704976D01*
X127639070Y-79689070D01*
X127654976Y-79674654D01*
X127672219Y-79661866D01*
X127690632Y-79650830D01*
X127710038Y-79641651D01*
X127730250Y-79634419D01*
X127751074Y-79629203D01*
X127772309Y-79626053D01*
X127793750Y-79625000D01*
X128231250Y-79625000D01*
X128252691Y-79626053D01*
X128252691Y-79626053D01*
G37*
D11*
X128012500Y-80100000D03*
D10*
G36*
X129827691Y-79626053D02*
X129848926Y-79629203D01*
X129869750Y-79634419D01*
X129889962Y-79641651D01*
X129909368Y-79650830D01*
X129927781Y-79661866D01*
X129945024Y-79674654D01*
X129960930Y-79689070D01*
X129975346Y-79704976D01*
X129988134Y-79722219D01*
X129999170Y-79740632D01*
X130008349Y-79760038D01*
X130015581Y-79780250D01*
X130020797Y-79801074D01*
X130023947Y-79822309D01*
X130025000Y-79843750D01*
X130025000Y-80356250D01*
X130023947Y-80377691D01*
X130020797Y-80398926D01*
X130015581Y-80419750D01*
X130008349Y-80439962D01*
X129999170Y-80459368D01*
X129988134Y-80477781D01*
X129975346Y-80495024D01*
X129960930Y-80510930D01*
X129945024Y-80525346D01*
X129927781Y-80538134D01*
X129909368Y-80549170D01*
X129889962Y-80558349D01*
X129869750Y-80565581D01*
X129848926Y-80570797D01*
X129827691Y-80573947D01*
X129806250Y-80575000D01*
X129368750Y-80575000D01*
X129347309Y-80573947D01*
X129326074Y-80570797D01*
X129305250Y-80565581D01*
X129285038Y-80558349D01*
X129265632Y-80549170D01*
X129247219Y-80538134D01*
X129229976Y-80525346D01*
X129214070Y-80510930D01*
X129199654Y-80495024D01*
X129186866Y-80477781D01*
X129175830Y-80459368D01*
X129166651Y-80439962D01*
X129159419Y-80419750D01*
X129154203Y-80398926D01*
X129151053Y-80377691D01*
X129150000Y-80356250D01*
X129150000Y-79843750D01*
X129151053Y-79822309D01*
X129154203Y-79801074D01*
X129159419Y-79780250D01*
X129166651Y-79760038D01*
X129175830Y-79740632D01*
X129186866Y-79722219D01*
X129199654Y-79704976D01*
X129214070Y-79689070D01*
X129229976Y-79674654D01*
X129247219Y-79661866D01*
X129265632Y-79650830D01*
X129285038Y-79641651D01*
X129305250Y-79634419D01*
X129326074Y-79629203D01*
X129347309Y-79626053D01*
X129368750Y-79625000D01*
X129806250Y-79625000D01*
X129827691Y-79626053D01*
X129827691Y-79626053D01*
G37*
D11*
X129587500Y-80100000D03*
G04 #@! TD*
D10*
G04 #@! TO.C,R5*
G36*
X128252691Y-78126053D02*
X128273926Y-78129203D01*
X128294750Y-78134419D01*
X128314962Y-78141651D01*
X128334368Y-78150830D01*
X128352781Y-78161866D01*
X128370024Y-78174654D01*
X128385930Y-78189070D01*
X128400346Y-78204976D01*
X128413134Y-78222219D01*
X128424170Y-78240632D01*
X128433349Y-78260038D01*
X128440581Y-78280250D01*
X128445797Y-78301074D01*
X128448947Y-78322309D01*
X128450000Y-78343750D01*
X128450000Y-78856250D01*
X128448947Y-78877691D01*
X128445797Y-78898926D01*
X128440581Y-78919750D01*
X128433349Y-78939962D01*
X128424170Y-78959368D01*
X128413134Y-78977781D01*
X128400346Y-78995024D01*
X128385930Y-79010930D01*
X128370024Y-79025346D01*
X128352781Y-79038134D01*
X128334368Y-79049170D01*
X128314962Y-79058349D01*
X128294750Y-79065581D01*
X128273926Y-79070797D01*
X128252691Y-79073947D01*
X128231250Y-79075000D01*
X127793750Y-79075000D01*
X127772309Y-79073947D01*
X127751074Y-79070797D01*
X127730250Y-79065581D01*
X127710038Y-79058349D01*
X127690632Y-79049170D01*
X127672219Y-79038134D01*
X127654976Y-79025346D01*
X127639070Y-79010930D01*
X127624654Y-78995024D01*
X127611866Y-78977781D01*
X127600830Y-78959368D01*
X127591651Y-78939962D01*
X127584419Y-78919750D01*
X127579203Y-78898926D01*
X127576053Y-78877691D01*
X127575000Y-78856250D01*
X127575000Y-78343750D01*
X127576053Y-78322309D01*
X127579203Y-78301074D01*
X127584419Y-78280250D01*
X127591651Y-78260038D01*
X127600830Y-78240632D01*
X127611866Y-78222219D01*
X127624654Y-78204976D01*
X127639070Y-78189070D01*
X127654976Y-78174654D01*
X127672219Y-78161866D01*
X127690632Y-78150830D01*
X127710038Y-78141651D01*
X127730250Y-78134419D01*
X127751074Y-78129203D01*
X127772309Y-78126053D01*
X127793750Y-78125000D01*
X128231250Y-78125000D01*
X128252691Y-78126053D01*
X128252691Y-78126053D01*
G37*
D11*
X128012500Y-78600000D03*
D10*
G36*
X129827691Y-78126053D02*
X129848926Y-78129203D01*
X129869750Y-78134419D01*
X129889962Y-78141651D01*
X129909368Y-78150830D01*
X129927781Y-78161866D01*
X129945024Y-78174654D01*
X129960930Y-78189070D01*
X129975346Y-78204976D01*
X129988134Y-78222219D01*
X129999170Y-78240632D01*
X130008349Y-78260038D01*
X130015581Y-78280250D01*
X130020797Y-78301074D01*
X130023947Y-78322309D01*
X130025000Y-78343750D01*
X130025000Y-78856250D01*
X130023947Y-78877691D01*
X130020797Y-78898926D01*
X130015581Y-78919750D01*
X130008349Y-78939962D01*
X129999170Y-78959368D01*
X129988134Y-78977781D01*
X129975346Y-78995024D01*
X129960930Y-79010930D01*
X129945024Y-79025346D01*
X129927781Y-79038134D01*
X129909368Y-79049170D01*
X129889962Y-79058349D01*
X129869750Y-79065581D01*
X129848926Y-79070797D01*
X129827691Y-79073947D01*
X129806250Y-79075000D01*
X129368750Y-79075000D01*
X129347309Y-79073947D01*
X129326074Y-79070797D01*
X129305250Y-79065581D01*
X129285038Y-79058349D01*
X129265632Y-79049170D01*
X129247219Y-79038134D01*
X129229976Y-79025346D01*
X129214070Y-79010930D01*
X129199654Y-78995024D01*
X129186866Y-78977781D01*
X129175830Y-78959368D01*
X129166651Y-78939962D01*
X129159419Y-78919750D01*
X129154203Y-78898926D01*
X129151053Y-78877691D01*
X129150000Y-78856250D01*
X129150000Y-78343750D01*
X129151053Y-78322309D01*
X129154203Y-78301074D01*
X129159419Y-78280250D01*
X129166651Y-78260038D01*
X129175830Y-78240632D01*
X129186866Y-78222219D01*
X129199654Y-78204976D01*
X129214070Y-78189070D01*
X129229976Y-78174654D01*
X129247219Y-78161866D01*
X129265632Y-78150830D01*
X129285038Y-78141651D01*
X129305250Y-78134419D01*
X129326074Y-78129203D01*
X129347309Y-78126053D01*
X129368750Y-78125000D01*
X129806250Y-78125000D01*
X129827691Y-78126053D01*
X129827691Y-78126053D01*
G37*
D11*
X129587500Y-78600000D03*
G04 #@! TD*
D12*
G04 #@! TO.C,U1*
X119995000Y-79400000D03*
X121265000Y-79400000D03*
X122535000Y-79400000D03*
X123805000Y-79400000D03*
X123805000Y-84800000D03*
X122535000Y-84800000D03*
X121265000Y-84800000D03*
X119995000Y-84800000D03*
G04 #@! TD*
M02*
