G04 #@! TF.GenerationSoftware,KiCad,Pcbnew,(5.0.2)-1*
G04 #@! TF.CreationDate,2019-01-19T12:13:54+11:00*
G04 #@! TF.ProjectId,WarGames_SAO,57617247-616d-4657-935f-53414f2e6b69,rev?*
G04 #@! TF.SameCoordinates,Original*
G04 #@! TF.FileFunction,Paste,Top*
G04 #@! TF.FilePolarity,Positive*
%FSLAX46Y46*%
G04 Gerber Fmt 4.6, Leading zero omitted, Abs format (unit mm)*
G04 Created by KiCad (PCBNEW (5.0.2)-1) date 19/01/2019 12:13:54*
%MOMM*%
%LPD*%
G01*
G04 APERTURE LIST*
%ADD10C,0.100000*%
%ADD11C,0.875000*%
G04 APERTURE END LIST*
D10*
G04 #@! TO.C,D1*
G36*
X114752691Y-49526053D02*
X114773926Y-49529203D01*
X114794750Y-49534419D01*
X114814962Y-49541651D01*
X114834368Y-49550830D01*
X114852781Y-49561866D01*
X114870024Y-49574654D01*
X114885930Y-49589070D01*
X114900346Y-49604976D01*
X114913134Y-49622219D01*
X114924170Y-49640632D01*
X114933349Y-49660038D01*
X114940581Y-49680250D01*
X114945797Y-49701074D01*
X114948947Y-49722309D01*
X114950000Y-49743750D01*
X114950000Y-50256250D01*
X114948947Y-50277691D01*
X114945797Y-50298926D01*
X114940581Y-50319750D01*
X114933349Y-50339962D01*
X114924170Y-50359368D01*
X114913134Y-50377781D01*
X114900346Y-50395024D01*
X114885930Y-50410930D01*
X114870024Y-50425346D01*
X114852781Y-50438134D01*
X114834368Y-50449170D01*
X114814962Y-50458349D01*
X114794750Y-50465581D01*
X114773926Y-50470797D01*
X114752691Y-50473947D01*
X114731250Y-50475000D01*
X114293750Y-50475000D01*
X114272309Y-50473947D01*
X114251074Y-50470797D01*
X114230250Y-50465581D01*
X114210038Y-50458349D01*
X114190632Y-50449170D01*
X114172219Y-50438134D01*
X114154976Y-50425346D01*
X114139070Y-50410930D01*
X114124654Y-50395024D01*
X114111866Y-50377781D01*
X114100830Y-50359368D01*
X114091651Y-50339962D01*
X114084419Y-50319750D01*
X114079203Y-50298926D01*
X114076053Y-50277691D01*
X114075000Y-50256250D01*
X114075000Y-49743750D01*
X114076053Y-49722309D01*
X114079203Y-49701074D01*
X114084419Y-49680250D01*
X114091651Y-49660038D01*
X114100830Y-49640632D01*
X114111866Y-49622219D01*
X114124654Y-49604976D01*
X114139070Y-49589070D01*
X114154976Y-49574654D01*
X114172219Y-49561866D01*
X114190632Y-49550830D01*
X114210038Y-49541651D01*
X114230250Y-49534419D01*
X114251074Y-49529203D01*
X114272309Y-49526053D01*
X114293750Y-49525000D01*
X114731250Y-49525000D01*
X114752691Y-49526053D01*
X114752691Y-49526053D01*
G37*
D11*
X114512500Y-50000000D03*
D10*
G36*
X116327691Y-49526053D02*
X116348926Y-49529203D01*
X116369750Y-49534419D01*
X116389962Y-49541651D01*
X116409368Y-49550830D01*
X116427781Y-49561866D01*
X116445024Y-49574654D01*
X116460930Y-49589070D01*
X116475346Y-49604976D01*
X116488134Y-49622219D01*
X116499170Y-49640632D01*
X116508349Y-49660038D01*
X116515581Y-49680250D01*
X116520797Y-49701074D01*
X116523947Y-49722309D01*
X116525000Y-49743750D01*
X116525000Y-50256250D01*
X116523947Y-50277691D01*
X116520797Y-50298926D01*
X116515581Y-50319750D01*
X116508349Y-50339962D01*
X116499170Y-50359368D01*
X116488134Y-50377781D01*
X116475346Y-50395024D01*
X116460930Y-50410930D01*
X116445024Y-50425346D01*
X116427781Y-50438134D01*
X116409368Y-50449170D01*
X116389962Y-50458349D01*
X116369750Y-50465581D01*
X116348926Y-50470797D01*
X116327691Y-50473947D01*
X116306250Y-50475000D01*
X115868750Y-50475000D01*
X115847309Y-50473947D01*
X115826074Y-50470797D01*
X115805250Y-50465581D01*
X115785038Y-50458349D01*
X115765632Y-50449170D01*
X115747219Y-50438134D01*
X115729976Y-50425346D01*
X115714070Y-50410930D01*
X115699654Y-50395024D01*
X115686866Y-50377781D01*
X115675830Y-50359368D01*
X115666651Y-50339962D01*
X115659419Y-50319750D01*
X115654203Y-50298926D01*
X115651053Y-50277691D01*
X115650000Y-50256250D01*
X115650000Y-49743750D01*
X115651053Y-49722309D01*
X115654203Y-49701074D01*
X115659419Y-49680250D01*
X115666651Y-49660038D01*
X115675830Y-49640632D01*
X115686866Y-49622219D01*
X115699654Y-49604976D01*
X115714070Y-49589070D01*
X115729976Y-49574654D01*
X115747219Y-49561866D01*
X115765632Y-49550830D01*
X115785038Y-49541651D01*
X115805250Y-49534419D01*
X115826074Y-49529203D01*
X115847309Y-49526053D01*
X115868750Y-49525000D01*
X116306250Y-49525000D01*
X116327691Y-49526053D01*
X116327691Y-49526053D01*
G37*
D11*
X116087500Y-50000000D03*
G04 #@! TD*
D10*
G04 #@! TO.C,D2*
G36*
X127952691Y-49626053D02*
X127973926Y-49629203D01*
X127994750Y-49634419D01*
X128014962Y-49641651D01*
X128034368Y-49650830D01*
X128052781Y-49661866D01*
X128070024Y-49674654D01*
X128085930Y-49689070D01*
X128100346Y-49704976D01*
X128113134Y-49722219D01*
X128124170Y-49740632D01*
X128133349Y-49760038D01*
X128140581Y-49780250D01*
X128145797Y-49801074D01*
X128148947Y-49822309D01*
X128150000Y-49843750D01*
X128150000Y-50356250D01*
X128148947Y-50377691D01*
X128145797Y-50398926D01*
X128140581Y-50419750D01*
X128133349Y-50439962D01*
X128124170Y-50459368D01*
X128113134Y-50477781D01*
X128100346Y-50495024D01*
X128085930Y-50510930D01*
X128070024Y-50525346D01*
X128052781Y-50538134D01*
X128034368Y-50549170D01*
X128014962Y-50558349D01*
X127994750Y-50565581D01*
X127973926Y-50570797D01*
X127952691Y-50573947D01*
X127931250Y-50575000D01*
X127493750Y-50575000D01*
X127472309Y-50573947D01*
X127451074Y-50570797D01*
X127430250Y-50565581D01*
X127410038Y-50558349D01*
X127390632Y-50549170D01*
X127372219Y-50538134D01*
X127354976Y-50525346D01*
X127339070Y-50510930D01*
X127324654Y-50495024D01*
X127311866Y-50477781D01*
X127300830Y-50459368D01*
X127291651Y-50439962D01*
X127284419Y-50419750D01*
X127279203Y-50398926D01*
X127276053Y-50377691D01*
X127275000Y-50356250D01*
X127275000Y-49843750D01*
X127276053Y-49822309D01*
X127279203Y-49801074D01*
X127284419Y-49780250D01*
X127291651Y-49760038D01*
X127300830Y-49740632D01*
X127311866Y-49722219D01*
X127324654Y-49704976D01*
X127339070Y-49689070D01*
X127354976Y-49674654D01*
X127372219Y-49661866D01*
X127390632Y-49650830D01*
X127410038Y-49641651D01*
X127430250Y-49634419D01*
X127451074Y-49629203D01*
X127472309Y-49626053D01*
X127493750Y-49625000D01*
X127931250Y-49625000D01*
X127952691Y-49626053D01*
X127952691Y-49626053D01*
G37*
D11*
X127712500Y-50100000D03*
D10*
G36*
X129527691Y-49626053D02*
X129548926Y-49629203D01*
X129569750Y-49634419D01*
X129589962Y-49641651D01*
X129609368Y-49650830D01*
X129627781Y-49661866D01*
X129645024Y-49674654D01*
X129660930Y-49689070D01*
X129675346Y-49704976D01*
X129688134Y-49722219D01*
X129699170Y-49740632D01*
X129708349Y-49760038D01*
X129715581Y-49780250D01*
X129720797Y-49801074D01*
X129723947Y-49822309D01*
X129725000Y-49843750D01*
X129725000Y-50356250D01*
X129723947Y-50377691D01*
X129720797Y-50398926D01*
X129715581Y-50419750D01*
X129708349Y-50439962D01*
X129699170Y-50459368D01*
X129688134Y-50477781D01*
X129675346Y-50495024D01*
X129660930Y-50510930D01*
X129645024Y-50525346D01*
X129627781Y-50538134D01*
X129609368Y-50549170D01*
X129589962Y-50558349D01*
X129569750Y-50565581D01*
X129548926Y-50570797D01*
X129527691Y-50573947D01*
X129506250Y-50575000D01*
X129068750Y-50575000D01*
X129047309Y-50573947D01*
X129026074Y-50570797D01*
X129005250Y-50565581D01*
X128985038Y-50558349D01*
X128965632Y-50549170D01*
X128947219Y-50538134D01*
X128929976Y-50525346D01*
X128914070Y-50510930D01*
X128899654Y-50495024D01*
X128886866Y-50477781D01*
X128875830Y-50459368D01*
X128866651Y-50439962D01*
X128859419Y-50419750D01*
X128854203Y-50398926D01*
X128851053Y-50377691D01*
X128850000Y-50356250D01*
X128850000Y-49843750D01*
X128851053Y-49822309D01*
X128854203Y-49801074D01*
X128859419Y-49780250D01*
X128866651Y-49760038D01*
X128875830Y-49740632D01*
X128886866Y-49722219D01*
X128899654Y-49704976D01*
X128914070Y-49689070D01*
X128929976Y-49674654D01*
X128947219Y-49661866D01*
X128965632Y-49650830D01*
X128985038Y-49641651D01*
X129005250Y-49634419D01*
X129026074Y-49629203D01*
X129047309Y-49626053D01*
X129068750Y-49625000D01*
X129506250Y-49625000D01*
X129527691Y-49626053D01*
X129527691Y-49626053D01*
G37*
D11*
X129287500Y-50100000D03*
G04 #@! TD*
D10*
G04 #@! TO.C,D3*
G36*
X114752691Y-50926053D02*
X114773926Y-50929203D01*
X114794750Y-50934419D01*
X114814962Y-50941651D01*
X114834368Y-50950830D01*
X114852781Y-50961866D01*
X114870024Y-50974654D01*
X114885930Y-50989070D01*
X114900346Y-51004976D01*
X114913134Y-51022219D01*
X114924170Y-51040632D01*
X114933349Y-51060038D01*
X114940581Y-51080250D01*
X114945797Y-51101074D01*
X114948947Y-51122309D01*
X114950000Y-51143750D01*
X114950000Y-51656250D01*
X114948947Y-51677691D01*
X114945797Y-51698926D01*
X114940581Y-51719750D01*
X114933349Y-51739962D01*
X114924170Y-51759368D01*
X114913134Y-51777781D01*
X114900346Y-51795024D01*
X114885930Y-51810930D01*
X114870024Y-51825346D01*
X114852781Y-51838134D01*
X114834368Y-51849170D01*
X114814962Y-51858349D01*
X114794750Y-51865581D01*
X114773926Y-51870797D01*
X114752691Y-51873947D01*
X114731250Y-51875000D01*
X114293750Y-51875000D01*
X114272309Y-51873947D01*
X114251074Y-51870797D01*
X114230250Y-51865581D01*
X114210038Y-51858349D01*
X114190632Y-51849170D01*
X114172219Y-51838134D01*
X114154976Y-51825346D01*
X114139070Y-51810930D01*
X114124654Y-51795024D01*
X114111866Y-51777781D01*
X114100830Y-51759368D01*
X114091651Y-51739962D01*
X114084419Y-51719750D01*
X114079203Y-51698926D01*
X114076053Y-51677691D01*
X114075000Y-51656250D01*
X114075000Y-51143750D01*
X114076053Y-51122309D01*
X114079203Y-51101074D01*
X114084419Y-51080250D01*
X114091651Y-51060038D01*
X114100830Y-51040632D01*
X114111866Y-51022219D01*
X114124654Y-51004976D01*
X114139070Y-50989070D01*
X114154976Y-50974654D01*
X114172219Y-50961866D01*
X114190632Y-50950830D01*
X114210038Y-50941651D01*
X114230250Y-50934419D01*
X114251074Y-50929203D01*
X114272309Y-50926053D01*
X114293750Y-50925000D01*
X114731250Y-50925000D01*
X114752691Y-50926053D01*
X114752691Y-50926053D01*
G37*
D11*
X114512500Y-51400000D03*
D10*
G36*
X116327691Y-50926053D02*
X116348926Y-50929203D01*
X116369750Y-50934419D01*
X116389962Y-50941651D01*
X116409368Y-50950830D01*
X116427781Y-50961866D01*
X116445024Y-50974654D01*
X116460930Y-50989070D01*
X116475346Y-51004976D01*
X116488134Y-51022219D01*
X116499170Y-51040632D01*
X116508349Y-51060038D01*
X116515581Y-51080250D01*
X116520797Y-51101074D01*
X116523947Y-51122309D01*
X116525000Y-51143750D01*
X116525000Y-51656250D01*
X116523947Y-51677691D01*
X116520797Y-51698926D01*
X116515581Y-51719750D01*
X116508349Y-51739962D01*
X116499170Y-51759368D01*
X116488134Y-51777781D01*
X116475346Y-51795024D01*
X116460930Y-51810930D01*
X116445024Y-51825346D01*
X116427781Y-51838134D01*
X116409368Y-51849170D01*
X116389962Y-51858349D01*
X116369750Y-51865581D01*
X116348926Y-51870797D01*
X116327691Y-51873947D01*
X116306250Y-51875000D01*
X115868750Y-51875000D01*
X115847309Y-51873947D01*
X115826074Y-51870797D01*
X115805250Y-51865581D01*
X115785038Y-51858349D01*
X115765632Y-51849170D01*
X115747219Y-51838134D01*
X115729976Y-51825346D01*
X115714070Y-51810930D01*
X115699654Y-51795024D01*
X115686866Y-51777781D01*
X115675830Y-51759368D01*
X115666651Y-51739962D01*
X115659419Y-51719750D01*
X115654203Y-51698926D01*
X115651053Y-51677691D01*
X115650000Y-51656250D01*
X115650000Y-51143750D01*
X115651053Y-51122309D01*
X115654203Y-51101074D01*
X115659419Y-51080250D01*
X115666651Y-51060038D01*
X115675830Y-51040632D01*
X115686866Y-51022219D01*
X115699654Y-51004976D01*
X115714070Y-50989070D01*
X115729976Y-50974654D01*
X115747219Y-50961866D01*
X115765632Y-50950830D01*
X115785038Y-50941651D01*
X115805250Y-50934419D01*
X115826074Y-50929203D01*
X115847309Y-50926053D01*
X115868750Y-50925000D01*
X116306250Y-50925000D01*
X116327691Y-50926053D01*
X116327691Y-50926053D01*
G37*
D11*
X116087500Y-51400000D03*
G04 #@! TD*
D10*
G04 #@! TO.C,D4*
G36*
X127952691Y-51126053D02*
X127973926Y-51129203D01*
X127994750Y-51134419D01*
X128014962Y-51141651D01*
X128034368Y-51150830D01*
X128052781Y-51161866D01*
X128070024Y-51174654D01*
X128085930Y-51189070D01*
X128100346Y-51204976D01*
X128113134Y-51222219D01*
X128124170Y-51240632D01*
X128133349Y-51260038D01*
X128140581Y-51280250D01*
X128145797Y-51301074D01*
X128148947Y-51322309D01*
X128150000Y-51343750D01*
X128150000Y-51856250D01*
X128148947Y-51877691D01*
X128145797Y-51898926D01*
X128140581Y-51919750D01*
X128133349Y-51939962D01*
X128124170Y-51959368D01*
X128113134Y-51977781D01*
X128100346Y-51995024D01*
X128085930Y-52010930D01*
X128070024Y-52025346D01*
X128052781Y-52038134D01*
X128034368Y-52049170D01*
X128014962Y-52058349D01*
X127994750Y-52065581D01*
X127973926Y-52070797D01*
X127952691Y-52073947D01*
X127931250Y-52075000D01*
X127493750Y-52075000D01*
X127472309Y-52073947D01*
X127451074Y-52070797D01*
X127430250Y-52065581D01*
X127410038Y-52058349D01*
X127390632Y-52049170D01*
X127372219Y-52038134D01*
X127354976Y-52025346D01*
X127339070Y-52010930D01*
X127324654Y-51995024D01*
X127311866Y-51977781D01*
X127300830Y-51959368D01*
X127291651Y-51939962D01*
X127284419Y-51919750D01*
X127279203Y-51898926D01*
X127276053Y-51877691D01*
X127275000Y-51856250D01*
X127275000Y-51343750D01*
X127276053Y-51322309D01*
X127279203Y-51301074D01*
X127284419Y-51280250D01*
X127291651Y-51260038D01*
X127300830Y-51240632D01*
X127311866Y-51222219D01*
X127324654Y-51204976D01*
X127339070Y-51189070D01*
X127354976Y-51174654D01*
X127372219Y-51161866D01*
X127390632Y-51150830D01*
X127410038Y-51141651D01*
X127430250Y-51134419D01*
X127451074Y-51129203D01*
X127472309Y-51126053D01*
X127493750Y-51125000D01*
X127931250Y-51125000D01*
X127952691Y-51126053D01*
X127952691Y-51126053D01*
G37*
D11*
X127712500Y-51600000D03*
D10*
G36*
X129527691Y-51126053D02*
X129548926Y-51129203D01*
X129569750Y-51134419D01*
X129589962Y-51141651D01*
X129609368Y-51150830D01*
X129627781Y-51161866D01*
X129645024Y-51174654D01*
X129660930Y-51189070D01*
X129675346Y-51204976D01*
X129688134Y-51222219D01*
X129699170Y-51240632D01*
X129708349Y-51260038D01*
X129715581Y-51280250D01*
X129720797Y-51301074D01*
X129723947Y-51322309D01*
X129725000Y-51343750D01*
X129725000Y-51856250D01*
X129723947Y-51877691D01*
X129720797Y-51898926D01*
X129715581Y-51919750D01*
X129708349Y-51939962D01*
X129699170Y-51959368D01*
X129688134Y-51977781D01*
X129675346Y-51995024D01*
X129660930Y-52010930D01*
X129645024Y-52025346D01*
X129627781Y-52038134D01*
X129609368Y-52049170D01*
X129589962Y-52058349D01*
X129569750Y-52065581D01*
X129548926Y-52070797D01*
X129527691Y-52073947D01*
X129506250Y-52075000D01*
X129068750Y-52075000D01*
X129047309Y-52073947D01*
X129026074Y-52070797D01*
X129005250Y-52065581D01*
X128985038Y-52058349D01*
X128965632Y-52049170D01*
X128947219Y-52038134D01*
X128929976Y-52025346D01*
X128914070Y-52010930D01*
X128899654Y-51995024D01*
X128886866Y-51977781D01*
X128875830Y-51959368D01*
X128866651Y-51939962D01*
X128859419Y-51919750D01*
X128854203Y-51898926D01*
X128851053Y-51877691D01*
X128850000Y-51856250D01*
X128850000Y-51343750D01*
X128851053Y-51322309D01*
X128854203Y-51301074D01*
X128859419Y-51280250D01*
X128866651Y-51260038D01*
X128875830Y-51240632D01*
X128886866Y-51222219D01*
X128899654Y-51204976D01*
X128914070Y-51189070D01*
X128929976Y-51174654D01*
X128947219Y-51161866D01*
X128965632Y-51150830D01*
X128985038Y-51141651D01*
X129005250Y-51134419D01*
X129026074Y-51129203D01*
X129047309Y-51126053D01*
X129068750Y-51125000D01*
X129506250Y-51125000D01*
X129527691Y-51126053D01*
X129527691Y-51126053D01*
G37*
D11*
X129287500Y-51600000D03*
G04 #@! TD*
D10*
G04 #@! TO.C,D5*
G36*
X141252691Y-49626053D02*
X141273926Y-49629203D01*
X141294750Y-49634419D01*
X141314962Y-49641651D01*
X141334368Y-49650830D01*
X141352781Y-49661866D01*
X141370024Y-49674654D01*
X141385930Y-49689070D01*
X141400346Y-49704976D01*
X141413134Y-49722219D01*
X141424170Y-49740632D01*
X141433349Y-49760038D01*
X141440581Y-49780250D01*
X141445797Y-49801074D01*
X141448947Y-49822309D01*
X141450000Y-49843750D01*
X141450000Y-50356250D01*
X141448947Y-50377691D01*
X141445797Y-50398926D01*
X141440581Y-50419750D01*
X141433349Y-50439962D01*
X141424170Y-50459368D01*
X141413134Y-50477781D01*
X141400346Y-50495024D01*
X141385930Y-50510930D01*
X141370024Y-50525346D01*
X141352781Y-50538134D01*
X141334368Y-50549170D01*
X141314962Y-50558349D01*
X141294750Y-50565581D01*
X141273926Y-50570797D01*
X141252691Y-50573947D01*
X141231250Y-50575000D01*
X140793750Y-50575000D01*
X140772309Y-50573947D01*
X140751074Y-50570797D01*
X140730250Y-50565581D01*
X140710038Y-50558349D01*
X140690632Y-50549170D01*
X140672219Y-50538134D01*
X140654976Y-50525346D01*
X140639070Y-50510930D01*
X140624654Y-50495024D01*
X140611866Y-50477781D01*
X140600830Y-50459368D01*
X140591651Y-50439962D01*
X140584419Y-50419750D01*
X140579203Y-50398926D01*
X140576053Y-50377691D01*
X140575000Y-50356250D01*
X140575000Y-49843750D01*
X140576053Y-49822309D01*
X140579203Y-49801074D01*
X140584419Y-49780250D01*
X140591651Y-49760038D01*
X140600830Y-49740632D01*
X140611866Y-49722219D01*
X140624654Y-49704976D01*
X140639070Y-49689070D01*
X140654976Y-49674654D01*
X140672219Y-49661866D01*
X140690632Y-49650830D01*
X140710038Y-49641651D01*
X140730250Y-49634419D01*
X140751074Y-49629203D01*
X140772309Y-49626053D01*
X140793750Y-49625000D01*
X141231250Y-49625000D01*
X141252691Y-49626053D01*
X141252691Y-49626053D01*
G37*
D11*
X141012500Y-50100000D03*
D10*
G36*
X142827691Y-49626053D02*
X142848926Y-49629203D01*
X142869750Y-49634419D01*
X142889962Y-49641651D01*
X142909368Y-49650830D01*
X142927781Y-49661866D01*
X142945024Y-49674654D01*
X142960930Y-49689070D01*
X142975346Y-49704976D01*
X142988134Y-49722219D01*
X142999170Y-49740632D01*
X143008349Y-49760038D01*
X143015581Y-49780250D01*
X143020797Y-49801074D01*
X143023947Y-49822309D01*
X143025000Y-49843750D01*
X143025000Y-50356250D01*
X143023947Y-50377691D01*
X143020797Y-50398926D01*
X143015581Y-50419750D01*
X143008349Y-50439962D01*
X142999170Y-50459368D01*
X142988134Y-50477781D01*
X142975346Y-50495024D01*
X142960930Y-50510930D01*
X142945024Y-50525346D01*
X142927781Y-50538134D01*
X142909368Y-50549170D01*
X142889962Y-50558349D01*
X142869750Y-50565581D01*
X142848926Y-50570797D01*
X142827691Y-50573947D01*
X142806250Y-50575000D01*
X142368750Y-50575000D01*
X142347309Y-50573947D01*
X142326074Y-50570797D01*
X142305250Y-50565581D01*
X142285038Y-50558349D01*
X142265632Y-50549170D01*
X142247219Y-50538134D01*
X142229976Y-50525346D01*
X142214070Y-50510930D01*
X142199654Y-50495024D01*
X142186866Y-50477781D01*
X142175830Y-50459368D01*
X142166651Y-50439962D01*
X142159419Y-50419750D01*
X142154203Y-50398926D01*
X142151053Y-50377691D01*
X142150000Y-50356250D01*
X142150000Y-49843750D01*
X142151053Y-49822309D01*
X142154203Y-49801074D01*
X142159419Y-49780250D01*
X142166651Y-49760038D01*
X142175830Y-49740632D01*
X142186866Y-49722219D01*
X142199654Y-49704976D01*
X142214070Y-49689070D01*
X142229976Y-49674654D01*
X142247219Y-49661866D01*
X142265632Y-49650830D01*
X142285038Y-49641651D01*
X142305250Y-49634419D01*
X142326074Y-49629203D01*
X142347309Y-49626053D01*
X142368750Y-49625000D01*
X142806250Y-49625000D01*
X142827691Y-49626053D01*
X142827691Y-49626053D01*
G37*
D11*
X142587500Y-50100000D03*
G04 #@! TD*
D10*
G04 #@! TO.C,D6*
G36*
X141552691Y-62326053D02*
X141573926Y-62329203D01*
X141594750Y-62334419D01*
X141614962Y-62341651D01*
X141634368Y-62350830D01*
X141652781Y-62361866D01*
X141670024Y-62374654D01*
X141685930Y-62389070D01*
X141700346Y-62404976D01*
X141713134Y-62422219D01*
X141724170Y-62440632D01*
X141733349Y-62460038D01*
X141740581Y-62480250D01*
X141745797Y-62501074D01*
X141748947Y-62522309D01*
X141750000Y-62543750D01*
X141750000Y-63056250D01*
X141748947Y-63077691D01*
X141745797Y-63098926D01*
X141740581Y-63119750D01*
X141733349Y-63139962D01*
X141724170Y-63159368D01*
X141713134Y-63177781D01*
X141700346Y-63195024D01*
X141685930Y-63210930D01*
X141670024Y-63225346D01*
X141652781Y-63238134D01*
X141634368Y-63249170D01*
X141614962Y-63258349D01*
X141594750Y-63265581D01*
X141573926Y-63270797D01*
X141552691Y-63273947D01*
X141531250Y-63275000D01*
X141093750Y-63275000D01*
X141072309Y-63273947D01*
X141051074Y-63270797D01*
X141030250Y-63265581D01*
X141010038Y-63258349D01*
X140990632Y-63249170D01*
X140972219Y-63238134D01*
X140954976Y-63225346D01*
X140939070Y-63210930D01*
X140924654Y-63195024D01*
X140911866Y-63177781D01*
X140900830Y-63159368D01*
X140891651Y-63139962D01*
X140884419Y-63119750D01*
X140879203Y-63098926D01*
X140876053Y-63077691D01*
X140875000Y-63056250D01*
X140875000Y-62543750D01*
X140876053Y-62522309D01*
X140879203Y-62501074D01*
X140884419Y-62480250D01*
X140891651Y-62460038D01*
X140900830Y-62440632D01*
X140911866Y-62422219D01*
X140924654Y-62404976D01*
X140939070Y-62389070D01*
X140954976Y-62374654D01*
X140972219Y-62361866D01*
X140990632Y-62350830D01*
X141010038Y-62341651D01*
X141030250Y-62334419D01*
X141051074Y-62329203D01*
X141072309Y-62326053D01*
X141093750Y-62325000D01*
X141531250Y-62325000D01*
X141552691Y-62326053D01*
X141552691Y-62326053D01*
G37*
D11*
X141312500Y-62800000D03*
D10*
G36*
X143127691Y-62326053D02*
X143148926Y-62329203D01*
X143169750Y-62334419D01*
X143189962Y-62341651D01*
X143209368Y-62350830D01*
X143227781Y-62361866D01*
X143245024Y-62374654D01*
X143260930Y-62389070D01*
X143275346Y-62404976D01*
X143288134Y-62422219D01*
X143299170Y-62440632D01*
X143308349Y-62460038D01*
X143315581Y-62480250D01*
X143320797Y-62501074D01*
X143323947Y-62522309D01*
X143325000Y-62543750D01*
X143325000Y-63056250D01*
X143323947Y-63077691D01*
X143320797Y-63098926D01*
X143315581Y-63119750D01*
X143308349Y-63139962D01*
X143299170Y-63159368D01*
X143288134Y-63177781D01*
X143275346Y-63195024D01*
X143260930Y-63210930D01*
X143245024Y-63225346D01*
X143227781Y-63238134D01*
X143209368Y-63249170D01*
X143189962Y-63258349D01*
X143169750Y-63265581D01*
X143148926Y-63270797D01*
X143127691Y-63273947D01*
X143106250Y-63275000D01*
X142668750Y-63275000D01*
X142647309Y-63273947D01*
X142626074Y-63270797D01*
X142605250Y-63265581D01*
X142585038Y-63258349D01*
X142565632Y-63249170D01*
X142547219Y-63238134D01*
X142529976Y-63225346D01*
X142514070Y-63210930D01*
X142499654Y-63195024D01*
X142486866Y-63177781D01*
X142475830Y-63159368D01*
X142466651Y-63139962D01*
X142459419Y-63119750D01*
X142454203Y-63098926D01*
X142451053Y-63077691D01*
X142450000Y-63056250D01*
X142450000Y-62543750D01*
X142451053Y-62522309D01*
X142454203Y-62501074D01*
X142459419Y-62480250D01*
X142466651Y-62460038D01*
X142475830Y-62440632D01*
X142486866Y-62422219D01*
X142499654Y-62404976D01*
X142514070Y-62389070D01*
X142529976Y-62374654D01*
X142547219Y-62361866D01*
X142565632Y-62350830D01*
X142585038Y-62341651D01*
X142605250Y-62334419D01*
X142626074Y-62329203D01*
X142647309Y-62326053D01*
X142668750Y-62325000D01*
X143106250Y-62325000D01*
X143127691Y-62326053D01*
X143127691Y-62326053D01*
G37*
D11*
X142887500Y-62800000D03*
G04 #@! TD*
D10*
G04 #@! TO.C,D7*
G36*
X141265191Y-51126053D02*
X141286426Y-51129203D01*
X141307250Y-51134419D01*
X141327462Y-51141651D01*
X141346868Y-51150830D01*
X141365281Y-51161866D01*
X141382524Y-51174654D01*
X141398430Y-51189070D01*
X141412846Y-51204976D01*
X141425634Y-51222219D01*
X141436670Y-51240632D01*
X141445849Y-51260038D01*
X141453081Y-51280250D01*
X141458297Y-51301074D01*
X141461447Y-51322309D01*
X141462500Y-51343750D01*
X141462500Y-51856250D01*
X141461447Y-51877691D01*
X141458297Y-51898926D01*
X141453081Y-51919750D01*
X141445849Y-51939962D01*
X141436670Y-51959368D01*
X141425634Y-51977781D01*
X141412846Y-51995024D01*
X141398430Y-52010930D01*
X141382524Y-52025346D01*
X141365281Y-52038134D01*
X141346868Y-52049170D01*
X141327462Y-52058349D01*
X141307250Y-52065581D01*
X141286426Y-52070797D01*
X141265191Y-52073947D01*
X141243750Y-52075000D01*
X140806250Y-52075000D01*
X140784809Y-52073947D01*
X140763574Y-52070797D01*
X140742750Y-52065581D01*
X140722538Y-52058349D01*
X140703132Y-52049170D01*
X140684719Y-52038134D01*
X140667476Y-52025346D01*
X140651570Y-52010930D01*
X140637154Y-51995024D01*
X140624366Y-51977781D01*
X140613330Y-51959368D01*
X140604151Y-51939962D01*
X140596919Y-51919750D01*
X140591703Y-51898926D01*
X140588553Y-51877691D01*
X140587500Y-51856250D01*
X140587500Y-51343750D01*
X140588553Y-51322309D01*
X140591703Y-51301074D01*
X140596919Y-51280250D01*
X140604151Y-51260038D01*
X140613330Y-51240632D01*
X140624366Y-51222219D01*
X140637154Y-51204976D01*
X140651570Y-51189070D01*
X140667476Y-51174654D01*
X140684719Y-51161866D01*
X140703132Y-51150830D01*
X140722538Y-51141651D01*
X140742750Y-51134419D01*
X140763574Y-51129203D01*
X140784809Y-51126053D01*
X140806250Y-51125000D01*
X141243750Y-51125000D01*
X141265191Y-51126053D01*
X141265191Y-51126053D01*
G37*
D11*
X141025000Y-51600000D03*
D10*
G36*
X142840191Y-51126053D02*
X142861426Y-51129203D01*
X142882250Y-51134419D01*
X142902462Y-51141651D01*
X142921868Y-51150830D01*
X142940281Y-51161866D01*
X142957524Y-51174654D01*
X142973430Y-51189070D01*
X142987846Y-51204976D01*
X143000634Y-51222219D01*
X143011670Y-51240632D01*
X143020849Y-51260038D01*
X143028081Y-51280250D01*
X143033297Y-51301074D01*
X143036447Y-51322309D01*
X143037500Y-51343750D01*
X143037500Y-51856250D01*
X143036447Y-51877691D01*
X143033297Y-51898926D01*
X143028081Y-51919750D01*
X143020849Y-51939962D01*
X143011670Y-51959368D01*
X143000634Y-51977781D01*
X142987846Y-51995024D01*
X142973430Y-52010930D01*
X142957524Y-52025346D01*
X142940281Y-52038134D01*
X142921868Y-52049170D01*
X142902462Y-52058349D01*
X142882250Y-52065581D01*
X142861426Y-52070797D01*
X142840191Y-52073947D01*
X142818750Y-52075000D01*
X142381250Y-52075000D01*
X142359809Y-52073947D01*
X142338574Y-52070797D01*
X142317750Y-52065581D01*
X142297538Y-52058349D01*
X142278132Y-52049170D01*
X142259719Y-52038134D01*
X142242476Y-52025346D01*
X142226570Y-52010930D01*
X142212154Y-51995024D01*
X142199366Y-51977781D01*
X142188330Y-51959368D01*
X142179151Y-51939962D01*
X142171919Y-51919750D01*
X142166703Y-51898926D01*
X142163553Y-51877691D01*
X142162500Y-51856250D01*
X142162500Y-51343750D01*
X142163553Y-51322309D01*
X142166703Y-51301074D01*
X142171919Y-51280250D01*
X142179151Y-51260038D01*
X142188330Y-51240632D01*
X142199366Y-51222219D01*
X142212154Y-51204976D01*
X142226570Y-51189070D01*
X142242476Y-51174654D01*
X142259719Y-51161866D01*
X142278132Y-51150830D01*
X142297538Y-51141651D01*
X142317750Y-51134419D01*
X142338574Y-51129203D01*
X142359809Y-51126053D01*
X142381250Y-51125000D01*
X142818750Y-51125000D01*
X142840191Y-51126053D01*
X142840191Y-51126053D01*
G37*
D11*
X142600000Y-51600000D03*
G04 #@! TD*
D10*
G04 #@! TO.C,D8*
G36*
X141552691Y-63826053D02*
X141573926Y-63829203D01*
X141594750Y-63834419D01*
X141614962Y-63841651D01*
X141634368Y-63850830D01*
X141652781Y-63861866D01*
X141670024Y-63874654D01*
X141685930Y-63889070D01*
X141700346Y-63904976D01*
X141713134Y-63922219D01*
X141724170Y-63940632D01*
X141733349Y-63960038D01*
X141740581Y-63980250D01*
X141745797Y-64001074D01*
X141748947Y-64022309D01*
X141750000Y-64043750D01*
X141750000Y-64556250D01*
X141748947Y-64577691D01*
X141745797Y-64598926D01*
X141740581Y-64619750D01*
X141733349Y-64639962D01*
X141724170Y-64659368D01*
X141713134Y-64677781D01*
X141700346Y-64695024D01*
X141685930Y-64710930D01*
X141670024Y-64725346D01*
X141652781Y-64738134D01*
X141634368Y-64749170D01*
X141614962Y-64758349D01*
X141594750Y-64765581D01*
X141573926Y-64770797D01*
X141552691Y-64773947D01*
X141531250Y-64775000D01*
X141093750Y-64775000D01*
X141072309Y-64773947D01*
X141051074Y-64770797D01*
X141030250Y-64765581D01*
X141010038Y-64758349D01*
X140990632Y-64749170D01*
X140972219Y-64738134D01*
X140954976Y-64725346D01*
X140939070Y-64710930D01*
X140924654Y-64695024D01*
X140911866Y-64677781D01*
X140900830Y-64659368D01*
X140891651Y-64639962D01*
X140884419Y-64619750D01*
X140879203Y-64598926D01*
X140876053Y-64577691D01*
X140875000Y-64556250D01*
X140875000Y-64043750D01*
X140876053Y-64022309D01*
X140879203Y-64001074D01*
X140884419Y-63980250D01*
X140891651Y-63960038D01*
X140900830Y-63940632D01*
X140911866Y-63922219D01*
X140924654Y-63904976D01*
X140939070Y-63889070D01*
X140954976Y-63874654D01*
X140972219Y-63861866D01*
X140990632Y-63850830D01*
X141010038Y-63841651D01*
X141030250Y-63834419D01*
X141051074Y-63829203D01*
X141072309Y-63826053D01*
X141093750Y-63825000D01*
X141531250Y-63825000D01*
X141552691Y-63826053D01*
X141552691Y-63826053D01*
G37*
D11*
X141312500Y-64300000D03*
D10*
G36*
X143127691Y-63826053D02*
X143148926Y-63829203D01*
X143169750Y-63834419D01*
X143189962Y-63841651D01*
X143209368Y-63850830D01*
X143227781Y-63861866D01*
X143245024Y-63874654D01*
X143260930Y-63889070D01*
X143275346Y-63904976D01*
X143288134Y-63922219D01*
X143299170Y-63940632D01*
X143308349Y-63960038D01*
X143315581Y-63980250D01*
X143320797Y-64001074D01*
X143323947Y-64022309D01*
X143325000Y-64043750D01*
X143325000Y-64556250D01*
X143323947Y-64577691D01*
X143320797Y-64598926D01*
X143315581Y-64619750D01*
X143308349Y-64639962D01*
X143299170Y-64659368D01*
X143288134Y-64677781D01*
X143275346Y-64695024D01*
X143260930Y-64710930D01*
X143245024Y-64725346D01*
X143227781Y-64738134D01*
X143209368Y-64749170D01*
X143189962Y-64758349D01*
X143169750Y-64765581D01*
X143148926Y-64770797D01*
X143127691Y-64773947D01*
X143106250Y-64775000D01*
X142668750Y-64775000D01*
X142647309Y-64773947D01*
X142626074Y-64770797D01*
X142605250Y-64765581D01*
X142585038Y-64758349D01*
X142565632Y-64749170D01*
X142547219Y-64738134D01*
X142529976Y-64725346D01*
X142514070Y-64710930D01*
X142499654Y-64695024D01*
X142486866Y-64677781D01*
X142475830Y-64659368D01*
X142466651Y-64639962D01*
X142459419Y-64619750D01*
X142454203Y-64598926D01*
X142451053Y-64577691D01*
X142450000Y-64556250D01*
X142450000Y-64043750D01*
X142451053Y-64022309D01*
X142454203Y-64001074D01*
X142459419Y-63980250D01*
X142466651Y-63960038D01*
X142475830Y-63940632D01*
X142486866Y-63922219D01*
X142499654Y-63904976D01*
X142514070Y-63889070D01*
X142529976Y-63874654D01*
X142547219Y-63861866D01*
X142565632Y-63850830D01*
X142585038Y-63841651D01*
X142605250Y-63834419D01*
X142626074Y-63829203D01*
X142647309Y-63826053D01*
X142668750Y-63825000D01*
X143106250Y-63825000D01*
X143127691Y-63826053D01*
X143127691Y-63826053D01*
G37*
D11*
X142887500Y-64300000D03*
G04 #@! TD*
D10*
G04 #@! TO.C,D9*
G36*
X127952691Y-62326053D02*
X127973926Y-62329203D01*
X127994750Y-62334419D01*
X128014962Y-62341651D01*
X128034368Y-62350830D01*
X128052781Y-62361866D01*
X128070024Y-62374654D01*
X128085930Y-62389070D01*
X128100346Y-62404976D01*
X128113134Y-62422219D01*
X128124170Y-62440632D01*
X128133349Y-62460038D01*
X128140581Y-62480250D01*
X128145797Y-62501074D01*
X128148947Y-62522309D01*
X128150000Y-62543750D01*
X128150000Y-63056250D01*
X128148947Y-63077691D01*
X128145797Y-63098926D01*
X128140581Y-63119750D01*
X128133349Y-63139962D01*
X128124170Y-63159368D01*
X128113134Y-63177781D01*
X128100346Y-63195024D01*
X128085930Y-63210930D01*
X128070024Y-63225346D01*
X128052781Y-63238134D01*
X128034368Y-63249170D01*
X128014962Y-63258349D01*
X127994750Y-63265581D01*
X127973926Y-63270797D01*
X127952691Y-63273947D01*
X127931250Y-63275000D01*
X127493750Y-63275000D01*
X127472309Y-63273947D01*
X127451074Y-63270797D01*
X127430250Y-63265581D01*
X127410038Y-63258349D01*
X127390632Y-63249170D01*
X127372219Y-63238134D01*
X127354976Y-63225346D01*
X127339070Y-63210930D01*
X127324654Y-63195024D01*
X127311866Y-63177781D01*
X127300830Y-63159368D01*
X127291651Y-63139962D01*
X127284419Y-63119750D01*
X127279203Y-63098926D01*
X127276053Y-63077691D01*
X127275000Y-63056250D01*
X127275000Y-62543750D01*
X127276053Y-62522309D01*
X127279203Y-62501074D01*
X127284419Y-62480250D01*
X127291651Y-62460038D01*
X127300830Y-62440632D01*
X127311866Y-62422219D01*
X127324654Y-62404976D01*
X127339070Y-62389070D01*
X127354976Y-62374654D01*
X127372219Y-62361866D01*
X127390632Y-62350830D01*
X127410038Y-62341651D01*
X127430250Y-62334419D01*
X127451074Y-62329203D01*
X127472309Y-62326053D01*
X127493750Y-62325000D01*
X127931250Y-62325000D01*
X127952691Y-62326053D01*
X127952691Y-62326053D01*
G37*
D11*
X127712500Y-62800000D03*
D10*
G36*
X129527691Y-62326053D02*
X129548926Y-62329203D01*
X129569750Y-62334419D01*
X129589962Y-62341651D01*
X129609368Y-62350830D01*
X129627781Y-62361866D01*
X129645024Y-62374654D01*
X129660930Y-62389070D01*
X129675346Y-62404976D01*
X129688134Y-62422219D01*
X129699170Y-62440632D01*
X129708349Y-62460038D01*
X129715581Y-62480250D01*
X129720797Y-62501074D01*
X129723947Y-62522309D01*
X129725000Y-62543750D01*
X129725000Y-63056250D01*
X129723947Y-63077691D01*
X129720797Y-63098926D01*
X129715581Y-63119750D01*
X129708349Y-63139962D01*
X129699170Y-63159368D01*
X129688134Y-63177781D01*
X129675346Y-63195024D01*
X129660930Y-63210930D01*
X129645024Y-63225346D01*
X129627781Y-63238134D01*
X129609368Y-63249170D01*
X129589962Y-63258349D01*
X129569750Y-63265581D01*
X129548926Y-63270797D01*
X129527691Y-63273947D01*
X129506250Y-63275000D01*
X129068750Y-63275000D01*
X129047309Y-63273947D01*
X129026074Y-63270797D01*
X129005250Y-63265581D01*
X128985038Y-63258349D01*
X128965632Y-63249170D01*
X128947219Y-63238134D01*
X128929976Y-63225346D01*
X128914070Y-63210930D01*
X128899654Y-63195024D01*
X128886866Y-63177781D01*
X128875830Y-63159368D01*
X128866651Y-63139962D01*
X128859419Y-63119750D01*
X128854203Y-63098926D01*
X128851053Y-63077691D01*
X128850000Y-63056250D01*
X128850000Y-62543750D01*
X128851053Y-62522309D01*
X128854203Y-62501074D01*
X128859419Y-62480250D01*
X128866651Y-62460038D01*
X128875830Y-62440632D01*
X128886866Y-62422219D01*
X128899654Y-62404976D01*
X128914070Y-62389070D01*
X128929976Y-62374654D01*
X128947219Y-62361866D01*
X128965632Y-62350830D01*
X128985038Y-62341651D01*
X129005250Y-62334419D01*
X129026074Y-62329203D01*
X129047309Y-62326053D01*
X129068750Y-62325000D01*
X129506250Y-62325000D01*
X129527691Y-62326053D01*
X129527691Y-62326053D01*
G37*
D11*
X129287500Y-62800000D03*
G04 #@! TD*
D10*
G04 #@! TO.C,D10*
G36*
X127952691Y-63826053D02*
X127973926Y-63829203D01*
X127994750Y-63834419D01*
X128014962Y-63841651D01*
X128034368Y-63850830D01*
X128052781Y-63861866D01*
X128070024Y-63874654D01*
X128085930Y-63889070D01*
X128100346Y-63904976D01*
X128113134Y-63922219D01*
X128124170Y-63940632D01*
X128133349Y-63960038D01*
X128140581Y-63980250D01*
X128145797Y-64001074D01*
X128148947Y-64022309D01*
X128150000Y-64043750D01*
X128150000Y-64556250D01*
X128148947Y-64577691D01*
X128145797Y-64598926D01*
X128140581Y-64619750D01*
X128133349Y-64639962D01*
X128124170Y-64659368D01*
X128113134Y-64677781D01*
X128100346Y-64695024D01*
X128085930Y-64710930D01*
X128070024Y-64725346D01*
X128052781Y-64738134D01*
X128034368Y-64749170D01*
X128014962Y-64758349D01*
X127994750Y-64765581D01*
X127973926Y-64770797D01*
X127952691Y-64773947D01*
X127931250Y-64775000D01*
X127493750Y-64775000D01*
X127472309Y-64773947D01*
X127451074Y-64770797D01*
X127430250Y-64765581D01*
X127410038Y-64758349D01*
X127390632Y-64749170D01*
X127372219Y-64738134D01*
X127354976Y-64725346D01*
X127339070Y-64710930D01*
X127324654Y-64695024D01*
X127311866Y-64677781D01*
X127300830Y-64659368D01*
X127291651Y-64639962D01*
X127284419Y-64619750D01*
X127279203Y-64598926D01*
X127276053Y-64577691D01*
X127275000Y-64556250D01*
X127275000Y-64043750D01*
X127276053Y-64022309D01*
X127279203Y-64001074D01*
X127284419Y-63980250D01*
X127291651Y-63960038D01*
X127300830Y-63940632D01*
X127311866Y-63922219D01*
X127324654Y-63904976D01*
X127339070Y-63889070D01*
X127354976Y-63874654D01*
X127372219Y-63861866D01*
X127390632Y-63850830D01*
X127410038Y-63841651D01*
X127430250Y-63834419D01*
X127451074Y-63829203D01*
X127472309Y-63826053D01*
X127493750Y-63825000D01*
X127931250Y-63825000D01*
X127952691Y-63826053D01*
X127952691Y-63826053D01*
G37*
D11*
X127712500Y-64300000D03*
D10*
G36*
X129527691Y-63826053D02*
X129548926Y-63829203D01*
X129569750Y-63834419D01*
X129589962Y-63841651D01*
X129609368Y-63850830D01*
X129627781Y-63861866D01*
X129645024Y-63874654D01*
X129660930Y-63889070D01*
X129675346Y-63904976D01*
X129688134Y-63922219D01*
X129699170Y-63940632D01*
X129708349Y-63960038D01*
X129715581Y-63980250D01*
X129720797Y-64001074D01*
X129723947Y-64022309D01*
X129725000Y-64043750D01*
X129725000Y-64556250D01*
X129723947Y-64577691D01*
X129720797Y-64598926D01*
X129715581Y-64619750D01*
X129708349Y-64639962D01*
X129699170Y-64659368D01*
X129688134Y-64677781D01*
X129675346Y-64695024D01*
X129660930Y-64710930D01*
X129645024Y-64725346D01*
X129627781Y-64738134D01*
X129609368Y-64749170D01*
X129589962Y-64758349D01*
X129569750Y-64765581D01*
X129548926Y-64770797D01*
X129527691Y-64773947D01*
X129506250Y-64775000D01*
X129068750Y-64775000D01*
X129047309Y-64773947D01*
X129026074Y-64770797D01*
X129005250Y-64765581D01*
X128985038Y-64758349D01*
X128965632Y-64749170D01*
X128947219Y-64738134D01*
X128929976Y-64725346D01*
X128914070Y-64710930D01*
X128899654Y-64695024D01*
X128886866Y-64677781D01*
X128875830Y-64659368D01*
X128866651Y-64639962D01*
X128859419Y-64619750D01*
X128854203Y-64598926D01*
X128851053Y-64577691D01*
X128850000Y-64556250D01*
X128850000Y-64043750D01*
X128851053Y-64022309D01*
X128854203Y-64001074D01*
X128859419Y-63980250D01*
X128866651Y-63960038D01*
X128875830Y-63940632D01*
X128886866Y-63922219D01*
X128899654Y-63904976D01*
X128914070Y-63889070D01*
X128929976Y-63874654D01*
X128947219Y-63861866D01*
X128965632Y-63850830D01*
X128985038Y-63841651D01*
X129005250Y-63834419D01*
X129026074Y-63829203D01*
X129047309Y-63826053D01*
X129068750Y-63825000D01*
X129506250Y-63825000D01*
X129527691Y-63826053D01*
X129527691Y-63826053D01*
G37*
D11*
X129287500Y-64300000D03*
G04 #@! TD*
D10*
G04 #@! TO.C,D11*
G36*
X116327691Y-62126053D02*
X116348926Y-62129203D01*
X116369750Y-62134419D01*
X116389962Y-62141651D01*
X116409368Y-62150830D01*
X116427781Y-62161866D01*
X116445024Y-62174654D01*
X116460930Y-62189070D01*
X116475346Y-62204976D01*
X116488134Y-62222219D01*
X116499170Y-62240632D01*
X116508349Y-62260038D01*
X116515581Y-62280250D01*
X116520797Y-62301074D01*
X116523947Y-62322309D01*
X116525000Y-62343750D01*
X116525000Y-62856250D01*
X116523947Y-62877691D01*
X116520797Y-62898926D01*
X116515581Y-62919750D01*
X116508349Y-62939962D01*
X116499170Y-62959368D01*
X116488134Y-62977781D01*
X116475346Y-62995024D01*
X116460930Y-63010930D01*
X116445024Y-63025346D01*
X116427781Y-63038134D01*
X116409368Y-63049170D01*
X116389962Y-63058349D01*
X116369750Y-63065581D01*
X116348926Y-63070797D01*
X116327691Y-63073947D01*
X116306250Y-63075000D01*
X115868750Y-63075000D01*
X115847309Y-63073947D01*
X115826074Y-63070797D01*
X115805250Y-63065581D01*
X115785038Y-63058349D01*
X115765632Y-63049170D01*
X115747219Y-63038134D01*
X115729976Y-63025346D01*
X115714070Y-63010930D01*
X115699654Y-62995024D01*
X115686866Y-62977781D01*
X115675830Y-62959368D01*
X115666651Y-62939962D01*
X115659419Y-62919750D01*
X115654203Y-62898926D01*
X115651053Y-62877691D01*
X115650000Y-62856250D01*
X115650000Y-62343750D01*
X115651053Y-62322309D01*
X115654203Y-62301074D01*
X115659419Y-62280250D01*
X115666651Y-62260038D01*
X115675830Y-62240632D01*
X115686866Y-62222219D01*
X115699654Y-62204976D01*
X115714070Y-62189070D01*
X115729976Y-62174654D01*
X115747219Y-62161866D01*
X115765632Y-62150830D01*
X115785038Y-62141651D01*
X115805250Y-62134419D01*
X115826074Y-62129203D01*
X115847309Y-62126053D01*
X115868750Y-62125000D01*
X116306250Y-62125000D01*
X116327691Y-62126053D01*
X116327691Y-62126053D01*
G37*
D11*
X116087500Y-62600000D03*
D10*
G36*
X114752691Y-62126053D02*
X114773926Y-62129203D01*
X114794750Y-62134419D01*
X114814962Y-62141651D01*
X114834368Y-62150830D01*
X114852781Y-62161866D01*
X114870024Y-62174654D01*
X114885930Y-62189070D01*
X114900346Y-62204976D01*
X114913134Y-62222219D01*
X114924170Y-62240632D01*
X114933349Y-62260038D01*
X114940581Y-62280250D01*
X114945797Y-62301074D01*
X114948947Y-62322309D01*
X114950000Y-62343750D01*
X114950000Y-62856250D01*
X114948947Y-62877691D01*
X114945797Y-62898926D01*
X114940581Y-62919750D01*
X114933349Y-62939962D01*
X114924170Y-62959368D01*
X114913134Y-62977781D01*
X114900346Y-62995024D01*
X114885930Y-63010930D01*
X114870024Y-63025346D01*
X114852781Y-63038134D01*
X114834368Y-63049170D01*
X114814962Y-63058349D01*
X114794750Y-63065581D01*
X114773926Y-63070797D01*
X114752691Y-63073947D01*
X114731250Y-63075000D01*
X114293750Y-63075000D01*
X114272309Y-63073947D01*
X114251074Y-63070797D01*
X114230250Y-63065581D01*
X114210038Y-63058349D01*
X114190632Y-63049170D01*
X114172219Y-63038134D01*
X114154976Y-63025346D01*
X114139070Y-63010930D01*
X114124654Y-62995024D01*
X114111866Y-62977781D01*
X114100830Y-62959368D01*
X114091651Y-62939962D01*
X114084419Y-62919750D01*
X114079203Y-62898926D01*
X114076053Y-62877691D01*
X114075000Y-62856250D01*
X114075000Y-62343750D01*
X114076053Y-62322309D01*
X114079203Y-62301074D01*
X114084419Y-62280250D01*
X114091651Y-62260038D01*
X114100830Y-62240632D01*
X114111866Y-62222219D01*
X114124654Y-62204976D01*
X114139070Y-62189070D01*
X114154976Y-62174654D01*
X114172219Y-62161866D01*
X114190632Y-62150830D01*
X114210038Y-62141651D01*
X114230250Y-62134419D01*
X114251074Y-62129203D01*
X114272309Y-62126053D01*
X114293750Y-62125000D01*
X114731250Y-62125000D01*
X114752691Y-62126053D01*
X114752691Y-62126053D01*
G37*
D11*
X114512500Y-62600000D03*
G04 #@! TD*
D10*
G04 #@! TO.C,D12*
G36*
X116327691Y-63626053D02*
X116348926Y-63629203D01*
X116369750Y-63634419D01*
X116389962Y-63641651D01*
X116409368Y-63650830D01*
X116427781Y-63661866D01*
X116445024Y-63674654D01*
X116460930Y-63689070D01*
X116475346Y-63704976D01*
X116488134Y-63722219D01*
X116499170Y-63740632D01*
X116508349Y-63760038D01*
X116515581Y-63780250D01*
X116520797Y-63801074D01*
X116523947Y-63822309D01*
X116525000Y-63843750D01*
X116525000Y-64356250D01*
X116523947Y-64377691D01*
X116520797Y-64398926D01*
X116515581Y-64419750D01*
X116508349Y-64439962D01*
X116499170Y-64459368D01*
X116488134Y-64477781D01*
X116475346Y-64495024D01*
X116460930Y-64510930D01*
X116445024Y-64525346D01*
X116427781Y-64538134D01*
X116409368Y-64549170D01*
X116389962Y-64558349D01*
X116369750Y-64565581D01*
X116348926Y-64570797D01*
X116327691Y-64573947D01*
X116306250Y-64575000D01*
X115868750Y-64575000D01*
X115847309Y-64573947D01*
X115826074Y-64570797D01*
X115805250Y-64565581D01*
X115785038Y-64558349D01*
X115765632Y-64549170D01*
X115747219Y-64538134D01*
X115729976Y-64525346D01*
X115714070Y-64510930D01*
X115699654Y-64495024D01*
X115686866Y-64477781D01*
X115675830Y-64459368D01*
X115666651Y-64439962D01*
X115659419Y-64419750D01*
X115654203Y-64398926D01*
X115651053Y-64377691D01*
X115650000Y-64356250D01*
X115650000Y-63843750D01*
X115651053Y-63822309D01*
X115654203Y-63801074D01*
X115659419Y-63780250D01*
X115666651Y-63760038D01*
X115675830Y-63740632D01*
X115686866Y-63722219D01*
X115699654Y-63704976D01*
X115714070Y-63689070D01*
X115729976Y-63674654D01*
X115747219Y-63661866D01*
X115765632Y-63650830D01*
X115785038Y-63641651D01*
X115805250Y-63634419D01*
X115826074Y-63629203D01*
X115847309Y-63626053D01*
X115868750Y-63625000D01*
X116306250Y-63625000D01*
X116327691Y-63626053D01*
X116327691Y-63626053D01*
G37*
D11*
X116087500Y-64100000D03*
D10*
G36*
X114752691Y-63626053D02*
X114773926Y-63629203D01*
X114794750Y-63634419D01*
X114814962Y-63641651D01*
X114834368Y-63650830D01*
X114852781Y-63661866D01*
X114870024Y-63674654D01*
X114885930Y-63689070D01*
X114900346Y-63704976D01*
X114913134Y-63722219D01*
X114924170Y-63740632D01*
X114933349Y-63760038D01*
X114940581Y-63780250D01*
X114945797Y-63801074D01*
X114948947Y-63822309D01*
X114950000Y-63843750D01*
X114950000Y-64356250D01*
X114948947Y-64377691D01*
X114945797Y-64398926D01*
X114940581Y-64419750D01*
X114933349Y-64439962D01*
X114924170Y-64459368D01*
X114913134Y-64477781D01*
X114900346Y-64495024D01*
X114885930Y-64510930D01*
X114870024Y-64525346D01*
X114852781Y-64538134D01*
X114834368Y-64549170D01*
X114814962Y-64558349D01*
X114794750Y-64565581D01*
X114773926Y-64570797D01*
X114752691Y-64573947D01*
X114731250Y-64575000D01*
X114293750Y-64575000D01*
X114272309Y-64573947D01*
X114251074Y-64570797D01*
X114230250Y-64565581D01*
X114210038Y-64558349D01*
X114190632Y-64549170D01*
X114172219Y-64538134D01*
X114154976Y-64525346D01*
X114139070Y-64510930D01*
X114124654Y-64495024D01*
X114111866Y-64477781D01*
X114100830Y-64459368D01*
X114091651Y-64439962D01*
X114084419Y-64419750D01*
X114079203Y-64398926D01*
X114076053Y-64377691D01*
X114075000Y-64356250D01*
X114075000Y-63843750D01*
X114076053Y-63822309D01*
X114079203Y-63801074D01*
X114084419Y-63780250D01*
X114091651Y-63760038D01*
X114100830Y-63740632D01*
X114111866Y-63722219D01*
X114124654Y-63704976D01*
X114139070Y-63689070D01*
X114154976Y-63674654D01*
X114172219Y-63661866D01*
X114190632Y-63650830D01*
X114210038Y-63641651D01*
X114230250Y-63634419D01*
X114251074Y-63629203D01*
X114272309Y-63626053D01*
X114293750Y-63625000D01*
X114731250Y-63625000D01*
X114752691Y-63626053D01*
X114752691Y-63626053D01*
G37*
D11*
X114512500Y-64100000D03*
G04 #@! TD*
D10*
G04 #@! TO.C,D13*
G36*
X116327691Y-75126053D02*
X116348926Y-75129203D01*
X116369750Y-75134419D01*
X116389962Y-75141651D01*
X116409368Y-75150830D01*
X116427781Y-75161866D01*
X116445024Y-75174654D01*
X116460930Y-75189070D01*
X116475346Y-75204976D01*
X116488134Y-75222219D01*
X116499170Y-75240632D01*
X116508349Y-75260038D01*
X116515581Y-75280250D01*
X116520797Y-75301074D01*
X116523947Y-75322309D01*
X116525000Y-75343750D01*
X116525000Y-75856250D01*
X116523947Y-75877691D01*
X116520797Y-75898926D01*
X116515581Y-75919750D01*
X116508349Y-75939962D01*
X116499170Y-75959368D01*
X116488134Y-75977781D01*
X116475346Y-75995024D01*
X116460930Y-76010930D01*
X116445024Y-76025346D01*
X116427781Y-76038134D01*
X116409368Y-76049170D01*
X116389962Y-76058349D01*
X116369750Y-76065581D01*
X116348926Y-76070797D01*
X116327691Y-76073947D01*
X116306250Y-76075000D01*
X115868750Y-76075000D01*
X115847309Y-76073947D01*
X115826074Y-76070797D01*
X115805250Y-76065581D01*
X115785038Y-76058349D01*
X115765632Y-76049170D01*
X115747219Y-76038134D01*
X115729976Y-76025346D01*
X115714070Y-76010930D01*
X115699654Y-75995024D01*
X115686866Y-75977781D01*
X115675830Y-75959368D01*
X115666651Y-75939962D01*
X115659419Y-75919750D01*
X115654203Y-75898926D01*
X115651053Y-75877691D01*
X115650000Y-75856250D01*
X115650000Y-75343750D01*
X115651053Y-75322309D01*
X115654203Y-75301074D01*
X115659419Y-75280250D01*
X115666651Y-75260038D01*
X115675830Y-75240632D01*
X115686866Y-75222219D01*
X115699654Y-75204976D01*
X115714070Y-75189070D01*
X115729976Y-75174654D01*
X115747219Y-75161866D01*
X115765632Y-75150830D01*
X115785038Y-75141651D01*
X115805250Y-75134419D01*
X115826074Y-75129203D01*
X115847309Y-75126053D01*
X115868750Y-75125000D01*
X116306250Y-75125000D01*
X116327691Y-75126053D01*
X116327691Y-75126053D01*
G37*
D11*
X116087500Y-75600000D03*
D10*
G36*
X114752691Y-75126053D02*
X114773926Y-75129203D01*
X114794750Y-75134419D01*
X114814962Y-75141651D01*
X114834368Y-75150830D01*
X114852781Y-75161866D01*
X114870024Y-75174654D01*
X114885930Y-75189070D01*
X114900346Y-75204976D01*
X114913134Y-75222219D01*
X114924170Y-75240632D01*
X114933349Y-75260038D01*
X114940581Y-75280250D01*
X114945797Y-75301074D01*
X114948947Y-75322309D01*
X114950000Y-75343750D01*
X114950000Y-75856250D01*
X114948947Y-75877691D01*
X114945797Y-75898926D01*
X114940581Y-75919750D01*
X114933349Y-75939962D01*
X114924170Y-75959368D01*
X114913134Y-75977781D01*
X114900346Y-75995024D01*
X114885930Y-76010930D01*
X114870024Y-76025346D01*
X114852781Y-76038134D01*
X114834368Y-76049170D01*
X114814962Y-76058349D01*
X114794750Y-76065581D01*
X114773926Y-76070797D01*
X114752691Y-76073947D01*
X114731250Y-76075000D01*
X114293750Y-76075000D01*
X114272309Y-76073947D01*
X114251074Y-76070797D01*
X114230250Y-76065581D01*
X114210038Y-76058349D01*
X114190632Y-76049170D01*
X114172219Y-76038134D01*
X114154976Y-76025346D01*
X114139070Y-76010930D01*
X114124654Y-75995024D01*
X114111866Y-75977781D01*
X114100830Y-75959368D01*
X114091651Y-75939962D01*
X114084419Y-75919750D01*
X114079203Y-75898926D01*
X114076053Y-75877691D01*
X114075000Y-75856250D01*
X114075000Y-75343750D01*
X114076053Y-75322309D01*
X114079203Y-75301074D01*
X114084419Y-75280250D01*
X114091651Y-75260038D01*
X114100830Y-75240632D01*
X114111866Y-75222219D01*
X114124654Y-75204976D01*
X114139070Y-75189070D01*
X114154976Y-75174654D01*
X114172219Y-75161866D01*
X114190632Y-75150830D01*
X114210038Y-75141651D01*
X114230250Y-75134419D01*
X114251074Y-75129203D01*
X114272309Y-75126053D01*
X114293750Y-75125000D01*
X114731250Y-75125000D01*
X114752691Y-75126053D01*
X114752691Y-75126053D01*
G37*
D11*
X114512500Y-75600000D03*
G04 #@! TD*
D10*
G04 #@! TO.C,D14*
G36*
X116327691Y-76626053D02*
X116348926Y-76629203D01*
X116369750Y-76634419D01*
X116389962Y-76641651D01*
X116409368Y-76650830D01*
X116427781Y-76661866D01*
X116445024Y-76674654D01*
X116460930Y-76689070D01*
X116475346Y-76704976D01*
X116488134Y-76722219D01*
X116499170Y-76740632D01*
X116508349Y-76760038D01*
X116515581Y-76780250D01*
X116520797Y-76801074D01*
X116523947Y-76822309D01*
X116525000Y-76843750D01*
X116525000Y-77356250D01*
X116523947Y-77377691D01*
X116520797Y-77398926D01*
X116515581Y-77419750D01*
X116508349Y-77439962D01*
X116499170Y-77459368D01*
X116488134Y-77477781D01*
X116475346Y-77495024D01*
X116460930Y-77510930D01*
X116445024Y-77525346D01*
X116427781Y-77538134D01*
X116409368Y-77549170D01*
X116389962Y-77558349D01*
X116369750Y-77565581D01*
X116348926Y-77570797D01*
X116327691Y-77573947D01*
X116306250Y-77575000D01*
X115868750Y-77575000D01*
X115847309Y-77573947D01*
X115826074Y-77570797D01*
X115805250Y-77565581D01*
X115785038Y-77558349D01*
X115765632Y-77549170D01*
X115747219Y-77538134D01*
X115729976Y-77525346D01*
X115714070Y-77510930D01*
X115699654Y-77495024D01*
X115686866Y-77477781D01*
X115675830Y-77459368D01*
X115666651Y-77439962D01*
X115659419Y-77419750D01*
X115654203Y-77398926D01*
X115651053Y-77377691D01*
X115650000Y-77356250D01*
X115650000Y-76843750D01*
X115651053Y-76822309D01*
X115654203Y-76801074D01*
X115659419Y-76780250D01*
X115666651Y-76760038D01*
X115675830Y-76740632D01*
X115686866Y-76722219D01*
X115699654Y-76704976D01*
X115714070Y-76689070D01*
X115729976Y-76674654D01*
X115747219Y-76661866D01*
X115765632Y-76650830D01*
X115785038Y-76641651D01*
X115805250Y-76634419D01*
X115826074Y-76629203D01*
X115847309Y-76626053D01*
X115868750Y-76625000D01*
X116306250Y-76625000D01*
X116327691Y-76626053D01*
X116327691Y-76626053D01*
G37*
D11*
X116087500Y-77100000D03*
D10*
G36*
X114752691Y-76626053D02*
X114773926Y-76629203D01*
X114794750Y-76634419D01*
X114814962Y-76641651D01*
X114834368Y-76650830D01*
X114852781Y-76661866D01*
X114870024Y-76674654D01*
X114885930Y-76689070D01*
X114900346Y-76704976D01*
X114913134Y-76722219D01*
X114924170Y-76740632D01*
X114933349Y-76760038D01*
X114940581Y-76780250D01*
X114945797Y-76801074D01*
X114948947Y-76822309D01*
X114950000Y-76843750D01*
X114950000Y-77356250D01*
X114948947Y-77377691D01*
X114945797Y-77398926D01*
X114940581Y-77419750D01*
X114933349Y-77439962D01*
X114924170Y-77459368D01*
X114913134Y-77477781D01*
X114900346Y-77495024D01*
X114885930Y-77510930D01*
X114870024Y-77525346D01*
X114852781Y-77538134D01*
X114834368Y-77549170D01*
X114814962Y-77558349D01*
X114794750Y-77565581D01*
X114773926Y-77570797D01*
X114752691Y-77573947D01*
X114731250Y-77575000D01*
X114293750Y-77575000D01*
X114272309Y-77573947D01*
X114251074Y-77570797D01*
X114230250Y-77565581D01*
X114210038Y-77558349D01*
X114190632Y-77549170D01*
X114172219Y-77538134D01*
X114154976Y-77525346D01*
X114139070Y-77510930D01*
X114124654Y-77495024D01*
X114111866Y-77477781D01*
X114100830Y-77459368D01*
X114091651Y-77439962D01*
X114084419Y-77419750D01*
X114079203Y-77398926D01*
X114076053Y-77377691D01*
X114075000Y-77356250D01*
X114075000Y-76843750D01*
X114076053Y-76822309D01*
X114079203Y-76801074D01*
X114084419Y-76780250D01*
X114091651Y-76760038D01*
X114100830Y-76740632D01*
X114111866Y-76722219D01*
X114124654Y-76704976D01*
X114139070Y-76689070D01*
X114154976Y-76674654D01*
X114172219Y-76661866D01*
X114190632Y-76650830D01*
X114210038Y-76641651D01*
X114230250Y-76634419D01*
X114251074Y-76629203D01*
X114272309Y-76626053D01*
X114293750Y-76625000D01*
X114731250Y-76625000D01*
X114752691Y-76626053D01*
X114752691Y-76626053D01*
G37*
D11*
X114512500Y-77100000D03*
G04 #@! TD*
D10*
G04 #@! TO.C,D15*
G36*
X129827691Y-75226053D02*
X129848926Y-75229203D01*
X129869750Y-75234419D01*
X129889962Y-75241651D01*
X129909368Y-75250830D01*
X129927781Y-75261866D01*
X129945024Y-75274654D01*
X129960930Y-75289070D01*
X129975346Y-75304976D01*
X129988134Y-75322219D01*
X129999170Y-75340632D01*
X130008349Y-75360038D01*
X130015581Y-75380250D01*
X130020797Y-75401074D01*
X130023947Y-75422309D01*
X130025000Y-75443750D01*
X130025000Y-75956250D01*
X130023947Y-75977691D01*
X130020797Y-75998926D01*
X130015581Y-76019750D01*
X130008349Y-76039962D01*
X129999170Y-76059368D01*
X129988134Y-76077781D01*
X129975346Y-76095024D01*
X129960930Y-76110930D01*
X129945024Y-76125346D01*
X129927781Y-76138134D01*
X129909368Y-76149170D01*
X129889962Y-76158349D01*
X129869750Y-76165581D01*
X129848926Y-76170797D01*
X129827691Y-76173947D01*
X129806250Y-76175000D01*
X129368750Y-76175000D01*
X129347309Y-76173947D01*
X129326074Y-76170797D01*
X129305250Y-76165581D01*
X129285038Y-76158349D01*
X129265632Y-76149170D01*
X129247219Y-76138134D01*
X129229976Y-76125346D01*
X129214070Y-76110930D01*
X129199654Y-76095024D01*
X129186866Y-76077781D01*
X129175830Y-76059368D01*
X129166651Y-76039962D01*
X129159419Y-76019750D01*
X129154203Y-75998926D01*
X129151053Y-75977691D01*
X129150000Y-75956250D01*
X129150000Y-75443750D01*
X129151053Y-75422309D01*
X129154203Y-75401074D01*
X129159419Y-75380250D01*
X129166651Y-75360038D01*
X129175830Y-75340632D01*
X129186866Y-75322219D01*
X129199654Y-75304976D01*
X129214070Y-75289070D01*
X129229976Y-75274654D01*
X129247219Y-75261866D01*
X129265632Y-75250830D01*
X129285038Y-75241651D01*
X129305250Y-75234419D01*
X129326074Y-75229203D01*
X129347309Y-75226053D01*
X129368750Y-75225000D01*
X129806250Y-75225000D01*
X129827691Y-75226053D01*
X129827691Y-75226053D01*
G37*
D11*
X129587500Y-75700000D03*
D10*
G36*
X128252691Y-75226053D02*
X128273926Y-75229203D01*
X128294750Y-75234419D01*
X128314962Y-75241651D01*
X128334368Y-75250830D01*
X128352781Y-75261866D01*
X128370024Y-75274654D01*
X128385930Y-75289070D01*
X128400346Y-75304976D01*
X128413134Y-75322219D01*
X128424170Y-75340632D01*
X128433349Y-75360038D01*
X128440581Y-75380250D01*
X128445797Y-75401074D01*
X128448947Y-75422309D01*
X128450000Y-75443750D01*
X128450000Y-75956250D01*
X128448947Y-75977691D01*
X128445797Y-75998926D01*
X128440581Y-76019750D01*
X128433349Y-76039962D01*
X128424170Y-76059368D01*
X128413134Y-76077781D01*
X128400346Y-76095024D01*
X128385930Y-76110930D01*
X128370024Y-76125346D01*
X128352781Y-76138134D01*
X128334368Y-76149170D01*
X128314962Y-76158349D01*
X128294750Y-76165581D01*
X128273926Y-76170797D01*
X128252691Y-76173947D01*
X128231250Y-76175000D01*
X127793750Y-76175000D01*
X127772309Y-76173947D01*
X127751074Y-76170797D01*
X127730250Y-76165581D01*
X127710038Y-76158349D01*
X127690632Y-76149170D01*
X127672219Y-76138134D01*
X127654976Y-76125346D01*
X127639070Y-76110930D01*
X127624654Y-76095024D01*
X127611866Y-76077781D01*
X127600830Y-76059368D01*
X127591651Y-76039962D01*
X127584419Y-76019750D01*
X127579203Y-75998926D01*
X127576053Y-75977691D01*
X127575000Y-75956250D01*
X127575000Y-75443750D01*
X127576053Y-75422309D01*
X127579203Y-75401074D01*
X127584419Y-75380250D01*
X127591651Y-75360038D01*
X127600830Y-75340632D01*
X127611866Y-75322219D01*
X127624654Y-75304976D01*
X127639070Y-75289070D01*
X127654976Y-75274654D01*
X127672219Y-75261866D01*
X127690632Y-75250830D01*
X127710038Y-75241651D01*
X127730250Y-75234419D01*
X127751074Y-75229203D01*
X127772309Y-75226053D01*
X127793750Y-75225000D01*
X128231250Y-75225000D01*
X128252691Y-75226053D01*
X128252691Y-75226053D01*
G37*
D11*
X128012500Y-75700000D03*
G04 #@! TD*
D10*
G04 #@! TO.C,D16*
G36*
X129827691Y-76726053D02*
X129848926Y-76729203D01*
X129869750Y-76734419D01*
X129889962Y-76741651D01*
X129909368Y-76750830D01*
X129927781Y-76761866D01*
X129945024Y-76774654D01*
X129960930Y-76789070D01*
X129975346Y-76804976D01*
X129988134Y-76822219D01*
X129999170Y-76840632D01*
X130008349Y-76860038D01*
X130015581Y-76880250D01*
X130020797Y-76901074D01*
X130023947Y-76922309D01*
X130025000Y-76943750D01*
X130025000Y-77456250D01*
X130023947Y-77477691D01*
X130020797Y-77498926D01*
X130015581Y-77519750D01*
X130008349Y-77539962D01*
X129999170Y-77559368D01*
X129988134Y-77577781D01*
X129975346Y-77595024D01*
X129960930Y-77610930D01*
X129945024Y-77625346D01*
X129927781Y-77638134D01*
X129909368Y-77649170D01*
X129889962Y-77658349D01*
X129869750Y-77665581D01*
X129848926Y-77670797D01*
X129827691Y-77673947D01*
X129806250Y-77675000D01*
X129368750Y-77675000D01*
X129347309Y-77673947D01*
X129326074Y-77670797D01*
X129305250Y-77665581D01*
X129285038Y-77658349D01*
X129265632Y-77649170D01*
X129247219Y-77638134D01*
X129229976Y-77625346D01*
X129214070Y-77610930D01*
X129199654Y-77595024D01*
X129186866Y-77577781D01*
X129175830Y-77559368D01*
X129166651Y-77539962D01*
X129159419Y-77519750D01*
X129154203Y-77498926D01*
X129151053Y-77477691D01*
X129150000Y-77456250D01*
X129150000Y-76943750D01*
X129151053Y-76922309D01*
X129154203Y-76901074D01*
X129159419Y-76880250D01*
X129166651Y-76860038D01*
X129175830Y-76840632D01*
X129186866Y-76822219D01*
X129199654Y-76804976D01*
X129214070Y-76789070D01*
X129229976Y-76774654D01*
X129247219Y-76761866D01*
X129265632Y-76750830D01*
X129285038Y-76741651D01*
X129305250Y-76734419D01*
X129326074Y-76729203D01*
X129347309Y-76726053D01*
X129368750Y-76725000D01*
X129806250Y-76725000D01*
X129827691Y-76726053D01*
X129827691Y-76726053D01*
G37*
D11*
X129587500Y-77200000D03*
D10*
G36*
X128252691Y-76726053D02*
X128273926Y-76729203D01*
X128294750Y-76734419D01*
X128314962Y-76741651D01*
X128334368Y-76750830D01*
X128352781Y-76761866D01*
X128370024Y-76774654D01*
X128385930Y-76789070D01*
X128400346Y-76804976D01*
X128413134Y-76822219D01*
X128424170Y-76840632D01*
X128433349Y-76860038D01*
X128440581Y-76880250D01*
X128445797Y-76901074D01*
X128448947Y-76922309D01*
X128450000Y-76943750D01*
X128450000Y-77456250D01*
X128448947Y-77477691D01*
X128445797Y-77498926D01*
X128440581Y-77519750D01*
X128433349Y-77539962D01*
X128424170Y-77559368D01*
X128413134Y-77577781D01*
X128400346Y-77595024D01*
X128385930Y-77610930D01*
X128370024Y-77625346D01*
X128352781Y-77638134D01*
X128334368Y-77649170D01*
X128314962Y-77658349D01*
X128294750Y-77665581D01*
X128273926Y-77670797D01*
X128252691Y-77673947D01*
X128231250Y-77675000D01*
X127793750Y-77675000D01*
X127772309Y-77673947D01*
X127751074Y-77670797D01*
X127730250Y-77665581D01*
X127710038Y-77658349D01*
X127690632Y-77649170D01*
X127672219Y-77638134D01*
X127654976Y-77625346D01*
X127639070Y-77610930D01*
X127624654Y-77595024D01*
X127611866Y-77577781D01*
X127600830Y-77559368D01*
X127591651Y-77539962D01*
X127584419Y-77519750D01*
X127579203Y-77498926D01*
X127576053Y-77477691D01*
X127575000Y-77456250D01*
X127575000Y-76943750D01*
X127576053Y-76922309D01*
X127579203Y-76901074D01*
X127584419Y-76880250D01*
X127591651Y-76860038D01*
X127600830Y-76840632D01*
X127611866Y-76822219D01*
X127624654Y-76804976D01*
X127639070Y-76789070D01*
X127654976Y-76774654D01*
X127672219Y-76761866D01*
X127690632Y-76750830D01*
X127710038Y-76741651D01*
X127730250Y-76734419D01*
X127751074Y-76729203D01*
X127772309Y-76726053D01*
X127793750Y-76725000D01*
X128231250Y-76725000D01*
X128252691Y-76726053D01*
X128252691Y-76726053D01*
G37*
D11*
X128012500Y-77200000D03*
G04 #@! TD*
D10*
G04 #@! TO.C,D17*
G36*
X143327691Y-75126053D02*
X143348926Y-75129203D01*
X143369750Y-75134419D01*
X143389962Y-75141651D01*
X143409368Y-75150830D01*
X143427781Y-75161866D01*
X143445024Y-75174654D01*
X143460930Y-75189070D01*
X143475346Y-75204976D01*
X143488134Y-75222219D01*
X143499170Y-75240632D01*
X143508349Y-75260038D01*
X143515581Y-75280250D01*
X143520797Y-75301074D01*
X143523947Y-75322309D01*
X143525000Y-75343750D01*
X143525000Y-75856250D01*
X143523947Y-75877691D01*
X143520797Y-75898926D01*
X143515581Y-75919750D01*
X143508349Y-75939962D01*
X143499170Y-75959368D01*
X143488134Y-75977781D01*
X143475346Y-75995024D01*
X143460930Y-76010930D01*
X143445024Y-76025346D01*
X143427781Y-76038134D01*
X143409368Y-76049170D01*
X143389962Y-76058349D01*
X143369750Y-76065581D01*
X143348926Y-76070797D01*
X143327691Y-76073947D01*
X143306250Y-76075000D01*
X142868750Y-76075000D01*
X142847309Y-76073947D01*
X142826074Y-76070797D01*
X142805250Y-76065581D01*
X142785038Y-76058349D01*
X142765632Y-76049170D01*
X142747219Y-76038134D01*
X142729976Y-76025346D01*
X142714070Y-76010930D01*
X142699654Y-75995024D01*
X142686866Y-75977781D01*
X142675830Y-75959368D01*
X142666651Y-75939962D01*
X142659419Y-75919750D01*
X142654203Y-75898926D01*
X142651053Y-75877691D01*
X142650000Y-75856250D01*
X142650000Y-75343750D01*
X142651053Y-75322309D01*
X142654203Y-75301074D01*
X142659419Y-75280250D01*
X142666651Y-75260038D01*
X142675830Y-75240632D01*
X142686866Y-75222219D01*
X142699654Y-75204976D01*
X142714070Y-75189070D01*
X142729976Y-75174654D01*
X142747219Y-75161866D01*
X142765632Y-75150830D01*
X142785038Y-75141651D01*
X142805250Y-75134419D01*
X142826074Y-75129203D01*
X142847309Y-75126053D01*
X142868750Y-75125000D01*
X143306250Y-75125000D01*
X143327691Y-75126053D01*
X143327691Y-75126053D01*
G37*
D11*
X143087500Y-75600000D03*
D10*
G36*
X141752691Y-75126053D02*
X141773926Y-75129203D01*
X141794750Y-75134419D01*
X141814962Y-75141651D01*
X141834368Y-75150830D01*
X141852781Y-75161866D01*
X141870024Y-75174654D01*
X141885930Y-75189070D01*
X141900346Y-75204976D01*
X141913134Y-75222219D01*
X141924170Y-75240632D01*
X141933349Y-75260038D01*
X141940581Y-75280250D01*
X141945797Y-75301074D01*
X141948947Y-75322309D01*
X141950000Y-75343750D01*
X141950000Y-75856250D01*
X141948947Y-75877691D01*
X141945797Y-75898926D01*
X141940581Y-75919750D01*
X141933349Y-75939962D01*
X141924170Y-75959368D01*
X141913134Y-75977781D01*
X141900346Y-75995024D01*
X141885930Y-76010930D01*
X141870024Y-76025346D01*
X141852781Y-76038134D01*
X141834368Y-76049170D01*
X141814962Y-76058349D01*
X141794750Y-76065581D01*
X141773926Y-76070797D01*
X141752691Y-76073947D01*
X141731250Y-76075000D01*
X141293750Y-76075000D01*
X141272309Y-76073947D01*
X141251074Y-76070797D01*
X141230250Y-76065581D01*
X141210038Y-76058349D01*
X141190632Y-76049170D01*
X141172219Y-76038134D01*
X141154976Y-76025346D01*
X141139070Y-76010930D01*
X141124654Y-75995024D01*
X141111866Y-75977781D01*
X141100830Y-75959368D01*
X141091651Y-75939962D01*
X141084419Y-75919750D01*
X141079203Y-75898926D01*
X141076053Y-75877691D01*
X141075000Y-75856250D01*
X141075000Y-75343750D01*
X141076053Y-75322309D01*
X141079203Y-75301074D01*
X141084419Y-75280250D01*
X141091651Y-75260038D01*
X141100830Y-75240632D01*
X141111866Y-75222219D01*
X141124654Y-75204976D01*
X141139070Y-75189070D01*
X141154976Y-75174654D01*
X141172219Y-75161866D01*
X141190632Y-75150830D01*
X141210038Y-75141651D01*
X141230250Y-75134419D01*
X141251074Y-75129203D01*
X141272309Y-75126053D01*
X141293750Y-75125000D01*
X141731250Y-75125000D01*
X141752691Y-75126053D01*
X141752691Y-75126053D01*
G37*
D11*
X141512500Y-75600000D03*
G04 #@! TD*
D10*
G04 #@! TO.C,D18*
G36*
X143327691Y-76626053D02*
X143348926Y-76629203D01*
X143369750Y-76634419D01*
X143389962Y-76641651D01*
X143409368Y-76650830D01*
X143427781Y-76661866D01*
X143445024Y-76674654D01*
X143460930Y-76689070D01*
X143475346Y-76704976D01*
X143488134Y-76722219D01*
X143499170Y-76740632D01*
X143508349Y-76760038D01*
X143515581Y-76780250D01*
X143520797Y-76801074D01*
X143523947Y-76822309D01*
X143525000Y-76843750D01*
X143525000Y-77356250D01*
X143523947Y-77377691D01*
X143520797Y-77398926D01*
X143515581Y-77419750D01*
X143508349Y-77439962D01*
X143499170Y-77459368D01*
X143488134Y-77477781D01*
X143475346Y-77495024D01*
X143460930Y-77510930D01*
X143445024Y-77525346D01*
X143427781Y-77538134D01*
X143409368Y-77549170D01*
X143389962Y-77558349D01*
X143369750Y-77565581D01*
X143348926Y-77570797D01*
X143327691Y-77573947D01*
X143306250Y-77575000D01*
X142868750Y-77575000D01*
X142847309Y-77573947D01*
X142826074Y-77570797D01*
X142805250Y-77565581D01*
X142785038Y-77558349D01*
X142765632Y-77549170D01*
X142747219Y-77538134D01*
X142729976Y-77525346D01*
X142714070Y-77510930D01*
X142699654Y-77495024D01*
X142686866Y-77477781D01*
X142675830Y-77459368D01*
X142666651Y-77439962D01*
X142659419Y-77419750D01*
X142654203Y-77398926D01*
X142651053Y-77377691D01*
X142650000Y-77356250D01*
X142650000Y-76843750D01*
X142651053Y-76822309D01*
X142654203Y-76801074D01*
X142659419Y-76780250D01*
X142666651Y-76760038D01*
X142675830Y-76740632D01*
X142686866Y-76722219D01*
X142699654Y-76704976D01*
X142714070Y-76689070D01*
X142729976Y-76674654D01*
X142747219Y-76661866D01*
X142765632Y-76650830D01*
X142785038Y-76641651D01*
X142805250Y-76634419D01*
X142826074Y-76629203D01*
X142847309Y-76626053D01*
X142868750Y-76625000D01*
X143306250Y-76625000D01*
X143327691Y-76626053D01*
X143327691Y-76626053D01*
G37*
D11*
X143087500Y-77100000D03*
D10*
G36*
X141752691Y-76626053D02*
X141773926Y-76629203D01*
X141794750Y-76634419D01*
X141814962Y-76641651D01*
X141834368Y-76650830D01*
X141852781Y-76661866D01*
X141870024Y-76674654D01*
X141885930Y-76689070D01*
X141900346Y-76704976D01*
X141913134Y-76722219D01*
X141924170Y-76740632D01*
X141933349Y-76760038D01*
X141940581Y-76780250D01*
X141945797Y-76801074D01*
X141948947Y-76822309D01*
X141950000Y-76843750D01*
X141950000Y-77356250D01*
X141948947Y-77377691D01*
X141945797Y-77398926D01*
X141940581Y-77419750D01*
X141933349Y-77439962D01*
X141924170Y-77459368D01*
X141913134Y-77477781D01*
X141900346Y-77495024D01*
X141885930Y-77510930D01*
X141870024Y-77525346D01*
X141852781Y-77538134D01*
X141834368Y-77549170D01*
X141814962Y-77558349D01*
X141794750Y-77565581D01*
X141773926Y-77570797D01*
X141752691Y-77573947D01*
X141731250Y-77575000D01*
X141293750Y-77575000D01*
X141272309Y-77573947D01*
X141251074Y-77570797D01*
X141230250Y-77565581D01*
X141210038Y-77558349D01*
X141190632Y-77549170D01*
X141172219Y-77538134D01*
X141154976Y-77525346D01*
X141139070Y-77510930D01*
X141124654Y-77495024D01*
X141111866Y-77477781D01*
X141100830Y-77459368D01*
X141091651Y-77439962D01*
X141084419Y-77419750D01*
X141079203Y-77398926D01*
X141076053Y-77377691D01*
X141075000Y-77356250D01*
X141075000Y-76843750D01*
X141076053Y-76822309D01*
X141079203Y-76801074D01*
X141084419Y-76780250D01*
X141091651Y-76760038D01*
X141100830Y-76740632D01*
X141111866Y-76722219D01*
X141124654Y-76704976D01*
X141139070Y-76689070D01*
X141154976Y-76674654D01*
X141172219Y-76661866D01*
X141190632Y-76650830D01*
X141210038Y-76641651D01*
X141230250Y-76634419D01*
X141251074Y-76629203D01*
X141272309Y-76626053D01*
X141293750Y-76625000D01*
X141731250Y-76625000D01*
X141752691Y-76626053D01*
X141752691Y-76626053D01*
G37*
D11*
X141512500Y-77100000D03*
G04 #@! TD*
M02*
