G04 #@! TF.GenerationSoftware,KiCad,Pcbnew,(5.0.2)-1*
G04 #@! TF.CreationDate,2019-01-19T12:13:54+11:00*
G04 #@! TF.ProjectId,WarGames_SAO,57617247-616d-4657-935f-53414f2e6b69,rev?*
G04 #@! TF.SameCoordinates,Original*
G04 #@! TF.FileFunction,Legend,Bot*
G04 #@! TF.FilePolarity,Positive*
%FSLAX46Y46*%
G04 Gerber Fmt 4.6, Leading zero omitted, Abs format (unit mm)*
G04 Created by KiCad (PCBNEW (5.0.2)-1) date 19/01/2019 12:13:54*
%MOMM*%
%LPD*%
G01*
G04 APERTURE LIST*
%ADD10C,0.150000*%
%ADD11C,0.120000*%
G04 APERTURE END LIST*
D10*
X138223309Y-82637380D02*
X138223309Y-83351666D01*
X138270928Y-83494523D01*
X138366166Y-83589761D01*
X138509023Y-83637380D01*
X138604261Y-83637380D01*
X137604261Y-83637380D02*
X137699500Y-83589761D01*
X137747119Y-83542142D01*
X137794738Y-83446904D01*
X137794738Y-83161190D01*
X137747119Y-83065952D01*
X137699500Y-83018333D01*
X137604261Y-82970714D01*
X137461404Y-82970714D01*
X137366166Y-83018333D01*
X137318547Y-83065952D01*
X137270928Y-83161190D01*
X137270928Y-83446904D01*
X137318547Y-83542142D01*
X137366166Y-83589761D01*
X137461404Y-83637380D01*
X137604261Y-83637380D01*
X136842357Y-83637380D02*
X136842357Y-82637380D01*
X136413785Y-83637380D02*
X136413785Y-83113571D01*
X136461404Y-83018333D01*
X136556642Y-82970714D01*
X136699500Y-82970714D01*
X136794738Y-83018333D01*
X136842357Y-83065952D01*
X135937595Y-82970714D02*
X135937595Y-83637380D01*
X135937595Y-83065952D02*
X135889976Y-83018333D01*
X135794738Y-82970714D01*
X135651880Y-82970714D01*
X135556642Y-83018333D01*
X135509023Y-83113571D01*
X135509023Y-83637380D01*
X135080452Y-83589761D02*
X134985214Y-83637380D01*
X134794738Y-83637380D01*
X134699500Y-83589761D01*
X134651880Y-83494523D01*
X134651880Y-83446904D01*
X134699500Y-83351666D01*
X134794738Y-83304047D01*
X134937595Y-83304047D01*
X135032833Y-83256428D01*
X135080452Y-83161190D01*
X135080452Y-83113571D01*
X135032833Y-83018333D01*
X134937595Y-82970714D01*
X134794738Y-82970714D01*
X134699500Y-83018333D01*
X134080452Y-83637380D02*
X134175690Y-83589761D01*
X134223309Y-83542142D01*
X134270928Y-83446904D01*
X134270928Y-83161190D01*
X134223309Y-83065952D01*
X134175690Y-83018333D01*
X134080452Y-82970714D01*
X133937595Y-82970714D01*
X133842357Y-83018333D01*
X133794738Y-83065952D01*
X133747119Y-83161190D01*
X133747119Y-83446904D01*
X133794738Y-83542142D01*
X133842357Y-83589761D01*
X133937595Y-83637380D01*
X134080452Y-83637380D01*
X133318547Y-82970714D02*
X133318547Y-83637380D01*
X133318547Y-83065952D02*
X133270928Y-83018333D01*
X133175690Y-82970714D01*
X133032833Y-82970714D01*
X132937595Y-83018333D01*
X132889976Y-83113571D01*
X132889976Y-83637380D01*
D11*
G04 #@! TO.C,C1*
X117662779Y-80290000D02*
X117337221Y-80290000D01*
X117662779Y-81310000D02*
X117337221Y-81310000D01*
G04 #@! TO.C,R1*
X128975279Y-81090000D02*
X128649721Y-81090000D01*
X128975279Y-82110000D02*
X128649721Y-82110000D01*
G04 #@! TO.C,R2*
X128962779Y-82590000D02*
X128637221Y-82590000D01*
X128962779Y-83610000D02*
X128637221Y-83610000D01*
G04 #@! TO.C,R3*
X128962779Y-84090000D02*
X128637221Y-84090000D01*
X128962779Y-85110000D02*
X128637221Y-85110000D01*
G04 #@! TO.C,R4*
X128962779Y-80610000D02*
X128637221Y-80610000D01*
X128962779Y-79590000D02*
X128637221Y-79590000D01*
G04 #@! TO.C,R5*
X128962779Y-79110000D02*
X128637221Y-79110000D01*
X128962779Y-78090000D02*
X128637221Y-78090000D01*
D10*
G04 #@! TO.C,U1*
X119325000Y-80025000D02*
X119375000Y-80025000D01*
X119325000Y-84175000D02*
X119470000Y-84175000D01*
X124475000Y-84175000D02*
X124330000Y-84175000D01*
X124475000Y-80025000D02*
X124330000Y-80025000D01*
X119325000Y-80025000D02*
X119325000Y-84175000D01*
X124475000Y-80025000D02*
X124475000Y-84175000D01*
X119375000Y-80025000D02*
X119375000Y-78625000D01*
G04 #@! TO.C,C1*
X117666666Y-79727142D02*
X117714285Y-79774761D01*
X117857142Y-79822380D01*
X117952380Y-79822380D01*
X118095238Y-79774761D01*
X118190476Y-79679523D01*
X118238095Y-79584285D01*
X118285714Y-79393809D01*
X118285714Y-79250952D01*
X118238095Y-79060476D01*
X118190476Y-78965238D01*
X118095238Y-78870000D01*
X117952380Y-78822380D01*
X117857142Y-78822380D01*
X117714285Y-78870000D01*
X117666666Y-78917619D01*
X116714285Y-79822380D02*
X117285714Y-79822380D01*
X117000000Y-79822380D02*
X117000000Y-78822380D01*
X117095238Y-78965238D01*
X117190476Y-79060476D01*
X117285714Y-79108095D01*
G04 #@! TO.C,R1*
X131379166Y-82052380D02*
X131712500Y-81576190D01*
X131950595Y-82052380D02*
X131950595Y-81052380D01*
X131569642Y-81052380D01*
X131474404Y-81100000D01*
X131426785Y-81147619D01*
X131379166Y-81242857D01*
X131379166Y-81385714D01*
X131426785Y-81480952D01*
X131474404Y-81528571D01*
X131569642Y-81576190D01*
X131950595Y-81576190D01*
X130426785Y-82052380D02*
X130998214Y-82052380D01*
X130712500Y-82052380D02*
X130712500Y-81052380D01*
X130807738Y-81195238D01*
X130902976Y-81290476D01*
X130998214Y-81338095D01*
G04 #@! TO.C,R2*
X131366666Y-83552380D02*
X131700000Y-83076190D01*
X131938095Y-83552380D02*
X131938095Y-82552380D01*
X131557142Y-82552380D01*
X131461904Y-82600000D01*
X131414285Y-82647619D01*
X131366666Y-82742857D01*
X131366666Y-82885714D01*
X131414285Y-82980952D01*
X131461904Y-83028571D01*
X131557142Y-83076190D01*
X131938095Y-83076190D01*
X130985714Y-82647619D02*
X130938095Y-82600000D01*
X130842857Y-82552380D01*
X130604761Y-82552380D01*
X130509523Y-82600000D01*
X130461904Y-82647619D01*
X130414285Y-82742857D01*
X130414285Y-82838095D01*
X130461904Y-82980952D01*
X131033333Y-83552380D01*
X130414285Y-83552380D01*
G04 #@! TO.C,R3*
X131366666Y-85052380D02*
X131700000Y-84576190D01*
X131938095Y-85052380D02*
X131938095Y-84052380D01*
X131557142Y-84052380D01*
X131461904Y-84100000D01*
X131414285Y-84147619D01*
X131366666Y-84242857D01*
X131366666Y-84385714D01*
X131414285Y-84480952D01*
X131461904Y-84528571D01*
X131557142Y-84576190D01*
X131938095Y-84576190D01*
X131033333Y-84052380D02*
X130414285Y-84052380D01*
X130747619Y-84433333D01*
X130604761Y-84433333D01*
X130509523Y-84480952D01*
X130461904Y-84528571D01*
X130414285Y-84623809D01*
X130414285Y-84861904D01*
X130461904Y-84957142D01*
X130509523Y-85004761D01*
X130604761Y-85052380D01*
X130890476Y-85052380D01*
X130985714Y-85004761D01*
X131033333Y-84957142D01*
G04 #@! TO.C,R4*
X131366666Y-80552380D02*
X131700000Y-80076190D01*
X131938095Y-80552380D02*
X131938095Y-79552380D01*
X131557142Y-79552380D01*
X131461904Y-79600000D01*
X131414285Y-79647619D01*
X131366666Y-79742857D01*
X131366666Y-79885714D01*
X131414285Y-79980952D01*
X131461904Y-80028571D01*
X131557142Y-80076190D01*
X131938095Y-80076190D01*
X130509523Y-79885714D02*
X130509523Y-80552380D01*
X130747619Y-79504761D02*
X130985714Y-80219047D01*
X130366666Y-80219047D01*
G04 #@! TO.C,R5*
X131366666Y-79152380D02*
X131700000Y-78676190D01*
X131938095Y-79152380D02*
X131938095Y-78152380D01*
X131557142Y-78152380D01*
X131461904Y-78200000D01*
X131414285Y-78247619D01*
X131366666Y-78342857D01*
X131366666Y-78485714D01*
X131414285Y-78580952D01*
X131461904Y-78628571D01*
X131557142Y-78676190D01*
X131938095Y-78676190D01*
X130461904Y-78152380D02*
X130938095Y-78152380D01*
X130985714Y-78628571D01*
X130938095Y-78580952D01*
X130842857Y-78533333D01*
X130604761Y-78533333D01*
X130509523Y-78580952D01*
X130461904Y-78628571D01*
X130414285Y-78723809D01*
X130414285Y-78961904D01*
X130461904Y-79057142D01*
X130509523Y-79104761D01*
X130604761Y-79152380D01*
X130842857Y-79152380D01*
X130938095Y-79104761D01*
X130985714Y-79057142D01*
G04 #@! TO.C,U1*
X124952380Y-81338095D02*
X125761904Y-81338095D01*
X125857142Y-81385714D01*
X125904761Y-81433333D01*
X125952380Y-81528571D01*
X125952380Y-81719047D01*
X125904761Y-81814285D01*
X125857142Y-81861904D01*
X125761904Y-81909523D01*
X124952380Y-81909523D01*
X125952380Y-82909523D02*
X125952380Y-82338095D01*
X125952380Y-82623809D02*
X124952380Y-82623809D01*
X125095238Y-82528571D01*
X125190476Y-82433333D01*
X125238095Y-82338095D01*
G04 #@! TO.C,REF\002A\002A*
X143671428Y-84476190D02*
X143719047Y-84428571D01*
X143814285Y-84380952D01*
X143909523Y-84380952D01*
X144004761Y-84428571D01*
X144052380Y-84476190D01*
X144100000Y-84571428D01*
X144100000Y-84666666D01*
X144052380Y-84761904D01*
X144004761Y-84809523D01*
X143909523Y-84857142D01*
X143814285Y-84857142D01*
X143719047Y-84809523D01*
X143671428Y-84761904D01*
X143671428Y-84380952D02*
X143671428Y-84761904D01*
X143623809Y-84809523D01*
X143576190Y-84809523D01*
X143480952Y-84761904D01*
X143433333Y-84666666D01*
X143433333Y-84428571D01*
X143528571Y-84285714D01*
X143671428Y-84190476D01*
X143861904Y-84142857D01*
X144052380Y-84190476D01*
X144195238Y-84285714D01*
X144290476Y-84428571D01*
X144338095Y-84619047D01*
X144290476Y-84809523D01*
X144195238Y-84952380D01*
X144052380Y-85047619D01*
X143861904Y-85095238D01*
X143671428Y-85047619D01*
X143528571Y-84952380D01*
X143242857Y-85047619D02*
X142480952Y-85047619D01*
X142242857Y-84285714D02*
X142242857Y-85142857D01*
X142290476Y-85238095D01*
X142385714Y-85285714D01*
X142433333Y-85285714D01*
X142242857Y-83952380D02*
X142290476Y-84000000D01*
X142242857Y-84047619D01*
X142195238Y-84000000D01*
X142242857Y-83952380D01*
X142242857Y-84047619D01*
X141623809Y-84952380D02*
X141719047Y-84904761D01*
X141766666Y-84857142D01*
X141814285Y-84761904D01*
X141814285Y-84476190D01*
X141766666Y-84380952D01*
X141719047Y-84333333D01*
X141623809Y-84285714D01*
X141480952Y-84285714D01*
X141385714Y-84333333D01*
X141338095Y-84380952D01*
X141290476Y-84476190D01*
X141290476Y-84761904D01*
X141338095Y-84857142D01*
X141385714Y-84904761D01*
X141480952Y-84952380D01*
X141623809Y-84952380D01*
X140909523Y-84904761D02*
X140814285Y-84952380D01*
X140623809Y-84952380D01*
X140528571Y-84904761D01*
X140480952Y-84809523D01*
X140480952Y-84761904D01*
X140528571Y-84666666D01*
X140623809Y-84619047D01*
X140766666Y-84619047D01*
X140861904Y-84571428D01*
X140909523Y-84476190D01*
X140909523Y-84428571D01*
X140861904Y-84333333D01*
X140766666Y-84285714D01*
X140623809Y-84285714D01*
X140528571Y-84333333D01*
X140052380Y-84952380D02*
X140052380Y-83952380D01*
X139623809Y-84952380D02*
X139623809Y-84428571D01*
X139671428Y-84333333D01*
X139766666Y-84285714D01*
X139909523Y-84285714D01*
X140004761Y-84333333D01*
X140052380Y-84380952D01*
X138719047Y-84952380D02*
X138719047Y-84428571D01*
X138766666Y-84333333D01*
X138861904Y-84285714D01*
X139052380Y-84285714D01*
X139147619Y-84333333D01*
X138719047Y-84904761D02*
X138814285Y-84952380D01*
X139052380Y-84952380D01*
X139147619Y-84904761D01*
X139195238Y-84809523D01*
X139195238Y-84714285D01*
X139147619Y-84619047D01*
X139052380Y-84571428D01*
X138814285Y-84571428D01*
X138719047Y-84523809D01*
X138242857Y-84285714D02*
X138242857Y-85142857D01*
X138290476Y-85238095D01*
X138385714Y-85285714D01*
X138433333Y-85285714D01*
X138242857Y-83952380D02*
X138290476Y-84000000D01*
X138242857Y-84047619D01*
X138195238Y-84000000D01*
X138242857Y-83952380D01*
X138242857Y-84047619D01*
X137623809Y-84952380D02*
X137719047Y-84904761D01*
X137766666Y-84857142D01*
X137814285Y-84761904D01*
X137814285Y-84476190D01*
X137766666Y-84380952D01*
X137719047Y-84333333D01*
X137623809Y-84285714D01*
X137480952Y-84285714D01*
X137385714Y-84333333D01*
X137338095Y-84380952D01*
X137290476Y-84476190D01*
X137290476Y-84761904D01*
X137338095Y-84857142D01*
X137385714Y-84904761D01*
X137480952Y-84952380D01*
X137623809Y-84952380D01*
X136861904Y-84952380D02*
X136861904Y-83952380D01*
X136433333Y-84952380D02*
X136433333Y-84428571D01*
X136480952Y-84333333D01*
X136576190Y-84285714D01*
X136719047Y-84285714D01*
X136814285Y-84333333D01*
X136861904Y-84380952D01*
X135957142Y-84285714D02*
X135957142Y-84952380D01*
X135957142Y-84380952D02*
X135909523Y-84333333D01*
X135814285Y-84285714D01*
X135671428Y-84285714D01*
X135576190Y-84333333D01*
X135528571Y-84428571D01*
X135528571Y-84952380D01*
X135100000Y-84904761D02*
X135004761Y-84952380D01*
X134814285Y-84952380D01*
X134719047Y-84904761D01*
X134671428Y-84809523D01*
X134671428Y-84761904D01*
X134719047Y-84666666D01*
X134814285Y-84619047D01*
X134957142Y-84619047D01*
X135052380Y-84571428D01*
X135100000Y-84476190D01*
X135100000Y-84428571D01*
X135052380Y-84333333D01*
X134957142Y-84285714D01*
X134814285Y-84285714D01*
X134719047Y-84333333D01*
X134100000Y-84952380D02*
X134195238Y-84904761D01*
X134242857Y-84857142D01*
X134290476Y-84761904D01*
X134290476Y-84476190D01*
X134242857Y-84380952D01*
X134195238Y-84333333D01*
X134100000Y-84285714D01*
X133957142Y-84285714D01*
X133861904Y-84333333D01*
X133814285Y-84380952D01*
X133766666Y-84476190D01*
X133766666Y-84761904D01*
X133814285Y-84857142D01*
X133861904Y-84904761D01*
X133957142Y-84952380D01*
X134100000Y-84952380D01*
X133338095Y-84285714D02*
X133338095Y-84952380D01*
X133338095Y-84380952D02*
X133290476Y-84333333D01*
X133195238Y-84285714D01*
X133052380Y-84285714D01*
X132957142Y-84333333D01*
X132909523Y-84428571D01*
X132909523Y-84952380D01*
X142501571Y-82049880D02*
X142501571Y-81049880D01*
X142168238Y-81764166D01*
X141834904Y-81049880D01*
X141834904Y-82049880D01*
X140930142Y-82049880D02*
X140930142Y-81526071D01*
X140977761Y-81430833D01*
X141073000Y-81383214D01*
X141263476Y-81383214D01*
X141358714Y-81430833D01*
X140930142Y-82002261D02*
X141025380Y-82049880D01*
X141263476Y-82049880D01*
X141358714Y-82002261D01*
X141406333Y-81907023D01*
X141406333Y-81811785D01*
X141358714Y-81716547D01*
X141263476Y-81668928D01*
X141025380Y-81668928D01*
X140930142Y-81621309D01*
X140025380Y-82049880D02*
X140025380Y-81049880D01*
X140025380Y-82002261D02*
X140120619Y-82049880D01*
X140311095Y-82049880D01*
X140406333Y-82002261D01*
X140453952Y-81954642D01*
X140501571Y-81859404D01*
X140501571Y-81573690D01*
X140453952Y-81478452D01*
X140406333Y-81430833D01*
X140311095Y-81383214D01*
X140120619Y-81383214D01*
X140025380Y-81430833D01*
X139168238Y-82002261D02*
X139263476Y-82049880D01*
X139453952Y-82049880D01*
X139549190Y-82002261D01*
X139596809Y-81907023D01*
X139596809Y-81526071D01*
X139549190Y-81430833D01*
X139453952Y-81383214D01*
X139263476Y-81383214D01*
X139168238Y-81430833D01*
X139120619Y-81526071D01*
X139120619Y-81621309D01*
X139596809Y-81716547D01*
X137596809Y-81526071D02*
X137453952Y-81573690D01*
X137406333Y-81621309D01*
X137358714Y-81716547D01*
X137358714Y-81859404D01*
X137406333Y-81954642D01*
X137453952Y-82002261D01*
X137549190Y-82049880D01*
X137930142Y-82049880D01*
X137930142Y-81049880D01*
X137596809Y-81049880D01*
X137501571Y-81097500D01*
X137453952Y-81145119D01*
X137406333Y-81240357D01*
X137406333Y-81335595D01*
X137453952Y-81430833D01*
X137501571Y-81478452D01*
X137596809Y-81526071D01*
X137930142Y-81526071D01*
X137025380Y-81383214D02*
X136787285Y-82049880D01*
X136549190Y-81383214D02*
X136787285Y-82049880D01*
X136882523Y-82287976D01*
X136930142Y-82335595D01*
X137025380Y-82383214D01*
X142263666Y-82637380D02*
X142263666Y-83351666D01*
X142311285Y-83494523D01*
X142406523Y-83589761D01*
X142549380Y-83637380D01*
X142644619Y-83637380D01*
X141644619Y-83637380D02*
X141739857Y-83589761D01*
X141787476Y-83542142D01*
X141835095Y-83446904D01*
X141835095Y-83161190D01*
X141787476Y-83065952D01*
X141739857Y-83018333D01*
X141644619Y-82970714D01*
X141501761Y-82970714D01*
X141406523Y-83018333D01*
X141358904Y-83065952D01*
X141311285Y-83161190D01*
X141311285Y-83446904D01*
X141358904Y-83542142D01*
X141406523Y-83589761D01*
X141501761Y-83637380D01*
X141644619Y-83637380D01*
X140930333Y-83589761D02*
X140835095Y-83637380D01*
X140644619Y-83637380D01*
X140549380Y-83589761D01*
X140501761Y-83494523D01*
X140501761Y-83446904D01*
X140549380Y-83351666D01*
X140644619Y-83304047D01*
X140787476Y-83304047D01*
X140882714Y-83256428D01*
X140930333Y-83161190D01*
X140930333Y-83113571D01*
X140882714Y-83018333D01*
X140787476Y-82970714D01*
X140644619Y-82970714D01*
X140549380Y-83018333D01*
X140073190Y-83637380D02*
X140073190Y-82637380D01*
X139644619Y-83637380D02*
X139644619Y-83113571D01*
X139692238Y-83018333D01*
X139787476Y-82970714D01*
X139930333Y-82970714D01*
X140025571Y-83018333D01*
X140073190Y-83065952D01*
G04 #@! TD*
M02*
