M48
;DRILL file {KiCad (5.0.2)-1} date 19/01/2019 12:13:59
;FORMAT={-:-/ absolute / inch / decimal}
FMAT,2
INCH,TZ
T1C0.0118
T2C0.0394
%
G90
G05
T1
X4.2874Y-2.2569
X4.3268Y-2.748
X4.3346Y-2.2392
X4.4685Y-1.9685
X4.4685Y-2.4646
X4.4685Y-2.9764
X4.5394Y-2.2362
X4.6102Y-1.9685
X4.6102Y-2.4646
X4.6142Y-2.9754
X4.8071Y-3.2087
X4.9252Y-2.7362
X4.9843Y-2.4724
X4.9882Y-1.9724
X4.9882Y-2.2638
X5.Y-2.9803
X5.1299Y-1.9724
X5.1299Y-2.4724
X5.1417Y-2.9803
X5.3228Y-3.1457
X5.3258Y-3.0276
X5.3504Y-2.9951
X5.3543Y-3.1507
X5.5135Y-1.9724
X5.5236Y-2.4724
X5.534Y-2.9705
X5.5984Y-2.7638
X5.6535Y-1.9724
X5.6654Y-2.4724
X5.6732Y-2.747
X5.6732Y-2.9764
X5.8189Y-2.7638
T2
X5.748Y-3.2283
X5.748Y-3.3283
X5.848Y-3.2283
X5.848Y-3.3283
T0
M30
