%MOIN*%
%OFA0B0*%
%FSLAX44Y44*%
%IPPOS*%
%LPD*%
%ADD10C,0*%
D10*
X00018897Y00016929D02*
X00018897Y00016929D01*
X00018890Y00017100D01*
X00018867Y00017270D01*
X00018830Y00017438D01*
X00018778Y00017602D01*
X00018713Y00017761D01*
X00018633Y00017913D01*
X00018541Y00018058D01*
X00018437Y00018194D01*
X00018321Y00018321D01*
X00018194Y00018437D01*
X00018058Y00018541D01*
X00017913Y00018633D01*
X00017761Y00018713D01*
X00017602Y00018778D01*
X00017438Y00018830D01*
X00017270Y00018867D01*
X00017100Y00018890D01*
X00016929Y00018897D01*
X00010616Y00018897D01*
X00010585Y00018898D01*
X00010555Y00018902D01*
X00010524Y00018908D01*
X00010495Y00018916D01*
X00010466Y00018927D01*
X00010437Y00018940D01*
X00010411Y00018955D01*
X00010385Y00018972D01*
X00010361Y00018991D01*
X00010338Y00019012D01*
X00010317Y00019035D01*
X00010298Y00019059D01*
X00010281Y00019085D01*
X00010265Y00019112D01*
X00010252Y00019140D01*
X00010242Y00019169D01*
X00010233Y00019199D01*
X00010227Y00019229D01*
X00010224Y00019260D01*
X00010223Y00019291D01*
X00010223Y00019448D01*
X00010224Y00019479D01*
X00010227Y00019510D01*
X00010233Y00019540D01*
X00010242Y00019570D01*
X00010252Y00019599D01*
X00010265Y00019627D01*
X00010281Y00019654D01*
X00010298Y00019680D01*
X00010317Y00019704D01*
X00010338Y00019727D01*
X00010361Y00019748D01*
X00010385Y00019767D01*
X00010411Y00019784D01*
X00010437Y00019799D01*
X00010466Y00019812D01*
X00010495Y00019823D01*
X00010524Y00019831D01*
X00010555Y00019837D01*
X00010585Y00019841D01*
X00010616Y00019842D01*
X00016929Y00019842D01*
X00017100Y00019850D01*
X00017270Y00019872D01*
X00017438Y00019909D01*
X00017602Y00019961D01*
X00017761Y00020026D01*
X00017913Y00020106D01*
X00018058Y00020198D01*
X00018194Y00020303D01*
X00018321Y00020419D01*
X00018437Y00020545D01*
X00018541Y00020681D01*
X00018633Y00020826D01*
X00018713Y00020979D01*
X00018778Y00021137D01*
X00018830Y00021301D01*
X00018867Y00021469D01*
X00018890Y00021639D01*
X00018897Y00021811D01*
X00018897Y00028123D01*
X00018898Y00028154D01*
X00018902Y00028185D01*
X00018908Y00028215D01*
X00018916Y00028245D01*
X00018927Y00028274D01*
X00018940Y00028302D01*
X00018955Y00028329D01*
X00018972Y00028354D01*
X00018991Y00028379D01*
X00019012Y00028401D01*
X00019035Y00028422D01*
X00019059Y00028441D01*
X00019085Y00028459D01*
X00019112Y00028474D01*
X00019140Y00028487D01*
X00019169Y00028497D01*
X00019199Y00028506D01*
X00019229Y00028512D01*
X00019260Y00028515D01*
X00019291Y00028517D01*
X00019448Y00028517D01*
X00019479Y00028515D01*
X00019510Y00028512D01*
X00019540Y00028506D01*
X00019570Y00028497D01*
X00019599Y00028487D01*
X00019627Y00028474D01*
X00019654Y00028459D01*
X00019680Y00028441D01*
X00019704Y00028422D01*
X00019727Y00028401D01*
X00019748Y00028379D01*
X00019767Y00028354D01*
X00019784Y00028329D01*
X00019799Y00028302D01*
X00019812Y00028274D01*
X00019823Y00028245D01*
X00019831Y00028215D01*
X00019837Y00028185D01*
X00019841Y00028154D01*
X00019842Y00028123D01*
X00019842Y00021811D01*
X00019850Y00021639D01*
X00019872Y00021469D01*
X00019909Y00021301D01*
X00019961Y00021137D01*
X00020026Y00020979D01*
X00020106Y00020826D01*
X00020198Y00020681D01*
X00020303Y00020545D01*
X00020419Y00020419D01*
X00020545Y00020303D01*
X00020681Y00020198D01*
X00020826Y00020106D01*
X00020979Y00020026D01*
X00021137Y00019961D01*
X00021301Y00019909D01*
X00021469Y00019872D01*
X00021639Y00019850D01*
X00021811Y00019842D01*
X00028123Y00019842D01*
X00028154Y00019841D01*
X00028185Y00019837D01*
X00028215Y00019831D01*
X00028245Y00019823D01*
X00028274Y00019812D01*
X00028302Y00019799D01*
X00028329Y00019784D01*
X00028354Y00019767D01*
X00028379Y00019748D01*
X00028401Y00019727D01*
X00028422Y00019704D01*
X00028441Y00019680D01*
X00028459Y00019654D01*
X00028474Y00019627D01*
X00028487Y00019599D01*
X00028497Y00019570D01*
X00028506Y00019540D01*
X00028512Y00019510D01*
X00028515Y00019479D01*
X00028517Y00019448D01*
X00028517Y00019291D01*
X00028515Y00019260D01*
X00028512Y00019229D01*
X00028506Y00019199D01*
X00028497Y00019169D01*
X00028487Y00019140D01*
X00028474Y00019112D01*
X00028459Y00019085D01*
X00028441Y00019059D01*
X00028422Y00019035D01*
X00028401Y00019012D01*
X00028379Y00018991D01*
X00028354Y00018972D01*
X00028329Y00018955D01*
X00028302Y00018940D01*
X00028274Y00018927D01*
X00028245Y00018916D01*
X00028215Y00018908D01*
X00028185Y00018902D01*
X00028154Y00018898D01*
X00028123Y00018897D01*
X00021811Y00018897D01*
X00021639Y00018890D01*
X00021469Y00018867D01*
X00021301Y00018830D01*
X00021137Y00018778D01*
X00020979Y00018713D01*
X00020826Y00018633D01*
X00020681Y00018541D01*
X00020545Y00018437D01*
X00020419Y00018321D01*
X00020303Y00018194D01*
X00020198Y00018058D01*
X00020106Y00017913D01*
X00020026Y00017761D01*
X00019961Y00017602D01*
X00019909Y00017438D01*
X00019872Y00017270D01*
X00019850Y00017100D01*
X00019842Y00016929D01*
X00019842Y00010616D01*
X00019841Y00010585D01*
X00019837Y00010555D01*
X00019831Y00010524D01*
X00019823Y00010495D01*
X00019812Y00010466D01*
X00019799Y00010437D01*
X00019784Y00010411D01*
X00019767Y00010385D01*
X00019748Y00010361D01*
X00019727Y00010338D01*
X00019704Y00010317D01*
X00019680Y00010298D01*
X00019654Y00010281D01*
X00019627Y00010265D01*
X00019599Y00010252D01*
X00019570Y00010242D01*
X00019540Y00010233D01*
X00019510Y00010227D01*
X00019479Y00010224D01*
X00019448Y00010223D01*
X00019291Y00010223D01*
X00019260Y00010224D01*
X00019229Y00010227D01*
X00019199Y00010233D01*
X00019169Y00010242D01*
X00019140Y00010252D01*
X00019112Y00010265D01*
X00019085Y00010281D01*
X00019059Y00010298D01*
X00019035Y00010317D01*
X00019012Y00010338D01*
X00018991Y00010361D01*
X00018972Y00010385D01*
X00018955Y00010411D01*
X00018940Y00010437D01*
X00018927Y00010466D01*
X00018916Y00010495D01*
X00018908Y00010524D01*
X00018902Y00010555D01*
X00018898Y00010585D01*
X00018897Y00010616D01*
X00018897Y00016929D01*
X00001968Y00000000D02*
X00001968Y00000000D01*
X00016929Y00000000D01*
X00017100Y00000007D01*
X00017270Y00000029D01*
X00017438Y00000067D01*
X00017602Y00000118D01*
X00017761Y00000184D01*
X00017913Y00000263D01*
X00018058Y00000356D01*
X00018194Y00000460D01*
X00018321Y00000576D01*
X00018437Y00000703D01*
X00018541Y00000839D01*
X00018633Y00000984D01*
X00018713Y00001136D01*
X00018778Y00001295D01*
X00018830Y00001459D01*
X00018867Y00001626D01*
X00018890Y00001796D01*
X00018897Y00001968D01*
X00018897Y00008280D01*
X00018898Y00008311D01*
X00018902Y00008342D01*
X00018908Y00008372D01*
X00018916Y00008402D01*
X00018927Y00008431D01*
X00018940Y00008459D01*
X00018955Y00008486D01*
X00018972Y00008512D01*
X00018991Y00008536D01*
X00019012Y00008559D01*
X00019035Y00008580D01*
X00019059Y00008599D01*
X00019085Y00008616D01*
X00019112Y00008631D01*
X00019140Y00008644D01*
X00019169Y00008655D01*
X00019199Y00008663D01*
X00019229Y00008669D01*
X00019260Y00008673D01*
X00019291Y00008674D01*
X00019448Y00008674D01*
X00019479Y00008673D01*
X00019510Y00008669D01*
X00019540Y00008663D01*
X00019570Y00008655D01*
X00019599Y00008644D01*
X00019627Y00008631D01*
X00019654Y00008616D01*
X00019680Y00008599D01*
X00019704Y00008580D01*
X00019727Y00008559D01*
X00019748Y00008536D01*
X00019767Y00008512D01*
X00019784Y00008486D01*
X00019799Y00008459D01*
X00019812Y00008431D01*
X00019823Y00008402D01*
X00019831Y00008372D01*
X00019837Y00008342D01*
X00019841Y00008311D01*
X00019842Y00008280D01*
X00019842Y00001968D01*
X00019850Y00001796D01*
X00019872Y00001626D01*
X00019909Y00001459D01*
X00019961Y00001295D01*
X00020026Y00001136D01*
X00020106Y00000984D01*
X00020198Y00000839D01*
X00020303Y00000703D01*
X00020419Y00000576D01*
X00020545Y00000460D01*
X00020681Y00000356D01*
X00020826Y00000263D01*
X00020979Y00000184D01*
X00021137Y00000118D01*
X00021301Y00000067D01*
X00021469Y00000029D01*
X00021639Y00000007D01*
X00021811Y00000000D01*
X00036771Y00000000D01*
X00036943Y00000007D01*
X00037113Y00000029D01*
X00037281Y00000067D01*
X00037444Y00000118D01*
X00037603Y00000184D01*
X00037755Y00000263D01*
X00037900Y00000356D01*
X00038036Y00000460D01*
X00038163Y00000576D01*
X00038279Y00000703D01*
X00038384Y00000839D01*
X00038476Y00000984D01*
X00038555Y00001136D01*
X00038621Y00001295D01*
X00038673Y00001459D01*
X00038710Y00001626D01*
X00038732Y00001796D01*
X00038740Y00001968D01*
X00038740Y00016929D01*
X00038732Y00017100D01*
X00038710Y00017270D01*
X00038673Y00017438D01*
X00038621Y00017602D01*
X00038555Y00017761D01*
X00038476Y00017913D01*
X00038384Y00018058D01*
X00038279Y00018194D01*
X00038163Y00018321D01*
X00038036Y00018437D01*
X00037900Y00018541D01*
X00037755Y00018633D01*
X00037603Y00018713D01*
X00037444Y00018778D01*
X00037281Y00018830D01*
X00037113Y00018867D01*
X00036943Y00018890D01*
X00036771Y00018897D01*
X00030459Y00018897D01*
X00030428Y00018898D01*
X00030397Y00018902D01*
X00030367Y00018908D01*
X00030337Y00018916D01*
X00030308Y00018927D01*
X00030280Y00018940D01*
X00030253Y00018955D01*
X00030227Y00018972D01*
X00030203Y00018991D01*
X00030180Y00019012D01*
X00030159Y00019035D01*
X00030140Y00019059D01*
X00030123Y00019085D01*
X00030108Y00019112D01*
X00030095Y00019140D01*
X00030084Y00019169D01*
X00030076Y00019199D01*
X00030070Y00019229D01*
X00030066Y00019260D01*
X00030065Y00019291D01*
X00030065Y00019448D01*
X00030066Y00019479D01*
X00030070Y00019510D01*
X00030076Y00019540D01*
X00030084Y00019570D01*
X00030095Y00019599D01*
X00030108Y00019627D01*
X00030123Y00019654D01*
X00030140Y00019680D01*
X00030159Y00019704D01*
X00030180Y00019727D01*
X00030203Y00019748D01*
X00030227Y00019767D01*
X00030253Y00019784D01*
X00030280Y00019799D01*
X00030308Y00019812D01*
X00030337Y00019823D01*
X00030367Y00019831D01*
X00030397Y00019837D01*
X00030428Y00019841D01*
X00030459Y00019842D01*
X00036771Y00019842D01*
X00036943Y00019850D01*
X00037113Y00019872D01*
X00037281Y00019909D01*
X00037444Y00019961D01*
X00037603Y00020026D01*
X00037755Y00020106D01*
X00037900Y00020198D01*
X00038036Y00020303D01*
X00038163Y00020419D01*
X00038279Y00020545D01*
X00038384Y00020681D01*
X00038476Y00020826D01*
X00038555Y00020979D01*
X00038621Y00021137D01*
X00038673Y00021301D01*
X00038710Y00021469D01*
X00038732Y00021639D01*
X00038740Y00021811D01*
X00038740Y00036771D01*
X00038732Y00036943D01*
X00038710Y00037113D01*
X00038673Y00037281D01*
X00038621Y00037444D01*
X00038555Y00037603D01*
X00038476Y00037755D01*
X00038384Y00037900D01*
X00038279Y00038036D01*
X00038163Y00038163D01*
X00038036Y00038279D01*
X00037900Y00038384D01*
X00037755Y00038476D01*
X00037603Y00038555D01*
X00037444Y00038621D01*
X00037281Y00038673D01*
X00037113Y00038710D01*
X00036943Y00038732D01*
X00036771Y00038740D01*
X00021811Y00038740D01*
X00021639Y00038732D01*
X00021469Y00038710D01*
X00021301Y00038673D01*
X00021137Y00038621D01*
X00020979Y00038555D01*
X00020826Y00038476D01*
X00020681Y00038384D01*
X00020545Y00038279D01*
X00020419Y00038163D01*
X00020303Y00038036D01*
X00020198Y00037900D01*
X00020106Y00037755D01*
X00020026Y00037603D01*
X00019961Y00037444D01*
X00019909Y00037281D01*
X00019872Y00037113D01*
X00019850Y00036943D01*
X00019842Y00036771D01*
X00019842Y00030459D01*
X00019841Y00030428D01*
X00019837Y00030397D01*
X00019831Y00030367D01*
X00019823Y00030337D01*
X00019812Y00030308D01*
X00019799Y00030280D01*
X00019784Y00030253D01*
X00019767Y00030227D01*
X00019748Y00030203D01*
X00019727Y00030180D01*
X00019704Y00030159D01*
X00019680Y00030140D01*
X00019654Y00030123D01*
X00019627Y00030108D01*
X00019599Y00030095D01*
X00019570Y00030084D01*
X00019540Y00030076D01*
X00019510Y00030070D01*
X00019479Y00030066D01*
X00019448Y00030065D01*
X00019291Y00030065D01*
X00019260Y00030066D01*
X00019229Y00030070D01*
X00019199Y00030076D01*
X00019169Y00030084D01*
X00019140Y00030095D01*
X00019112Y00030108D01*
X00019085Y00030123D01*
X00019059Y00030140D01*
X00019035Y00030159D01*
X00019012Y00030180D01*
X00018991Y00030203D01*
X00018972Y00030227D01*
X00018955Y00030253D01*
X00018940Y00030280D01*
X00018927Y00030308D01*
X00018916Y00030337D01*
X00018908Y00030367D01*
X00018902Y00030397D01*
X00018898Y00030428D01*
X00018897Y00030459D01*
X00018897Y00036771D01*
X00018890Y00036943D01*
X00018867Y00037113D01*
X00018830Y00037281D01*
X00018778Y00037444D01*
X00018713Y00037603D01*
X00018633Y00037755D01*
X00018541Y00037900D01*
X00018437Y00038036D01*
X00018321Y00038163D01*
X00018194Y00038279D01*
X00018058Y00038384D01*
X00017913Y00038476D01*
X00017761Y00038555D01*
X00017602Y00038621D01*
X00017438Y00038673D01*
X00017270Y00038710D01*
X00017100Y00038732D01*
X00016929Y00038740D01*
X00001968Y00038740D01*
X00001796Y00038732D01*
X00001626Y00038710D01*
X00001459Y00038673D01*
X00001295Y00038621D01*
X00001136Y00038555D01*
X00000984Y00038476D01*
X00000839Y00038384D01*
X00000703Y00038279D01*
X00000576Y00038163D01*
X00000460Y00038036D01*
X00000355Y00037900D01*
X00000263Y00037755D01*
X00000184Y00037603D01*
X00000118Y00037444D01*
X00000067Y00037281D01*
X00000029Y00037113D01*
X00000007Y00036943D01*
X00000000Y00036771D01*
X00000000Y00021811D01*
X00000007Y00021639D01*
X00000029Y00021469D01*
X00000067Y00021301D01*
X00000118Y00021137D01*
X00000184Y00020979D01*
X00000263Y00020826D01*
X00000355Y00020681D01*
X00000460Y00020545D01*
X00000576Y00020419D01*
X00000703Y00020303D01*
X00000839Y00020198D01*
X00000984Y00020106D01*
X00001136Y00020026D01*
X00001295Y00019961D01*
X00001459Y00019909D01*
X00001626Y00019872D01*
X00001796Y00019850D01*
X00001968Y00019842D01*
X00008280Y00019842D01*
X00008311Y00019841D01*
X00008342Y00019837D01*
X00008372Y00019831D01*
X00008402Y00019823D01*
X00008431Y00019812D01*
X00008459Y00019799D01*
X00008486Y00019784D01*
X00008512Y00019767D01*
X00008536Y00019748D01*
X00008559Y00019727D01*
X00008580Y00019704D01*
X00008599Y00019680D01*
X00008616Y00019654D01*
X00008631Y00019627D01*
X00008644Y00019599D01*
X00008655Y00019570D01*
X00008663Y00019540D01*
X00008669Y00019510D01*
X00008673Y00019479D01*
X00008674Y00019448D01*
X00008674Y00019291D01*
X00008673Y00019260D01*
X00008669Y00019229D01*
X00008663Y00019199D01*
X00008655Y00019169D01*
X00008644Y00019140D01*
X00008631Y00019112D01*
X00008616Y00019085D01*
X00008599Y00019059D01*
X00008580Y00019035D01*
X00008559Y00019012D01*
X00008536Y00018991D01*
X00008512Y00018972D01*
X00008486Y00018955D01*
X00008459Y00018940D01*
X00008431Y00018927D01*
X00008402Y00018916D01*
X00008372Y00018908D01*
X00008342Y00018902D01*
X00008311Y00018898D01*
X00008280Y00018897D01*
X00001968Y00018897D01*
X00001796Y00018890D01*
X00001626Y00018867D01*
X00001459Y00018830D01*
X00001295Y00018778D01*
X00001136Y00018713D01*
X00000984Y00018633D01*
X00000839Y00018541D01*
X00000703Y00018437D01*
X00000576Y00018321D01*
X00000460Y00018194D01*
X00000355Y00018058D01*
X00000263Y00017913D01*
X00000184Y00017761D01*
X00000118Y00017602D01*
X00000067Y00017438D01*
X00000029Y00017270D01*
X00000007Y00017100D01*
X00000000Y00016929D01*
X00000000Y00001968D01*
X00000007Y00001796D01*
X00000029Y00001626D01*
X00000067Y00001459D01*
X00000118Y00001295D01*
X00000184Y00001136D01*
X00000263Y00000984D01*
X00000355Y00000839D01*
X00000460Y00000703D01*
X00000576Y00000576D01*
X00000703Y00000460D01*
X00000839Y00000356D01*
X00000984Y00000263D01*
X00001136Y00000184D01*
X00001295Y00000118D01*
X00001459Y00000067D01*
X00001626Y00000029D01*
X00001796Y00000007D01*
X00001968Y00000000D01*
M02*