%MOIN*%
%OFA0B0*%
%FSLAX46Y46*%
%IPPOS*%
%LPD*%
%ADD10C,0.0039370078740157488*%
%ADD11C,0.034448818897637797*%
%ADD12R,0.023622047244094488X0.0610236220472441*%
%ADD23C,0.0039370078740157488*%
%ADD24C,0.034448818897637797*%
%ADD25R,0.023622047244094488X0.0610236220472441*%
%ADD26C,0.0039370078740157488*%
%ADD27C,0.034448818897637797*%
%ADD28R,0.023622047244094488X0.0610236220472441*%
%ADD29C,0.0039370078740157488*%
%ADD30C,0.034448818897637797*%
%ADD31R,0.023622047244094488X0.0610236220472441*%
G01*
D10*
G36*
X0000532586Y0000302123D02*
X0000533422Y0000301999D01*
X0000534242Y0000301794D01*
X0000535037Y0000301509D01*
X0000535801Y0000301148D01*
X0000536526Y0000300713D01*
X0000537205Y0000300210D01*
X0000537831Y0000299642D01*
X0000538399Y0000299016D01*
X0000538902Y0000298337D01*
X0000539337Y0000297612D01*
X0000539698Y0000296848D01*
X0000539983Y0000296053D01*
X0000540188Y0000295233D01*
X0000540312Y0000294397D01*
X0000540354Y0000293553D01*
X0000540354Y0000273375D01*
X0000540312Y0000272531D01*
X0000540188Y0000271695D01*
X0000539983Y0000270875D01*
X0000539698Y0000270080D01*
X0000539337Y0000269316D01*
X0000538902Y0000268591D01*
X0000538399Y0000267912D01*
X0000537831Y0000267286D01*
X0000537205Y0000266718D01*
X0000536526Y0000266215D01*
X0000535801Y0000265780D01*
X0000535037Y0000265419D01*
X0000534242Y0000265134D01*
X0000533422Y0000264929D01*
X0000532586Y0000264805D01*
X0000531742Y0000264763D01*
X0000514517Y0000264763D01*
X0000513673Y0000264805D01*
X0000512837Y0000264929D01*
X0000512017Y0000265134D01*
X0000511221Y0000265419D01*
X0000510457Y0000265780D01*
X0000509733Y0000266215D01*
X0000509054Y0000266718D01*
X0000508427Y0000267286D01*
X0000507860Y0000267912D01*
X0000507356Y0000268591D01*
X0000506922Y0000269316D01*
X0000506561Y0000270080D01*
X0000506276Y0000270875D01*
X0000506070Y0000271695D01*
X0000505946Y0000272531D01*
X0000505905Y0000273375D01*
X0000505905Y0000293553D01*
X0000505946Y0000294397D01*
X0000506070Y0000295233D01*
X0000506276Y0000296053D01*
X0000506561Y0000296848D01*
X0000506922Y0000297612D01*
X0000507356Y0000298337D01*
X0000507860Y0000299016D01*
X0000508427Y0000299642D01*
X0000509054Y0000300210D01*
X0000509733Y0000300713D01*
X0000510457Y0000301148D01*
X0000511221Y0000301509D01*
X0000512017Y0000301794D01*
X0000512837Y0000301999D01*
X0000513673Y0000302123D01*
X0000514517Y0000302165D01*
X0000531742Y0000302165D01*
X0000532586Y0000302123D01*
X0000532586Y0000302123D01*
G37*
D11*
X0000523129Y0000283464D03*
D10*
G36*
X0000470578Y0000302123D02*
X0000471414Y0000301999D01*
X0000472234Y0000301794D01*
X0000473029Y0000301509D01*
X0000473794Y0000301148D01*
X0000474518Y0000300713D01*
X0000475197Y0000300210D01*
X0000475824Y0000299642D01*
X0000476391Y0000299016D01*
X0000476895Y0000298337D01*
X0000477329Y0000297612D01*
X0000477690Y0000296848D01*
X0000477975Y0000296053D01*
X0000478180Y0000295233D01*
X0000478305Y0000294397D01*
X0000478346Y0000293553D01*
X0000478346Y0000273375D01*
X0000478305Y0000272531D01*
X0000478180Y0000271695D01*
X0000477975Y0000270875D01*
X0000477690Y0000270080D01*
X0000477329Y0000269316D01*
X0000476895Y0000268591D01*
X0000476391Y0000267912D01*
X0000475824Y0000267286D01*
X0000475197Y0000266718D01*
X0000474518Y0000266215D01*
X0000473794Y0000265780D01*
X0000473029Y0000265419D01*
X0000472234Y0000265134D01*
X0000471414Y0000264929D01*
X0000470578Y0000264805D01*
X0000469734Y0000264763D01*
X0000452509Y0000264763D01*
X0000451665Y0000264805D01*
X0000450829Y0000264929D01*
X0000450009Y0000265134D01*
X0000449214Y0000265419D01*
X0000448450Y0000265780D01*
X0000447725Y0000266215D01*
X0000447046Y0000266718D01*
X0000446420Y0000267286D01*
X0000445852Y0000267912D01*
X0000445349Y0000268591D01*
X0000444914Y0000269316D01*
X0000444553Y0000270080D01*
X0000444268Y0000270875D01*
X0000444063Y0000271695D01*
X0000443939Y0000272531D01*
X0000443897Y0000273375D01*
X0000443897Y0000293553D01*
X0000443939Y0000294397D01*
X0000444063Y0000295233D01*
X0000444268Y0000296053D01*
X0000444553Y0000296848D01*
X0000444914Y0000297612D01*
X0000445349Y0000298337D01*
X0000445852Y0000299016D01*
X0000446420Y0000299642D01*
X0000447046Y0000300210D01*
X0000447725Y0000300713D01*
X0000448450Y0000301148D01*
X0000449214Y0000301509D01*
X0000450009Y0000301794D01*
X0000450829Y0000301999D01*
X0000451665Y0000302123D01*
X0000452509Y0000302165D01*
X0000469734Y0000302165D01*
X0000470578Y0000302123D01*
X0000470578Y0000302123D01*
G37*
D11*
X0000461122Y0000283464D03*
D10*
G36*
X0000977960Y0000270627D02*
X0000978796Y0000270503D01*
X0000979616Y0000270298D01*
X0000980411Y0000270013D01*
X0000981175Y0000269652D01*
X0000981900Y0000269217D01*
X0000982579Y0000268714D01*
X0000983205Y0000268146D01*
X0000983773Y0000267520D01*
X0000984276Y0000266841D01*
X0000984711Y0000266116D01*
X0000985072Y0000265352D01*
X0000985357Y0000264557D01*
X0000985562Y0000263737D01*
X0000985686Y0000262901D01*
X0000985728Y0000262057D01*
X0000985728Y0000241879D01*
X0000985686Y0000241035D01*
X0000985562Y0000240199D01*
X0000985357Y0000239379D01*
X0000985072Y0000238584D01*
X0000984711Y0000237820D01*
X0000984276Y0000237095D01*
X0000983773Y0000236416D01*
X0000983205Y0000235790D01*
X0000982579Y0000235222D01*
X0000981900Y0000234719D01*
X0000981175Y0000234284D01*
X0000980411Y0000233923D01*
X0000979616Y0000233638D01*
X0000978796Y0000233433D01*
X0000977960Y0000233309D01*
X0000977116Y0000233267D01*
X0000959891Y0000233267D01*
X0000959047Y0000233309D01*
X0000958211Y0000233433D01*
X0000957391Y0000233638D01*
X0000956595Y0000233923D01*
X0000955831Y0000234284D01*
X0000955107Y0000234719D01*
X0000954428Y0000235222D01*
X0000953801Y0000235790D01*
X0000953234Y0000236416D01*
X0000952730Y0000237095D01*
X0000952296Y0000237820D01*
X0000951935Y0000238584D01*
X0000951650Y0000239379D01*
X0000951445Y0000240199D01*
X0000951320Y0000241035D01*
X0000951279Y0000241879D01*
X0000951279Y0000262057D01*
X0000951320Y0000262901D01*
X0000951445Y0000263737D01*
X0000951650Y0000264557D01*
X0000951935Y0000265352D01*
X0000952296Y0000266116D01*
X0000952730Y0000266841D01*
X0000953234Y0000267520D01*
X0000953801Y0000268146D01*
X0000954428Y0000268714D01*
X0000955107Y0000269217D01*
X0000955831Y0000269652D01*
X0000956595Y0000270013D01*
X0000957391Y0000270298D01*
X0000958211Y0000270503D01*
X0000959047Y0000270627D01*
X0000959891Y0000270669D01*
X0000977116Y0000270669D01*
X0000977960Y0000270627D01*
X0000977960Y0000270627D01*
G37*
D11*
X0000968503Y0000251968D03*
D10*
G36*
X0000915952Y0000270627D02*
X0000916788Y0000270503D01*
X0000917608Y0000270298D01*
X0000918403Y0000270013D01*
X0000919168Y0000269652D01*
X0000919892Y0000269217D01*
X0000920571Y0000268714D01*
X0000921197Y0000268146D01*
X0000921765Y0000267520D01*
X0000922269Y0000266841D01*
X0000922703Y0000266116D01*
X0000923064Y0000265352D01*
X0000923349Y0000264557D01*
X0000923554Y0000263737D01*
X0000923678Y0000262901D01*
X0000923720Y0000262057D01*
X0000923720Y0000241879D01*
X0000923678Y0000241035D01*
X0000923554Y0000240199D01*
X0000923349Y0000239379D01*
X0000923064Y0000238584D01*
X0000922703Y0000237820D01*
X0000922269Y0000237095D01*
X0000921765Y0000236416D01*
X0000921197Y0000235790D01*
X0000920571Y0000235222D01*
X0000919892Y0000234719D01*
X0000919168Y0000234284D01*
X0000918403Y0000233923D01*
X0000917608Y0000233638D01*
X0000916788Y0000233433D01*
X0000915952Y0000233309D01*
X0000915108Y0000233267D01*
X0000897883Y0000233267D01*
X0000897039Y0000233309D01*
X0000896203Y0000233433D01*
X0000895383Y0000233638D01*
X0000894588Y0000233923D01*
X0000893824Y0000234284D01*
X0000893099Y0000234719D01*
X0000892420Y0000235222D01*
X0000891794Y0000235790D01*
X0000891226Y0000236416D01*
X0000890723Y0000237095D01*
X0000890288Y0000237820D01*
X0000889927Y0000238584D01*
X0000889642Y0000239379D01*
X0000889437Y0000240199D01*
X0000889313Y0000241035D01*
X0000889271Y0000241879D01*
X0000889271Y0000262057D01*
X0000889313Y0000262901D01*
X0000889437Y0000263737D01*
X0000889642Y0000264557D01*
X0000889927Y0000265352D01*
X0000890288Y0000266116D01*
X0000890723Y0000266841D01*
X0000891226Y0000267520D01*
X0000891794Y0000268146D01*
X0000892420Y0000268714D01*
X0000893099Y0000269217D01*
X0000893824Y0000269652D01*
X0000894588Y0000270013D01*
X0000895383Y0000270298D01*
X0000896203Y0000270503D01*
X0000897039Y0000270627D01*
X0000897883Y0000270669D01*
X0000915108Y0000270669D01*
X0000915952Y0000270627D01*
X0000915952Y0000270627D01*
G37*
D11*
X0000906496Y0000251968D03*
D10*
G36*
X0000977468Y0000211572D02*
X0000978304Y0000211448D01*
X0000979124Y0000211243D01*
X0000979919Y0000210958D01*
X0000980683Y0000210597D01*
X0000981408Y0000210162D01*
X0000982087Y0000209659D01*
X0000982713Y0000209091D01*
X0000983281Y0000208465D01*
X0000983784Y0000207786D01*
X0000984219Y0000207061D01*
X0000984580Y0000206297D01*
X0000984865Y0000205501D01*
X0000985070Y0000204682D01*
X0000985194Y0000203846D01*
X0000985236Y0000203001D01*
X0000985236Y0000182824D01*
X0000985194Y0000181980D01*
X0000985070Y0000181144D01*
X0000984865Y0000180324D01*
X0000984580Y0000179529D01*
X0000984219Y0000178765D01*
X0000983784Y0000178040D01*
X0000983281Y0000177361D01*
X0000982713Y0000176735D01*
X0000982087Y0000176167D01*
X0000981408Y0000175664D01*
X0000980683Y0000175229D01*
X0000979919Y0000174868D01*
X0000979124Y0000174583D01*
X0000978304Y0000174378D01*
X0000977468Y0000174254D01*
X0000976624Y0000174212D01*
X0000959399Y0000174212D01*
X0000958555Y0000174254D01*
X0000957719Y0000174378D01*
X0000956899Y0000174583D01*
X0000956103Y0000174868D01*
X0000955339Y0000175229D01*
X0000954614Y0000175664D01*
X0000953936Y0000176167D01*
X0000953309Y0000176735D01*
X0000952742Y0000177361D01*
X0000952238Y0000178040D01*
X0000951804Y0000178765D01*
X0000951442Y0000179529D01*
X0000951158Y0000180324D01*
X0000950952Y0000181144D01*
X0000950828Y0000181980D01*
X0000950787Y0000182824D01*
X0000950787Y0000203001D01*
X0000950828Y0000203846D01*
X0000950952Y0000204682D01*
X0000951158Y0000205501D01*
X0000951442Y0000206297D01*
X0000951804Y0000207061D01*
X0000952238Y0000207786D01*
X0000952742Y0000208465D01*
X0000953309Y0000209091D01*
X0000953936Y0000209659D01*
X0000954614Y0000210162D01*
X0000955339Y0000210597D01*
X0000956103Y0000210958D01*
X0000956899Y0000211243D01*
X0000957719Y0000211448D01*
X0000958555Y0000211572D01*
X0000959399Y0000211614D01*
X0000976624Y0000211614D01*
X0000977468Y0000211572D01*
X0000977468Y0000211572D01*
G37*
D11*
X0000968011Y0000192913D03*
D10*
G36*
X0000915460Y0000211572D02*
X0000916296Y0000211448D01*
X0000917116Y0000211243D01*
X0000917911Y0000210958D01*
X0000918675Y0000210597D01*
X0000919400Y0000210162D01*
X0000920079Y0000209659D01*
X0000920705Y0000209091D01*
X0000921273Y0000208465D01*
X0000921776Y0000207786D01*
X0000922211Y0000207061D01*
X0000922572Y0000206297D01*
X0000922857Y0000205501D01*
X0000923062Y0000204682D01*
X0000923186Y0000203846D01*
X0000923228Y0000203001D01*
X0000923228Y0000182824D01*
X0000923186Y0000181980D01*
X0000923062Y0000181144D01*
X0000922857Y0000180324D01*
X0000922572Y0000179529D01*
X0000922211Y0000178765D01*
X0000921776Y0000178040D01*
X0000921273Y0000177361D01*
X0000920705Y0000176735D01*
X0000920079Y0000176167D01*
X0000919400Y0000175664D01*
X0000918675Y0000175229D01*
X0000917911Y0000174868D01*
X0000917116Y0000174583D01*
X0000916296Y0000174378D01*
X0000915460Y0000174254D01*
X0000914616Y0000174212D01*
X0000897391Y0000174212D01*
X0000896547Y0000174254D01*
X0000895711Y0000174378D01*
X0000894891Y0000174583D01*
X0000894095Y0000174868D01*
X0000893331Y0000175229D01*
X0000892607Y0000175664D01*
X0000891928Y0000176167D01*
X0000891301Y0000176735D01*
X0000890734Y0000177361D01*
X0000890230Y0000178040D01*
X0000889796Y0000178765D01*
X0000889435Y0000179529D01*
X0000889150Y0000180324D01*
X0000888945Y0000181144D01*
X0000888820Y0000181980D01*
X0000888779Y0000182824D01*
X0000888779Y0000203001D01*
X0000888820Y0000203846D01*
X0000888945Y0000204682D01*
X0000889150Y0000205501D01*
X0000889435Y0000206297D01*
X0000889796Y0000207061D01*
X0000890230Y0000207786D01*
X0000890734Y0000208465D01*
X0000891301Y0000209091D01*
X0000891928Y0000209659D01*
X0000892607Y0000210162D01*
X0000893331Y0000210597D01*
X0000894095Y0000210958D01*
X0000894891Y0000211243D01*
X0000895711Y0000211448D01*
X0000896547Y0000211572D01*
X0000897391Y0000211614D01*
X0000914616Y0000211614D01*
X0000915460Y0000211572D01*
X0000915460Y0000211572D01*
G37*
D11*
X0000906003Y0000192913D03*
D10*
G36*
X0000977468Y0000152517D02*
X0000978304Y0000152393D01*
X0000979124Y0000152188D01*
X0000979919Y0000151903D01*
X0000980683Y0000151542D01*
X0000981408Y0000151107D01*
X0000982087Y0000150604D01*
X0000982713Y0000150036D01*
X0000983281Y0000149410D01*
X0000983784Y0000148731D01*
X0000984219Y0000148006D01*
X0000984580Y0000147242D01*
X0000984865Y0000146446D01*
X0000985070Y0000145627D01*
X0000985194Y0000144790D01*
X0000985236Y0000143946D01*
X0000985236Y0000123769D01*
X0000985194Y0000122925D01*
X0000985070Y0000122089D01*
X0000984865Y0000121269D01*
X0000984580Y0000120473D01*
X0000984219Y0000119709D01*
X0000983784Y0000118985D01*
X0000983281Y0000118306D01*
X0000982713Y0000117679D01*
X0000982087Y0000117112D01*
X0000981408Y0000116608D01*
X0000980683Y0000116174D01*
X0000979919Y0000115812D01*
X0000979124Y0000115528D01*
X0000978304Y0000115322D01*
X0000977468Y0000115198D01*
X0000976624Y0000115157D01*
X0000959399Y0000115157D01*
X0000958555Y0000115198D01*
X0000957719Y0000115322D01*
X0000956899Y0000115528D01*
X0000956103Y0000115812D01*
X0000955339Y0000116174D01*
X0000954614Y0000116608D01*
X0000953936Y0000117112D01*
X0000953309Y0000117679D01*
X0000952742Y0000118306D01*
X0000952238Y0000118985D01*
X0000951804Y0000119709D01*
X0000951442Y0000120473D01*
X0000951158Y0000121269D01*
X0000950952Y0000122089D01*
X0000950828Y0000122925D01*
X0000950787Y0000123769D01*
X0000950787Y0000143946D01*
X0000950828Y0000144790D01*
X0000950952Y0000145627D01*
X0000951158Y0000146446D01*
X0000951442Y0000147242D01*
X0000951804Y0000148006D01*
X0000952238Y0000148731D01*
X0000952742Y0000149410D01*
X0000953309Y0000150036D01*
X0000953936Y0000150604D01*
X0000954614Y0000151107D01*
X0000955339Y0000151542D01*
X0000956103Y0000151903D01*
X0000956899Y0000152188D01*
X0000957719Y0000152393D01*
X0000958555Y0000152517D01*
X0000959399Y0000152559D01*
X0000976624Y0000152559D01*
X0000977468Y0000152517D01*
X0000977468Y0000152517D01*
G37*
D11*
X0000968011Y0000133858D03*
D10*
G36*
X0000915460Y0000152517D02*
X0000916296Y0000152393D01*
X0000917116Y0000152188D01*
X0000917911Y0000151903D01*
X0000918675Y0000151542D01*
X0000919400Y0000151107D01*
X0000920079Y0000150604D01*
X0000920705Y0000150036D01*
X0000921273Y0000149410D01*
X0000921776Y0000148731D01*
X0000922211Y0000148006D01*
X0000922572Y0000147242D01*
X0000922857Y0000146446D01*
X0000923062Y0000145627D01*
X0000923186Y0000144790D01*
X0000923228Y0000143946D01*
X0000923228Y0000123769D01*
X0000923186Y0000122925D01*
X0000923062Y0000122089D01*
X0000922857Y0000121269D01*
X0000922572Y0000120473D01*
X0000922211Y0000119709D01*
X0000921776Y0000118985D01*
X0000921273Y0000118306D01*
X0000920705Y0000117679D01*
X0000920079Y0000117112D01*
X0000919400Y0000116608D01*
X0000918675Y0000116174D01*
X0000917911Y0000115812D01*
X0000917116Y0000115528D01*
X0000916296Y0000115322D01*
X0000915460Y0000115198D01*
X0000914616Y0000115157D01*
X0000897391Y0000115157D01*
X0000896547Y0000115198D01*
X0000895711Y0000115322D01*
X0000894891Y0000115528D01*
X0000894095Y0000115812D01*
X0000893331Y0000116174D01*
X0000892607Y0000116608D01*
X0000891928Y0000117112D01*
X0000891301Y0000117679D01*
X0000890734Y0000118306D01*
X0000890230Y0000118985D01*
X0000889796Y0000119709D01*
X0000889435Y0000120473D01*
X0000889150Y0000121269D01*
X0000888945Y0000122089D01*
X0000888820Y0000122925D01*
X0000888779Y0000123769D01*
X0000888779Y0000143946D01*
X0000888820Y0000144790D01*
X0000888945Y0000145627D01*
X0000889150Y0000146446D01*
X0000889435Y0000147242D01*
X0000889796Y0000148006D01*
X0000890230Y0000148731D01*
X0000890734Y0000149410D01*
X0000891301Y0000150036D01*
X0000891928Y0000150604D01*
X0000892607Y0000151107D01*
X0000893331Y0000151542D01*
X0000894095Y0000151903D01*
X0000894891Y0000152188D01*
X0000895711Y0000152393D01*
X0000896547Y0000152517D01*
X0000897391Y0000152559D01*
X0000914616Y0000152559D01*
X0000915460Y0000152517D01*
X0000915460Y0000152517D01*
G37*
D11*
X0000906003Y0000133858D03*
D10*
G36*
X0000915460Y0000329682D02*
X0000916296Y0000329558D01*
X0000917116Y0000329353D01*
X0000917911Y0000329068D01*
X0000918675Y0000328707D01*
X0000919400Y0000328272D01*
X0000920079Y0000327769D01*
X0000920705Y0000327201D01*
X0000921273Y0000326575D01*
X0000921776Y0000325896D01*
X0000922211Y0000325171D01*
X0000922572Y0000324407D01*
X0000922857Y0000323612D01*
X0000923062Y0000322792D01*
X0000923186Y0000321956D01*
X0000923228Y0000321112D01*
X0000923228Y0000300935D01*
X0000923186Y0000300090D01*
X0000923062Y0000299254D01*
X0000922857Y0000298435D01*
X0000922572Y0000297639D01*
X0000922211Y0000296875D01*
X0000921776Y0000296150D01*
X0000921273Y0000295471D01*
X0000920705Y0000294845D01*
X0000920079Y0000294277D01*
X0000919400Y0000293774D01*
X0000918675Y0000293339D01*
X0000917911Y0000292978D01*
X0000917116Y0000292693D01*
X0000916296Y0000292488D01*
X0000915460Y0000292364D01*
X0000914616Y0000292322D01*
X0000897391Y0000292322D01*
X0000896547Y0000292364D01*
X0000895711Y0000292488D01*
X0000894891Y0000292693D01*
X0000894095Y0000292978D01*
X0000893331Y0000293339D01*
X0000892607Y0000293774D01*
X0000891928Y0000294277D01*
X0000891301Y0000294845D01*
X0000890734Y0000295471D01*
X0000890230Y0000296150D01*
X0000889796Y0000296875D01*
X0000889435Y0000297639D01*
X0000889150Y0000298435D01*
X0000888945Y0000299254D01*
X0000888820Y0000300090D01*
X0000888779Y0000300935D01*
X0000888779Y0000321112D01*
X0000888820Y0000321956D01*
X0000888945Y0000322792D01*
X0000889150Y0000323612D01*
X0000889435Y0000324407D01*
X0000889796Y0000325171D01*
X0000890230Y0000325896D01*
X0000890734Y0000326575D01*
X0000891301Y0000327201D01*
X0000891928Y0000327769D01*
X0000892607Y0000328272D01*
X0000893331Y0000328707D01*
X0000894095Y0000329068D01*
X0000894891Y0000329353D01*
X0000895711Y0000329558D01*
X0000896547Y0000329682D01*
X0000897391Y0000329724D01*
X0000914616Y0000329724D01*
X0000915460Y0000329682D01*
X0000915460Y0000329682D01*
G37*
D11*
X0000906003Y0000311023D03*
D10*
G36*
X0000977468Y0000329682D02*
X0000978304Y0000329558D01*
X0000979124Y0000329353D01*
X0000979919Y0000329068D01*
X0000980683Y0000328707D01*
X0000981408Y0000328272D01*
X0000982087Y0000327769D01*
X0000982713Y0000327201D01*
X0000983281Y0000326575D01*
X0000983784Y0000325896D01*
X0000984219Y0000325171D01*
X0000984580Y0000324407D01*
X0000984865Y0000323612D01*
X0000985070Y0000322792D01*
X0000985194Y0000321956D01*
X0000985236Y0000321112D01*
X0000985236Y0000300935D01*
X0000985194Y0000300090D01*
X0000985070Y0000299254D01*
X0000984865Y0000298435D01*
X0000984580Y0000297639D01*
X0000984219Y0000296875D01*
X0000983784Y0000296150D01*
X0000983281Y0000295471D01*
X0000982713Y0000294845D01*
X0000982087Y0000294277D01*
X0000981408Y0000293774D01*
X0000980683Y0000293339D01*
X0000979919Y0000292978D01*
X0000979124Y0000292693D01*
X0000978304Y0000292488D01*
X0000977468Y0000292364D01*
X0000976624Y0000292322D01*
X0000959399Y0000292322D01*
X0000958555Y0000292364D01*
X0000957719Y0000292488D01*
X0000956899Y0000292693D01*
X0000956103Y0000292978D01*
X0000955339Y0000293339D01*
X0000954614Y0000293774D01*
X0000953936Y0000294277D01*
X0000953309Y0000294845D01*
X0000952742Y0000295471D01*
X0000952238Y0000296150D01*
X0000951804Y0000296875D01*
X0000951442Y0000297639D01*
X0000951158Y0000298435D01*
X0000950952Y0000299254D01*
X0000950828Y0000300090D01*
X0000950787Y0000300935D01*
X0000950787Y0000321112D01*
X0000950828Y0000321956D01*
X0000950952Y0000322792D01*
X0000951158Y0000323612D01*
X0000951442Y0000324407D01*
X0000951804Y0000325171D01*
X0000952238Y0000325896D01*
X0000952742Y0000326575D01*
X0000953309Y0000327201D01*
X0000953936Y0000327769D01*
X0000954614Y0000328272D01*
X0000955339Y0000328707D01*
X0000956103Y0000329068D01*
X0000956899Y0000329353D01*
X0000957719Y0000329558D01*
X0000958555Y0000329682D01*
X0000959399Y0000329724D01*
X0000976624Y0000329724D01*
X0000977468Y0000329682D01*
X0000977468Y0000329682D01*
G37*
D11*
X0000968011Y0000311023D03*
D10*
G36*
X0000915460Y0000388738D02*
X0000916296Y0000388614D01*
X0000917116Y0000388408D01*
X0000917911Y0000388123D01*
X0000918675Y0000387762D01*
X0000919400Y0000387328D01*
X0000920079Y0000386824D01*
X0000920705Y0000386257D01*
X0000921273Y0000385630D01*
X0000921776Y0000384952D01*
X0000922211Y0000384227D01*
X0000922572Y0000383463D01*
X0000922857Y0000382667D01*
X0000923062Y0000381847D01*
X0000923186Y0000381011D01*
X0000923228Y0000380167D01*
X0000923228Y0000359990D01*
X0000923186Y0000359146D01*
X0000923062Y0000358309D01*
X0000922857Y0000357490D01*
X0000922572Y0000356694D01*
X0000922211Y0000355930D01*
X0000921776Y0000355205D01*
X0000921273Y0000354526D01*
X0000920705Y0000353900D01*
X0000920079Y0000353332D01*
X0000919400Y0000352829D01*
X0000918675Y0000352394D01*
X0000917911Y0000352033D01*
X0000917116Y0000351748D01*
X0000916296Y0000351543D01*
X0000915460Y0000351419D01*
X0000914616Y0000351377D01*
X0000897391Y0000351377D01*
X0000896547Y0000351419D01*
X0000895711Y0000351543D01*
X0000894891Y0000351748D01*
X0000894095Y0000352033D01*
X0000893331Y0000352394D01*
X0000892607Y0000352829D01*
X0000891928Y0000353332D01*
X0000891301Y0000353900D01*
X0000890734Y0000354526D01*
X0000890230Y0000355205D01*
X0000889796Y0000355930D01*
X0000889435Y0000356694D01*
X0000889150Y0000357490D01*
X0000888945Y0000358309D01*
X0000888820Y0000359146D01*
X0000888779Y0000359990D01*
X0000888779Y0000380167D01*
X0000888820Y0000381011D01*
X0000888945Y0000381847D01*
X0000889150Y0000382667D01*
X0000889435Y0000383463D01*
X0000889796Y0000384227D01*
X0000890230Y0000384952D01*
X0000890734Y0000385630D01*
X0000891301Y0000386257D01*
X0000891928Y0000386824D01*
X0000892607Y0000387328D01*
X0000893331Y0000387762D01*
X0000894095Y0000388123D01*
X0000894891Y0000388408D01*
X0000895711Y0000388614D01*
X0000896547Y0000388738D01*
X0000897391Y0000388779D01*
X0000914616Y0000388779D01*
X0000915460Y0000388738D01*
X0000915460Y0000388738D01*
G37*
D11*
X0000906003Y0000370078D03*
D10*
G36*
X0000977468Y0000388738D02*
X0000978304Y0000388614D01*
X0000979124Y0000388408D01*
X0000979919Y0000388123D01*
X0000980683Y0000387762D01*
X0000981408Y0000387328D01*
X0000982087Y0000386824D01*
X0000982713Y0000386257D01*
X0000983281Y0000385630D01*
X0000983784Y0000384952D01*
X0000984219Y0000384227D01*
X0000984580Y0000383463D01*
X0000984865Y0000382667D01*
X0000985070Y0000381847D01*
X0000985194Y0000381011D01*
X0000985236Y0000380167D01*
X0000985236Y0000359990D01*
X0000985194Y0000359146D01*
X0000985070Y0000358309D01*
X0000984865Y0000357490D01*
X0000984580Y0000356694D01*
X0000984219Y0000355930D01*
X0000983784Y0000355205D01*
X0000983281Y0000354526D01*
X0000982713Y0000353900D01*
X0000982087Y0000353332D01*
X0000981408Y0000352829D01*
X0000980683Y0000352394D01*
X0000979919Y0000352033D01*
X0000979124Y0000351748D01*
X0000978304Y0000351543D01*
X0000977468Y0000351419D01*
X0000976624Y0000351377D01*
X0000959399Y0000351377D01*
X0000958555Y0000351419D01*
X0000957719Y0000351543D01*
X0000956899Y0000351748D01*
X0000956103Y0000352033D01*
X0000955339Y0000352394D01*
X0000954614Y0000352829D01*
X0000953936Y0000353332D01*
X0000953309Y0000353900D01*
X0000952742Y0000354526D01*
X0000952238Y0000355205D01*
X0000951804Y0000355930D01*
X0000951442Y0000356694D01*
X0000951158Y0000357490D01*
X0000950952Y0000358309D01*
X0000950828Y0000359146D01*
X0000950787Y0000359990D01*
X0000950787Y0000380167D01*
X0000950828Y0000381011D01*
X0000950952Y0000381847D01*
X0000951158Y0000382667D01*
X0000951442Y0000383463D01*
X0000951804Y0000384227D01*
X0000952238Y0000384952D01*
X0000952742Y0000385630D01*
X0000953309Y0000386257D01*
X0000953936Y0000386824D01*
X0000954614Y0000387328D01*
X0000955339Y0000387762D01*
X0000956103Y0000388123D01*
X0000956899Y0000388408D01*
X0000957719Y0000388614D01*
X0000958555Y0000388738D01*
X0000959399Y0000388779D01*
X0000976624Y0000388779D01*
X0000977468Y0000388738D01*
X0000977468Y0000388738D01*
G37*
D11*
X0000968011Y0000370078D03*
D12*
X0000590354Y0000338582D03*
X0000640354Y0000338582D03*
X0000690354Y0000338582D03*
X0000740354Y0000338582D03*
X0000740354Y0000125984D03*
X0000690354Y0000125984D03*
X0000640354Y0000125984D03*
X0000590354Y0000125984D03*
G04 next file*
G04 #@! TF.GenerationSoftware,KiCad,Pcbnew,(5.0.2)-1*
G04 #@! TF.CreationDate,2019-01-19T12:13:54+11:00*
G04 #@! TF.ProjectId,WarGames_SAO,57617247-616d-4657-935f-53414f2e6b69,rev?*
G04 #@! TF.SameCoordinates,Original*
G04 #@! TF.FileFunction,Paste,Bot*
G04 #@! TF.FilePolarity,Positive*
G04 Gerber Fmt 4.6, Leading zero omitted, Abs format (unit mm)*
G04 Created by KiCad (PCBNEW (5.0.2)-1) date 19/01/2019 12:13:54*
G01*
G04 APERTURE LIST*
G04 APERTURE END LIST*
D23*
G04 #@! TO.C,C1*
G36*
X0002516838Y0000302123D02*
X0002517674Y0000301999D01*
X0002518494Y0000301794D01*
X0002519289Y0000301509D01*
X0002520053Y0000301148D01*
X0002520778Y0000300713D01*
X0002521457Y0000300210D01*
X0002522083Y0000299642D01*
X0002522651Y0000299016D01*
X0002523154Y0000298337D01*
X0002523589Y0000297612D01*
X0002523950Y0000296848D01*
X0002524235Y0000296053D01*
X0002524440Y0000295233D01*
X0002524564Y0000294397D01*
X0002524606Y0000293553D01*
X0002524606Y0000273375D01*
X0002524564Y0000272531D01*
X0002524440Y0000271695D01*
X0002524235Y0000270875D01*
X0002523950Y0000270080D01*
X0002523589Y0000269316D01*
X0002523154Y0000268591D01*
X0002522651Y0000267912D01*
X0002522083Y0000267286D01*
X0002521457Y0000266718D01*
X0002520778Y0000266215D01*
X0002520053Y0000265780D01*
X0002519289Y0000265419D01*
X0002518494Y0000265134D01*
X0002517674Y0000264929D01*
X0002516838Y0000264805D01*
X0002515994Y0000264763D01*
X0002498769Y0000264763D01*
X0002497925Y0000264805D01*
X0002497089Y0000264929D01*
X0002496269Y0000265134D01*
X0002495473Y0000265419D01*
X0002494709Y0000265780D01*
X0002493985Y0000266215D01*
X0002493306Y0000266718D01*
X0002492679Y0000267286D01*
X0002492112Y0000267912D01*
X0002491608Y0000268591D01*
X0002491174Y0000269316D01*
X0002490813Y0000270080D01*
X0002490528Y0000270875D01*
X0002490322Y0000271695D01*
X0002490198Y0000272531D01*
X0002490157Y0000273375D01*
X0002490157Y0000293553D01*
X0002490198Y0000294397D01*
X0002490322Y0000295233D01*
X0002490528Y0000296053D01*
X0002490813Y0000296848D01*
X0002491174Y0000297612D01*
X0002491608Y0000298337D01*
X0002492112Y0000299016D01*
X0002492679Y0000299642D01*
X0002493306Y0000300210D01*
X0002493985Y0000300713D01*
X0002494709Y0000301148D01*
X0002495473Y0000301509D01*
X0002496269Y0000301794D01*
X0002497089Y0000301999D01*
X0002497925Y0000302123D01*
X0002498769Y0000302165D01*
X0002515994Y0000302165D01*
X0002516838Y0000302123D01*
X0002516838Y0000302123D01*
G37*
D24*
X0002507381Y0000283464D03*
D23*
G36*
X0002454830Y0000302123D02*
X0002455666Y0000301999D01*
X0002456486Y0000301794D01*
X0002457282Y0000301509D01*
X0002458046Y0000301148D01*
X0002458770Y0000300713D01*
X0002459449Y0000300210D01*
X0002460076Y0000299642D01*
X0002460643Y0000299016D01*
X0002461147Y0000298337D01*
X0002461581Y0000297612D01*
X0002461942Y0000296848D01*
X0002462227Y0000296053D01*
X0002462432Y0000295233D01*
X0002462557Y0000294397D01*
X0002462598Y0000293553D01*
X0002462598Y0000273375D01*
X0002462557Y0000272531D01*
X0002462432Y0000271695D01*
X0002462227Y0000270875D01*
X0002461942Y0000270080D01*
X0002461581Y0000269316D01*
X0002461147Y0000268591D01*
X0002460643Y0000267912D01*
X0002460076Y0000267286D01*
X0002459449Y0000266718D01*
X0002458770Y0000266215D01*
X0002458046Y0000265780D01*
X0002457282Y0000265419D01*
X0002456486Y0000265134D01*
X0002455666Y0000264929D01*
X0002454830Y0000264805D01*
X0002453986Y0000264763D01*
X0002436761Y0000264763D01*
X0002435917Y0000264805D01*
X0002435081Y0000264929D01*
X0002434261Y0000265134D01*
X0002433466Y0000265419D01*
X0002432702Y0000265780D01*
X0002431977Y0000266215D01*
X0002431298Y0000266718D01*
X0002430672Y0000267286D01*
X0002430104Y0000267912D01*
X0002429601Y0000268591D01*
X0002429166Y0000269316D01*
X0002428805Y0000270080D01*
X0002428520Y0000270875D01*
X0002428315Y0000271695D01*
X0002428191Y0000272531D01*
X0002428149Y0000273375D01*
X0002428149Y0000293553D01*
X0002428191Y0000294397D01*
X0002428315Y0000295233D01*
X0002428520Y0000296053D01*
X0002428805Y0000296848D01*
X0002429166Y0000297612D01*
X0002429601Y0000298337D01*
X0002430104Y0000299016D01*
X0002430672Y0000299642D01*
X0002431298Y0000300210D01*
X0002431977Y0000300713D01*
X0002432702Y0000301148D01*
X0002433466Y0000301509D01*
X0002434261Y0000301794D01*
X0002435081Y0000301999D01*
X0002435917Y0000302123D01*
X0002436761Y0000302165D01*
X0002453986Y0000302165D01*
X0002454830Y0000302123D01*
X0002454830Y0000302123D01*
G37*
D24*
X0002445374Y0000283464D03*
G04 #@! TD*
D23*
G04 #@! TO.C,R1*
G36*
X0002962212Y0000270627D02*
X0002963048Y0000270503D01*
X0002963868Y0000270298D01*
X0002964663Y0000270013D01*
X0002965427Y0000269652D01*
X0002966152Y0000269217D01*
X0002966831Y0000268714D01*
X0002967457Y0000268146D01*
X0002968025Y0000267520D01*
X0002968528Y0000266841D01*
X0002968963Y0000266116D01*
X0002969324Y0000265352D01*
X0002969609Y0000264557D01*
X0002969814Y0000263737D01*
X0002969938Y0000262901D01*
X0002969980Y0000262057D01*
X0002969980Y0000241879D01*
X0002969938Y0000241035D01*
X0002969814Y0000240199D01*
X0002969609Y0000239379D01*
X0002969324Y0000238584D01*
X0002968963Y0000237820D01*
X0002968528Y0000237095D01*
X0002968025Y0000236416D01*
X0002967457Y0000235790D01*
X0002966831Y0000235222D01*
X0002966152Y0000234719D01*
X0002965427Y0000234284D01*
X0002964663Y0000233923D01*
X0002963868Y0000233638D01*
X0002963048Y0000233433D01*
X0002962212Y0000233309D01*
X0002961368Y0000233267D01*
X0002944143Y0000233267D01*
X0002943299Y0000233309D01*
X0002942463Y0000233433D01*
X0002941643Y0000233638D01*
X0002940847Y0000233923D01*
X0002940083Y0000234284D01*
X0002939359Y0000234719D01*
X0002938680Y0000235222D01*
X0002938053Y0000235790D01*
X0002937486Y0000236416D01*
X0002936982Y0000237095D01*
X0002936548Y0000237820D01*
X0002936187Y0000238584D01*
X0002935902Y0000239379D01*
X0002935697Y0000240199D01*
X0002935572Y0000241035D01*
X0002935531Y0000241879D01*
X0002935531Y0000262057D01*
X0002935572Y0000262901D01*
X0002935697Y0000263737D01*
X0002935902Y0000264557D01*
X0002936187Y0000265352D01*
X0002936548Y0000266116D01*
X0002936982Y0000266841D01*
X0002937486Y0000267520D01*
X0002938053Y0000268146D01*
X0002938680Y0000268714D01*
X0002939359Y0000269217D01*
X0002940083Y0000269652D01*
X0002940847Y0000270013D01*
X0002941643Y0000270298D01*
X0002942463Y0000270503D01*
X0002943299Y0000270627D01*
X0002944143Y0000270669D01*
X0002961368Y0000270669D01*
X0002962212Y0000270627D01*
X0002962212Y0000270627D01*
G37*
D24*
X0002952755Y0000251968D03*
D23*
G36*
X0002900204Y0000270627D02*
X0002901040Y0000270503D01*
X0002901860Y0000270298D01*
X0002902656Y0000270013D01*
X0002903420Y0000269652D01*
X0002904144Y0000269217D01*
X0002904823Y0000268714D01*
X0002905450Y0000268146D01*
X0002906017Y0000267520D01*
X0002906521Y0000266841D01*
X0002906955Y0000266116D01*
X0002907316Y0000265352D01*
X0002907601Y0000264557D01*
X0002907807Y0000263737D01*
X0002907931Y0000262901D01*
X0002907972Y0000262057D01*
X0002907972Y0000241879D01*
X0002907931Y0000241035D01*
X0002907807Y0000240199D01*
X0002907601Y0000239379D01*
X0002907316Y0000238584D01*
X0002906955Y0000237820D01*
X0002906521Y0000237095D01*
X0002906017Y0000236416D01*
X0002905450Y0000235790D01*
X0002904823Y0000235222D01*
X0002904144Y0000234719D01*
X0002903420Y0000234284D01*
X0002902656Y0000233923D01*
X0002901860Y0000233638D01*
X0002901040Y0000233433D01*
X0002900204Y0000233309D01*
X0002899360Y0000233267D01*
X0002882135Y0000233267D01*
X0002881291Y0000233309D01*
X0002880455Y0000233433D01*
X0002879635Y0000233638D01*
X0002878840Y0000233923D01*
X0002878076Y0000234284D01*
X0002877351Y0000234719D01*
X0002876672Y0000235222D01*
X0002876046Y0000235790D01*
X0002875478Y0000236416D01*
X0002874975Y0000237095D01*
X0002874540Y0000237820D01*
X0002874179Y0000238584D01*
X0002873894Y0000239379D01*
X0002873689Y0000240199D01*
X0002873565Y0000241035D01*
X0002873523Y0000241879D01*
X0002873523Y0000262057D01*
X0002873565Y0000262901D01*
X0002873689Y0000263737D01*
X0002873894Y0000264557D01*
X0002874179Y0000265352D01*
X0002874540Y0000266116D01*
X0002874975Y0000266841D01*
X0002875478Y0000267520D01*
X0002876046Y0000268146D01*
X0002876672Y0000268714D01*
X0002877351Y0000269217D01*
X0002878076Y0000269652D01*
X0002878840Y0000270013D01*
X0002879635Y0000270298D01*
X0002880455Y0000270503D01*
X0002881291Y0000270627D01*
X0002882135Y0000270669D01*
X0002899360Y0000270669D01*
X0002900204Y0000270627D01*
X0002900204Y0000270627D01*
G37*
D24*
X0002890748Y0000251968D03*
G04 #@! TD*
D23*
G04 #@! TO.C,R2*
G36*
X0002961720Y0000211572D02*
X0002962556Y0000211448D01*
X0002963376Y0000211243D01*
X0002964171Y0000210958D01*
X0002964935Y0000210597D01*
X0002965660Y0000210162D01*
X0002966339Y0000209659D01*
X0002966965Y0000209091D01*
X0002967533Y0000208465D01*
X0002968036Y0000207786D01*
X0002968471Y0000207061D01*
X0002968832Y0000206297D01*
X0002969117Y0000205501D01*
X0002969322Y0000204682D01*
X0002969446Y0000203846D01*
X0002969488Y0000203001D01*
X0002969488Y0000182824D01*
X0002969446Y0000181980D01*
X0002969322Y0000181144D01*
X0002969117Y0000180324D01*
X0002968832Y0000179529D01*
X0002968471Y0000178765D01*
X0002968036Y0000178040D01*
X0002967533Y0000177361D01*
X0002966965Y0000176735D01*
X0002966339Y0000176167D01*
X0002965660Y0000175664D01*
X0002964935Y0000175229D01*
X0002964171Y0000174868D01*
X0002963376Y0000174583D01*
X0002962556Y0000174378D01*
X0002961720Y0000174254D01*
X0002960876Y0000174212D01*
X0002943651Y0000174212D01*
X0002942807Y0000174254D01*
X0002941971Y0000174378D01*
X0002941151Y0000174583D01*
X0002940355Y0000174868D01*
X0002939591Y0000175229D01*
X0002938866Y0000175664D01*
X0002938188Y0000176167D01*
X0002937561Y0000176735D01*
X0002936994Y0000177361D01*
X0002936490Y0000178040D01*
X0002936056Y0000178765D01*
X0002935694Y0000179529D01*
X0002935410Y0000180324D01*
X0002935204Y0000181144D01*
X0002935080Y0000181980D01*
X0002935039Y0000182824D01*
X0002935039Y0000203001D01*
X0002935080Y0000203846D01*
X0002935204Y0000204682D01*
X0002935410Y0000205501D01*
X0002935694Y0000206297D01*
X0002936056Y0000207061D01*
X0002936490Y0000207786D01*
X0002936994Y0000208465D01*
X0002937561Y0000209091D01*
X0002938188Y0000209659D01*
X0002938866Y0000210162D01*
X0002939591Y0000210597D01*
X0002940355Y0000210958D01*
X0002941151Y0000211243D01*
X0002941971Y0000211448D01*
X0002942807Y0000211572D01*
X0002943651Y0000211614D01*
X0002960876Y0000211614D01*
X0002961720Y0000211572D01*
X0002961720Y0000211572D01*
G37*
D24*
X0002952263Y0000192913D03*
D23*
G36*
X0002899712Y0000211572D02*
X0002900548Y0000211448D01*
X0002901368Y0000211243D01*
X0002902163Y0000210958D01*
X0002902927Y0000210597D01*
X0002903652Y0000210162D01*
X0002904331Y0000209659D01*
X0002904957Y0000209091D01*
X0002905525Y0000208465D01*
X0002906028Y0000207786D01*
X0002906463Y0000207061D01*
X0002906824Y0000206297D01*
X0002907109Y0000205501D01*
X0002907314Y0000204682D01*
X0002907438Y0000203846D01*
X0002907480Y0000203001D01*
X0002907480Y0000182824D01*
X0002907438Y0000181980D01*
X0002907314Y0000181144D01*
X0002907109Y0000180324D01*
X0002906824Y0000179529D01*
X0002906463Y0000178765D01*
X0002906028Y0000178040D01*
X0002905525Y0000177361D01*
X0002904957Y0000176735D01*
X0002904331Y0000176167D01*
X0002903652Y0000175664D01*
X0002902927Y0000175229D01*
X0002902163Y0000174868D01*
X0002901368Y0000174583D01*
X0002900548Y0000174378D01*
X0002899712Y0000174254D01*
X0002898868Y0000174212D01*
X0002881643Y0000174212D01*
X0002880799Y0000174254D01*
X0002879963Y0000174378D01*
X0002879143Y0000174583D01*
X0002878347Y0000174868D01*
X0002877583Y0000175229D01*
X0002876859Y0000175664D01*
X0002876180Y0000176167D01*
X0002875553Y0000176735D01*
X0002874986Y0000177361D01*
X0002874482Y0000178040D01*
X0002874048Y0000178765D01*
X0002873687Y0000179529D01*
X0002873402Y0000180324D01*
X0002873197Y0000181144D01*
X0002873072Y0000181980D01*
X0002873031Y0000182824D01*
X0002873031Y0000203001D01*
X0002873072Y0000203846D01*
X0002873197Y0000204682D01*
X0002873402Y0000205501D01*
X0002873687Y0000206297D01*
X0002874048Y0000207061D01*
X0002874482Y0000207786D01*
X0002874986Y0000208465D01*
X0002875553Y0000209091D01*
X0002876180Y0000209659D01*
X0002876859Y0000210162D01*
X0002877583Y0000210597D01*
X0002878347Y0000210958D01*
X0002879143Y0000211243D01*
X0002879963Y0000211448D01*
X0002880799Y0000211572D01*
X0002881643Y0000211614D01*
X0002898868Y0000211614D01*
X0002899712Y0000211572D01*
X0002899712Y0000211572D01*
G37*
D24*
X0002890255Y0000192913D03*
G04 #@! TD*
D23*
G04 #@! TO.C,R3*
G36*
X0002961720Y0000152517D02*
X0002962556Y0000152393D01*
X0002963376Y0000152188D01*
X0002964171Y0000151903D01*
X0002964935Y0000151542D01*
X0002965660Y0000151107D01*
X0002966339Y0000150604D01*
X0002966965Y0000150036D01*
X0002967533Y0000149410D01*
X0002968036Y0000148731D01*
X0002968471Y0000148006D01*
X0002968832Y0000147242D01*
X0002969117Y0000146446D01*
X0002969322Y0000145627D01*
X0002969446Y0000144790D01*
X0002969488Y0000143946D01*
X0002969488Y0000123769D01*
X0002969446Y0000122925D01*
X0002969322Y0000122089D01*
X0002969117Y0000121269D01*
X0002968832Y0000120473D01*
X0002968471Y0000119709D01*
X0002968036Y0000118985D01*
X0002967533Y0000118306D01*
X0002966965Y0000117679D01*
X0002966339Y0000117112D01*
X0002965660Y0000116608D01*
X0002964935Y0000116174D01*
X0002964171Y0000115812D01*
X0002963376Y0000115528D01*
X0002962556Y0000115322D01*
X0002961720Y0000115198D01*
X0002960876Y0000115157D01*
X0002943651Y0000115157D01*
X0002942807Y0000115198D01*
X0002941971Y0000115322D01*
X0002941151Y0000115528D01*
X0002940355Y0000115812D01*
X0002939591Y0000116174D01*
X0002938866Y0000116608D01*
X0002938188Y0000117112D01*
X0002937561Y0000117679D01*
X0002936994Y0000118306D01*
X0002936490Y0000118985D01*
X0002936056Y0000119709D01*
X0002935694Y0000120473D01*
X0002935410Y0000121269D01*
X0002935204Y0000122089D01*
X0002935080Y0000122925D01*
X0002935039Y0000123769D01*
X0002935039Y0000143946D01*
X0002935080Y0000144790D01*
X0002935204Y0000145627D01*
X0002935410Y0000146446D01*
X0002935694Y0000147242D01*
X0002936056Y0000148006D01*
X0002936490Y0000148731D01*
X0002936994Y0000149410D01*
X0002937561Y0000150036D01*
X0002938188Y0000150604D01*
X0002938866Y0000151107D01*
X0002939591Y0000151542D01*
X0002940355Y0000151903D01*
X0002941151Y0000152188D01*
X0002941971Y0000152393D01*
X0002942807Y0000152517D01*
X0002943651Y0000152559D01*
X0002960876Y0000152559D01*
X0002961720Y0000152517D01*
X0002961720Y0000152517D01*
G37*
D24*
X0002952263Y0000133858D03*
D23*
G36*
X0002899712Y0000152517D02*
X0002900548Y0000152393D01*
X0002901368Y0000152188D01*
X0002902163Y0000151903D01*
X0002902927Y0000151542D01*
X0002903652Y0000151107D01*
X0002904331Y0000150604D01*
X0002904957Y0000150036D01*
X0002905525Y0000149410D01*
X0002906028Y0000148731D01*
X0002906463Y0000148006D01*
X0002906824Y0000147242D01*
X0002907109Y0000146446D01*
X0002907314Y0000145627D01*
X0002907438Y0000144790D01*
X0002907480Y0000143946D01*
X0002907480Y0000123769D01*
X0002907438Y0000122925D01*
X0002907314Y0000122089D01*
X0002907109Y0000121269D01*
X0002906824Y0000120473D01*
X0002906463Y0000119709D01*
X0002906028Y0000118985D01*
X0002905525Y0000118306D01*
X0002904957Y0000117679D01*
X0002904331Y0000117112D01*
X0002903652Y0000116608D01*
X0002902927Y0000116174D01*
X0002902163Y0000115812D01*
X0002901368Y0000115528D01*
X0002900548Y0000115322D01*
X0002899712Y0000115198D01*
X0002898868Y0000115157D01*
X0002881643Y0000115157D01*
X0002880799Y0000115198D01*
X0002879963Y0000115322D01*
X0002879143Y0000115528D01*
X0002878347Y0000115812D01*
X0002877583Y0000116174D01*
X0002876859Y0000116608D01*
X0002876180Y0000117112D01*
X0002875553Y0000117679D01*
X0002874986Y0000118306D01*
X0002874482Y0000118985D01*
X0002874048Y0000119709D01*
X0002873687Y0000120473D01*
X0002873402Y0000121269D01*
X0002873197Y0000122089D01*
X0002873072Y0000122925D01*
X0002873031Y0000123769D01*
X0002873031Y0000143946D01*
X0002873072Y0000144790D01*
X0002873197Y0000145627D01*
X0002873402Y0000146446D01*
X0002873687Y0000147242D01*
X0002874048Y0000148006D01*
X0002874482Y0000148731D01*
X0002874986Y0000149410D01*
X0002875553Y0000150036D01*
X0002876180Y0000150604D01*
X0002876859Y0000151107D01*
X0002877583Y0000151542D01*
X0002878347Y0000151903D01*
X0002879143Y0000152188D01*
X0002879963Y0000152393D01*
X0002880799Y0000152517D01*
X0002881643Y0000152559D01*
X0002898868Y0000152559D01*
X0002899712Y0000152517D01*
X0002899712Y0000152517D01*
G37*
D24*
X0002890255Y0000133858D03*
G04 #@! TD*
D23*
G04 #@! TO.C,R4*
G36*
X0002899712Y0000329682D02*
X0002900548Y0000329558D01*
X0002901368Y0000329353D01*
X0002902163Y0000329068D01*
X0002902927Y0000328707D01*
X0002903652Y0000328272D01*
X0002904331Y0000327769D01*
X0002904957Y0000327201D01*
X0002905525Y0000326575D01*
X0002906028Y0000325896D01*
X0002906463Y0000325171D01*
X0002906824Y0000324407D01*
X0002907109Y0000323612D01*
X0002907314Y0000322792D01*
X0002907438Y0000321956D01*
X0002907480Y0000321112D01*
X0002907480Y0000300935D01*
X0002907438Y0000300090D01*
X0002907314Y0000299254D01*
X0002907109Y0000298435D01*
X0002906824Y0000297639D01*
X0002906463Y0000296875D01*
X0002906028Y0000296150D01*
X0002905525Y0000295471D01*
X0002904957Y0000294845D01*
X0002904331Y0000294277D01*
X0002903652Y0000293774D01*
X0002902927Y0000293339D01*
X0002902163Y0000292978D01*
X0002901368Y0000292693D01*
X0002900548Y0000292488D01*
X0002899712Y0000292364D01*
X0002898868Y0000292322D01*
X0002881643Y0000292322D01*
X0002880799Y0000292364D01*
X0002879963Y0000292488D01*
X0002879143Y0000292693D01*
X0002878347Y0000292978D01*
X0002877583Y0000293339D01*
X0002876859Y0000293774D01*
X0002876180Y0000294277D01*
X0002875553Y0000294845D01*
X0002874986Y0000295471D01*
X0002874482Y0000296150D01*
X0002874048Y0000296875D01*
X0002873687Y0000297639D01*
X0002873402Y0000298435D01*
X0002873197Y0000299254D01*
X0002873072Y0000300090D01*
X0002873031Y0000300935D01*
X0002873031Y0000321112D01*
X0002873072Y0000321956D01*
X0002873197Y0000322792D01*
X0002873402Y0000323612D01*
X0002873687Y0000324407D01*
X0002874048Y0000325171D01*
X0002874482Y0000325896D01*
X0002874986Y0000326575D01*
X0002875553Y0000327201D01*
X0002876180Y0000327769D01*
X0002876859Y0000328272D01*
X0002877583Y0000328707D01*
X0002878347Y0000329068D01*
X0002879143Y0000329353D01*
X0002879963Y0000329558D01*
X0002880799Y0000329682D01*
X0002881643Y0000329724D01*
X0002898868Y0000329724D01*
X0002899712Y0000329682D01*
X0002899712Y0000329682D01*
G37*
D24*
X0002890255Y0000311023D03*
D23*
G36*
X0002961720Y0000329682D02*
X0002962556Y0000329558D01*
X0002963376Y0000329353D01*
X0002964171Y0000329068D01*
X0002964935Y0000328707D01*
X0002965660Y0000328272D01*
X0002966339Y0000327769D01*
X0002966965Y0000327201D01*
X0002967533Y0000326575D01*
X0002968036Y0000325896D01*
X0002968471Y0000325171D01*
X0002968832Y0000324407D01*
X0002969117Y0000323612D01*
X0002969322Y0000322792D01*
X0002969446Y0000321956D01*
X0002969488Y0000321112D01*
X0002969488Y0000300935D01*
X0002969446Y0000300090D01*
X0002969322Y0000299254D01*
X0002969117Y0000298435D01*
X0002968832Y0000297639D01*
X0002968471Y0000296875D01*
X0002968036Y0000296150D01*
X0002967533Y0000295471D01*
X0002966965Y0000294845D01*
X0002966339Y0000294277D01*
X0002965660Y0000293774D01*
X0002964935Y0000293339D01*
X0002964171Y0000292978D01*
X0002963376Y0000292693D01*
X0002962556Y0000292488D01*
X0002961720Y0000292364D01*
X0002960876Y0000292322D01*
X0002943651Y0000292322D01*
X0002942807Y0000292364D01*
X0002941971Y0000292488D01*
X0002941151Y0000292693D01*
X0002940355Y0000292978D01*
X0002939591Y0000293339D01*
X0002938866Y0000293774D01*
X0002938188Y0000294277D01*
X0002937561Y0000294845D01*
X0002936994Y0000295471D01*
X0002936490Y0000296150D01*
X0002936056Y0000296875D01*
X0002935694Y0000297639D01*
X0002935410Y0000298435D01*
X0002935204Y0000299254D01*
X0002935080Y0000300090D01*
X0002935039Y0000300935D01*
X0002935039Y0000321112D01*
X0002935080Y0000321956D01*
X0002935204Y0000322792D01*
X0002935410Y0000323612D01*
X0002935694Y0000324407D01*
X0002936056Y0000325171D01*
X0002936490Y0000325896D01*
X0002936994Y0000326575D01*
X0002937561Y0000327201D01*
X0002938188Y0000327769D01*
X0002938866Y0000328272D01*
X0002939591Y0000328707D01*
X0002940355Y0000329068D01*
X0002941151Y0000329353D01*
X0002941971Y0000329558D01*
X0002942807Y0000329682D01*
X0002943651Y0000329724D01*
X0002960876Y0000329724D01*
X0002961720Y0000329682D01*
X0002961720Y0000329682D01*
G37*
D24*
X0002952263Y0000311023D03*
G04 #@! TD*
D23*
G04 #@! TO.C,R5*
G36*
X0002899712Y0000388738D02*
X0002900548Y0000388614D01*
X0002901368Y0000388408D01*
X0002902163Y0000388123D01*
X0002902927Y0000387762D01*
X0002903652Y0000387328D01*
X0002904331Y0000386824D01*
X0002904957Y0000386257D01*
X0002905525Y0000385630D01*
X0002906028Y0000384952D01*
X0002906463Y0000384227D01*
X0002906824Y0000383463D01*
X0002907109Y0000382667D01*
X0002907314Y0000381847D01*
X0002907438Y0000381011D01*
X0002907480Y0000380167D01*
X0002907480Y0000359990D01*
X0002907438Y0000359146D01*
X0002907314Y0000358309D01*
X0002907109Y0000357490D01*
X0002906824Y0000356694D01*
X0002906463Y0000355930D01*
X0002906028Y0000355205D01*
X0002905525Y0000354526D01*
X0002904957Y0000353900D01*
X0002904331Y0000353332D01*
X0002903652Y0000352829D01*
X0002902927Y0000352394D01*
X0002902163Y0000352033D01*
X0002901368Y0000351748D01*
X0002900548Y0000351543D01*
X0002899712Y0000351419D01*
X0002898868Y0000351377D01*
X0002881643Y0000351377D01*
X0002880799Y0000351419D01*
X0002879963Y0000351543D01*
X0002879143Y0000351748D01*
X0002878347Y0000352033D01*
X0002877583Y0000352394D01*
X0002876859Y0000352829D01*
X0002876180Y0000353332D01*
X0002875553Y0000353900D01*
X0002874986Y0000354526D01*
X0002874482Y0000355205D01*
X0002874048Y0000355930D01*
X0002873687Y0000356694D01*
X0002873402Y0000357490D01*
X0002873197Y0000358309D01*
X0002873072Y0000359146D01*
X0002873031Y0000359990D01*
X0002873031Y0000380167D01*
X0002873072Y0000381011D01*
X0002873197Y0000381847D01*
X0002873402Y0000382667D01*
X0002873687Y0000383463D01*
X0002874048Y0000384227D01*
X0002874482Y0000384952D01*
X0002874986Y0000385630D01*
X0002875553Y0000386257D01*
X0002876180Y0000386824D01*
X0002876859Y0000387328D01*
X0002877583Y0000387762D01*
X0002878347Y0000388123D01*
X0002879143Y0000388408D01*
X0002879963Y0000388614D01*
X0002880799Y0000388738D01*
X0002881643Y0000388779D01*
X0002898868Y0000388779D01*
X0002899712Y0000388738D01*
X0002899712Y0000388738D01*
G37*
D24*
X0002890255Y0000370078D03*
D23*
G36*
X0002961720Y0000388738D02*
X0002962556Y0000388614D01*
X0002963376Y0000388408D01*
X0002964171Y0000388123D01*
X0002964935Y0000387762D01*
X0002965660Y0000387328D01*
X0002966339Y0000386824D01*
X0002966965Y0000386257D01*
X0002967533Y0000385630D01*
X0002968036Y0000384952D01*
X0002968471Y0000384227D01*
X0002968832Y0000383463D01*
X0002969117Y0000382667D01*
X0002969322Y0000381847D01*
X0002969446Y0000381011D01*
X0002969488Y0000380167D01*
X0002969488Y0000359990D01*
X0002969446Y0000359146D01*
X0002969322Y0000358309D01*
X0002969117Y0000357490D01*
X0002968832Y0000356694D01*
X0002968471Y0000355930D01*
X0002968036Y0000355205D01*
X0002967533Y0000354526D01*
X0002966965Y0000353900D01*
X0002966339Y0000353332D01*
X0002965660Y0000352829D01*
X0002964935Y0000352394D01*
X0002964171Y0000352033D01*
X0002963376Y0000351748D01*
X0002962556Y0000351543D01*
X0002961720Y0000351419D01*
X0002960876Y0000351377D01*
X0002943651Y0000351377D01*
X0002942807Y0000351419D01*
X0002941971Y0000351543D01*
X0002941151Y0000351748D01*
X0002940355Y0000352033D01*
X0002939591Y0000352394D01*
X0002938866Y0000352829D01*
X0002938188Y0000353332D01*
X0002937561Y0000353900D01*
X0002936994Y0000354526D01*
X0002936490Y0000355205D01*
X0002936056Y0000355930D01*
X0002935694Y0000356694D01*
X0002935410Y0000357490D01*
X0002935204Y0000358309D01*
X0002935080Y0000359146D01*
X0002935039Y0000359990D01*
X0002935039Y0000380167D01*
X0002935080Y0000381011D01*
X0002935204Y0000381847D01*
X0002935410Y0000382667D01*
X0002935694Y0000383463D01*
X0002936056Y0000384227D01*
X0002936490Y0000384952D01*
X0002936994Y0000385630D01*
X0002937561Y0000386257D01*
X0002938188Y0000386824D01*
X0002938866Y0000387328D01*
X0002939591Y0000387762D01*
X0002940355Y0000388123D01*
X0002941151Y0000388408D01*
X0002941971Y0000388614D01*
X0002942807Y0000388738D01*
X0002943651Y0000388779D01*
X0002960876Y0000388779D01*
X0002961720Y0000388738D01*
X0002961720Y0000388738D01*
G37*
D24*
X0002952263Y0000370078D03*
G04 #@! TD*
D25*
G04 #@! TO.C,U1*
X0002574606Y0000338582D03*
X0002624606Y0000338582D03*
X0002674606Y0000338582D03*
X0002724606Y0000338582D03*
X0002724606Y0000125984D03*
X0002674606Y0000125984D03*
X0002624606Y0000125984D03*
X0002574606Y0000125984D03*
G04 #@! TD*
G04 next file*
G04 #@! TF.GenerationSoftware,KiCad,Pcbnew,(5.0.2)-1*
G04 #@! TF.CreationDate,2019-01-19T12:13:54+11:00*
G04 #@! TF.ProjectId,WarGames_SAO,57617247-616d-4657-935f-53414f2e6b69,rev?*
G04 #@! TF.SameCoordinates,Original*
G04 #@! TF.FileFunction,Paste,Bot*
G04 #@! TF.FilePolarity,Positive*
G04 Gerber Fmt 4.6, Leading zero omitted, Abs format (unit mm)*
G04 Created by KiCad (PCBNEW (5.0.2)-1) date 19/01/2019 12:13:54*
G01*
G04 APERTURE LIST*
G04 APERTURE END LIST*
D26*
G04 #@! TO.C,C1*
G36*
X0000532586Y0002286375D02*
X0000533422Y0002286251D01*
X0000534242Y0002286046D01*
X0000535037Y0002285761D01*
X0000535801Y0002285400D01*
X0000536526Y0002284965D01*
X0000537205Y0002284462D01*
X0000537831Y0002283894D01*
X0000538399Y0002283268D01*
X0000538902Y0002282589D01*
X0000539337Y0002281864D01*
X0000539698Y0002281100D01*
X0000539983Y0002280304D01*
X0000540188Y0002279485D01*
X0000540312Y0002278648D01*
X0000540354Y0002277804D01*
X0000540354Y0002257627D01*
X0000540312Y0002256783D01*
X0000540188Y0002255947D01*
X0000539983Y0002255127D01*
X0000539698Y0002254331D01*
X0000539337Y0002253567D01*
X0000538902Y0002252842D01*
X0000538399Y0002252164D01*
X0000537831Y0002251537D01*
X0000537205Y0002250970D01*
X0000536526Y0002250466D01*
X0000535801Y0002250032D01*
X0000535037Y0002249671D01*
X0000534242Y0002249386D01*
X0000533422Y0002249180D01*
X0000532586Y0002249056D01*
X0000531742Y0002249015D01*
X0000514517Y0002249015D01*
X0000513673Y0002249056D01*
X0000512837Y0002249180D01*
X0000512017Y0002249386D01*
X0000511221Y0002249671D01*
X0000510457Y0002250032D01*
X0000509733Y0002250466D01*
X0000509054Y0002250970D01*
X0000508427Y0002251537D01*
X0000507860Y0002252164D01*
X0000507356Y0002252842D01*
X0000506922Y0002253567D01*
X0000506561Y0002254331D01*
X0000506276Y0002255127D01*
X0000506070Y0002255947D01*
X0000505946Y0002256783D01*
X0000505905Y0002257627D01*
X0000505905Y0002277804D01*
X0000505946Y0002278648D01*
X0000506070Y0002279485D01*
X0000506276Y0002280304D01*
X0000506561Y0002281100D01*
X0000506922Y0002281864D01*
X0000507356Y0002282589D01*
X0000507860Y0002283268D01*
X0000508427Y0002283894D01*
X0000509054Y0002284462D01*
X0000509733Y0002284965D01*
X0000510457Y0002285400D01*
X0000511221Y0002285761D01*
X0000512017Y0002286046D01*
X0000512837Y0002286251D01*
X0000513673Y0002286375D01*
X0000514517Y0002286417D01*
X0000531742Y0002286417D01*
X0000532586Y0002286375D01*
X0000532586Y0002286375D01*
G37*
D27*
X0000523129Y0002267716D03*
D26*
G36*
X0000470578Y0002286375D02*
X0000471414Y0002286251D01*
X0000472234Y0002286046D01*
X0000473029Y0002285761D01*
X0000473794Y0002285400D01*
X0000474518Y0002284965D01*
X0000475197Y0002284462D01*
X0000475824Y0002283894D01*
X0000476391Y0002283268D01*
X0000476895Y0002282589D01*
X0000477329Y0002281864D01*
X0000477690Y0002281100D01*
X0000477975Y0002280304D01*
X0000478180Y0002279485D01*
X0000478305Y0002278648D01*
X0000478346Y0002277804D01*
X0000478346Y0002257627D01*
X0000478305Y0002256783D01*
X0000478180Y0002255947D01*
X0000477975Y0002255127D01*
X0000477690Y0002254331D01*
X0000477329Y0002253567D01*
X0000476895Y0002252842D01*
X0000476391Y0002252164D01*
X0000475824Y0002251537D01*
X0000475197Y0002250970D01*
X0000474518Y0002250466D01*
X0000473794Y0002250032D01*
X0000473029Y0002249671D01*
X0000472234Y0002249386D01*
X0000471414Y0002249180D01*
X0000470578Y0002249056D01*
X0000469734Y0002249015D01*
X0000452509Y0002249015D01*
X0000451665Y0002249056D01*
X0000450829Y0002249180D01*
X0000450009Y0002249386D01*
X0000449214Y0002249671D01*
X0000448450Y0002250032D01*
X0000447725Y0002250466D01*
X0000447046Y0002250970D01*
X0000446420Y0002251537D01*
X0000445852Y0002252164D01*
X0000445349Y0002252842D01*
X0000444914Y0002253567D01*
X0000444553Y0002254331D01*
X0000444268Y0002255127D01*
X0000444063Y0002255947D01*
X0000443939Y0002256783D01*
X0000443897Y0002257627D01*
X0000443897Y0002277804D01*
X0000443939Y0002278648D01*
X0000444063Y0002279485D01*
X0000444268Y0002280304D01*
X0000444553Y0002281100D01*
X0000444914Y0002281864D01*
X0000445349Y0002282589D01*
X0000445852Y0002283268D01*
X0000446420Y0002283894D01*
X0000447046Y0002284462D01*
X0000447725Y0002284965D01*
X0000448450Y0002285400D01*
X0000449214Y0002285761D01*
X0000450009Y0002286046D01*
X0000450829Y0002286251D01*
X0000451665Y0002286375D01*
X0000452509Y0002286417D01*
X0000469734Y0002286417D01*
X0000470578Y0002286375D01*
X0000470578Y0002286375D01*
G37*
D27*
X0000461122Y0002267716D03*
G04 #@! TD*
D26*
G04 #@! TO.C,R1*
G36*
X0000977960Y0002254879D02*
X0000978796Y0002254755D01*
X0000979616Y0002254550D01*
X0000980411Y0002254265D01*
X0000981175Y0002253904D01*
X0000981900Y0002253469D01*
X0000982579Y0002252966D01*
X0000983205Y0002252398D01*
X0000983773Y0002251772D01*
X0000984276Y0002251093D01*
X0000984711Y0002250368D01*
X0000985072Y0002249604D01*
X0000985357Y0002248808D01*
X0000985562Y0002247988D01*
X0000985686Y0002247152D01*
X0000985728Y0002246308D01*
X0000985728Y0002226131D01*
X0000985686Y0002225287D01*
X0000985562Y0002224451D01*
X0000985357Y0002223631D01*
X0000985072Y0002222835D01*
X0000984711Y0002222071D01*
X0000984276Y0002221346D01*
X0000983773Y0002220668D01*
X0000983205Y0002220041D01*
X0000982579Y0002219474D01*
X0000981900Y0002218970D01*
X0000981175Y0002218536D01*
X0000980411Y0002218174D01*
X0000979616Y0002217890D01*
X0000978796Y0002217684D01*
X0000977960Y0002217560D01*
X0000977116Y0002217519D01*
X0000959891Y0002217519D01*
X0000959047Y0002217560D01*
X0000958211Y0002217684D01*
X0000957391Y0002217890D01*
X0000956595Y0002218174D01*
X0000955831Y0002218536D01*
X0000955107Y0002218970D01*
X0000954428Y0002219474D01*
X0000953801Y0002220041D01*
X0000953234Y0002220668D01*
X0000952730Y0002221346D01*
X0000952296Y0002222071D01*
X0000951935Y0002222835D01*
X0000951650Y0002223631D01*
X0000951445Y0002224451D01*
X0000951320Y0002225287D01*
X0000951279Y0002226131D01*
X0000951279Y0002246308D01*
X0000951320Y0002247152D01*
X0000951445Y0002247988D01*
X0000951650Y0002248808D01*
X0000951935Y0002249604D01*
X0000952296Y0002250368D01*
X0000952730Y0002251093D01*
X0000953234Y0002251772D01*
X0000953801Y0002252398D01*
X0000954428Y0002252966D01*
X0000955107Y0002253469D01*
X0000955831Y0002253904D01*
X0000956595Y0002254265D01*
X0000957391Y0002254550D01*
X0000958211Y0002254755D01*
X0000959047Y0002254879D01*
X0000959891Y0002254920D01*
X0000977116Y0002254920D01*
X0000977960Y0002254879D01*
X0000977960Y0002254879D01*
G37*
D27*
X0000968503Y0002236220D03*
D26*
G36*
X0000915952Y0002254879D02*
X0000916788Y0002254755D01*
X0000917608Y0002254550D01*
X0000918403Y0002254265D01*
X0000919168Y0002253904D01*
X0000919892Y0002253469D01*
X0000920571Y0002252966D01*
X0000921197Y0002252398D01*
X0000921765Y0002251772D01*
X0000922269Y0002251093D01*
X0000922703Y0002250368D01*
X0000923064Y0002249604D01*
X0000923349Y0002248808D01*
X0000923554Y0002247988D01*
X0000923678Y0002247152D01*
X0000923720Y0002246308D01*
X0000923720Y0002226131D01*
X0000923678Y0002225287D01*
X0000923554Y0002224451D01*
X0000923349Y0002223631D01*
X0000923064Y0002222835D01*
X0000922703Y0002222071D01*
X0000922269Y0002221346D01*
X0000921765Y0002220668D01*
X0000921197Y0002220041D01*
X0000920571Y0002219474D01*
X0000919892Y0002218970D01*
X0000919168Y0002218536D01*
X0000918403Y0002218174D01*
X0000917608Y0002217890D01*
X0000916788Y0002217684D01*
X0000915952Y0002217560D01*
X0000915108Y0002217519D01*
X0000897883Y0002217519D01*
X0000897039Y0002217560D01*
X0000896203Y0002217684D01*
X0000895383Y0002217890D01*
X0000894588Y0002218174D01*
X0000893824Y0002218536D01*
X0000893099Y0002218970D01*
X0000892420Y0002219474D01*
X0000891794Y0002220041D01*
X0000891226Y0002220668D01*
X0000890723Y0002221346D01*
X0000890288Y0002222071D01*
X0000889927Y0002222835D01*
X0000889642Y0002223631D01*
X0000889437Y0002224451D01*
X0000889313Y0002225287D01*
X0000889271Y0002226131D01*
X0000889271Y0002246308D01*
X0000889313Y0002247152D01*
X0000889437Y0002247988D01*
X0000889642Y0002248808D01*
X0000889927Y0002249604D01*
X0000890288Y0002250368D01*
X0000890723Y0002251093D01*
X0000891226Y0002251772D01*
X0000891794Y0002252398D01*
X0000892420Y0002252966D01*
X0000893099Y0002253469D01*
X0000893824Y0002253904D01*
X0000894588Y0002254265D01*
X0000895383Y0002254550D01*
X0000896203Y0002254755D01*
X0000897039Y0002254879D01*
X0000897883Y0002254920D01*
X0000915108Y0002254920D01*
X0000915952Y0002254879D01*
X0000915952Y0002254879D01*
G37*
D27*
X0000906496Y0002236220D03*
G04 #@! TD*
D26*
G04 #@! TO.C,R2*
G36*
X0000977468Y0002195824D02*
X0000978304Y0002195700D01*
X0000979124Y0002195495D01*
X0000979919Y0002195210D01*
X0000980683Y0002194848D01*
X0000981408Y0002194414D01*
X0000982087Y0002193910D01*
X0000982713Y0002193343D01*
X0000983281Y0002192717D01*
X0000983784Y0002192038D01*
X0000984219Y0002191313D01*
X0000984580Y0002190549D01*
X0000984865Y0002189753D01*
X0000985070Y0002188933D01*
X0000985194Y0002188097D01*
X0000985236Y0002187253D01*
X0000985236Y0002167076D01*
X0000985194Y0002166232D01*
X0000985070Y0002165396D01*
X0000984865Y0002164576D01*
X0000984580Y0002163780D01*
X0000984219Y0002163016D01*
X0000983784Y0002162291D01*
X0000983281Y0002161612D01*
X0000982713Y0002160986D01*
X0000982087Y0002160419D01*
X0000981408Y0002159915D01*
X0000980683Y0002159481D01*
X0000979919Y0002159119D01*
X0000979124Y0002158835D01*
X0000978304Y0002158629D01*
X0000977468Y0002158505D01*
X0000976624Y0002158464D01*
X0000959399Y0002158464D01*
X0000958555Y0002158505D01*
X0000957719Y0002158629D01*
X0000956899Y0002158835D01*
X0000956103Y0002159119D01*
X0000955339Y0002159481D01*
X0000954614Y0002159915D01*
X0000953936Y0002160419D01*
X0000953309Y0002160986D01*
X0000952742Y0002161612D01*
X0000952238Y0002162291D01*
X0000951804Y0002163016D01*
X0000951442Y0002163780D01*
X0000951158Y0002164576D01*
X0000950952Y0002165396D01*
X0000950828Y0002166232D01*
X0000950787Y0002167076D01*
X0000950787Y0002187253D01*
X0000950828Y0002188097D01*
X0000950952Y0002188933D01*
X0000951158Y0002189753D01*
X0000951442Y0002190549D01*
X0000951804Y0002191313D01*
X0000952238Y0002192038D01*
X0000952742Y0002192717D01*
X0000953309Y0002193343D01*
X0000953936Y0002193910D01*
X0000954614Y0002194414D01*
X0000955339Y0002194848D01*
X0000956103Y0002195210D01*
X0000956899Y0002195495D01*
X0000957719Y0002195700D01*
X0000958555Y0002195824D01*
X0000959399Y0002195865D01*
X0000976624Y0002195865D01*
X0000977468Y0002195824D01*
X0000977468Y0002195824D01*
G37*
D27*
X0000968011Y0002177165D03*
D26*
G36*
X0000915460Y0002195824D02*
X0000916296Y0002195700D01*
X0000917116Y0002195495D01*
X0000917911Y0002195210D01*
X0000918675Y0002194848D01*
X0000919400Y0002194414D01*
X0000920079Y0002193910D01*
X0000920705Y0002193343D01*
X0000921273Y0002192717D01*
X0000921776Y0002192038D01*
X0000922211Y0002191313D01*
X0000922572Y0002190549D01*
X0000922857Y0002189753D01*
X0000923062Y0002188933D01*
X0000923186Y0002188097D01*
X0000923228Y0002187253D01*
X0000923228Y0002167076D01*
X0000923186Y0002166232D01*
X0000923062Y0002165396D01*
X0000922857Y0002164576D01*
X0000922572Y0002163780D01*
X0000922211Y0002163016D01*
X0000921776Y0002162291D01*
X0000921273Y0002161612D01*
X0000920705Y0002160986D01*
X0000920079Y0002160419D01*
X0000919400Y0002159915D01*
X0000918675Y0002159481D01*
X0000917911Y0002159119D01*
X0000917116Y0002158835D01*
X0000916296Y0002158629D01*
X0000915460Y0002158505D01*
X0000914616Y0002158464D01*
X0000897391Y0002158464D01*
X0000896547Y0002158505D01*
X0000895711Y0002158629D01*
X0000894891Y0002158835D01*
X0000894095Y0002159119D01*
X0000893331Y0002159481D01*
X0000892607Y0002159915D01*
X0000891928Y0002160419D01*
X0000891301Y0002160986D01*
X0000890734Y0002161612D01*
X0000890230Y0002162291D01*
X0000889796Y0002163016D01*
X0000889435Y0002163780D01*
X0000889150Y0002164576D01*
X0000888945Y0002165396D01*
X0000888820Y0002166232D01*
X0000888779Y0002167076D01*
X0000888779Y0002187253D01*
X0000888820Y0002188097D01*
X0000888945Y0002188933D01*
X0000889150Y0002189753D01*
X0000889435Y0002190549D01*
X0000889796Y0002191313D01*
X0000890230Y0002192038D01*
X0000890734Y0002192717D01*
X0000891301Y0002193343D01*
X0000891928Y0002193910D01*
X0000892607Y0002194414D01*
X0000893331Y0002194848D01*
X0000894095Y0002195210D01*
X0000894891Y0002195495D01*
X0000895711Y0002195700D01*
X0000896547Y0002195824D01*
X0000897391Y0002195865D01*
X0000914616Y0002195865D01*
X0000915460Y0002195824D01*
X0000915460Y0002195824D01*
G37*
D27*
X0000906003Y0002177165D03*
G04 #@! TD*
D26*
G04 #@! TO.C,R3*
G36*
X0000977468Y0002136769D02*
X0000978304Y0002136645D01*
X0000979124Y0002136439D01*
X0000979919Y0002136155D01*
X0000980683Y0002135793D01*
X0000981408Y0002135359D01*
X0000982087Y0002134855D01*
X0000982713Y0002134288D01*
X0000983281Y0002133662D01*
X0000983784Y0002132983D01*
X0000984219Y0002132258D01*
X0000984580Y0002131494D01*
X0000984865Y0002130698D01*
X0000985070Y0002129878D01*
X0000985194Y0002129042D01*
X0000985236Y0002128198D01*
X0000985236Y0002108021D01*
X0000985194Y0002107177D01*
X0000985070Y0002106341D01*
X0000984865Y0002105521D01*
X0000984580Y0002104725D01*
X0000984219Y0002103961D01*
X0000983784Y0002103236D01*
X0000983281Y0002102557D01*
X0000982713Y0002101931D01*
X0000982087Y0002101364D01*
X0000981408Y0002100860D01*
X0000980683Y0002100426D01*
X0000979919Y0002100064D01*
X0000979124Y0002099780D01*
X0000978304Y0002099574D01*
X0000977468Y0002099450D01*
X0000976624Y0002099409D01*
X0000959399Y0002099409D01*
X0000958555Y0002099450D01*
X0000957719Y0002099574D01*
X0000956899Y0002099780D01*
X0000956103Y0002100064D01*
X0000955339Y0002100426D01*
X0000954614Y0002100860D01*
X0000953936Y0002101364D01*
X0000953309Y0002101931D01*
X0000952742Y0002102557D01*
X0000952238Y0002103236D01*
X0000951804Y0002103961D01*
X0000951442Y0002104725D01*
X0000951158Y0002105521D01*
X0000950952Y0002106341D01*
X0000950828Y0002107177D01*
X0000950787Y0002108021D01*
X0000950787Y0002128198D01*
X0000950828Y0002129042D01*
X0000950952Y0002129878D01*
X0000951158Y0002130698D01*
X0000951442Y0002131494D01*
X0000951804Y0002132258D01*
X0000952238Y0002132983D01*
X0000952742Y0002133662D01*
X0000953309Y0002134288D01*
X0000953936Y0002134855D01*
X0000954614Y0002135359D01*
X0000955339Y0002135793D01*
X0000956103Y0002136155D01*
X0000956899Y0002136439D01*
X0000957719Y0002136645D01*
X0000958555Y0002136769D01*
X0000959399Y0002136810D01*
X0000976624Y0002136810D01*
X0000977468Y0002136769D01*
X0000977468Y0002136769D01*
G37*
D27*
X0000968011Y0002118109D03*
D26*
G36*
X0000915460Y0002136769D02*
X0000916296Y0002136645D01*
X0000917116Y0002136439D01*
X0000917911Y0002136155D01*
X0000918675Y0002135793D01*
X0000919400Y0002135359D01*
X0000920079Y0002134855D01*
X0000920705Y0002134288D01*
X0000921273Y0002133662D01*
X0000921776Y0002132983D01*
X0000922211Y0002132258D01*
X0000922572Y0002131494D01*
X0000922857Y0002130698D01*
X0000923062Y0002129878D01*
X0000923186Y0002129042D01*
X0000923228Y0002128198D01*
X0000923228Y0002108021D01*
X0000923186Y0002107177D01*
X0000923062Y0002106341D01*
X0000922857Y0002105521D01*
X0000922572Y0002104725D01*
X0000922211Y0002103961D01*
X0000921776Y0002103236D01*
X0000921273Y0002102557D01*
X0000920705Y0002101931D01*
X0000920079Y0002101364D01*
X0000919400Y0002100860D01*
X0000918675Y0002100426D01*
X0000917911Y0002100064D01*
X0000917116Y0002099780D01*
X0000916296Y0002099574D01*
X0000915460Y0002099450D01*
X0000914616Y0002099409D01*
X0000897391Y0002099409D01*
X0000896547Y0002099450D01*
X0000895711Y0002099574D01*
X0000894891Y0002099780D01*
X0000894095Y0002100064D01*
X0000893331Y0002100426D01*
X0000892607Y0002100860D01*
X0000891928Y0002101364D01*
X0000891301Y0002101931D01*
X0000890734Y0002102557D01*
X0000890230Y0002103236D01*
X0000889796Y0002103961D01*
X0000889435Y0002104725D01*
X0000889150Y0002105521D01*
X0000888945Y0002106341D01*
X0000888820Y0002107177D01*
X0000888779Y0002108021D01*
X0000888779Y0002128198D01*
X0000888820Y0002129042D01*
X0000888945Y0002129878D01*
X0000889150Y0002130698D01*
X0000889435Y0002131494D01*
X0000889796Y0002132258D01*
X0000890230Y0002132983D01*
X0000890734Y0002133662D01*
X0000891301Y0002134288D01*
X0000891928Y0002134855D01*
X0000892607Y0002135359D01*
X0000893331Y0002135793D01*
X0000894095Y0002136155D01*
X0000894891Y0002136439D01*
X0000895711Y0002136645D01*
X0000896547Y0002136769D01*
X0000897391Y0002136810D01*
X0000914616Y0002136810D01*
X0000915460Y0002136769D01*
X0000915460Y0002136769D01*
G37*
D27*
X0000906003Y0002118109D03*
G04 #@! TD*
D26*
G04 #@! TO.C,R4*
G36*
X0000915460Y0002313934D02*
X0000916296Y0002313810D01*
X0000917116Y0002313605D01*
X0000917911Y0002313320D01*
X0000918675Y0002312959D01*
X0000919400Y0002312524D01*
X0000920079Y0002312021D01*
X0000920705Y0002311453D01*
X0000921273Y0002310827D01*
X0000921776Y0002310148D01*
X0000922211Y0002309423D01*
X0000922572Y0002308659D01*
X0000922857Y0002307863D01*
X0000923062Y0002307044D01*
X0000923186Y0002306208D01*
X0000923228Y0002305363D01*
X0000923228Y0002285186D01*
X0000923186Y0002284342D01*
X0000923062Y0002283506D01*
X0000922857Y0002282686D01*
X0000922572Y0002281890D01*
X0000922211Y0002281126D01*
X0000921776Y0002280402D01*
X0000921273Y0002279723D01*
X0000920705Y0002279096D01*
X0000920079Y0002278529D01*
X0000919400Y0002278025D01*
X0000918675Y0002277591D01*
X0000917911Y0002277230D01*
X0000917116Y0002276945D01*
X0000916296Y0002276740D01*
X0000915460Y0002276615D01*
X0000914616Y0002276574D01*
X0000897391Y0002276574D01*
X0000896547Y0002276615D01*
X0000895711Y0002276740D01*
X0000894891Y0002276945D01*
X0000894095Y0002277230D01*
X0000893331Y0002277591D01*
X0000892607Y0002278025D01*
X0000891928Y0002278529D01*
X0000891301Y0002279096D01*
X0000890734Y0002279723D01*
X0000890230Y0002280402D01*
X0000889796Y0002281126D01*
X0000889435Y0002281890D01*
X0000889150Y0002282686D01*
X0000888945Y0002283506D01*
X0000888820Y0002284342D01*
X0000888779Y0002285186D01*
X0000888779Y0002305363D01*
X0000888820Y0002306208D01*
X0000888945Y0002307044D01*
X0000889150Y0002307863D01*
X0000889435Y0002308659D01*
X0000889796Y0002309423D01*
X0000890230Y0002310148D01*
X0000890734Y0002310827D01*
X0000891301Y0002311453D01*
X0000891928Y0002312021D01*
X0000892607Y0002312524D01*
X0000893331Y0002312959D01*
X0000894095Y0002313320D01*
X0000894891Y0002313605D01*
X0000895711Y0002313810D01*
X0000896547Y0002313934D01*
X0000897391Y0002313976D01*
X0000914616Y0002313976D01*
X0000915460Y0002313934D01*
X0000915460Y0002313934D01*
G37*
D27*
X0000906003Y0002295275D03*
D26*
G36*
X0000977468Y0002313934D02*
X0000978304Y0002313810D01*
X0000979124Y0002313605D01*
X0000979919Y0002313320D01*
X0000980683Y0002312959D01*
X0000981408Y0002312524D01*
X0000982087Y0002312021D01*
X0000982713Y0002311453D01*
X0000983281Y0002310827D01*
X0000983784Y0002310148D01*
X0000984219Y0002309423D01*
X0000984580Y0002308659D01*
X0000984865Y0002307863D01*
X0000985070Y0002307044D01*
X0000985194Y0002306208D01*
X0000985236Y0002305363D01*
X0000985236Y0002285186D01*
X0000985194Y0002284342D01*
X0000985070Y0002283506D01*
X0000984865Y0002282686D01*
X0000984580Y0002281890D01*
X0000984219Y0002281126D01*
X0000983784Y0002280402D01*
X0000983281Y0002279723D01*
X0000982713Y0002279096D01*
X0000982087Y0002278529D01*
X0000981408Y0002278025D01*
X0000980683Y0002277591D01*
X0000979919Y0002277230D01*
X0000979124Y0002276945D01*
X0000978304Y0002276740D01*
X0000977468Y0002276615D01*
X0000976624Y0002276574D01*
X0000959399Y0002276574D01*
X0000958555Y0002276615D01*
X0000957719Y0002276740D01*
X0000956899Y0002276945D01*
X0000956103Y0002277230D01*
X0000955339Y0002277591D01*
X0000954614Y0002278025D01*
X0000953936Y0002278529D01*
X0000953309Y0002279096D01*
X0000952742Y0002279723D01*
X0000952238Y0002280402D01*
X0000951804Y0002281126D01*
X0000951442Y0002281890D01*
X0000951158Y0002282686D01*
X0000950952Y0002283506D01*
X0000950828Y0002284342D01*
X0000950787Y0002285186D01*
X0000950787Y0002305363D01*
X0000950828Y0002306208D01*
X0000950952Y0002307044D01*
X0000951158Y0002307863D01*
X0000951442Y0002308659D01*
X0000951804Y0002309423D01*
X0000952238Y0002310148D01*
X0000952742Y0002310827D01*
X0000953309Y0002311453D01*
X0000953936Y0002312021D01*
X0000954614Y0002312524D01*
X0000955339Y0002312959D01*
X0000956103Y0002313320D01*
X0000956899Y0002313605D01*
X0000957719Y0002313810D01*
X0000958555Y0002313934D01*
X0000959399Y0002313976D01*
X0000976624Y0002313976D01*
X0000977468Y0002313934D01*
X0000977468Y0002313934D01*
G37*
D27*
X0000968011Y0002295275D03*
G04 #@! TD*
D26*
G04 #@! TO.C,R5*
G36*
X0000915460Y0002372989D02*
X0000916296Y0002372865D01*
X0000917116Y0002372660D01*
X0000917911Y0002372375D01*
X0000918675Y0002372014D01*
X0000919400Y0002371579D01*
X0000920079Y0002371076D01*
X0000920705Y0002370508D01*
X0000921273Y0002369882D01*
X0000921776Y0002369203D01*
X0000922211Y0002368478D01*
X0000922572Y0002367714D01*
X0000922857Y0002366919D01*
X0000923062Y0002366099D01*
X0000923186Y0002365263D01*
X0000923228Y0002364419D01*
X0000923228Y0002344241D01*
X0000923186Y0002343397D01*
X0000923062Y0002342561D01*
X0000922857Y0002341741D01*
X0000922572Y0002340946D01*
X0000922211Y0002340182D01*
X0000921776Y0002339457D01*
X0000921273Y0002338778D01*
X0000920705Y0002338152D01*
X0000920079Y0002337584D01*
X0000919400Y0002337081D01*
X0000918675Y0002336646D01*
X0000917911Y0002336285D01*
X0000917116Y0002336000D01*
X0000916296Y0002335795D01*
X0000915460Y0002335671D01*
X0000914616Y0002335629D01*
X0000897391Y0002335629D01*
X0000896547Y0002335671D01*
X0000895711Y0002335795D01*
X0000894891Y0002336000D01*
X0000894095Y0002336285D01*
X0000893331Y0002336646D01*
X0000892607Y0002337081D01*
X0000891928Y0002337584D01*
X0000891301Y0002338152D01*
X0000890734Y0002338778D01*
X0000890230Y0002339457D01*
X0000889796Y0002340182D01*
X0000889435Y0002340946D01*
X0000889150Y0002341741D01*
X0000888945Y0002342561D01*
X0000888820Y0002343397D01*
X0000888779Y0002344241D01*
X0000888779Y0002364419D01*
X0000888820Y0002365263D01*
X0000888945Y0002366099D01*
X0000889150Y0002366919D01*
X0000889435Y0002367714D01*
X0000889796Y0002368478D01*
X0000890230Y0002369203D01*
X0000890734Y0002369882D01*
X0000891301Y0002370508D01*
X0000891928Y0002371076D01*
X0000892607Y0002371579D01*
X0000893331Y0002372014D01*
X0000894095Y0002372375D01*
X0000894891Y0002372660D01*
X0000895711Y0002372865D01*
X0000896547Y0002372989D01*
X0000897391Y0002373031D01*
X0000914616Y0002373031D01*
X0000915460Y0002372989D01*
X0000915460Y0002372989D01*
G37*
D27*
X0000906003Y0002354330D03*
D26*
G36*
X0000977468Y0002372989D02*
X0000978304Y0002372865D01*
X0000979124Y0002372660D01*
X0000979919Y0002372375D01*
X0000980683Y0002372014D01*
X0000981408Y0002371579D01*
X0000982087Y0002371076D01*
X0000982713Y0002370508D01*
X0000983281Y0002369882D01*
X0000983784Y0002369203D01*
X0000984219Y0002368478D01*
X0000984580Y0002367714D01*
X0000984865Y0002366919D01*
X0000985070Y0002366099D01*
X0000985194Y0002365263D01*
X0000985236Y0002364419D01*
X0000985236Y0002344241D01*
X0000985194Y0002343397D01*
X0000985070Y0002342561D01*
X0000984865Y0002341741D01*
X0000984580Y0002340946D01*
X0000984219Y0002340182D01*
X0000983784Y0002339457D01*
X0000983281Y0002338778D01*
X0000982713Y0002338152D01*
X0000982087Y0002337584D01*
X0000981408Y0002337081D01*
X0000980683Y0002336646D01*
X0000979919Y0002336285D01*
X0000979124Y0002336000D01*
X0000978304Y0002335795D01*
X0000977468Y0002335671D01*
X0000976624Y0002335629D01*
X0000959399Y0002335629D01*
X0000958555Y0002335671D01*
X0000957719Y0002335795D01*
X0000956899Y0002336000D01*
X0000956103Y0002336285D01*
X0000955339Y0002336646D01*
X0000954614Y0002337081D01*
X0000953936Y0002337584D01*
X0000953309Y0002338152D01*
X0000952742Y0002338778D01*
X0000952238Y0002339457D01*
X0000951804Y0002340182D01*
X0000951442Y0002340946D01*
X0000951158Y0002341741D01*
X0000950952Y0002342561D01*
X0000950828Y0002343397D01*
X0000950787Y0002344241D01*
X0000950787Y0002364419D01*
X0000950828Y0002365263D01*
X0000950952Y0002366099D01*
X0000951158Y0002366919D01*
X0000951442Y0002367714D01*
X0000951804Y0002368478D01*
X0000952238Y0002369203D01*
X0000952742Y0002369882D01*
X0000953309Y0002370508D01*
X0000953936Y0002371076D01*
X0000954614Y0002371579D01*
X0000955339Y0002372014D01*
X0000956103Y0002372375D01*
X0000956899Y0002372660D01*
X0000957719Y0002372865D01*
X0000958555Y0002372989D01*
X0000959399Y0002373031D01*
X0000976624Y0002373031D01*
X0000977468Y0002372989D01*
X0000977468Y0002372989D01*
G37*
D27*
X0000968011Y0002354330D03*
G04 #@! TD*
D28*
G04 #@! TO.C,U1*
X0000590354Y0002322834D03*
X0000640354Y0002322834D03*
X0000690354Y0002322834D03*
X0000740354Y0002322834D03*
X0000740354Y0002110235D03*
X0000690354Y0002110235D03*
X0000640354Y0002110235D03*
X0000590354Y0002110235D03*
G04 #@! TD*
G04 next file*
G04 #@! TF.GenerationSoftware,KiCad,Pcbnew,(5.0.2)-1*
G04 #@! TF.CreationDate,2019-01-19T12:13:54+11:00*
G04 #@! TF.ProjectId,WarGames_SAO,57617247-616d-4657-935f-53414f2e6b69,rev?*
G04 #@! TF.SameCoordinates,Original*
G04 #@! TF.FileFunction,Paste,Bot*
G04 #@! TF.FilePolarity,Positive*
G04 Gerber Fmt 4.6, Leading zero omitted, Abs format (unit mm)*
G04 Created by KiCad (PCBNEW (5.0.2)-1) date 19/01/2019 12:13:54*
G01*
G04 APERTURE LIST*
G04 APERTURE END LIST*
D29*
G04 #@! TO.C,C1*
G36*
X0002516838Y0002286375D02*
X0002517674Y0002286251D01*
X0002518494Y0002286046D01*
X0002519289Y0002285761D01*
X0002520053Y0002285400D01*
X0002520778Y0002284965D01*
X0002521457Y0002284462D01*
X0002522083Y0002283894D01*
X0002522651Y0002283268D01*
X0002523154Y0002282589D01*
X0002523589Y0002281864D01*
X0002523950Y0002281100D01*
X0002524235Y0002280304D01*
X0002524440Y0002279485D01*
X0002524564Y0002278648D01*
X0002524606Y0002277804D01*
X0002524606Y0002257627D01*
X0002524564Y0002256783D01*
X0002524440Y0002255947D01*
X0002524235Y0002255127D01*
X0002523950Y0002254331D01*
X0002523589Y0002253567D01*
X0002523154Y0002252842D01*
X0002522651Y0002252164D01*
X0002522083Y0002251537D01*
X0002521457Y0002250970D01*
X0002520778Y0002250466D01*
X0002520053Y0002250032D01*
X0002519289Y0002249671D01*
X0002518494Y0002249386D01*
X0002517674Y0002249180D01*
X0002516838Y0002249056D01*
X0002515994Y0002249015D01*
X0002498769Y0002249015D01*
X0002497925Y0002249056D01*
X0002497089Y0002249180D01*
X0002496269Y0002249386D01*
X0002495473Y0002249671D01*
X0002494709Y0002250032D01*
X0002493985Y0002250466D01*
X0002493306Y0002250970D01*
X0002492679Y0002251537D01*
X0002492112Y0002252164D01*
X0002491608Y0002252842D01*
X0002491174Y0002253567D01*
X0002490813Y0002254331D01*
X0002490528Y0002255127D01*
X0002490322Y0002255947D01*
X0002490198Y0002256783D01*
X0002490157Y0002257627D01*
X0002490157Y0002277804D01*
X0002490198Y0002278648D01*
X0002490322Y0002279485D01*
X0002490528Y0002280304D01*
X0002490813Y0002281100D01*
X0002491174Y0002281864D01*
X0002491608Y0002282589D01*
X0002492112Y0002283268D01*
X0002492679Y0002283894D01*
X0002493306Y0002284462D01*
X0002493985Y0002284965D01*
X0002494709Y0002285400D01*
X0002495473Y0002285761D01*
X0002496269Y0002286046D01*
X0002497089Y0002286251D01*
X0002497925Y0002286375D01*
X0002498769Y0002286417D01*
X0002515994Y0002286417D01*
X0002516838Y0002286375D01*
X0002516838Y0002286375D01*
G37*
D30*
X0002507381Y0002267716D03*
D29*
G36*
X0002454830Y0002286375D02*
X0002455666Y0002286251D01*
X0002456486Y0002286046D01*
X0002457282Y0002285761D01*
X0002458046Y0002285400D01*
X0002458770Y0002284965D01*
X0002459449Y0002284462D01*
X0002460076Y0002283894D01*
X0002460643Y0002283268D01*
X0002461147Y0002282589D01*
X0002461581Y0002281864D01*
X0002461942Y0002281100D01*
X0002462227Y0002280304D01*
X0002462432Y0002279485D01*
X0002462557Y0002278648D01*
X0002462598Y0002277804D01*
X0002462598Y0002257627D01*
X0002462557Y0002256783D01*
X0002462432Y0002255947D01*
X0002462227Y0002255127D01*
X0002461942Y0002254331D01*
X0002461581Y0002253567D01*
X0002461147Y0002252842D01*
X0002460643Y0002252164D01*
X0002460076Y0002251537D01*
X0002459449Y0002250970D01*
X0002458770Y0002250466D01*
X0002458046Y0002250032D01*
X0002457282Y0002249671D01*
X0002456486Y0002249386D01*
X0002455666Y0002249180D01*
X0002454830Y0002249056D01*
X0002453986Y0002249015D01*
X0002436761Y0002249015D01*
X0002435917Y0002249056D01*
X0002435081Y0002249180D01*
X0002434261Y0002249386D01*
X0002433466Y0002249671D01*
X0002432702Y0002250032D01*
X0002431977Y0002250466D01*
X0002431298Y0002250970D01*
X0002430672Y0002251537D01*
X0002430104Y0002252164D01*
X0002429601Y0002252842D01*
X0002429166Y0002253567D01*
X0002428805Y0002254331D01*
X0002428520Y0002255127D01*
X0002428315Y0002255947D01*
X0002428191Y0002256783D01*
X0002428149Y0002257627D01*
X0002428149Y0002277804D01*
X0002428191Y0002278648D01*
X0002428315Y0002279485D01*
X0002428520Y0002280304D01*
X0002428805Y0002281100D01*
X0002429166Y0002281864D01*
X0002429601Y0002282589D01*
X0002430104Y0002283268D01*
X0002430672Y0002283894D01*
X0002431298Y0002284462D01*
X0002431977Y0002284965D01*
X0002432702Y0002285400D01*
X0002433466Y0002285761D01*
X0002434261Y0002286046D01*
X0002435081Y0002286251D01*
X0002435917Y0002286375D01*
X0002436761Y0002286417D01*
X0002453986Y0002286417D01*
X0002454830Y0002286375D01*
X0002454830Y0002286375D01*
G37*
D30*
X0002445374Y0002267716D03*
G04 #@! TD*
D29*
G04 #@! TO.C,R1*
G36*
X0002962212Y0002254879D02*
X0002963048Y0002254755D01*
X0002963868Y0002254550D01*
X0002964663Y0002254265D01*
X0002965427Y0002253904D01*
X0002966152Y0002253469D01*
X0002966831Y0002252966D01*
X0002967457Y0002252398D01*
X0002968025Y0002251772D01*
X0002968528Y0002251093D01*
X0002968963Y0002250368D01*
X0002969324Y0002249604D01*
X0002969609Y0002248808D01*
X0002969814Y0002247988D01*
X0002969938Y0002247152D01*
X0002969980Y0002246308D01*
X0002969980Y0002226131D01*
X0002969938Y0002225287D01*
X0002969814Y0002224451D01*
X0002969609Y0002223631D01*
X0002969324Y0002222835D01*
X0002968963Y0002222071D01*
X0002968528Y0002221346D01*
X0002968025Y0002220668D01*
X0002967457Y0002220041D01*
X0002966831Y0002219474D01*
X0002966152Y0002218970D01*
X0002965427Y0002218536D01*
X0002964663Y0002218174D01*
X0002963868Y0002217890D01*
X0002963048Y0002217684D01*
X0002962212Y0002217560D01*
X0002961368Y0002217519D01*
X0002944143Y0002217519D01*
X0002943299Y0002217560D01*
X0002942463Y0002217684D01*
X0002941643Y0002217890D01*
X0002940847Y0002218174D01*
X0002940083Y0002218536D01*
X0002939359Y0002218970D01*
X0002938680Y0002219474D01*
X0002938053Y0002220041D01*
X0002937486Y0002220668D01*
X0002936982Y0002221346D01*
X0002936548Y0002222071D01*
X0002936187Y0002222835D01*
X0002935902Y0002223631D01*
X0002935697Y0002224451D01*
X0002935572Y0002225287D01*
X0002935531Y0002226131D01*
X0002935531Y0002246308D01*
X0002935572Y0002247152D01*
X0002935697Y0002247988D01*
X0002935902Y0002248808D01*
X0002936187Y0002249604D01*
X0002936548Y0002250368D01*
X0002936982Y0002251093D01*
X0002937486Y0002251772D01*
X0002938053Y0002252398D01*
X0002938680Y0002252966D01*
X0002939359Y0002253469D01*
X0002940083Y0002253904D01*
X0002940847Y0002254265D01*
X0002941643Y0002254550D01*
X0002942463Y0002254755D01*
X0002943299Y0002254879D01*
X0002944143Y0002254920D01*
X0002961368Y0002254920D01*
X0002962212Y0002254879D01*
X0002962212Y0002254879D01*
G37*
D30*
X0002952755Y0002236220D03*
D29*
G36*
X0002900204Y0002254879D02*
X0002901040Y0002254755D01*
X0002901860Y0002254550D01*
X0002902656Y0002254265D01*
X0002903420Y0002253904D01*
X0002904144Y0002253469D01*
X0002904823Y0002252966D01*
X0002905450Y0002252398D01*
X0002906017Y0002251772D01*
X0002906521Y0002251093D01*
X0002906955Y0002250368D01*
X0002907316Y0002249604D01*
X0002907601Y0002248808D01*
X0002907807Y0002247988D01*
X0002907931Y0002247152D01*
X0002907972Y0002246308D01*
X0002907972Y0002226131D01*
X0002907931Y0002225287D01*
X0002907807Y0002224451D01*
X0002907601Y0002223631D01*
X0002907316Y0002222835D01*
X0002906955Y0002222071D01*
X0002906521Y0002221346D01*
X0002906017Y0002220668D01*
X0002905450Y0002220041D01*
X0002904823Y0002219474D01*
X0002904144Y0002218970D01*
X0002903420Y0002218536D01*
X0002902656Y0002218174D01*
X0002901860Y0002217890D01*
X0002901040Y0002217684D01*
X0002900204Y0002217560D01*
X0002899360Y0002217519D01*
X0002882135Y0002217519D01*
X0002881291Y0002217560D01*
X0002880455Y0002217684D01*
X0002879635Y0002217890D01*
X0002878840Y0002218174D01*
X0002878076Y0002218536D01*
X0002877351Y0002218970D01*
X0002876672Y0002219474D01*
X0002876046Y0002220041D01*
X0002875478Y0002220668D01*
X0002874975Y0002221346D01*
X0002874540Y0002222071D01*
X0002874179Y0002222835D01*
X0002873894Y0002223631D01*
X0002873689Y0002224451D01*
X0002873565Y0002225287D01*
X0002873523Y0002226131D01*
X0002873523Y0002246308D01*
X0002873565Y0002247152D01*
X0002873689Y0002247988D01*
X0002873894Y0002248808D01*
X0002874179Y0002249604D01*
X0002874540Y0002250368D01*
X0002874975Y0002251093D01*
X0002875478Y0002251772D01*
X0002876046Y0002252398D01*
X0002876672Y0002252966D01*
X0002877351Y0002253469D01*
X0002878076Y0002253904D01*
X0002878840Y0002254265D01*
X0002879635Y0002254550D01*
X0002880455Y0002254755D01*
X0002881291Y0002254879D01*
X0002882135Y0002254920D01*
X0002899360Y0002254920D01*
X0002900204Y0002254879D01*
X0002900204Y0002254879D01*
G37*
D30*
X0002890748Y0002236220D03*
G04 #@! TD*
D29*
G04 #@! TO.C,R2*
G36*
X0002961720Y0002195824D02*
X0002962556Y0002195700D01*
X0002963376Y0002195495D01*
X0002964171Y0002195210D01*
X0002964935Y0002194848D01*
X0002965660Y0002194414D01*
X0002966339Y0002193910D01*
X0002966965Y0002193343D01*
X0002967533Y0002192717D01*
X0002968036Y0002192038D01*
X0002968471Y0002191313D01*
X0002968832Y0002190549D01*
X0002969117Y0002189753D01*
X0002969322Y0002188933D01*
X0002969446Y0002188097D01*
X0002969488Y0002187253D01*
X0002969488Y0002167076D01*
X0002969446Y0002166232D01*
X0002969322Y0002165396D01*
X0002969117Y0002164576D01*
X0002968832Y0002163780D01*
X0002968471Y0002163016D01*
X0002968036Y0002162291D01*
X0002967533Y0002161612D01*
X0002966965Y0002160986D01*
X0002966339Y0002160419D01*
X0002965660Y0002159915D01*
X0002964935Y0002159481D01*
X0002964171Y0002159119D01*
X0002963376Y0002158835D01*
X0002962556Y0002158629D01*
X0002961720Y0002158505D01*
X0002960876Y0002158464D01*
X0002943651Y0002158464D01*
X0002942807Y0002158505D01*
X0002941971Y0002158629D01*
X0002941151Y0002158835D01*
X0002940355Y0002159119D01*
X0002939591Y0002159481D01*
X0002938866Y0002159915D01*
X0002938188Y0002160419D01*
X0002937561Y0002160986D01*
X0002936994Y0002161612D01*
X0002936490Y0002162291D01*
X0002936056Y0002163016D01*
X0002935694Y0002163780D01*
X0002935410Y0002164576D01*
X0002935204Y0002165396D01*
X0002935080Y0002166232D01*
X0002935039Y0002167076D01*
X0002935039Y0002187253D01*
X0002935080Y0002188097D01*
X0002935204Y0002188933D01*
X0002935410Y0002189753D01*
X0002935694Y0002190549D01*
X0002936056Y0002191313D01*
X0002936490Y0002192038D01*
X0002936994Y0002192717D01*
X0002937561Y0002193343D01*
X0002938188Y0002193910D01*
X0002938866Y0002194414D01*
X0002939591Y0002194848D01*
X0002940355Y0002195210D01*
X0002941151Y0002195495D01*
X0002941971Y0002195700D01*
X0002942807Y0002195824D01*
X0002943651Y0002195865D01*
X0002960876Y0002195865D01*
X0002961720Y0002195824D01*
X0002961720Y0002195824D01*
G37*
D30*
X0002952263Y0002177165D03*
D29*
G36*
X0002899712Y0002195824D02*
X0002900548Y0002195700D01*
X0002901368Y0002195495D01*
X0002902163Y0002195210D01*
X0002902927Y0002194848D01*
X0002903652Y0002194414D01*
X0002904331Y0002193910D01*
X0002904957Y0002193343D01*
X0002905525Y0002192717D01*
X0002906028Y0002192038D01*
X0002906463Y0002191313D01*
X0002906824Y0002190549D01*
X0002907109Y0002189753D01*
X0002907314Y0002188933D01*
X0002907438Y0002188097D01*
X0002907480Y0002187253D01*
X0002907480Y0002167076D01*
X0002907438Y0002166232D01*
X0002907314Y0002165396D01*
X0002907109Y0002164576D01*
X0002906824Y0002163780D01*
X0002906463Y0002163016D01*
X0002906028Y0002162291D01*
X0002905525Y0002161612D01*
X0002904957Y0002160986D01*
X0002904331Y0002160419D01*
X0002903652Y0002159915D01*
X0002902927Y0002159481D01*
X0002902163Y0002159119D01*
X0002901368Y0002158835D01*
X0002900548Y0002158629D01*
X0002899712Y0002158505D01*
X0002898868Y0002158464D01*
X0002881643Y0002158464D01*
X0002880799Y0002158505D01*
X0002879963Y0002158629D01*
X0002879143Y0002158835D01*
X0002878347Y0002159119D01*
X0002877583Y0002159481D01*
X0002876859Y0002159915D01*
X0002876180Y0002160419D01*
X0002875553Y0002160986D01*
X0002874986Y0002161612D01*
X0002874482Y0002162291D01*
X0002874048Y0002163016D01*
X0002873687Y0002163780D01*
X0002873402Y0002164576D01*
X0002873197Y0002165396D01*
X0002873072Y0002166232D01*
X0002873031Y0002167076D01*
X0002873031Y0002187253D01*
X0002873072Y0002188097D01*
X0002873197Y0002188933D01*
X0002873402Y0002189753D01*
X0002873687Y0002190549D01*
X0002874048Y0002191313D01*
X0002874482Y0002192038D01*
X0002874986Y0002192717D01*
X0002875553Y0002193343D01*
X0002876180Y0002193910D01*
X0002876859Y0002194414D01*
X0002877583Y0002194848D01*
X0002878347Y0002195210D01*
X0002879143Y0002195495D01*
X0002879963Y0002195700D01*
X0002880799Y0002195824D01*
X0002881643Y0002195865D01*
X0002898868Y0002195865D01*
X0002899712Y0002195824D01*
X0002899712Y0002195824D01*
G37*
D30*
X0002890255Y0002177165D03*
G04 #@! TD*
D29*
G04 #@! TO.C,R3*
G36*
X0002961720Y0002136769D02*
X0002962556Y0002136645D01*
X0002963376Y0002136439D01*
X0002964171Y0002136155D01*
X0002964935Y0002135793D01*
X0002965660Y0002135359D01*
X0002966339Y0002134855D01*
X0002966965Y0002134288D01*
X0002967533Y0002133662D01*
X0002968036Y0002132983D01*
X0002968471Y0002132258D01*
X0002968832Y0002131494D01*
X0002969117Y0002130698D01*
X0002969322Y0002129878D01*
X0002969446Y0002129042D01*
X0002969488Y0002128198D01*
X0002969488Y0002108021D01*
X0002969446Y0002107177D01*
X0002969322Y0002106341D01*
X0002969117Y0002105521D01*
X0002968832Y0002104725D01*
X0002968471Y0002103961D01*
X0002968036Y0002103236D01*
X0002967533Y0002102557D01*
X0002966965Y0002101931D01*
X0002966339Y0002101364D01*
X0002965660Y0002100860D01*
X0002964935Y0002100426D01*
X0002964171Y0002100064D01*
X0002963376Y0002099780D01*
X0002962556Y0002099574D01*
X0002961720Y0002099450D01*
X0002960876Y0002099409D01*
X0002943651Y0002099409D01*
X0002942807Y0002099450D01*
X0002941971Y0002099574D01*
X0002941151Y0002099780D01*
X0002940355Y0002100064D01*
X0002939591Y0002100426D01*
X0002938866Y0002100860D01*
X0002938188Y0002101364D01*
X0002937561Y0002101931D01*
X0002936994Y0002102557D01*
X0002936490Y0002103236D01*
X0002936056Y0002103961D01*
X0002935694Y0002104725D01*
X0002935410Y0002105521D01*
X0002935204Y0002106341D01*
X0002935080Y0002107177D01*
X0002935039Y0002108021D01*
X0002935039Y0002128198D01*
X0002935080Y0002129042D01*
X0002935204Y0002129878D01*
X0002935410Y0002130698D01*
X0002935694Y0002131494D01*
X0002936056Y0002132258D01*
X0002936490Y0002132983D01*
X0002936994Y0002133662D01*
X0002937561Y0002134288D01*
X0002938188Y0002134855D01*
X0002938866Y0002135359D01*
X0002939591Y0002135793D01*
X0002940355Y0002136155D01*
X0002941151Y0002136439D01*
X0002941971Y0002136645D01*
X0002942807Y0002136769D01*
X0002943651Y0002136810D01*
X0002960876Y0002136810D01*
X0002961720Y0002136769D01*
X0002961720Y0002136769D01*
G37*
D30*
X0002952263Y0002118109D03*
D29*
G36*
X0002899712Y0002136769D02*
X0002900548Y0002136645D01*
X0002901368Y0002136439D01*
X0002902163Y0002136155D01*
X0002902927Y0002135793D01*
X0002903652Y0002135359D01*
X0002904331Y0002134855D01*
X0002904957Y0002134288D01*
X0002905525Y0002133662D01*
X0002906028Y0002132983D01*
X0002906463Y0002132258D01*
X0002906824Y0002131494D01*
X0002907109Y0002130698D01*
X0002907314Y0002129878D01*
X0002907438Y0002129042D01*
X0002907480Y0002128198D01*
X0002907480Y0002108021D01*
X0002907438Y0002107177D01*
X0002907314Y0002106341D01*
X0002907109Y0002105521D01*
X0002906824Y0002104725D01*
X0002906463Y0002103961D01*
X0002906028Y0002103236D01*
X0002905525Y0002102557D01*
X0002904957Y0002101931D01*
X0002904331Y0002101364D01*
X0002903652Y0002100860D01*
X0002902927Y0002100426D01*
X0002902163Y0002100064D01*
X0002901368Y0002099780D01*
X0002900548Y0002099574D01*
X0002899712Y0002099450D01*
X0002898868Y0002099409D01*
X0002881643Y0002099409D01*
X0002880799Y0002099450D01*
X0002879963Y0002099574D01*
X0002879143Y0002099780D01*
X0002878347Y0002100064D01*
X0002877583Y0002100426D01*
X0002876859Y0002100860D01*
X0002876180Y0002101364D01*
X0002875553Y0002101931D01*
X0002874986Y0002102557D01*
X0002874482Y0002103236D01*
X0002874048Y0002103961D01*
X0002873687Y0002104725D01*
X0002873402Y0002105521D01*
X0002873197Y0002106341D01*
X0002873072Y0002107177D01*
X0002873031Y0002108021D01*
X0002873031Y0002128198D01*
X0002873072Y0002129042D01*
X0002873197Y0002129878D01*
X0002873402Y0002130698D01*
X0002873687Y0002131494D01*
X0002874048Y0002132258D01*
X0002874482Y0002132983D01*
X0002874986Y0002133662D01*
X0002875553Y0002134288D01*
X0002876180Y0002134855D01*
X0002876859Y0002135359D01*
X0002877583Y0002135793D01*
X0002878347Y0002136155D01*
X0002879143Y0002136439D01*
X0002879963Y0002136645D01*
X0002880799Y0002136769D01*
X0002881643Y0002136810D01*
X0002898868Y0002136810D01*
X0002899712Y0002136769D01*
X0002899712Y0002136769D01*
G37*
D30*
X0002890255Y0002118109D03*
G04 #@! TD*
D29*
G04 #@! TO.C,R4*
G36*
X0002899712Y0002313934D02*
X0002900548Y0002313810D01*
X0002901368Y0002313605D01*
X0002902163Y0002313320D01*
X0002902927Y0002312959D01*
X0002903652Y0002312524D01*
X0002904331Y0002312021D01*
X0002904957Y0002311453D01*
X0002905525Y0002310827D01*
X0002906028Y0002310148D01*
X0002906463Y0002309423D01*
X0002906824Y0002308659D01*
X0002907109Y0002307863D01*
X0002907314Y0002307044D01*
X0002907438Y0002306208D01*
X0002907480Y0002305363D01*
X0002907480Y0002285186D01*
X0002907438Y0002284342D01*
X0002907314Y0002283506D01*
X0002907109Y0002282686D01*
X0002906824Y0002281890D01*
X0002906463Y0002281126D01*
X0002906028Y0002280402D01*
X0002905525Y0002279723D01*
X0002904957Y0002279096D01*
X0002904331Y0002278529D01*
X0002903652Y0002278025D01*
X0002902927Y0002277591D01*
X0002902163Y0002277230D01*
X0002901368Y0002276945D01*
X0002900548Y0002276740D01*
X0002899712Y0002276615D01*
X0002898868Y0002276574D01*
X0002881643Y0002276574D01*
X0002880799Y0002276615D01*
X0002879963Y0002276740D01*
X0002879143Y0002276945D01*
X0002878347Y0002277230D01*
X0002877583Y0002277591D01*
X0002876859Y0002278025D01*
X0002876180Y0002278529D01*
X0002875553Y0002279096D01*
X0002874986Y0002279723D01*
X0002874482Y0002280402D01*
X0002874048Y0002281126D01*
X0002873687Y0002281890D01*
X0002873402Y0002282686D01*
X0002873197Y0002283506D01*
X0002873072Y0002284342D01*
X0002873031Y0002285186D01*
X0002873031Y0002305363D01*
X0002873072Y0002306208D01*
X0002873197Y0002307044D01*
X0002873402Y0002307863D01*
X0002873687Y0002308659D01*
X0002874048Y0002309423D01*
X0002874482Y0002310148D01*
X0002874986Y0002310827D01*
X0002875553Y0002311453D01*
X0002876180Y0002312021D01*
X0002876859Y0002312524D01*
X0002877583Y0002312959D01*
X0002878347Y0002313320D01*
X0002879143Y0002313605D01*
X0002879963Y0002313810D01*
X0002880799Y0002313934D01*
X0002881643Y0002313976D01*
X0002898868Y0002313976D01*
X0002899712Y0002313934D01*
X0002899712Y0002313934D01*
G37*
D30*
X0002890255Y0002295275D03*
D29*
G36*
X0002961720Y0002313934D02*
X0002962556Y0002313810D01*
X0002963376Y0002313605D01*
X0002964171Y0002313320D01*
X0002964935Y0002312959D01*
X0002965660Y0002312524D01*
X0002966339Y0002312021D01*
X0002966965Y0002311453D01*
X0002967533Y0002310827D01*
X0002968036Y0002310148D01*
X0002968471Y0002309423D01*
X0002968832Y0002308659D01*
X0002969117Y0002307863D01*
X0002969322Y0002307044D01*
X0002969446Y0002306208D01*
X0002969488Y0002305363D01*
X0002969488Y0002285186D01*
X0002969446Y0002284342D01*
X0002969322Y0002283506D01*
X0002969117Y0002282686D01*
X0002968832Y0002281890D01*
X0002968471Y0002281126D01*
X0002968036Y0002280402D01*
X0002967533Y0002279723D01*
X0002966965Y0002279096D01*
X0002966339Y0002278529D01*
X0002965660Y0002278025D01*
X0002964935Y0002277591D01*
X0002964171Y0002277230D01*
X0002963376Y0002276945D01*
X0002962556Y0002276740D01*
X0002961720Y0002276615D01*
X0002960876Y0002276574D01*
X0002943651Y0002276574D01*
X0002942807Y0002276615D01*
X0002941971Y0002276740D01*
X0002941151Y0002276945D01*
X0002940355Y0002277230D01*
X0002939591Y0002277591D01*
X0002938866Y0002278025D01*
X0002938188Y0002278529D01*
X0002937561Y0002279096D01*
X0002936994Y0002279723D01*
X0002936490Y0002280402D01*
X0002936056Y0002281126D01*
X0002935694Y0002281890D01*
X0002935410Y0002282686D01*
X0002935204Y0002283506D01*
X0002935080Y0002284342D01*
X0002935039Y0002285186D01*
X0002935039Y0002305363D01*
X0002935080Y0002306208D01*
X0002935204Y0002307044D01*
X0002935410Y0002307863D01*
X0002935694Y0002308659D01*
X0002936056Y0002309423D01*
X0002936490Y0002310148D01*
X0002936994Y0002310827D01*
X0002937561Y0002311453D01*
X0002938188Y0002312021D01*
X0002938866Y0002312524D01*
X0002939591Y0002312959D01*
X0002940355Y0002313320D01*
X0002941151Y0002313605D01*
X0002941971Y0002313810D01*
X0002942807Y0002313934D01*
X0002943651Y0002313976D01*
X0002960876Y0002313976D01*
X0002961720Y0002313934D01*
X0002961720Y0002313934D01*
G37*
D30*
X0002952263Y0002295275D03*
G04 #@! TD*
D29*
G04 #@! TO.C,R5*
G36*
X0002899712Y0002372989D02*
X0002900548Y0002372865D01*
X0002901368Y0002372660D01*
X0002902163Y0002372375D01*
X0002902927Y0002372014D01*
X0002903652Y0002371579D01*
X0002904331Y0002371076D01*
X0002904957Y0002370508D01*
X0002905525Y0002369882D01*
X0002906028Y0002369203D01*
X0002906463Y0002368478D01*
X0002906824Y0002367714D01*
X0002907109Y0002366919D01*
X0002907314Y0002366099D01*
X0002907438Y0002365263D01*
X0002907480Y0002364419D01*
X0002907480Y0002344241D01*
X0002907438Y0002343397D01*
X0002907314Y0002342561D01*
X0002907109Y0002341741D01*
X0002906824Y0002340946D01*
X0002906463Y0002340182D01*
X0002906028Y0002339457D01*
X0002905525Y0002338778D01*
X0002904957Y0002338152D01*
X0002904331Y0002337584D01*
X0002903652Y0002337081D01*
X0002902927Y0002336646D01*
X0002902163Y0002336285D01*
X0002901368Y0002336000D01*
X0002900548Y0002335795D01*
X0002899712Y0002335671D01*
X0002898868Y0002335629D01*
X0002881643Y0002335629D01*
X0002880799Y0002335671D01*
X0002879963Y0002335795D01*
X0002879143Y0002336000D01*
X0002878347Y0002336285D01*
X0002877583Y0002336646D01*
X0002876859Y0002337081D01*
X0002876180Y0002337584D01*
X0002875553Y0002338152D01*
X0002874986Y0002338778D01*
X0002874482Y0002339457D01*
X0002874048Y0002340182D01*
X0002873687Y0002340946D01*
X0002873402Y0002341741D01*
X0002873197Y0002342561D01*
X0002873072Y0002343397D01*
X0002873031Y0002344241D01*
X0002873031Y0002364419D01*
X0002873072Y0002365263D01*
X0002873197Y0002366099D01*
X0002873402Y0002366919D01*
X0002873687Y0002367714D01*
X0002874048Y0002368478D01*
X0002874482Y0002369203D01*
X0002874986Y0002369882D01*
X0002875553Y0002370508D01*
X0002876180Y0002371076D01*
X0002876859Y0002371579D01*
X0002877583Y0002372014D01*
X0002878347Y0002372375D01*
X0002879143Y0002372660D01*
X0002879963Y0002372865D01*
X0002880799Y0002372989D01*
X0002881643Y0002373031D01*
X0002898868Y0002373031D01*
X0002899712Y0002372989D01*
X0002899712Y0002372989D01*
G37*
D30*
X0002890255Y0002354330D03*
D29*
G36*
X0002961720Y0002372989D02*
X0002962556Y0002372865D01*
X0002963376Y0002372660D01*
X0002964171Y0002372375D01*
X0002964935Y0002372014D01*
X0002965660Y0002371579D01*
X0002966339Y0002371076D01*
X0002966965Y0002370508D01*
X0002967533Y0002369882D01*
X0002968036Y0002369203D01*
X0002968471Y0002368478D01*
X0002968832Y0002367714D01*
X0002969117Y0002366919D01*
X0002969322Y0002366099D01*
X0002969446Y0002365263D01*
X0002969488Y0002364419D01*
X0002969488Y0002344241D01*
X0002969446Y0002343397D01*
X0002969322Y0002342561D01*
X0002969117Y0002341741D01*
X0002968832Y0002340946D01*
X0002968471Y0002340182D01*
X0002968036Y0002339457D01*
X0002967533Y0002338778D01*
X0002966965Y0002338152D01*
X0002966339Y0002337584D01*
X0002965660Y0002337081D01*
X0002964935Y0002336646D01*
X0002964171Y0002336285D01*
X0002963376Y0002336000D01*
X0002962556Y0002335795D01*
X0002961720Y0002335671D01*
X0002960876Y0002335629D01*
X0002943651Y0002335629D01*
X0002942807Y0002335671D01*
X0002941971Y0002335795D01*
X0002941151Y0002336000D01*
X0002940355Y0002336285D01*
X0002939591Y0002336646D01*
X0002938866Y0002337081D01*
X0002938188Y0002337584D01*
X0002937561Y0002338152D01*
X0002936994Y0002338778D01*
X0002936490Y0002339457D01*
X0002936056Y0002340182D01*
X0002935694Y0002340946D01*
X0002935410Y0002341741D01*
X0002935204Y0002342561D01*
X0002935080Y0002343397D01*
X0002935039Y0002344241D01*
X0002935039Y0002364419D01*
X0002935080Y0002365263D01*
X0002935204Y0002366099D01*
X0002935410Y0002366919D01*
X0002935694Y0002367714D01*
X0002936056Y0002368478D01*
X0002936490Y0002369203D01*
X0002936994Y0002369882D01*
X0002937561Y0002370508D01*
X0002938188Y0002371076D01*
X0002938866Y0002371579D01*
X0002939591Y0002372014D01*
X0002940355Y0002372375D01*
X0002941151Y0002372660D01*
X0002941971Y0002372865D01*
X0002942807Y0002372989D01*
X0002943651Y0002373031D01*
X0002960876Y0002373031D01*
X0002961720Y0002372989D01*
X0002961720Y0002372989D01*
G37*
D30*
X0002952263Y0002354330D03*
G04 #@! TD*
D31*
G04 #@! TO.C,U1*
X0002574606Y0002322834D03*
X0002624606Y0002322834D03*
X0002674606Y0002322834D03*
X0002724606Y0002322834D03*
X0002724606Y0002110235D03*
X0002674606Y0002110235D03*
X0002624606Y0002110235D03*
X0002574606Y0002110235D03*
G04 #@! TD*
M02*