%MOIN*%
%OFA0B0*%
%FSLAX46Y46*%
%IPPOS*%
%LPD*%
%ADD10C,0.0039370078740157488*%
%ADD21C,0.0039370078740157488*%
%ADD22C,0.0039370078740157488*%
%ADD23C,0.0039370078740157488*%
G01*
D10*
G36*
X0000604173Y0000093464D02*
X0000576535Y0000093464D01*
X0000576535Y0000158503D01*
X0000604173Y0000158503D01*
X0000604173Y0000093464D01*
X0000604173Y0000093464D01*
G37*
G36*
X0000654173Y0000093464D02*
X0000626535Y0000093464D01*
X0000626535Y0000158503D01*
X0000654173Y0000158503D01*
X0000654173Y0000093464D01*
X0000654173Y0000093464D01*
G37*
G36*
X0000754173Y0000093464D02*
X0000726535Y0000093464D01*
X0000726535Y0000158503D01*
X0000754173Y0000158503D01*
X0000754173Y0000093464D01*
X0000754173Y0000093464D01*
G37*
G36*
X0000704173Y0000093464D02*
X0000676535Y0000093464D01*
X0000676535Y0000158503D01*
X0000704173Y0000158503D01*
X0000704173Y0000093464D01*
X0000704173Y0000093464D01*
G37*
G36*
X0001618521Y0000171436D02*
X0001621127Y0000171179D01*
X0001625584Y0000169827D01*
X0001627813Y0000169151D01*
X0001628548Y0000168758D01*
X0001633976Y0000165857D01*
X0001635382Y0000164702D01*
X0001639377Y0000161424D01*
X0001642655Y0000157430D01*
X0001643810Y0000156023D01*
X0001643810Y0000156023D01*
X0001647104Y0000149860D01*
X0001647618Y0000148164D01*
X0001649132Y0000143174D01*
X0001649817Y0000136220D01*
X0001649132Y0000129266D01*
X0001647984Y0000125481D01*
X0001647104Y0000122580D01*
X0001645236Y0000119085D01*
X0001643810Y0000116417D01*
X0001642655Y0000115010D01*
X0001639377Y0000111016D01*
X0001635382Y0000107738D01*
X0001633976Y0000106583D01*
X0001633975Y0000106583D01*
X0001627813Y0000103289D01*
X0001625584Y0000102613D01*
X0001621127Y0000101261D01*
X0001618521Y0000101004D01*
X0001615915Y0000100747D01*
X0001612430Y0000100747D01*
X0001609825Y0000101004D01*
X0001607219Y0000101261D01*
X0001602761Y0000102613D01*
X0001600532Y0000103289D01*
X0001594370Y0000106583D01*
X0001594370Y0000106583D01*
X0001592963Y0000107738D01*
X0001588969Y0000111016D01*
X0001585691Y0000115010D01*
X0001584536Y0000116417D01*
X0001583110Y0000119085D01*
X0001581242Y0000122580D01*
X0001580362Y0000125481D01*
X0001579214Y0000129266D01*
X0001578529Y0000136220D01*
X0001579214Y0000143174D01*
X0001580727Y0000148164D01*
X0001581242Y0000149860D01*
X0001584536Y0000156023D01*
X0001584536Y0000156023D01*
X0001585691Y0000157430D01*
X0001588969Y0000161424D01*
X0001592963Y0000164702D01*
X0001594370Y0000165857D01*
X0001599797Y0000168758D01*
X0001600532Y0000169151D01*
X0001602761Y0000169827D01*
X0001607219Y0000171179D01*
X0001609825Y0000171436D01*
X0001612430Y0000171692D01*
X0001615915Y0000171692D01*
X0001618521Y0000171436D01*
X0001618521Y0000171436D01*
G37*
G36*
X0001718521Y0000171436D02*
X0001721127Y0000171179D01*
X0001725584Y0000169827D01*
X0001727813Y0000169151D01*
X0001728548Y0000168758D01*
X0001733976Y0000165857D01*
X0001735383Y0000164702D01*
X0001739377Y0000161424D01*
X0001742655Y0000157430D01*
X0001743810Y0000156023D01*
X0001743810Y0000156023D01*
X0001747104Y0000149860D01*
X0001747618Y0000148164D01*
X0001749132Y0000143174D01*
X0001749817Y0000136220D01*
X0001749132Y0000129266D01*
X0001747984Y0000125481D01*
X0001747104Y0000122580D01*
X0001745236Y0000119085D01*
X0001743810Y0000116417D01*
X0001742655Y0000115010D01*
X0001739377Y0000111016D01*
X0001735383Y0000107738D01*
X0001733976Y0000106583D01*
X0001733975Y0000106583D01*
X0001727813Y0000103289D01*
X0001725584Y0000102613D01*
X0001721127Y0000101261D01*
X0001718521Y0000101004D01*
X0001715915Y0000100747D01*
X0001712430Y0000100747D01*
X0001709825Y0000101004D01*
X0001707219Y0000101261D01*
X0001702761Y0000102613D01*
X0001700532Y0000103289D01*
X0001694370Y0000106583D01*
X0001694370Y0000106583D01*
X0001692963Y0000107738D01*
X0001688969Y0000111016D01*
X0001685691Y0000115010D01*
X0001684536Y0000116417D01*
X0001683110Y0000119085D01*
X0001681242Y0000122580D01*
X0001680362Y0000125481D01*
X0001679214Y0000129266D01*
X0001678529Y0000136220D01*
X0001679214Y0000143174D01*
X0001680727Y0000148164D01*
X0001681242Y0000149860D01*
X0001684536Y0000156023D01*
X0001684536Y0000156023D01*
X0001685691Y0000157430D01*
X0001688969Y0000161424D01*
X0001692963Y0000164702D01*
X0001694370Y0000165857D01*
X0001699797Y0000168758D01*
X0001700532Y0000169151D01*
X0001702761Y0000169827D01*
X0001707219Y0000171179D01*
X0001709825Y0000171436D01*
X0001712430Y0000171692D01*
X0001715915Y0000171692D01*
X0001718521Y0000171436D01*
X0001718521Y0000171436D01*
G37*
G36*
X0000981479Y0000154406D02*
X0000982817Y0000154000D01*
X0000984050Y0000153341D01*
X0000985131Y0000152454D01*
X0000986018Y0000151373D01*
X0000986677Y0000150140D01*
X0000987083Y0000148802D01*
X0000987244Y0000147169D01*
X0000987244Y0000120546D01*
X0000987083Y0000118913D01*
X0000986677Y0000117575D01*
X0000986018Y0000116342D01*
X0000985131Y0000115262D01*
X0000984050Y0000114375D01*
X0000982817Y0000113716D01*
X0000981479Y0000113310D01*
X0000979846Y0000113149D01*
X0000956176Y0000113149D01*
X0000954543Y0000113310D01*
X0000953205Y0000113716D01*
X0000951972Y0000114375D01*
X0000950892Y0000115262D01*
X0000950005Y0000116342D01*
X0000949346Y0000117575D01*
X0000948940Y0000118913D01*
X0000948779Y0000120546D01*
X0000948779Y0000147169D01*
X0000948940Y0000148802D01*
X0000949346Y0000150140D01*
X0000950005Y0000151373D01*
X0000950892Y0000152454D01*
X0000951972Y0000153341D01*
X0000953205Y0000154000D01*
X0000954543Y0000154406D01*
X0000956176Y0000154566D01*
X0000979846Y0000154566D01*
X0000981479Y0000154406D01*
X0000981479Y0000154406D01*
G37*
G36*
X0000919472Y0000154406D02*
X0000920809Y0000154000D01*
X0000922042Y0000153341D01*
X0000923123Y0000152454D01*
X0000924010Y0000151373D01*
X0000924669Y0000150140D01*
X0000925075Y0000148802D01*
X0000925236Y0000147169D01*
X0000925236Y0000120546D01*
X0000925075Y0000118913D01*
X0000924669Y0000117575D01*
X0000924010Y0000116342D01*
X0000923123Y0000115262D01*
X0000922042Y0000114375D01*
X0000920809Y0000113716D01*
X0000919472Y0000113310D01*
X0000917838Y0000113149D01*
X0000894168Y0000113149D01*
X0000892535Y0000113310D01*
X0000891198Y0000113716D01*
X0000889965Y0000114375D01*
X0000888884Y0000115262D01*
X0000887997Y0000116342D01*
X0000887338Y0000117575D01*
X0000886932Y0000118913D01*
X0000886771Y0000120546D01*
X0000886771Y0000147169D01*
X0000886932Y0000148802D01*
X0000887338Y0000150140D01*
X0000887997Y0000151373D01*
X0000888884Y0000152454D01*
X0000889965Y0000153341D01*
X0000891198Y0000154000D01*
X0000892535Y0000154406D01*
X0000894168Y0000154566D01*
X0000917838Y0000154566D01*
X0000919472Y0000154406D01*
X0000919472Y0000154406D01*
G37*
G36*
X0000197261Y0000190333D02*
X0000199867Y0000190077D01*
X0000204324Y0000188725D01*
X0000206553Y0000188048D01*
X0000212011Y0000185131D01*
X0000212716Y0000184755D01*
X0000214123Y0000183600D01*
X0000218117Y0000180322D01*
X0000221272Y0000176478D01*
X0000222550Y0000174920D01*
X0000222550Y0000174920D01*
X0000225844Y0000168758D01*
X0000225844Y0000168758D01*
X0000227872Y0000162071D01*
X0000228557Y0000155118D01*
X0000227872Y0000148164D01*
X0000226897Y0000144950D01*
X0000225844Y0000141477D01*
X0000223034Y0000136220D01*
X0000222550Y0000135315D01*
X0000221395Y0000133908D01*
X0000218117Y0000129913D01*
X0000214123Y0000126635D01*
X0000212716Y0000125481D01*
X0000212716Y0000125481D01*
X0000206553Y0000122187D01*
X0000204324Y0000121511D01*
X0000199867Y0000120158D01*
X0000197261Y0000119902D01*
X0000194655Y0000119645D01*
X0000191170Y0000119645D01*
X0000188565Y0000119902D01*
X0000185959Y0000120158D01*
X0000181501Y0000121511D01*
X0000179272Y0000122187D01*
X0000173110Y0000125481D01*
X0000173110Y0000125481D01*
X0000171703Y0000126635D01*
X0000167709Y0000129913D01*
X0000164431Y0000133908D01*
X0000163276Y0000135315D01*
X0000162792Y0000136220D01*
X0000159982Y0000141477D01*
X0000158929Y0000144950D01*
X0000157954Y0000148164D01*
X0000157269Y0000155118D01*
X0000157954Y0000162071D01*
X0000159982Y0000168758D01*
X0000159982Y0000168758D01*
X0000163276Y0000174920D01*
X0000163276Y0000174920D01*
X0000164554Y0000176478D01*
X0000167709Y0000180322D01*
X0000171703Y0000183600D01*
X0000173110Y0000184755D01*
X0000173815Y0000185131D01*
X0000179272Y0000188048D01*
X0000181501Y0000188725D01*
X0000185959Y0000190077D01*
X0000188565Y0000190333D01*
X0000191170Y0000190590D01*
X0000194655Y0000190590D01*
X0000197261Y0000190333D01*
X0000197261Y0000190333D01*
G37*
G36*
X0000981479Y0000213461D02*
X0000982817Y0000213055D01*
X0000984050Y0000212396D01*
X0000985131Y0000211509D01*
X0000986018Y0000210428D01*
X0000986677Y0000209195D01*
X0000987083Y0000207857D01*
X0000987244Y0000206224D01*
X0000987244Y0000179601D01*
X0000987083Y0000177968D01*
X0000986677Y0000176631D01*
X0000986018Y0000175398D01*
X0000985131Y0000174317D01*
X0000984050Y0000173430D01*
X0000982817Y0000172771D01*
X0000981479Y0000172365D01*
X0000979846Y0000172204D01*
X0000956176Y0000172204D01*
X0000954543Y0000172365D01*
X0000953205Y0000172771D01*
X0000951972Y0000173430D01*
X0000950892Y0000174317D01*
X0000950005Y0000175398D01*
X0000949346Y0000176631D01*
X0000948940Y0000177968D01*
X0000948779Y0000179601D01*
X0000948779Y0000206224D01*
X0000948940Y0000207857D01*
X0000949346Y0000209195D01*
X0000950005Y0000210428D01*
X0000950892Y0000211509D01*
X0000951972Y0000212396D01*
X0000953205Y0000213055D01*
X0000954543Y0000213461D01*
X0000956176Y0000213622D01*
X0000979846Y0000213622D01*
X0000981479Y0000213461D01*
X0000981479Y0000213461D01*
G37*
G36*
X0000919472Y0000213461D02*
X0000920809Y0000213055D01*
X0000922042Y0000212396D01*
X0000923123Y0000211509D01*
X0000924010Y0000210428D01*
X0000924669Y0000209195D01*
X0000925075Y0000207857D01*
X0000925236Y0000206224D01*
X0000925236Y0000179601D01*
X0000925075Y0000177968D01*
X0000924669Y0000176631D01*
X0000924010Y0000175398D01*
X0000923123Y0000174317D01*
X0000922042Y0000173430D01*
X0000920809Y0000172771D01*
X0000919472Y0000172365D01*
X0000917838Y0000172204D01*
X0000894168Y0000172204D01*
X0000892535Y0000172365D01*
X0000891198Y0000172771D01*
X0000889965Y0000173430D01*
X0000888884Y0000174317D01*
X0000887997Y0000175398D01*
X0000887338Y0000176631D01*
X0000886932Y0000177968D01*
X0000886771Y0000179601D01*
X0000886771Y0000206224D01*
X0000886932Y0000207857D01*
X0000887338Y0000209195D01*
X0000887997Y0000210428D01*
X0000888884Y0000211509D01*
X0000889965Y0000212396D01*
X0000891198Y0000213055D01*
X0000892535Y0000213461D01*
X0000894168Y0000213622D01*
X0000917838Y0000213622D01*
X0000919472Y0000213461D01*
X0000919472Y0000213461D01*
G37*
G36*
X0001718521Y0000271436D02*
X0001721127Y0000271179D01*
X0001725584Y0000269827D01*
X0001727813Y0000269151D01*
X0001731497Y0000267182D01*
X0001733976Y0000265857D01*
X0001735097Y0000264937D01*
X0001739377Y0000261424D01*
X0001742655Y0000257430D01*
X0001743810Y0000256023D01*
X0001743810Y0000256023D01*
X0001747104Y0000249860D01*
X0001747618Y0000248164D01*
X0001749132Y0000243174D01*
X0001749817Y0000236220D01*
X0001749132Y0000229266D01*
X0001747984Y0000225481D01*
X0001747104Y0000222580D01*
X0001744186Y0000217122D01*
X0001743810Y0000216417D01*
X0001742655Y0000215010D01*
X0001739377Y0000211016D01*
X0001735383Y0000207738D01*
X0001733976Y0000206583D01*
X0001733975Y0000206583D01*
X0001727813Y0000203289D01*
X0001725584Y0000202613D01*
X0001721127Y0000201261D01*
X0001718521Y0000201004D01*
X0001715915Y0000200748D01*
X0001712430Y0000200748D01*
X0001709825Y0000201004D01*
X0001707219Y0000201261D01*
X0001702761Y0000202613D01*
X0001700532Y0000203289D01*
X0001694370Y0000206583D01*
X0001694370Y0000206583D01*
X0001692963Y0000207738D01*
X0001688969Y0000211016D01*
X0001685691Y0000215010D01*
X0001684536Y0000216417D01*
X0001684159Y0000217122D01*
X0001681242Y0000222580D01*
X0001680362Y0000225481D01*
X0001679214Y0000229266D01*
X0001678529Y0000236220D01*
X0001679214Y0000243174D01*
X0001680727Y0000248164D01*
X0001681242Y0000249860D01*
X0001684536Y0000256023D01*
X0001684536Y0000256023D01*
X0001685691Y0000257430D01*
X0001688969Y0000261424D01*
X0001693248Y0000264937D01*
X0001694370Y0000265857D01*
X0001696849Y0000267182D01*
X0001700532Y0000269151D01*
X0001702761Y0000269827D01*
X0001707219Y0000271179D01*
X0001709825Y0000271436D01*
X0001712430Y0000271692D01*
X0001715915Y0000271692D01*
X0001718521Y0000271436D01*
X0001718521Y0000271436D01*
G37*
G36*
X0001649645Y0000200748D02*
X0001578700Y0000200748D01*
X0001578700Y0000271692D01*
X0001649645Y0000271692D01*
X0001649645Y0000200748D01*
X0001649645Y0000200748D01*
G37*
G36*
X0000197261Y0000290333D02*
X0000199867Y0000290077D01*
X0000204324Y0000288725D01*
X0000206553Y0000288048D01*
X0000212011Y0000285131D01*
X0000212716Y0000284755D01*
X0000214123Y0000283600D01*
X0000218117Y0000280322D01*
X0000221395Y0000276327D01*
X0000222550Y0000274920D01*
X0000222550Y0000274920D01*
X0000225844Y0000268758D01*
X0000226368Y0000267029D01*
X0000227872Y0000262071D01*
X0000228557Y0000255118D01*
X0000227872Y0000248164D01*
X0000226520Y0000243706D01*
X0000225844Y0000241477D01*
X0000224336Y0000238657D01*
X0000222550Y0000235315D01*
X0000221842Y0000234453D01*
X0000218117Y0000229913D01*
X0000214123Y0000226635D01*
X0000212716Y0000225481D01*
X0000212716Y0000225481D01*
X0000206553Y0000222187D01*
X0000204324Y0000221511D01*
X0000199867Y0000220158D01*
X0000197261Y0000219902D01*
X0000194655Y0000219645D01*
X0000191170Y0000219645D01*
X0000188565Y0000219902D01*
X0000185959Y0000220158D01*
X0000181501Y0000221511D01*
X0000179272Y0000222187D01*
X0000173110Y0000225481D01*
X0000173110Y0000225481D01*
X0000171703Y0000226635D01*
X0000167709Y0000229913D01*
X0000163983Y0000234453D01*
X0000163276Y0000235315D01*
X0000161490Y0000238657D01*
X0000159982Y0000241477D01*
X0000159306Y0000243706D01*
X0000157954Y0000248164D01*
X0000157269Y0000255118D01*
X0000157954Y0000262071D01*
X0000159458Y0000267029D01*
X0000159982Y0000268758D01*
X0000163276Y0000274920D01*
X0000163276Y0000274920D01*
X0000164431Y0000276327D01*
X0000167709Y0000280322D01*
X0000171703Y0000283600D01*
X0000173110Y0000284755D01*
X0000173815Y0000285131D01*
X0000179272Y0000288048D01*
X0000181501Y0000288725D01*
X0000185959Y0000290077D01*
X0000188565Y0000290333D01*
X0000191170Y0000290590D01*
X0000194655Y0000290590D01*
X0000197261Y0000290333D01*
X0000197261Y0000290333D01*
G37*
G36*
X0000919964Y0000272516D02*
X0000921301Y0000272110D01*
X0000922534Y0000271451D01*
X0000923615Y0000270564D01*
X0000924502Y0000269483D01*
X0000925161Y0000268250D01*
X0000925567Y0000266912D01*
X0000925728Y0000265279D01*
X0000925728Y0000238657D01*
X0000925567Y0000237023D01*
X0000925161Y0000235686D01*
X0000924502Y0000234453D01*
X0000923615Y0000233372D01*
X0000922534Y0000232485D01*
X0000921301Y0000231826D01*
X0000919964Y0000231420D01*
X0000918331Y0000231259D01*
X0000894661Y0000231259D01*
X0000893027Y0000231420D01*
X0000891690Y0000231826D01*
X0000890457Y0000232485D01*
X0000889376Y0000233372D01*
X0000888489Y0000234453D01*
X0000887830Y0000235686D01*
X0000887424Y0000237023D01*
X0000887263Y0000238657D01*
X0000887263Y0000265279D01*
X0000887424Y0000266912D01*
X0000887830Y0000268250D01*
X0000888489Y0000269483D01*
X0000889376Y0000270564D01*
X0000890457Y0000271451D01*
X0000891690Y0000272110D01*
X0000893027Y0000272516D01*
X0000894661Y0000272677D01*
X0000918331Y0000272677D01*
X0000919964Y0000272516D01*
X0000919964Y0000272516D01*
G37*
G36*
X0000981972Y0000272516D02*
X0000983309Y0000272110D01*
X0000984542Y0000271451D01*
X0000985623Y0000270564D01*
X0000986510Y0000269483D01*
X0000987169Y0000268250D01*
X0000987575Y0000266912D01*
X0000987736Y0000265279D01*
X0000987736Y0000238657D01*
X0000987575Y0000237023D01*
X0000987169Y0000235686D01*
X0000986510Y0000234453D01*
X0000985623Y0000233372D01*
X0000984542Y0000232485D01*
X0000983309Y0000231826D01*
X0000981972Y0000231420D01*
X0000980338Y0000231259D01*
X0000956668Y0000231259D01*
X0000955035Y0000231420D01*
X0000953698Y0000231826D01*
X0000952465Y0000232485D01*
X0000951384Y0000233372D01*
X0000950497Y0000234453D01*
X0000949838Y0000235686D01*
X0000949432Y0000237023D01*
X0000949271Y0000238657D01*
X0000949271Y0000265279D01*
X0000949432Y0000266912D01*
X0000949838Y0000268250D01*
X0000950497Y0000269483D01*
X0000951384Y0000270564D01*
X0000952465Y0000271451D01*
X0000953698Y0000272110D01*
X0000955035Y0000272516D01*
X0000956668Y0000272677D01*
X0000980338Y0000272677D01*
X0000981972Y0000272516D01*
X0000981972Y0000272516D01*
G37*
G36*
X0000536598Y0000304012D02*
X0000537935Y0000303606D01*
X0000539168Y0000302947D01*
X0000540249Y0000302060D01*
X0000541136Y0000300979D01*
X0000541795Y0000299746D01*
X0000542201Y0000298409D01*
X0000542362Y0000296775D01*
X0000542362Y0000270153D01*
X0000542201Y0000268520D01*
X0000541795Y0000267182D01*
X0000541136Y0000265949D01*
X0000540249Y0000264868D01*
X0000539168Y0000263981D01*
X0000537935Y0000263322D01*
X0000536598Y0000262916D01*
X0000534964Y0000262755D01*
X0000511294Y0000262755D01*
X0000509661Y0000262916D01*
X0000508324Y0000263322D01*
X0000507091Y0000263981D01*
X0000506010Y0000264868D01*
X0000505123Y0000265949D01*
X0000504464Y0000267182D01*
X0000504058Y0000268520D01*
X0000503897Y0000270153D01*
X0000503897Y0000296775D01*
X0000504058Y0000298409D01*
X0000504464Y0000299746D01*
X0000505123Y0000300979D01*
X0000506010Y0000302060D01*
X0000507091Y0000302947D01*
X0000508324Y0000303606D01*
X0000509661Y0000304012D01*
X0000511294Y0000304173D01*
X0000534964Y0000304173D01*
X0000536598Y0000304012D01*
X0000536598Y0000304012D01*
G37*
G36*
X0000474590Y0000304012D02*
X0000475927Y0000303606D01*
X0000477160Y0000302947D01*
X0000478241Y0000302060D01*
X0000479128Y0000300979D01*
X0000479787Y0000299746D01*
X0000480193Y0000298409D01*
X0000480354Y0000296775D01*
X0000480354Y0000270153D01*
X0000480193Y0000268520D01*
X0000479787Y0000267182D01*
X0000479128Y0000265949D01*
X0000478241Y0000264868D01*
X0000477160Y0000263981D01*
X0000475927Y0000263322D01*
X0000474590Y0000262916D01*
X0000472957Y0000262755D01*
X0000449287Y0000262755D01*
X0000447653Y0000262916D01*
X0000446316Y0000263322D01*
X0000445083Y0000263981D01*
X0000444002Y0000264868D01*
X0000443115Y0000265949D01*
X0000442456Y0000267182D01*
X0000442050Y0000268520D01*
X0000441889Y0000270153D01*
X0000441889Y0000296775D01*
X0000442050Y0000298409D01*
X0000442456Y0000299746D01*
X0000443115Y0000300979D01*
X0000444002Y0000302060D01*
X0000445083Y0000302947D01*
X0000446316Y0000303606D01*
X0000447653Y0000304012D01*
X0000449287Y0000304173D01*
X0000472957Y0000304173D01*
X0000474590Y0000304012D01*
X0000474590Y0000304012D01*
G37*
G36*
X0000919472Y0000331571D02*
X0000920809Y0000331165D01*
X0000922042Y0000330506D01*
X0000923123Y0000329619D01*
X0000924010Y0000328538D01*
X0000924669Y0000327305D01*
X0000925075Y0000325968D01*
X0000925236Y0000324335D01*
X0000925236Y0000297712D01*
X0000925075Y0000296079D01*
X0000924669Y0000294741D01*
X0000924010Y0000293508D01*
X0000923123Y0000292427D01*
X0000922042Y0000291540D01*
X0000920809Y0000290881D01*
X0000919472Y0000290475D01*
X0000917838Y0000290314D01*
X0000894168Y0000290314D01*
X0000892535Y0000290475D01*
X0000891198Y0000290881D01*
X0000889965Y0000291540D01*
X0000888884Y0000292427D01*
X0000887997Y0000293508D01*
X0000887338Y0000294741D01*
X0000886932Y0000296079D01*
X0000886771Y0000297712D01*
X0000886771Y0000324335D01*
X0000886932Y0000325968D01*
X0000887338Y0000327305D01*
X0000887997Y0000328538D01*
X0000888884Y0000329619D01*
X0000889965Y0000330506D01*
X0000891198Y0000331165D01*
X0000892535Y0000331571D01*
X0000894168Y0000331732D01*
X0000917838Y0000331732D01*
X0000919472Y0000331571D01*
X0000919472Y0000331571D01*
G37*
G36*
X0000981479Y0000331571D02*
X0000982817Y0000331165D01*
X0000984050Y0000330506D01*
X0000985131Y0000329619D01*
X0000986018Y0000328538D01*
X0000986677Y0000327305D01*
X0000987083Y0000325968D01*
X0000987244Y0000324335D01*
X0000987244Y0000297712D01*
X0000987083Y0000296079D01*
X0000986677Y0000294741D01*
X0000986018Y0000293508D01*
X0000985131Y0000292427D01*
X0000984050Y0000291540D01*
X0000982817Y0000290881D01*
X0000981479Y0000290475D01*
X0000979846Y0000290314D01*
X0000956176Y0000290314D01*
X0000954543Y0000290475D01*
X0000953205Y0000290881D01*
X0000951972Y0000291540D01*
X0000950892Y0000292427D01*
X0000950005Y0000293508D01*
X0000949346Y0000294741D01*
X0000948940Y0000296079D01*
X0000948779Y0000297712D01*
X0000948779Y0000324335D01*
X0000948940Y0000325968D01*
X0000949346Y0000327305D01*
X0000950005Y0000328538D01*
X0000950892Y0000329619D01*
X0000951972Y0000330506D01*
X0000953205Y0000331165D01*
X0000954543Y0000331571D01*
X0000956176Y0000331732D01*
X0000979846Y0000331732D01*
X0000981479Y0000331571D01*
X0000981479Y0000331571D01*
G37*
G36*
X0000704173Y0000306062D02*
X0000676535Y0000306062D01*
X0000676535Y0000371102D01*
X0000704173Y0000371102D01*
X0000704173Y0000306062D01*
X0000704173Y0000306062D01*
G37*
G36*
X0000754173Y0000306062D02*
X0000726535Y0000306062D01*
X0000726535Y0000371102D01*
X0000754173Y0000371102D01*
X0000754173Y0000306062D01*
X0000754173Y0000306062D01*
G37*
G36*
X0000654173Y0000306062D02*
X0000626535Y0000306062D01*
X0000626535Y0000371102D01*
X0000654173Y0000371102D01*
X0000654173Y0000306062D01*
X0000654173Y0000306062D01*
G37*
G36*
X0000604173Y0000306062D02*
X0000576535Y0000306062D01*
X0000576535Y0000371102D01*
X0000604173Y0000371102D01*
X0000604173Y0000306062D01*
X0000604173Y0000306062D01*
G37*
G36*
X0000197261Y0000390333D02*
X0000199867Y0000390077D01*
X0000204324Y0000388725D01*
X0000206553Y0000388048D01*
X0000207404Y0000387593D01*
X0000212716Y0000384755D01*
X0000214123Y0000383600D01*
X0000218117Y0000380322D01*
X0000221395Y0000376327D01*
X0000222550Y0000374920D01*
X0000222550Y0000374920D01*
X0000225844Y0000368758D01*
X0000225844Y0000368758D01*
X0000227872Y0000362071D01*
X0000228557Y0000355118D01*
X0000227872Y0000348164D01*
X0000226520Y0000343706D01*
X0000225844Y0000341477D01*
X0000222927Y0000336020D01*
X0000222550Y0000335315D01*
X0000221395Y0000333908D01*
X0000218117Y0000329913D01*
X0000214939Y0000327305D01*
X0000212716Y0000325481D01*
X0000212716Y0000325481D01*
X0000206553Y0000322187D01*
X0000204324Y0000321511D01*
X0000199867Y0000320158D01*
X0000197261Y0000319902D01*
X0000194655Y0000319645D01*
X0000191170Y0000319645D01*
X0000188565Y0000319902D01*
X0000185959Y0000320158D01*
X0000181501Y0000321511D01*
X0000179272Y0000322187D01*
X0000173110Y0000325481D01*
X0000173110Y0000325481D01*
X0000170887Y0000327305D01*
X0000167709Y0000329913D01*
X0000164431Y0000333908D01*
X0000163276Y0000335315D01*
X0000162899Y0000336020D01*
X0000159982Y0000341477D01*
X0000159306Y0000343706D01*
X0000157954Y0000348164D01*
X0000157269Y0000355118D01*
X0000157954Y0000362071D01*
X0000159982Y0000368758D01*
X0000159982Y0000368758D01*
X0000163276Y0000374920D01*
X0000163276Y0000374920D01*
X0000164431Y0000376327D01*
X0000167709Y0000380322D01*
X0000171703Y0000383600D01*
X0000173110Y0000384755D01*
X0000178421Y0000387593D01*
X0000179272Y0000388048D01*
X0000181501Y0000388725D01*
X0000185959Y0000390077D01*
X0000188565Y0000390333D01*
X0000191170Y0000390590D01*
X0000194655Y0000390590D01*
X0000197261Y0000390333D01*
X0000197261Y0000390333D01*
G37*
G36*
X0000919472Y0000390626D02*
X0000920809Y0000390220D01*
X0000922042Y0000389561D01*
X0000923123Y0000388674D01*
X0000924010Y0000387593D01*
X0000924669Y0000386360D01*
X0000925075Y0000385023D01*
X0000925236Y0000383390D01*
X0000925236Y0000356767D01*
X0000925075Y0000355134D01*
X0000924669Y0000353796D01*
X0000924010Y0000352563D01*
X0000923123Y0000351482D01*
X0000922042Y0000350595D01*
X0000920809Y0000349936D01*
X0000919472Y0000349530D01*
X0000917838Y0000349370D01*
X0000894168Y0000349370D01*
X0000892535Y0000349530D01*
X0000891198Y0000349936D01*
X0000889965Y0000350595D01*
X0000888884Y0000351482D01*
X0000887997Y0000352563D01*
X0000887338Y0000353796D01*
X0000886932Y0000355134D01*
X0000886771Y0000356767D01*
X0000886771Y0000383390D01*
X0000886932Y0000385023D01*
X0000887338Y0000386360D01*
X0000887997Y0000387593D01*
X0000888884Y0000388674D01*
X0000889965Y0000389561D01*
X0000891198Y0000390220D01*
X0000892535Y0000390626D01*
X0000894168Y0000390787D01*
X0000917838Y0000390787D01*
X0000919472Y0000390626D01*
X0000919472Y0000390626D01*
G37*
G36*
X0000981479Y0000390626D02*
X0000982817Y0000390220D01*
X0000984050Y0000389561D01*
X0000985131Y0000388674D01*
X0000986018Y0000387593D01*
X0000986677Y0000386360D01*
X0000987083Y0000385023D01*
X0000987244Y0000383390D01*
X0000987244Y0000356767D01*
X0000987083Y0000355134D01*
X0000986677Y0000353796D01*
X0000986018Y0000352563D01*
X0000985131Y0000351482D01*
X0000984050Y0000350595D01*
X0000982817Y0000349936D01*
X0000981479Y0000349530D01*
X0000979846Y0000349370D01*
X0000956176Y0000349370D01*
X0000954543Y0000349530D01*
X0000953205Y0000349936D01*
X0000951972Y0000350595D01*
X0000950892Y0000351482D01*
X0000950005Y0000352563D01*
X0000949346Y0000353796D01*
X0000948940Y0000355134D01*
X0000948779Y0000356767D01*
X0000948779Y0000383390D01*
X0000948940Y0000385023D01*
X0000949346Y0000386360D01*
X0000950005Y0000387593D01*
X0000950892Y0000388674D01*
X0000951972Y0000389561D01*
X0000953205Y0000390220D01*
X0000954543Y0000390626D01*
X0000956176Y0000390787D01*
X0000979846Y0000390787D01*
X0000981479Y0000390626D01*
X0000981479Y0000390626D01*
G37*
G36*
X0000197261Y0000490333D02*
X0000199867Y0000490077D01*
X0000204324Y0000488725D01*
X0000206553Y0000488048D01*
X0000212011Y0000485131D01*
X0000212716Y0000484755D01*
X0000214123Y0000483600D01*
X0000218117Y0000480322D01*
X0000221395Y0000476327D01*
X0000222550Y0000474920D01*
X0000222550Y0000474920D01*
X0000225844Y0000468758D01*
X0000225844Y0000468758D01*
X0000227872Y0000462071D01*
X0000228557Y0000455118D01*
X0000227872Y0000448164D01*
X0000226520Y0000443706D01*
X0000225844Y0000441477D01*
X0000222927Y0000436020D01*
X0000222550Y0000435315D01*
X0000221395Y0000433908D01*
X0000218117Y0000429913D01*
X0000214123Y0000426635D01*
X0000212716Y0000425481D01*
X0000212716Y0000425481D01*
X0000206553Y0000422187D01*
X0000204324Y0000421511D01*
X0000199867Y0000420158D01*
X0000197261Y0000419902D01*
X0000194655Y0000419645D01*
X0000191170Y0000419645D01*
X0000188565Y0000419902D01*
X0000185959Y0000420158D01*
X0000181501Y0000421511D01*
X0000179272Y0000422187D01*
X0000173110Y0000425481D01*
X0000173110Y0000425481D01*
X0000171703Y0000426635D01*
X0000167709Y0000429913D01*
X0000164431Y0000433908D01*
X0000163276Y0000435315D01*
X0000162899Y0000436020D01*
X0000159982Y0000441477D01*
X0000159306Y0000443706D01*
X0000157954Y0000448164D01*
X0000157269Y0000455118D01*
X0000157954Y0000462071D01*
X0000159982Y0000468758D01*
X0000159982Y0000468758D01*
X0000163276Y0000474920D01*
X0000163276Y0000474920D01*
X0000164431Y0000476327D01*
X0000167709Y0000480322D01*
X0000171703Y0000483600D01*
X0000173110Y0000484755D01*
X0000173815Y0000485131D01*
X0000179272Y0000488048D01*
X0000181501Y0000488725D01*
X0000185959Y0000490077D01*
X0000188565Y0000490333D01*
X0000191170Y0000490590D01*
X0000194655Y0000490590D01*
X0000197261Y0000490333D01*
X0000197261Y0000490333D01*
G37*
G36*
X0000228385Y0000519645D02*
X0000157440Y0000519645D01*
X0000157440Y0000590590D01*
X0000228385Y0000590590D01*
X0000228385Y0000519645D01*
X0000228385Y0000519645D01*
G37*
G04 next file*
G04 #@! TF.GenerationSoftware,KiCad,Pcbnew,(5.0.2)-1*
G04 #@! TF.CreationDate,2019-01-19T12:13:54+11:00*
G04 #@! TF.ProjectId,WarGames_SAO,57617247-616d-4657-935f-53414f2e6b69,rev?*
G04 #@! TF.SameCoordinates,Original*
G04 #@! TF.FileFunction,Soldermask,Bot*
G04 #@! TF.FilePolarity,Negative*
G04 Gerber Fmt 4.6, Leading zero omitted, Abs format (unit mm)*
G04 Created by KiCad (PCBNEW (5.0.2)-1) date 19/01/2019 12:13:54*
G01*
G04 APERTURE LIST*
G04 APERTURE END LIST*
D21*
G36*
X0002588425Y0000093464D02*
X0002560787Y0000093464D01*
X0002560787Y0000158503D01*
X0002588425Y0000158503D01*
X0002588425Y0000093464D01*
X0002588425Y0000093464D01*
G37*
G36*
X0002638425Y0000093464D02*
X0002610787Y0000093464D01*
X0002610787Y0000158503D01*
X0002638425Y0000158503D01*
X0002638425Y0000093464D01*
X0002638425Y0000093464D01*
G37*
G36*
X0002738425Y0000093464D02*
X0002710787Y0000093464D01*
X0002710787Y0000158503D01*
X0002738425Y0000158503D01*
X0002738425Y0000093464D01*
X0002738425Y0000093464D01*
G37*
G36*
X0002688425Y0000093464D02*
X0002660787Y0000093464D01*
X0002660787Y0000158503D01*
X0002688425Y0000158503D01*
X0002688425Y0000093464D01*
X0002688425Y0000093464D01*
G37*
G36*
X0003602773Y0000171436D02*
X0003605379Y0000171179D01*
X0003609836Y0000169827D01*
X0003612065Y0000169151D01*
X0003612800Y0000168758D01*
X0003618228Y0000165857D01*
X0003619635Y0000164702D01*
X0003623629Y0000161424D01*
X0003626907Y0000157430D01*
X0003628062Y0000156023D01*
X0003628062Y0000156023D01*
X0003631356Y0000149860D01*
X0003631870Y0000148164D01*
X0003633384Y0000143174D01*
X0003634069Y0000136220D01*
X0003633384Y0000129266D01*
X0003632236Y0000125481D01*
X0003631356Y0000122580D01*
X0003629488Y0000119085D01*
X0003628062Y0000116417D01*
X0003626907Y0000115010D01*
X0003623629Y0000111016D01*
X0003619635Y0000107738D01*
X0003618228Y0000106583D01*
X0003618227Y0000106583D01*
X0003612065Y0000103289D01*
X0003609836Y0000102613D01*
X0003605379Y0000101261D01*
X0003602773Y0000101004D01*
X0003600167Y0000100747D01*
X0003596682Y0000100747D01*
X0003594077Y0000101004D01*
X0003591471Y0000101261D01*
X0003587013Y0000102613D01*
X0003584784Y0000103289D01*
X0003578622Y0000106583D01*
X0003578622Y0000106583D01*
X0003577215Y0000107738D01*
X0003573221Y0000111016D01*
X0003569943Y0000115010D01*
X0003568788Y0000116417D01*
X0003567362Y0000119085D01*
X0003565494Y0000122580D01*
X0003564614Y0000125481D01*
X0003563466Y0000129266D01*
X0003562781Y0000136220D01*
X0003563466Y0000143174D01*
X0003564979Y0000148164D01*
X0003565494Y0000149860D01*
X0003568788Y0000156023D01*
X0003568788Y0000156023D01*
X0003569943Y0000157430D01*
X0003573221Y0000161424D01*
X0003577215Y0000164702D01*
X0003578622Y0000165857D01*
X0003584049Y0000168758D01*
X0003584784Y0000169151D01*
X0003587013Y0000169827D01*
X0003591471Y0000171179D01*
X0003594077Y0000171436D01*
X0003596682Y0000171692D01*
X0003600167Y0000171692D01*
X0003602773Y0000171436D01*
X0003602773Y0000171436D01*
G37*
G36*
X0003702773Y0000171436D02*
X0003705379Y0000171179D01*
X0003709836Y0000169827D01*
X0003712065Y0000169151D01*
X0003712800Y0000168758D01*
X0003718228Y0000165857D01*
X0003719635Y0000164702D01*
X0003723629Y0000161424D01*
X0003726907Y0000157430D01*
X0003728062Y0000156023D01*
X0003728062Y0000156023D01*
X0003731356Y0000149860D01*
X0003731870Y0000148164D01*
X0003733384Y0000143174D01*
X0003734069Y0000136220D01*
X0003733384Y0000129266D01*
X0003732236Y0000125481D01*
X0003731356Y0000122580D01*
X0003729488Y0000119085D01*
X0003728062Y0000116417D01*
X0003726907Y0000115010D01*
X0003723629Y0000111016D01*
X0003719635Y0000107738D01*
X0003718228Y0000106583D01*
X0003718227Y0000106583D01*
X0003712065Y0000103289D01*
X0003709836Y0000102613D01*
X0003705379Y0000101261D01*
X0003702773Y0000101004D01*
X0003700167Y0000100747D01*
X0003696682Y0000100747D01*
X0003694077Y0000101004D01*
X0003691471Y0000101261D01*
X0003687013Y0000102613D01*
X0003684784Y0000103289D01*
X0003678622Y0000106583D01*
X0003678622Y0000106583D01*
X0003677215Y0000107738D01*
X0003673221Y0000111016D01*
X0003669943Y0000115010D01*
X0003668788Y0000116417D01*
X0003667362Y0000119085D01*
X0003665494Y0000122580D01*
X0003664614Y0000125481D01*
X0003663466Y0000129266D01*
X0003662781Y0000136220D01*
X0003663466Y0000143174D01*
X0003664979Y0000148164D01*
X0003665494Y0000149860D01*
X0003668788Y0000156023D01*
X0003668788Y0000156023D01*
X0003669943Y0000157430D01*
X0003673221Y0000161424D01*
X0003677215Y0000164702D01*
X0003678622Y0000165857D01*
X0003684049Y0000168758D01*
X0003684784Y0000169151D01*
X0003687013Y0000169827D01*
X0003691471Y0000171179D01*
X0003694077Y0000171436D01*
X0003696682Y0000171692D01*
X0003700167Y0000171692D01*
X0003702773Y0000171436D01*
X0003702773Y0000171436D01*
G37*
G36*
X0002965731Y0000154406D02*
X0002967069Y0000154000D01*
X0002968302Y0000153341D01*
X0002969383Y0000152454D01*
X0002970270Y0000151373D01*
X0002970929Y0000150140D01*
X0002971335Y0000148802D01*
X0002971496Y0000147169D01*
X0002971496Y0000120546D01*
X0002971335Y0000118913D01*
X0002970929Y0000117575D01*
X0002970270Y0000116342D01*
X0002969383Y0000115262D01*
X0002968302Y0000114375D01*
X0002967069Y0000113716D01*
X0002965731Y0000113310D01*
X0002964098Y0000113149D01*
X0002940428Y0000113149D01*
X0002938795Y0000113310D01*
X0002937457Y0000113716D01*
X0002936224Y0000114375D01*
X0002935144Y0000115262D01*
X0002934257Y0000116342D01*
X0002933598Y0000117575D01*
X0002933192Y0000118913D01*
X0002933031Y0000120546D01*
X0002933031Y0000147169D01*
X0002933192Y0000148802D01*
X0002933598Y0000150140D01*
X0002934257Y0000151373D01*
X0002935144Y0000152454D01*
X0002936224Y0000153341D01*
X0002937457Y0000154000D01*
X0002938795Y0000154406D01*
X0002940428Y0000154566D01*
X0002964098Y0000154566D01*
X0002965731Y0000154406D01*
X0002965731Y0000154406D01*
G37*
G36*
X0002903724Y0000154406D02*
X0002905061Y0000154000D01*
X0002906294Y0000153341D01*
X0002907375Y0000152454D01*
X0002908262Y0000151373D01*
X0002908921Y0000150140D01*
X0002909327Y0000148802D01*
X0002909488Y0000147169D01*
X0002909488Y0000120546D01*
X0002909327Y0000118913D01*
X0002908921Y0000117575D01*
X0002908262Y0000116342D01*
X0002907375Y0000115262D01*
X0002906294Y0000114375D01*
X0002905061Y0000113716D01*
X0002903724Y0000113310D01*
X0002902090Y0000113149D01*
X0002878420Y0000113149D01*
X0002876787Y0000113310D01*
X0002875450Y0000113716D01*
X0002874217Y0000114375D01*
X0002873136Y0000115262D01*
X0002872249Y0000116342D01*
X0002871590Y0000117575D01*
X0002871184Y0000118913D01*
X0002871023Y0000120546D01*
X0002871023Y0000147169D01*
X0002871184Y0000148802D01*
X0002871590Y0000150140D01*
X0002872249Y0000151373D01*
X0002873136Y0000152454D01*
X0002874217Y0000153341D01*
X0002875450Y0000154000D01*
X0002876787Y0000154406D01*
X0002878420Y0000154566D01*
X0002902090Y0000154566D01*
X0002903724Y0000154406D01*
X0002903724Y0000154406D01*
G37*
G36*
X0002181513Y0000190333D02*
X0002184119Y0000190077D01*
X0002188576Y0000188725D01*
X0002190805Y0000188048D01*
X0002196263Y0000185131D01*
X0002196968Y0000184755D01*
X0002198375Y0000183600D01*
X0002202369Y0000180322D01*
X0002205524Y0000176478D01*
X0002206802Y0000174920D01*
X0002206802Y0000174920D01*
X0002210096Y0000168758D01*
X0002210096Y0000168758D01*
X0002212124Y0000162071D01*
X0002212809Y0000155118D01*
X0002212124Y0000148164D01*
X0002211149Y0000144950D01*
X0002210096Y0000141477D01*
X0002207286Y0000136220D01*
X0002206802Y0000135315D01*
X0002205647Y0000133908D01*
X0002202369Y0000129913D01*
X0002198375Y0000126635D01*
X0002196968Y0000125481D01*
X0002196968Y0000125481D01*
X0002190805Y0000122187D01*
X0002188576Y0000121511D01*
X0002184119Y0000120158D01*
X0002181513Y0000119902D01*
X0002178907Y0000119645D01*
X0002175422Y0000119645D01*
X0002172817Y0000119902D01*
X0002170211Y0000120158D01*
X0002165753Y0000121511D01*
X0002163524Y0000122187D01*
X0002157362Y0000125481D01*
X0002157362Y0000125481D01*
X0002155955Y0000126635D01*
X0002151961Y0000129913D01*
X0002148683Y0000133908D01*
X0002147528Y0000135315D01*
X0002147044Y0000136220D01*
X0002144234Y0000141477D01*
X0002143181Y0000144950D01*
X0002142206Y0000148164D01*
X0002141521Y0000155118D01*
X0002142206Y0000162071D01*
X0002144234Y0000168758D01*
X0002144234Y0000168758D01*
X0002147528Y0000174920D01*
X0002147528Y0000174920D01*
X0002148806Y0000176478D01*
X0002151961Y0000180322D01*
X0002155955Y0000183600D01*
X0002157362Y0000184755D01*
X0002158067Y0000185131D01*
X0002163524Y0000188048D01*
X0002165753Y0000188725D01*
X0002170211Y0000190077D01*
X0002172817Y0000190333D01*
X0002175422Y0000190590D01*
X0002178907Y0000190590D01*
X0002181513Y0000190333D01*
X0002181513Y0000190333D01*
G37*
G36*
X0002965731Y0000213461D02*
X0002967069Y0000213055D01*
X0002968302Y0000212396D01*
X0002969383Y0000211509D01*
X0002970270Y0000210428D01*
X0002970929Y0000209195D01*
X0002971335Y0000207857D01*
X0002971496Y0000206224D01*
X0002971496Y0000179601D01*
X0002971335Y0000177968D01*
X0002970929Y0000176631D01*
X0002970270Y0000175398D01*
X0002969383Y0000174317D01*
X0002968302Y0000173430D01*
X0002967069Y0000172771D01*
X0002965731Y0000172365D01*
X0002964098Y0000172204D01*
X0002940428Y0000172204D01*
X0002938795Y0000172365D01*
X0002937457Y0000172771D01*
X0002936224Y0000173430D01*
X0002935144Y0000174317D01*
X0002934257Y0000175398D01*
X0002933598Y0000176631D01*
X0002933192Y0000177968D01*
X0002933031Y0000179601D01*
X0002933031Y0000206224D01*
X0002933192Y0000207857D01*
X0002933598Y0000209195D01*
X0002934257Y0000210428D01*
X0002935144Y0000211509D01*
X0002936224Y0000212396D01*
X0002937457Y0000213055D01*
X0002938795Y0000213461D01*
X0002940428Y0000213622D01*
X0002964098Y0000213622D01*
X0002965731Y0000213461D01*
X0002965731Y0000213461D01*
G37*
G36*
X0002903724Y0000213461D02*
X0002905061Y0000213055D01*
X0002906294Y0000212396D01*
X0002907375Y0000211509D01*
X0002908262Y0000210428D01*
X0002908921Y0000209195D01*
X0002909327Y0000207857D01*
X0002909488Y0000206224D01*
X0002909488Y0000179601D01*
X0002909327Y0000177968D01*
X0002908921Y0000176631D01*
X0002908262Y0000175398D01*
X0002907375Y0000174317D01*
X0002906294Y0000173430D01*
X0002905061Y0000172771D01*
X0002903724Y0000172365D01*
X0002902090Y0000172204D01*
X0002878420Y0000172204D01*
X0002876787Y0000172365D01*
X0002875450Y0000172771D01*
X0002874217Y0000173430D01*
X0002873136Y0000174317D01*
X0002872249Y0000175398D01*
X0002871590Y0000176631D01*
X0002871184Y0000177968D01*
X0002871023Y0000179601D01*
X0002871023Y0000206224D01*
X0002871184Y0000207857D01*
X0002871590Y0000209195D01*
X0002872249Y0000210428D01*
X0002873136Y0000211509D01*
X0002874217Y0000212396D01*
X0002875450Y0000213055D01*
X0002876787Y0000213461D01*
X0002878420Y0000213622D01*
X0002902090Y0000213622D01*
X0002903724Y0000213461D01*
X0002903724Y0000213461D01*
G37*
G36*
X0003702773Y0000271436D02*
X0003705379Y0000271179D01*
X0003709836Y0000269827D01*
X0003712065Y0000269151D01*
X0003715749Y0000267182D01*
X0003718228Y0000265857D01*
X0003719349Y0000264937D01*
X0003723629Y0000261424D01*
X0003726907Y0000257430D01*
X0003728062Y0000256023D01*
X0003728062Y0000256023D01*
X0003731356Y0000249860D01*
X0003731870Y0000248164D01*
X0003733384Y0000243174D01*
X0003734069Y0000236220D01*
X0003733384Y0000229266D01*
X0003732236Y0000225481D01*
X0003731356Y0000222580D01*
X0003728438Y0000217122D01*
X0003728062Y0000216417D01*
X0003726907Y0000215010D01*
X0003723629Y0000211016D01*
X0003719635Y0000207738D01*
X0003718228Y0000206583D01*
X0003718227Y0000206583D01*
X0003712065Y0000203289D01*
X0003709836Y0000202613D01*
X0003705379Y0000201261D01*
X0003702773Y0000201004D01*
X0003700167Y0000200748D01*
X0003696682Y0000200748D01*
X0003694077Y0000201004D01*
X0003691471Y0000201261D01*
X0003687013Y0000202613D01*
X0003684784Y0000203289D01*
X0003678622Y0000206583D01*
X0003678622Y0000206583D01*
X0003677215Y0000207738D01*
X0003673221Y0000211016D01*
X0003669943Y0000215010D01*
X0003668788Y0000216417D01*
X0003668411Y0000217122D01*
X0003665494Y0000222580D01*
X0003664614Y0000225481D01*
X0003663466Y0000229266D01*
X0003662781Y0000236220D01*
X0003663466Y0000243174D01*
X0003664979Y0000248164D01*
X0003665494Y0000249860D01*
X0003668788Y0000256023D01*
X0003668788Y0000256023D01*
X0003669943Y0000257430D01*
X0003673221Y0000261424D01*
X0003677500Y0000264937D01*
X0003678622Y0000265857D01*
X0003681101Y0000267182D01*
X0003684784Y0000269151D01*
X0003687013Y0000269827D01*
X0003691471Y0000271179D01*
X0003694077Y0000271436D01*
X0003696682Y0000271692D01*
X0003700167Y0000271692D01*
X0003702773Y0000271436D01*
X0003702773Y0000271436D01*
G37*
G36*
X0003633897Y0000200748D02*
X0003562952Y0000200748D01*
X0003562952Y0000271692D01*
X0003633897Y0000271692D01*
X0003633897Y0000200748D01*
X0003633897Y0000200748D01*
G37*
G36*
X0002181513Y0000290333D02*
X0002184119Y0000290077D01*
X0002188576Y0000288725D01*
X0002190805Y0000288048D01*
X0002196263Y0000285131D01*
X0002196968Y0000284755D01*
X0002198375Y0000283600D01*
X0002202369Y0000280322D01*
X0002205647Y0000276327D01*
X0002206802Y0000274920D01*
X0002206802Y0000274920D01*
X0002210096Y0000268758D01*
X0002210620Y0000267029D01*
X0002212124Y0000262071D01*
X0002212809Y0000255118D01*
X0002212124Y0000248164D01*
X0002210772Y0000243706D01*
X0002210096Y0000241477D01*
X0002208588Y0000238657D01*
X0002206802Y0000235315D01*
X0002206094Y0000234453D01*
X0002202369Y0000229913D01*
X0002198375Y0000226635D01*
X0002196968Y0000225481D01*
X0002196968Y0000225481D01*
X0002190805Y0000222187D01*
X0002188576Y0000221511D01*
X0002184119Y0000220158D01*
X0002181513Y0000219902D01*
X0002178907Y0000219645D01*
X0002175422Y0000219645D01*
X0002172817Y0000219902D01*
X0002170211Y0000220158D01*
X0002165753Y0000221511D01*
X0002163524Y0000222187D01*
X0002157362Y0000225481D01*
X0002157362Y0000225481D01*
X0002155955Y0000226635D01*
X0002151961Y0000229913D01*
X0002148235Y0000234453D01*
X0002147528Y0000235315D01*
X0002145742Y0000238657D01*
X0002144234Y0000241477D01*
X0002143558Y0000243706D01*
X0002142206Y0000248164D01*
X0002141521Y0000255118D01*
X0002142206Y0000262071D01*
X0002143710Y0000267029D01*
X0002144234Y0000268758D01*
X0002147528Y0000274920D01*
X0002147528Y0000274920D01*
X0002148683Y0000276327D01*
X0002151961Y0000280322D01*
X0002155955Y0000283600D01*
X0002157362Y0000284755D01*
X0002158067Y0000285131D01*
X0002163524Y0000288048D01*
X0002165753Y0000288725D01*
X0002170211Y0000290077D01*
X0002172817Y0000290333D01*
X0002175422Y0000290590D01*
X0002178907Y0000290590D01*
X0002181513Y0000290333D01*
X0002181513Y0000290333D01*
G37*
G36*
X0002904216Y0000272516D02*
X0002905553Y0000272110D01*
X0002906786Y0000271451D01*
X0002907867Y0000270564D01*
X0002908754Y0000269483D01*
X0002909413Y0000268250D01*
X0002909819Y0000266912D01*
X0002909980Y0000265279D01*
X0002909980Y0000238657D01*
X0002909819Y0000237023D01*
X0002909413Y0000235686D01*
X0002908754Y0000234453D01*
X0002907867Y0000233372D01*
X0002906786Y0000232485D01*
X0002905553Y0000231826D01*
X0002904216Y0000231420D01*
X0002902583Y0000231259D01*
X0002878913Y0000231259D01*
X0002877279Y0000231420D01*
X0002875942Y0000231826D01*
X0002874709Y0000232485D01*
X0002873628Y0000233372D01*
X0002872741Y0000234453D01*
X0002872082Y0000235686D01*
X0002871676Y0000237023D01*
X0002871515Y0000238657D01*
X0002871515Y0000265279D01*
X0002871676Y0000266912D01*
X0002872082Y0000268250D01*
X0002872741Y0000269483D01*
X0002873628Y0000270564D01*
X0002874709Y0000271451D01*
X0002875942Y0000272110D01*
X0002877279Y0000272516D01*
X0002878913Y0000272677D01*
X0002902583Y0000272677D01*
X0002904216Y0000272516D01*
X0002904216Y0000272516D01*
G37*
G36*
X0002966224Y0000272516D02*
X0002967561Y0000272110D01*
X0002968794Y0000271451D01*
X0002969875Y0000270564D01*
X0002970762Y0000269483D01*
X0002971421Y0000268250D01*
X0002971827Y0000266912D01*
X0002971988Y0000265279D01*
X0002971988Y0000238657D01*
X0002971827Y0000237023D01*
X0002971421Y0000235686D01*
X0002970762Y0000234453D01*
X0002969875Y0000233372D01*
X0002968794Y0000232485D01*
X0002967561Y0000231826D01*
X0002966224Y0000231420D01*
X0002964590Y0000231259D01*
X0002940920Y0000231259D01*
X0002939287Y0000231420D01*
X0002937950Y0000231826D01*
X0002936717Y0000232485D01*
X0002935636Y0000233372D01*
X0002934749Y0000234453D01*
X0002934090Y0000235686D01*
X0002933684Y0000237023D01*
X0002933523Y0000238657D01*
X0002933523Y0000265279D01*
X0002933684Y0000266912D01*
X0002934090Y0000268250D01*
X0002934749Y0000269483D01*
X0002935636Y0000270564D01*
X0002936717Y0000271451D01*
X0002937950Y0000272110D01*
X0002939287Y0000272516D01*
X0002940920Y0000272677D01*
X0002964590Y0000272677D01*
X0002966224Y0000272516D01*
X0002966224Y0000272516D01*
G37*
G36*
X0002520850Y0000304012D02*
X0002522187Y0000303606D01*
X0002523420Y0000302947D01*
X0002524501Y0000302060D01*
X0002525388Y0000300979D01*
X0002526047Y0000299746D01*
X0002526453Y0000298409D01*
X0002526614Y0000296775D01*
X0002526614Y0000270153D01*
X0002526453Y0000268520D01*
X0002526047Y0000267182D01*
X0002525388Y0000265949D01*
X0002524501Y0000264868D01*
X0002523420Y0000263981D01*
X0002522187Y0000263322D01*
X0002520850Y0000262916D01*
X0002519216Y0000262755D01*
X0002495546Y0000262755D01*
X0002493913Y0000262916D01*
X0002492576Y0000263322D01*
X0002491343Y0000263981D01*
X0002490262Y0000264868D01*
X0002489375Y0000265949D01*
X0002488716Y0000267182D01*
X0002488310Y0000268520D01*
X0002488149Y0000270153D01*
X0002488149Y0000296775D01*
X0002488310Y0000298409D01*
X0002488716Y0000299746D01*
X0002489375Y0000300979D01*
X0002490262Y0000302060D01*
X0002491343Y0000302947D01*
X0002492576Y0000303606D01*
X0002493913Y0000304012D01*
X0002495546Y0000304173D01*
X0002519216Y0000304173D01*
X0002520850Y0000304012D01*
X0002520850Y0000304012D01*
G37*
G36*
X0002458842Y0000304012D02*
X0002460179Y0000303606D01*
X0002461412Y0000302947D01*
X0002462493Y0000302060D01*
X0002463380Y0000300979D01*
X0002464039Y0000299746D01*
X0002464445Y0000298409D01*
X0002464606Y0000296775D01*
X0002464606Y0000270153D01*
X0002464445Y0000268520D01*
X0002464039Y0000267182D01*
X0002463380Y0000265949D01*
X0002462493Y0000264868D01*
X0002461412Y0000263981D01*
X0002460179Y0000263322D01*
X0002458842Y0000262916D01*
X0002457209Y0000262755D01*
X0002433539Y0000262755D01*
X0002431905Y0000262916D01*
X0002430568Y0000263322D01*
X0002429335Y0000263981D01*
X0002428254Y0000264868D01*
X0002427367Y0000265949D01*
X0002426708Y0000267182D01*
X0002426302Y0000268520D01*
X0002426141Y0000270153D01*
X0002426141Y0000296775D01*
X0002426302Y0000298409D01*
X0002426708Y0000299746D01*
X0002427367Y0000300979D01*
X0002428254Y0000302060D01*
X0002429335Y0000302947D01*
X0002430568Y0000303606D01*
X0002431905Y0000304012D01*
X0002433539Y0000304173D01*
X0002457209Y0000304173D01*
X0002458842Y0000304012D01*
X0002458842Y0000304012D01*
G37*
G36*
X0002903724Y0000331571D02*
X0002905061Y0000331165D01*
X0002906294Y0000330506D01*
X0002907375Y0000329619D01*
X0002908262Y0000328538D01*
X0002908921Y0000327305D01*
X0002909327Y0000325968D01*
X0002909488Y0000324335D01*
X0002909488Y0000297712D01*
X0002909327Y0000296079D01*
X0002908921Y0000294741D01*
X0002908262Y0000293508D01*
X0002907375Y0000292427D01*
X0002906294Y0000291540D01*
X0002905061Y0000290881D01*
X0002903724Y0000290475D01*
X0002902090Y0000290314D01*
X0002878420Y0000290314D01*
X0002876787Y0000290475D01*
X0002875450Y0000290881D01*
X0002874217Y0000291540D01*
X0002873136Y0000292427D01*
X0002872249Y0000293508D01*
X0002871590Y0000294741D01*
X0002871184Y0000296079D01*
X0002871023Y0000297712D01*
X0002871023Y0000324335D01*
X0002871184Y0000325968D01*
X0002871590Y0000327305D01*
X0002872249Y0000328538D01*
X0002873136Y0000329619D01*
X0002874217Y0000330506D01*
X0002875450Y0000331165D01*
X0002876787Y0000331571D01*
X0002878420Y0000331732D01*
X0002902090Y0000331732D01*
X0002903724Y0000331571D01*
X0002903724Y0000331571D01*
G37*
G36*
X0002965731Y0000331571D02*
X0002967069Y0000331165D01*
X0002968302Y0000330506D01*
X0002969383Y0000329619D01*
X0002970270Y0000328538D01*
X0002970929Y0000327305D01*
X0002971335Y0000325968D01*
X0002971496Y0000324335D01*
X0002971496Y0000297712D01*
X0002971335Y0000296079D01*
X0002970929Y0000294741D01*
X0002970270Y0000293508D01*
X0002969383Y0000292427D01*
X0002968302Y0000291540D01*
X0002967069Y0000290881D01*
X0002965731Y0000290475D01*
X0002964098Y0000290314D01*
X0002940428Y0000290314D01*
X0002938795Y0000290475D01*
X0002937457Y0000290881D01*
X0002936224Y0000291540D01*
X0002935144Y0000292427D01*
X0002934257Y0000293508D01*
X0002933598Y0000294741D01*
X0002933192Y0000296079D01*
X0002933031Y0000297712D01*
X0002933031Y0000324335D01*
X0002933192Y0000325968D01*
X0002933598Y0000327305D01*
X0002934257Y0000328538D01*
X0002935144Y0000329619D01*
X0002936224Y0000330506D01*
X0002937457Y0000331165D01*
X0002938795Y0000331571D01*
X0002940428Y0000331732D01*
X0002964098Y0000331732D01*
X0002965731Y0000331571D01*
X0002965731Y0000331571D01*
G37*
G36*
X0002688425Y0000306062D02*
X0002660787Y0000306062D01*
X0002660787Y0000371102D01*
X0002688425Y0000371102D01*
X0002688425Y0000306062D01*
X0002688425Y0000306062D01*
G37*
G36*
X0002738425Y0000306062D02*
X0002710787Y0000306062D01*
X0002710787Y0000371102D01*
X0002738425Y0000371102D01*
X0002738425Y0000306062D01*
X0002738425Y0000306062D01*
G37*
G36*
X0002638425Y0000306062D02*
X0002610787Y0000306062D01*
X0002610787Y0000371102D01*
X0002638425Y0000371102D01*
X0002638425Y0000306062D01*
X0002638425Y0000306062D01*
G37*
G36*
X0002588425Y0000306062D02*
X0002560787Y0000306062D01*
X0002560787Y0000371102D01*
X0002588425Y0000371102D01*
X0002588425Y0000306062D01*
X0002588425Y0000306062D01*
G37*
G36*
X0002181513Y0000390333D02*
X0002184119Y0000390077D01*
X0002188576Y0000388725D01*
X0002190805Y0000388048D01*
X0002191656Y0000387593D01*
X0002196968Y0000384755D01*
X0002198375Y0000383600D01*
X0002202369Y0000380322D01*
X0002205647Y0000376327D01*
X0002206802Y0000374920D01*
X0002206802Y0000374920D01*
X0002210096Y0000368758D01*
X0002210096Y0000368758D01*
X0002212124Y0000362071D01*
X0002212809Y0000355118D01*
X0002212124Y0000348164D01*
X0002210772Y0000343706D01*
X0002210096Y0000341477D01*
X0002207179Y0000336020D01*
X0002206802Y0000335315D01*
X0002205647Y0000333908D01*
X0002202369Y0000329913D01*
X0002199191Y0000327305D01*
X0002196968Y0000325481D01*
X0002196968Y0000325481D01*
X0002190805Y0000322187D01*
X0002188576Y0000321511D01*
X0002184119Y0000320158D01*
X0002181513Y0000319902D01*
X0002178907Y0000319645D01*
X0002175422Y0000319645D01*
X0002172817Y0000319902D01*
X0002170211Y0000320158D01*
X0002165753Y0000321511D01*
X0002163524Y0000322187D01*
X0002157362Y0000325481D01*
X0002157362Y0000325481D01*
X0002155139Y0000327305D01*
X0002151961Y0000329913D01*
X0002148683Y0000333908D01*
X0002147528Y0000335315D01*
X0002147151Y0000336020D01*
X0002144234Y0000341477D01*
X0002143558Y0000343706D01*
X0002142206Y0000348164D01*
X0002141521Y0000355118D01*
X0002142206Y0000362071D01*
X0002144234Y0000368758D01*
X0002144234Y0000368758D01*
X0002147528Y0000374920D01*
X0002147528Y0000374920D01*
X0002148683Y0000376327D01*
X0002151961Y0000380322D01*
X0002155955Y0000383600D01*
X0002157362Y0000384755D01*
X0002162673Y0000387593D01*
X0002163524Y0000388048D01*
X0002165753Y0000388725D01*
X0002170211Y0000390077D01*
X0002172817Y0000390333D01*
X0002175422Y0000390590D01*
X0002178907Y0000390590D01*
X0002181513Y0000390333D01*
X0002181513Y0000390333D01*
G37*
G36*
X0002903724Y0000390626D02*
X0002905061Y0000390220D01*
X0002906294Y0000389561D01*
X0002907375Y0000388674D01*
X0002908262Y0000387593D01*
X0002908921Y0000386360D01*
X0002909327Y0000385023D01*
X0002909488Y0000383390D01*
X0002909488Y0000356767D01*
X0002909327Y0000355134D01*
X0002908921Y0000353796D01*
X0002908262Y0000352563D01*
X0002907375Y0000351482D01*
X0002906294Y0000350595D01*
X0002905061Y0000349936D01*
X0002903724Y0000349530D01*
X0002902090Y0000349370D01*
X0002878420Y0000349370D01*
X0002876787Y0000349530D01*
X0002875450Y0000349936D01*
X0002874217Y0000350595D01*
X0002873136Y0000351482D01*
X0002872249Y0000352563D01*
X0002871590Y0000353796D01*
X0002871184Y0000355134D01*
X0002871023Y0000356767D01*
X0002871023Y0000383390D01*
X0002871184Y0000385023D01*
X0002871590Y0000386360D01*
X0002872249Y0000387593D01*
X0002873136Y0000388674D01*
X0002874217Y0000389561D01*
X0002875450Y0000390220D01*
X0002876787Y0000390626D01*
X0002878420Y0000390787D01*
X0002902090Y0000390787D01*
X0002903724Y0000390626D01*
X0002903724Y0000390626D01*
G37*
G36*
X0002965731Y0000390626D02*
X0002967069Y0000390220D01*
X0002968302Y0000389561D01*
X0002969383Y0000388674D01*
X0002970270Y0000387593D01*
X0002970929Y0000386360D01*
X0002971335Y0000385023D01*
X0002971496Y0000383390D01*
X0002971496Y0000356767D01*
X0002971335Y0000355134D01*
X0002970929Y0000353796D01*
X0002970270Y0000352563D01*
X0002969383Y0000351482D01*
X0002968302Y0000350595D01*
X0002967069Y0000349936D01*
X0002965731Y0000349530D01*
X0002964098Y0000349370D01*
X0002940428Y0000349370D01*
X0002938795Y0000349530D01*
X0002937457Y0000349936D01*
X0002936224Y0000350595D01*
X0002935144Y0000351482D01*
X0002934257Y0000352563D01*
X0002933598Y0000353796D01*
X0002933192Y0000355134D01*
X0002933031Y0000356767D01*
X0002933031Y0000383390D01*
X0002933192Y0000385023D01*
X0002933598Y0000386360D01*
X0002934257Y0000387593D01*
X0002935144Y0000388674D01*
X0002936224Y0000389561D01*
X0002937457Y0000390220D01*
X0002938795Y0000390626D01*
X0002940428Y0000390787D01*
X0002964098Y0000390787D01*
X0002965731Y0000390626D01*
X0002965731Y0000390626D01*
G37*
G36*
X0002181513Y0000490333D02*
X0002184119Y0000490077D01*
X0002188576Y0000488725D01*
X0002190805Y0000488048D01*
X0002196263Y0000485131D01*
X0002196968Y0000484755D01*
X0002198375Y0000483600D01*
X0002202369Y0000480322D01*
X0002205647Y0000476327D01*
X0002206802Y0000474920D01*
X0002206802Y0000474920D01*
X0002210096Y0000468758D01*
X0002210096Y0000468758D01*
X0002212124Y0000462071D01*
X0002212809Y0000455118D01*
X0002212124Y0000448164D01*
X0002210772Y0000443706D01*
X0002210096Y0000441477D01*
X0002207179Y0000436020D01*
X0002206802Y0000435315D01*
X0002205647Y0000433908D01*
X0002202369Y0000429913D01*
X0002198375Y0000426635D01*
X0002196968Y0000425481D01*
X0002196968Y0000425481D01*
X0002190805Y0000422187D01*
X0002188576Y0000421511D01*
X0002184119Y0000420158D01*
X0002181513Y0000419902D01*
X0002178907Y0000419645D01*
X0002175422Y0000419645D01*
X0002172817Y0000419902D01*
X0002170211Y0000420158D01*
X0002165753Y0000421511D01*
X0002163524Y0000422187D01*
X0002157362Y0000425481D01*
X0002157362Y0000425481D01*
X0002155955Y0000426635D01*
X0002151961Y0000429913D01*
X0002148683Y0000433908D01*
X0002147528Y0000435315D01*
X0002147151Y0000436020D01*
X0002144234Y0000441477D01*
X0002143558Y0000443706D01*
X0002142206Y0000448164D01*
X0002141521Y0000455118D01*
X0002142206Y0000462071D01*
X0002144234Y0000468758D01*
X0002144234Y0000468758D01*
X0002147528Y0000474920D01*
X0002147528Y0000474920D01*
X0002148683Y0000476327D01*
X0002151961Y0000480322D01*
X0002155955Y0000483600D01*
X0002157362Y0000484755D01*
X0002158067Y0000485131D01*
X0002163524Y0000488048D01*
X0002165753Y0000488725D01*
X0002170211Y0000490077D01*
X0002172817Y0000490333D01*
X0002175422Y0000490590D01*
X0002178907Y0000490590D01*
X0002181513Y0000490333D01*
X0002181513Y0000490333D01*
G37*
G36*
X0002212637Y0000519645D02*
X0002141692Y0000519645D01*
X0002141692Y0000590590D01*
X0002212637Y0000590590D01*
X0002212637Y0000519645D01*
X0002212637Y0000519645D01*
G37*
G04 next file*
G04 #@! TF.GenerationSoftware,KiCad,Pcbnew,(5.0.2)-1*
G04 #@! TF.CreationDate,2019-01-19T12:13:54+11:00*
G04 #@! TF.ProjectId,WarGames_SAO,57617247-616d-4657-935f-53414f2e6b69,rev?*
G04 #@! TF.SameCoordinates,Original*
G04 #@! TF.FileFunction,Soldermask,Bot*
G04 #@! TF.FilePolarity,Negative*
G04 Gerber Fmt 4.6, Leading zero omitted, Abs format (unit mm)*
G04 Created by KiCad (PCBNEW (5.0.2)-1) date 19/01/2019 12:13:54*
G01*
G04 APERTURE LIST*
G04 APERTURE END LIST*
D22*
G36*
X0000604173Y0002077716D02*
X0000576535Y0002077716D01*
X0000576535Y0002142755D01*
X0000604173Y0002142755D01*
X0000604173Y0002077716D01*
X0000604173Y0002077716D01*
G37*
G36*
X0000654173Y0002077716D02*
X0000626535Y0002077716D01*
X0000626535Y0002142755D01*
X0000654173Y0002142755D01*
X0000654173Y0002077716D01*
X0000654173Y0002077716D01*
G37*
G36*
X0000754173Y0002077716D02*
X0000726535Y0002077716D01*
X0000726535Y0002142755D01*
X0000754173Y0002142755D01*
X0000754173Y0002077716D01*
X0000754173Y0002077716D01*
G37*
G36*
X0000704173Y0002077716D02*
X0000676535Y0002077716D01*
X0000676535Y0002142755D01*
X0000704173Y0002142755D01*
X0000704173Y0002077716D01*
X0000704173Y0002077716D01*
G37*
G36*
X0001618521Y0002155687D02*
X0001621127Y0002155431D01*
X0001625584Y0002154079D01*
X0001627813Y0002153402D01*
X0001628548Y0002153010D01*
X0001633976Y0002150109D01*
X0001635382Y0002148954D01*
X0001639377Y0002145676D01*
X0001642655Y0002141681D01*
X0001643810Y0002140274D01*
X0001643810Y0002140274D01*
X0001647104Y0002134112D01*
X0001647618Y0002132415D01*
X0001649132Y0002127425D01*
X0001649817Y0002120472D01*
X0001649132Y0002113518D01*
X0001647984Y0002109732D01*
X0001647104Y0002106831D01*
X0001645236Y0002103337D01*
X0001643810Y0002100669D01*
X0001642655Y0002099262D01*
X0001639377Y0002095267D01*
X0001635382Y0002091989D01*
X0001633976Y0002090835D01*
X0001633975Y0002090835D01*
X0001627813Y0002087541D01*
X0001625584Y0002086865D01*
X0001621127Y0002085512D01*
X0001618521Y0002085256D01*
X0001615915Y0002084999D01*
X0001612430Y0002084999D01*
X0001609825Y0002085256D01*
X0001607219Y0002085512D01*
X0001602761Y0002086865D01*
X0001600532Y0002087541D01*
X0001594370Y0002090835D01*
X0001594370Y0002090835D01*
X0001592963Y0002091989D01*
X0001588969Y0002095267D01*
X0001585691Y0002099262D01*
X0001584536Y0002100669D01*
X0001583110Y0002103337D01*
X0001581242Y0002106831D01*
X0001580362Y0002109732D01*
X0001579214Y0002113518D01*
X0001578529Y0002120472D01*
X0001579214Y0002127425D01*
X0001580727Y0002132415D01*
X0001581242Y0002134112D01*
X0001584536Y0002140274D01*
X0001584536Y0002140274D01*
X0001585691Y0002141681D01*
X0001588969Y0002145676D01*
X0001592963Y0002148954D01*
X0001594370Y0002150109D01*
X0001599797Y0002153010D01*
X0001600532Y0002153402D01*
X0001602761Y0002154079D01*
X0001607219Y0002155431D01*
X0001609825Y0002155687D01*
X0001612430Y0002155944D01*
X0001615915Y0002155944D01*
X0001618521Y0002155687D01*
X0001618521Y0002155687D01*
G37*
G36*
X0001718521Y0002155687D02*
X0001721127Y0002155431D01*
X0001725584Y0002154079D01*
X0001727813Y0002153402D01*
X0001728548Y0002153010D01*
X0001733976Y0002150109D01*
X0001735383Y0002148954D01*
X0001739377Y0002145676D01*
X0001742655Y0002141681D01*
X0001743810Y0002140274D01*
X0001743810Y0002140274D01*
X0001747104Y0002134112D01*
X0001747618Y0002132415D01*
X0001749132Y0002127425D01*
X0001749817Y0002120472D01*
X0001749132Y0002113518D01*
X0001747984Y0002109732D01*
X0001747104Y0002106831D01*
X0001745236Y0002103337D01*
X0001743810Y0002100669D01*
X0001742655Y0002099262D01*
X0001739377Y0002095267D01*
X0001735383Y0002091989D01*
X0001733976Y0002090835D01*
X0001733975Y0002090835D01*
X0001727813Y0002087541D01*
X0001725584Y0002086865D01*
X0001721127Y0002085512D01*
X0001718521Y0002085256D01*
X0001715915Y0002084999D01*
X0001712430Y0002084999D01*
X0001709825Y0002085256D01*
X0001707219Y0002085512D01*
X0001702761Y0002086865D01*
X0001700532Y0002087541D01*
X0001694370Y0002090835D01*
X0001694370Y0002090835D01*
X0001692963Y0002091989D01*
X0001688969Y0002095267D01*
X0001685691Y0002099262D01*
X0001684536Y0002100669D01*
X0001683110Y0002103337D01*
X0001681242Y0002106831D01*
X0001680362Y0002109732D01*
X0001679214Y0002113518D01*
X0001678529Y0002120472D01*
X0001679214Y0002127425D01*
X0001680727Y0002132415D01*
X0001681242Y0002134112D01*
X0001684536Y0002140274D01*
X0001684536Y0002140274D01*
X0001685691Y0002141681D01*
X0001688969Y0002145676D01*
X0001692963Y0002148954D01*
X0001694370Y0002150109D01*
X0001699797Y0002153010D01*
X0001700532Y0002153402D01*
X0001702761Y0002154079D01*
X0001707219Y0002155431D01*
X0001709825Y0002155687D01*
X0001712430Y0002155944D01*
X0001715915Y0002155944D01*
X0001718521Y0002155687D01*
X0001718521Y0002155687D01*
G37*
G36*
X0000981479Y0002138657D02*
X0000982817Y0002138251D01*
X0000984050Y0002137592D01*
X0000985131Y0002136705D01*
X0000986018Y0002135625D01*
X0000986677Y0002134392D01*
X0000987083Y0002133054D01*
X0000987244Y0002131421D01*
X0000987244Y0002104798D01*
X0000987083Y0002103165D01*
X0000986677Y0002101827D01*
X0000986018Y0002100594D01*
X0000985131Y0002099513D01*
X0000984050Y0002098627D01*
X0000982817Y0002097967D01*
X0000981479Y0002097562D01*
X0000979846Y0002097401D01*
X0000956176Y0002097401D01*
X0000954543Y0002097562D01*
X0000953205Y0002097967D01*
X0000951972Y0002098627D01*
X0000950892Y0002099513D01*
X0000950005Y0002100594D01*
X0000949346Y0002101827D01*
X0000948940Y0002103165D01*
X0000948779Y0002104798D01*
X0000948779Y0002131421D01*
X0000948940Y0002133054D01*
X0000949346Y0002134392D01*
X0000950005Y0002135625D01*
X0000950892Y0002136705D01*
X0000951972Y0002137592D01*
X0000953205Y0002138251D01*
X0000954543Y0002138657D01*
X0000956176Y0002138818D01*
X0000979846Y0002138818D01*
X0000981479Y0002138657D01*
X0000981479Y0002138657D01*
G37*
G36*
X0000919472Y0002138657D02*
X0000920809Y0002138251D01*
X0000922042Y0002137592D01*
X0000923123Y0002136705D01*
X0000924010Y0002135625D01*
X0000924669Y0002134392D01*
X0000925075Y0002133054D01*
X0000925236Y0002131421D01*
X0000925236Y0002104798D01*
X0000925075Y0002103165D01*
X0000924669Y0002101827D01*
X0000924010Y0002100594D01*
X0000923123Y0002099513D01*
X0000922042Y0002098627D01*
X0000920809Y0002097967D01*
X0000919472Y0002097562D01*
X0000917838Y0002097401D01*
X0000894168Y0002097401D01*
X0000892535Y0002097562D01*
X0000891198Y0002097967D01*
X0000889965Y0002098627D01*
X0000888884Y0002099513D01*
X0000887997Y0002100594D01*
X0000887338Y0002101827D01*
X0000886932Y0002103165D01*
X0000886771Y0002104798D01*
X0000886771Y0002131421D01*
X0000886932Y0002133054D01*
X0000887338Y0002134392D01*
X0000887997Y0002135625D01*
X0000888884Y0002136705D01*
X0000889965Y0002137592D01*
X0000891198Y0002138251D01*
X0000892535Y0002138657D01*
X0000894168Y0002138818D01*
X0000917838Y0002138818D01*
X0000919472Y0002138657D01*
X0000919472Y0002138657D01*
G37*
G36*
X0000197261Y0002174585D02*
X0000199867Y0002174328D01*
X0000204324Y0002172976D01*
X0000206553Y0002172300D01*
X0000212011Y0002169383D01*
X0000212716Y0002169006D01*
X0000214123Y0002167852D01*
X0000218117Y0002164573D01*
X0000221272Y0002160730D01*
X0000222550Y0002159172D01*
X0000222550Y0002159172D01*
X0000225844Y0002153010D01*
X0000225844Y0002153010D01*
X0000227872Y0002146323D01*
X0000228557Y0002139369D01*
X0000227872Y0002132415D01*
X0000226897Y0002129202D01*
X0000225844Y0002125729D01*
X0000223034Y0002120472D01*
X0000222550Y0002119567D01*
X0000221395Y0002118160D01*
X0000218117Y0002114165D01*
X0000214123Y0002110887D01*
X0000212716Y0002109732D01*
X0000212716Y0002109732D01*
X0000206553Y0002106438D01*
X0000204324Y0002105762D01*
X0000199867Y0002104410D01*
X0000197261Y0002104153D01*
X0000194655Y0002103897D01*
X0000191170Y0002103897D01*
X0000188565Y0002104153D01*
X0000185959Y0002104410D01*
X0000181501Y0002105762D01*
X0000179272Y0002106438D01*
X0000173110Y0002109732D01*
X0000173110Y0002109732D01*
X0000171703Y0002110887D01*
X0000167709Y0002114165D01*
X0000164431Y0002118160D01*
X0000163276Y0002119567D01*
X0000162792Y0002120472D01*
X0000159982Y0002125729D01*
X0000158929Y0002129202D01*
X0000157954Y0002132415D01*
X0000157269Y0002139369D01*
X0000157954Y0002146323D01*
X0000159982Y0002153010D01*
X0000159982Y0002153010D01*
X0000163276Y0002159172D01*
X0000163276Y0002159172D01*
X0000164554Y0002160730D01*
X0000167709Y0002164573D01*
X0000171703Y0002167852D01*
X0000173110Y0002169006D01*
X0000173815Y0002169383D01*
X0000179272Y0002172300D01*
X0000181501Y0002172976D01*
X0000185959Y0002174328D01*
X0000188565Y0002174585D01*
X0000191170Y0002174842D01*
X0000194655Y0002174842D01*
X0000197261Y0002174585D01*
X0000197261Y0002174585D01*
G37*
G36*
X0000981479Y0002197712D02*
X0000982817Y0002197307D01*
X0000984050Y0002196648D01*
X0000985131Y0002195761D01*
X0000986018Y0002194680D01*
X0000986677Y0002193447D01*
X0000987083Y0002192109D01*
X0000987244Y0002190476D01*
X0000987244Y0002163853D01*
X0000987083Y0002162220D01*
X0000986677Y0002160882D01*
X0000986018Y0002159649D01*
X0000985131Y0002158569D01*
X0000984050Y0002157682D01*
X0000982817Y0002157023D01*
X0000981479Y0002156617D01*
X0000979846Y0002156456D01*
X0000956176Y0002156456D01*
X0000954543Y0002156617D01*
X0000953205Y0002157023D01*
X0000951972Y0002157682D01*
X0000950892Y0002158569D01*
X0000950005Y0002159649D01*
X0000949346Y0002160882D01*
X0000948940Y0002162220D01*
X0000948779Y0002163853D01*
X0000948779Y0002190476D01*
X0000948940Y0002192109D01*
X0000949346Y0002193447D01*
X0000950005Y0002194680D01*
X0000950892Y0002195761D01*
X0000951972Y0002196648D01*
X0000953205Y0002197307D01*
X0000954543Y0002197712D01*
X0000956176Y0002197873D01*
X0000979846Y0002197873D01*
X0000981479Y0002197712D01*
X0000981479Y0002197712D01*
G37*
G36*
X0000919472Y0002197712D02*
X0000920809Y0002197307D01*
X0000922042Y0002196648D01*
X0000923123Y0002195761D01*
X0000924010Y0002194680D01*
X0000924669Y0002193447D01*
X0000925075Y0002192109D01*
X0000925236Y0002190476D01*
X0000925236Y0002163853D01*
X0000925075Y0002162220D01*
X0000924669Y0002160882D01*
X0000924010Y0002159649D01*
X0000923123Y0002158569D01*
X0000922042Y0002157682D01*
X0000920809Y0002157023D01*
X0000919472Y0002156617D01*
X0000917838Y0002156456D01*
X0000894168Y0002156456D01*
X0000892535Y0002156617D01*
X0000891198Y0002157023D01*
X0000889965Y0002157682D01*
X0000888884Y0002158569D01*
X0000887997Y0002159649D01*
X0000887338Y0002160882D01*
X0000886932Y0002162220D01*
X0000886771Y0002163853D01*
X0000886771Y0002190476D01*
X0000886932Y0002192109D01*
X0000887338Y0002193447D01*
X0000887997Y0002194680D01*
X0000888884Y0002195761D01*
X0000889965Y0002196648D01*
X0000891198Y0002197307D01*
X0000892535Y0002197712D01*
X0000894168Y0002197873D01*
X0000917838Y0002197873D01*
X0000919472Y0002197712D01*
X0000919472Y0002197712D01*
G37*
G36*
X0001718521Y0002255687D02*
X0001721127Y0002255431D01*
X0001725584Y0002254079D01*
X0001727813Y0002253402D01*
X0001731497Y0002251434D01*
X0001733976Y0002250109D01*
X0001735097Y0002249188D01*
X0001739377Y0002245676D01*
X0001742655Y0002241681D01*
X0001743810Y0002240274D01*
X0001743810Y0002240274D01*
X0001747104Y0002234112D01*
X0001747618Y0002232415D01*
X0001749132Y0002227425D01*
X0001749817Y0002220472D01*
X0001749132Y0002213518D01*
X0001747984Y0002209732D01*
X0001747104Y0002206831D01*
X0001744186Y0002201374D01*
X0001743810Y0002200669D01*
X0001742655Y0002199262D01*
X0001739377Y0002195267D01*
X0001735383Y0002191989D01*
X0001733976Y0002190835D01*
X0001733975Y0002190835D01*
X0001727813Y0002187541D01*
X0001725584Y0002186865D01*
X0001721127Y0002185512D01*
X0001718521Y0002185256D01*
X0001715915Y0002184999D01*
X0001712430Y0002184999D01*
X0001709825Y0002185256D01*
X0001707219Y0002185512D01*
X0001702761Y0002186865D01*
X0001700532Y0002187541D01*
X0001694370Y0002190835D01*
X0001694370Y0002190835D01*
X0001692963Y0002191989D01*
X0001688969Y0002195267D01*
X0001685691Y0002199262D01*
X0001684536Y0002200669D01*
X0001684159Y0002201374D01*
X0001681242Y0002206831D01*
X0001680362Y0002209732D01*
X0001679214Y0002213518D01*
X0001678529Y0002220472D01*
X0001679214Y0002227425D01*
X0001680727Y0002232415D01*
X0001681242Y0002234112D01*
X0001684536Y0002240274D01*
X0001684536Y0002240274D01*
X0001685691Y0002241681D01*
X0001688969Y0002245676D01*
X0001693248Y0002249188D01*
X0001694370Y0002250109D01*
X0001696849Y0002251434D01*
X0001700532Y0002253402D01*
X0001702761Y0002254079D01*
X0001707219Y0002255431D01*
X0001709825Y0002255687D01*
X0001712430Y0002255944D01*
X0001715915Y0002255944D01*
X0001718521Y0002255687D01*
X0001718521Y0002255687D01*
G37*
G36*
X0001649645Y0002184999D02*
X0001578700Y0002184999D01*
X0001578700Y0002255944D01*
X0001649645Y0002255944D01*
X0001649645Y0002184999D01*
X0001649645Y0002184999D01*
G37*
G36*
X0000197261Y0002274585D02*
X0000199867Y0002274328D01*
X0000204324Y0002272976D01*
X0000206553Y0002272300D01*
X0000212011Y0002269383D01*
X0000212716Y0002269006D01*
X0000214123Y0002267852D01*
X0000218117Y0002264573D01*
X0000221395Y0002260579D01*
X0000222550Y0002259172D01*
X0000222550Y0002259172D01*
X0000225844Y0002253010D01*
X0000226368Y0002251281D01*
X0000227872Y0002246323D01*
X0000228557Y0002239369D01*
X0000227872Y0002232415D01*
X0000226520Y0002227958D01*
X0000225844Y0002225729D01*
X0000224336Y0002222908D01*
X0000222550Y0002219567D01*
X0000221842Y0002218704D01*
X0000218117Y0002214165D01*
X0000214123Y0002210887D01*
X0000212716Y0002209732D01*
X0000212716Y0002209732D01*
X0000206553Y0002206438D01*
X0000204324Y0002205762D01*
X0000199867Y0002204410D01*
X0000197261Y0002204154D01*
X0000194655Y0002203897D01*
X0000191170Y0002203897D01*
X0000188565Y0002204154D01*
X0000185959Y0002204410D01*
X0000181501Y0002205762D01*
X0000179272Y0002206438D01*
X0000173110Y0002209732D01*
X0000173110Y0002209732D01*
X0000171703Y0002210887D01*
X0000167709Y0002214165D01*
X0000163983Y0002218704D01*
X0000163276Y0002219567D01*
X0000161490Y0002222908D01*
X0000159982Y0002225729D01*
X0000159306Y0002227958D01*
X0000157954Y0002232415D01*
X0000157269Y0002239369D01*
X0000157954Y0002246323D01*
X0000159458Y0002251281D01*
X0000159982Y0002253010D01*
X0000163276Y0002259172D01*
X0000163276Y0002259172D01*
X0000164431Y0002260579D01*
X0000167709Y0002264573D01*
X0000171703Y0002267852D01*
X0000173110Y0002269006D01*
X0000173815Y0002269383D01*
X0000179272Y0002272300D01*
X0000181501Y0002272976D01*
X0000185959Y0002274328D01*
X0000188565Y0002274585D01*
X0000191170Y0002274842D01*
X0000194655Y0002274842D01*
X0000197261Y0002274585D01*
X0000197261Y0002274585D01*
G37*
G36*
X0000919964Y0002256768D02*
X0000921301Y0002256362D01*
X0000922534Y0002255703D01*
X0000923615Y0002254816D01*
X0000924502Y0002253735D01*
X0000925161Y0002252502D01*
X0000925567Y0002251164D01*
X0000925728Y0002249531D01*
X0000925728Y0002222908D01*
X0000925567Y0002221275D01*
X0000925161Y0002219937D01*
X0000924502Y0002218704D01*
X0000923615Y0002217624D01*
X0000922534Y0002216737D01*
X0000921301Y0002216078D01*
X0000919964Y0002215672D01*
X0000918331Y0002215511D01*
X0000894661Y0002215511D01*
X0000893027Y0002215672D01*
X0000891690Y0002216078D01*
X0000890457Y0002216737D01*
X0000889376Y0002217624D01*
X0000888489Y0002218704D01*
X0000887830Y0002219937D01*
X0000887424Y0002221275D01*
X0000887263Y0002222908D01*
X0000887263Y0002249531D01*
X0000887424Y0002251164D01*
X0000887830Y0002252502D01*
X0000888489Y0002253735D01*
X0000889376Y0002254816D01*
X0000890457Y0002255703D01*
X0000891690Y0002256362D01*
X0000893027Y0002256768D01*
X0000894661Y0002256928D01*
X0000918331Y0002256928D01*
X0000919964Y0002256768D01*
X0000919964Y0002256768D01*
G37*
G36*
X0000981972Y0002256768D02*
X0000983309Y0002256362D01*
X0000984542Y0002255703D01*
X0000985623Y0002254816D01*
X0000986510Y0002253735D01*
X0000987169Y0002252502D01*
X0000987575Y0002251164D01*
X0000987736Y0002249531D01*
X0000987736Y0002222908D01*
X0000987575Y0002221275D01*
X0000987169Y0002219937D01*
X0000986510Y0002218704D01*
X0000985623Y0002217624D01*
X0000984542Y0002216737D01*
X0000983309Y0002216078D01*
X0000981972Y0002215672D01*
X0000980338Y0002215511D01*
X0000956668Y0002215511D01*
X0000955035Y0002215672D01*
X0000953698Y0002216078D01*
X0000952465Y0002216737D01*
X0000951384Y0002217624D01*
X0000950497Y0002218704D01*
X0000949838Y0002219937D01*
X0000949432Y0002221275D01*
X0000949271Y0002222908D01*
X0000949271Y0002249531D01*
X0000949432Y0002251164D01*
X0000949838Y0002252502D01*
X0000950497Y0002253735D01*
X0000951384Y0002254816D01*
X0000952465Y0002255703D01*
X0000953698Y0002256362D01*
X0000955035Y0002256768D01*
X0000956668Y0002256928D01*
X0000980338Y0002256928D01*
X0000981972Y0002256768D01*
X0000981972Y0002256768D01*
G37*
G36*
X0000536598Y0002288264D02*
X0000537935Y0002287858D01*
X0000539168Y0002287199D01*
X0000540249Y0002286312D01*
X0000541136Y0002285231D01*
X0000541795Y0002283998D01*
X0000542201Y0002282660D01*
X0000542362Y0002281027D01*
X0000542362Y0002254404D01*
X0000542201Y0002252771D01*
X0000541795Y0002251434D01*
X0000541136Y0002250201D01*
X0000540249Y0002249120D01*
X0000539168Y0002248233D01*
X0000537935Y0002247574D01*
X0000536598Y0002247168D01*
X0000534964Y0002247007D01*
X0000511294Y0002247007D01*
X0000509661Y0002247168D01*
X0000508324Y0002247574D01*
X0000507091Y0002248233D01*
X0000506010Y0002249120D01*
X0000505123Y0002250201D01*
X0000504464Y0002251434D01*
X0000504058Y0002252771D01*
X0000503897Y0002254404D01*
X0000503897Y0002281027D01*
X0000504058Y0002282660D01*
X0000504464Y0002283998D01*
X0000505123Y0002285231D01*
X0000506010Y0002286312D01*
X0000507091Y0002287199D01*
X0000508324Y0002287858D01*
X0000509661Y0002288264D01*
X0000511294Y0002288424D01*
X0000534964Y0002288424D01*
X0000536598Y0002288264D01*
X0000536598Y0002288264D01*
G37*
G36*
X0000474590Y0002288264D02*
X0000475927Y0002287858D01*
X0000477160Y0002287199D01*
X0000478241Y0002286312D01*
X0000479128Y0002285231D01*
X0000479787Y0002283998D01*
X0000480193Y0002282660D01*
X0000480354Y0002281027D01*
X0000480354Y0002254404D01*
X0000480193Y0002252771D01*
X0000479787Y0002251434D01*
X0000479128Y0002250201D01*
X0000478241Y0002249120D01*
X0000477160Y0002248233D01*
X0000475927Y0002247574D01*
X0000474590Y0002247168D01*
X0000472957Y0002247007D01*
X0000449287Y0002247007D01*
X0000447653Y0002247168D01*
X0000446316Y0002247574D01*
X0000445083Y0002248233D01*
X0000444002Y0002249120D01*
X0000443115Y0002250201D01*
X0000442456Y0002251434D01*
X0000442050Y0002252771D01*
X0000441889Y0002254404D01*
X0000441889Y0002281027D01*
X0000442050Y0002282660D01*
X0000442456Y0002283998D01*
X0000443115Y0002285231D01*
X0000444002Y0002286312D01*
X0000445083Y0002287199D01*
X0000446316Y0002287858D01*
X0000447653Y0002288264D01*
X0000449287Y0002288424D01*
X0000472957Y0002288424D01*
X0000474590Y0002288264D01*
X0000474590Y0002288264D01*
G37*
G36*
X0000919472Y0002315823D02*
X0000920809Y0002315417D01*
X0000922042Y0002314758D01*
X0000923123Y0002313871D01*
X0000924010Y0002312790D01*
X0000924669Y0002311557D01*
X0000925075Y0002310219D01*
X0000925236Y0002308586D01*
X0000925236Y0002281963D01*
X0000925075Y0002280330D01*
X0000924669Y0002278993D01*
X0000924010Y0002277760D01*
X0000923123Y0002276679D01*
X0000922042Y0002275792D01*
X0000920809Y0002275133D01*
X0000919472Y0002274727D01*
X0000917838Y0002274566D01*
X0000894168Y0002274566D01*
X0000892535Y0002274727D01*
X0000891198Y0002275133D01*
X0000889965Y0002275792D01*
X0000888884Y0002276679D01*
X0000887997Y0002277760D01*
X0000887338Y0002278993D01*
X0000886932Y0002280330D01*
X0000886771Y0002281963D01*
X0000886771Y0002308586D01*
X0000886932Y0002310219D01*
X0000887338Y0002311557D01*
X0000887997Y0002312790D01*
X0000888884Y0002313871D01*
X0000889965Y0002314758D01*
X0000891198Y0002315417D01*
X0000892535Y0002315823D01*
X0000894168Y0002315983D01*
X0000917838Y0002315983D01*
X0000919472Y0002315823D01*
X0000919472Y0002315823D01*
G37*
G36*
X0000981479Y0002315823D02*
X0000982817Y0002315417D01*
X0000984050Y0002314758D01*
X0000985131Y0002313871D01*
X0000986018Y0002312790D01*
X0000986677Y0002311557D01*
X0000987083Y0002310219D01*
X0000987244Y0002308586D01*
X0000987244Y0002281963D01*
X0000987083Y0002280330D01*
X0000986677Y0002278993D01*
X0000986018Y0002277760D01*
X0000985131Y0002276679D01*
X0000984050Y0002275792D01*
X0000982817Y0002275133D01*
X0000981479Y0002274727D01*
X0000979846Y0002274566D01*
X0000956176Y0002274566D01*
X0000954543Y0002274727D01*
X0000953205Y0002275133D01*
X0000951972Y0002275792D01*
X0000950892Y0002276679D01*
X0000950005Y0002277760D01*
X0000949346Y0002278993D01*
X0000948940Y0002280330D01*
X0000948779Y0002281963D01*
X0000948779Y0002308586D01*
X0000948940Y0002310219D01*
X0000949346Y0002311557D01*
X0000950005Y0002312790D01*
X0000950892Y0002313871D01*
X0000951972Y0002314758D01*
X0000953205Y0002315417D01*
X0000954543Y0002315823D01*
X0000956176Y0002315983D01*
X0000979846Y0002315983D01*
X0000981479Y0002315823D01*
X0000981479Y0002315823D01*
G37*
G36*
X0000704173Y0002290314D02*
X0000676535Y0002290314D01*
X0000676535Y0002355354D01*
X0000704173Y0002355354D01*
X0000704173Y0002290314D01*
X0000704173Y0002290314D01*
G37*
G36*
X0000754173Y0002290314D02*
X0000726535Y0002290314D01*
X0000726535Y0002355354D01*
X0000754173Y0002355354D01*
X0000754173Y0002290314D01*
X0000754173Y0002290314D01*
G37*
G36*
X0000654173Y0002290314D02*
X0000626535Y0002290314D01*
X0000626535Y0002355354D01*
X0000654173Y0002355354D01*
X0000654173Y0002290314D01*
X0000654173Y0002290314D01*
G37*
G36*
X0000604173Y0002290314D02*
X0000576535Y0002290314D01*
X0000576535Y0002355354D01*
X0000604173Y0002355354D01*
X0000604173Y0002290314D01*
X0000604173Y0002290314D01*
G37*
G36*
X0000197261Y0002374585D02*
X0000199867Y0002374328D01*
X0000204324Y0002372976D01*
X0000206553Y0002372300D01*
X0000207404Y0002371845D01*
X0000212716Y0002369006D01*
X0000214123Y0002367852D01*
X0000218117Y0002364573D01*
X0000221395Y0002360579D01*
X0000222550Y0002359172D01*
X0000222550Y0002359172D01*
X0000225844Y0002353010D01*
X0000225844Y0002353010D01*
X0000227872Y0002346323D01*
X0000228557Y0002339369D01*
X0000227872Y0002332415D01*
X0000226520Y0002327958D01*
X0000225844Y0002325729D01*
X0000222927Y0002320271D01*
X0000222550Y0002319567D01*
X0000221395Y0002318160D01*
X0000218117Y0002314165D01*
X0000214939Y0002311557D01*
X0000212716Y0002309732D01*
X0000212716Y0002309732D01*
X0000206553Y0002306438D01*
X0000204324Y0002305762D01*
X0000199867Y0002304410D01*
X0000197261Y0002304153D01*
X0000194655Y0002303897D01*
X0000191170Y0002303897D01*
X0000188565Y0002304153D01*
X0000185959Y0002304410D01*
X0000181501Y0002305762D01*
X0000179272Y0002306438D01*
X0000173110Y0002309732D01*
X0000173110Y0002309732D01*
X0000170887Y0002311557D01*
X0000167709Y0002314165D01*
X0000164431Y0002318160D01*
X0000163276Y0002319567D01*
X0000162899Y0002320271D01*
X0000159982Y0002325729D01*
X0000159306Y0002327958D01*
X0000157954Y0002332415D01*
X0000157269Y0002339369D01*
X0000157954Y0002346323D01*
X0000159982Y0002353010D01*
X0000159982Y0002353010D01*
X0000163276Y0002359172D01*
X0000163276Y0002359172D01*
X0000164431Y0002360579D01*
X0000167709Y0002364573D01*
X0000171703Y0002367852D01*
X0000173110Y0002369006D01*
X0000178421Y0002371845D01*
X0000179272Y0002372300D01*
X0000181501Y0002372976D01*
X0000185959Y0002374328D01*
X0000188565Y0002374585D01*
X0000191170Y0002374842D01*
X0000194655Y0002374842D01*
X0000197261Y0002374585D01*
X0000197261Y0002374585D01*
G37*
G36*
X0000919472Y0002374878D02*
X0000920809Y0002374472D01*
X0000922042Y0002373813D01*
X0000923123Y0002372926D01*
X0000924010Y0002371845D01*
X0000924669Y0002370612D01*
X0000925075Y0002369274D01*
X0000925236Y0002367641D01*
X0000925236Y0002341019D01*
X0000925075Y0002339385D01*
X0000924669Y0002338048D01*
X0000924010Y0002336815D01*
X0000923123Y0002335734D01*
X0000922042Y0002334847D01*
X0000920809Y0002334188D01*
X0000919472Y0002333782D01*
X0000917838Y0002333621D01*
X0000894168Y0002333621D01*
X0000892535Y0002333782D01*
X0000891198Y0002334188D01*
X0000889965Y0002334847D01*
X0000888884Y0002335734D01*
X0000887997Y0002336815D01*
X0000887338Y0002338048D01*
X0000886932Y0002339385D01*
X0000886771Y0002341019D01*
X0000886771Y0002367641D01*
X0000886932Y0002369274D01*
X0000887338Y0002370612D01*
X0000887997Y0002371845D01*
X0000888884Y0002372926D01*
X0000889965Y0002373813D01*
X0000891198Y0002374472D01*
X0000892535Y0002374878D01*
X0000894168Y0002375039D01*
X0000917838Y0002375039D01*
X0000919472Y0002374878D01*
X0000919472Y0002374878D01*
G37*
G36*
X0000981479Y0002374878D02*
X0000982817Y0002374472D01*
X0000984050Y0002373813D01*
X0000985131Y0002372926D01*
X0000986018Y0002371845D01*
X0000986677Y0002370612D01*
X0000987083Y0002369274D01*
X0000987244Y0002367641D01*
X0000987244Y0002341019D01*
X0000987083Y0002339385D01*
X0000986677Y0002338048D01*
X0000986018Y0002336815D01*
X0000985131Y0002335734D01*
X0000984050Y0002334847D01*
X0000982817Y0002334188D01*
X0000981479Y0002333782D01*
X0000979846Y0002333621D01*
X0000956176Y0002333621D01*
X0000954543Y0002333782D01*
X0000953205Y0002334188D01*
X0000951972Y0002334847D01*
X0000950892Y0002335734D01*
X0000950005Y0002336815D01*
X0000949346Y0002338048D01*
X0000948940Y0002339385D01*
X0000948779Y0002341019D01*
X0000948779Y0002367641D01*
X0000948940Y0002369274D01*
X0000949346Y0002370612D01*
X0000950005Y0002371845D01*
X0000950892Y0002372926D01*
X0000951972Y0002373813D01*
X0000953205Y0002374472D01*
X0000954543Y0002374878D01*
X0000956176Y0002375039D01*
X0000979846Y0002375039D01*
X0000981479Y0002374878D01*
X0000981479Y0002374878D01*
G37*
G36*
X0000197261Y0002474585D02*
X0000199867Y0002474328D01*
X0000204324Y0002472976D01*
X0000206553Y0002472300D01*
X0000212011Y0002469383D01*
X0000212716Y0002469006D01*
X0000214123Y0002467852D01*
X0000218117Y0002464573D01*
X0000221395Y0002460579D01*
X0000222550Y0002459172D01*
X0000222550Y0002459172D01*
X0000225844Y0002453010D01*
X0000225844Y0002453010D01*
X0000227872Y0002446323D01*
X0000228557Y0002439369D01*
X0000227872Y0002432415D01*
X0000226520Y0002427958D01*
X0000225844Y0002425729D01*
X0000222927Y0002420271D01*
X0000222550Y0002419567D01*
X0000221395Y0002418160D01*
X0000218117Y0002414165D01*
X0000214123Y0002410887D01*
X0000212716Y0002409732D01*
X0000212716Y0002409732D01*
X0000206553Y0002406438D01*
X0000204324Y0002405762D01*
X0000199867Y0002404410D01*
X0000197261Y0002404153D01*
X0000194655Y0002403897D01*
X0000191170Y0002403897D01*
X0000188565Y0002404153D01*
X0000185959Y0002404410D01*
X0000181501Y0002405762D01*
X0000179272Y0002406438D01*
X0000173110Y0002409732D01*
X0000173110Y0002409732D01*
X0000171703Y0002410887D01*
X0000167709Y0002414165D01*
X0000164431Y0002418160D01*
X0000163276Y0002419567D01*
X0000162899Y0002420271D01*
X0000159982Y0002425729D01*
X0000159306Y0002427958D01*
X0000157954Y0002432415D01*
X0000157269Y0002439369D01*
X0000157954Y0002446323D01*
X0000159982Y0002453010D01*
X0000159982Y0002453010D01*
X0000163276Y0002459172D01*
X0000163276Y0002459172D01*
X0000164431Y0002460579D01*
X0000167709Y0002464573D01*
X0000171703Y0002467852D01*
X0000173110Y0002469006D01*
X0000173815Y0002469383D01*
X0000179272Y0002472300D01*
X0000181501Y0002472976D01*
X0000185959Y0002474328D01*
X0000188565Y0002474585D01*
X0000191170Y0002474842D01*
X0000194655Y0002474842D01*
X0000197261Y0002474585D01*
X0000197261Y0002474585D01*
G37*
G36*
X0000228385Y0002503897D02*
X0000157440Y0002503897D01*
X0000157440Y0002574842D01*
X0000228385Y0002574842D01*
X0000228385Y0002503897D01*
X0000228385Y0002503897D01*
G37*
G04 next file*
G04 #@! TF.GenerationSoftware,KiCad,Pcbnew,(5.0.2)-1*
G04 #@! TF.CreationDate,2019-01-19T12:13:54+11:00*
G04 #@! TF.ProjectId,WarGames_SAO,57617247-616d-4657-935f-53414f2e6b69,rev?*
G04 #@! TF.SameCoordinates,Original*
G04 #@! TF.FileFunction,Soldermask,Bot*
G04 #@! TF.FilePolarity,Negative*
G04 Gerber Fmt 4.6, Leading zero omitted, Abs format (unit mm)*
G04 Created by KiCad (PCBNEW (5.0.2)-1) date 19/01/2019 12:13:54*
G01*
G04 APERTURE LIST*
G04 APERTURE END LIST*
D23*
G36*
X0002588425Y0002077716D02*
X0002560787Y0002077716D01*
X0002560787Y0002142755D01*
X0002588425Y0002142755D01*
X0002588425Y0002077716D01*
X0002588425Y0002077716D01*
G37*
G36*
X0002638425Y0002077716D02*
X0002610787Y0002077716D01*
X0002610787Y0002142755D01*
X0002638425Y0002142755D01*
X0002638425Y0002077716D01*
X0002638425Y0002077716D01*
G37*
G36*
X0002738425Y0002077716D02*
X0002710787Y0002077716D01*
X0002710787Y0002142755D01*
X0002738425Y0002142755D01*
X0002738425Y0002077716D01*
X0002738425Y0002077716D01*
G37*
G36*
X0002688425Y0002077716D02*
X0002660787Y0002077716D01*
X0002660787Y0002142755D01*
X0002688425Y0002142755D01*
X0002688425Y0002077716D01*
X0002688425Y0002077716D01*
G37*
G36*
X0003602773Y0002155687D02*
X0003605379Y0002155431D01*
X0003609836Y0002154079D01*
X0003612065Y0002153402D01*
X0003612800Y0002153010D01*
X0003618228Y0002150109D01*
X0003619635Y0002148954D01*
X0003623629Y0002145676D01*
X0003626907Y0002141681D01*
X0003628062Y0002140274D01*
X0003628062Y0002140274D01*
X0003631356Y0002134112D01*
X0003631870Y0002132415D01*
X0003633384Y0002127425D01*
X0003634069Y0002120472D01*
X0003633384Y0002113518D01*
X0003632236Y0002109732D01*
X0003631356Y0002106831D01*
X0003629488Y0002103337D01*
X0003628062Y0002100669D01*
X0003626907Y0002099262D01*
X0003623629Y0002095267D01*
X0003619635Y0002091989D01*
X0003618228Y0002090835D01*
X0003618227Y0002090835D01*
X0003612065Y0002087541D01*
X0003609836Y0002086865D01*
X0003605379Y0002085512D01*
X0003602773Y0002085256D01*
X0003600167Y0002084999D01*
X0003596682Y0002084999D01*
X0003594077Y0002085256D01*
X0003591471Y0002085512D01*
X0003587013Y0002086865D01*
X0003584784Y0002087541D01*
X0003578622Y0002090835D01*
X0003578622Y0002090835D01*
X0003577215Y0002091989D01*
X0003573221Y0002095267D01*
X0003569943Y0002099262D01*
X0003568788Y0002100669D01*
X0003567362Y0002103337D01*
X0003565494Y0002106831D01*
X0003564614Y0002109732D01*
X0003563466Y0002113518D01*
X0003562781Y0002120472D01*
X0003563466Y0002127425D01*
X0003564979Y0002132415D01*
X0003565494Y0002134112D01*
X0003568788Y0002140274D01*
X0003568788Y0002140274D01*
X0003569943Y0002141681D01*
X0003573221Y0002145676D01*
X0003577215Y0002148954D01*
X0003578622Y0002150109D01*
X0003584049Y0002153010D01*
X0003584784Y0002153402D01*
X0003587013Y0002154079D01*
X0003591471Y0002155431D01*
X0003594077Y0002155687D01*
X0003596682Y0002155944D01*
X0003600167Y0002155944D01*
X0003602773Y0002155687D01*
X0003602773Y0002155687D01*
G37*
G36*
X0003702773Y0002155687D02*
X0003705379Y0002155431D01*
X0003709836Y0002154079D01*
X0003712065Y0002153402D01*
X0003712800Y0002153010D01*
X0003718228Y0002150109D01*
X0003719635Y0002148954D01*
X0003723629Y0002145676D01*
X0003726907Y0002141681D01*
X0003728062Y0002140274D01*
X0003728062Y0002140274D01*
X0003731356Y0002134112D01*
X0003731870Y0002132415D01*
X0003733384Y0002127425D01*
X0003734069Y0002120472D01*
X0003733384Y0002113518D01*
X0003732236Y0002109732D01*
X0003731356Y0002106831D01*
X0003729488Y0002103337D01*
X0003728062Y0002100669D01*
X0003726907Y0002099262D01*
X0003723629Y0002095267D01*
X0003719635Y0002091989D01*
X0003718228Y0002090835D01*
X0003718227Y0002090835D01*
X0003712065Y0002087541D01*
X0003709836Y0002086865D01*
X0003705379Y0002085512D01*
X0003702773Y0002085256D01*
X0003700167Y0002084999D01*
X0003696682Y0002084999D01*
X0003694077Y0002085256D01*
X0003691471Y0002085512D01*
X0003687013Y0002086865D01*
X0003684784Y0002087541D01*
X0003678622Y0002090835D01*
X0003678622Y0002090835D01*
X0003677215Y0002091989D01*
X0003673221Y0002095267D01*
X0003669943Y0002099262D01*
X0003668788Y0002100669D01*
X0003667362Y0002103337D01*
X0003665494Y0002106831D01*
X0003664614Y0002109732D01*
X0003663466Y0002113518D01*
X0003662781Y0002120472D01*
X0003663466Y0002127425D01*
X0003664979Y0002132415D01*
X0003665494Y0002134112D01*
X0003668788Y0002140274D01*
X0003668788Y0002140274D01*
X0003669943Y0002141681D01*
X0003673221Y0002145676D01*
X0003677215Y0002148954D01*
X0003678622Y0002150109D01*
X0003684049Y0002153010D01*
X0003684784Y0002153402D01*
X0003687013Y0002154079D01*
X0003691471Y0002155431D01*
X0003694077Y0002155687D01*
X0003696682Y0002155944D01*
X0003700167Y0002155944D01*
X0003702773Y0002155687D01*
X0003702773Y0002155687D01*
G37*
G36*
X0002965731Y0002138657D02*
X0002967069Y0002138251D01*
X0002968302Y0002137592D01*
X0002969383Y0002136705D01*
X0002970270Y0002135625D01*
X0002970929Y0002134392D01*
X0002971335Y0002133054D01*
X0002971496Y0002131421D01*
X0002971496Y0002104798D01*
X0002971335Y0002103165D01*
X0002970929Y0002101827D01*
X0002970270Y0002100594D01*
X0002969383Y0002099513D01*
X0002968302Y0002098627D01*
X0002967069Y0002097967D01*
X0002965731Y0002097562D01*
X0002964098Y0002097401D01*
X0002940428Y0002097401D01*
X0002938795Y0002097562D01*
X0002937457Y0002097967D01*
X0002936224Y0002098627D01*
X0002935144Y0002099513D01*
X0002934257Y0002100594D01*
X0002933598Y0002101827D01*
X0002933192Y0002103165D01*
X0002933031Y0002104798D01*
X0002933031Y0002131421D01*
X0002933192Y0002133054D01*
X0002933598Y0002134392D01*
X0002934257Y0002135625D01*
X0002935144Y0002136705D01*
X0002936224Y0002137592D01*
X0002937457Y0002138251D01*
X0002938795Y0002138657D01*
X0002940428Y0002138818D01*
X0002964098Y0002138818D01*
X0002965731Y0002138657D01*
X0002965731Y0002138657D01*
G37*
G36*
X0002903724Y0002138657D02*
X0002905061Y0002138251D01*
X0002906294Y0002137592D01*
X0002907375Y0002136705D01*
X0002908262Y0002135625D01*
X0002908921Y0002134392D01*
X0002909327Y0002133054D01*
X0002909488Y0002131421D01*
X0002909488Y0002104798D01*
X0002909327Y0002103165D01*
X0002908921Y0002101827D01*
X0002908262Y0002100594D01*
X0002907375Y0002099513D01*
X0002906294Y0002098627D01*
X0002905061Y0002097967D01*
X0002903724Y0002097562D01*
X0002902090Y0002097401D01*
X0002878420Y0002097401D01*
X0002876787Y0002097562D01*
X0002875450Y0002097967D01*
X0002874217Y0002098627D01*
X0002873136Y0002099513D01*
X0002872249Y0002100594D01*
X0002871590Y0002101827D01*
X0002871184Y0002103165D01*
X0002871023Y0002104798D01*
X0002871023Y0002131421D01*
X0002871184Y0002133054D01*
X0002871590Y0002134392D01*
X0002872249Y0002135625D01*
X0002873136Y0002136705D01*
X0002874217Y0002137592D01*
X0002875450Y0002138251D01*
X0002876787Y0002138657D01*
X0002878420Y0002138818D01*
X0002902090Y0002138818D01*
X0002903724Y0002138657D01*
X0002903724Y0002138657D01*
G37*
G36*
X0002181513Y0002174585D02*
X0002184119Y0002174328D01*
X0002188576Y0002172976D01*
X0002190805Y0002172300D01*
X0002196263Y0002169383D01*
X0002196968Y0002169006D01*
X0002198375Y0002167852D01*
X0002202369Y0002164573D01*
X0002205524Y0002160730D01*
X0002206802Y0002159172D01*
X0002206802Y0002159172D01*
X0002210096Y0002153010D01*
X0002210096Y0002153010D01*
X0002212124Y0002146323D01*
X0002212809Y0002139369D01*
X0002212124Y0002132415D01*
X0002211149Y0002129202D01*
X0002210096Y0002125729D01*
X0002207286Y0002120472D01*
X0002206802Y0002119567D01*
X0002205647Y0002118160D01*
X0002202369Y0002114165D01*
X0002198375Y0002110887D01*
X0002196968Y0002109732D01*
X0002196968Y0002109732D01*
X0002190805Y0002106438D01*
X0002188576Y0002105762D01*
X0002184119Y0002104410D01*
X0002181513Y0002104153D01*
X0002178907Y0002103897D01*
X0002175422Y0002103897D01*
X0002172817Y0002104153D01*
X0002170211Y0002104410D01*
X0002165753Y0002105762D01*
X0002163524Y0002106438D01*
X0002157362Y0002109732D01*
X0002157362Y0002109732D01*
X0002155955Y0002110887D01*
X0002151961Y0002114165D01*
X0002148683Y0002118160D01*
X0002147528Y0002119567D01*
X0002147044Y0002120472D01*
X0002144234Y0002125729D01*
X0002143181Y0002129202D01*
X0002142206Y0002132415D01*
X0002141521Y0002139369D01*
X0002142206Y0002146323D01*
X0002144234Y0002153010D01*
X0002144234Y0002153010D01*
X0002147528Y0002159172D01*
X0002147528Y0002159172D01*
X0002148806Y0002160730D01*
X0002151961Y0002164573D01*
X0002155955Y0002167852D01*
X0002157362Y0002169006D01*
X0002158067Y0002169383D01*
X0002163524Y0002172300D01*
X0002165753Y0002172976D01*
X0002170211Y0002174328D01*
X0002172817Y0002174585D01*
X0002175422Y0002174842D01*
X0002178907Y0002174842D01*
X0002181513Y0002174585D01*
X0002181513Y0002174585D01*
G37*
G36*
X0002965731Y0002197712D02*
X0002967069Y0002197307D01*
X0002968302Y0002196648D01*
X0002969383Y0002195761D01*
X0002970270Y0002194680D01*
X0002970929Y0002193447D01*
X0002971335Y0002192109D01*
X0002971496Y0002190476D01*
X0002971496Y0002163853D01*
X0002971335Y0002162220D01*
X0002970929Y0002160882D01*
X0002970270Y0002159649D01*
X0002969383Y0002158569D01*
X0002968302Y0002157682D01*
X0002967069Y0002157023D01*
X0002965731Y0002156617D01*
X0002964098Y0002156456D01*
X0002940428Y0002156456D01*
X0002938795Y0002156617D01*
X0002937457Y0002157023D01*
X0002936224Y0002157682D01*
X0002935144Y0002158569D01*
X0002934257Y0002159649D01*
X0002933598Y0002160882D01*
X0002933192Y0002162220D01*
X0002933031Y0002163853D01*
X0002933031Y0002190476D01*
X0002933192Y0002192109D01*
X0002933598Y0002193447D01*
X0002934257Y0002194680D01*
X0002935144Y0002195761D01*
X0002936224Y0002196648D01*
X0002937457Y0002197307D01*
X0002938795Y0002197712D01*
X0002940428Y0002197873D01*
X0002964098Y0002197873D01*
X0002965731Y0002197712D01*
X0002965731Y0002197712D01*
G37*
G36*
X0002903724Y0002197712D02*
X0002905061Y0002197307D01*
X0002906294Y0002196648D01*
X0002907375Y0002195761D01*
X0002908262Y0002194680D01*
X0002908921Y0002193447D01*
X0002909327Y0002192109D01*
X0002909488Y0002190476D01*
X0002909488Y0002163853D01*
X0002909327Y0002162220D01*
X0002908921Y0002160882D01*
X0002908262Y0002159649D01*
X0002907375Y0002158569D01*
X0002906294Y0002157682D01*
X0002905061Y0002157023D01*
X0002903724Y0002156617D01*
X0002902090Y0002156456D01*
X0002878420Y0002156456D01*
X0002876787Y0002156617D01*
X0002875450Y0002157023D01*
X0002874217Y0002157682D01*
X0002873136Y0002158569D01*
X0002872249Y0002159649D01*
X0002871590Y0002160882D01*
X0002871184Y0002162220D01*
X0002871023Y0002163853D01*
X0002871023Y0002190476D01*
X0002871184Y0002192109D01*
X0002871590Y0002193447D01*
X0002872249Y0002194680D01*
X0002873136Y0002195761D01*
X0002874217Y0002196648D01*
X0002875450Y0002197307D01*
X0002876787Y0002197712D01*
X0002878420Y0002197873D01*
X0002902090Y0002197873D01*
X0002903724Y0002197712D01*
X0002903724Y0002197712D01*
G37*
G36*
X0003702773Y0002255687D02*
X0003705379Y0002255431D01*
X0003709836Y0002254079D01*
X0003712065Y0002253402D01*
X0003715749Y0002251434D01*
X0003718228Y0002250109D01*
X0003719349Y0002249188D01*
X0003723629Y0002245676D01*
X0003726907Y0002241681D01*
X0003728062Y0002240274D01*
X0003728062Y0002240274D01*
X0003731356Y0002234112D01*
X0003731870Y0002232415D01*
X0003733384Y0002227425D01*
X0003734069Y0002220472D01*
X0003733384Y0002213518D01*
X0003732236Y0002209732D01*
X0003731356Y0002206831D01*
X0003728438Y0002201374D01*
X0003728062Y0002200669D01*
X0003726907Y0002199262D01*
X0003723629Y0002195267D01*
X0003719635Y0002191989D01*
X0003718228Y0002190835D01*
X0003718227Y0002190835D01*
X0003712065Y0002187541D01*
X0003709836Y0002186865D01*
X0003705379Y0002185512D01*
X0003702773Y0002185256D01*
X0003700167Y0002184999D01*
X0003696682Y0002184999D01*
X0003694077Y0002185256D01*
X0003691471Y0002185512D01*
X0003687013Y0002186865D01*
X0003684784Y0002187541D01*
X0003678622Y0002190835D01*
X0003678622Y0002190835D01*
X0003677215Y0002191989D01*
X0003673221Y0002195267D01*
X0003669943Y0002199262D01*
X0003668788Y0002200669D01*
X0003668411Y0002201374D01*
X0003665494Y0002206831D01*
X0003664614Y0002209732D01*
X0003663466Y0002213518D01*
X0003662781Y0002220472D01*
X0003663466Y0002227425D01*
X0003664979Y0002232415D01*
X0003665494Y0002234112D01*
X0003668788Y0002240274D01*
X0003668788Y0002240274D01*
X0003669943Y0002241681D01*
X0003673221Y0002245676D01*
X0003677500Y0002249188D01*
X0003678622Y0002250109D01*
X0003681101Y0002251434D01*
X0003684784Y0002253402D01*
X0003687013Y0002254079D01*
X0003691471Y0002255431D01*
X0003694077Y0002255687D01*
X0003696682Y0002255944D01*
X0003700167Y0002255944D01*
X0003702773Y0002255687D01*
X0003702773Y0002255687D01*
G37*
G36*
X0003633897Y0002184999D02*
X0003562952Y0002184999D01*
X0003562952Y0002255944D01*
X0003633897Y0002255944D01*
X0003633897Y0002184999D01*
X0003633897Y0002184999D01*
G37*
G36*
X0002181513Y0002274585D02*
X0002184119Y0002274328D01*
X0002188576Y0002272976D01*
X0002190805Y0002272300D01*
X0002196263Y0002269383D01*
X0002196968Y0002269006D01*
X0002198375Y0002267852D01*
X0002202369Y0002264573D01*
X0002205647Y0002260579D01*
X0002206802Y0002259172D01*
X0002206802Y0002259172D01*
X0002210096Y0002253010D01*
X0002210620Y0002251281D01*
X0002212124Y0002246323D01*
X0002212809Y0002239369D01*
X0002212124Y0002232415D01*
X0002210772Y0002227958D01*
X0002210096Y0002225729D01*
X0002208588Y0002222908D01*
X0002206802Y0002219567D01*
X0002206094Y0002218704D01*
X0002202369Y0002214165D01*
X0002198375Y0002210887D01*
X0002196968Y0002209732D01*
X0002196968Y0002209732D01*
X0002190805Y0002206438D01*
X0002188576Y0002205762D01*
X0002184119Y0002204410D01*
X0002181513Y0002204154D01*
X0002178907Y0002203897D01*
X0002175422Y0002203897D01*
X0002172817Y0002204154D01*
X0002170211Y0002204410D01*
X0002165753Y0002205762D01*
X0002163524Y0002206438D01*
X0002157362Y0002209732D01*
X0002157362Y0002209732D01*
X0002155955Y0002210887D01*
X0002151961Y0002214165D01*
X0002148235Y0002218704D01*
X0002147528Y0002219567D01*
X0002145742Y0002222908D01*
X0002144234Y0002225729D01*
X0002143558Y0002227958D01*
X0002142206Y0002232415D01*
X0002141521Y0002239369D01*
X0002142206Y0002246323D01*
X0002143710Y0002251281D01*
X0002144234Y0002253010D01*
X0002147528Y0002259172D01*
X0002147528Y0002259172D01*
X0002148683Y0002260579D01*
X0002151961Y0002264573D01*
X0002155955Y0002267852D01*
X0002157362Y0002269006D01*
X0002158067Y0002269383D01*
X0002163524Y0002272300D01*
X0002165753Y0002272976D01*
X0002170211Y0002274328D01*
X0002172817Y0002274585D01*
X0002175422Y0002274842D01*
X0002178907Y0002274842D01*
X0002181513Y0002274585D01*
X0002181513Y0002274585D01*
G37*
G36*
X0002904216Y0002256768D02*
X0002905553Y0002256362D01*
X0002906786Y0002255703D01*
X0002907867Y0002254816D01*
X0002908754Y0002253735D01*
X0002909413Y0002252502D01*
X0002909819Y0002251164D01*
X0002909980Y0002249531D01*
X0002909980Y0002222908D01*
X0002909819Y0002221275D01*
X0002909413Y0002219937D01*
X0002908754Y0002218704D01*
X0002907867Y0002217624D01*
X0002906786Y0002216737D01*
X0002905553Y0002216078D01*
X0002904216Y0002215672D01*
X0002902583Y0002215511D01*
X0002878913Y0002215511D01*
X0002877279Y0002215672D01*
X0002875942Y0002216078D01*
X0002874709Y0002216737D01*
X0002873628Y0002217624D01*
X0002872741Y0002218704D01*
X0002872082Y0002219937D01*
X0002871676Y0002221275D01*
X0002871515Y0002222908D01*
X0002871515Y0002249531D01*
X0002871676Y0002251164D01*
X0002872082Y0002252502D01*
X0002872741Y0002253735D01*
X0002873628Y0002254816D01*
X0002874709Y0002255703D01*
X0002875942Y0002256362D01*
X0002877279Y0002256768D01*
X0002878913Y0002256928D01*
X0002902583Y0002256928D01*
X0002904216Y0002256768D01*
X0002904216Y0002256768D01*
G37*
G36*
X0002966224Y0002256768D02*
X0002967561Y0002256362D01*
X0002968794Y0002255703D01*
X0002969875Y0002254816D01*
X0002970762Y0002253735D01*
X0002971421Y0002252502D01*
X0002971827Y0002251164D01*
X0002971988Y0002249531D01*
X0002971988Y0002222908D01*
X0002971827Y0002221275D01*
X0002971421Y0002219937D01*
X0002970762Y0002218704D01*
X0002969875Y0002217624D01*
X0002968794Y0002216737D01*
X0002967561Y0002216078D01*
X0002966224Y0002215672D01*
X0002964590Y0002215511D01*
X0002940920Y0002215511D01*
X0002939287Y0002215672D01*
X0002937950Y0002216078D01*
X0002936717Y0002216737D01*
X0002935636Y0002217624D01*
X0002934749Y0002218704D01*
X0002934090Y0002219937D01*
X0002933684Y0002221275D01*
X0002933523Y0002222908D01*
X0002933523Y0002249531D01*
X0002933684Y0002251164D01*
X0002934090Y0002252502D01*
X0002934749Y0002253735D01*
X0002935636Y0002254816D01*
X0002936717Y0002255703D01*
X0002937950Y0002256362D01*
X0002939287Y0002256768D01*
X0002940920Y0002256928D01*
X0002964590Y0002256928D01*
X0002966224Y0002256768D01*
X0002966224Y0002256768D01*
G37*
G36*
X0002520850Y0002288264D02*
X0002522187Y0002287858D01*
X0002523420Y0002287199D01*
X0002524501Y0002286312D01*
X0002525388Y0002285231D01*
X0002526047Y0002283998D01*
X0002526453Y0002282660D01*
X0002526614Y0002281027D01*
X0002526614Y0002254404D01*
X0002526453Y0002252771D01*
X0002526047Y0002251434D01*
X0002525388Y0002250201D01*
X0002524501Y0002249120D01*
X0002523420Y0002248233D01*
X0002522187Y0002247574D01*
X0002520850Y0002247168D01*
X0002519216Y0002247007D01*
X0002495546Y0002247007D01*
X0002493913Y0002247168D01*
X0002492576Y0002247574D01*
X0002491343Y0002248233D01*
X0002490262Y0002249120D01*
X0002489375Y0002250201D01*
X0002488716Y0002251434D01*
X0002488310Y0002252771D01*
X0002488149Y0002254404D01*
X0002488149Y0002281027D01*
X0002488310Y0002282660D01*
X0002488716Y0002283998D01*
X0002489375Y0002285231D01*
X0002490262Y0002286312D01*
X0002491343Y0002287199D01*
X0002492576Y0002287858D01*
X0002493913Y0002288264D01*
X0002495546Y0002288424D01*
X0002519216Y0002288424D01*
X0002520850Y0002288264D01*
X0002520850Y0002288264D01*
G37*
G36*
X0002458842Y0002288264D02*
X0002460179Y0002287858D01*
X0002461412Y0002287199D01*
X0002462493Y0002286312D01*
X0002463380Y0002285231D01*
X0002464039Y0002283998D01*
X0002464445Y0002282660D01*
X0002464606Y0002281027D01*
X0002464606Y0002254404D01*
X0002464445Y0002252771D01*
X0002464039Y0002251434D01*
X0002463380Y0002250201D01*
X0002462493Y0002249120D01*
X0002461412Y0002248233D01*
X0002460179Y0002247574D01*
X0002458842Y0002247168D01*
X0002457209Y0002247007D01*
X0002433539Y0002247007D01*
X0002431905Y0002247168D01*
X0002430568Y0002247574D01*
X0002429335Y0002248233D01*
X0002428254Y0002249120D01*
X0002427367Y0002250201D01*
X0002426708Y0002251434D01*
X0002426302Y0002252771D01*
X0002426141Y0002254404D01*
X0002426141Y0002281027D01*
X0002426302Y0002282660D01*
X0002426708Y0002283998D01*
X0002427367Y0002285231D01*
X0002428254Y0002286312D01*
X0002429335Y0002287199D01*
X0002430568Y0002287858D01*
X0002431905Y0002288264D01*
X0002433539Y0002288424D01*
X0002457209Y0002288424D01*
X0002458842Y0002288264D01*
X0002458842Y0002288264D01*
G37*
G36*
X0002903724Y0002315823D02*
X0002905061Y0002315417D01*
X0002906294Y0002314758D01*
X0002907375Y0002313871D01*
X0002908262Y0002312790D01*
X0002908921Y0002311557D01*
X0002909327Y0002310219D01*
X0002909488Y0002308586D01*
X0002909488Y0002281963D01*
X0002909327Y0002280330D01*
X0002908921Y0002278993D01*
X0002908262Y0002277760D01*
X0002907375Y0002276679D01*
X0002906294Y0002275792D01*
X0002905061Y0002275133D01*
X0002903724Y0002274727D01*
X0002902090Y0002274566D01*
X0002878420Y0002274566D01*
X0002876787Y0002274727D01*
X0002875450Y0002275133D01*
X0002874217Y0002275792D01*
X0002873136Y0002276679D01*
X0002872249Y0002277760D01*
X0002871590Y0002278993D01*
X0002871184Y0002280330D01*
X0002871023Y0002281963D01*
X0002871023Y0002308586D01*
X0002871184Y0002310219D01*
X0002871590Y0002311557D01*
X0002872249Y0002312790D01*
X0002873136Y0002313871D01*
X0002874217Y0002314758D01*
X0002875450Y0002315417D01*
X0002876787Y0002315823D01*
X0002878420Y0002315983D01*
X0002902090Y0002315983D01*
X0002903724Y0002315823D01*
X0002903724Y0002315823D01*
G37*
G36*
X0002965731Y0002315823D02*
X0002967069Y0002315417D01*
X0002968302Y0002314758D01*
X0002969383Y0002313871D01*
X0002970270Y0002312790D01*
X0002970929Y0002311557D01*
X0002971335Y0002310219D01*
X0002971496Y0002308586D01*
X0002971496Y0002281963D01*
X0002971335Y0002280330D01*
X0002970929Y0002278993D01*
X0002970270Y0002277760D01*
X0002969383Y0002276679D01*
X0002968302Y0002275792D01*
X0002967069Y0002275133D01*
X0002965731Y0002274727D01*
X0002964098Y0002274566D01*
X0002940428Y0002274566D01*
X0002938795Y0002274727D01*
X0002937457Y0002275133D01*
X0002936224Y0002275792D01*
X0002935144Y0002276679D01*
X0002934257Y0002277760D01*
X0002933598Y0002278993D01*
X0002933192Y0002280330D01*
X0002933031Y0002281963D01*
X0002933031Y0002308586D01*
X0002933192Y0002310219D01*
X0002933598Y0002311557D01*
X0002934257Y0002312790D01*
X0002935144Y0002313871D01*
X0002936224Y0002314758D01*
X0002937457Y0002315417D01*
X0002938795Y0002315823D01*
X0002940428Y0002315983D01*
X0002964098Y0002315983D01*
X0002965731Y0002315823D01*
X0002965731Y0002315823D01*
G37*
G36*
X0002688425Y0002290314D02*
X0002660787Y0002290314D01*
X0002660787Y0002355354D01*
X0002688425Y0002355354D01*
X0002688425Y0002290314D01*
X0002688425Y0002290314D01*
G37*
G36*
X0002738425Y0002290314D02*
X0002710787Y0002290314D01*
X0002710787Y0002355354D01*
X0002738425Y0002355354D01*
X0002738425Y0002290314D01*
X0002738425Y0002290314D01*
G37*
G36*
X0002638425Y0002290314D02*
X0002610787Y0002290314D01*
X0002610787Y0002355354D01*
X0002638425Y0002355354D01*
X0002638425Y0002290314D01*
X0002638425Y0002290314D01*
G37*
G36*
X0002588425Y0002290314D02*
X0002560787Y0002290314D01*
X0002560787Y0002355354D01*
X0002588425Y0002355354D01*
X0002588425Y0002290314D01*
X0002588425Y0002290314D01*
G37*
G36*
X0002181513Y0002374585D02*
X0002184119Y0002374328D01*
X0002188576Y0002372976D01*
X0002190805Y0002372300D01*
X0002191656Y0002371845D01*
X0002196968Y0002369006D01*
X0002198375Y0002367852D01*
X0002202369Y0002364573D01*
X0002205647Y0002360579D01*
X0002206802Y0002359172D01*
X0002206802Y0002359172D01*
X0002210096Y0002353010D01*
X0002210096Y0002353010D01*
X0002212124Y0002346323D01*
X0002212809Y0002339369D01*
X0002212124Y0002332415D01*
X0002210772Y0002327958D01*
X0002210096Y0002325729D01*
X0002207179Y0002320271D01*
X0002206802Y0002319567D01*
X0002205647Y0002318160D01*
X0002202369Y0002314165D01*
X0002199191Y0002311557D01*
X0002196968Y0002309732D01*
X0002196968Y0002309732D01*
X0002190805Y0002306438D01*
X0002188576Y0002305762D01*
X0002184119Y0002304410D01*
X0002181513Y0002304153D01*
X0002178907Y0002303897D01*
X0002175422Y0002303897D01*
X0002172817Y0002304153D01*
X0002170211Y0002304410D01*
X0002165753Y0002305762D01*
X0002163524Y0002306438D01*
X0002157362Y0002309732D01*
X0002157362Y0002309732D01*
X0002155139Y0002311557D01*
X0002151961Y0002314165D01*
X0002148683Y0002318160D01*
X0002147528Y0002319567D01*
X0002147151Y0002320271D01*
X0002144234Y0002325729D01*
X0002143558Y0002327958D01*
X0002142206Y0002332415D01*
X0002141521Y0002339369D01*
X0002142206Y0002346323D01*
X0002144234Y0002353010D01*
X0002144234Y0002353010D01*
X0002147528Y0002359172D01*
X0002147528Y0002359172D01*
X0002148683Y0002360579D01*
X0002151961Y0002364573D01*
X0002155955Y0002367852D01*
X0002157362Y0002369006D01*
X0002162673Y0002371845D01*
X0002163524Y0002372300D01*
X0002165753Y0002372976D01*
X0002170211Y0002374328D01*
X0002172817Y0002374585D01*
X0002175422Y0002374842D01*
X0002178907Y0002374842D01*
X0002181513Y0002374585D01*
X0002181513Y0002374585D01*
G37*
G36*
X0002903724Y0002374878D02*
X0002905061Y0002374472D01*
X0002906294Y0002373813D01*
X0002907375Y0002372926D01*
X0002908262Y0002371845D01*
X0002908921Y0002370612D01*
X0002909327Y0002369274D01*
X0002909488Y0002367641D01*
X0002909488Y0002341019D01*
X0002909327Y0002339385D01*
X0002908921Y0002338048D01*
X0002908262Y0002336815D01*
X0002907375Y0002335734D01*
X0002906294Y0002334847D01*
X0002905061Y0002334188D01*
X0002903724Y0002333782D01*
X0002902090Y0002333621D01*
X0002878420Y0002333621D01*
X0002876787Y0002333782D01*
X0002875450Y0002334188D01*
X0002874217Y0002334847D01*
X0002873136Y0002335734D01*
X0002872249Y0002336815D01*
X0002871590Y0002338048D01*
X0002871184Y0002339385D01*
X0002871023Y0002341019D01*
X0002871023Y0002367641D01*
X0002871184Y0002369274D01*
X0002871590Y0002370612D01*
X0002872249Y0002371845D01*
X0002873136Y0002372926D01*
X0002874217Y0002373813D01*
X0002875450Y0002374472D01*
X0002876787Y0002374878D01*
X0002878420Y0002375039D01*
X0002902090Y0002375039D01*
X0002903724Y0002374878D01*
X0002903724Y0002374878D01*
G37*
G36*
X0002965731Y0002374878D02*
X0002967069Y0002374472D01*
X0002968302Y0002373813D01*
X0002969383Y0002372926D01*
X0002970270Y0002371845D01*
X0002970929Y0002370612D01*
X0002971335Y0002369274D01*
X0002971496Y0002367641D01*
X0002971496Y0002341019D01*
X0002971335Y0002339385D01*
X0002970929Y0002338048D01*
X0002970270Y0002336815D01*
X0002969383Y0002335734D01*
X0002968302Y0002334847D01*
X0002967069Y0002334188D01*
X0002965731Y0002333782D01*
X0002964098Y0002333621D01*
X0002940428Y0002333621D01*
X0002938795Y0002333782D01*
X0002937457Y0002334188D01*
X0002936224Y0002334847D01*
X0002935144Y0002335734D01*
X0002934257Y0002336815D01*
X0002933598Y0002338048D01*
X0002933192Y0002339385D01*
X0002933031Y0002341019D01*
X0002933031Y0002367641D01*
X0002933192Y0002369274D01*
X0002933598Y0002370612D01*
X0002934257Y0002371845D01*
X0002935144Y0002372926D01*
X0002936224Y0002373813D01*
X0002937457Y0002374472D01*
X0002938795Y0002374878D01*
X0002940428Y0002375039D01*
X0002964098Y0002375039D01*
X0002965731Y0002374878D01*
X0002965731Y0002374878D01*
G37*
G36*
X0002181513Y0002474585D02*
X0002184119Y0002474328D01*
X0002188576Y0002472976D01*
X0002190805Y0002472300D01*
X0002196263Y0002469383D01*
X0002196968Y0002469006D01*
X0002198375Y0002467852D01*
X0002202369Y0002464573D01*
X0002205647Y0002460579D01*
X0002206802Y0002459172D01*
X0002206802Y0002459172D01*
X0002210096Y0002453010D01*
X0002210096Y0002453010D01*
X0002212124Y0002446323D01*
X0002212809Y0002439369D01*
X0002212124Y0002432415D01*
X0002210772Y0002427958D01*
X0002210096Y0002425729D01*
X0002207179Y0002420271D01*
X0002206802Y0002419567D01*
X0002205647Y0002418160D01*
X0002202369Y0002414165D01*
X0002198375Y0002410887D01*
X0002196968Y0002409732D01*
X0002196968Y0002409732D01*
X0002190805Y0002406438D01*
X0002188576Y0002405762D01*
X0002184119Y0002404410D01*
X0002181513Y0002404153D01*
X0002178907Y0002403897D01*
X0002175422Y0002403897D01*
X0002172817Y0002404153D01*
X0002170211Y0002404410D01*
X0002165753Y0002405762D01*
X0002163524Y0002406438D01*
X0002157362Y0002409732D01*
X0002157362Y0002409732D01*
X0002155955Y0002410887D01*
X0002151961Y0002414165D01*
X0002148683Y0002418160D01*
X0002147528Y0002419567D01*
X0002147151Y0002420271D01*
X0002144234Y0002425729D01*
X0002143558Y0002427958D01*
X0002142206Y0002432415D01*
X0002141521Y0002439369D01*
X0002142206Y0002446323D01*
X0002144234Y0002453010D01*
X0002144234Y0002453010D01*
X0002147528Y0002459172D01*
X0002147528Y0002459172D01*
X0002148683Y0002460579D01*
X0002151961Y0002464573D01*
X0002155955Y0002467852D01*
X0002157362Y0002469006D01*
X0002158067Y0002469383D01*
X0002163524Y0002472300D01*
X0002165753Y0002472976D01*
X0002170211Y0002474328D01*
X0002172817Y0002474585D01*
X0002175422Y0002474842D01*
X0002178907Y0002474842D01*
X0002181513Y0002474585D01*
X0002181513Y0002474585D01*
G37*
G36*
X0002212637Y0002503897D02*
X0002141692Y0002503897D01*
X0002141692Y0002574842D01*
X0002212637Y0002574842D01*
X0002212637Y0002503897D01*
X0002212637Y0002503897D01*
G37*
M02*