%
M48
METRIC,000.000
T01C0.30
T02C1.00
%
T01
X003899Y030674
X004900Y018200
X005098Y031124
X008499Y038000
X008499Y025399
X008499Y012399
X010300Y031200
X012099Y038000
X012099Y025399
X012200Y012424
X017100Y006499
X020100Y018500
X021601Y025201
X021700Y037901
X021700Y030499
X022000Y012300
X025299Y037901
X025299Y025201
X025599Y012300
X030199Y008099
X030275Y011098
X030900Y011924
X030999Y007972
X035042Y037901
X035299Y025201
X035563Y012549
X037199Y017799
X038598Y037901
X038901Y025201
X039099Y018226
X039099Y012399
X042800Y017799
X054299Y030674
X055300Y018200
X055498Y031124
X058899Y038000
X058899Y025399
X058899Y012399
X060700Y031200
X062499Y038000
X062499Y025399
X062600Y012424
X067500Y006499
X070500Y018500
X072001Y025201
X072100Y037901
X072100Y030499
X072400Y012300
X075699Y037901
X075699Y025201
X075999Y012300
X080599Y008099
X080675Y011098
X081300Y011924
X081399Y007972
X085442Y037901
X085699Y025201
X085963Y012549
X087599Y017799
X088998Y037901
X089301Y025201
X089499Y018226
X089499Y012399
X093200Y017799
X003899Y081074
X004900Y068600
X005098Y081524
X008499Y088400
X008499Y075799
X008499Y062799
X010300Y081600
X012099Y088400
X012099Y075799
X012200Y062824
X017100Y056899
X020100Y068900
X021601Y075601
X021700Y088301
X021700Y080899
X022000Y062700
X025299Y088301
X025299Y075601
X025599Y062700
X030199Y058499
X030275Y061498
X030900Y062324
X030999Y058372
X035042Y088301
X035299Y075601
X035563Y062949
X037199Y068199
X038598Y088301
X038901Y075601
X039099Y068626
X039099Y062799
X042800Y068199
X054299Y081074
X055300Y068600
X055498Y081524
X058899Y088400
X058899Y075799
X058899Y062799
X060700Y081600
X062499Y088400
X062499Y075799
X062600Y062824
X067500Y056899
X070500Y068900
X072001Y075601
X072100Y088301
X072100Y080899
X072400Y062700
X075699Y088301
X075699Y075601
X075999Y062700
X080599Y058499
X080675Y061498
X081300Y062324
X081399Y058372
X085442Y088301
X085699Y075601
X085963Y062949
X087599Y068199
X088998Y088301
X089301Y075601
X089499Y068626
X089499Y062799
X093200Y068199
T02
X040999Y006001
X040999Y003461
X043539Y006001
X043539Y003461
X091399Y006001
X091399Y003461
X093939Y006001
X093939Y003461
X040999Y056401
X040999Y053861
X043539Y056401
X043539Y053861
X091399Y056401
X091399Y053861
X093939Y056401
X093939Y053861
M30