%MOIN*%
%OFA0B0*%
%FSLAX46Y46*%
%IPPOS*%
%LPD*%
%ADD10C,0.0039370078740157488*%
%ADD21C,0.0039370078740157488*%
%ADD22C,0.0039370078740157488*%
%ADD23C,0.0039370078740157488*%
G01*
D10*
G36*
X0001718521Y0000171436D02*
X0001721127Y0000171179D01*
X0001725584Y0000169827D01*
X0001727813Y0000169151D01*
X0001733271Y0000166234D01*
X0001733976Y0000165857D01*
X0001735383Y0000164702D01*
X0001739377Y0000161424D01*
X0001742655Y0000157430D01*
X0001743810Y0000156023D01*
X0001743810Y0000156023D01*
X0001747104Y0000149860D01*
X0001747104Y0000149860D01*
X0001749132Y0000143174D01*
X0001749817Y0000136220D01*
X0001749132Y0000129266D01*
X0001747780Y0000124808D01*
X0001747104Y0000122580D01*
X0001744186Y0000117122D01*
X0001743810Y0000116417D01*
X0001742655Y0000115010D01*
X0001739377Y0000111016D01*
X0001735383Y0000107738D01*
X0001733976Y0000106583D01*
X0001733975Y0000106583D01*
X0001727813Y0000103289D01*
X0001725584Y0000102613D01*
X0001721127Y0000101261D01*
X0001718521Y0000101004D01*
X0001715915Y0000100747D01*
X0001712430Y0000100747D01*
X0001709825Y0000101004D01*
X0001707219Y0000101261D01*
X0001702761Y0000102613D01*
X0001700532Y0000103289D01*
X0001694370Y0000106583D01*
X0001694370Y0000106583D01*
X0001692963Y0000107738D01*
X0001688969Y0000111016D01*
X0001685691Y0000115010D01*
X0001684536Y0000116417D01*
X0001684159Y0000117122D01*
X0001681242Y0000122580D01*
X0001680566Y0000124808D01*
X0001679214Y0000129266D01*
X0001678529Y0000136220D01*
X0001679214Y0000143174D01*
X0001681242Y0000149860D01*
X0001681242Y0000149860D01*
X0001684536Y0000156023D01*
X0001684536Y0000156023D01*
X0001685691Y0000157430D01*
X0001688969Y0000161424D01*
X0001692963Y0000164702D01*
X0001694370Y0000165857D01*
X0001695075Y0000166234D01*
X0001700532Y0000169151D01*
X0001702761Y0000169827D01*
X0001707219Y0000171179D01*
X0001709825Y0000171436D01*
X0001712430Y0000171692D01*
X0001715915Y0000171692D01*
X0001718521Y0000171436D01*
X0001718521Y0000171436D01*
G37*
G36*
X0001618521Y0000171436D02*
X0001621127Y0000171179D01*
X0001625584Y0000169827D01*
X0001627813Y0000169151D01*
X0001633271Y0000166234D01*
X0001633976Y0000165857D01*
X0001635382Y0000164702D01*
X0001639377Y0000161424D01*
X0001642655Y0000157430D01*
X0001643810Y0000156023D01*
X0001643810Y0000156023D01*
X0001647104Y0000149860D01*
X0001647104Y0000149860D01*
X0001649132Y0000143174D01*
X0001649817Y0000136220D01*
X0001649132Y0000129266D01*
X0001647780Y0000124808D01*
X0001647104Y0000122580D01*
X0001644186Y0000117122D01*
X0001643810Y0000116417D01*
X0001642655Y0000115010D01*
X0001639377Y0000111016D01*
X0001635382Y0000107738D01*
X0001633976Y0000106583D01*
X0001633975Y0000106583D01*
X0001627813Y0000103289D01*
X0001625584Y0000102613D01*
X0001621127Y0000101261D01*
X0001618521Y0000101004D01*
X0001615915Y0000100747D01*
X0001612430Y0000100747D01*
X0001609825Y0000101004D01*
X0001607219Y0000101261D01*
X0001602761Y0000102613D01*
X0001600532Y0000103289D01*
X0001594370Y0000106583D01*
X0001594370Y0000106583D01*
X0001592963Y0000107738D01*
X0001588969Y0000111016D01*
X0001585691Y0000115010D01*
X0001584536Y0000116417D01*
X0001584159Y0000117122D01*
X0001581242Y0000122580D01*
X0001580566Y0000124808D01*
X0001579214Y0000129266D01*
X0001578529Y0000136220D01*
X0001579214Y0000143174D01*
X0001581242Y0000149860D01*
X0001581242Y0000149860D01*
X0001584536Y0000156023D01*
X0001584536Y0000156023D01*
X0001585691Y0000157430D01*
X0001588969Y0000161424D01*
X0001592963Y0000164702D01*
X0001594370Y0000165857D01*
X0001595075Y0000166234D01*
X0001600532Y0000169151D01*
X0001602761Y0000169827D01*
X0001607219Y0000171179D01*
X0001609825Y0000171436D01*
X0001612430Y0000171692D01*
X0001615915Y0000171692D01*
X0001618521Y0000171436D01*
X0001618521Y0000171436D01*
G37*
G36*
X0001718521Y0000271436D02*
X0001721127Y0000271179D01*
X0001725584Y0000269827D01*
X0001727813Y0000269151D01*
X0001733271Y0000266234D01*
X0001733976Y0000265857D01*
X0001735383Y0000264702D01*
X0001739377Y0000261424D01*
X0001742655Y0000257430D01*
X0001743810Y0000256023D01*
X0001743810Y0000256023D01*
X0001747104Y0000249860D01*
X0001747104Y0000249860D01*
X0001749132Y0000243174D01*
X0001749817Y0000236220D01*
X0001749132Y0000229266D01*
X0001747780Y0000224808D01*
X0001747104Y0000222580D01*
X0001744186Y0000217122D01*
X0001743810Y0000216417D01*
X0001742655Y0000215010D01*
X0001739377Y0000211016D01*
X0001735383Y0000207738D01*
X0001733976Y0000206583D01*
X0001733975Y0000206583D01*
X0001727813Y0000203289D01*
X0001725584Y0000202613D01*
X0001721127Y0000201261D01*
X0001718521Y0000201004D01*
X0001715915Y0000200748D01*
X0001712430Y0000200748D01*
X0001709825Y0000201004D01*
X0001707219Y0000201261D01*
X0001702761Y0000202613D01*
X0001700532Y0000203289D01*
X0001694370Y0000206583D01*
X0001694370Y0000206583D01*
X0001692963Y0000207738D01*
X0001688969Y0000211016D01*
X0001685691Y0000215010D01*
X0001684536Y0000216417D01*
X0001684159Y0000217122D01*
X0001681242Y0000222580D01*
X0001680566Y0000224808D01*
X0001679214Y0000229266D01*
X0001678529Y0000236220D01*
X0001679214Y0000243174D01*
X0001681242Y0000249860D01*
X0001681242Y0000249860D01*
X0001684536Y0000256023D01*
X0001684536Y0000256023D01*
X0001685691Y0000257430D01*
X0001688969Y0000261424D01*
X0001692963Y0000264702D01*
X0001694370Y0000265857D01*
X0001695075Y0000266234D01*
X0001700532Y0000269151D01*
X0001702761Y0000269827D01*
X0001707219Y0000271179D01*
X0001709825Y0000271436D01*
X0001712430Y0000271692D01*
X0001715915Y0000271692D01*
X0001718521Y0000271436D01*
X0001718521Y0000271436D01*
G37*
G36*
X0001649645Y0000200748D02*
X0001578700Y0000200748D01*
X0001578700Y0000271692D01*
X0001649645Y0000271692D01*
X0001649645Y0000200748D01*
X0001649645Y0000200748D01*
G37*
G36*
X0000981479Y0000445744D02*
X0000982817Y0000445338D01*
X0000984050Y0000444679D01*
X0000985131Y0000443792D01*
X0000986018Y0000442712D01*
X0000986677Y0000441479D01*
X0000987083Y0000440141D01*
X0000987244Y0000438508D01*
X0000987244Y0000411885D01*
X0000987083Y0000410252D01*
X0000986677Y0000408914D01*
X0000986018Y0000407681D01*
X0000985131Y0000406600D01*
X0000984050Y0000405713D01*
X0000982817Y0000405054D01*
X0000981479Y0000404649D01*
X0000979846Y0000404488D01*
X0000956176Y0000404488D01*
X0000954543Y0000404649D01*
X0000953205Y0000405054D01*
X0000951972Y0000405713D01*
X0000950892Y0000406600D01*
X0000950005Y0000407681D01*
X0000949346Y0000408914D01*
X0000948940Y0000410252D01*
X0000948779Y0000411885D01*
X0000948779Y0000438508D01*
X0000948940Y0000440141D01*
X0000949346Y0000441479D01*
X0000950005Y0000442712D01*
X0000950892Y0000443792D01*
X0000951972Y0000444679D01*
X0000953205Y0000445338D01*
X0000954543Y0000445744D01*
X0000956176Y0000445905D01*
X0000979846Y0000445905D01*
X0000981479Y0000445744D01*
X0000981479Y0000445744D01*
G37*
G36*
X0000919472Y0000445744D02*
X0000920809Y0000445338D01*
X0000922042Y0000444679D01*
X0000923123Y0000443792D01*
X0000924010Y0000442712D01*
X0000924669Y0000441479D01*
X0000925075Y0000440141D01*
X0000925236Y0000438508D01*
X0000925236Y0000411885D01*
X0000925075Y0000410252D01*
X0000924669Y0000408914D01*
X0000924010Y0000407681D01*
X0000923123Y0000406600D01*
X0000922042Y0000405713D01*
X0000920809Y0000405054D01*
X0000919472Y0000404649D01*
X0000917838Y0000404488D01*
X0000894168Y0000404488D01*
X0000892535Y0000404649D01*
X0000891198Y0000405054D01*
X0000889965Y0000405713D01*
X0000888884Y0000406600D01*
X0000887997Y0000407681D01*
X0000887338Y0000408914D01*
X0000886932Y0000410252D01*
X0000886771Y0000411885D01*
X0000886771Y0000438508D01*
X0000886932Y0000440141D01*
X0000887338Y0000441479D01*
X0000887997Y0000442712D01*
X0000888884Y0000443792D01*
X0000889965Y0000444679D01*
X0000891198Y0000445338D01*
X0000892535Y0000445744D01*
X0000894168Y0000445905D01*
X0000917838Y0000445905D01*
X0000919472Y0000445744D01*
X0000919472Y0000445744D01*
G37*
G36*
X0001450968Y0000449681D02*
X0001452305Y0000449275D01*
X0001453538Y0000448616D01*
X0001454619Y0000447729D01*
X0001455506Y0000446649D01*
X0001456165Y0000445416D01*
X0001456571Y0000444078D01*
X0001456732Y0000442445D01*
X0001456732Y0000415822D01*
X0001456571Y0000414189D01*
X0001456165Y0000412851D01*
X0001455506Y0000411618D01*
X0001454619Y0000410537D01*
X0001453538Y0000409650D01*
X0001452305Y0000408991D01*
X0001450968Y0000408585D01*
X0001449335Y0000408425D01*
X0001425664Y0000408425D01*
X0001424031Y0000408585D01*
X0001422694Y0000408991D01*
X0001421461Y0000409650D01*
X0001420380Y0000410537D01*
X0001419493Y0000411618D01*
X0001418834Y0000412851D01*
X0001418428Y0000414189D01*
X0001418267Y0000415822D01*
X0001418267Y0000442445D01*
X0001418428Y0000444078D01*
X0001418834Y0000445416D01*
X0001419493Y0000446649D01*
X0001420380Y0000447729D01*
X0001421461Y0000448616D01*
X0001422694Y0000449275D01*
X0001424031Y0000449681D01*
X0001425664Y0000449842D01*
X0001449335Y0000449842D01*
X0001450968Y0000449681D01*
X0001450968Y0000449681D01*
G37*
G36*
X0001512975Y0000449681D02*
X0001514313Y0000449275D01*
X0001515546Y0000448616D01*
X0001516627Y0000447729D01*
X0001517514Y0000446649D01*
X0001518173Y0000445416D01*
X0001518579Y0000444078D01*
X0001518740Y0000442445D01*
X0001518740Y0000415822D01*
X0001518579Y0000414189D01*
X0001518173Y0000412851D01*
X0001517514Y0000411618D01*
X0001516627Y0000410537D01*
X0001515546Y0000409650D01*
X0001514313Y0000408991D01*
X0001512975Y0000408585D01*
X0001511342Y0000408425D01*
X0001487672Y0000408425D01*
X0001486039Y0000408585D01*
X0001484702Y0000408991D01*
X0001483469Y0000409650D01*
X0001482388Y0000410537D01*
X0001481501Y0000411618D01*
X0001480842Y0000412851D01*
X0001480436Y0000414189D01*
X0001480275Y0000415822D01*
X0001480275Y0000442445D01*
X0001480436Y0000444078D01*
X0001480842Y0000445416D01*
X0001481501Y0000446649D01*
X0001482388Y0000447729D01*
X0001483469Y0000448616D01*
X0001484702Y0000449275D01*
X0001486039Y0000449681D01*
X0001487672Y0000449842D01*
X0001511342Y0000449842D01*
X0001512975Y0000449681D01*
X0001512975Y0000449681D01*
G37*
G36*
X0000387976Y0000449681D02*
X0000389313Y0000449275D01*
X0000390546Y0000448616D01*
X0000391627Y0000447729D01*
X0000392514Y0000446649D01*
X0000393173Y0000445416D01*
X0000393579Y0000444078D01*
X0000393740Y0000442445D01*
X0000393740Y0000415822D01*
X0000393579Y0000414189D01*
X0000393173Y0000412851D01*
X0000392514Y0000411618D01*
X0000391627Y0000410537D01*
X0000390546Y0000409650D01*
X0000389313Y0000408991D01*
X0000387976Y0000408585D01*
X0000386342Y0000408425D01*
X0000362672Y0000408425D01*
X0000361039Y0000408585D01*
X0000359702Y0000408991D01*
X0000358469Y0000409650D01*
X0000357388Y0000410537D01*
X0000356501Y0000411618D01*
X0000355842Y0000412851D01*
X0000355436Y0000414189D01*
X0000355275Y0000415822D01*
X0000355275Y0000442445D01*
X0000355436Y0000444078D01*
X0000355842Y0000445416D01*
X0000356501Y0000446649D01*
X0000357388Y0000447729D01*
X0000358469Y0000448616D01*
X0000359702Y0000449275D01*
X0000361039Y0000449681D01*
X0000362672Y0000449842D01*
X0000386342Y0000449842D01*
X0000387976Y0000449681D01*
X0000387976Y0000449681D01*
G37*
G36*
X0000449983Y0000449681D02*
X0000451321Y0000449275D01*
X0000452554Y0000448616D01*
X0000453635Y0000447729D01*
X0000454522Y0000446649D01*
X0000455181Y0000445416D01*
X0000455587Y0000444078D01*
X0000455747Y0000442445D01*
X0000455747Y0000415822D01*
X0000455587Y0000414189D01*
X0000455181Y0000412851D01*
X0000454522Y0000411618D01*
X0000453635Y0000410537D01*
X0000452554Y0000409650D01*
X0000451321Y0000408991D01*
X0000449983Y0000408585D01*
X0000448350Y0000408425D01*
X0000424680Y0000408425D01*
X0000423047Y0000408585D01*
X0000421709Y0000408991D01*
X0000420476Y0000409650D01*
X0000419396Y0000410537D01*
X0000418509Y0000411618D01*
X0000417850Y0000412851D01*
X0000417444Y0000414189D01*
X0000417283Y0000415822D01*
X0000417283Y0000442445D01*
X0000417444Y0000444078D01*
X0000417850Y0000445416D01*
X0000418509Y0000446649D01*
X0000419396Y0000447729D01*
X0000420476Y0000448616D01*
X0000421709Y0000449275D01*
X0000423047Y0000449681D01*
X0000424680Y0000449842D01*
X0000448350Y0000449842D01*
X0000449983Y0000449681D01*
X0000449983Y0000449681D01*
G37*
G36*
X0000919472Y0000504799D02*
X0000920809Y0000504393D01*
X0000922042Y0000503734D01*
X0000923123Y0000502847D01*
X0000924010Y0000501767D01*
X0000924669Y0000500534D01*
X0000925075Y0000499196D01*
X0000925236Y0000497563D01*
X0000925236Y0000470940D01*
X0000925075Y0000469307D01*
X0000924669Y0000467969D01*
X0000924010Y0000466736D01*
X0000923123Y0000465655D01*
X0000922042Y0000464768D01*
X0000920809Y0000464109D01*
X0000919472Y0000463704D01*
X0000917838Y0000463543D01*
X0000894168Y0000463543D01*
X0000892535Y0000463704D01*
X0000891198Y0000464109D01*
X0000889965Y0000464768D01*
X0000888884Y0000465655D01*
X0000887997Y0000466736D01*
X0000887338Y0000467969D01*
X0000886932Y0000469307D01*
X0000886771Y0000470940D01*
X0000886771Y0000497563D01*
X0000886932Y0000499196D01*
X0000887338Y0000500534D01*
X0000887997Y0000501767D01*
X0000888884Y0000502847D01*
X0000889965Y0000503734D01*
X0000891198Y0000504393D01*
X0000892535Y0000504799D01*
X0000894168Y0000504960D01*
X0000917838Y0000504960D01*
X0000919472Y0000504799D01*
X0000919472Y0000504799D01*
G37*
G36*
X0000981479Y0000504799D02*
X0000982817Y0000504393D01*
X0000984050Y0000503734D01*
X0000985131Y0000502847D01*
X0000986018Y0000501767D01*
X0000986677Y0000500534D01*
X0000987083Y0000499196D01*
X0000987244Y0000497563D01*
X0000987244Y0000470940D01*
X0000987083Y0000469307D01*
X0000986677Y0000467969D01*
X0000986018Y0000466736D01*
X0000985131Y0000465655D01*
X0000984050Y0000464768D01*
X0000982817Y0000464109D01*
X0000981479Y0000463704D01*
X0000979846Y0000463543D01*
X0000956176Y0000463543D01*
X0000954543Y0000463704D01*
X0000953205Y0000464109D01*
X0000951972Y0000464768D01*
X0000950892Y0000465655D01*
X0000950005Y0000466736D01*
X0000949346Y0000467969D01*
X0000948940Y0000469307D01*
X0000948779Y0000470940D01*
X0000948779Y0000497563D01*
X0000948940Y0000499196D01*
X0000949346Y0000500534D01*
X0000950005Y0000501767D01*
X0000950892Y0000502847D01*
X0000951972Y0000503734D01*
X0000953205Y0000504393D01*
X0000954543Y0000504799D01*
X0000956176Y0000504960D01*
X0000979846Y0000504960D01*
X0000981479Y0000504799D01*
X0000981479Y0000504799D01*
G37*
G36*
X0001512975Y0000508736D02*
X0001514313Y0000508330D01*
X0001515546Y0000507671D01*
X0001516627Y0000506784D01*
X0001517514Y0000505704D01*
X0001518173Y0000504471D01*
X0001518579Y0000503133D01*
X0001518740Y0000501500D01*
X0001518740Y0000474877D01*
X0001518579Y0000473244D01*
X0001518173Y0000471906D01*
X0001517514Y0000470673D01*
X0001516627Y0000469592D01*
X0001515546Y0000468706D01*
X0001514313Y0000468046D01*
X0001512975Y0000467641D01*
X0001511342Y0000467480D01*
X0001487672Y0000467480D01*
X0001486039Y0000467641D01*
X0001484702Y0000468046D01*
X0001483469Y0000468706D01*
X0001482388Y0000469592D01*
X0001481501Y0000470673D01*
X0001480842Y0000471906D01*
X0001480436Y0000473244D01*
X0001480275Y0000474877D01*
X0001480275Y0000501500D01*
X0001480436Y0000503133D01*
X0001480842Y0000504471D01*
X0001481501Y0000505704D01*
X0001482388Y0000506784D01*
X0001483469Y0000507671D01*
X0001484702Y0000508330D01*
X0001486039Y0000508736D01*
X0001487672Y0000508897D01*
X0001511342Y0000508897D01*
X0001512975Y0000508736D01*
X0001512975Y0000508736D01*
G37*
G36*
X0000387976Y0000508736D02*
X0000389313Y0000508330D01*
X0000390546Y0000507671D01*
X0000391627Y0000506784D01*
X0000392514Y0000505704D01*
X0000393173Y0000504471D01*
X0000393579Y0000503133D01*
X0000393740Y0000501500D01*
X0000393740Y0000474877D01*
X0000393579Y0000473244D01*
X0000393173Y0000471906D01*
X0000392514Y0000470673D01*
X0000391627Y0000469592D01*
X0000390546Y0000468706D01*
X0000389313Y0000468046D01*
X0000387976Y0000467641D01*
X0000386342Y0000467480D01*
X0000362672Y0000467480D01*
X0000361039Y0000467641D01*
X0000359702Y0000468046D01*
X0000358469Y0000468706D01*
X0000357388Y0000469592D01*
X0000356501Y0000470673D01*
X0000355842Y0000471906D01*
X0000355436Y0000473244D01*
X0000355275Y0000474877D01*
X0000355275Y0000501500D01*
X0000355436Y0000503133D01*
X0000355842Y0000504471D01*
X0000356501Y0000505704D01*
X0000357388Y0000506784D01*
X0000358469Y0000507671D01*
X0000359702Y0000508330D01*
X0000361039Y0000508736D01*
X0000362672Y0000508897D01*
X0000386342Y0000508897D01*
X0000387976Y0000508736D01*
X0000387976Y0000508736D01*
G37*
G36*
X0000449983Y0000508736D02*
X0000451321Y0000508330D01*
X0000452554Y0000507671D01*
X0000453635Y0000506784D01*
X0000454522Y0000505704D01*
X0000455181Y0000504471D01*
X0000455587Y0000503133D01*
X0000455747Y0000501500D01*
X0000455747Y0000474877D01*
X0000455587Y0000473244D01*
X0000455181Y0000471906D01*
X0000454522Y0000470673D01*
X0000453635Y0000469592D01*
X0000452554Y0000468706D01*
X0000451321Y0000468046D01*
X0000449983Y0000467641D01*
X0000448350Y0000467480D01*
X0000424680Y0000467480D01*
X0000423047Y0000467641D01*
X0000421709Y0000468046D01*
X0000420476Y0000468706D01*
X0000419396Y0000469592D01*
X0000418509Y0000470673D01*
X0000417850Y0000471906D01*
X0000417444Y0000473244D01*
X0000417283Y0000474877D01*
X0000417283Y0000501500D01*
X0000417444Y0000503133D01*
X0000417850Y0000504471D01*
X0000418509Y0000505704D01*
X0000419396Y0000506784D01*
X0000420476Y0000507671D01*
X0000421709Y0000508330D01*
X0000423047Y0000508736D01*
X0000424680Y0000508897D01*
X0000448350Y0000508897D01*
X0000449983Y0000508736D01*
X0000449983Y0000508736D01*
G37*
G36*
X0001450968Y0000508736D02*
X0001452305Y0000508330D01*
X0001453538Y0000507671D01*
X0001454619Y0000506784D01*
X0001455506Y0000505704D01*
X0001456165Y0000504471D01*
X0001456571Y0000503133D01*
X0001456732Y0000501500D01*
X0001456732Y0000474877D01*
X0001456571Y0000473244D01*
X0001456165Y0000471906D01*
X0001455506Y0000470673D01*
X0001454619Y0000469592D01*
X0001453538Y0000468706D01*
X0001452305Y0000468046D01*
X0001450968Y0000467641D01*
X0001449335Y0000467480D01*
X0001425664Y0000467480D01*
X0001424031Y0000467641D01*
X0001422694Y0000468046D01*
X0001421461Y0000468706D01*
X0001420380Y0000469592D01*
X0001419493Y0000470673D01*
X0001418834Y0000471906D01*
X0001418428Y0000473244D01*
X0001418267Y0000474877D01*
X0001418267Y0000501500D01*
X0001418428Y0000503133D01*
X0001418834Y0000504471D01*
X0001419493Y0000505704D01*
X0001420380Y0000506784D01*
X0001421461Y0000507671D01*
X0001422694Y0000508330D01*
X0001424031Y0000508736D01*
X0001425664Y0000508897D01*
X0001449335Y0000508897D01*
X0001450968Y0000508736D01*
X0001450968Y0000508736D01*
G37*
G36*
X0001505102Y0000953618D02*
X0001506439Y0000953212D01*
X0001507672Y0000952553D01*
X0001508753Y0000951666D01*
X0001509640Y0000950586D01*
X0001510299Y0000949353D01*
X0001510705Y0000948015D01*
X0001510866Y0000946382D01*
X0001510866Y0000919759D01*
X0001510705Y0000918126D01*
X0001510299Y0000916788D01*
X0001509640Y0000915555D01*
X0001508753Y0000914474D01*
X0001507672Y0000913587D01*
X0001506439Y0000912928D01*
X0001505102Y0000912522D01*
X0001503468Y0000912362D01*
X0001479798Y0000912362D01*
X0001478165Y0000912522D01*
X0001476827Y0000912928D01*
X0001475594Y0000913587D01*
X0001474514Y0000914474D01*
X0001473627Y0000915555D01*
X0001472968Y0000916788D01*
X0001472562Y0000918126D01*
X0001472401Y0000919759D01*
X0001472401Y0000946382D01*
X0001472562Y0000948015D01*
X0001472968Y0000949353D01*
X0001473627Y0000950586D01*
X0001474514Y0000951666D01*
X0001475594Y0000952553D01*
X0001476827Y0000953212D01*
X0001478165Y0000953618D01*
X0001479798Y0000953779D01*
X0001503468Y0000953779D01*
X0001505102Y0000953618D01*
X0001505102Y0000953618D01*
G37*
G36*
X0001443094Y0000953618D02*
X0001444431Y0000953212D01*
X0001445664Y0000952553D01*
X0001446745Y0000951666D01*
X0001447632Y0000950586D01*
X0001448291Y0000949353D01*
X0001448697Y0000948015D01*
X0001448858Y0000946382D01*
X0001448858Y0000919759D01*
X0001448697Y0000918126D01*
X0001448291Y0000916788D01*
X0001447632Y0000915555D01*
X0001446745Y0000914474D01*
X0001445664Y0000913587D01*
X0001444431Y0000912928D01*
X0001443094Y0000912522D01*
X0001441461Y0000912362D01*
X0001417790Y0000912362D01*
X0001416157Y0000912522D01*
X0001414820Y0000912928D01*
X0001413587Y0000913587D01*
X0001412506Y0000914474D01*
X0001411619Y0000915555D01*
X0001410960Y0000916788D01*
X0001410554Y0000918126D01*
X0001410393Y0000919759D01*
X0001410393Y0000946382D01*
X0001410554Y0000948015D01*
X0001410960Y0000949353D01*
X0001411619Y0000950586D01*
X0001412506Y0000951666D01*
X0001413587Y0000952553D01*
X0001414820Y0000953212D01*
X0001416157Y0000953618D01*
X0001417790Y0000953779D01*
X0001441461Y0000953779D01*
X0001443094Y0000953618D01*
X0001443094Y0000953618D01*
G37*
G36*
X0000969668Y0000953618D02*
X0000971006Y0000953212D01*
X0000972239Y0000952553D01*
X0000973320Y0000951666D01*
X0000974207Y0000950586D01*
X0000974866Y0000949353D01*
X0000975272Y0000948015D01*
X0000975433Y0000946382D01*
X0000975433Y0000919759D01*
X0000975272Y0000918126D01*
X0000974866Y0000916788D01*
X0000974207Y0000915555D01*
X0000973320Y0000914474D01*
X0000972239Y0000913587D01*
X0000971006Y0000912928D01*
X0000969668Y0000912522D01*
X0000968035Y0000912362D01*
X0000944365Y0000912362D01*
X0000942732Y0000912522D01*
X0000941394Y0000912928D01*
X0000940161Y0000913587D01*
X0000939081Y0000914474D01*
X0000938194Y0000915555D01*
X0000937535Y0000916788D01*
X0000937129Y0000918126D01*
X0000936968Y0000919759D01*
X0000936968Y0000946382D01*
X0000937129Y0000948015D01*
X0000937535Y0000949353D01*
X0000938194Y0000950586D01*
X0000939081Y0000951666D01*
X0000940161Y0000952553D01*
X0000941394Y0000953212D01*
X0000942732Y0000953618D01*
X0000944365Y0000953779D01*
X0000968035Y0000953779D01*
X0000969668Y0000953618D01*
X0000969668Y0000953618D01*
G37*
G36*
X0000907661Y0000953618D02*
X0000908998Y0000953212D01*
X0000910231Y0000952553D01*
X0000911312Y0000951666D01*
X0000912199Y0000950586D01*
X0000912858Y0000949353D01*
X0000913264Y0000948015D01*
X0000913425Y0000946382D01*
X0000913425Y0000919759D01*
X0000913264Y0000918126D01*
X0000912858Y0000916788D01*
X0000912199Y0000915555D01*
X0000911312Y0000914474D01*
X0000910231Y0000913587D01*
X0000908998Y0000912928D01*
X0000907661Y0000912522D01*
X0000906027Y0000912362D01*
X0000882357Y0000912362D01*
X0000880724Y0000912522D01*
X0000879387Y0000912928D01*
X0000878154Y0000913587D01*
X0000877073Y0000914474D01*
X0000876186Y0000915555D01*
X0000875527Y0000916788D01*
X0000875121Y0000918126D01*
X0000874960Y0000919759D01*
X0000874960Y0000946382D01*
X0000875121Y0000948015D01*
X0000875527Y0000949353D01*
X0000876186Y0000950586D01*
X0000877073Y0000951666D01*
X0000878154Y0000952553D01*
X0000879387Y0000953212D01*
X0000880724Y0000953618D01*
X0000882357Y0000953779D01*
X0000906027Y0000953779D01*
X0000907661Y0000953618D01*
X0000907661Y0000953618D01*
G37*
G36*
X0000387976Y0000961492D02*
X0000389313Y0000961086D01*
X0000390546Y0000960427D01*
X0000391627Y0000959540D01*
X0000392514Y0000958460D01*
X0000393173Y0000957227D01*
X0000393579Y0000955889D01*
X0000393740Y0000954256D01*
X0000393740Y0000927633D01*
X0000393579Y0000926000D01*
X0000393173Y0000924662D01*
X0000392514Y0000923429D01*
X0000391627Y0000922348D01*
X0000390546Y0000921461D01*
X0000389313Y0000920802D01*
X0000387976Y0000920397D01*
X0000386342Y0000920236D01*
X0000362672Y0000920236D01*
X0000361039Y0000920397D01*
X0000359702Y0000920802D01*
X0000358469Y0000921461D01*
X0000357388Y0000922348D01*
X0000356501Y0000923429D01*
X0000355842Y0000924662D01*
X0000355436Y0000926000D01*
X0000355275Y0000927633D01*
X0000355275Y0000954256D01*
X0000355436Y0000955889D01*
X0000355842Y0000957227D01*
X0000356501Y0000958460D01*
X0000357388Y0000959540D01*
X0000358469Y0000960427D01*
X0000359702Y0000961086D01*
X0000361039Y0000961492D01*
X0000362672Y0000961653D01*
X0000386342Y0000961653D01*
X0000387976Y0000961492D01*
X0000387976Y0000961492D01*
G37*
G36*
X0000449983Y0000961492D02*
X0000451321Y0000961086D01*
X0000452554Y0000960427D01*
X0000453635Y0000959540D01*
X0000454522Y0000958460D01*
X0000455181Y0000957227D01*
X0000455587Y0000955889D01*
X0000455747Y0000954256D01*
X0000455747Y0000927633D01*
X0000455587Y0000926000D01*
X0000455181Y0000924662D01*
X0000454522Y0000923429D01*
X0000453635Y0000922348D01*
X0000452554Y0000921461D01*
X0000451321Y0000920802D01*
X0000449983Y0000920397D01*
X0000448350Y0000920236D01*
X0000424680Y0000920236D01*
X0000423047Y0000920397D01*
X0000421709Y0000920802D01*
X0000420476Y0000921461D01*
X0000419396Y0000922348D01*
X0000418509Y0000923429D01*
X0000417850Y0000924662D01*
X0000417444Y0000926000D01*
X0000417283Y0000927633D01*
X0000417283Y0000954256D01*
X0000417444Y0000955889D01*
X0000417850Y0000957227D01*
X0000418509Y0000958460D01*
X0000419396Y0000959540D01*
X0000420476Y0000960427D01*
X0000421709Y0000961086D01*
X0000423047Y0000961492D01*
X0000424680Y0000961653D01*
X0000448350Y0000961653D01*
X0000449983Y0000961492D01*
X0000449983Y0000961492D01*
G37*
G36*
X0001443094Y0001012673D02*
X0001444431Y0001012267D01*
X0001445664Y0001011608D01*
X0001446745Y0001010722D01*
X0001447632Y0001009641D01*
X0001448291Y0001008408D01*
X0001448697Y0001007070D01*
X0001448858Y0001005437D01*
X0001448858Y0000978814D01*
X0001448697Y0000977181D01*
X0001448291Y0000975843D01*
X0001447632Y0000974610D01*
X0001446745Y0000973529D01*
X0001445664Y0000972642D01*
X0001444431Y0000971983D01*
X0001443094Y0000971578D01*
X0001441461Y0000971417D01*
X0001417790Y0000971417D01*
X0001416157Y0000971578D01*
X0001414820Y0000971983D01*
X0001413587Y0000972642D01*
X0001412506Y0000973529D01*
X0001411619Y0000974610D01*
X0001410960Y0000975843D01*
X0001410554Y0000977181D01*
X0001410393Y0000978814D01*
X0001410393Y0001005437D01*
X0001410554Y0001007070D01*
X0001410960Y0001008408D01*
X0001411619Y0001009641D01*
X0001412506Y0001010722D01*
X0001413587Y0001011608D01*
X0001414820Y0001012267D01*
X0001416157Y0001012673D01*
X0001417790Y0001012834D01*
X0001441461Y0001012834D01*
X0001443094Y0001012673D01*
X0001443094Y0001012673D01*
G37*
G36*
X0001505102Y0001012673D02*
X0001506439Y0001012267D01*
X0001507672Y0001011608D01*
X0001508753Y0001010722D01*
X0001509640Y0001009641D01*
X0001510299Y0001008408D01*
X0001510705Y0001007070D01*
X0001510866Y0001005437D01*
X0001510866Y0000978814D01*
X0001510705Y0000977181D01*
X0001510299Y0000975843D01*
X0001509640Y0000974610D01*
X0001508753Y0000973529D01*
X0001507672Y0000972642D01*
X0001506439Y0000971983D01*
X0001505102Y0000971578D01*
X0001503468Y0000971417D01*
X0001479798Y0000971417D01*
X0001478165Y0000971578D01*
X0001476827Y0000971983D01*
X0001475594Y0000972642D01*
X0001474514Y0000973529D01*
X0001473627Y0000974610D01*
X0001472968Y0000975843D01*
X0001472562Y0000977181D01*
X0001472401Y0000978814D01*
X0001472401Y0001005437D01*
X0001472562Y0001007070D01*
X0001472968Y0001008408D01*
X0001473627Y0001009641D01*
X0001474514Y0001010722D01*
X0001475594Y0001011608D01*
X0001476827Y0001012267D01*
X0001478165Y0001012673D01*
X0001479798Y0001012834D01*
X0001503468Y0001012834D01*
X0001505102Y0001012673D01*
X0001505102Y0001012673D01*
G37*
G36*
X0000907661Y0001012673D02*
X0000908998Y0001012267D01*
X0000910231Y0001011608D01*
X0000911312Y0001010722D01*
X0000912199Y0001009641D01*
X0000912858Y0001008408D01*
X0000913264Y0001007070D01*
X0000913425Y0001005437D01*
X0000913425Y0000978814D01*
X0000913264Y0000977181D01*
X0000912858Y0000975843D01*
X0000912199Y0000974610D01*
X0000911312Y0000973529D01*
X0000910231Y0000972642D01*
X0000908998Y0000971983D01*
X0000907661Y0000971578D01*
X0000906027Y0000971417D01*
X0000882357Y0000971417D01*
X0000880724Y0000971578D01*
X0000879387Y0000971983D01*
X0000878154Y0000972642D01*
X0000877073Y0000973529D01*
X0000876186Y0000974610D01*
X0000875527Y0000975843D01*
X0000875121Y0000977181D01*
X0000874960Y0000978814D01*
X0000874960Y0001005437D01*
X0000875121Y0001007070D01*
X0000875527Y0001008408D01*
X0000876186Y0001009641D01*
X0000877073Y0001010722D01*
X0000878154Y0001011608D01*
X0000879387Y0001012267D01*
X0000880724Y0001012673D01*
X0000882357Y0001012834D01*
X0000906027Y0001012834D01*
X0000907661Y0001012673D01*
X0000907661Y0001012673D01*
G37*
G36*
X0000969668Y0001012673D02*
X0000971006Y0001012267D01*
X0000972239Y0001011608D01*
X0000973320Y0001010722D01*
X0000974207Y0001009641D01*
X0000974866Y0001008408D01*
X0000975272Y0001007070D01*
X0000975433Y0001005437D01*
X0000975433Y0000978814D01*
X0000975272Y0000977181D01*
X0000974866Y0000975843D01*
X0000974207Y0000974610D01*
X0000973320Y0000973529D01*
X0000972239Y0000972642D01*
X0000971006Y0000971983D01*
X0000969668Y0000971578D01*
X0000968035Y0000971417D01*
X0000944365Y0000971417D01*
X0000942732Y0000971578D01*
X0000941394Y0000971983D01*
X0000940161Y0000972642D01*
X0000939081Y0000973529D01*
X0000938194Y0000974610D01*
X0000937535Y0000975843D01*
X0000937129Y0000977181D01*
X0000936968Y0000978814D01*
X0000936968Y0001005437D01*
X0000937129Y0001007070D01*
X0000937535Y0001008408D01*
X0000938194Y0001009641D01*
X0000939081Y0001010722D01*
X0000940161Y0001011608D01*
X0000941394Y0001012267D01*
X0000942732Y0001012673D01*
X0000944365Y0001012834D01*
X0000968035Y0001012834D01*
X0000969668Y0001012673D01*
X0000969668Y0001012673D01*
G37*
G36*
X0000387976Y0001020547D02*
X0000389313Y0001020141D01*
X0000390546Y0001019482D01*
X0000391627Y0001018595D01*
X0000392514Y0001017515D01*
X0000393173Y0001016282D01*
X0000393579Y0001014944D01*
X0000393740Y0001013311D01*
X0000393740Y0000986688D01*
X0000393579Y0000985055D01*
X0000393173Y0000983717D01*
X0000392514Y0000982484D01*
X0000391627Y0000981403D01*
X0000390546Y0000980517D01*
X0000389313Y0000979857D01*
X0000387976Y0000979452D01*
X0000386342Y0000979291D01*
X0000362672Y0000979291D01*
X0000361039Y0000979452D01*
X0000359702Y0000979857D01*
X0000358469Y0000980517D01*
X0000357388Y0000981403D01*
X0000356501Y0000982484D01*
X0000355842Y0000983717D01*
X0000355436Y0000985055D01*
X0000355275Y0000986688D01*
X0000355275Y0001013311D01*
X0000355436Y0001014944D01*
X0000355842Y0001016282D01*
X0000356501Y0001017515D01*
X0000357388Y0001018595D01*
X0000358469Y0001019482D01*
X0000359702Y0001020141D01*
X0000361039Y0001020547D01*
X0000362672Y0001020708D01*
X0000386342Y0001020708D01*
X0000387976Y0001020547D01*
X0000387976Y0001020547D01*
G37*
G36*
X0000449983Y0001020547D02*
X0000451321Y0001020141D01*
X0000452554Y0001019482D01*
X0000453635Y0001018595D01*
X0000454522Y0001017515D01*
X0000455181Y0001016282D01*
X0000455587Y0001014944D01*
X0000455747Y0001013311D01*
X0000455747Y0000986688D01*
X0000455587Y0000985055D01*
X0000455181Y0000983717D01*
X0000454522Y0000982484D01*
X0000453635Y0000981403D01*
X0000452554Y0000980517D01*
X0000451321Y0000979857D01*
X0000449983Y0000979452D01*
X0000448350Y0000979291D01*
X0000424680Y0000979291D01*
X0000423047Y0000979452D01*
X0000421709Y0000979857D01*
X0000420476Y0000980517D01*
X0000419396Y0000981403D01*
X0000418509Y0000982484D01*
X0000417850Y0000983717D01*
X0000417444Y0000985055D01*
X0000417283Y0000986688D01*
X0000417283Y0001013311D01*
X0000417444Y0001014944D01*
X0000417850Y0001016282D01*
X0000418509Y0001017515D01*
X0000419396Y0001018595D01*
X0000420476Y0001019482D01*
X0000421709Y0001020141D01*
X0000423047Y0001020547D01*
X0000424680Y0001020708D01*
X0000448350Y0001020708D01*
X0000449983Y0001020547D01*
X0000449983Y0001020547D01*
G37*
G36*
X0001493783Y0001453618D02*
X0001495120Y0001453212D01*
X0001496353Y0001452553D01*
X0001497434Y0001451666D01*
X0001498321Y0001450586D01*
X0001498980Y0001449353D01*
X0001499386Y0001448015D01*
X0001499547Y0001446382D01*
X0001499547Y0001419759D01*
X0001499386Y0001418126D01*
X0001498980Y0001416788D01*
X0001498321Y0001415555D01*
X0001497434Y0001414474D01*
X0001496353Y0001413587D01*
X0001495120Y0001412928D01*
X0001493783Y0001412523D01*
X0001492150Y0001412362D01*
X0001468479Y0001412362D01*
X0001466846Y0001412523D01*
X0001465509Y0001412928D01*
X0001464276Y0001413587D01*
X0001463195Y0001414474D01*
X0001462308Y0001415555D01*
X0001461649Y0001416788D01*
X0001461243Y0001418126D01*
X0001461082Y0001419759D01*
X0001461082Y0001446382D01*
X0001461243Y0001448015D01*
X0001461649Y0001449353D01*
X0001462308Y0001450586D01*
X0001463195Y0001451666D01*
X0001464276Y0001452553D01*
X0001465509Y0001453212D01*
X0001466846Y0001453618D01*
X0001468479Y0001453779D01*
X0001492150Y0001453779D01*
X0001493783Y0001453618D01*
X0001493783Y0001453618D01*
G37*
G36*
X0001431775Y0001453618D02*
X0001433112Y0001453212D01*
X0001434345Y0001452553D01*
X0001435426Y0001451666D01*
X0001436313Y0001450586D01*
X0001436972Y0001449353D01*
X0001437378Y0001448015D01*
X0001437539Y0001446382D01*
X0001437539Y0001419759D01*
X0001437378Y0001418126D01*
X0001436972Y0001416788D01*
X0001436313Y0001415555D01*
X0001435426Y0001414474D01*
X0001434345Y0001413587D01*
X0001433112Y0001412928D01*
X0001431775Y0001412523D01*
X0001430142Y0001412362D01*
X0001406472Y0001412362D01*
X0001404838Y0001412523D01*
X0001403501Y0001412928D01*
X0001402268Y0001413587D01*
X0001401187Y0001414474D01*
X0001400300Y0001415555D01*
X0001399641Y0001416788D01*
X0001399235Y0001418126D01*
X0001399074Y0001419759D01*
X0001399074Y0001446382D01*
X0001399235Y0001448015D01*
X0001399641Y0001449353D01*
X0001400300Y0001450586D01*
X0001401187Y0001451666D01*
X0001402268Y0001452553D01*
X0001403501Y0001453212D01*
X0001404838Y0001453618D01*
X0001406472Y0001453779D01*
X0001430142Y0001453779D01*
X0001431775Y0001453618D01*
X0001431775Y0001453618D01*
G37*
G36*
X0000907661Y0001453618D02*
X0000908998Y0001453212D01*
X0000910231Y0001452553D01*
X0000911312Y0001451666D01*
X0000912199Y0001450586D01*
X0000912858Y0001449353D01*
X0000913264Y0001448015D01*
X0000913425Y0001446382D01*
X0000913425Y0001419759D01*
X0000913264Y0001418126D01*
X0000912858Y0001416788D01*
X0000912199Y0001415555D01*
X0000911312Y0001414474D01*
X0000910231Y0001413587D01*
X0000908998Y0001412928D01*
X0000907661Y0001412523D01*
X0000906027Y0001412362D01*
X0000882357Y0001412362D01*
X0000880724Y0001412523D01*
X0000879387Y0001412928D01*
X0000878154Y0001413587D01*
X0000877073Y0001414474D01*
X0000876186Y0001415555D01*
X0000875527Y0001416788D01*
X0000875121Y0001418126D01*
X0000874960Y0001419759D01*
X0000874960Y0001446382D01*
X0000875121Y0001448015D01*
X0000875527Y0001449353D01*
X0000876186Y0001450586D01*
X0000877073Y0001451666D01*
X0000878154Y0001452553D01*
X0000879387Y0001453212D01*
X0000880724Y0001453618D01*
X0000882357Y0001453779D01*
X0000906027Y0001453779D01*
X0000907661Y0001453618D01*
X0000907661Y0001453618D01*
G37*
G36*
X0000969668Y0001453618D02*
X0000971006Y0001453212D01*
X0000972239Y0001452553D01*
X0000973320Y0001451666D01*
X0000974207Y0001450586D01*
X0000974866Y0001449353D01*
X0000975272Y0001448015D01*
X0000975433Y0001446382D01*
X0000975433Y0001419759D01*
X0000975272Y0001418126D01*
X0000974866Y0001416788D01*
X0000974207Y0001415555D01*
X0000973320Y0001414474D01*
X0000972239Y0001413587D01*
X0000971006Y0001412928D01*
X0000969668Y0001412523D01*
X0000968035Y0001412362D01*
X0000944365Y0001412362D01*
X0000942732Y0001412523D01*
X0000941394Y0001412928D01*
X0000940161Y0001413587D01*
X0000939081Y0001414474D01*
X0000938194Y0001415555D01*
X0000937535Y0001416788D01*
X0000937129Y0001418126D01*
X0000936968Y0001419759D01*
X0000936968Y0001446382D01*
X0000937129Y0001448015D01*
X0000937535Y0001449353D01*
X0000938194Y0001450586D01*
X0000939081Y0001451666D01*
X0000940161Y0001452553D01*
X0000941394Y0001453212D01*
X0000942732Y0001453618D01*
X0000944365Y0001453779D01*
X0000968035Y0001453779D01*
X0000969668Y0001453618D01*
X0000969668Y0001453618D01*
G37*
G36*
X0000449983Y0001461492D02*
X0000451321Y0001461086D01*
X0000452554Y0001460427D01*
X0000453635Y0001459540D01*
X0000454522Y0001458460D01*
X0000455181Y0001457227D01*
X0000455587Y0001455889D01*
X0000455747Y0001454256D01*
X0000455747Y0001427633D01*
X0000455587Y0001426000D01*
X0000455181Y0001424662D01*
X0000454522Y0001423429D01*
X0000453635Y0001422348D01*
X0000452554Y0001421461D01*
X0000451321Y0001420802D01*
X0000449983Y0001420397D01*
X0000448350Y0001420236D01*
X0000424680Y0001420236D01*
X0000423047Y0001420397D01*
X0000421709Y0001420802D01*
X0000420476Y0001421461D01*
X0000419396Y0001422348D01*
X0000418509Y0001423429D01*
X0000417850Y0001424662D01*
X0000417444Y0001426000D01*
X0000417283Y0001427633D01*
X0000417283Y0001454256D01*
X0000417444Y0001455889D01*
X0000417850Y0001457227D01*
X0000418509Y0001458460D01*
X0000419396Y0001459540D01*
X0000420476Y0001460427D01*
X0000421709Y0001461086D01*
X0000423047Y0001461492D01*
X0000424680Y0001461653D01*
X0000448350Y0001461653D01*
X0000449983Y0001461492D01*
X0000449983Y0001461492D01*
G37*
G36*
X0000387976Y0001461492D02*
X0000389313Y0001461086D01*
X0000390546Y0001460427D01*
X0000391627Y0001459540D01*
X0000392514Y0001458460D01*
X0000393173Y0001457227D01*
X0000393579Y0001455889D01*
X0000393740Y0001454256D01*
X0000393740Y0001427633D01*
X0000393579Y0001426000D01*
X0000393173Y0001424662D01*
X0000392514Y0001423429D01*
X0000391627Y0001422348D01*
X0000390546Y0001421461D01*
X0000389313Y0001420802D01*
X0000387976Y0001420397D01*
X0000386342Y0001420236D01*
X0000362672Y0001420236D01*
X0000361039Y0001420397D01*
X0000359702Y0001420802D01*
X0000358469Y0001421461D01*
X0000357388Y0001422348D01*
X0000356501Y0001423429D01*
X0000355842Y0001424662D01*
X0000355436Y0001426000D01*
X0000355275Y0001427633D01*
X0000355275Y0001454256D01*
X0000355436Y0001455889D01*
X0000355842Y0001457227D01*
X0000356501Y0001458460D01*
X0000357388Y0001459540D01*
X0000358469Y0001460427D01*
X0000359702Y0001461086D01*
X0000361039Y0001461492D01*
X0000362672Y0001461653D01*
X0000386342Y0001461653D01*
X0000387976Y0001461492D01*
X0000387976Y0001461492D01*
G37*
G36*
X0000907661Y0001512673D02*
X0000908998Y0001512267D01*
X0000910231Y0001511608D01*
X0000911312Y0001510722D01*
X0000912199Y0001509641D01*
X0000912858Y0001508408D01*
X0000913264Y0001507070D01*
X0000913425Y0001505437D01*
X0000913425Y0001478814D01*
X0000913264Y0001477181D01*
X0000912858Y0001475843D01*
X0000912199Y0001474610D01*
X0000911312Y0001473529D01*
X0000910231Y0001472643D01*
X0000908998Y0001471983D01*
X0000907661Y0001471578D01*
X0000906027Y0001471417D01*
X0000882357Y0001471417D01*
X0000880724Y0001471578D01*
X0000879387Y0001471983D01*
X0000878154Y0001472643D01*
X0000877073Y0001473529D01*
X0000876186Y0001474610D01*
X0000875527Y0001475843D01*
X0000875121Y0001477181D01*
X0000874960Y0001478814D01*
X0000874960Y0001505437D01*
X0000875121Y0001507070D01*
X0000875527Y0001508408D01*
X0000876186Y0001509641D01*
X0000877073Y0001510722D01*
X0000878154Y0001511608D01*
X0000879387Y0001512267D01*
X0000880724Y0001512673D01*
X0000882357Y0001512834D01*
X0000906027Y0001512834D01*
X0000907661Y0001512673D01*
X0000907661Y0001512673D01*
G37*
G36*
X0001431283Y0001512673D02*
X0001432620Y0001512267D01*
X0001433853Y0001511608D01*
X0001434934Y0001510722D01*
X0001435821Y0001509641D01*
X0001436480Y0001508408D01*
X0001436886Y0001507070D01*
X0001437047Y0001505437D01*
X0001437047Y0001478814D01*
X0001436886Y0001477181D01*
X0001436480Y0001475843D01*
X0001435821Y0001474610D01*
X0001434934Y0001473529D01*
X0001433853Y0001472643D01*
X0001432620Y0001471983D01*
X0001431283Y0001471578D01*
X0001429649Y0001471417D01*
X0001405979Y0001471417D01*
X0001404346Y0001471578D01*
X0001403009Y0001471983D01*
X0001401776Y0001472643D01*
X0001400695Y0001473529D01*
X0001399808Y0001474610D01*
X0001399149Y0001475843D01*
X0001398743Y0001477181D01*
X0001398582Y0001478814D01*
X0001398582Y0001505437D01*
X0001398743Y0001507070D01*
X0001399149Y0001508408D01*
X0001399808Y0001509641D01*
X0001400695Y0001510722D01*
X0001401776Y0001511608D01*
X0001403009Y0001512267D01*
X0001404346Y0001512673D01*
X0001405979Y0001512834D01*
X0001429649Y0001512834D01*
X0001431283Y0001512673D01*
X0001431283Y0001512673D01*
G37*
G36*
X0001493290Y0001512673D02*
X0001494628Y0001512267D01*
X0001495861Y0001511608D01*
X0001496942Y0001510722D01*
X0001497829Y0001509641D01*
X0001498488Y0001508408D01*
X0001498894Y0001507070D01*
X0001499055Y0001505437D01*
X0001499055Y0001478814D01*
X0001498894Y0001477181D01*
X0001498488Y0001475843D01*
X0001497829Y0001474610D01*
X0001496942Y0001473529D01*
X0001495861Y0001472643D01*
X0001494628Y0001471983D01*
X0001493290Y0001471578D01*
X0001491657Y0001471417D01*
X0001467987Y0001471417D01*
X0001466354Y0001471578D01*
X0001465016Y0001471983D01*
X0001463783Y0001472643D01*
X0001462703Y0001473529D01*
X0001461816Y0001474610D01*
X0001461157Y0001475843D01*
X0001460751Y0001477181D01*
X0001460590Y0001478814D01*
X0001460590Y0001505437D01*
X0001460751Y0001507070D01*
X0001461157Y0001508408D01*
X0001461816Y0001509641D01*
X0001462703Y0001510722D01*
X0001463783Y0001511608D01*
X0001465016Y0001512267D01*
X0001466354Y0001512673D01*
X0001467987Y0001512834D01*
X0001491657Y0001512834D01*
X0001493290Y0001512673D01*
X0001493290Y0001512673D01*
G37*
G36*
X0000969668Y0001512673D02*
X0000971006Y0001512267D01*
X0000972239Y0001511608D01*
X0000973320Y0001510722D01*
X0000974207Y0001509641D01*
X0000974866Y0001508408D01*
X0000975272Y0001507070D01*
X0000975433Y0001505437D01*
X0000975433Y0001478814D01*
X0000975272Y0001477181D01*
X0000974866Y0001475843D01*
X0000974207Y0001474610D01*
X0000973320Y0001473529D01*
X0000972239Y0001472643D01*
X0000971006Y0001471983D01*
X0000969668Y0001471578D01*
X0000968035Y0001471417D01*
X0000944365Y0001471417D01*
X0000942732Y0001471578D01*
X0000941394Y0001471983D01*
X0000940161Y0001472643D01*
X0000939081Y0001473529D01*
X0000938194Y0001474610D01*
X0000937535Y0001475843D01*
X0000937129Y0001477181D01*
X0000936968Y0001478814D01*
X0000936968Y0001505437D01*
X0000937129Y0001507070D01*
X0000937535Y0001508408D01*
X0000938194Y0001509641D01*
X0000939081Y0001510722D01*
X0000940161Y0001511608D01*
X0000941394Y0001512267D01*
X0000942732Y0001512673D01*
X0000944365Y0001512834D01*
X0000968035Y0001512834D01*
X0000969668Y0001512673D01*
X0000969668Y0001512673D01*
G37*
G36*
X0000449983Y0001516610D02*
X0000451321Y0001516205D01*
X0000452554Y0001515545D01*
X0000453635Y0001514659D01*
X0000454522Y0001513578D01*
X0000455181Y0001512345D01*
X0000455587Y0001511007D01*
X0000455747Y0001509374D01*
X0000455747Y0001482751D01*
X0000455587Y0001481118D01*
X0000455181Y0001479780D01*
X0000454522Y0001478547D01*
X0000453635Y0001477466D01*
X0000452554Y0001476580D01*
X0000451321Y0001475920D01*
X0000449983Y0001475515D01*
X0000448350Y0001475354D01*
X0000424680Y0001475354D01*
X0000423047Y0001475515D01*
X0000421709Y0001475920D01*
X0000420476Y0001476580D01*
X0000419396Y0001477466D01*
X0000418509Y0001478547D01*
X0000417850Y0001479780D01*
X0000417444Y0001481118D01*
X0000417283Y0001482751D01*
X0000417283Y0001509374D01*
X0000417444Y0001511007D01*
X0000417850Y0001512345D01*
X0000418509Y0001513578D01*
X0000419396Y0001514659D01*
X0000420476Y0001515545D01*
X0000421709Y0001516205D01*
X0000423047Y0001516610D01*
X0000424680Y0001516771D01*
X0000448350Y0001516771D01*
X0000449983Y0001516610D01*
X0000449983Y0001516610D01*
G37*
G36*
X0000387976Y0001516610D02*
X0000389313Y0001516205D01*
X0000390546Y0001515545D01*
X0000391627Y0001514659D01*
X0000392514Y0001513578D01*
X0000393173Y0001512345D01*
X0000393579Y0001511007D01*
X0000393740Y0001509374D01*
X0000393740Y0001482751D01*
X0000393579Y0001481118D01*
X0000393173Y0001479780D01*
X0000392514Y0001478547D01*
X0000391627Y0001477466D01*
X0000390546Y0001476580D01*
X0000389313Y0001475920D01*
X0000387976Y0001475515D01*
X0000386342Y0001475354D01*
X0000362672Y0001475354D01*
X0000361039Y0001475515D01*
X0000359702Y0001475920D01*
X0000358469Y0001476580D01*
X0000357388Y0001477466D01*
X0000356501Y0001478547D01*
X0000355842Y0001479780D01*
X0000355436Y0001481118D01*
X0000355275Y0001482751D01*
X0000355275Y0001509374D01*
X0000355436Y0001511007D01*
X0000355842Y0001512345D01*
X0000356501Y0001513578D01*
X0000357388Y0001514659D01*
X0000358469Y0001515545D01*
X0000359702Y0001516205D01*
X0000361039Y0001516610D01*
X0000362672Y0001516771D01*
X0000386342Y0001516771D01*
X0000387976Y0001516610D01*
X0000387976Y0001516610D01*
G37*
G04 next file*
G04 #@! TF.GenerationSoftware,KiCad,Pcbnew,(5.0.2)-1*
G04 #@! TF.CreationDate,2019-01-19T12:13:54+11:00*
G04 #@! TF.ProjectId,WarGames_SAO,57617247-616d-4657-935f-53414f2e6b69,rev?*
G04 #@! TF.SameCoordinates,Original*
G04 #@! TF.FileFunction,Soldermask,Top*
G04 #@! TF.FilePolarity,Negative*
G04 Gerber Fmt 4.6, Leading zero omitted, Abs format (unit mm)*
G04 Created by KiCad (PCBNEW (5.0.2)-1) date 19/01/2019 12:13:54*
G01*
G04 APERTURE LIST*
G04 APERTURE END LIST*
D21*
G36*
X0003702773Y0000171436D02*
X0003705379Y0000171179D01*
X0003709836Y0000169827D01*
X0003712065Y0000169151D01*
X0003717523Y0000166234D01*
X0003718228Y0000165857D01*
X0003719635Y0000164702D01*
X0003723629Y0000161424D01*
X0003726907Y0000157430D01*
X0003728062Y0000156023D01*
X0003728062Y0000156023D01*
X0003731356Y0000149860D01*
X0003731356Y0000149860D01*
X0003733384Y0000143174D01*
X0003734069Y0000136220D01*
X0003733384Y0000129266D01*
X0003732032Y0000124808D01*
X0003731356Y0000122580D01*
X0003728438Y0000117122D01*
X0003728062Y0000116417D01*
X0003726907Y0000115010D01*
X0003723629Y0000111016D01*
X0003719635Y0000107738D01*
X0003718228Y0000106583D01*
X0003718227Y0000106583D01*
X0003712065Y0000103289D01*
X0003709836Y0000102613D01*
X0003705379Y0000101261D01*
X0003702773Y0000101004D01*
X0003700167Y0000100747D01*
X0003696682Y0000100747D01*
X0003694077Y0000101004D01*
X0003691471Y0000101261D01*
X0003687013Y0000102613D01*
X0003684784Y0000103289D01*
X0003678622Y0000106583D01*
X0003678622Y0000106583D01*
X0003677215Y0000107738D01*
X0003673221Y0000111016D01*
X0003669943Y0000115010D01*
X0003668788Y0000116417D01*
X0003668411Y0000117122D01*
X0003665494Y0000122580D01*
X0003664818Y0000124808D01*
X0003663466Y0000129266D01*
X0003662781Y0000136220D01*
X0003663466Y0000143174D01*
X0003665494Y0000149860D01*
X0003665494Y0000149860D01*
X0003668788Y0000156023D01*
X0003668788Y0000156023D01*
X0003669943Y0000157430D01*
X0003673221Y0000161424D01*
X0003677215Y0000164702D01*
X0003678622Y0000165857D01*
X0003679327Y0000166234D01*
X0003684784Y0000169151D01*
X0003687013Y0000169827D01*
X0003691471Y0000171179D01*
X0003694077Y0000171436D01*
X0003696682Y0000171692D01*
X0003700167Y0000171692D01*
X0003702773Y0000171436D01*
X0003702773Y0000171436D01*
G37*
G36*
X0003602773Y0000171436D02*
X0003605379Y0000171179D01*
X0003609836Y0000169827D01*
X0003612065Y0000169151D01*
X0003617523Y0000166234D01*
X0003618228Y0000165857D01*
X0003619635Y0000164702D01*
X0003623629Y0000161424D01*
X0003626907Y0000157430D01*
X0003628062Y0000156023D01*
X0003628062Y0000156023D01*
X0003631356Y0000149860D01*
X0003631356Y0000149860D01*
X0003633384Y0000143174D01*
X0003634069Y0000136220D01*
X0003633384Y0000129266D01*
X0003632032Y0000124808D01*
X0003631356Y0000122580D01*
X0003628438Y0000117122D01*
X0003628062Y0000116417D01*
X0003626907Y0000115010D01*
X0003623629Y0000111016D01*
X0003619635Y0000107738D01*
X0003618228Y0000106583D01*
X0003618227Y0000106583D01*
X0003612065Y0000103289D01*
X0003609836Y0000102613D01*
X0003605379Y0000101261D01*
X0003602773Y0000101004D01*
X0003600167Y0000100747D01*
X0003596682Y0000100747D01*
X0003594077Y0000101004D01*
X0003591471Y0000101261D01*
X0003587013Y0000102613D01*
X0003584784Y0000103289D01*
X0003578622Y0000106583D01*
X0003578622Y0000106583D01*
X0003577215Y0000107738D01*
X0003573221Y0000111016D01*
X0003569943Y0000115010D01*
X0003568788Y0000116417D01*
X0003568411Y0000117122D01*
X0003565494Y0000122580D01*
X0003564818Y0000124808D01*
X0003563466Y0000129266D01*
X0003562781Y0000136220D01*
X0003563466Y0000143174D01*
X0003565494Y0000149860D01*
X0003565494Y0000149860D01*
X0003568788Y0000156023D01*
X0003568788Y0000156023D01*
X0003569943Y0000157430D01*
X0003573221Y0000161424D01*
X0003577215Y0000164702D01*
X0003578622Y0000165857D01*
X0003579327Y0000166234D01*
X0003584784Y0000169151D01*
X0003587013Y0000169827D01*
X0003591471Y0000171179D01*
X0003594077Y0000171436D01*
X0003596682Y0000171692D01*
X0003600167Y0000171692D01*
X0003602773Y0000171436D01*
X0003602773Y0000171436D01*
G37*
G36*
X0003702773Y0000271436D02*
X0003705379Y0000271179D01*
X0003709836Y0000269827D01*
X0003712065Y0000269151D01*
X0003717523Y0000266234D01*
X0003718228Y0000265857D01*
X0003719635Y0000264702D01*
X0003723629Y0000261424D01*
X0003726907Y0000257430D01*
X0003728062Y0000256023D01*
X0003728062Y0000256023D01*
X0003731356Y0000249860D01*
X0003731356Y0000249860D01*
X0003733384Y0000243174D01*
X0003734069Y0000236220D01*
X0003733384Y0000229266D01*
X0003732032Y0000224808D01*
X0003731356Y0000222580D01*
X0003728438Y0000217122D01*
X0003728062Y0000216417D01*
X0003726907Y0000215010D01*
X0003723629Y0000211016D01*
X0003719635Y0000207738D01*
X0003718228Y0000206583D01*
X0003718227Y0000206583D01*
X0003712065Y0000203289D01*
X0003709836Y0000202613D01*
X0003705379Y0000201261D01*
X0003702773Y0000201004D01*
X0003700167Y0000200748D01*
X0003696682Y0000200748D01*
X0003694077Y0000201004D01*
X0003691471Y0000201261D01*
X0003687013Y0000202613D01*
X0003684784Y0000203289D01*
X0003678622Y0000206583D01*
X0003678622Y0000206583D01*
X0003677215Y0000207738D01*
X0003673221Y0000211016D01*
X0003669943Y0000215010D01*
X0003668788Y0000216417D01*
X0003668411Y0000217122D01*
X0003665494Y0000222580D01*
X0003664818Y0000224808D01*
X0003663466Y0000229266D01*
X0003662781Y0000236220D01*
X0003663466Y0000243174D01*
X0003665494Y0000249860D01*
X0003665494Y0000249860D01*
X0003668788Y0000256023D01*
X0003668788Y0000256023D01*
X0003669943Y0000257430D01*
X0003673221Y0000261424D01*
X0003677215Y0000264702D01*
X0003678622Y0000265857D01*
X0003679327Y0000266234D01*
X0003684784Y0000269151D01*
X0003687013Y0000269827D01*
X0003691471Y0000271179D01*
X0003694077Y0000271436D01*
X0003696682Y0000271692D01*
X0003700167Y0000271692D01*
X0003702773Y0000271436D01*
X0003702773Y0000271436D01*
G37*
G36*
X0003633897Y0000200748D02*
X0003562952Y0000200748D01*
X0003562952Y0000271692D01*
X0003633897Y0000271692D01*
X0003633897Y0000200748D01*
X0003633897Y0000200748D01*
G37*
G36*
X0002965731Y0000445744D02*
X0002967069Y0000445338D01*
X0002968302Y0000444679D01*
X0002969383Y0000443792D01*
X0002970270Y0000442712D01*
X0002970929Y0000441479D01*
X0002971335Y0000440141D01*
X0002971496Y0000438508D01*
X0002971496Y0000411885D01*
X0002971335Y0000410252D01*
X0002970929Y0000408914D01*
X0002970270Y0000407681D01*
X0002969383Y0000406600D01*
X0002968302Y0000405713D01*
X0002967069Y0000405054D01*
X0002965731Y0000404649D01*
X0002964098Y0000404488D01*
X0002940428Y0000404488D01*
X0002938795Y0000404649D01*
X0002937457Y0000405054D01*
X0002936224Y0000405713D01*
X0002935144Y0000406600D01*
X0002934257Y0000407681D01*
X0002933598Y0000408914D01*
X0002933192Y0000410252D01*
X0002933031Y0000411885D01*
X0002933031Y0000438508D01*
X0002933192Y0000440141D01*
X0002933598Y0000441479D01*
X0002934257Y0000442712D01*
X0002935144Y0000443792D01*
X0002936224Y0000444679D01*
X0002937457Y0000445338D01*
X0002938795Y0000445744D01*
X0002940428Y0000445905D01*
X0002964098Y0000445905D01*
X0002965731Y0000445744D01*
X0002965731Y0000445744D01*
G37*
G36*
X0002903724Y0000445744D02*
X0002905061Y0000445338D01*
X0002906294Y0000444679D01*
X0002907375Y0000443792D01*
X0002908262Y0000442712D01*
X0002908921Y0000441479D01*
X0002909327Y0000440141D01*
X0002909488Y0000438508D01*
X0002909488Y0000411885D01*
X0002909327Y0000410252D01*
X0002908921Y0000408914D01*
X0002908262Y0000407681D01*
X0002907375Y0000406600D01*
X0002906294Y0000405713D01*
X0002905061Y0000405054D01*
X0002903724Y0000404649D01*
X0002902090Y0000404488D01*
X0002878420Y0000404488D01*
X0002876787Y0000404649D01*
X0002875450Y0000405054D01*
X0002874217Y0000405713D01*
X0002873136Y0000406600D01*
X0002872249Y0000407681D01*
X0002871590Y0000408914D01*
X0002871184Y0000410252D01*
X0002871023Y0000411885D01*
X0002871023Y0000438508D01*
X0002871184Y0000440141D01*
X0002871590Y0000441479D01*
X0002872249Y0000442712D01*
X0002873136Y0000443792D01*
X0002874217Y0000444679D01*
X0002875450Y0000445338D01*
X0002876787Y0000445744D01*
X0002878420Y0000445905D01*
X0002902090Y0000445905D01*
X0002903724Y0000445744D01*
X0002903724Y0000445744D01*
G37*
G36*
X0003435220Y0000449681D02*
X0003436557Y0000449275D01*
X0003437790Y0000448616D01*
X0003438871Y0000447729D01*
X0003439758Y0000446649D01*
X0003440417Y0000445416D01*
X0003440823Y0000444078D01*
X0003440984Y0000442445D01*
X0003440984Y0000415822D01*
X0003440823Y0000414189D01*
X0003440417Y0000412851D01*
X0003439758Y0000411618D01*
X0003438871Y0000410537D01*
X0003437790Y0000409650D01*
X0003436557Y0000408991D01*
X0003435220Y0000408585D01*
X0003433587Y0000408425D01*
X0003409916Y0000408425D01*
X0003408283Y0000408585D01*
X0003406946Y0000408991D01*
X0003405713Y0000409650D01*
X0003404632Y0000410537D01*
X0003403745Y0000411618D01*
X0003403086Y0000412851D01*
X0003402680Y0000414189D01*
X0003402519Y0000415822D01*
X0003402519Y0000442445D01*
X0003402680Y0000444078D01*
X0003403086Y0000445416D01*
X0003403745Y0000446649D01*
X0003404632Y0000447729D01*
X0003405713Y0000448616D01*
X0003406946Y0000449275D01*
X0003408283Y0000449681D01*
X0003409916Y0000449842D01*
X0003433587Y0000449842D01*
X0003435220Y0000449681D01*
X0003435220Y0000449681D01*
G37*
G36*
X0003497228Y0000449681D02*
X0003498565Y0000449275D01*
X0003499798Y0000448616D01*
X0003500879Y0000447729D01*
X0003501766Y0000446649D01*
X0003502425Y0000445416D01*
X0003502831Y0000444078D01*
X0003502992Y0000442445D01*
X0003502992Y0000415822D01*
X0003502831Y0000414189D01*
X0003502425Y0000412851D01*
X0003501766Y0000411618D01*
X0003500879Y0000410537D01*
X0003499798Y0000409650D01*
X0003498565Y0000408991D01*
X0003497228Y0000408585D01*
X0003495594Y0000408425D01*
X0003471924Y0000408425D01*
X0003470291Y0000408585D01*
X0003468954Y0000408991D01*
X0003467721Y0000409650D01*
X0003466640Y0000410537D01*
X0003465753Y0000411618D01*
X0003465094Y0000412851D01*
X0003464688Y0000414189D01*
X0003464527Y0000415822D01*
X0003464527Y0000442445D01*
X0003464688Y0000444078D01*
X0003465094Y0000445416D01*
X0003465753Y0000446649D01*
X0003466640Y0000447729D01*
X0003467721Y0000448616D01*
X0003468954Y0000449275D01*
X0003470291Y0000449681D01*
X0003471924Y0000449842D01*
X0003495594Y0000449842D01*
X0003497228Y0000449681D01*
X0003497228Y0000449681D01*
G37*
G36*
X0002372228Y0000449681D02*
X0002373565Y0000449275D01*
X0002374798Y0000448616D01*
X0002375879Y0000447729D01*
X0002376766Y0000446649D01*
X0002377425Y0000445416D01*
X0002377831Y0000444078D01*
X0002377992Y0000442445D01*
X0002377992Y0000415822D01*
X0002377831Y0000414189D01*
X0002377425Y0000412851D01*
X0002376766Y0000411618D01*
X0002375879Y0000410537D01*
X0002374798Y0000409650D01*
X0002373565Y0000408991D01*
X0002372228Y0000408585D01*
X0002370594Y0000408425D01*
X0002346924Y0000408425D01*
X0002345291Y0000408585D01*
X0002343954Y0000408991D01*
X0002342721Y0000409650D01*
X0002341640Y0000410537D01*
X0002340753Y0000411618D01*
X0002340094Y0000412851D01*
X0002339688Y0000414189D01*
X0002339527Y0000415822D01*
X0002339527Y0000442445D01*
X0002339688Y0000444078D01*
X0002340094Y0000445416D01*
X0002340753Y0000446649D01*
X0002341640Y0000447729D01*
X0002342721Y0000448616D01*
X0002343954Y0000449275D01*
X0002345291Y0000449681D01*
X0002346924Y0000449842D01*
X0002370594Y0000449842D01*
X0002372228Y0000449681D01*
X0002372228Y0000449681D01*
G37*
G36*
X0002434235Y0000449681D02*
X0002435573Y0000449275D01*
X0002436806Y0000448616D01*
X0002437887Y0000447729D01*
X0002438774Y0000446649D01*
X0002439433Y0000445416D01*
X0002439839Y0000444078D01*
X0002440000Y0000442445D01*
X0002440000Y0000415822D01*
X0002439839Y0000414189D01*
X0002439433Y0000412851D01*
X0002438774Y0000411618D01*
X0002437887Y0000410537D01*
X0002436806Y0000409650D01*
X0002435573Y0000408991D01*
X0002434235Y0000408585D01*
X0002432602Y0000408425D01*
X0002408932Y0000408425D01*
X0002407299Y0000408585D01*
X0002405961Y0000408991D01*
X0002404728Y0000409650D01*
X0002403648Y0000410537D01*
X0002402761Y0000411618D01*
X0002402102Y0000412851D01*
X0002401696Y0000414189D01*
X0002401535Y0000415822D01*
X0002401535Y0000442445D01*
X0002401696Y0000444078D01*
X0002402102Y0000445416D01*
X0002402761Y0000446649D01*
X0002403648Y0000447729D01*
X0002404728Y0000448616D01*
X0002405961Y0000449275D01*
X0002407299Y0000449681D01*
X0002408932Y0000449842D01*
X0002432602Y0000449842D01*
X0002434235Y0000449681D01*
X0002434235Y0000449681D01*
G37*
G36*
X0002903724Y0000504799D02*
X0002905061Y0000504393D01*
X0002906294Y0000503734D01*
X0002907375Y0000502847D01*
X0002908262Y0000501767D01*
X0002908921Y0000500534D01*
X0002909327Y0000499196D01*
X0002909488Y0000497563D01*
X0002909488Y0000470940D01*
X0002909327Y0000469307D01*
X0002908921Y0000467969D01*
X0002908262Y0000466736D01*
X0002907375Y0000465655D01*
X0002906294Y0000464768D01*
X0002905061Y0000464109D01*
X0002903724Y0000463704D01*
X0002902090Y0000463543D01*
X0002878420Y0000463543D01*
X0002876787Y0000463704D01*
X0002875450Y0000464109D01*
X0002874217Y0000464768D01*
X0002873136Y0000465655D01*
X0002872249Y0000466736D01*
X0002871590Y0000467969D01*
X0002871184Y0000469307D01*
X0002871023Y0000470940D01*
X0002871023Y0000497563D01*
X0002871184Y0000499196D01*
X0002871590Y0000500534D01*
X0002872249Y0000501767D01*
X0002873136Y0000502847D01*
X0002874217Y0000503734D01*
X0002875450Y0000504393D01*
X0002876787Y0000504799D01*
X0002878420Y0000504960D01*
X0002902090Y0000504960D01*
X0002903724Y0000504799D01*
X0002903724Y0000504799D01*
G37*
G36*
X0002965731Y0000504799D02*
X0002967069Y0000504393D01*
X0002968302Y0000503734D01*
X0002969383Y0000502847D01*
X0002970270Y0000501767D01*
X0002970929Y0000500534D01*
X0002971335Y0000499196D01*
X0002971496Y0000497563D01*
X0002971496Y0000470940D01*
X0002971335Y0000469307D01*
X0002970929Y0000467969D01*
X0002970270Y0000466736D01*
X0002969383Y0000465655D01*
X0002968302Y0000464768D01*
X0002967069Y0000464109D01*
X0002965731Y0000463704D01*
X0002964098Y0000463543D01*
X0002940428Y0000463543D01*
X0002938795Y0000463704D01*
X0002937457Y0000464109D01*
X0002936224Y0000464768D01*
X0002935144Y0000465655D01*
X0002934257Y0000466736D01*
X0002933598Y0000467969D01*
X0002933192Y0000469307D01*
X0002933031Y0000470940D01*
X0002933031Y0000497563D01*
X0002933192Y0000499196D01*
X0002933598Y0000500534D01*
X0002934257Y0000501767D01*
X0002935144Y0000502847D01*
X0002936224Y0000503734D01*
X0002937457Y0000504393D01*
X0002938795Y0000504799D01*
X0002940428Y0000504960D01*
X0002964098Y0000504960D01*
X0002965731Y0000504799D01*
X0002965731Y0000504799D01*
G37*
G36*
X0003497228Y0000508736D02*
X0003498565Y0000508330D01*
X0003499798Y0000507671D01*
X0003500879Y0000506784D01*
X0003501766Y0000505704D01*
X0003502425Y0000504471D01*
X0003502831Y0000503133D01*
X0003502992Y0000501500D01*
X0003502992Y0000474877D01*
X0003502831Y0000473244D01*
X0003502425Y0000471906D01*
X0003501766Y0000470673D01*
X0003500879Y0000469592D01*
X0003499798Y0000468706D01*
X0003498565Y0000468046D01*
X0003497228Y0000467641D01*
X0003495594Y0000467480D01*
X0003471924Y0000467480D01*
X0003470291Y0000467641D01*
X0003468954Y0000468046D01*
X0003467721Y0000468706D01*
X0003466640Y0000469592D01*
X0003465753Y0000470673D01*
X0003465094Y0000471906D01*
X0003464688Y0000473244D01*
X0003464527Y0000474877D01*
X0003464527Y0000501500D01*
X0003464688Y0000503133D01*
X0003465094Y0000504471D01*
X0003465753Y0000505704D01*
X0003466640Y0000506784D01*
X0003467721Y0000507671D01*
X0003468954Y0000508330D01*
X0003470291Y0000508736D01*
X0003471924Y0000508897D01*
X0003495594Y0000508897D01*
X0003497228Y0000508736D01*
X0003497228Y0000508736D01*
G37*
G36*
X0002372228Y0000508736D02*
X0002373565Y0000508330D01*
X0002374798Y0000507671D01*
X0002375879Y0000506784D01*
X0002376766Y0000505704D01*
X0002377425Y0000504471D01*
X0002377831Y0000503133D01*
X0002377992Y0000501500D01*
X0002377992Y0000474877D01*
X0002377831Y0000473244D01*
X0002377425Y0000471906D01*
X0002376766Y0000470673D01*
X0002375879Y0000469592D01*
X0002374798Y0000468706D01*
X0002373565Y0000468046D01*
X0002372228Y0000467641D01*
X0002370594Y0000467480D01*
X0002346924Y0000467480D01*
X0002345291Y0000467641D01*
X0002343954Y0000468046D01*
X0002342721Y0000468706D01*
X0002341640Y0000469592D01*
X0002340753Y0000470673D01*
X0002340094Y0000471906D01*
X0002339688Y0000473244D01*
X0002339527Y0000474877D01*
X0002339527Y0000501500D01*
X0002339688Y0000503133D01*
X0002340094Y0000504471D01*
X0002340753Y0000505704D01*
X0002341640Y0000506784D01*
X0002342721Y0000507671D01*
X0002343954Y0000508330D01*
X0002345291Y0000508736D01*
X0002346924Y0000508897D01*
X0002370594Y0000508897D01*
X0002372228Y0000508736D01*
X0002372228Y0000508736D01*
G37*
G36*
X0002434235Y0000508736D02*
X0002435573Y0000508330D01*
X0002436806Y0000507671D01*
X0002437887Y0000506784D01*
X0002438774Y0000505704D01*
X0002439433Y0000504471D01*
X0002439839Y0000503133D01*
X0002440000Y0000501500D01*
X0002440000Y0000474877D01*
X0002439839Y0000473244D01*
X0002439433Y0000471906D01*
X0002438774Y0000470673D01*
X0002437887Y0000469592D01*
X0002436806Y0000468706D01*
X0002435573Y0000468046D01*
X0002434235Y0000467641D01*
X0002432602Y0000467480D01*
X0002408932Y0000467480D01*
X0002407299Y0000467641D01*
X0002405961Y0000468046D01*
X0002404728Y0000468706D01*
X0002403648Y0000469592D01*
X0002402761Y0000470673D01*
X0002402102Y0000471906D01*
X0002401696Y0000473244D01*
X0002401535Y0000474877D01*
X0002401535Y0000501500D01*
X0002401696Y0000503133D01*
X0002402102Y0000504471D01*
X0002402761Y0000505704D01*
X0002403648Y0000506784D01*
X0002404728Y0000507671D01*
X0002405961Y0000508330D01*
X0002407299Y0000508736D01*
X0002408932Y0000508897D01*
X0002432602Y0000508897D01*
X0002434235Y0000508736D01*
X0002434235Y0000508736D01*
G37*
G36*
X0003435220Y0000508736D02*
X0003436557Y0000508330D01*
X0003437790Y0000507671D01*
X0003438871Y0000506784D01*
X0003439758Y0000505704D01*
X0003440417Y0000504471D01*
X0003440823Y0000503133D01*
X0003440984Y0000501500D01*
X0003440984Y0000474877D01*
X0003440823Y0000473244D01*
X0003440417Y0000471906D01*
X0003439758Y0000470673D01*
X0003438871Y0000469592D01*
X0003437790Y0000468706D01*
X0003436557Y0000468046D01*
X0003435220Y0000467641D01*
X0003433587Y0000467480D01*
X0003409916Y0000467480D01*
X0003408283Y0000467641D01*
X0003406946Y0000468046D01*
X0003405713Y0000468706D01*
X0003404632Y0000469592D01*
X0003403745Y0000470673D01*
X0003403086Y0000471906D01*
X0003402680Y0000473244D01*
X0003402519Y0000474877D01*
X0003402519Y0000501500D01*
X0003402680Y0000503133D01*
X0003403086Y0000504471D01*
X0003403745Y0000505704D01*
X0003404632Y0000506784D01*
X0003405713Y0000507671D01*
X0003406946Y0000508330D01*
X0003408283Y0000508736D01*
X0003409916Y0000508897D01*
X0003433587Y0000508897D01*
X0003435220Y0000508736D01*
X0003435220Y0000508736D01*
G37*
G36*
X0003489354Y0000953618D02*
X0003490691Y0000953212D01*
X0003491924Y0000952553D01*
X0003493005Y0000951666D01*
X0003493892Y0000950586D01*
X0003494551Y0000949353D01*
X0003494957Y0000948015D01*
X0003495118Y0000946382D01*
X0003495118Y0000919759D01*
X0003494957Y0000918126D01*
X0003494551Y0000916788D01*
X0003493892Y0000915555D01*
X0003493005Y0000914474D01*
X0003491924Y0000913587D01*
X0003490691Y0000912928D01*
X0003489354Y0000912522D01*
X0003487720Y0000912362D01*
X0003464050Y0000912362D01*
X0003462417Y0000912522D01*
X0003461080Y0000912928D01*
X0003459847Y0000913587D01*
X0003458766Y0000914474D01*
X0003457879Y0000915555D01*
X0003457220Y0000916788D01*
X0003456814Y0000918126D01*
X0003456653Y0000919759D01*
X0003456653Y0000946382D01*
X0003456814Y0000948015D01*
X0003457220Y0000949353D01*
X0003457879Y0000950586D01*
X0003458766Y0000951666D01*
X0003459847Y0000952553D01*
X0003461080Y0000953212D01*
X0003462417Y0000953618D01*
X0003464050Y0000953779D01*
X0003487720Y0000953779D01*
X0003489354Y0000953618D01*
X0003489354Y0000953618D01*
G37*
G36*
X0003427346Y0000953618D02*
X0003428683Y0000953212D01*
X0003429916Y0000952553D01*
X0003430997Y0000951666D01*
X0003431884Y0000950586D01*
X0003432543Y0000949353D01*
X0003432949Y0000948015D01*
X0003433110Y0000946382D01*
X0003433110Y0000919759D01*
X0003432949Y0000918126D01*
X0003432543Y0000916788D01*
X0003431884Y0000915555D01*
X0003430997Y0000914474D01*
X0003429916Y0000913587D01*
X0003428683Y0000912928D01*
X0003427346Y0000912522D01*
X0003425713Y0000912362D01*
X0003402042Y0000912362D01*
X0003400409Y0000912522D01*
X0003399072Y0000912928D01*
X0003397839Y0000913587D01*
X0003396758Y0000914474D01*
X0003395871Y0000915555D01*
X0003395212Y0000916788D01*
X0003394806Y0000918126D01*
X0003394645Y0000919759D01*
X0003394645Y0000946382D01*
X0003394806Y0000948015D01*
X0003395212Y0000949353D01*
X0003395871Y0000950586D01*
X0003396758Y0000951666D01*
X0003397839Y0000952553D01*
X0003399072Y0000953212D01*
X0003400409Y0000953618D01*
X0003402042Y0000953779D01*
X0003425713Y0000953779D01*
X0003427346Y0000953618D01*
X0003427346Y0000953618D01*
G37*
G36*
X0002953920Y0000953618D02*
X0002955258Y0000953212D01*
X0002956491Y0000952553D01*
X0002957572Y0000951666D01*
X0002958459Y0000950586D01*
X0002959118Y0000949353D01*
X0002959524Y0000948015D01*
X0002959685Y0000946382D01*
X0002959685Y0000919759D01*
X0002959524Y0000918126D01*
X0002959118Y0000916788D01*
X0002958459Y0000915555D01*
X0002957572Y0000914474D01*
X0002956491Y0000913587D01*
X0002955258Y0000912928D01*
X0002953920Y0000912522D01*
X0002952287Y0000912362D01*
X0002928617Y0000912362D01*
X0002926984Y0000912522D01*
X0002925646Y0000912928D01*
X0002924413Y0000913587D01*
X0002923333Y0000914474D01*
X0002922446Y0000915555D01*
X0002921787Y0000916788D01*
X0002921381Y0000918126D01*
X0002921220Y0000919759D01*
X0002921220Y0000946382D01*
X0002921381Y0000948015D01*
X0002921787Y0000949353D01*
X0002922446Y0000950586D01*
X0002923333Y0000951666D01*
X0002924413Y0000952553D01*
X0002925646Y0000953212D01*
X0002926984Y0000953618D01*
X0002928617Y0000953779D01*
X0002952287Y0000953779D01*
X0002953920Y0000953618D01*
X0002953920Y0000953618D01*
G37*
G36*
X0002891913Y0000953618D02*
X0002893250Y0000953212D01*
X0002894483Y0000952553D01*
X0002895564Y0000951666D01*
X0002896451Y0000950586D01*
X0002897110Y0000949353D01*
X0002897516Y0000948015D01*
X0002897677Y0000946382D01*
X0002897677Y0000919759D01*
X0002897516Y0000918126D01*
X0002897110Y0000916788D01*
X0002896451Y0000915555D01*
X0002895564Y0000914474D01*
X0002894483Y0000913587D01*
X0002893250Y0000912928D01*
X0002891913Y0000912522D01*
X0002890279Y0000912362D01*
X0002866609Y0000912362D01*
X0002864976Y0000912522D01*
X0002863639Y0000912928D01*
X0002862406Y0000913587D01*
X0002861325Y0000914474D01*
X0002860438Y0000915555D01*
X0002859779Y0000916788D01*
X0002859373Y0000918126D01*
X0002859212Y0000919759D01*
X0002859212Y0000946382D01*
X0002859373Y0000948015D01*
X0002859779Y0000949353D01*
X0002860438Y0000950586D01*
X0002861325Y0000951666D01*
X0002862406Y0000952553D01*
X0002863639Y0000953212D01*
X0002864976Y0000953618D01*
X0002866609Y0000953779D01*
X0002890279Y0000953779D01*
X0002891913Y0000953618D01*
X0002891913Y0000953618D01*
G37*
G36*
X0002372228Y0000961492D02*
X0002373565Y0000961086D01*
X0002374798Y0000960427D01*
X0002375879Y0000959540D01*
X0002376766Y0000958460D01*
X0002377425Y0000957227D01*
X0002377831Y0000955889D01*
X0002377992Y0000954256D01*
X0002377992Y0000927633D01*
X0002377831Y0000926000D01*
X0002377425Y0000924662D01*
X0002376766Y0000923429D01*
X0002375879Y0000922348D01*
X0002374798Y0000921461D01*
X0002373565Y0000920802D01*
X0002372228Y0000920397D01*
X0002370594Y0000920236D01*
X0002346924Y0000920236D01*
X0002345291Y0000920397D01*
X0002343954Y0000920802D01*
X0002342721Y0000921461D01*
X0002341640Y0000922348D01*
X0002340753Y0000923429D01*
X0002340094Y0000924662D01*
X0002339688Y0000926000D01*
X0002339527Y0000927633D01*
X0002339527Y0000954256D01*
X0002339688Y0000955889D01*
X0002340094Y0000957227D01*
X0002340753Y0000958460D01*
X0002341640Y0000959540D01*
X0002342721Y0000960427D01*
X0002343954Y0000961086D01*
X0002345291Y0000961492D01*
X0002346924Y0000961653D01*
X0002370594Y0000961653D01*
X0002372228Y0000961492D01*
X0002372228Y0000961492D01*
G37*
G36*
X0002434235Y0000961492D02*
X0002435573Y0000961086D01*
X0002436806Y0000960427D01*
X0002437887Y0000959540D01*
X0002438774Y0000958460D01*
X0002439433Y0000957227D01*
X0002439839Y0000955889D01*
X0002440000Y0000954256D01*
X0002440000Y0000927633D01*
X0002439839Y0000926000D01*
X0002439433Y0000924662D01*
X0002438774Y0000923429D01*
X0002437887Y0000922348D01*
X0002436806Y0000921461D01*
X0002435573Y0000920802D01*
X0002434235Y0000920397D01*
X0002432602Y0000920236D01*
X0002408932Y0000920236D01*
X0002407299Y0000920397D01*
X0002405961Y0000920802D01*
X0002404728Y0000921461D01*
X0002403648Y0000922348D01*
X0002402761Y0000923429D01*
X0002402102Y0000924662D01*
X0002401696Y0000926000D01*
X0002401535Y0000927633D01*
X0002401535Y0000954256D01*
X0002401696Y0000955889D01*
X0002402102Y0000957227D01*
X0002402761Y0000958460D01*
X0002403648Y0000959540D01*
X0002404728Y0000960427D01*
X0002405961Y0000961086D01*
X0002407299Y0000961492D01*
X0002408932Y0000961653D01*
X0002432602Y0000961653D01*
X0002434235Y0000961492D01*
X0002434235Y0000961492D01*
G37*
G36*
X0003427346Y0001012673D02*
X0003428683Y0001012267D01*
X0003429916Y0001011608D01*
X0003430997Y0001010722D01*
X0003431884Y0001009641D01*
X0003432543Y0001008408D01*
X0003432949Y0001007070D01*
X0003433110Y0001005437D01*
X0003433110Y0000978814D01*
X0003432949Y0000977181D01*
X0003432543Y0000975843D01*
X0003431884Y0000974610D01*
X0003430997Y0000973529D01*
X0003429916Y0000972642D01*
X0003428683Y0000971983D01*
X0003427346Y0000971578D01*
X0003425713Y0000971417D01*
X0003402042Y0000971417D01*
X0003400409Y0000971578D01*
X0003399072Y0000971983D01*
X0003397839Y0000972642D01*
X0003396758Y0000973529D01*
X0003395871Y0000974610D01*
X0003395212Y0000975843D01*
X0003394806Y0000977181D01*
X0003394645Y0000978814D01*
X0003394645Y0001005437D01*
X0003394806Y0001007070D01*
X0003395212Y0001008408D01*
X0003395871Y0001009641D01*
X0003396758Y0001010722D01*
X0003397839Y0001011608D01*
X0003399072Y0001012267D01*
X0003400409Y0001012673D01*
X0003402042Y0001012834D01*
X0003425713Y0001012834D01*
X0003427346Y0001012673D01*
X0003427346Y0001012673D01*
G37*
G36*
X0003489354Y0001012673D02*
X0003490691Y0001012267D01*
X0003491924Y0001011608D01*
X0003493005Y0001010722D01*
X0003493892Y0001009641D01*
X0003494551Y0001008408D01*
X0003494957Y0001007070D01*
X0003495118Y0001005437D01*
X0003495118Y0000978814D01*
X0003494957Y0000977181D01*
X0003494551Y0000975843D01*
X0003493892Y0000974610D01*
X0003493005Y0000973529D01*
X0003491924Y0000972642D01*
X0003490691Y0000971983D01*
X0003489354Y0000971578D01*
X0003487720Y0000971417D01*
X0003464050Y0000971417D01*
X0003462417Y0000971578D01*
X0003461080Y0000971983D01*
X0003459847Y0000972642D01*
X0003458766Y0000973529D01*
X0003457879Y0000974610D01*
X0003457220Y0000975843D01*
X0003456814Y0000977181D01*
X0003456653Y0000978814D01*
X0003456653Y0001005437D01*
X0003456814Y0001007070D01*
X0003457220Y0001008408D01*
X0003457879Y0001009641D01*
X0003458766Y0001010722D01*
X0003459847Y0001011608D01*
X0003461080Y0001012267D01*
X0003462417Y0001012673D01*
X0003464050Y0001012834D01*
X0003487720Y0001012834D01*
X0003489354Y0001012673D01*
X0003489354Y0001012673D01*
G37*
G36*
X0002891913Y0001012673D02*
X0002893250Y0001012267D01*
X0002894483Y0001011608D01*
X0002895564Y0001010722D01*
X0002896451Y0001009641D01*
X0002897110Y0001008408D01*
X0002897516Y0001007070D01*
X0002897677Y0001005437D01*
X0002897677Y0000978814D01*
X0002897516Y0000977181D01*
X0002897110Y0000975843D01*
X0002896451Y0000974610D01*
X0002895564Y0000973529D01*
X0002894483Y0000972642D01*
X0002893250Y0000971983D01*
X0002891913Y0000971578D01*
X0002890279Y0000971417D01*
X0002866609Y0000971417D01*
X0002864976Y0000971578D01*
X0002863639Y0000971983D01*
X0002862406Y0000972642D01*
X0002861325Y0000973529D01*
X0002860438Y0000974610D01*
X0002859779Y0000975843D01*
X0002859373Y0000977181D01*
X0002859212Y0000978814D01*
X0002859212Y0001005437D01*
X0002859373Y0001007070D01*
X0002859779Y0001008408D01*
X0002860438Y0001009641D01*
X0002861325Y0001010722D01*
X0002862406Y0001011608D01*
X0002863639Y0001012267D01*
X0002864976Y0001012673D01*
X0002866609Y0001012834D01*
X0002890279Y0001012834D01*
X0002891913Y0001012673D01*
X0002891913Y0001012673D01*
G37*
G36*
X0002953920Y0001012673D02*
X0002955258Y0001012267D01*
X0002956491Y0001011608D01*
X0002957572Y0001010722D01*
X0002958459Y0001009641D01*
X0002959118Y0001008408D01*
X0002959524Y0001007070D01*
X0002959685Y0001005437D01*
X0002959685Y0000978814D01*
X0002959524Y0000977181D01*
X0002959118Y0000975843D01*
X0002958459Y0000974610D01*
X0002957572Y0000973529D01*
X0002956491Y0000972642D01*
X0002955258Y0000971983D01*
X0002953920Y0000971578D01*
X0002952287Y0000971417D01*
X0002928617Y0000971417D01*
X0002926984Y0000971578D01*
X0002925646Y0000971983D01*
X0002924413Y0000972642D01*
X0002923333Y0000973529D01*
X0002922446Y0000974610D01*
X0002921787Y0000975843D01*
X0002921381Y0000977181D01*
X0002921220Y0000978814D01*
X0002921220Y0001005437D01*
X0002921381Y0001007070D01*
X0002921787Y0001008408D01*
X0002922446Y0001009641D01*
X0002923333Y0001010722D01*
X0002924413Y0001011608D01*
X0002925646Y0001012267D01*
X0002926984Y0001012673D01*
X0002928617Y0001012834D01*
X0002952287Y0001012834D01*
X0002953920Y0001012673D01*
X0002953920Y0001012673D01*
G37*
G36*
X0002372228Y0001020547D02*
X0002373565Y0001020141D01*
X0002374798Y0001019482D01*
X0002375879Y0001018595D01*
X0002376766Y0001017515D01*
X0002377425Y0001016282D01*
X0002377831Y0001014944D01*
X0002377992Y0001013311D01*
X0002377992Y0000986688D01*
X0002377831Y0000985055D01*
X0002377425Y0000983717D01*
X0002376766Y0000982484D01*
X0002375879Y0000981403D01*
X0002374798Y0000980517D01*
X0002373565Y0000979857D01*
X0002372228Y0000979452D01*
X0002370594Y0000979291D01*
X0002346924Y0000979291D01*
X0002345291Y0000979452D01*
X0002343954Y0000979857D01*
X0002342721Y0000980517D01*
X0002341640Y0000981403D01*
X0002340753Y0000982484D01*
X0002340094Y0000983717D01*
X0002339688Y0000985055D01*
X0002339527Y0000986688D01*
X0002339527Y0001013311D01*
X0002339688Y0001014944D01*
X0002340094Y0001016282D01*
X0002340753Y0001017515D01*
X0002341640Y0001018595D01*
X0002342721Y0001019482D01*
X0002343954Y0001020141D01*
X0002345291Y0001020547D01*
X0002346924Y0001020708D01*
X0002370594Y0001020708D01*
X0002372228Y0001020547D01*
X0002372228Y0001020547D01*
G37*
G36*
X0002434235Y0001020547D02*
X0002435573Y0001020141D01*
X0002436806Y0001019482D01*
X0002437887Y0001018595D01*
X0002438774Y0001017515D01*
X0002439433Y0001016282D01*
X0002439839Y0001014944D01*
X0002440000Y0001013311D01*
X0002440000Y0000986688D01*
X0002439839Y0000985055D01*
X0002439433Y0000983717D01*
X0002438774Y0000982484D01*
X0002437887Y0000981403D01*
X0002436806Y0000980517D01*
X0002435573Y0000979857D01*
X0002434235Y0000979452D01*
X0002432602Y0000979291D01*
X0002408932Y0000979291D01*
X0002407299Y0000979452D01*
X0002405961Y0000979857D01*
X0002404728Y0000980517D01*
X0002403648Y0000981403D01*
X0002402761Y0000982484D01*
X0002402102Y0000983717D01*
X0002401696Y0000985055D01*
X0002401535Y0000986688D01*
X0002401535Y0001013311D01*
X0002401696Y0001014944D01*
X0002402102Y0001016282D01*
X0002402761Y0001017515D01*
X0002403648Y0001018595D01*
X0002404728Y0001019482D01*
X0002405961Y0001020141D01*
X0002407299Y0001020547D01*
X0002408932Y0001020708D01*
X0002432602Y0001020708D01*
X0002434235Y0001020547D01*
X0002434235Y0001020547D01*
G37*
G36*
X0003478035Y0001453618D02*
X0003479372Y0001453212D01*
X0003480605Y0001452553D01*
X0003481686Y0001451666D01*
X0003482573Y0001450586D01*
X0003483232Y0001449353D01*
X0003483638Y0001448015D01*
X0003483799Y0001446382D01*
X0003483799Y0001419759D01*
X0003483638Y0001418126D01*
X0003483232Y0001416788D01*
X0003482573Y0001415555D01*
X0003481686Y0001414474D01*
X0003480605Y0001413587D01*
X0003479372Y0001412928D01*
X0003478035Y0001412523D01*
X0003476402Y0001412362D01*
X0003452731Y0001412362D01*
X0003451098Y0001412523D01*
X0003449761Y0001412928D01*
X0003448528Y0001413587D01*
X0003447447Y0001414474D01*
X0003446560Y0001415555D01*
X0003445901Y0001416788D01*
X0003445495Y0001418126D01*
X0003445334Y0001419759D01*
X0003445334Y0001446382D01*
X0003445495Y0001448015D01*
X0003445901Y0001449353D01*
X0003446560Y0001450586D01*
X0003447447Y0001451666D01*
X0003448528Y0001452553D01*
X0003449761Y0001453212D01*
X0003451098Y0001453618D01*
X0003452731Y0001453779D01*
X0003476402Y0001453779D01*
X0003478035Y0001453618D01*
X0003478035Y0001453618D01*
G37*
G36*
X0003416027Y0001453618D02*
X0003417364Y0001453212D01*
X0003418597Y0001452553D01*
X0003419678Y0001451666D01*
X0003420565Y0001450586D01*
X0003421224Y0001449353D01*
X0003421630Y0001448015D01*
X0003421791Y0001446382D01*
X0003421791Y0001419759D01*
X0003421630Y0001418126D01*
X0003421224Y0001416788D01*
X0003420565Y0001415555D01*
X0003419678Y0001414474D01*
X0003418597Y0001413587D01*
X0003417364Y0001412928D01*
X0003416027Y0001412523D01*
X0003414394Y0001412362D01*
X0003390724Y0001412362D01*
X0003389090Y0001412523D01*
X0003387753Y0001412928D01*
X0003386520Y0001413587D01*
X0003385439Y0001414474D01*
X0003384552Y0001415555D01*
X0003383893Y0001416788D01*
X0003383487Y0001418126D01*
X0003383326Y0001419759D01*
X0003383326Y0001446382D01*
X0003383487Y0001448015D01*
X0003383893Y0001449353D01*
X0003384552Y0001450586D01*
X0003385439Y0001451666D01*
X0003386520Y0001452553D01*
X0003387753Y0001453212D01*
X0003389090Y0001453618D01*
X0003390724Y0001453779D01*
X0003414394Y0001453779D01*
X0003416027Y0001453618D01*
X0003416027Y0001453618D01*
G37*
G36*
X0002891913Y0001453618D02*
X0002893250Y0001453212D01*
X0002894483Y0001452553D01*
X0002895564Y0001451666D01*
X0002896451Y0001450586D01*
X0002897110Y0001449353D01*
X0002897516Y0001448015D01*
X0002897677Y0001446382D01*
X0002897677Y0001419759D01*
X0002897516Y0001418126D01*
X0002897110Y0001416788D01*
X0002896451Y0001415555D01*
X0002895564Y0001414474D01*
X0002894483Y0001413587D01*
X0002893250Y0001412928D01*
X0002891913Y0001412523D01*
X0002890279Y0001412362D01*
X0002866609Y0001412362D01*
X0002864976Y0001412523D01*
X0002863639Y0001412928D01*
X0002862406Y0001413587D01*
X0002861325Y0001414474D01*
X0002860438Y0001415555D01*
X0002859779Y0001416788D01*
X0002859373Y0001418126D01*
X0002859212Y0001419759D01*
X0002859212Y0001446382D01*
X0002859373Y0001448015D01*
X0002859779Y0001449353D01*
X0002860438Y0001450586D01*
X0002861325Y0001451666D01*
X0002862406Y0001452553D01*
X0002863639Y0001453212D01*
X0002864976Y0001453618D01*
X0002866609Y0001453779D01*
X0002890279Y0001453779D01*
X0002891913Y0001453618D01*
X0002891913Y0001453618D01*
G37*
G36*
X0002953920Y0001453618D02*
X0002955258Y0001453212D01*
X0002956491Y0001452553D01*
X0002957572Y0001451666D01*
X0002958459Y0001450586D01*
X0002959118Y0001449353D01*
X0002959524Y0001448015D01*
X0002959685Y0001446382D01*
X0002959685Y0001419759D01*
X0002959524Y0001418126D01*
X0002959118Y0001416788D01*
X0002958459Y0001415555D01*
X0002957572Y0001414474D01*
X0002956491Y0001413587D01*
X0002955258Y0001412928D01*
X0002953920Y0001412523D01*
X0002952287Y0001412362D01*
X0002928617Y0001412362D01*
X0002926984Y0001412523D01*
X0002925646Y0001412928D01*
X0002924413Y0001413587D01*
X0002923333Y0001414474D01*
X0002922446Y0001415555D01*
X0002921787Y0001416788D01*
X0002921381Y0001418126D01*
X0002921220Y0001419759D01*
X0002921220Y0001446382D01*
X0002921381Y0001448015D01*
X0002921787Y0001449353D01*
X0002922446Y0001450586D01*
X0002923333Y0001451666D01*
X0002924413Y0001452553D01*
X0002925646Y0001453212D01*
X0002926984Y0001453618D01*
X0002928617Y0001453779D01*
X0002952287Y0001453779D01*
X0002953920Y0001453618D01*
X0002953920Y0001453618D01*
G37*
G36*
X0002434235Y0001461492D02*
X0002435573Y0001461086D01*
X0002436806Y0001460427D01*
X0002437887Y0001459540D01*
X0002438774Y0001458460D01*
X0002439433Y0001457227D01*
X0002439839Y0001455889D01*
X0002440000Y0001454256D01*
X0002440000Y0001427633D01*
X0002439839Y0001426000D01*
X0002439433Y0001424662D01*
X0002438774Y0001423429D01*
X0002437887Y0001422348D01*
X0002436806Y0001421461D01*
X0002435573Y0001420802D01*
X0002434235Y0001420397D01*
X0002432602Y0001420236D01*
X0002408932Y0001420236D01*
X0002407299Y0001420397D01*
X0002405961Y0001420802D01*
X0002404728Y0001421461D01*
X0002403648Y0001422348D01*
X0002402761Y0001423429D01*
X0002402102Y0001424662D01*
X0002401696Y0001426000D01*
X0002401535Y0001427633D01*
X0002401535Y0001454256D01*
X0002401696Y0001455889D01*
X0002402102Y0001457227D01*
X0002402761Y0001458460D01*
X0002403648Y0001459540D01*
X0002404728Y0001460427D01*
X0002405961Y0001461086D01*
X0002407299Y0001461492D01*
X0002408932Y0001461653D01*
X0002432602Y0001461653D01*
X0002434235Y0001461492D01*
X0002434235Y0001461492D01*
G37*
G36*
X0002372228Y0001461492D02*
X0002373565Y0001461086D01*
X0002374798Y0001460427D01*
X0002375879Y0001459540D01*
X0002376766Y0001458460D01*
X0002377425Y0001457227D01*
X0002377831Y0001455889D01*
X0002377992Y0001454256D01*
X0002377992Y0001427633D01*
X0002377831Y0001426000D01*
X0002377425Y0001424662D01*
X0002376766Y0001423429D01*
X0002375879Y0001422348D01*
X0002374798Y0001421461D01*
X0002373565Y0001420802D01*
X0002372228Y0001420397D01*
X0002370594Y0001420236D01*
X0002346924Y0001420236D01*
X0002345291Y0001420397D01*
X0002343954Y0001420802D01*
X0002342721Y0001421461D01*
X0002341640Y0001422348D01*
X0002340753Y0001423429D01*
X0002340094Y0001424662D01*
X0002339688Y0001426000D01*
X0002339527Y0001427633D01*
X0002339527Y0001454256D01*
X0002339688Y0001455889D01*
X0002340094Y0001457227D01*
X0002340753Y0001458460D01*
X0002341640Y0001459540D01*
X0002342721Y0001460427D01*
X0002343954Y0001461086D01*
X0002345291Y0001461492D01*
X0002346924Y0001461653D01*
X0002370594Y0001461653D01*
X0002372228Y0001461492D01*
X0002372228Y0001461492D01*
G37*
G36*
X0002891913Y0001512673D02*
X0002893250Y0001512267D01*
X0002894483Y0001511608D01*
X0002895564Y0001510722D01*
X0002896451Y0001509641D01*
X0002897110Y0001508408D01*
X0002897516Y0001507070D01*
X0002897677Y0001505437D01*
X0002897677Y0001478814D01*
X0002897516Y0001477181D01*
X0002897110Y0001475843D01*
X0002896451Y0001474610D01*
X0002895564Y0001473529D01*
X0002894483Y0001472643D01*
X0002893250Y0001471983D01*
X0002891913Y0001471578D01*
X0002890279Y0001471417D01*
X0002866609Y0001471417D01*
X0002864976Y0001471578D01*
X0002863639Y0001471983D01*
X0002862406Y0001472643D01*
X0002861325Y0001473529D01*
X0002860438Y0001474610D01*
X0002859779Y0001475843D01*
X0002859373Y0001477181D01*
X0002859212Y0001478814D01*
X0002859212Y0001505437D01*
X0002859373Y0001507070D01*
X0002859779Y0001508408D01*
X0002860438Y0001509641D01*
X0002861325Y0001510722D01*
X0002862406Y0001511608D01*
X0002863639Y0001512267D01*
X0002864976Y0001512673D01*
X0002866609Y0001512834D01*
X0002890279Y0001512834D01*
X0002891913Y0001512673D01*
X0002891913Y0001512673D01*
G37*
G36*
X0003415535Y0001512673D02*
X0003416872Y0001512267D01*
X0003418105Y0001511608D01*
X0003419186Y0001510722D01*
X0003420073Y0001509641D01*
X0003420732Y0001508408D01*
X0003421138Y0001507070D01*
X0003421299Y0001505437D01*
X0003421299Y0001478814D01*
X0003421138Y0001477181D01*
X0003420732Y0001475843D01*
X0003420073Y0001474610D01*
X0003419186Y0001473529D01*
X0003418105Y0001472643D01*
X0003416872Y0001471983D01*
X0003415535Y0001471578D01*
X0003413902Y0001471417D01*
X0003390231Y0001471417D01*
X0003388598Y0001471578D01*
X0003387261Y0001471983D01*
X0003386028Y0001472643D01*
X0003384947Y0001473529D01*
X0003384060Y0001474610D01*
X0003383401Y0001475843D01*
X0003382995Y0001477181D01*
X0003382834Y0001478814D01*
X0003382834Y0001505437D01*
X0003382995Y0001507070D01*
X0003383401Y0001508408D01*
X0003384060Y0001509641D01*
X0003384947Y0001510722D01*
X0003386028Y0001511608D01*
X0003387261Y0001512267D01*
X0003388598Y0001512673D01*
X0003390231Y0001512834D01*
X0003413902Y0001512834D01*
X0003415535Y0001512673D01*
X0003415535Y0001512673D01*
G37*
G36*
X0003477542Y0001512673D02*
X0003478880Y0001512267D01*
X0003480113Y0001511608D01*
X0003481194Y0001510722D01*
X0003482081Y0001509641D01*
X0003482740Y0001508408D01*
X0003483146Y0001507070D01*
X0003483307Y0001505437D01*
X0003483307Y0001478814D01*
X0003483146Y0001477181D01*
X0003482740Y0001475843D01*
X0003482081Y0001474610D01*
X0003481194Y0001473529D01*
X0003480113Y0001472643D01*
X0003478880Y0001471983D01*
X0003477542Y0001471578D01*
X0003475909Y0001471417D01*
X0003452239Y0001471417D01*
X0003450606Y0001471578D01*
X0003449268Y0001471983D01*
X0003448035Y0001472643D01*
X0003446955Y0001473529D01*
X0003446068Y0001474610D01*
X0003445409Y0001475843D01*
X0003445003Y0001477181D01*
X0003444842Y0001478814D01*
X0003444842Y0001505437D01*
X0003445003Y0001507070D01*
X0003445409Y0001508408D01*
X0003446068Y0001509641D01*
X0003446955Y0001510722D01*
X0003448035Y0001511608D01*
X0003449268Y0001512267D01*
X0003450606Y0001512673D01*
X0003452239Y0001512834D01*
X0003475909Y0001512834D01*
X0003477542Y0001512673D01*
X0003477542Y0001512673D01*
G37*
G36*
X0002953920Y0001512673D02*
X0002955258Y0001512267D01*
X0002956491Y0001511608D01*
X0002957572Y0001510722D01*
X0002958459Y0001509641D01*
X0002959118Y0001508408D01*
X0002959524Y0001507070D01*
X0002959685Y0001505437D01*
X0002959685Y0001478814D01*
X0002959524Y0001477181D01*
X0002959118Y0001475843D01*
X0002958459Y0001474610D01*
X0002957572Y0001473529D01*
X0002956491Y0001472643D01*
X0002955258Y0001471983D01*
X0002953920Y0001471578D01*
X0002952287Y0001471417D01*
X0002928617Y0001471417D01*
X0002926984Y0001471578D01*
X0002925646Y0001471983D01*
X0002924413Y0001472643D01*
X0002923333Y0001473529D01*
X0002922446Y0001474610D01*
X0002921787Y0001475843D01*
X0002921381Y0001477181D01*
X0002921220Y0001478814D01*
X0002921220Y0001505437D01*
X0002921381Y0001507070D01*
X0002921787Y0001508408D01*
X0002922446Y0001509641D01*
X0002923333Y0001510722D01*
X0002924413Y0001511608D01*
X0002925646Y0001512267D01*
X0002926984Y0001512673D01*
X0002928617Y0001512834D01*
X0002952287Y0001512834D01*
X0002953920Y0001512673D01*
X0002953920Y0001512673D01*
G37*
G36*
X0002434235Y0001516610D02*
X0002435573Y0001516205D01*
X0002436806Y0001515545D01*
X0002437887Y0001514659D01*
X0002438774Y0001513578D01*
X0002439433Y0001512345D01*
X0002439839Y0001511007D01*
X0002440000Y0001509374D01*
X0002440000Y0001482751D01*
X0002439839Y0001481118D01*
X0002439433Y0001479780D01*
X0002438774Y0001478547D01*
X0002437887Y0001477466D01*
X0002436806Y0001476580D01*
X0002435573Y0001475920D01*
X0002434235Y0001475515D01*
X0002432602Y0001475354D01*
X0002408932Y0001475354D01*
X0002407299Y0001475515D01*
X0002405961Y0001475920D01*
X0002404728Y0001476580D01*
X0002403648Y0001477466D01*
X0002402761Y0001478547D01*
X0002402102Y0001479780D01*
X0002401696Y0001481118D01*
X0002401535Y0001482751D01*
X0002401535Y0001509374D01*
X0002401696Y0001511007D01*
X0002402102Y0001512345D01*
X0002402761Y0001513578D01*
X0002403648Y0001514659D01*
X0002404728Y0001515545D01*
X0002405961Y0001516205D01*
X0002407299Y0001516610D01*
X0002408932Y0001516771D01*
X0002432602Y0001516771D01*
X0002434235Y0001516610D01*
X0002434235Y0001516610D01*
G37*
G36*
X0002372228Y0001516610D02*
X0002373565Y0001516205D01*
X0002374798Y0001515545D01*
X0002375879Y0001514659D01*
X0002376766Y0001513578D01*
X0002377425Y0001512345D01*
X0002377831Y0001511007D01*
X0002377992Y0001509374D01*
X0002377992Y0001482751D01*
X0002377831Y0001481118D01*
X0002377425Y0001479780D01*
X0002376766Y0001478547D01*
X0002375879Y0001477466D01*
X0002374798Y0001476580D01*
X0002373565Y0001475920D01*
X0002372228Y0001475515D01*
X0002370594Y0001475354D01*
X0002346924Y0001475354D01*
X0002345291Y0001475515D01*
X0002343954Y0001475920D01*
X0002342721Y0001476580D01*
X0002341640Y0001477466D01*
X0002340753Y0001478547D01*
X0002340094Y0001479780D01*
X0002339688Y0001481118D01*
X0002339527Y0001482751D01*
X0002339527Y0001509374D01*
X0002339688Y0001511007D01*
X0002340094Y0001512345D01*
X0002340753Y0001513578D01*
X0002341640Y0001514659D01*
X0002342721Y0001515545D01*
X0002343954Y0001516205D01*
X0002345291Y0001516610D01*
X0002346924Y0001516771D01*
X0002370594Y0001516771D01*
X0002372228Y0001516610D01*
X0002372228Y0001516610D01*
G37*
G04 next file*
G04 #@! TF.GenerationSoftware,KiCad,Pcbnew,(5.0.2)-1*
G04 #@! TF.CreationDate,2019-01-19T12:13:54+11:00*
G04 #@! TF.ProjectId,WarGames_SAO,57617247-616d-4657-935f-53414f2e6b69,rev?*
G04 #@! TF.SameCoordinates,Original*
G04 #@! TF.FileFunction,Soldermask,Top*
G04 #@! TF.FilePolarity,Negative*
G04 Gerber Fmt 4.6, Leading zero omitted, Abs format (unit mm)*
G04 Created by KiCad (PCBNEW (5.0.2)-1) date 19/01/2019 12:13:54*
G01*
G04 APERTURE LIST*
G04 APERTURE END LIST*
D22*
G36*
X0001718521Y0002155687D02*
X0001721127Y0002155431D01*
X0001725584Y0002154079D01*
X0001727813Y0002153402D01*
X0001733271Y0002150485D01*
X0001733976Y0002150109D01*
X0001735383Y0002148954D01*
X0001739377Y0002145676D01*
X0001742655Y0002141681D01*
X0001743810Y0002140274D01*
X0001743810Y0002140274D01*
X0001747104Y0002134112D01*
X0001747104Y0002134112D01*
X0001749132Y0002127425D01*
X0001749817Y0002120472D01*
X0001749132Y0002113518D01*
X0001747780Y0002109060D01*
X0001747104Y0002106831D01*
X0001744186Y0002101374D01*
X0001743810Y0002100669D01*
X0001742655Y0002099262D01*
X0001739377Y0002095267D01*
X0001735383Y0002091989D01*
X0001733976Y0002090835D01*
X0001733975Y0002090835D01*
X0001727813Y0002087541D01*
X0001725584Y0002086865D01*
X0001721127Y0002085512D01*
X0001718521Y0002085256D01*
X0001715915Y0002084999D01*
X0001712430Y0002084999D01*
X0001709825Y0002085256D01*
X0001707219Y0002085512D01*
X0001702761Y0002086865D01*
X0001700532Y0002087541D01*
X0001694370Y0002090835D01*
X0001694370Y0002090835D01*
X0001692963Y0002091989D01*
X0001688969Y0002095267D01*
X0001685691Y0002099262D01*
X0001684536Y0002100669D01*
X0001684159Y0002101374D01*
X0001681242Y0002106831D01*
X0001680566Y0002109060D01*
X0001679214Y0002113518D01*
X0001678529Y0002120472D01*
X0001679214Y0002127425D01*
X0001681242Y0002134112D01*
X0001681242Y0002134112D01*
X0001684536Y0002140274D01*
X0001684536Y0002140274D01*
X0001685691Y0002141681D01*
X0001688969Y0002145676D01*
X0001692963Y0002148954D01*
X0001694370Y0002150109D01*
X0001695075Y0002150485D01*
X0001700532Y0002153402D01*
X0001702761Y0002154079D01*
X0001707219Y0002155431D01*
X0001709825Y0002155687D01*
X0001712430Y0002155944D01*
X0001715915Y0002155944D01*
X0001718521Y0002155687D01*
X0001718521Y0002155687D01*
G37*
G36*
X0001618521Y0002155687D02*
X0001621127Y0002155431D01*
X0001625584Y0002154079D01*
X0001627813Y0002153402D01*
X0001633271Y0002150485D01*
X0001633976Y0002150109D01*
X0001635382Y0002148954D01*
X0001639377Y0002145676D01*
X0001642655Y0002141681D01*
X0001643810Y0002140274D01*
X0001643810Y0002140274D01*
X0001647104Y0002134112D01*
X0001647104Y0002134112D01*
X0001649132Y0002127425D01*
X0001649817Y0002120472D01*
X0001649132Y0002113518D01*
X0001647780Y0002109060D01*
X0001647104Y0002106831D01*
X0001644186Y0002101374D01*
X0001643810Y0002100669D01*
X0001642655Y0002099262D01*
X0001639377Y0002095267D01*
X0001635382Y0002091989D01*
X0001633976Y0002090835D01*
X0001633975Y0002090835D01*
X0001627813Y0002087541D01*
X0001625584Y0002086865D01*
X0001621127Y0002085512D01*
X0001618521Y0002085256D01*
X0001615915Y0002084999D01*
X0001612430Y0002084999D01*
X0001609825Y0002085256D01*
X0001607219Y0002085512D01*
X0001602761Y0002086865D01*
X0001600532Y0002087541D01*
X0001594370Y0002090835D01*
X0001594370Y0002090835D01*
X0001592963Y0002091989D01*
X0001588969Y0002095267D01*
X0001585691Y0002099262D01*
X0001584536Y0002100669D01*
X0001584159Y0002101374D01*
X0001581242Y0002106831D01*
X0001580566Y0002109060D01*
X0001579214Y0002113518D01*
X0001578529Y0002120472D01*
X0001579214Y0002127425D01*
X0001581242Y0002134112D01*
X0001581242Y0002134112D01*
X0001584536Y0002140274D01*
X0001584536Y0002140274D01*
X0001585691Y0002141681D01*
X0001588969Y0002145676D01*
X0001592963Y0002148954D01*
X0001594370Y0002150109D01*
X0001595075Y0002150485D01*
X0001600532Y0002153402D01*
X0001602761Y0002154079D01*
X0001607219Y0002155431D01*
X0001609825Y0002155687D01*
X0001612430Y0002155944D01*
X0001615915Y0002155944D01*
X0001618521Y0002155687D01*
X0001618521Y0002155687D01*
G37*
G36*
X0001718521Y0002255687D02*
X0001721127Y0002255431D01*
X0001725584Y0002254079D01*
X0001727813Y0002253402D01*
X0001733271Y0002250485D01*
X0001733976Y0002250109D01*
X0001735383Y0002248954D01*
X0001739377Y0002245676D01*
X0001742655Y0002241681D01*
X0001743810Y0002240274D01*
X0001743810Y0002240274D01*
X0001747104Y0002234112D01*
X0001747104Y0002234112D01*
X0001749132Y0002227425D01*
X0001749817Y0002220472D01*
X0001749132Y0002213518D01*
X0001747780Y0002209060D01*
X0001747104Y0002206831D01*
X0001744186Y0002201374D01*
X0001743810Y0002200669D01*
X0001742655Y0002199262D01*
X0001739377Y0002195267D01*
X0001735383Y0002191989D01*
X0001733976Y0002190835D01*
X0001733975Y0002190835D01*
X0001727813Y0002187541D01*
X0001725584Y0002186865D01*
X0001721127Y0002185512D01*
X0001718521Y0002185256D01*
X0001715915Y0002184999D01*
X0001712430Y0002184999D01*
X0001709825Y0002185256D01*
X0001707219Y0002185512D01*
X0001702761Y0002186865D01*
X0001700532Y0002187541D01*
X0001694370Y0002190835D01*
X0001694370Y0002190835D01*
X0001692963Y0002191989D01*
X0001688969Y0002195267D01*
X0001685691Y0002199262D01*
X0001684536Y0002200669D01*
X0001684159Y0002201374D01*
X0001681242Y0002206831D01*
X0001680566Y0002209060D01*
X0001679214Y0002213518D01*
X0001678529Y0002220472D01*
X0001679214Y0002227425D01*
X0001681242Y0002234112D01*
X0001681242Y0002234112D01*
X0001684536Y0002240274D01*
X0001684536Y0002240274D01*
X0001685691Y0002241681D01*
X0001688969Y0002245676D01*
X0001692963Y0002248954D01*
X0001694370Y0002250109D01*
X0001695075Y0002250485D01*
X0001700532Y0002253402D01*
X0001702761Y0002254079D01*
X0001707219Y0002255431D01*
X0001709825Y0002255687D01*
X0001712430Y0002255944D01*
X0001715915Y0002255944D01*
X0001718521Y0002255687D01*
X0001718521Y0002255687D01*
G37*
G36*
X0001649645Y0002184999D02*
X0001578700Y0002184999D01*
X0001578700Y0002255944D01*
X0001649645Y0002255944D01*
X0001649645Y0002184999D01*
X0001649645Y0002184999D01*
G37*
G36*
X0000981479Y0002429996D02*
X0000982817Y0002429590D01*
X0000984050Y0002428931D01*
X0000985131Y0002428044D01*
X0000986018Y0002426963D01*
X0000986677Y0002425730D01*
X0000987083Y0002424393D01*
X0000987244Y0002422759D01*
X0000987244Y0002396137D01*
X0000987083Y0002394504D01*
X0000986677Y0002393166D01*
X0000986018Y0002391933D01*
X0000985131Y0002390852D01*
X0000984050Y0002389965D01*
X0000982817Y0002389306D01*
X0000981479Y0002388900D01*
X0000979846Y0002388739D01*
X0000956176Y0002388739D01*
X0000954543Y0002388900D01*
X0000953205Y0002389306D01*
X0000951972Y0002389965D01*
X0000950892Y0002390852D01*
X0000950005Y0002391933D01*
X0000949346Y0002393166D01*
X0000948940Y0002394504D01*
X0000948779Y0002396137D01*
X0000948779Y0002422759D01*
X0000948940Y0002424393D01*
X0000949346Y0002425730D01*
X0000950005Y0002426963D01*
X0000950892Y0002428044D01*
X0000951972Y0002428931D01*
X0000953205Y0002429590D01*
X0000954543Y0002429996D01*
X0000956176Y0002430157D01*
X0000979846Y0002430157D01*
X0000981479Y0002429996D01*
X0000981479Y0002429996D01*
G37*
G36*
X0000919472Y0002429996D02*
X0000920809Y0002429590D01*
X0000922042Y0002428931D01*
X0000923123Y0002428044D01*
X0000924010Y0002426963D01*
X0000924669Y0002425730D01*
X0000925075Y0002424393D01*
X0000925236Y0002422759D01*
X0000925236Y0002396137D01*
X0000925075Y0002394504D01*
X0000924669Y0002393166D01*
X0000924010Y0002391933D01*
X0000923123Y0002390852D01*
X0000922042Y0002389965D01*
X0000920809Y0002389306D01*
X0000919472Y0002388900D01*
X0000917838Y0002388739D01*
X0000894168Y0002388739D01*
X0000892535Y0002388900D01*
X0000891198Y0002389306D01*
X0000889965Y0002389965D01*
X0000888884Y0002390852D01*
X0000887997Y0002391933D01*
X0000887338Y0002393166D01*
X0000886932Y0002394504D01*
X0000886771Y0002396137D01*
X0000886771Y0002422759D01*
X0000886932Y0002424393D01*
X0000887338Y0002425730D01*
X0000887997Y0002426963D01*
X0000888884Y0002428044D01*
X0000889965Y0002428931D01*
X0000891198Y0002429590D01*
X0000892535Y0002429996D01*
X0000894168Y0002430157D01*
X0000917838Y0002430157D01*
X0000919472Y0002429996D01*
X0000919472Y0002429996D01*
G37*
G36*
X0001450968Y0002433933D02*
X0001452305Y0002433527D01*
X0001453538Y0002432868D01*
X0001454619Y0002431981D01*
X0001455506Y0002430900D01*
X0001456165Y0002429667D01*
X0001456571Y0002428330D01*
X0001456732Y0002426696D01*
X0001456732Y0002400074D01*
X0001456571Y0002398441D01*
X0001456165Y0002397103D01*
X0001455506Y0002395870D01*
X0001454619Y0002394789D01*
X0001453538Y0002393902D01*
X0001452305Y0002393243D01*
X0001450968Y0002392837D01*
X0001449335Y0002392676D01*
X0001425664Y0002392676D01*
X0001424031Y0002392837D01*
X0001422694Y0002393243D01*
X0001421461Y0002393902D01*
X0001420380Y0002394789D01*
X0001419493Y0002395870D01*
X0001418834Y0002397103D01*
X0001418428Y0002398441D01*
X0001418267Y0002400074D01*
X0001418267Y0002426696D01*
X0001418428Y0002428330D01*
X0001418834Y0002429667D01*
X0001419493Y0002430900D01*
X0001420380Y0002431981D01*
X0001421461Y0002432868D01*
X0001422694Y0002433527D01*
X0001424031Y0002433933D01*
X0001425664Y0002434094D01*
X0001449335Y0002434094D01*
X0001450968Y0002433933D01*
X0001450968Y0002433933D01*
G37*
G36*
X0001512975Y0002433933D02*
X0001514313Y0002433527D01*
X0001515546Y0002432868D01*
X0001516627Y0002431981D01*
X0001517514Y0002430900D01*
X0001518173Y0002429667D01*
X0001518579Y0002428330D01*
X0001518740Y0002426696D01*
X0001518740Y0002400074D01*
X0001518579Y0002398441D01*
X0001518173Y0002397103D01*
X0001517514Y0002395870D01*
X0001516627Y0002394789D01*
X0001515546Y0002393902D01*
X0001514313Y0002393243D01*
X0001512975Y0002392837D01*
X0001511342Y0002392676D01*
X0001487672Y0002392676D01*
X0001486039Y0002392837D01*
X0001484702Y0002393243D01*
X0001483469Y0002393902D01*
X0001482388Y0002394789D01*
X0001481501Y0002395870D01*
X0001480842Y0002397103D01*
X0001480436Y0002398441D01*
X0001480275Y0002400074D01*
X0001480275Y0002426696D01*
X0001480436Y0002428330D01*
X0001480842Y0002429667D01*
X0001481501Y0002430900D01*
X0001482388Y0002431981D01*
X0001483469Y0002432868D01*
X0001484702Y0002433527D01*
X0001486039Y0002433933D01*
X0001487672Y0002434094D01*
X0001511342Y0002434094D01*
X0001512975Y0002433933D01*
X0001512975Y0002433933D01*
G37*
G36*
X0000387976Y0002433933D02*
X0000389313Y0002433527D01*
X0000390546Y0002432868D01*
X0000391627Y0002431981D01*
X0000392514Y0002430900D01*
X0000393173Y0002429667D01*
X0000393579Y0002428330D01*
X0000393740Y0002426696D01*
X0000393740Y0002400074D01*
X0000393579Y0002398441D01*
X0000393173Y0002397103D01*
X0000392514Y0002395870D01*
X0000391627Y0002394789D01*
X0000390546Y0002393902D01*
X0000389313Y0002393243D01*
X0000387976Y0002392837D01*
X0000386342Y0002392676D01*
X0000362672Y0002392676D01*
X0000361039Y0002392837D01*
X0000359702Y0002393243D01*
X0000358469Y0002393902D01*
X0000357388Y0002394789D01*
X0000356501Y0002395870D01*
X0000355842Y0002397103D01*
X0000355436Y0002398441D01*
X0000355275Y0002400074D01*
X0000355275Y0002426696D01*
X0000355436Y0002428330D01*
X0000355842Y0002429667D01*
X0000356501Y0002430900D01*
X0000357388Y0002431981D01*
X0000358469Y0002432868D01*
X0000359702Y0002433527D01*
X0000361039Y0002433933D01*
X0000362672Y0002434094D01*
X0000386342Y0002434094D01*
X0000387976Y0002433933D01*
X0000387976Y0002433933D01*
G37*
G36*
X0000449983Y0002433933D02*
X0000451321Y0002433527D01*
X0000452554Y0002432868D01*
X0000453635Y0002431981D01*
X0000454522Y0002430900D01*
X0000455181Y0002429667D01*
X0000455587Y0002428330D01*
X0000455747Y0002426696D01*
X0000455747Y0002400074D01*
X0000455587Y0002398441D01*
X0000455181Y0002397103D01*
X0000454522Y0002395870D01*
X0000453635Y0002394789D01*
X0000452554Y0002393902D01*
X0000451321Y0002393243D01*
X0000449983Y0002392837D01*
X0000448350Y0002392676D01*
X0000424680Y0002392676D01*
X0000423047Y0002392837D01*
X0000421709Y0002393243D01*
X0000420476Y0002393902D01*
X0000419396Y0002394789D01*
X0000418509Y0002395870D01*
X0000417850Y0002397103D01*
X0000417444Y0002398441D01*
X0000417283Y0002400074D01*
X0000417283Y0002426696D01*
X0000417444Y0002428330D01*
X0000417850Y0002429667D01*
X0000418509Y0002430900D01*
X0000419396Y0002431981D01*
X0000420476Y0002432868D01*
X0000421709Y0002433527D01*
X0000423047Y0002433933D01*
X0000424680Y0002434094D01*
X0000448350Y0002434094D01*
X0000449983Y0002433933D01*
X0000449983Y0002433933D01*
G37*
G36*
X0000919472Y0002489051D02*
X0000920809Y0002488645D01*
X0000922042Y0002487986D01*
X0000923123Y0002487099D01*
X0000924010Y0002486018D01*
X0000924669Y0002484785D01*
X0000925075Y0002483448D01*
X0000925236Y0002481815D01*
X0000925236Y0002455192D01*
X0000925075Y0002453559D01*
X0000924669Y0002452221D01*
X0000924010Y0002450988D01*
X0000923123Y0002449907D01*
X0000922042Y0002449020D01*
X0000920809Y0002448361D01*
X0000919472Y0002447955D01*
X0000917838Y0002447795D01*
X0000894168Y0002447795D01*
X0000892535Y0002447955D01*
X0000891198Y0002448361D01*
X0000889965Y0002449020D01*
X0000888884Y0002449907D01*
X0000887997Y0002450988D01*
X0000887338Y0002452221D01*
X0000886932Y0002453559D01*
X0000886771Y0002455192D01*
X0000886771Y0002481815D01*
X0000886932Y0002483448D01*
X0000887338Y0002484785D01*
X0000887997Y0002486018D01*
X0000888884Y0002487099D01*
X0000889965Y0002487986D01*
X0000891198Y0002488645D01*
X0000892535Y0002489051D01*
X0000894168Y0002489212D01*
X0000917838Y0002489212D01*
X0000919472Y0002489051D01*
X0000919472Y0002489051D01*
G37*
G36*
X0000981479Y0002489051D02*
X0000982817Y0002488645D01*
X0000984050Y0002487986D01*
X0000985131Y0002487099D01*
X0000986018Y0002486018D01*
X0000986677Y0002484785D01*
X0000987083Y0002483448D01*
X0000987244Y0002481815D01*
X0000987244Y0002455192D01*
X0000987083Y0002453559D01*
X0000986677Y0002452221D01*
X0000986018Y0002450988D01*
X0000985131Y0002449907D01*
X0000984050Y0002449020D01*
X0000982817Y0002448361D01*
X0000981479Y0002447955D01*
X0000979846Y0002447795D01*
X0000956176Y0002447795D01*
X0000954543Y0002447955D01*
X0000953205Y0002448361D01*
X0000951972Y0002449020D01*
X0000950892Y0002449907D01*
X0000950005Y0002450988D01*
X0000949346Y0002452221D01*
X0000948940Y0002453559D01*
X0000948779Y0002455192D01*
X0000948779Y0002481815D01*
X0000948940Y0002483448D01*
X0000949346Y0002484785D01*
X0000950005Y0002486018D01*
X0000950892Y0002487099D01*
X0000951972Y0002487986D01*
X0000953205Y0002488645D01*
X0000954543Y0002489051D01*
X0000956176Y0002489212D01*
X0000979846Y0002489212D01*
X0000981479Y0002489051D01*
X0000981479Y0002489051D01*
G37*
G36*
X0001512975Y0002492988D02*
X0001514313Y0002492582D01*
X0001515546Y0002491923D01*
X0001516627Y0002491036D01*
X0001517514Y0002489955D01*
X0001518173Y0002488722D01*
X0001518579Y0002487385D01*
X0001518740Y0002485752D01*
X0001518740Y0002459129D01*
X0001518579Y0002457496D01*
X0001518173Y0002456158D01*
X0001517514Y0002454925D01*
X0001516627Y0002453844D01*
X0001515546Y0002452957D01*
X0001514313Y0002452298D01*
X0001512975Y0002451892D01*
X0001511342Y0002451732D01*
X0001487672Y0002451732D01*
X0001486039Y0002451892D01*
X0001484702Y0002452298D01*
X0001483469Y0002452957D01*
X0001482388Y0002453844D01*
X0001481501Y0002454925D01*
X0001480842Y0002456158D01*
X0001480436Y0002457496D01*
X0001480275Y0002459129D01*
X0001480275Y0002485752D01*
X0001480436Y0002487385D01*
X0001480842Y0002488722D01*
X0001481501Y0002489955D01*
X0001482388Y0002491036D01*
X0001483469Y0002491923D01*
X0001484702Y0002492582D01*
X0001486039Y0002492988D01*
X0001487672Y0002493149D01*
X0001511342Y0002493149D01*
X0001512975Y0002492988D01*
X0001512975Y0002492988D01*
G37*
G36*
X0000387976Y0002492988D02*
X0000389313Y0002492582D01*
X0000390546Y0002491923D01*
X0000391627Y0002491036D01*
X0000392514Y0002489955D01*
X0000393173Y0002488722D01*
X0000393579Y0002487385D01*
X0000393740Y0002485752D01*
X0000393740Y0002459129D01*
X0000393579Y0002457496D01*
X0000393173Y0002456158D01*
X0000392514Y0002454925D01*
X0000391627Y0002453844D01*
X0000390546Y0002452957D01*
X0000389313Y0002452298D01*
X0000387976Y0002451892D01*
X0000386342Y0002451732D01*
X0000362672Y0002451732D01*
X0000361039Y0002451892D01*
X0000359702Y0002452298D01*
X0000358469Y0002452957D01*
X0000357388Y0002453844D01*
X0000356501Y0002454925D01*
X0000355842Y0002456158D01*
X0000355436Y0002457496D01*
X0000355275Y0002459129D01*
X0000355275Y0002485752D01*
X0000355436Y0002487385D01*
X0000355842Y0002488722D01*
X0000356501Y0002489955D01*
X0000357388Y0002491036D01*
X0000358469Y0002491923D01*
X0000359702Y0002492582D01*
X0000361039Y0002492988D01*
X0000362672Y0002493149D01*
X0000386342Y0002493149D01*
X0000387976Y0002492988D01*
X0000387976Y0002492988D01*
G37*
G36*
X0000449983Y0002492988D02*
X0000451321Y0002492582D01*
X0000452554Y0002491923D01*
X0000453635Y0002491036D01*
X0000454522Y0002489955D01*
X0000455181Y0002488722D01*
X0000455587Y0002487385D01*
X0000455747Y0002485752D01*
X0000455747Y0002459129D01*
X0000455587Y0002457496D01*
X0000455181Y0002456158D01*
X0000454522Y0002454925D01*
X0000453635Y0002453844D01*
X0000452554Y0002452957D01*
X0000451321Y0002452298D01*
X0000449983Y0002451892D01*
X0000448350Y0002451732D01*
X0000424680Y0002451732D01*
X0000423047Y0002451892D01*
X0000421709Y0002452298D01*
X0000420476Y0002452957D01*
X0000419396Y0002453844D01*
X0000418509Y0002454925D01*
X0000417850Y0002456158D01*
X0000417444Y0002457496D01*
X0000417283Y0002459129D01*
X0000417283Y0002485752D01*
X0000417444Y0002487385D01*
X0000417850Y0002488722D01*
X0000418509Y0002489955D01*
X0000419396Y0002491036D01*
X0000420476Y0002491923D01*
X0000421709Y0002492582D01*
X0000423047Y0002492988D01*
X0000424680Y0002493149D01*
X0000448350Y0002493149D01*
X0000449983Y0002492988D01*
X0000449983Y0002492988D01*
G37*
G36*
X0001450968Y0002492988D02*
X0001452305Y0002492582D01*
X0001453538Y0002491923D01*
X0001454619Y0002491036D01*
X0001455506Y0002489955D01*
X0001456165Y0002488722D01*
X0001456571Y0002487385D01*
X0001456732Y0002485752D01*
X0001456732Y0002459129D01*
X0001456571Y0002457496D01*
X0001456165Y0002456158D01*
X0001455506Y0002454925D01*
X0001454619Y0002453844D01*
X0001453538Y0002452957D01*
X0001452305Y0002452298D01*
X0001450968Y0002451892D01*
X0001449335Y0002451732D01*
X0001425664Y0002451732D01*
X0001424031Y0002451892D01*
X0001422694Y0002452298D01*
X0001421461Y0002452957D01*
X0001420380Y0002453844D01*
X0001419493Y0002454925D01*
X0001418834Y0002456158D01*
X0001418428Y0002457496D01*
X0001418267Y0002459129D01*
X0001418267Y0002485752D01*
X0001418428Y0002487385D01*
X0001418834Y0002488722D01*
X0001419493Y0002489955D01*
X0001420380Y0002491036D01*
X0001421461Y0002491923D01*
X0001422694Y0002492582D01*
X0001424031Y0002492988D01*
X0001425664Y0002493149D01*
X0001449335Y0002493149D01*
X0001450968Y0002492988D01*
X0001450968Y0002492988D01*
G37*
G36*
X0001505102Y0002937870D02*
X0001506439Y0002937464D01*
X0001507672Y0002936805D01*
X0001508753Y0002935918D01*
X0001509640Y0002934837D01*
X0001510299Y0002933604D01*
X0001510705Y0002932267D01*
X0001510866Y0002930633D01*
X0001510866Y0002904011D01*
X0001510705Y0002902378D01*
X0001510299Y0002901040D01*
X0001509640Y0002899807D01*
X0001508753Y0002898726D01*
X0001507672Y0002897839D01*
X0001506439Y0002897180D01*
X0001505102Y0002896774D01*
X0001503468Y0002896613D01*
X0001479798Y0002896613D01*
X0001478165Y0002896774D01*
X0001476827Y0002897180D01*
X0001475594Y0002897839D01*
X0001474514Y0002898726D01*
X0001473627Y0002899807D01*
X0001472968Y0002901040D01*
X0001472562Y0002902378D01*
X0001472401Y0002904011D01*
X0001472401Y0002930633D01*
X0001472562Y0002932267D01*
X0001472968Y0002933604D01*
X0001473627Y0002934837D01*
X0001474514Y0002935918D01*
X0001475594Y0002936805D01*
X0001476827Y0002937464D01*
X0001478165Y0002937870D01*
X0001479798Y0002938031D01*
X0001503468Y0002938031D01*
X0001505102Y0002937870D01*
X0001505102Y0002937870D01*
G37*
G36*
X0001443094Y0002937870D02*
X0001444431Y0002937464D01*
X0001445664Y0002936805D01*
X0001446745Y0002935918D01*
X0001447632Y0002934837D01*
X0001448291Y0002933604D01*
X0001448697Y0002932267D01*
X0001448858Y0002930633D01*
X0001448858Y0002904011D01*
X0001448697Y0002902378D01*
X0001448291Y0002901040D01*
X0001447632Y0002899807D01*
X0001446745Y0002898726D01*
X0001445664Y0002897839D01*
X0001444431Y0002897180D01*
X0001443094Y0002896774D01*
X0001441461Y0002896613D01*
X0001417790Y0002896613D01*
X0001416157Y0002896774D01*
X0001414820Y0002897180D01*
X0001413587Y0002897839D01*
X0001412506Y0002898726D01*
X0001411619Y0002899807D01*
X0001410960Y0002901040D01*
X0001410554Y0002902378D01*
X0001410393Y0002904011D01*
X0001410393Y0002930633D01*
X0001410554Y0002932267D01*
X0001410960Y0002933604D01*
X0001411619Y0002934837D01*
X0001412506Y0002935918D01*
X0001413587Y0002936805D01*
X0001414820Y0002937464D01*
X0001416157Y0002937870D01*
X0001417790Y0002938031D01*
X0001441461Y0002938031D01*
X0001443094Y0002937870D01*
X0001443094Y0002937870D01*
G37*
G36*
X0000969668Y0002937870D02*
X0000971006Y0002937464D01*
X0000972239Y0002936805D01*
X0000973320Y0002935918D01*
X0000974207Y0002934837D01*
X0000974866Y0002933604D01*
X0000975272Y0002932267D01*
X0000975433Y0002930633D01*
X0000975433Y0002904011D01*
X0000975272Y0002902378D01*
X0000974866Y0002901040D01*
X0000974207Y0002899807D01*
X0000973320Y0002898726D01*
X0000972239Y0002897839D01*
X0000971006Y0002897180D01*
X0000969668Y0002896774D01*
X0000968035Y0002896613D01*
X0000944365Y0002896613D01*
X0000942732Y0002896774D01*
X0000941394Y0002897180D01*
X0000940161Y0002897839D01*
X0000939081Y0002898726D01*
X0000938194Y0002899807D01*
X0000937535Y0002901040D01*
X0000937129Y0002902378D01*
X0000936968Y0002904011D01*
X0000936968Y0002930633D01*
X0000937129Y0002932267D01*
X0000937535Y0002933604D01*
X0000938194Y0002934837D01*
X0000939081Y0002935918D01*
X0000940161Y0002936805D01*
X0000941394Y0002937464D01*
X0000942732Y0002937870D01*
X0000944365Y0002938031D01*
X0000968035Y0002938031D01*
X0000969668Y0002937870D01*
X0000969668Y0002937870D01*
G37*
G36*
X0000907661Y0002937870D02*
X0000908998Y0002937464D01*
X0000910231Y0002936805D01*
X0000911312Y0002935918D01*
X0000912199Y0002934837D01*
X0000912858Y0002933604D01*
X0000913264Y0002932267D01*
X0000913425Y0002930633D01*
X0000913425Y0002904011D01*
X0000913264Y0002902378D01*
X0000912858Y0002901040D01*
X0000912199Y0002899807D01*
X0000911312Y0002898726D01*
X0000910231Y0002897839D01*
X0000908998Y0002897180D01*
X0000907661Y0002896774D01*
X0000906027Y0002896613D01*
X0000882357Y0002896613D01*
X0000880724Y0002896774D01*
X0000879387Y0002897180D01*
X0000878154Y0002897839D01*
X0000877073Y0002898726D01*
X0000876186Y0002899807D01*
X0000875527Y0002901040D01*
X0000875121Y0002902378D01*
X0000874960Y0002904011D01*
X0000874960Y0002930633D01*
X0000875121Y0002932267D01*
X0000875527Y0002933604D01*
X0000876186Y0002934837D01*
X0000877073Y0002935918D01*
X0000878154Y0002936805D01*
X0000879387Y0002937464D01*
X0000880724Y0002937870D01*
X0000882357Y0002938031D01*
X0000906027Y0002938031D01*
X0000907661Y0002937870D01*
X0000907661Y0002937870D01*
G37*
G36*
X0000387976Y0002945744D02*
X0000389313Y0002945338D01*
X0000390546Y0002944679D01*
X0000391627Y0002943792D01*
X0000392514Y0002942711D01*
X0000393173Y0002941478D01*
X0000393579Y0002940141D01*
X0000393740Y0002938507D01*
X0000393740Y0002911885D01*
X0000393579Y0002910252D01*
X0000393173Y0002908914D01*
X0000392514Y0002907681D01*
X0000391627Y0002906600D01*
X0000390546Y0002905713D01*
X0000389313Y0002905054D01*
X0000387976Y0002904648D01*
X0000386342Y0002904487D01*
X0000362672Y0002904487D01*
X0000361039Y0002904648D01*
X0000359702Y0002905054D01*
X0000358469Y0002905713D01*
X0000357388Y0002906600D01*
X0000356501Y0002907681D01*
X0000355842Y0002908914D01*
X0000355436Y0002910252D01*
X0000355275Y0002911885D01*
X0000355275Y0002938507D01*
X0000355436Y0002940141D01*
X0000355842Y0002941478D01*
X0000356501Y0002942711D01*
X0000357388Y0002943792D01*
X0000358469Y0002944679D01*
X0000359702Y0002945338D01*
X0000361039Y0002945744D01*
X0000362672Y0002945905D01*
X0000386342Y0002945905D01*
X0000387976Y0002945744D01*
X0000387976Y0002945744D01*
G37*
G36*
X0000449983Y0002945744D02*
X0000451321Y0002945338D01*
X0000452554Y0002944679D01*
X0000453635Y0002943792D01*
X0000454522Y0002942711D01*
X0000455181Y0002941478D01*
X0000455587Y0002940141D01*
X0000455747Y0002938507D01*
X0000455747Y0002911885D01*
X0000455587Y0002910252D01*
X0000455181Y0002908914D01*
X0000454522Y0002907681D01*
X0000453635Y0002906600D01*
X0000452554Y0002905713D01*
X0000451321Y0002905054D01*
X0000449983Y0002904648D01*
X0000448350Y0002904487D01*
X0000424680Y0002904487D01*
X0000423047Y0002904648D01*
X0000421709Y0002905054D01*
X0000420476Y0002905713D01*
X0000419396Y0002906600D01*
X0000418509Y0002907681D01*
X0000417850Y0002908914D01*
X0000417444Y0002910252D01*
X0000417283Y0002911885D01*
X0000417283Y0002938507D01*
X0000417444Y0002940141D01*
X0000417850Y0002941478D01*
X0000418509Y0002942711D01*
X0000419396Y0002943792D01*
X0000420476Y0002944679D01*
X0000421709Y0002945338D01*
X0000423047Y0002945744D01*
X0000424680Y0002945905D01*
X0000448350Y0002945905D01*
X0000449983Y0002945744D01*
X0000449983Y0002945744D01*
G37*
G36*
X0001443094Y0002996925D02*
X0001444431Y0002996519D01*
X0001445664Y0002995860D01*
X0001446745Y0002994973D01*
X0001447632Y0002993892D01*
X0001448291Y0002992659D01*
X0001448697Y0002991322D01*
X0001448858Y0002989689D01*
X0001448858Y0002963066D01*
X0001448697Y0002961433D01*
X0001448291Y0002960095D01*
X0001447632Y0002958862D01*
X0001446745Y0002957781D01*
X0001445664Y0002956894D01*
X0001444431Y0002956235D01*
X0001443094Y0002955829D01*
X0001441461Y0002955669D01*
X0001417790Y0002955669D01*
X0001416157Y0002955829D01*
X0001414820Y0002956235D01*
X0001413587Y0002956894D01*
X0001412506Y0002957781D01*
X0001411619Y0002958862D01*
X0001410960Y0002960095D01*
X0001410554Y0002961433D01*
X0001410393Y0002963066D01*
X0001410393Y0002989689D01*
X0001410554Y0002991322D01*
X0001410960Y0002992659D01*
X0001411619Y0002993892D01*
X0001412506Y0002994973D01*
X0001413587Y0002995860D01*
X0001414820Y0002996519D01*
X0001416157Y0002996925D01*
X0001417790Y0002997086D01*
X0001441461Y0002997086D01*
X0001443094Y0002996925D01*
X0001443094Y0002996925D01*
G37*
G36*
X0001505102Y0002996925D02*
X0001506439Y0002996519D01*
X0001507672Y0002995860D01*
X0001508753Y0002994973D01*
X0001509640Y0002993892D01*
X0001510299Y0002992659D01*
X0001510705Y0002991322D01*
X0001510866Y0002989689D01*
X0001510866Y0002963066D01*
X0001510705Y0002961433D01*
X0001510299Y0002960095D01*
X0001509640Y0002958862D01*
X0001508753Y0002957781D01*
X0001507672Y0002956894D01*
X0001506439Y0002956235D01*
X0001505102Y0002955829D01*
X0001503468Y0002955669D01*
X0001479798Y0002955669D01*
X0001478165Y0002955829D01*
X0001476827Y0002956235D01*
X0001475594Y0002956894D01*
X0001474514Y0002957781D01*
X0001473627Y0002958862D01*
X0001472968Y0002960095D01*
X0001472562Y0002961433D01*
X0001472401Y0002963066D01*
X0001472401Y0002989689D01*
X0001472562Y0002991322D01*
X0001472968Y0002992659D01*
X0001473627Y0002993892D01*
X0001474514Y0002994973D01*
X0001475594Y0002995860D01*
X0001476827Y0002996519D01*
X0001478165Y0002996925D01*
X0001479798Y0002997086D01*
X0001503468Y0002997086D01*
X0001505102Y0002996925D01*
X0001505102Y0002996925D01*
G37*
G36*
X0000907661Y0002996925D02*
X0000908998Y0002996519D01*
X0000910231Y0002995860D01*
X0000911312Y0002994973D01*
X0000912199Y0002993892D01*
X0000912858Y0002992659D01*
X0000913264Y0002991322D01*
X0000913425Y0002989689D01*
X0000913425Y0002963066D01*
X0000913264Y0002961433D01*
X0000912858Y0002960095D01*
X0000912199Y0002958862D01*
X0000911312Y0002957781D01*
X0000910231Y0002956894D01*
X0000908998Y0002956235D01*
X0000907661Y0002955829D01*
X0000906027Y0002955669D01*
X0000882357Y0002955669D01*
X0000880724Y0002955829D01*
X0000879387Y0002956235D01*
X0000878154Y0002956894D01*
X0000877073Y0002957781D01*
X0000876186Y0002958862D01*
X0000875527Y0002960095D01*
X0000875121Y0002961433D01*
X0000874960Y0002963066D01*
X0000874960Y0002989689D01*
X0000875121Y0002991322D01*
X0000875527Y0002992659D01*
X0000876186Y0002993892D01*
X0000877073Y0002994973D01*
X0000878154Y0002995860D01*
X0000879387Y0002996519D01*
X0000880724Y0002996925D01*
X0000882357Y0002997086D01*
X0000906027Y0002997086D01*
X0000907661Y0002996925D01*
X0000907661Y0002996925D01*
G37*
G36*
X0000969668Y0002996925D02*
X0000971006Y0002996519D01*
X0000972239Y0002995860D01*
X0000973320Y0002994973D01*
X0000974207Y0002993892D01*
X0000974866Y0002992659D01*
X0000975272Y0002991322D01*
X0000975433Y0002989689D01*
X0000975433Y0002963066D01*
X0000975272Y0002961433D01*
X0000974866Y0002960095D01*
X0000974207Y0002958862D01*
X0000973320Y0002957781D01*
X0000972239Y0002956894D01*
X0000971006Y0002956235D01*
X0000969668Y0002955829D01*
X0000968035Y0002955669D01*
X0000944365Y0002955669D01*
X0000942732Y0002955829D01*
X0000941394Y0002956235D01*
X0000940161Y0002956894D01*
X0000939081Y0002957781D01*
X0000938194Y0002958862D01*
X0000937535Y0002960095D01*
X0000937129Y0002961433D01*
X0000936968Y0002963066D01*
X0000936968Y0002989689D01*
X0000937129Y0002991322D01*
X0000937535Y0002992659D01*
X0000938194Y0002993892D01*
X0000939081Y0002994973D01*
X0000940161Y0002995860D01*
X0000941394Y0002996519D01*
X0000942732Y0002996925D01*
X0000944365Y0002997086D01*
X0000968035Y0002997086D01*
X0000969668Y0002996925D01*
X0000969668Y0002996925D01*
G37*
G36*
X0000387976Y0003004799D02*
X0000389313Y0003004393D01*
X0000390546Y0003003734D01*
X0000391627Y0003002847D01*
X0000392514Y0003001766D01*
X0000393173Y0003000533D01*
X0000393579Y0002999196D01*
X0000393740Y0002997563D01*
X0000393740Y0002970940D01*
X0000393579Y0002969307D01*
X0000393173Y0002967969D01*
X0000392514Y0002966736D01*
X0000391627Y0002965655D01*
X0000390546Y0002964768D01*
X0000389313Y0002964109D01*
X0000387976Y0002963703D01*
X0000386342Y0002963543D01*
X0000362672Y0002963543D01*
X0000361039Y0002963703D01*
X0000359702Y0002964109D01*
X0000358469Y0002964768D01*
X0000357388Y0002965655D01*
X0000356501Y0002966736D01*
X0000355842Y0002967969D01*
X0000355436Y0002969307D01*
X0000355275Y0002970940D01*
X0000355275Y0002997563D01*
X0000355436Y0002999196D01*
X0000355842Y0003000533D01*
X0000356501Y0003001766D01*
X0000357388Y0003002847D01*
X0000358469Y0003003734D01*
X0000359702Y0003004393D01*
X0000361039Y0003004799D01*
X0000362672Y0003004960D01*
X0000386342Y0003004960D01*
X0000387976Y0003004799D01*
X0000387976Y0003004799D01*
G37*
G36*
X0000449983Y0003004799D02*
X0000451321Y0003004393D01*
X0000452554Y0003003734D01*
X0000453635Y0003002847D01*
X0000454522Y0003001766D01*
X0000455181Y0003000533D01*
X0000455587Y0002999196D01*
X0000455747Y0002997563D01*
X0000455747Y0002970940D01*
X0000455587Y0002969307D01*
X0000455181Y0002967969D01*
X0000454522Y0002966736D01*
X0000453635Y0002965655D01*
X0000452554Y0002964768D01*
X0000451321Y0002964109D01*
X0000449983Y0002963703D01*
X0000448350Y0002963543D01*
X0000424680Y0002963543D01*
X0000423047Y0002963703D01*
X0000421709Y0002964109D01*
X0000420476Y0002964768D01*
X0000419396Y0002965655D01*
X0000418509Y0002966736D01*
X0000417850Y0002967969D01*
X0000417444Y0002969307D01*
X0000417283Y0002970940D01*
X0000417283Y0002997563D01*
X0000417444Y0002999196D01*
X0000417850Y0003000533D01*
X0000418509Y0003001766D01*
X0000419396Y0003002847D01*
X0000420476Y0003003734D01*
X0000421709Y0003004393D01*
X0000423047Y0003004799D01*
X0000424680Y0003004960D01*
X0000448350Y0003004960D01*
X0000449983Y0003004799D01*
X0000449983Y0003004799D01*
G37*
G36*
X0001493783Y0003437870D02*
X0001495120Y0003437464D01*
X0001496353Y0003436805D01*
X0001497434Y0003435918D01*
X0001498321Y0003434837D01*
X0001498980Y0003433604D01*
X0001499386Y0003432267D01*
X0001499547Y0003430633D01*
X0001499547Y0003404011D01*
X0001499386Y0003402378D01*
X0001498980Y0003401040D01*
X0001498321Y0003399807D01*
X0001497434Y0003398726D01*
X0001496353Y0003397839D01*
X0001495120Y0003397180D01*
X0001493783Y0003396774D01*
X0001492150Y0003396613D01*
X0001468479Y0003396613D01*
X0001466846Y0003396774D01*
X0001465509Y0003397180D01*
X0001464276Y0003397839D01*
X0001463195Y0003398726D01*
X0001462308Y0003399807D01*
X0001461649Y0003401040D01*
X0001461243Y0003402378D01*
X0001461082Y0003404011D01*
X0001461082Y0003430633D01*
X0001461243Y0003432267D01*
X0001461649Y0003433604D01*
X0001462308Y0003434837D01*
X0001463195Y0003435918D01*
X0001464276Y0003436805D01*
X0001465509Y0003437464D01*
X0001466846Y0003437870D01*
X0001468479Y0003438031D01*
X0001492150Y0003438031D01*
X0001493783Y0003437870D01*
X0001493783Y0003437870D01*
G37*
G36*
X0001431775Y0003437870D02*
X0001433112Y0003437464D01*
X0001434345Y0003436805D01*
X0001435426Y0003435918D01*
X0001436313Y0003434837D01*
X0001436972Y0003433604D01*
X0001437378Y0003432267D01*
X0001437539Y0003430633D01*
X0001437539Y0003404011D01*
X0001437378Y0003402378D01*
X0001436972Y0003401040D01*
X0001436313Y0003399807D01*
X0001435426Y0003398726D01*
X0001434345Y0003397839D01*
X0001433112Y0003397180D01*
X0001431775Y0003396774D01*
X0001430142Y0003396613D01*
X0001406472Y0003396613D01*
X0001404838Y0003396774D01*
X0001403501Y0003397180D01*
X0001402268Y0003397839D01*
X0001401187Y0003398726D01*
X0001400300Y0003399807D01*
X0001399641Y0003401040D01*
X0001399235Y0003402378D01*
X0001399074Y0003404011D01*
X0001399074Y0003430633D01*
X0001399235Y0003432267D01*
X0001399641Y0003433604D01*
X0001400300Y0003434837D01*
X0001401187Y0003435918D01*
X0001402268Y0003436805D01*
X0001403501Y0003437464D01*
X0001404838Y0003437870D01*
X0001406472Y0003438031D01*
X0001430142Y0003438031D01*
X0001431775Y0003437870D01*
X0001431775Y0003437870D01*
G37*
G36*
X0000907661Y0003437870D02*
X0000908998Y0003437464D01*
X0000910231Y0003436805D01*
X0000911312Y0003435918D01*
X0000912199Y0003434837D01*
X0000912858Y0003433604D01*
X0000913264Y0003432267D01*
X0000913425Y0003430633D01*
X0000913425Y0003404011D01*
X0000913264Y0003402378D01*
X0000912858Y0003401040D01*
X0000912199Y0003399807D01*
X0000911312Y0003398726D01*
X0000910231Y0003397839D01*
X0000908998Y0003397180D01*
X0000907661Y0003396774D01*
X0000906027Y0003396613D01*
X0000882357Y0003396613D01*
X0000880724Y0003396774D01*
X0000879387Y0003397180D01*
X0000878154Y0003397839D01*
X0000877073Y0003398726D01*
X0000876186Y0003399807D01*
X0000875527Y0003401040D01*
X0000875121Y0003402378D01*
X0000874960Y0003404011D01*
X0000874960Y0003430633D01*
X0000875121Y0003432267D01*
X0000875527Y0003433604D01*
X0000876186Y0003434837D01*
X0000877073Y0003435918D01*
X0000878154Y0003436805D01*
X0000879387Y0003437464D01*
X0000880724Y0003437870D01*
X0000882357Y0003438031D01*
X0000906027Y0003438031D01*
X0000907661Y0003437870D01*
X0000907661Y0003437870D01*
G37*
G36*
X0000969668Y0003437870D02*
X0000971006Y0003437464D01*
X0000972239Y0003436805D01*
X0000973320Y0003435918D01*
X0000974207Y0003434837D01*
X0000974866Y0003433604D01*
X0000975272Y0003432267D01*
X0000975433Y0003430633D01*
X0000975433Y0003404011D01*
X0000975272Y0003402378D01*
X0000974866Y0003401040D01*
X0000974207Y0003399807D01*
X0000973320Y0003398726D01*
X0000972239Y0003397839D01*
X0000971006Y0003397180D01*
X0000969668Y0003396774D01*
X0000968035Y0003396613D01*
X0000944365Y0003396613D01*
X0000942732Y0003396774D01*
X0000941394Y0003397180D01*
X0000940161Y0003397839D01*
X0000939081Y0003398726D01*
X0000938194Y0003399807D01*
X0000937535Y0003401040D01*
X0000937129Y0003402378D01*
X0000936968Y0003404011D01*
X0000936968Y0003430633D01*
X0000937129Y0003432267D01*
X0000937535Y0003433604D01*
X0000938194Y0003434837D01*
X0000939081Y0003435918D01*
X0000940161Y0003436805D01*
X0000941394Y0003437464D01*
X0000942732Y0003437870D01*
X0000944365Y0003438031D01*
X0000968035Y0003438031D01*
X0000969668Y0003437870D01*
X0000969668Y0003437870D01*
G37*
G36*
X0000449983Y0003445744D02*
X0000451321Y0003445338D01*
X0000452554Y0003444679D01*
X0000453635Y0003443792D01*
X0000454522Y0003442711D01*
X0000455181Y0003441478D01*
X0000455587Y0003440141D01*
X0000455747Y0003438507D01*
X0000455747Y0003411885D01*
X0000455587Y0003410252D01*
X0000455181Y0003408914D01*
X0000454522Y0003407681D01*
X0000453635Y0003406600D01*
X0000452554Y0003405713D01*
X0000451321Y0003405054D01*
X0000449983Y0003404648D01*
X0000448350Y0003404487D01*
X0000424680Y0003404487D01*
X0000423047Y0003404648D01*
X0000421709Y0003405054D01*
X0000420476Y0003405713D01*
X0000419396Y0003406600D01*
X0000418509Y0003407681D01*
X0000417850Y0003408914D01*
X0000417444Y0003410252D01*
X0000417283Y0003411885D01*
X0000417283Y0003438507D01*
X0000417444Y0003440141D01*
X0000417850Y0003441478D01*
X0000418509Y0003442711D01*
X0000419396Y0003443792D01*
X0000420476Y0003444679D01*
X0000421709Y0003445338D01*
X0000423047Y0003445744D01*
X0000424680Y0003445905D01*
X0000448350Y0003445905D01*
X0000449983Y0003445744D01*
X0000449983Y0003445744D01*
G37*
G36*
X0000387976Y0003445744D02*
X0000389313Y0003445338D01*
X0000390546Y0003444679D01*
X0000391627Y0003443792D01*
X0000392514Y0003442711D01*
X0000393173Y0003441478D01*
X0000393579Y0003440141D01*
X0000393740Y0003438507D01*
X0000393740Y0003411885D01*
X0000393579Y0003410252D01*
X0000393173Y0003408914D01*
X0000392514Y0003407681D01*
X0000391627Y0003406600D01*
X0000390546Y0003405713D01*
X0000389313Y0003405054D01*
X0000387976Y0003404648D01*
X0000386342Y0003404487D01*
X0000362672Y0003404487D01*
X0000361039Y0003404648D01*
X0000359702Y0003405054D01*
X0000358469Y0003405713D01*
X0000357388Y0003406600D01*
X0000356501Y0003407681D01*
X0000355842Y0003408914D01*
X0000355436Y0003410252D01*
X0000355275Y0003411885D01*
X0000355275Y0003438507D01*
X0000355436Y0003440141D01*
X0000355842Y0003441478D01*
X0000356501Y0003442711D01*
X0000357388Y0003443792D01*
X0000358469Y0003444679D01*
X0000359702Y0003445338D01*
X0000361039Y0003445744D01*
X0000362672Y0003445905D01*
X0000386342Y0003445905D01*
X0000387976Y0003445744D01*
X0000387976Y0003445744D01*
G37*
G36*
X0000907661Y0003496925D02*
X0000908998Y0003496519D01*
X0000910231Y0003495860D01*
X0000911312Y0003494973D01*
X0000912199Y0003493892D01*
X0000912858Y0003492659D01*
X0000913264Y0003491322D01*
X0000913425Y0003489689D01*
X0000913425Y0003463066D01*
X0000913264Y0003461433D01*
X0000912858Y0003460095D01*
X0000912199Y0003458862D01*
X0000911312Y0003457781D01*
X0000910231Y0003456894D01*
X0000908998Y0003456235D01*
X0000907661Y0003455829D01*
X0000906027Y0003455669D01*
X0000882357Y0003455669D01*
X0000880724Y0003455829D01*
X0000879387Y0003456235D01*
X0000878154Y0003456894D01*
X0000877073Y0003457781D01*
X0000876186Y0003458862D01*
X0000875527Y0003460095D01*
X0000875121Y0003461433D01*
X0000874960Y0003463066D01*
X0000874960Y0003489689D01*
X0000875121Y0003491322D01*
X0000875527Y0003492659D01*
X0000876186Y0003493892D01*
X0000877073Y0003494973D01*
X0000878154Y0003495860D01*
X0000879387Y0003496519D01*
X0000880724Y0003496925D01*
X0000882357Y0003497086D01*
X0000906027Y0003497086D01*
X0000907661Y0003496925D01*
X0000907661Y0003496925D01*
G37*
G36*
X0001431283Y0003496925D02*
X0001432620Y0003496519D01*
X0001433853Y0003495860D01*
X0001434934Y0003494973D01*
X0001435821Y0003493892D01*
X0001436480Y0003492659D01*
X0001436886Y0003491322D01*
X0001437047Y0003489689D01*
X0001437047Y0003463066D01*
X0001436886Y0003461433D01*
X0001436480Y0003460095D01*
X0001435821Y0003458862D01*
X0001434934Y0003457781D01*
X0001433853Y0003456894D01*
X0001432620Y0003456235D01*
X0001431283Y0003455829D01*
X0001429649Y0003455669D01*
X0001405979Y0003455669D01*
X0001404346Y0003455829D01*
X0001403009Y0003456235D01*
X0001401776Y0003456894D01*
X0001400695Y0003457781D01*
X0001399808Y0003458862D01*
X0001399149Y0003460095D01*
X0001398743Y0003461433D01*
X0001398582Y0003463066D01*
X0001398582Y0003489689D01*
X0001398743Y0003491322D01*
X0001399149Y0003492659D01*
X0001399808Y0003493892D01*
X0001400695Y0003494973D01*
X0001401776Y0003495860D01*
X0001403009Y0003496519D01*
X0001404346Y0003496925D01*
X0001405979Y0003497086D01*
X0001429649Y0003497086D01*
X0001431283Y0003496925D01*
X0001431283Y0003496925D01*
G37*
G36*
X0001493290Y0003496925D02*
X0001494628Y0003496519D01*
X0001495861Y0003495860D01*
X0001496942Y0003494973D01*
X0001497829Y0003493892D01*
X0001498488Y0003492659D01*
X0001498894Y0003491322D01*
X0001499055Y0003489689D01*
X0001499055Y0003463066D01*
X0001498894Y0003461433D01*
X0001498488Y0003460095D01*
X0001497829Y0003458862D01*
X0001496942Y0003457781D01*
X0001495861Y0003456894D01*
X0001494628Y0003456235D01*
X0001493290Y0003455829D01*
X0001491657Y0003455669D01*
X0001467987Y0003455669D01*
X0001466354Y0003455829D01*
X0001465016Y0003456235D01*
X0001463783Y0003456894D01*
X0001462703Y0003457781D01*
X0001461816Y0003458862D01*
X0001461157Y0003460095D01*
X0001460751Y0003461433D01*
X0001460590Y0003463066D01*
X0001460590Y0003489689D01*
X0001460751Y0003491322D01*
X0001461157Y0003492659D01*
X0001461816Y0003493892D01*
X0001462703Y0003494973D01*
X0001463783Y0003495860D01*
X0001465016Y0003496519D01*
X0001466354Y0003496925D01*
X0001467987Y0003497086D01*
X0001491657Y0003497086D01*
X0001493290Y0003496925D01*
X0001493290Y0003496925D01*
G37*
G36*
X0000969668Y0003496925D02*
X0000971006Y0003496519D01*
X0000972239Y0003495860D01*
X0000973320Y0003494973D01*
X0000974207Y0003493892D01*
X0000974866Y0003492659D01*
X0000975272Y0003491322D01*
X0000975433Y0003489689D01*
X0000975433Y0003463066D01*
X0000975272Y0003461433D01*
X0000974866Y0003460095D01*
X0000974207Y0003458862D01*
X0000973320Y0003457781D01*
X0000972239Y0003456894D01*
X0000971006Y0003456235D01*
X0000969668Y0003455829D01*
X0000968035Y0003455669D01*
X0000944365Y0003455669D01*
X0000942732Y0003455829D01*
X0000941394Y0003456235D01*
X0000940161Y0003456894D01*
X0000939081Y0003457781D01*
X0000938194Y0003458862D01*
X0000937535Y0003460095D01*
X0000937129Y0003461433D01*
X0000936968Y0003463066D01*
X0000936968Y0003489689D01*
X0000937129Y0003491322D01*
X0000937535Y0003492659D01*
X0000938194Y0003493892D01*
X0000939081Y0003494973D01*
X0000940161Y0003495860D01*
X0000941394Y0003496519D01*
X0000942732Y0003496925D01*
X0000944365Y0003497086D01*
X0000968035Y0003497086D01*
X0000969668Y0003496925D01*
X0000969668Y0003496925D01*
G37*
G36*
X0000449983Y0003500862D02*
X0000451321Y0003500456D01*
X0000452554Y0003499797D01*
X0000453635Y0003498910D01*
X0000454522Y0003497829D01*
X0000455181Y0003496596D01*
X0000455587Y0003495259D01*
X0000455747Y0003493626D01*
X0000455747Y0003467003D01*
X0000455587Y0003465370D01*
X0000455181Y0003464032D01*
X0000454522Y0003462799D01*
X0000453635Y0003461718D01*
X0000452554Y0003460831D01*
X0000451321Y0003460172D01*
X0000449983Y0003459766D01*
X0000448350Y0003459606D01*
X0000424680Y0003459606D01*
X0000423047Y0003459766D01*
X0000421709Y0003460172D01*
X0000420476Y0003460831D01*
X0000419396Y0003461718D01*
X0000418509Y0003462799D01*
X0000417850Y0003464032D01*
X0000417444Y0003465370D01*
X0000417283Y0003467003D01*
X0000417283Y0003493626D01*
X0000417444Y0003495259D01*
X0000417850Y0003496596D01*
X0000418509Y0003497829D01*
X0000419396Y0003498910D01*
X0000420476Y0003499797D01*
X0000421709Y0003500456D01*
X0000423047Y0003500862D01*
X0000424680Y0003501023D01*
X0000448350Y0003501023D01*
X0000449983Y0003500862D01*
X0000449983Y0003500862D01*
G37*
G36*
X0000387976Y0003500862D02*
X0000389313Y0003500456D01*
X0000390546Y0003499797D01*
X0000391627Y0003498910D01*
X0000392514Y0003497829D01*
X0000393173Y0003496596D01*
X0000393579Y0003495259D01*
X0000393740Y0003493626D01*
X0000393740Y0003467003D01*
X0000393579Y0003465370D01*
X0000393173Y0003464032D01*
X0000392514Y0003462799D01*
X0000391627Y0003461718D01*
X0000390546Y0003460831D01*
X0000389313Y0003460172D01*
X0000387976Y0003459766D01*
X0000386342Y0003459606D01*
X0000362672Y0003459606D01*
X0000361039Y0003459766D01*
X0000359702Y0003460172D01*
X0000358469Y0003460831D01*
X0000357388Y0003461718D01*
X0000356501Y0003462799D01*
X0000355842Y0003464032D01*
X0000355436Y0003465370D01*
X0000355275Y0003467003D01*
X0000355275Y0003493626D01*
X0000355436Y0003495259D01*
X0000355842Y0003496596D01*
X0000356501Y0003497829D01*
X0000357388Y0003498910D01*
X0000358469Y0003499797D01*
X0000359702Y0003500456D01*
X0000361039Y0003500862D01*
X0000362672Y0003501023D01*
X0000386342Y0003501023D01*
X0000387976Y0003500862D01*
X0000387976Y0003500862D01*
G37*
G04 next file*
G04 #@! TF.GenerationSoftware,KiCad,Pcbnew,(5.0.2)-1*
G04 #@! TF.CreationDate,2019-01-19T12:13:54+11:00*
G04 #@! TF.ProjectId,WarGames_SAO,57617247-616d-4657-935f-53414f2e6b69,rev?*
G04 #@! TF.SameCoordinates,Original*
G04 #@! TF.FileFunction,Soldermask,Top*
G04 #@! TF.FilePolarity,Negative*
G04 Gerber Fmt 4.6, Leading zero omitted, Abs format (unit mm)*
G04 Created by KiCad (PCBNEW (5.0.2)-1) date 19/01/2019 12:13:54*
G01*
G04 APERTURE LIST*
G04 APERTURE END LIST*
D23*
G36*
X0003702773Y0002155687D02*
X0003705379Y0002155431D01*
X0003709836Y0002154079D01*
X0003712065Y0002153402D01*
X0003717523Y0002150485D01*
X0003718228Y0002150109D01*
X0003719635Y0002148954D01*
X0003723629Y0002145676D01*
X0003726907Y0002141681D01*
X0003728062Y0002140274D01*
X0003728062Y0002140274D01*
X0003731356Y0002134112D01*
X0003731356Y0002134112D01*
X0003733384Y0002127425D01*
X0003734069Y0002120472D01*
X0003733384Y0002113518D01*
X0003732032Y0002109060D01*
X0003731356Y0002106831D01*
X0003728438Y0002101374D01*
X0003728062Y0002100669D01*
X0003726907Y0002099262D01*
X0003723629Y0002095267D01*
X0003719635Y0002091989D01*
X0003718228Y0002090835D01*
X0003718227Y0002090835D01*
X0003712065Y0002087541D01*
X0003709836Y0002086865D01*
X0003705379Y0002085512D01*
X0003702773Y0002085256D01*
X0003700167Y0002084999D01*
X0003696682Y0002084999D01*
X0003694077Y0002085256D01*
X0003691471Y0002085512D01*
X0003687013Y0002086865D01*
X0003684784Y0002087541D01*
X0003678622Y0002090835D01*
X0003678622Y0002090835D01*
X0003677215Y0002091989D01*
X0003673221Y0002095267D01*
X0003669943Y0002099262D01*
X0003668788Y0002100669D01*
X0003668411Y0002101374D01*
X0003665494Y0002106831D01*
X0003664818Y0002109060D01*
X0003663466Y0002113518D01*
X0003662781Y0002120472D01*
X0003663466Y0002127425D01*
X0003665494Y0002134112D01*
X0003665494Y0002134112D01*
X0003668788Y0002140274D01*
X0003668788Y0002140274D01*
X0003669943Y0002141681D01*
X0003673221Y0002145676D01*
X0003677215Y0002148954D01*
X0003678622Y0002150109D01*
X0003679327Y0002150485D01*
X0003684784Y0002153402D01*
X0003687013Y0002154079D01*
X0003691471Y0002155431D01*
X0003694077Y0002155687D01*
X0003696682Y0002155944D01*
X0003700167Y0002155944D01*
X0003702773Y0002155687D01*
X0003702773Y0002155687D01*
G37*
G36*
X0003602773Y0002155687D02*
X0003605379Y0002155431D01*
X0003609836Y0002154079D01*
X0003612065Y0002153402D01*
X0003617523Y0002150485D01*
X0003618228Y0002150109D01*
X0003619635Y0002148954D01*
X0003623629Y0002145676D01*
X0003626907Y0002141681D01*
X0003628062Y0002140274D01*
X0003628062Y0002140274D01*
X0003631356Y0002134112D01*
X0003631356Y0002134112D01*
X0003633384Y0002127425D01*
X0003634069Y0002120472D01*
X0003633384Y0002113518D01*
X0003632032Y0002109060D01*
X0003631356Y0002106831D01*
X0003628438Y0002101374D01*
X0003628062Y0002100669D01*
X0003626907Y0002099262D01*
X0003623629Y0002095267D01*
X0003619635Y0002091989D01*
X0003618228Y0002090835D01*
X0003618227Y0002090835D01*
X0003612065Y0002087541D01*
X0003609836Y0002086865D01*
X0003605379Y0002085512D01*
X0003602773Y0002085256D01*
X0003600167Y0002084999D01*
X0003596682Y0002084999D01*
X0003594077Y0002085256D01*
X0003591471Y0002085512D01*
X0003587013Y0002086865D01*
X0003584784Y0002087541D01*
X0003578622Y0002090835D01*
X0003578622Y0002090835D01*
X0003577215Y0002091989D01*
X0003573221Y0002095267D01*
X0003569943Y0002099262D01*
X0003568788Y0002100669D01*
X0003568411Y0002101374D01*
X0003565494Y0002106831D01*
X0003564818Y0002109060D01*
X0003563466Y0002113518D01*
X0003562781Y0002120472D01*
X0003563466Y0002127425D01*
X0003565494Y0002134112D01*
X0003565494Y0002134112D01*
X0003568788Y0002140274D01*
X0003568788Y0002140274D01*
X0003569943Y0002141681D01*
X0003573221Y0002145676D01*
X0003577215Y0002148954D01*
X0003578622Y0002150109D01*
X0003579327Y0002150485D01*
X0003584784Y0002153402D01*
X0003587013Y0002154079D01*
X0003591471Y0002155431D01*
X0003594077Y0002155687D01*
X0003596682Y0002155944D01*
X0003600167Y0002155944D01*
X0003602773Y0002155687D01*
X0003602773Y0002155687D01*
G37*
G36*
X0003702773Y0002255687D02*
X0003705379Y0002255431D01*
X0003709836Y0002254079D01*
X0003712065Y0002253402D01*
X0003717523Y0002250485D01*
X0003718228Y0002250109D01*
X0003719635Y0002248954D01*
X0003723629Y0002245676D01*
X0003726907Y0002241681D01*
X0003728062Y0002240274D01*
X0003728062Y0002240274D01*
X0003731356Y0002234112D01*
X0003731356Y0002234112D01*
X0003733384Y0002227425D01*
X0003734069Y0002220472D01*
X0003733384Y0002213518D01*
X0003732032Y0002209060D01*
X0003731356Y0002206831D01*
X0003728438Y0002201374D01*
X0003728062Y0002200669D01*
X0003726907Y0002199262D01*
X0003723629Y0002195267D01*
X0003719635Y0002191989D01*
X0003718228Y0002190835D01*
X0003718227Y0002190835D01*
X0003712065Y0002187541D01*
X0003709836Y0002186865D01*
X0003705379Y0002185512D01*
X0003702773Y0002185256D01*
X0003700167Y0002184999D01*
X0003696682Y0002184999D01*
X0003694077Y0002185256D01*
X0003691471Y0002185512D01*
X0003687013Y0002186865D01*
X0003684784Y0002187541D01*
X0003678622Y0002190835D01*
X0003678622Y0002190835D01*
X0003677215Y0002191989D01*
X0003673221Y0002195267D01*
X0003669943Y0002199262D01*
X0003668788Y0002200669D01*
X0003668411Y0002201374D01*
X0003665494Y0002206831D01*
X0003664818Y0002209060D01*
X0003663466Y0002213518D01*
X0003662781Y0002220472D01*
X0003663466Y0002227425D01*
X0003665494Y0002234112D01*
X0003665494Y0002234112D01*
X0003668788Y0002240274D01*
X0003668788Y0002240274D01*
X0003669943Y0002241681D01*
X0003673221Y0002245676D01*
X0003677215Y0002248954D01*
X0003678622Y0002250109D01*
X0003679327Y0002250485D01*
X0003684784Y0002253402D01*
X0003687013Y0002254079D01*
X0003691471Y0002255431D01*
X0003694077Y0002255687D01*
X0003696682Y0002255944D01*
X0003700167Y0002255944D01*
X0003702773Y0002255687D01*
X0003702773Y0002255687D01*
G37*
G36*
X0003633897Y0002184999D02*
X0003562952Y0002184999D01*
X0003562952Y0002255944D01*
X0003633897Y0002255944D01*
X0003633897Y0002184999D01*
X0003633897Y0002184999D01*
G37*
G36*
X0002965731Y0002429996D02*
X0002967069Y0002429590D01*
X0002968302Y0002428931D01*
X0002969383Y0002428044D01*
X0002970270Y0002426963D01*
X0002970929Y0002425730D01*
X0002971335Y0002424393D01*
X0002971496Y0002422759D01*
X0002971496Y0002396137D01*
X0002971335Y0002394504D01*
X0002970929Y0002393166D01*
X0002970270Y0002391933D01*
X0002969383Y0002390852D01*
X0002968302Y0002389965D01*
X0002967069Y0002389306D01*
X0002965731Y0002388900D01*
X0002964098Y0002388739D01*
X0002940428Y0002388739D01*
X0002938795Y0002388900D01*
X0002937457Y0002389306D01*
X0002936224Y0002389965D01*
X0002935144Y0002390852D01*
X0002934257Y0002391933D01*
X0002933598Y0002393166D01*
X0002933192Y0002394504D01*
X0002933031Y0002396137D01*
X0002933031Y0002422759D01*
X0002933192Y0002424393D01*
X0002933598Y0002425730D01*
X0002934257Y0002426963D01*
X0002935144Y0002428044D01*
X0002936224Y0002428931D01*
X0002937457Y0002429590D01*
X0002938795Y0002429996D01*
X0002940428Y0002430157D01*
X0002964098Y0002430157D01*
X0002965731Y0002429996D01*
X0002965731Y0002429996D01*
G37*
G36*
X0002903724Y0002429996D02*
X0002905061Y0002429590D01*
X0002906294Y0002428931D01*
X0002907375Y0002428044D01*
X0002908262Y0002426963D01*
X0002908921Y0002425730D01*
X0002909327Y0002424393D01*
X0002909488Y0002422759D01*
X0002909488Y0002396137D01*
X0002909327Y0002394504D01*
X0002908921Y0002393166D01*
X0002908262Y0002391933D01*
X0002907375Y0002390852D01*
X0002906294Y0002389965D01*
X0002905061Y0002389306D01*
X0002903724Y0002388900D01*
X0002902090Y0002388739D01*
X0002878420Y0002388739D01*
X0002876787Y0002388900D01*
X0002875450Y0002389306D01*
X0002874217Y0002389965D01*
X0002873136Y0002390852D01*
X0002872249Y0002391933D01*
X0002871590Y0002393166D01*
X0002871184Y0002394504D01*
X0002871023Y0002396137D01*
X0002871023Y0002422759D01*
X0002871184Y0002424393D01*
X0002871590Y0002425730D01*
X0002872249Y0002426963D01*
X0002873136Y0002428044D01*
X0002874217Y0002428931D01*
X0002875450Y0002429590D01*
X0002876787Y0002429996D01*
X0002878420Y0002430157D01*
X0002902090Y0002430157D01*
X0002903724Y0002429996D01*
X0002903724Y0002429996D01*
G37*
G36*
X0003435220Y0002433933D02*
X0003436557Y0002433527D01*
X0003437790Y0002432868D01*
X0003438871Y0002431981D01*
X0003439758Y0002430900D01*
X0003440417Y0002429667D01*
X0003440823Y0002428330D01*
X0003440984Y0002426696D01*
X0003440984Y0002400074D01*
X0003440823Y0002398441D01*
X0003440417Y0002397103D01*
X0003439758Y0002395870D01*
X0003438871Y0002394789D01*
X0003437790Y0002393902D01*
X0003436557Y0002393243D01*
X0003435220Y0002392837D01*
X0003433587Y0002392676D01*
X0003409916Y0002392676D01*
X0003408283Y0002392837D01*
X0003406946Y0002393243D01*
X0003405713Y0002393902D01*
X0003404632Y0002394789D01*
X0003403745Y0002395870D01*
X0003403086Y0002397103D01*
X0003402680Y0002398441D01*
X0003402519Y0002400074D01*
X0003402519Y0002426696D01*
X0003402680Y0002428330D01*
X0003403086Y0002429667D01*
X0003403745Y0002430900D01*
X0003404632Y0002431981D01*
X0003405713Y0002432868D01*
X0003406946Y0002433527D01*
X0003408283Y0002433933D01*
X0003409916Y0002434094D01*
X0003433587Y0002434094D01*
X0003435220Y0002433933D01*
X0003435220Y0002433933D01*
G37*
G36*
X0003497228Y0002433933D02*
X0003498565Y0002433527D01*
X0003499798Y0002432868D01*
X0003500879Y0002431981D01*
X0003501766Y0002430900D01*
X0003502425Y0002429667D01*
X0003502831Y0002428330D01*
X0003502992Y0002426696D01*
X0003502992Y0002400074D01*
X0003502831Y0002398441D01*
X0003502425Y0002397103D01*
X0003501766Y0002395870D01*
X0003500879Y0002394789D01*
X0003499798Y0002393902D01*
X0003498565Y0002393243D01*
X0003497228Y0002392837D01*
X0003495594Y0002392676D01*
X0003471924Y0002392676D01*
X0003470291Y0002392837D01*
X0003468954Y0002393243D01*
X0003467721Y0002393902D01*
X0003466640Y0002394789D01*
X0003465753Y0002395870D01*
X0003465094Y0002397103D01*
X0003464688Y0002398441D01*
X0003464527Y0002400074D01*
X0003464527Y0002426696D01*
X0003464688Y0002428330D01*
X0003465094Y0002429667D01*
X0003465753Y0002430900D01*
X0003466640Y0002431981D01*
X0003467721Y0002432868D01*
X0003468954Y0002433527D01*
X0003470291Y0002433933D01*
X0003471924Y0002434094D01*
X0003495594Y0002434094D01*
X0003497228Y0002433933D01*
X0003497228Y0002433933D01*
G37*
G36*
X0002372228Y0002433933D02*
X0002373565Y0002433527D01*
X0002374798Y0002432868D01*
X0002375879Y0002431981D01*
X0002376766Y0002430900D01*
X0002377425Y0002429667D01*
X0002377831Y0002428330D01*
X0002377992Y0002426696D01*
X0002377992Y0002400074D01*
X0002377831Y0002398441D01*
X0002377425Y0002397103D01*
X0002376766Y0002395870D01*
X0002375879Y0002394789D01*
X0002374798Y0002393902D01*
X0002373565Y0002393243D01*
X0002372228Y0002392837D01*
X0002370594Y0002392676D01*
X0002346924Y0002392676D01*
X0002345291Y0002392837D01*
X0002343954Y0002393243D01*
X0002342721Y0002393902D01*
X0002341640Y0002394789D01*
X0002340753Y0002395870D01*
X0002340094Y0002397103D01*
X0002339688Y0002398441D01*
X0002339527Y0002400074D01*
X0002339527Y0002426696D01*
X0002339688Y0002428330D01*
X0002340094Y0002429667D01*
X0002340753Y0002430900D01*
X0002341640Y0002431981D01*
X0002342721Y0002432868D01*
X0002343954Y0002433527D01*
X0002345291Y0002433933D01*
X0002346924Y0002434094D01*
X0002370594Y0002434094D01*
X0002372228Y0002433933D01*
X0002372228Y0002433933D01*
G37*
G36*
X0002434235Y0002433933D02*
X0002435573Y0002433527D01*
X0002436806Y0002432868D01*
X0002437887Y0002431981D01*
X0002438774Y0002430900D01*
X0002439433Y0002429667D01*
X0002439839Y0002428330D01*
X0002440000Y0002426696D01*
X0002440000Y0002400074D01*
X0002439839Y0002398441D01*
X0002439433Y0002397103D01*
X0002438774Y0002395870D01*
X0002437887Y0002394789D01*
X0002436806Y0002393902D01*
X0002435573Y0002393243D01*
X0002434235Y0002392837D01*
X0002432602Y0002392676D01*
X0002408932Y0002392676D01*
X0002407299Y0002392837D01*
X0002405961Y0002393243D01*
X0002404728Y0002393902D01*
X0002403648Y0002394789D01*
X0002402761Y0002395870D01*
X0002402102Y0002397103D01*
X0002401696Y0002398441D01*
X0002401535Y0002400074D01*
X0002401535Y0002426696D01*
X0002401696Y0002428330D01*
X0002402102Y0002429667D01*
X0002402761Y0002430900D01*
X0002403648Y0002431981D01*
X0002404728Y0002432868D01*
X0002405961Y0002433527D01*
X0002407299Y0002433933D01*
X0002408932Y0002434094D01*
X0002432602Y0002434094D01*
X0002434235Y0002433933D01*
X0002434235Y0002433933D01*
G37*
G36*
X0002903724Y0002489051D02*
X0002905061Y0002488645D01*
X0002906294Y0002487986D01*
X0002907375Y0002487099D01*
X0002908262Y0002486018D01*
X0002908921Y0002484785D01*
X0002909327Y0002483448D01*
X0002909488Y0002481815D01*
X0002909488Y0002455192D01*
X0002909327Y0002453559D01*
X0002908921Y0002452221D01*
X0002908262Y0002450988D01*
X0002907375Y0002449907D01*
X0002906294Y0002449020D01*
X0002905061Y0002448361D01*
X0002903724Y0002447955D01*
X0002902090Y0002447795D01*
X0002878420Y0002447795D01*
X0002876787Y0002447955D01*
X0002875450Y0002448361D01*
X0002874217Y0002449020D01*
X0002873136Y0002449907D01*
X0002872249Y0002450988D01*
X0002871590Y0002452221D01*
X0002871184Y0002453559D01*
X0002871023Y0002455192D01*
X0002871023Y0002481815D01*
X0002871184Y0002483448D01*
X0002871590Y0002484785D01*
X0002872249Y0002486018D01*
X0002873136Y0002487099D01*
X0002874217Y0002487986D01*
X0002875450Y0002488645D01*
X0002876787Y0002489051D01*
X0002878420Y0002489212D01*
X0002902090Y0002489212D01*
X0002903724Y0002489051D01*
X0002903724Y0002489051D01*
G37*
G36*
X0002965731Y0002489051D02*
X0002967069Y0002488645D01*
X0002968302Y0002487986D01*
X0002969383Y0002487099D01*
X0002970270Y0002486018D01*
X0002970929Y0002484785D01*
X0002971335Y0002483448D01*
X0002971496Y0002481815D01*
X0002971496Y0002455192D01*
X0002971335Y0002453559D01*
X0002970929Y0002452221D01*
X0002970270Y0002450988D01*
X0002969383Y0002449907D01*
X0002968302Y0002449020D01*
X0002967069Y0002448361D01*
X0002965731Y0002447955D01*
X0002964098Y0002447795D01*
X0002940428Y0002447795D01*
X0002938795Y0002447955D01*
X0002937457Y0002448361D01*
X0002936224Y0002449020D01*
X0002935144Y0002449907D01*
X0002934257Y0002450988D01*
X0002933598Y0002452221D01*
X0002933192Y0002453559D01*
X0002933031Y0002455192D01*
X0002933031Y0002481815D01*
X0002933192Y0002483448D01*
X0002933598Y0002484785D01*
X0002934257Y0002486018D01*
X0002935144Y0002487099D01*
X0002936224Y0002487986D01*
X0002937457Y0002488645D01*
X0002938795Y0002489051D01*
X0002940428Y0002489212D01*
X0002964098Y0002489212D01*
X0002965731Y0002489051D01*
X0002965731Y0002489051D01*
G37*
G36*
X0003497228Y0002492988D02*
X0003498565Y0002492582D01*
X0003499798Y0002491923D01*
X0003500879Y0002491036D01*
X0003501766Y0002489955D01*
X0003502425Y0002488722D01*
X0003502831Y0002487385D01*
X0003502992Y0002485752D01*
X0003502992Y0002459129D01*
X0003502831Y0002457496D01*
X0003502425Y0002456158D01*
X0003501766Y0002454925D01*
X0003500879Y0002453844D01*
X0003499798Y0002452957D01*
X0003498565Y0002452298D01*
X0003497228Y0002451892D01*
X0003495594Y0002451732D01*
X0003471924Y0002451732D01*
X0003470291Y0002451892D01*
X0003468954Y0002452298D01*
X0003467721Y0002452957D01*
X0003466640Y0002453844D01*
X0003465753Y0002454925D01*
X0003465094Y0002456158D01*
X0003464688Y0002457496D01*
X0003464527Y0002459129D01*
X0003464527Y0002485752D01*
X0003464688Y0002487385D01*
X0003465094Y0002488722D01*
X0003465753Y0002489955D01*
X0003466640Y0002491036D01*
X0003467721Y0002491923D01*
X0003468954Y0002492582D01*
X0003470291Y0002492988D01*
X0003471924Y0002493149D01*
X0003495594Y0002493149D01*
X0003497228Y0002492988D01*
X0003497228Y0002492988D01*
G37*
G36*
X0002372228Y0002492988D02*
X0002373565Y0002492582D01*
X0002374798Y0002491923D01*
X0002375879Y0002491036D01*
X0002376766Y0002489955D01*
X0002377425Y0002488722D01*
X0002377831Y0002487385D01*
X0002377992Y0002485752D01*
X0002377992Y0002459129D01*
X0002377831Y0002457496D01*
X0002377425Y0002456158D01*
X0002376766Y0002454925D01*
X0002375879Y0002453844D01*
X0002374798Y0002452957D01*
X0002373565Y0002452298D01*
X0002372228Y0002451892D01*
X0002370594Y0002451732D01*
X0002346924Y0002451732D01*
X0002345291Y0002451892D01*
X0002343954Y0002452298D01*
X0002342721Y0002452957D01*
X0002341640Y0002453844D01*
X0002340753Y0002454925D01*
X0002340094Y0002456158D01*
X0002339688Y0002457496D01*
X0002339527Y0002459129D01*
X0002339527Y0002485752D01*
X0002339688Y0002487385D01*
X0002340094Y0002488722D01*
X0002340753Y0002489955D01*
X0002341640Y0002491036D01*
X0002342721Y0002491923D01*
X0002343954Y0002492582D01*
X0002345291Y0002492988D01*
X0002346924Y0002493149D01*
X0002370594Y0002493149D01*
X0002372228Y0002492988D01*
X0002372228Y0002492988D01*
G37*
G36*
X0002434235Y0002492988D02*
X0002435573Y0002492582D01*
X0002436806Y0002491923D01*
X0002437887Y0002491036D01*
X0002438774Y0002489955D01*
X0002439433Y0002488722D01*
X0002439839Y0002487385D01*
X0002440000Y0002485752D01*
X0002440000Y0002459129D01*
X0002439839Y0002457496D01*
X0002439433Y0002456158D01*
X0002438774Y0002454925D01*
X0002437887Y0002453844D01*
X0002436806Y0002452957D01*
X0002435573Y0002452298D01*
X0002434235Y0002451892D01*
X0002432602Y0002451732D01*
X0002408932Y0002451732D01*
X0002407299Y0002451892D01*
X0002405961Y0002452298D01*
X0002404728Y0002452957D01*
X0002403648Y0002453844D01*
X0002402761Y0002454925D01*
X0002402102Y0002456158D01*
X0002401696Y0002457496D01*
X0002401535Y0002459129D01*
X0002401535Y0002485752D01*
X0002401696Y0002487385D01*
X0002402102Y0002488722D01*
X0002402761Y0002489955D01*
X0002403648Y0002491036D01*
X0002404728Y0002491923D01*
X0002405961Y0002492582D01*
X0002407299Y0002492988D01*
X0002408932Y0002493149D01*
X0002432602Y0002493149D01*
X0002434235Y0002492988D01*
X0002434235Y0002492988D01*
G37*
G36*
X0003435220Y0002492988D02*
X0003436557Y0002492582D01*
X0003437790Y0002491923D01*
X0003438871Y0002491036D01*
X0003439758Y0002489955D01*
X0003440417Y0002488722D01*
X0003440823Y0002487385D01*
X0003440984Y0002485752D01*
X0003440984Y0002459129D01*
X0003440823Y0002457496D01*
X0003440417Y0002456158D01*
X0003439758Y0002454925D01*
X0003438871Y0002453844D01*
X0003437790Y0002452957D01*
X0003436557Y0002452298D01*
X0003435220Y0002451892D01*
X0003433587Y0002451732D01*
X0003409916Y0002451732D01*
X0003408283Y0002451892D01*
X0003406946Y0002452298D01*
X0003405713Y0002452957D01*
X0003404632Y0002453844D01*
X0003403745Y0002454925D01*
X0003403086Y0002456158D01*
X0003402680Y0002457496D01*
X0003402519Y0002459129D01*
X0003402519Y0002485752D01*
X0003402680Y0002487385D01*
X0003403086Y0002488722D01*
X0003403745Y0002489955D01*
X0003404632Y0002491036D01*
X0003405713Y0002491923D01*
X0003406946Y0002492582D01*
X0003408283Y0002492988D01*
X0003409916Y0002493149D01*
X0003433587Y0002493149D01*
X0003435220Y0002492988D01*
X0003435220Y0002492988D01*
G37*
G36*
X0003489354Y0002937870D02*
X0003490691Y0002937464D01*
X0003491924Y0002936805D01*
X0003493005Y0002935918D01*
X0003493892Y0002934837D01*
X0003494551Y0002933604D01*
X0003494957Y0002932267D01*
X0003495118Y0002930633D01*
X0003495118Y0002904011D01*
X0003494957Y0002902378D01*
X0003494551Y0002901040D01*
X0003493892Y0002899807D01*
X0003493005Y0002898726D01*
X0003491924Y0002897839D01*
X0003490691Y0002897180D01*
X0003489354Y0002896774D01*
X0003487720Y0002896613D01*
X0003464050Y0002896613D01*
X0003462417Y0002896774D01*
X0003461080Y0002897180D01*
X0003459847Y0002897839D01*
X0003458766Y0002898726D01*
X0003457879Y0002899807D01*
X0003457220Y0002901040D01*
X0003456814Y0002902378D01*
X0003456653Y0002904011D01*
X0003456653Y0002930633D01*
X0003456814Y0002932267D01*
X0003457220Y0002933604D01*
X0003457879Y0002934837D01*
X0003458766Y0002935918D01*
X0003459847Y0002936805D01*
X0003461080Y0002937464D01*
X0003462417Y0002937870D01*
X0003464050Y0002938031D01*
X0003487720Y0002938031D01*
X0003489354Y0002937870D01*
X0003489354Y0002937870D01*
G37*
G36*
X0003427346Y0002937870D02*
X0003428683Y0002937464D01*
X0003429916Y0002936805D01*
X0003430997Y0002935918D01*
X0003431884Y0002934837D01*
X0003432543Y0002933604D01*
X0003432949Y0002932267D01*
X0003433110Y0002930633D01*
X0003433110Y0002904011D01*
X0003432949Y0002902378D01*
X0003432543Y0002901040D01*
X0003431884Y0002899807D01*
X0003430997Y0002898726D01*
X0003429916Y0002897839D01*
X0003428683Y0002897180D01*
X0003427346Y0002896774D01*
X0003425713Y0002896613D01*
X0003402042Y0002896613D01*
X0003400409Y0002896774D01*
X0003399072Y0002897180D01*
X0003397839Y0002897839D01*
X0003396758Y0002898726D01*
X0003395871Y0002899807D01*
X0003395212Y0002901040D01*
X0003394806Y0002902378D01*
X0003394645Y0002904011D01*
X0003394645Y0002930633D01*
X0003394806Y0002932267D01*
X0003395212Y0002933604D01*
X0003395871Y0002934837D01*
X0003396758Y0002935918D01*
X0003397839Y0002936805D01*
X0003399072Y0002937464D01*
X0003400409Y0002937870D01*
X0003402042Y0002938031D01*
X0003425713Y0002938031D01*
X0003427346Y0002937870D01*
X0003427346Y0002937870D01*
G37*
G36*
X0002953920Y0002937870D02*
X0002955258Y0002937464D01*
X0002956491Y0002936805D01*
X0002957572Y0002935918D01*
X0002958459Y0002934837D01*
X0002959118Y0002933604D01*
X0002959524Y0002932267D01*
X0002959685Y0002930633D01*
X0002959685Y0002904011D01*
X0002959524Y0002902378D01*
X0002959118Y0002901040D01*
X0002958459Y0002899807D01*
X0002957572Y0002898726D01*
X0002956491Y0002897839D01*
X0002955258Y0002897180D01*
X0002953920Y0002896774D01*
X0002952287Y0002896613D01*
X0002928617Y0002896613D01*
X0002926984Y0002896774D01*
X0002925646Y0002897180D01*
X0002924413Y0002897839D01*
X0002923333Y0002898726D01*
X0002922446Y0002899807D01*
X0002921787Y0002901040D01*
X0002921381Y0002902378D01*
X0002921220Y0002904011D01*
X0002921220Y0002930633D01*
X0002921381Y0002932267D01*
X0002921787Y0002933604D01*
X0002922446Y0002934837D01*
X0002923333Y0002935918D01*
X0002924413Y0002936805D01*
X0002925646Y0002937464D01*
X0002926984Y0002937870D01*
X0002928617Y0002938031D01*
X0002952287Y0002938031D01*
X0002953920Y0002937870D01*
X0002953920Y0002937870D01*
G37*
G36*
X0002891913Y0002937870D02*
X0002893250Y0002937464D01*
X0002894483Y0002936805D01*
X0002895564Y0002935918D01*
X0002896451Y0002934837D01*
X0002897110Y0002933604D01*
X0002897516Y0002932267D01*
X0002897677Y0002930633D01*
X0002897677Y0002904011D01*
X0002897516Y0002902378D01*
X0002897110Y0002901040D01*
X0002896451Y0002899807D01*
X0002895564Y0002898726D01*
X0002894483Y0002897839D01*
X0002893250Y0002897180D01*
X0002891913Y0002896774D01*
X0002890279Y0002896613D01*
X0002866609Y0002896613D01*
X0002864976Y0002896774D01*
X0002863639Y0002897180D01*
X0002862406Y0002897839D01*
X0002861325Y0002898726D01*
X0002860438Y0002899807D01*
X0002859779Y0002901040D01*
X0002859373Y0002902378D01*
X0002859212Y0002904011D01*
X0002859212Y0002930633D01*
X0002859373Y0002932267D01*
X0002859779Y0002933604D01*
X0002860438Y0002934837D01*
X0002861325Y0002935918D01*
X0002862406Y0002936805D01*
X0002863639Y0002937464D01*
X0002864976Y0002937870D01*
X0002866609Y0002938031D01*
X0002890279Y0002938031D01*
X0002891913Y0002937870D01*
X0002891913Y0002937870D01*
G37*
G36*
X0002372228Y0002945744D02*
X0002373565Y0002945338D01*
X0002374798Y0002944679D01*
X0002375879Y0002943792D01*
X0002376766Y0002942711D01*
X0002377425Y0002941478D01*
X0002377831Y0002940141D01*
X0002377992Y0002938507D01*
X0002377992Y0002911885D01*
X0002377831Y0002910252D01*
X0002377425Y0002908914D01*
X0002376766Y0002907681D01*
X0002375879Y0002906600D01*
X0002374798Y0002905713D01*
X0002373565Y0002905054D01*
X0002372228Y0002904648D01*
X0002370594Y0002904487D01*
X0002346924Y0002904487D01*
X0002345291Y0002904648D01*
X0002343954Y0002905054D01*
X0002342721Y0002905713D01*
X0002341640Y0002906600D01*
X0002340753Y0002907681D01*
X0002340094Y0002908914D01*
X0002339688Y0002910252D01*
X0002339527Y0002911885D01*
X0002339527Y0002938507D01*
X0002339688Y0002940141D01*
X0002340094Y0002941478D01*
X0002340753Y0002942711D01*
X0002341640Y0002943792D01*
X0002342721Y0002944679D01*
X0002343954Y0002945338D01*
X0002345291Y0002945744D01*
X0002346924Y0002945905D01*
X0002370594Y0002945905D01*
X0002372228Y0002945744D01*
X0002372228Y0002945744D01*
G37*
G36*
X0002434235Y0002945744D02*
X0002435573Y0002945338D01*
X0002436806Y0002944679D01*
X0002437887Y0002943792D01*
X0002438774Y0002942711D01*
X0002439433Y0002941478D01*
X0002439839Y0002940141D01*
X0002440000Y0002938507D01*
X0002440000Y0002911885D01*
X0002439839Y0002910252D01*
X0002439433Y0002908914D01*
X0002438774Y0002907681D01*
X0002437887Y0002906600D01*
X0002436806Y0002905713D01*
X0002435573Y0002905054D01*
X0002434235Y0002904648D01*
X0002432602Y0002904487D01*
X0002408932Y0002904487D01*
X0002407299Y0002904648D01*
X0002405961Y0002905054D01*
X0002404728Y0002905713D01*
X0002403648Y0002906600D01*
X0002402761Y0002907681D01*
X0002402102Y0002908914D01*
X0002401696Y0002910252D01*
X0002401535Y0002911885D01*
X0002401535Y0002938507D01*
X0002401696Y0002940141D01*
X0002402102Y0002941478D01*
X0002402761Y0002942711D01*
X0002403648Y0002943792D01*
X0002404728Y0002944679D01*
X0002405961Y0002945338D01*
X0002407299Y0002945744D01*
X0002408932Y0002945905D01*
X0002432602Y0002945905D01*
X0002434235Y0002945744D01*
X0002434235Y0002945744D01*
G37*
G36*
X0003427346Y0002996925D02*
X0003428683Y0002996519D01*
X0003429916Y0002995860D01*
X0003430997Y0002994973D01*
X0003431884Y0002993892D01*
X0003432543Y0002992659D01*
X0003432949Y0002991322D01*
X0003433110Y0002989689D01*
X0003433110Y0002963066D01*
X0003432949Y0002961433D01*
X0003432543Y0002960095D01*
X0003431884Y0002958862D01*
X0003430997Y0002957781D01*
X0003429916Y0002956894D01*
X0003428683Y0002956235D01*
X0003427346Y0002955829D01*
X0003425713Y0002955669D01*
X0003402042Y0002955669D01*
X0003400409Y0002955829D01*
X0003399072Y0002956235D01*
X0003397839Y0002956894D01*
X0003396758Y0002957781D01*
X0003395871Y0002958862D01*
X0003395212Y0002960095D01*
X0003394806Y0002961433D01*
X0003394645Y0002963066D01*
X0003394645Y0002989689D01*
X0003394806Y0002991322D01*
X0003395212Y0002992659D01*
X0003395871Y0002993892D01*
X0003396758Y0002994973D01*
X0003397839Y0002995860D01*
X0003399072Y0002996519D01*
X0003400409Y0002996925D01*
X0003402042Y0002997086D01*
X0003425713Y0002997086D01*
X0003427346Y0002996925D01*
X0003427346Y0002996925D01*
G37*
G36*
X0003489354Y0002996925D02*
X0003490691Y0002996519D01*
X0003491924Y0002995860D01*
X0003493005Y0002994973D01*
X0003493892Y0002993892D01*
X0003494551Y0002992659D01*
X0003494957Y0002991322D01*
X0003495118Y0002989689D01*
X0003495118Y0002963066D01*
X0003494957Y0002961433D01*
X0003494551Y0002960095D01*
X0003493892Y0002958862D01*
X0003493005Y0002957781D01*
X0003491924Y0002956894D01*
X0003490691Y0002956235D01*
X0003489354Y0002955829D01*
X0003487720Y0002955669D01*
X0003464050Y0002955669D01*
X0003462417Y0002955829D01*
X0003461080Y0002956235D01*
X0003459847Y0002956894D01*
X0003458766Y0002957781D01*
X0003457879Y0002958862D01*
X0003457220Y0002960095D01*
X0003456814Y0002961433D01*
X0003456653Y0002963066D01*
X0003456653Y0002989689D01*
X0003456814Y0002991322D01*
X0003457220Y0002992659D01*
X0003457879Y0002993892D01*
X0003458766Y0002994973D01*
X0003459847Y0002995860D01*
X0003461080Y0002996519D01*
X0003462417Y0002996925D01*
X0003464050Y0002997086D01*
X0003487720Y0002997086D01*
X0003489354Y0002996925D01*
X0003489354Y0002996925D01*
G37*
G36*
X0002891913Y0002996925D02*
X0002893250Y0002996519D01*
X0002894483Y0002995860D01*
X0002895564Y0002994973D01*
X0002896451Y0002993892D01*
X0002897110Y0002992659D01*
X0002897516Y0002991322D01*
X0002897677Y0002989689D01*
X0002897677Y0002963066D01*
X0002897516Y0002961433D01*
X0002897110Y0002960095D01*
X0002896451Y0002958862D01*
X0002895564Y0002957781D01*
X0002894483Y0002956894D01*
X0002893250Y0002956235D01*
X0002891913Y0002955829D01*
X0002890279Y0002955669D01*
X0002866609Y0002955669D01*
X0002864976Y0002955829D01*
X0002863639Y0002956235D01*
X0002862406Y0002956894D01*
X0002861325Y0002957781D01*
X0002860438Y0002958862D01*
X0002859779Y0002960095D01*
X0002859373Y0002961433D01*
X0002859212Y0002963066D01*
X0002859212Y0002989689D01*
X0002859373Y0002991322D01*
X0002859779Y0002992659D01*
X0002860438Y0002993892D01*
X0002861325Y0002994973D01*
X0002862406Y0002995860D01*
X0002863639Y0002996519D01*
X0002864976Y0002996925D01*
X0002866609Y0002997086D01*
X0002890279Y0002997086D01*
X0002891913Y0002996925D01*
X0002891913Y0002996925D01*
G37*
G36*
X0002953920Y0002996925D02*
X0002955258Y0002996519D01*
X0002956491Y0002995860D01*
X0002957572Y0002994973D01*
X0002958459Y0002993892D01*
X0002959118Y0002992659D01*
X0002959524Y0002991322D01*
X0002959685Y0002989689D01*
X0002959685Y0002963066D01*
X0002959524Y0002961433D01*
X0002959118Y0002960095D01*
X0002958459Y0002958862D01*
X0002957572Y0002957781D01*
X0002956491Y0002956894D01*
X0002955258Y0002956235D01*
X0002953920Y0002955829D01*
X0002952287Y0002955669D01*
X0002928617Y0002955669D01*
X0002926984Y0002955829D01*
X0002925646Y0002956235D01*
X0002924413Y0002956894D01*
X0002923333Y0002957781D01*
X0002922446Y0002958862D01*
X0002921787Y0002960095D01*
X0002921381Y0002961433D01*
X0002921220Y0002963066D01*
X0002921220Y0002989689D01*
X0002921381Y0002991322D01*
X0002921787Y0002992659D01*
X0002922446Y0002993892D01*
X0002923333Y0002994973D01*
X0002924413Y0002995860D01*
X0002925646Y0002996519D01*
X0002926984Y0002996925D01*
X0002928617Y0002997086D01*
X0002952287Y0002997086D01*
X0002953920Y0002996925D01*
X0002953920Y0002996925D01*
G37*
G36*
X0002372228Y0003004799D02*
X0002373565Y0003004393D01*
X0002374798Y0003003734D01*
X0002375879Y0003002847D01*
X0002376766Y0003001766D01*
X0002377425Y0003000533D01*
X0002377831Y0002999196D01*
X0002377992Y0002997563D01*
X0002377992Y0002970940D01*
X0002377831Y0002969307D01*
X0002377425Y0002967969D01*
X0002376766Y0002966736D01*
X0002375879Y0002965655D01*
X0002374798Y0002964768D01*
X0002373565Y0002964109D01*
X0002372228Y0002963703D01*
X0002370594Y0002963543D01*
X0002346924Y0002963543D01*
X0002345291Y0002963703D01*
X0002343954Y0002964109D01*
X0002342721Y0002964768D01*
X0002341640Y0002965655D01*
X0002340753Y0002966736D01*
X0002340094Y0002967969D01*
X0002339688Y0002969307D01*
X0002339527Y0002970940D01*
X0002339527Y0002997563D01*
X0002339688Y0002999196D01*
X0002340094Y0003000533D01*
X0002340753Y0003001766D01*
X0002341640Y0003002847D01*
X0002342721Y0003003734D01*
X0002343954Y0003004393D01*
X0002345291Y0003004799D01*
X0002346924Y0003004960D01*
X0002370594Y0003004960D01*
X0002372228Y0003004799D01*
X0002372228Y0003004799D01*
G37*
G36*
X0002434235Y0003004799D02*
X0002435573Y0003004393D01*
X0002436806Y0003003734D01*
X0002437887Y0003002847D01*
X0002438774Y0003001766D01*
X0002439433Y0003000533D01*
X0002439839Y0002999196D01*
X0002440000Y0002997563D01*
X0002440000Y0002970940D01*
X0002439839Y0002969307D01*
X0002439433Y0002967969D01*
X0002438774Y0002966736D01*
X0002437887Y0002965655D01*
X0002436806Y0002964768D01*
X0002435573Y0002964109D01*
X0002434235Y0002963703D01*
X0002432602Y0002963543D01*
X0002408932Y0002963543D01*
X0002407299Y0002963703D01*
X0002405961Y0002964109D01*
X0002404728Y0002964768D01*
X0002403648Y0002965655D01*
X0002402761Y0002966736D01*
X0002402102Y0002967969D01*
X0002401696Y0002969307D01*
X0002401535Y0002970940D01*
X0002401535Y0002997563D01*
X0002401696Y0002999196D01*
X0002402102Y0003000533D01*
X0002402761Y0003001766D01*
X0002403648Y0003002847D01*
X0002404728Y0003003734D01*
X0002405961Y0003004393D01*
X0002407299Y0003004799D01*
X0002408932Y0003004960D01*
X0002432602Y0003004960D01*
X0002434235Y0003004799D01*
X0002434235Y0003004799D01*
G37*
G36*
X0003478035Y0003437870D02*
X0003479372Y0003437464D01*
X0003480605Y0003436805D01*
X0003481686Y0003435918D01*
X0003482573Y0003434837D01*
X0003483232Y0003433604D01*
X0003483638Y0003432267D01*
X0003483799Y0003430633D01*
X0003483799Y0003404011D01*
X0003483638Y0003402378D01*
X0003483232Y0003401040D01*
X0003482573Y0003399807D01*
X0003481686Y0003398726D01*
X0003480605Y0003397839D01*
X0003479372Y0003397180D01*
X0003478035Y0003396774D01*
X0003476402Y0003396613D01*
X0003452731Y0003396613D01*
X0003451098Y0003396774D01*
X0003449761Y0003397180D01*
X0003448528Y0003397839D01*
X0003447447Y0003398726D01*
X0003446560Y0003399807D01*
X0003445901Y0003401040D01*
X0003445495Y0003402378D01*
X0003445334Y0003404011D01*
X0003445334Y0003430633D01*
X0003445495Y0003432267D01*
X0003445901Y0003433604D01*
X0003446560Y0003434837D01*
X0003447447Y0003435918D01*
X0003448528Y0003436805D01*
X0003449761Y0003437464D01*
X0003451098Y0003437870D01*
X0003452731Y0003438031D01*
X0003476402Y0003438031D01*
X0003478035Y0003437870D01*
X0003478035Y0003437870D01*
G37*
G36*
X0003416027Y0003437870D02*
X0003417364Y0003437464D01*
X0003418597Y0003436805D01*
X0003419678Y0003435918D01*
X0003420565Y0003434837D01*
X0003421224Y0003433604D01*
X0003421630Y0003432267D01*
X0003421791Y0003430633D01*
X0003421791Y0003404011D01*
X0003421630Y0003402378D01*
X0003421224Y0003401040D01*
X0003420565Y0003399807D01*
X0003419678Y0003398726D01*
X0003418597Y0003397839D01*
X0003417364Y0003397180D01*
X0003416027Y0003396774D01*
X0003414394Y0003396613D01*
X0003390724Y0003396613D01*
X0003389090Y0003396774D01*
X0003387753Y0003397180D01*
X0003386520Y0003397839D01*
X0003385439Y0003398726D01*
X0003384552Y0003399807D01*
X0003383893Y0003401040D01*
X0003383487Y0003402378D01*
X0003383326Y0003404011D01*
X0003383326Y0003430633D01*
X0003383487Y0003432267D01*
X0003383893Y0003433604D01*
X0003384552Y0003434837D01*
X0003385439Y0003435918D01*
X0003386520Y0003436805D01*
X0003387753Y0003437464D01*
X0003389090Y0003437870D01*
X0003390724Y0003438031D01*
X0003414394Y0003438031D01*
X0003416027Y0003437870D01*
X0003416027Y0003437870D01*
G37*
G36*
X0002891913Y0003437870D02*
X0002893250Y0003437464D01*
X0002894483Y0003436805D01*
X0002895564Y0003435918D01*
X0002896451Y0003434837D01*
X0002897110Y0003433604D01*
X0002897516Y0003432267D01*
X0002897677Y0003430633D01*
X0002897677Y0003404011D01*
X0002897516Y0003402378D01*
X0002897110Y0003401040D01*
X0002896451Y0003399807D01*
X0002895564Y0003398726D01*
X0002894483Y0003397839D01*
X0002893250Y0003397180D01*
X0002891913Y0003396774D01*
X0002890279Y0003396613D01*
X0002866609Y0003396613D01*
X0002864976Y0003396774D01*
X0002863639Y0003397180D01*
X0002862406Y0003397839D01*
X0002861325Y0003398726D01*
X0002860438Y0003399807D01*
X0002859779Y0003401040D01*
X0002859373Y0003402378D01*
X0002859212Y0003404011D01*
X0002859212Y0003430633D01*
X0002859373Y0003432267D01*
X0002859779Y0003433604D01*
X0002860438Y0003434837D01*
X0002861325Y0003435918D01*
X0002862406Y0003436805D01*
X0002863639Y0003437464D01*
X0002864976Y0003437870D01*
X0002866609Y0003438031D01*
X0002890279Y0003438031D01*
X0002891913Y0003437870D01*
X0002891913Y0003437870D01*
G37*
G36*
X0002953920Y0003437870D02*
X0002955258Y0003437464D01*
X0002956491Y0003436805D01*
X0002957572Y0003435918D01*
X0002958459Y0003434837D01*
X0002959118Y0003433604D01*
X0002959524Y0003432267D01*
X0002959685Y0003430633D01*
X0002959685Y0003404011D01*
X0002959524Y0003402378D01*
X0002959118Y0003401040D01*
X0002958459Y0003399807D01*
X0002957572Y0003398726D01*
X0002956491Y0003397839D01*
X0002955258Y0003397180D01*
X0002953920Y0003396774D01*
X0002952287Y0003396613D01*
X0002928617Y0003396613D01*
X0002926984Y0003396774D01*
X0002925646Y0003397180D01*
X0002924413Y0003397839D01*
X0002923333Y0003398726D01*
X0002922446Y0003399807D01*
X0002921787Y0003401040D01*
X0002921381Y0003402378D01*
X0002921220Y0003404011D01*
X0002921220Y0003430633D01*
X0002921381Y0003432267D01*
X0002921787Y0003433604D01*
X0002922446Y0003434837D01*
X0002923333Y0003435918D01*
X0002924413Y0003436805D01*
X0002925646Y0003437464D01*
X0002926984Y0003437870D01*
X0002928617Y0003438031D01*
X0002952287Y0003438031D01*
X0002953920Y0003437870D01*
X0002953920Y0003437870D01*
G37*
G36*
X0002434235Y0003445744D02*
X0002435573Y0003445338D01*
X0002436806Y0003444679D01*
X0002437887Y0003443792D01*
X0002438774Y0003442711D01*
X0002439433Y0003441478D01*
X0002439839Y0003440141D01*
X0002440000Y0003438507D01*
X0002440000Y0003411885D01*
X0002439839Y0003410252D01*
X0002439433Y0003408914D01*
X0002438774Y0003407681D01*
X0002437887Y0003406600D01*
X0002436806Y0003405713D01*
X0002435573Y0003405054D01*
X0002434235Y0003404648D01*
X0002432602Y0003404487D01*
X0002408932Y0003404487D01*
X0002407299Y0003404648D01*
X0002405961Y0003405054D01*
X0002404728Y0003405713D01*
X0002403648Y0003406600D01*
X0002402761Y0003407681D01*
X0002402102Y0003408914D01*
X0002401696Y0003410252D01*
X0002401535Y0003411885D01*
X0002401535Y0003438507D01*
X0002401696Y0003440141D01*
X0002402102Y0003441478D01*
X0002402761Y0003442711D01*
X0002403648Y0003443792D01*
X0002404728Y0003444679D01*
X0002405961Y0003445338D01*
X0002407299Y0003445744D01*
X0002408932Y0003445905D01*
X0002432602Y0003445905D01*
X0002434235Y0003445744D01*
X0002434235Y0003445744D01*
G37*
G36*
X0002372228Y0003445744D02*
X0002373565Y0003445338D01*
X0002374798Y0003444679D01*
X0002375879Y0003443792D01*
X0002376766Y0003442711D01*
X0002377425Y0003441478D01*
X0002377831Y0003440141D01*
X0002377992Y0003438507D01*
X0002377992Y0003411885D01*
X0002377831Y0003410252D01*
X0002377425Y0003408914D01*
X0002376766Y0003407681D01*
X0002375879Y0003406600D01*
X0002374798Y0003405713D01*
X0002373565Y0003405054D01*
X0002372228Y0003404648D01*
X0002370594Y0003404487D01*
X0002346924Y0003404487D01*
X0002345291Y0003404648D01*
X0002343954Y0003405054D01*
X0002342721Y0003405713D01*
X0002341640Y0003406600D01*
X0002340753Y0003407681D01*
X0002340094Y0003408914D01*
X0002339688Y0003410252D01*
X0002339527Y0003411885D01*
X0002339527Y0003438507D01*
X0002339688Y0003440141D01*
X0002340094Y0003441478D01*
X0002340753Y0003442711D01*
X0002341640Y0003443792D01*
X0002342721Y0003444679D01*
X0002343954Y0003445338D01*
X0002345291Y0003445744D01*
X0002346924Y0003445905D01*
X0002370594Y0003445905D01*
X0002372228Y0003445744D01*
X0002372228Y0003445744D01*
G37*
G36*
X0002891913Y0003496925D02*
X0002893250Y0003496519D01*
X0002894483Y0003495860D01*
X0002895564Y0003494973D01*
X0002896451Y0003493892D01*
X0002897110Y0003492659D01*
X0002897516Y0003491322D01*
X0002897677Y0003489689D01*
X0002897677Y0003463066D01*
X0002897516Y0003461433D01*
X0002897110Y0003460095D01*
X0002896451Y0003458862D01*
X0002895564Y0003457781D01*
X0002894483Y0003456894D01*
X0002893250Y0003456235D01*
X0002891913Y0003455829D01*
X0002890279Y0003455669D01*
X0002866609Y0003455669D01*
X0002864976Y0003455829D01*
X0002863639Y0003456235D01*
X0002862406Y0003456894D01*
X0002861325Y0003457781D01*
X0002860438Y0003458862D01*
X0002859779Y0003460095D01*
X0002859373Y0003461433D01*
X0002859212Y0003463066D01*
X0002859212Y0003489689D01*
X0002859373Y0003491322D01*
X0002859779Y0003492659D01*
X0002860438Y0003493892D01*
X0002861325Y0003494973D01*
X0002862406Y0003495860D01*
X0002863639Y0003496519D01*
X0002864976Y0003496925D01*
X0002866609Y0003497086D01*
X0002890279Y0003497086D01*
X0002891913Y0003496925D01*
X0002891913Y0003496925D01*
G37*
G36*
X0003415535Y0003496925D02*
X0003416872Y0003496519D01*
X0003418105Y0003495860D01*
X0003419186Y0003494973D01*
X0003420073Y0003493892D01*
X0003420732Y0003492659D01*
X0003421138Y0003491322D01*
X0003421299Y0003489689D01*
X0003421299Y0003463066D01*
X0003421138Y0003461433D01*
X0003420732Y0003460095D01*
X0003420073Y0003458862D01*
X0003419186Y0003457781D01*
X0003418105Y0003456894D01*
X0003416872Y0003456235D01*
X0003415535Y0003455829D01*
X0003413902Y0003455669D01*
X0003390231Y0003455669D01*
X0003388598Y0003455829D01*
X0003387261Y0003456235D01*
X0003386028Y0003456894D01*
X0003384947Y0003457781D01*
X0003384060Y0003458862D01*
X0003383401Y0003460095D01*
X0003382995Y0003461433D01*
X0003382834Y0003463066D01*
X0003382834Y0003489689D01*
X0003382995Y0003491322D01*
X0003383401Y0003492659D01*
X0003384060Y0003493892D01*
X0003384947Y0003494973D01*
X0003386028Y0003495860D01*
X0003387261Y0003496519D01*
X0003388598Y0003496925D01*
X0003390231Y0003497086D01*
X0003413902Y0003497086D01*
X0003415535Y0003496925D01*
X0003415535Y0003496925D01*
G37*
G36*
X0003477542Y0003496925D02*
X0003478880Y0003496519D01*
X0003480113Y0003495860D01*
X0003481194Y0003494973D01*
X0003482081Y0003493892D01*
X0003482740Y0003492659D01*
X0003483146Y0003491322D01*
X0003483307Y0003489689D01*
X0003483307Y0003463066D01*
X0003483146Y0003461433D01*
X0003482740Y0003460095D01*
X0003482081Y0003458862D01*
X0003481194Y0003457781D01*
X0003480113Y0003456894D01*
X0003478880Y0003456235D01*
X0003477542Y0003455829D01*
X0003475909Y0003455669D01*
X0003452239Y0003455669D01*
X0003450606Y0003455829D01*
X0003449268Y0003456235D01*
X0003448035Y0003456894D01*
X0003446955Y0003457781D01*
X0003446068Y0003458862D01*
X0003445409Y0003460095D01*
X0003445003Y0003461433D01*
X0003444842Y0003463066D01*
X0003444842Y0003489689D01*
X0003445003Y0003491322D01*
X0003445409Y0003492659D01*
X0003446068Y0003493892D01*
X0003446955Y0003494973D01*
X0003448035Y0003495860D01*
X0003449268Y0003496519D01*
X0003450606Y0003496925D01*
X0003452239Y0003497086D01*
X0003475909Y0003497086D01*
X0003477542Y0003496925D01*
X0003477542Y0003496925D01*
G37*
G36*
X0002953920Y0003496925D02*
X0002955258Y0003496519D01*
X0002956491Y0003495860D01*
X0002957572Y0003494973D01*
X0002958459Y0003493892D01*
X0002959118Y0003492659D01*
X0002959524Y0003491322D01*
X0002959685Y0003489689D01*
X0002959685Y0003463066D01*
X0002959524Y0003461433D01*
X0002959118Y0003460095D01*
X0002958459Y0003458862D01*
X0002957572Y0003457781D01*
X0002956491Y0003456894D01*
X0002955258Y0003456235D01*
X0002953920Y0003455829D01*
X0002952287Y0003455669D01*
X0002928617Y0003455669D01*
X0002926984Y0003455829D01*
X0002925646Y0003456235D01*
X0002924413Y0003456894D01*
X0002923333Y0003457781D01*
X0002922446Y0003458862D01*
X0002921787Y0003460095D01*
X0002921381Y0003461433D01*
X0002921220Y0003463066D01*
X0002921220Y0003489689D01*
X0002921381Y0003491322D01*
X0002921787Y0003492659D01*
X0002922446Y0003493892D01*
X0002923333Y0003494973D01*
X0002924413Y0003495860D01*
X0002925646Y0003496519D01*
X0002926984Y0003496925D01*
X0002928617Y0003497086D01*
X0002952287Y0003497086D01*
X0002953920Y0003496925D01*
X0002953920Y0003496925D01*
G37*
G36*
X0002434235Y0003500862D02*
X0002435573Y0003500456D01*
X0002436806Y0003499797D01*
X0002437887Y0003498910D01*
X0002438774Y0003497829D01*
X0002439433Y0003496596D01*
X0002439839Y0003495259D01*
X0002440000Y0003493626D01*
X0002440000Y0003467003D01*
X0002439839Y0003465370D01*
X0002439433Y0003464032D01*
X0002438774Y0003462799D01*
X0002437887Y0003461718D01*
X0002436806Y0003460831D01*
X0002435573Y0003460172D01*
X0002434235Y0003459766D01*
X0002432602Y0003459606D01*
X0002408932Y0003459606D01*
X0002407299Y0003459766D01*
X0002405961Y0003460172D01*
X0002404728Y0003460831D01*
X0002403648Y0003461718D01*
X0002402761Y0003462799D01*
X0002402102Y0003464032D01*
X0002401696Y0003465370D01*
X0002401535Y0003467003D01*
X0002401535Y0003493626D01*
X0002401696Y0003495259D01*
X0002402102Y0003496596D01*
X0002402761Y0003497829D01*
X0002403648Y0003498910D01*
X0002404728Y0003499797D01*
X0002405961Y0003500456D01*
X0002407299Y0003500862D01*
X0002408932Y0003501023D01*
X0002432602Y0003501023D01*
X0002434235Y0003500862D01*
X0002434235Y0003500862D01*
G37*
G36*
X0002372228Y0003500862D02*
X0002373565Y0003500456D01*
X0002374798Y0003499797D01*
X0002375879Y0003498910D01*
X0002376766Y0003497829D01*
X0002377425Y0003496596D01*
X0002377831Y0003495259D01*
X0002377992Y0003493626D01*
X0002377992Y0003467003D01*
X0002377831Y0003465370D01*
X0002377425Y0003464032D01*
X0002376766Y0003462799D01*
X0002375879Y0003461718D01*
X0002374798Y0003460831D01*
X0002373565Y0003460172D01*
X0002372228Y0003459766D01*
X0002370594Y0003459606D01*
X0002346924Y0003459606D01*
X0002345291Y0003459766D01*
X0002343954Y0003460172D01*
X0002342721Y0003460831D01*
X0002341640Y0003461718D01*
X0002340753Y0003462799D01*
X0002340094Y0003464032D01*
X0002339688Y0003465370D01*
X0002339527Y0003467003D01*
X0002339527Y0003493626D01*
X0002339688Y0003495259D01*
X0002340094Y0003496596D01*
X0002340753Y0003497829D01*
X0002341640Y0003498910D01*
X0002342721Y0003499797D01*
X0002343954Y0003500456D01*
X0002345291Y0003500862D01*
X0002346924Y0003501023D01*
X0002370594Y0003501023D01*
X0002372228Y0003500862D01*
X0002372228Y0003500862D01*
G37*
M02*