%
M48
METRIC,000.000
T01C0.50
%
T01
X026488Y048250
X025488Y048250
X024488Y048250
X023488Y048250
X022488Y048250
X021488Y048250
X021023Y050149
X022023Y050149
X023023Y050149
X024023Y050149
X025023Y050149
X026023Y050149
X027023Y050149
X048250Y021755
X048250Y022755
X048250Y023755
X048250Y024755
X048250Y025755
X048250Y026755
X050150Y026732
X050150Y025732
X050150Y024732
X050150Y023732
X050150Y022732
X050150Y021732
X076888Y048250
X075888Y048250
X074888Y048250
X073888Y048250
X072888Y048250
X071888Y048250
X071423Y050149
X072423Y050149
X073423Y050149
X074423Y050149
X075423Y050149
X076423Y050149
X077423Y050149
X048250Y072155
X048250Y073155
X048250Y074155
X048250Y075155
X048250Y076155
X048250Y077155
X050150Y077132
X050150Y076132
X050150Y075132
X050150Y074132
X050150Y073132
X050150Y072132
M30